# This file uses centimeters as units for non-parametric coordinates.

mtllib single-door.small_v02.mtl
g default
v -0.484952 3.634414 0.000000
v -0.484952 3.634414 0.113514
v -0.484952 0.000000 0.113514
v -0.484952 0.000000 0.000000
v 0.484956 0.000000 0.000000
v 0.484956 0.000000 0.113514
v 0.484956 3.634414 0.113514
v 0.484956 3.634414 0.000000
v -0.644682 3.634414 0.000000
v -0.644682 3.634414 0.113514
v 0.644682 3.634414 0.113514
v 0.644682 3.634414 0.000000
v -0.644682 0.000000 0.113514
v 0.644682 0.000000 0.113514
v -0.484921 -0.000015 0.113524
v 0.484954 -0.000015 0.113524
v 0.484954 0.091612 0.113524
v -0.484921 0.091612 0.113524
v 0.484954 0.091612 0.002743
v -0.484921 0.091612 0.002743
v -0.484921 -0.000015 0.002743
v 0.484954 -0.000015 0.002743
v 0.606667 1.206898 0.001217
v 0.606667 1.206898 -0.002358
v 0.606667 1.264333 -0.002358
v 0.606667 1.264333 0.001217
v -0.606667 1.206898 0.000633
v -0.606667 1.206898 0.004208
v -0.606667 1.264333 0.004208
v -0.606667 1.264333 0.000633
v -0.606667 0.225190 0.069995
v 0.606667 0.225190 0.069995
v 0.606667 0.347005 0.069995
v -0.606667 0.347005 0.069995
v 0.606667 0.347005 -0.012926
v -0.606667 0.347005 -0.012926
v -0.606667 0.225190 -0.012926
v 0.606667 0.225190 -0.012926
v -0.484900 3.422833 0.113518
v 0.484983 3.422833 0.113518
v 0.484983 3.633987 0.113518
v -0.484900 3.633987 0.113518
v 0.484983 3.633987 0.000644
v -0.484900 3.633987 0.000644
v -0.484900 3.422833 0.000644
v 0.484983 3.422833 0.000644
v -0.607458 0.050088 0.040800
v 0.607458 0.050088 0.040800
v 0.607458 3.592654 0.040800
v -0.607458 3.592654 0.040800
v 0.606667 0.527764 0.001217
v 0.606667 0.527764 -0.002358
v 0.606667 0.585200 -0.002358
v 0.606667 0.585200 0.001217
v -0.606667 0.527764 0.000633
v -0.606667 0.527764 0.004208
v -0.606667 0.585200 0.004208
v -0.606667 0.585200 0.000633
v 0.606667 0.434807 0.001217
v 0.606667 0.434807 -0.002358
v 0.606667 0.492242 -0.002358
v 0.606667 0.492242 0.001217
v -0.606667 0.434807 0.000633
v -0.606667 0.434807 0.004208
v -0.606667 0.492242 0.004208
v -0.606667 0.492242 0.000633
v -0.606667 0.404625 0.069995
v 0.606667 0.404625 0.069995
v 0.606667 0.526439 0.069995
v -0.606667 0.526439 0.069995
v 0.606667 0.526439 -0.012926
v -0.606667 0.526439 -0.012926
v -0.606667 0.404625 -0.012926
v 0.606667 0.404625 -0.012926
v 0.606667 0.227838 0.001217
v 0.606667 0.227838 -0.002358
v 0.606667 0.285274 -0.002358
v 0.606667 0.285274 0.001217
v -0.606667 0.227838 0.000633
v -0.606667 0.227838 0.004208
v -0.606667 0.285274 0.004208
v -0.606667 0.285274 0.000633
v -0.644647 0.000000 0.000000
v -0.644647 0.000000 0.113514
v -0.644647 3.634414 0.113514
v -0.644647 3.634414 0.000000
v 0.644769 3.634414 0.000000
v 0.644769 3.634414 0.113514
v 0.644769 0.000000 0.113514
v 0.644769 0.000000 0.000000
vt 0.840757 0.332078
vt 0.840757 0.332078
vt 0.840757 0.347881
vt 0.840757 0.347881
vt 0.159194 0.332078
vt 0.159194 0.332078
vt 0.159194 0.347881
vt 0.159194 0.347881
vt 0.158749 0.013786
vt 0.841202 0.013786
vt 0.841202 0.988510
vt 0.158749 0.988510
vt 0.840757 0.677109
vt 0.840757 0.677109
vt 0.840757 0.692913
vt 0.840757 0.692913
vt 0.159194 0.677109
vt 0.159194 0.677109
vt 0.159194 0.692913
vt 0.159194 0.692913
vt 0.840757 0.910319
vt 0.840757 0.910319
vt 0.840757 0.926122
vt 0.840757 0.926122
vt 0.159194 0.910319
vt 0.159194 0.910319
vt 0.159194 0.926122
vt 0.159194 0.926122
vt 0.840757 0.062693
vt 0.840757 0.062693
vt 0.840757 0.078496
vt 0.840757 0.078496
vt 0.159194 0.062693
vt 0.159194 0.062693
vt 0.159194 0.078496
vt 0.159194 0.078496
vt 0.032960 0.998008
vt 0.001851 0.998008
vt 0.001851 0.001992
vt 0.032960 0.001992
vt 0.040064 0.001992
vt 0.071172 0.001992
vt 0.071172 0.998008
vt 0.040064 0.998008
vt 0.822199 0.001992
vt 0.822199 0.033101
vt 0.798883 0.033101
vt 0.798883 0.001992
vt 0.829670 0.033101
vt 0.829670 0.001992
vt 0.852987 0.001992
vt 0.852987 0.033101
vt 0.078095 0.001992
vt 0.101411 0.001992
vt 0.101411 0.998008
vt 0.078095 0.998008
vt 0.108883 0.001992
vt 0.132199 0.001992
vt 0.132199 0.998008
vt 0.108883 0.998008
vt 0.516363 0.308701
vt 0.516363 0.001992
vt 0.541474 0.001992
vt 0.541474 0.308701
vt 0.585182 0.308701
vt 0.585182 0.001992
vt 0.615542 0.001992
vt 0.615542 0.308701
vt 0.548962 0.308701
vt 0.548962 0.001992
vt 0.579321 0.001992
vt 0.579321 0.308701
vt 0.871457 0.066994
vt 0.871457 0.036634
vt 0.896567 0.036634
vt 0.896567 0.066994
vt 0.902268 0.066994
vt 0.902268 0.036634
vt 0.927379 0.036634
vt 0.927379 0.066994
vt 0.255576 0.334508
vt 0.255576 0.001992
vt 0.288959 0.001992
vt 0.288959 0.334508
vt 0.295418 0.334508
vt 0.295418 0.001992
vt 0.318143 0.001992
vt 0.318143 0.334508
vt 0.324395 0.334508
vt 0.324395 0.001992
vt 0.347119 0.001992
vt 0.347119 0.334508
vt 0.621403 0.001992
vt 0.644127 0.001992
vt 0.644127 0.035376
vt 0.621403 0.035376
vt 0.650379 0.001992
vt 0.673104 0.001992
vt 0.673104 0.035376
vt 0.650379 0.035376
vt 0.411324 0.308703
vt 0.411324 0.001992
vt 0.432847 0.001992
vt 0.432847 0.308703
vt 0.440300 0.308704
vt 0.440300 0.001992
vt 0.471233 0.001992
vt 0.471233 0.308704
vt 0.478332 0.308703
vt 0.478332 0.001992
vt 0.509265 0.001992
vt 0.509265 0.308703
vt 0.860458 0.032925
vt 0.860458 0.001992
vt 0.881981 0.001992
vt 0.881981 0.032925
vt 0.889434 0.032925
vt 0.889434 0.001992
vt 0.910957 0.001992
vt 0.910957 0.032925
vt 0.215733 0.334508
vt 0.215733 0.001992
vt 0.249116 0.001992
vt 0.249116 0.334508
vt 0.353371 0.334508
vt 0.353371 0.001992
vt 0.376096 0.001992
vt 0.376096 0.334508
vt 0.382347 0.334508
vt 0.382347 0.001992
vt 0.405072 0.001992
vt 0.405072 0.334508
vt 0.679356 0.001992
vt 0.702080 0.001992
vt 0.702080 0.035375
vt 0.679356 0.035375
vt 0.708332 0.001992
vt 0.731056 0.001992
vt 0.731056 0.035375
vt 0.708332 0.035375
vt 0.139670 0.001992
vt 0.170779 0.001992
vt 0.170779 0.998008
vt 0.139670 0.998008
vt 0.208810 0.998008
vt 0.177702 0.998008
vt 0.177702 0.001992
vt 0.208810 0.001992
vn 1.000000 0.000000 0.000000
vn 1.000000 0.000000 0.000000
vn 1.000000 0.000000 0.000000
vn 1.000000 0.000000 0.000000
vn -1.000000 0.000000 0.000000
vn -1.000000 0.000000 0.000000
vn -1.000000 0.000000 0.000000
vn -1.000000 0.000000 0.000000
vn 0.000000 1.000000 0.000001
vn 0.000000 1.000000 0.000001
vn 0.000000 1.000000 0.000001
vn 0.000000 1.000000 0.000001
vn 0.000000 1.000000 -0.000001
vn 0.000000 1.000000 -0.000001
vn 0.000000 1.000000 -0.000001
vn 0.000000 1.000000 -0.000001
vn 0.000000 0.000000 1.000000
vn 0.000000 0.000000 1.000000
vn 0.000000 0.000000 1.000000
vn 0.000000 0.000000 1.000000
vn 0.000000 0.000000 1.000000
vn 0.000000 0.000000 1.000000
vn 0.000000 0.000000 1.000000
vn 0.000000 0.000000 1.000000
vn 0.000000 0.000000 1.000000
vn 0.000000 0.000000 1.000000
vn 0.000000 0.000000 1.000000
vn 0.000000 0.000000 1.000000
vn 0.000000 1.000000 0.000000
vn 0.000000 1.000000 0.000000
vn 0.000000 1.000000 0.000000
vn 0.000000 1.000000 0.000000
vn 0.000000 -1.000000 0.000000
vn 0.000000 -1.000000 0.000000
vn 0.000000 -1.000000 0.000000
vn 0.000000 -1.000000 0.000000
vn 1.000000 0.000000 0.000000
vn 1.000000 0.000000 0.000000
vn 1.000000 0.000000 0.000000
vn 1.000000 0.000000 0.000000
vn -1.000000 0.000000 0.000000
vn -1.000000 0.000000 0.000000
vn -1.000000 0.000000 0.000000
vn -1.000000 0.000000 0.000000
vn 1.000000 0.000000 0.000000
vn 1.000000 0.000000 0.000000
vn 1.000000 0.000000 0.000000
vn 1.000000 0.000000 0.000000
vn -1.000000 0.000000 0.000000
vn -1.000000 0.000000 0.000000
vn -1.000000 0.000000 0.000000
vn -1.000000 0.000000 0.000000
vn 0.000000 0.000000 1.000000
vn 0.000000 0.000000 1.000000
vn 0.000000 0.000000 1.000000
vn 0.000000 0.000000 1.000000
vn 0.000000 1.000000 0.000000
vn 0.000000 1.000000 0.000000
vn 0.000000 1.000000 0.000000
vn 0.000000 1.000000 0.000000
vn 0.000000 -1.000000 0.000000
vn 0.000000 -1.000000 0.000000
vn 0.000000 -1.000000 0.000000
vn 0.000000 -1.000000 0.000000
vn 1.000000 -0.000001 0.000000
vn 1.000000 -0.000001 0.000000
vn 1.000000 -0.000001 0.000000
vn 1.000000 -0.000001 0.000000
vn -1.000000 -0.000001 0.000000
vn -1.000000 -0.000001 0.000000
vn -1.000000 -0.000001 0.000000
vn -1.000000 -0.000001 0.000000
vn 0.000000 0.000000 1.000000
vn 0.000000 0.000000 1.000000
vn 0.000000 0.000000 1.000000
vn 0.000000 0.000000 1.000000
vn 0.000000 1.000000 -0.000001
vn 0.000000 1.000000 -0.000001
vn 0.000000 1.000000 -0.000001
vn 0.000000 1.000000 -0.000001
vn 0.000000 -1.000000 0.000000
vn 0.000000 -1.000000 0.000000
vn 0.000000 -1.000000 0.000000
vn 0.000000 -1.000000 0.000000
vn 1.000000 0.000000 0.000000
vn 1.000000 0.000000 0.000000
vn 1.000000 0.000000 0.000000
vn 1.000000 0.000000 0.000000
vn -1.000000 0.000000 0.000000
vn -1.000000 0.000000 0.000000
vn -1.000000 0.000000 0.000000
vn -1.000000 0.000000 0.000000
vn 0.000000 0.000000 1.000000
vn 0.000000 0.000000 1.000000
vn 0.000000 0.000000 1.000000
vn 0.000000 0.000000 1.000000
vn 1.000000 0.000000 0.000000
vn 1.000000 0.000000 0.000000
vn 1.000000 0.000000 0.000000
vn 1.000000 0.000000 0.000000
vn -1.000000 0.000000 0.000000
vn -1.000000 0.000000 0.000000
vn -1.000000 0.000000 0.000000
vn -1.000000 0.000000 0.000000
vn 1.000000 0.000000 0.000000
vn 1.000000 0.000000 0.000000
vn 1.000000 0.000000 0.000000
vn 1.000000 0.000000 0.000000
vn -1.000000 0.000000 0.000000
vn -1.000000 0.000000 0.000000
vn -1.000000 0.000000 0.000000
vn -1.000000 0.000000 0.000000
vn 0.000000 0.000000 1.000000
vn 0.000000 0.000000 1.000000
vn 0.000000 0.000000 1.000000
vn 0.000000 0.000000 1.000000
vn 0.000000 1.000000 0.000000
vn 0.000000 1.000000 0.000000
vn 0.000000 1.000000 0.000000
vn 0.000000 1.000000 0.000000
vn 0.000000 -1.000000 0.000000
vn 0.000000 -1.000000 0.000000
vn 0.000000 -1.000000 0.000000
vn 0.000000 -1.000000 0.000000
vn 1.000000 -0.000001 0.000000
vn 1.000000 -0.000001 0.000000
vn 1.000000 -0.000001 0.000000
vn 1.000000 -0.000001 0.000000
vn -1.000000 -0.000001 0.000000
vn -1.000000 -0.000001 0.000000
vn -1.000000 -0.000001 0.000000
vn -1.000000 -0.000001 0.000000
vn 1.000000 0.000000 0.000000
vn 1.000000 0.000000 0.000000
vn 1.000000 0.000000 0.000000
vn 1.000000 0.000000 0.000000
vn -1.000000 0.000000 0.000000
vn -1.000000 0.000000 0.000000
vn -1.000000 0.000000 0.000000
vn -1.000000 0.000000 0.000000
vn -1.000000 0.000000 0.000000
vn -1.000000 0.000000 0.000000
vn -1.000000 0.000000 0.000000
vn -1.000000 0.000000 0.000000
vn 1.000000 0.000000 0.000000
vn 1.000000 0.000000 0.000000
vn 1.000000 0.000000 0.000000
vn 1.000000 0.000000 0.000000
s off
g door
usemtl lambert2SG
f 1/37/1 2/38/2 3/39/3 4/40/4
f 5/41/5 6/42/6 7/43/7 8/44/8
f 2/45/9 1/46/10 9/47/11 10/48/12
f 8/49/13 7/50/14 11/51/15 12/52/16
f 13/53/17 3/54/18 2/55/19 10/56/20
f 6/57/21 14/58/22 11/59/23 7/60/24
f 15/61/25 16/62/26 17/63/27 18/64/28
f 18/65/29 17/66/30 19/67/31 20/68/32
f 21/69/33 22/70/34 16/71/35 15/72/36
f 16/73/37 22/74/38 19/75/39 17/76/40
f 21/77/41 15/78/42 18/79/43 20/80/44
f 23/1/45 24/2/46 25/3/47 26/4/48
f 27/5/49 28/6/50 29/7/51 30/8/52
f 31/81/53 32/82/54 33/83/55 34/84/56
f 34/85/57 33/86/58 35/87/59 36/88/60
f 37/89/61 38/90/62 32/91/63 31/92/64
f 32/93/65 38/94/66 35/95/67 33/96/68
f 37/97/69 31/98/70 34/99/71 36/100/72
f 39/101/73 40/102/74 41/103/75 42/104/76
f 42/105/77 41/106/78 43/107/79 44/108/80
f 45/109/81 46/110/82 40/111/83 39/112/84
f 40/113/85 46/114/86 43/115/87 41/116/88
f 45/117/89 39/118/90 42/119/91 44/120/92
f 47/9/93 48/10/94 49/11/95 50/12/96
f 51/13/97 52/14/98 53/15/99 54/16/100
f 55/17/101 56/18/102 57/19/103 58/20/104
f 59/21/105 60/22/106 61/23/107 62/24/108
f 63/25/109 64/26/110 65/27/111 66/28/112
f 67/121/113 68/122/114 69/123/115 70/124/116
f 70/125/117 69/126/118 71/127/119 72/128/120
f 73/129/121 74/130/122 68/131/123 67/132/124
f 68/133/125 74/134/126 71/135/127 69/136/128
f 73/137/129 67/138/130 70/139/131 72/140/132
f 75/29/133 76/30/134 77/31/135 78/32/136
f 79/33/137 80/34/138 81/35/139 82/36/140
f 83/141/141 84/142/142 85/143/143 86/144/144
f 87/145/145 88/146/146 89/147/147 90/148/148
g default
v -0.381963 1.683359 0.115291
v -0.346130 1.683359 0.115291
v -0.381963 1.721599 0.115291
v -0.346130 1.721599 0.115291
v -0.381963 1.866543 0.115291
v -0.346130 1.866543 0.115291
v -0.381963 1.904783 0.115291
v -0.346130 1.904783 0.115291
v -0.381963 1.904783 0.077435
v -0.346130 1.904783 0.077435
v -0.381963 1.866543 0.077435
v -0.346130 1.866543 0.077435
v -0.381963 1.721599 0.077435
v -0.346130 1.721599 0.077435
v -0.381963 1.683359 0.077435
v -0.346130 1.683359 0.077435
v -0.381963 1.904783 0.020778
v -0.346130 1.904783 0.020778
v -0.346130 1.866543 0.020778
v -0.381963 1.866543 0.020778
v -0.381963 1.721599 0.020778
v -0.346130 1.721599 0.020778
v -0.346130 1.683359 0.020778
v -0.381963 1.683359 0.020778
vt 0.001851 0.001992
vt 0.114398 0.001992
vt 0.114398 0.122098
vt 0.001851 0.122098
vt 0.114398 0.577343
vt 0.001851 0.577343
vt 0.114398 0.697450
vt 0.001851 0.697450
vt 0.814778 0.460946
vt 0.927325 0.460946
vt 0.927325 0.579843
vt 0.814778 0.579843
vt 0.927325 0.757795
vt 0.814778 0.757795
vt 0.730022 0.001992
vt 0.842569 0.001992
vt 0.842569 0.457237
vt 0.730022 0.457237
vt 0.696530 0.879111
vt 0.809077 0.879111
vt 0.809077 0.998008
vt 0.696530 0.998008
vt 0.696530 0.701158
vt 0.809077 0.701158
vt 0.121553 0.001992
vt 0.240449 0.001992
vt 0.240449 0.122098
vt 0.121553 0.122098
vt 0.418402 0.001992
vt 0.418402 0.122098
vt 0.240449 0.577343
vt 0.121553 0.577343
vt 0.240449 0.697450
vt 0.121553 0.697450
vt 0.418402 0.577343
vt 0.418402 0.697450
vt 0.603740 0.001992
vt 0.722637 0.001992
vt 0.722637 0.122098
vt 0.603740 0.122098
vt 0.722637 0.577343
vt 0.603740 0.577343
vt 0.425787 0.122098
vt 0.425787 0.001992
vt 0.722637 0.697450
vt 0.603740 0.697450
vt 0.425787 0.697450
vt 0.425787 0.577343
vt 0.690829 0.879111
vt 0.578282 0.879111
vt 0.578282 0.701158
vt 0.690829 0.701158
vt 0.460034 0.701158
vt 0.572581 0.701158
vt 0.572581 0.879111
vt 0.460034 0.879111
vn 0.000000 0.000000 1.000000
vn 0.000000 0.000000 1.000000
vn 0.000000 0.000000 1.000000
vn 0.000000 0.000000 1.000000
vn 0.000000 0.000000 1.000000
vn 0.000000 0.000000 1.000000
vn 0.000000 0.000000 1.000000
vn 0.000000 0.000000 1.000000
vn 0.000000 0.000000 -1.000000
vn 0.000000 0.000000 -1.000000
vn 0.000000 0.000000 -1.000000
vn 0.000000 0.000000 -1.000000
vn 0.000000 -1.000000 0.000000
vn 0.000000 -1.000000 0.000000
vn 0.000000 -1.000000 0.000000
vn 0.000000 -1.000000 0.000000
vn -1.000000 0.000000 0.000000
vn -1.000000 0.000000 0.000000
vn -1.000000 0.000000 0.000000
vn -1.000000 0.000000 0.000000
vn -1.000000 0.000000 0.000000
vn -1.000000 0.000000 0.000000
vn -1.000000 0.000000 0.000000
vn -1.000000 0.000000 0.000000
vn -1.000000 0.000000 0.000000
vn -1.000000 0.000000 0.000000
vn -1.000000 0.000000 0.000000
vn -1.000000 0.000000 0.000000
vn 0.000000 1.000000 0.000000
vn 0.000000 1.000000 0.000000
vn 0.000000 1.000000 0.000000
vn 0.000000 1.000000 0.000000
vn 0.000000 1.000000 0.000000
vn 0.000000 1.000000 0.000000
vn 0.000000 -1.000000 0.000000
vn 0.000000 -1.000000 0.000000
vn 0.000000 -1.000000 0.000000
vn 0.000000 -1.000000 0.000000
vn 0.000000 1.000000 0.000000
vn 0.000000 1.000000 0.000000
vn 0.000000 1.000000 0.000000
vn 0.000000 1.000000 0.000000
vn 1.000000 -0.000000 0.000000
vn 1.000000 -0.000000 0.000000
vn 1.000000 -0.000000 0.000000
vn 1.000000 -0.000000 0.000000
vn 1.000000 -0.000000 0.000000
vn 1.000000 -0.000000 0.000000
vn 1.000000 -0.000000 0.000000
vn 1.000000 -0.000000 0.000000
vn 1.000000 -0.000000 0.000000
vn 1.000000 -0.000000 0.000000
vn 1.000000 -0.000000 0.000000
vn 1.000000 -0.000000 0.000000
vn 0.000000 -1.000000 0.000000
vn 0.000000 -1.000000 0.000000
s off
g pCube1
usemtl lambert2SG
f 96/153/149 98/155/150 97/156/151 95/154/152 93/152/153 91/149/154 92/150/155 94/151/156
f 101/163/157 102/164/158 104/165/159 103/166/160
s 3
f 105/167/161 106/168/162 92/169/163 91/170/164
s off
f 95/189/165 97/193/166 99/194/167 107/195/168 110/196/169 101/190/170 103/188/171 111/191/172 114/192/173 105/185/174 91/186/175 93/187/176
f 100/159/177 108/161/178 107/162/179 99/160/180 97/157/181 98/158/182
f 102/197/183 101/198/184 110/199/185 109/200/186
f 103/201/187 104/202/188 112/203/189 111/204/190
f 96/180/191 94/176/192 92/173/193 106/174/194 113/177/195 112/178/196 104/175/197 102/179/198 109/183/199 108/184/200 100/181/201 98/182/202
s 3
f 106/168/162 105/167/161 114/171/203 113/172/204
