# This file uses centimeters as units for non-parametric coordinates.

mtllib balken.mtl
g default
v 10.218935 1.171396 0.500000
v 10.299664 1.171396 0.500000
v 10.218935 1.552580 0.500000
v 10.299664 1.552580 0.500000
v 10.288040 1.552580 0.500000
v 10.288040 1.171396 0.500000
v 10.236126 1.552580 0.500000
v 10.236126 1.171396 0.500000
v 10.236126 1.171396 0.520974
v 10.288040 1.171396 0.520974
v 10.288040 1.552580 0.520974
v 10.236126 1.552580 0.520974
vt 0.516198 0.150736
vt 0.504551 1.000902
vt 0.504551 0.150907
vt 0.516198 0.999644
vt 0.496961 0.999644
vt 0.447264 0.150731
vt 0.465635 1.001038
vt 0.514523 0.150909
vt 0.496473 0.150702
vt 0.495869 0.150907
vt 0.416426 1.001078
vt 0.410152 1.000888
vt 0.496473 1.001038
vt 0.410152 0.150909
vt 0.514523 1.000888
vt 0.495869 1.000902
vt 0.416426 0.150731
vt 0.447264 1.001078
vt 0.496961 0.150736
vt 0.465635 0.150702
vn 0.000000 0.000000 1.000000
vn 0.000000 0.000000 1.000000
vn 0.000000 0.000000 1.000000
vn 0.000000 0.000000 1.000000
vn 0.000000 0.000000 1.000000
vn 0.000000 0.000000 1.000000
vn 0.000000 0.000000 1.000000
vn 0.000000 0.000000 1.000000
vn 0.000000 0.000000 1.000000
vn 0.000000 0.000000 1.000000
vn 0.000000 0.000000 1.000000
vn 0.000000 0.000000 1.000000
vn 1.000000 0.000000 0.000000
vn 1.000000 0.000000 0.000000
vn 1.000000 0.000000 0.000000
vn 1.000000 0.000000 0.000000
vn -1.000000 0.000000 0.000000
vn -1.000000 0.000000 0.000000
vn -1.000000 0.000000 0.000000
vn -1.000000 0.000000 0.000000
s off
g pCube41
usemtl lambert3SG
f 6/19/1 2/1/2 4/4/3 5/5/4
f 9/14/5 10/10/6 11/16/7 12/12/8
f 1/3/9 8/8/10 7/15/11 3/2/12
f 6/6/13 5/18/14 11/11/15 10/17/16
f 7/7/17 8/20/18 9/9/19 12/13/20
