# This file uses centimeters as units for non-parametric coordinates.

mtllib fenster1.mtl
g default
v 10.354803 0.228052 0.515802
v 10.615854 0.228052 0.515802
v 10.353476 0.218956 0.515802
v 10.617140 0.218956 0.515802
v 10.353476 0.218956 0.482359
v 10.617140 0.218956 0.482359
v 10.354803 0.228052 0.482359
v 10.615854 0.228052 0.482359
v 10.671665 0.590613 0.500000
v 10.672527 0.090613 0.500000
v 10.299633 0.590613 0.500000
v 10.299633 0.090613 0.500000
v 10.569577 0.485815 0.500000
v 10.403860 0.485815 0.500000
v 10.403984 0.229304 0.500000
v 10.569899 0.229304 0.500000
v 10.403984 0.229304 0.468046
v 10.569899 0.229304 0.468046
v 10.569577 0.485815 0.468046
v 10.403860 0.485815 0.468046
v 10.470125 0.563748 0.512985
v 10.462742 0.581258 0.512985
v 10.462742 0.581258 0.497772
v 10.470125 0.563748 0.497772
v 10.483460 0.585800 0.512985
v 10.483460 0.585800 0.497772
v 10.483460 0.564543 0.497772
v 10.483460 0.564543 0.512985
v 10.454566 0.556080 0.497772
v 10.454566 0.556080 0.512984
v 10.443104 0.572860 0.512984
v 10.443104 0.572860 0.497772
v 10.441385 0.534979 0.497772
v 10.441385 0.534979 0.512984
v 10.425939 0.553784 0.512984
v 10.425939 0.553784 0.497772
v 10.377911 0.534979 0.497772
v 10.377911 0.534979 0.512984
v 10.367425 0.552116 0.512984
v 10.367425 0.552116 0.497772
v 10.496797 0.563748 0.512985
v 10.504180 0.581258 0.512985
v 10.504177 0.581258 0.497772
v 10.496797 0.563748 0.497772
v 10.590021 0.534979 0.497772
v 10.590021 0.534979 0.512984
v 10.600506 0.552116 0.512984
v 10.600506 0.552116 0.497772
v 10.512356 0.556080 0.512984
v 10.512356 0.556080 0.497772
v 10.523816 0.572860 0.512984
v 10.523816 0.572860 0.497772
v 10.525537 0.534979 0.512984
v 10.525537 0.534979 0.497772
v 10.540986 0.553784 0.512984
v 10.540986 0.553784 0.497772
vt 0.907171 0.807143
vt 0.904678 0.569984
vt 0.908965 0.569123
vt 0.913099 0.808516
vt 0.917350 0.545546
vt 0.915925 0.826798
vt 0.890522 0.826798
vt 0.889096 0.545546
vt 0.889529 0.807710
vt 0.889778 0.569990
vt 0.914523 0.569990
vt 0.914770 0.807710
vt 0.893059 0.392808
vt 0.913526 0.392808
vt 0.912834 0.395254
vt 0.893751 0.395254
vt 0.893848 0.394628
vt 0.912728 0.394628
vt 0.913300 0.396963
vt 0.893276 0.396963
vt 0.868828 0.483153
vt 0.868682 1.000944
vt 0.774456 0.892435
vt 0.774390 0.626726
vt 0.621638 0.892435
vt 0.525747 1.000952
vt 0.621351 0.626726
vt 0.774390 0.626726
vt 0.774456 0.892435
vt 0.621638 0.892435
vt 0.524932 0.483114
vt 0.621351 0.626726
vt 0.466606 0.761215
vt 0.466606 0.602071
vt 0.487688 0.602071
vt 0.487688 0.761215
vt 0.466894 0.310198
vt 0.466967 0.602737
vt 0.430525 0.602747
vt 0.430452 0.310207
vt 0.468377 0.625573
vt 0.468377 0.784480
vt 0.447300 0.784480
vt 0.447300 0.625573
vt 0.431921 0.888098
vt 0.431605 0.595558
vt 0.468047 0.595519
vt 0.468363 0.888058
vt 0.683507 0.973902
vt 0.696988 0.974706
vt 0.696988 0.996193
vt 0.676045 0.991601
vt 0.382126 0.073989
vt 0.440836 0.073989
vt 0.440836 0.037503
vt 0.382126 0.037503
vt 0.403048 0.037503
vt 0.440836 0.037503
vt 0.440836 0.073989
vt 0.403048 0.073989
vt 0.785189 0.944779
vt 0.769597 0.944779
vt 0.769597 0.962843
vt 0.785189 0.962843
vt 0.358958 0.073989
vt 0.358958 0.037503
vt 0.656194 0.982235
vt 0.667781 0.966152
vt 0.326477 0.037503
vt 0.326477 0.073989
vt 0.321606 0.073989
vt 0.321606 0.037503
vt 0.639501 0.963172
vt 0.654457 0.944822
vt 0.277834 0.037503
vt 0.277834 0.073989
vt 0.141739 0.073989
vt 0.141739 0.037503
vt 0.592443 0.962144
vt 0.601895 0.944822
vt 0.112026 0.037503
vt 0.112026 0.073989
vt 0.710468 0.973902
vt 0.717930 0.991601
vt 0.499548 0.073989
vt 0.499541 0.037503
vt 0.478626 0.037503
vt 0.478626 0.073989
vt 0.785214 0.944753
vt 0.785214 0.962818
vt 0.769623 0.962818
vt 0.769623 0.944753
vt 0.522716 0.037503
vt 0.522716 0.073989
vt 0.726194 0.966152
vt 0.737780 0.982235
vt 0.555192 0.073989
vt 0.555192 0.037503
vt 0.560068 0.037503
vt 0.560068 0.073989
vt 0.739518 0.944822
vt 0.752938 0.963391
vt 0.603845 0.073989
vt 0.603845 0.037503
vt 0.742797 0.037503
vt 0.742797 0.073989
vt 0.793101 0.944822
vt 0.802552 0.962144
vt 0.772507 0.073989
vt 0.772507 0.037503
vn 0.000000 0.000000 -1.000000
vn 0.000000 0.000000 -1.000000
vn 0.000000 0.000000 -1.000000
vn 0.000000 0.000000 -1.000000
vn -0.000000 1.000000 -0.000001
vn -0.000000 1.000000 -0.000001
vn -0.000000 1.000000 -0.000001
vn -0.000000 1.000000 -0.000001
vn 0.000000 -1.000000 0.000002
vn 0.000000 -1.000000 0.000002
vn 0.000000 -1.000000 0.000002
vn 0.000000 -1.000000 0.000002
vn -0.990169 -0.139874 0.000000
vn -0.990169 -0.139874 0.000000
vn -0.990169 -0.139874 0.000000
vn -0.990169 -0.139874 0.000000
vn 0.989528 -0.144339 0.000000
vn 0.989528 -0.144339 0.000000
vn 0.989528 -0.144339 0.000000
vn 0.989528 -0.144339 0.000000
vn 0.000000 0.000000 1.000000
vn 0.000000 0.000000 1.000000
vn 0.000000 0.000000 1.000000
vn 0.000000 0.000000 1.000000
vn 0.000000 0.000000 1.000000
vn 0.000000 0.000000 1.000000
vn 0.000000 0.000000 1.000000
vn 0.000000 0.000000 1.000000
vn 0.000000 0.000000 1.000000
vn 0.000000 0.000000 1.000000
vn 0.000000 0.000000 1.000000
vn 0.000000 0.000000 1.000000
vn 0.000000 1.000000 0.000000
vn 0.000000 1.000000 0.000000
vn 0.000000 1.000000 0.000000
vn 0.000000 1.000000 0.000000
vn -0.999999 -0.001251 0.000000
vn -0.999999 -0.001251 0.000000
vn -0.999999 -0.001251 0.000000
vn -0.999999 -0.001251 0.000000
vn 0.000000 -1.000000 0.000000
vn 0.000000 -1.000000 0.000000
vn 0.000000 -1.000000 0.000000
vn 0.000000 -1.000000 0.000000
vn 1.000000 0.000484 0.000000
vn 1.000000 0.000484 0.000000
vn 1.000000 0.000484 0.000000
vn 1.000000 0.000484 0.000000
vn -0.000002 -0.000001 1.000000
vn 0.000000 0.000000 1.000000
vn 0.000000 0.000000 1.000000
vn -0.000002 -0.000001 1.000000
vn -0.305023 0.952345 0.000000
vn -0.214165 0.976798 0.000000
vn -0.214165 0.976798 0.000000
vn -0.305023 0.952345 0.000000
vn 0.255848 -0.966717 -0.000004
vn 0.059549 -0.998225 -0.000007
vn 0.059549 -0.998225 -0.000007
vn 0.255848 -0.966717 -0.000004
vn -0.852997 -0.521917 0.000000
vn -0.852997 -0.521917 0.000000
vn -0.852997 -0.521917 0.000000
vn -0.852997 -0.521917 0.000000
vn 0.442034 -0.896998 0.000000
vn 0.442034 -0.896998 0.000000
vn -0.000002 -0.000001 1.000000
vn -0.000002 -0.000001 1.000000
vn -0.393181 0.919461 0.000000
vn -0.393181 0.919461 0.000000
vn 0.848131 -0.529786 0.000000
vn 0.848131 -0.529786 0.000000
vn 0.848131 -0.529786 0.000000
vn 0.848131 -0.529786 0.000000
vn 0.000000 0.000000 1.000000
vn 0.000000 0.000000 1.000000
vn -0.743345 0.668909 0.000000
vn -0.743345 0.668909 0.000000
vn -0.743345 0.668909 0.000000
vn -0.743345 0.668909 0.000000
vn 0.000000 -1.000000 0.000000
vn 0.000000 -1.000000 0.000000
vn 0.000000 -1.000000 0.000000
vn 0.000000 -1.000000 0.000000
vn 0.000000 0.000000 1.000000
vn 0.000000 0.000000 1.000000
vn -0.028505 0.999594 0.000000
vn -0.028505 0.999594 0.000000
vn -0.028505 0.999594 0.000000
vn -0.028505 0.999594 0.000000
vn 0.000003 -0.000001 1.000000
vn 0.000003 -0.000001 1.000000
vn 0.000000 0.000000 1.000000
vn 0.000000 0.000000 1.000000
vn 0.305026 0.952344 -0.000021
vn 0.305026 0.952344 -0.000021
vn 0.214159 0.976799 -0.000012
vn 0.214159 0.976799 -0.000012
vn -0.255840 -0.966719 -0.000016
vn -0.255840 -0.966719 -0.000016
vn -0.059527 -0.998227 -0.000021
vn -0.059527 -0.998227 -0.000021
vn 0.853018 -0.521881 0.000000
vn 0.853018 -0.521881 0.000000
vn 0.853018 -0.521881 0.000000
vn 0.853018 -0.521881 0.000000
vn -0.442038 -0.896996 -0.000011
vn -0.442038 -0.896996 -0.000011
vn 0.000002 -0.000001 1.000000
vn 0.000002 -0.000001 1.000000
vn 0.393192 0.919456 -0.000030
vn 0.393192 0.919456 -0.000030
vn -0.848152 -0.529752 0.000001
vn -0.848152 -0.529752 0.000001
vn -0.848152 -0.529752 0.000001
vn -0.848152 -0.529752 0.000001
vn -0.000001 0.000000 1.000000
vn -0.000001 0.000000 1.000000
vn 0.743269 0.668993 0.000000
vn 0.743269 0.668993 0.000000
vn 0.743269 0.668993 0.000000
vn 0.743269 0.668993 0.000000
vn 0.000008 -1.000000 0.000004
vn 0.000008 -1.000000 0.000004
vn 0.000008 -1.000000 0.000004
vn 0.000008 -1.000000 0.000004
vn 0.000000 0.000000 1.000000
vn 0.000000 0.000000 1.000000
vn 0.028019 0.999607 0.000000
vn 0.028019 0.999607 0.000000
vn 0.028019 0.999607 0.000000
vn 0.028019 0.999607 0.000000
s off
g polySurface52
usemtl lambert3SG
f 1/1/1 2/2/2 4/3/3 3/4/4
f 3/5/5 4/6/6 6/7/7 5/8/8
f 7/9/9 8/10/10 2/11/11 1/12/12
f 2/13/13 8/14/14 6/15/15 4/16/16
f 7/17/17 1/18/18 3/19/19 5/20/20
s 6
f 10/21/21 9/22/22 13/23/23 16/24/24
f 14/25/25 13/23/23 9/22/22 11/26/26
s off
f 17/27/27 18/28/28 19/29/29 20/30/30
s 6
f 11/26/26 12/31/31 15/32/32 14/25/25
f 12/31/31 10/21/21 16/24/24 15/32/32
s off
f 15/33/33 16/34/34 18/35/35 17/36/36
f 16/37/37 13/38/38 19/39/39 18/40/40
f 13/41/41 14/42/42 20/43/43 19/44/44
f 14/45/45 15/46/46 17/47/47 20/48/48
s 12
f 21/49/49 28/50/50 25/51/51 22/52/52
s 13
f 22/53/53 25/54/54 26/55/55 23/56/56
s 14
f 24/57/57 27/58/58 28/59/59 21/60/60
s off
f 37/61/61 38/62/62 39/63/63 40/64/64
s 14
f 24/57/57 21/60/60 30/65/65 29/66/66
s 12
f 21/49/49 22/52/52 31/67/67 30/68/68
s 13
f 22/53/53 23/56/56 32/69/69 31/70/70
s off
f 29/66/71 30/65/72 34/71/73 33/72/74
s 12
f 30/68/68 31/67/67 35/73/75 34/74/76
s off
f 31/70/77 32/69/78 36/75/79 35/76/80
f 33/72/81 34/71/82 38/77/83 37/78/84
s 12
f 34/74/76 35/73/75 39/79/85 38/80/86
s off
f 35/76/87 36/75/88 40/81/89 39/82/90
s 20
f 41/83/91 42/84/92 25/51/93 28/50/94
s 21
f 42/85/95 43/86/96 26/55/97 25/54/98
s 22
f 44/87/99 41/88/100 28/59/101 27/58/102
s off
f 45/89/103 48/90/104 47/91/105 46/92/106
s 22
f 44/87/99 50/93/107 49/94/108 41/88/100
s 20
f 41/83/91 49/95/109 51/96/110 42/84/92
s 21
f 42/85/95 51/97/111 52/98/112 43/86/96
s off
f 50/93/113 54/99/114 53/100/115 49/94/116
s 20
f 49/95/109 53/101/117 55/102/118 51/96/110
s off
f 51/97/119 55/103/120 56/104/121 52/98/122
f 54/99/123 45/105/124 46/106/125 53/100/126
s 20
f 53/101/117 46/107/127 47/108/128 55/102/118
s off
f 55/103/129 47/109/130 48/110/131 56/104/132
