# This file uses centimeters as units for non-parametric coordinates.

mtllib qbalken.mtl
g default
v 10.300497 1.090667 0.524584
v 10.300498 1.171395 0.541835
v 10.300497 1.090667 0.500000
v 10.300498 1.171395 0.500000
v 9.846904 1.171396 0.500000
v 9.846904 1.171396 0.541835
v 9.846905 1.090667 0.524584
v 9.846905 1.090667 0.500000
vt 0.035731 0.092135
vt 0.785860 0.073215
vt 0.035724 0.072244
vt 0.035772 0.112436
vt 0.035724 0.113272
vt 0.785929 0.017535
vt 0.338083 0.070173
vt 0.338083 0.115344
vt 0.338016 0.089120
vt 0.338083 0.115451
vt 0.362119 0.073932
vt 0.362212 0.016819
vn -0.000000 -0.208966 0.977923
vn -0.000000 -0.208966 0.977923
vn -0.000000 -0.208966 0.977923
vn -0.000000 -0.208966 0.977923
vn 0.000001 1.000000 0.000000
vn 0.000001 1.000000 0.000000
vn 0.000001 1.000000 0.000000
vn 0.000001 1.000000 0.000000
vn -0.000001 -1.000000 0.000000
vn -0.000001 -1.000000 0.000000
vn -0.000001 -1.000000 0.000000
vn -0.000001 -1.000000 0.000000
s off
g pCube23
usemtl lambert3SG
f 1/6/1 2/2/2 6/11/3 7/12/4
f 2/5/5 4/3/6 5/7/7 6/8/8
f 3/4/9 1/1/10 7/9/11 8/10/12
