# This file uses centimeters as units for non-parametric coordinates.

mtllib tuer.mtl
g default
v 10.218071 0.090667 0.500000
v 10.218934 0.590667 0.500000
v 9.846040 0.590667 0.500000
v 9.846040 0.090667 0.500000
v 10.218764 0.491639 0.500000
v 9.846040 0.491639 0.500000
v 10.164343 0.590667 0.500000
v 10.164196 0.491639 0.500000
v 10.163605 0.090667 0.500000
v 9.901482 0.590667 0.500000
v 9.901456 0.491639 0.500000
v 9.901353 0.090667 0.500000
v 9.901353 0.090667 0.466153
v 10.163605 0.090667 0.466153
v 10.164196 0.491639 0.466153
v 9.901456 0.491639 0.466153
vt 0.519818 0.074441
vt 0.868340 0.074441
vt 0.869107 0.356420
vt 0.869106 0.009196
vt 0.869495 0.475144
vt 0.987620 0.009063
vt 0.869107 0.298538
vt 0.818380 0.475144
vt 0.817316 0.074441
vt 0.869107 0.049492
vt 0.572262 0.475144
vt 0.571635 0.074441
vt 0.571635 0.074441
vt 0.817316 0.074441
vt 0.818380 0.475144
vt 0.572262 0.475144
vt 0.869107 0.049492
vt 0.987620 0.049336
vt 0.987620 0.049336
vt 0.520351 0.475144
vt 0.869107 0.298538
vt 0.987620 0.298272
vt 0.987620 0.298272
vt 0.987620 0.356131
vn 0.000000 0.000000 1.000000
vn 0.000000 0.000000 1.000000
vn 0.000000 0.000000 1.000000
vn 0.000000 0.000000 1.000000
vn 0.000000 0.000000 1.000000
vn 0.000000 0.000000 1.000000
vn 0.000000 0.000000 1.000000
vn 0.000000 0.000000 1.000000
vn 0.000000 0.000000 1.000000
vn 0.000000 0.000000 1.000000
vn 0.000000 0.000000 1.000000
vn 0.000000 0.000000 1.000000
vn 0.000000 0.000000 1.000000
vn 0.000000 0.000000 1.000000
vn 0.000000 0.000000 1.000000
vn 0.000000 0.000000 1.000000
vn -0.999999 0.001474 0.000000
vn -0.999999 0.001474 0.000000
vn -0.999999 0.001474 0.000000
vn -0.999999 0.001474 0.000000
vn 0.000000 -1.000000 0.000000
vn 0.000000 -1.000000 0.000000
vn 0.000000 -1.000000 0.000000
vn 0.000000 -1.000000 0.000000
vn 1.000000 -0.000257 0.000000
vn 1.000000 -0.000257 0.000000
vn 1.000000 -0.000257 0.000000
vn 1.000000 -0.000257 0.000000
s 1
g polySurface48 pCube11
usemtl lambert3SG
f 9/9/1 1/2/2 5/5/3 8/8/4
f 8/23/4 5/24/3 2/3/5 7/7/6
f 11/19/7 8/22/4 7/21/6 10/10/8
s off
f 13/13/9 14/14/10 15/15/11 16/16/12
s 1
f 6/6/13 11/18/7 10/17/8 3/4/14
f 4/1/15 12/12/16 11/11/7 6/20/13
s off
f 9/9/17 8/8/18 15/15/19 14/14/20
f 8/8/21 11/11/22 16/16/23 15/15/24
f 11/11/25 12/12/26 13/13/27 16/16/28
