# This file uses centimeters as units for non-parametric coordinates.

mtllib stoneC_lr.mtl
v 1.761701 0.342424 -0.251360
v 1.062871 0.293777 -0.281899
v 0.430597 0.293361 -0.317058
v 0.081873 0.308525 -0.274525
v 1.700234 0.355797 -0.039382
v 1.066228 0.402188 0.007290
v 0.530300 0.411152 -0.046052
v 0.123178 0.379375 0.015491
v 1.729405 0.334809 0.243197
v 1.171346 0.323605 0.226790
v 0.415784 0.335270 0.234878
v 0.079662 0.323481 0.238201
v 1.627779 0.013631 0.207001
v 1.155871 -0.001775 0.260006
v 0.429306 0.022842 0.254623
v 0.139270 0.022246 0.245535
v 1.698204 -0.003648 0.101974
v 1.080121 -0.004601 -0.010918
v 0.654263 -0.007047 0.004020
v 0.126495 -0.004191 -0.026081
v 1.700652 -0.000569 -0.234592
v 1.172166 -0.000525 -0.240160
v 0.548747 -0.038368 -0.281054
v 0.141201 -0.002400 -0.233085
v -0.034643 0.318596 0.011081
v 1.208282 0.386470 -0.218250
v 0.445710 0.411210 -0.199588
v 0.111559 0.385784 -0.204077
v 1.957815 -0.008479 0.254901
v 0.756857 -0.018583 0.217480
v 0.163894 -0.004972 0.213900
v 1.955429 -0.013872 -0.240682
v -0.014876 0.019409 -0.214607
v -0.021700 0.302487 -0.184930
v 1.949346 0.349690 0.035510
v 1.954251 0.339399 0.258479
v -0.034164 0.312724 0.204860
v -0.010903 0.021583 0.215587
v 1.970805 -0.017902 -0.091749
v -0.011937 0.068168 -0.016844
v 1.948620 0.332756 -0.224962
vt 0.502190 0.487261
vt 0.508265 0.500009
vt 0.521004 0.503832
vt 0.533597 0.508330
vt 0.545712 0.510478
vt 0.500545 0.496551
vt 0.520606 0.505240
vt 0.533276 0.509385
vt 0.545313 0.511688
vt 0.501524 0.489358
vt 0.510007 0.493817
vt 0.522364 0.498975
vt 0.535211 0.502429
vt 0.547432 0.504995
vt 0.513015 0.484431
vt 0.525477 0.487925
vt 0.538281 0.491543
vt 0.550266 0.494879
vt 0.515582 0.474037
vt 0.528570 0.476993
vt 0.541422 0.480422
vt 0.553093 0.484722
vt 0.541210 0.481148
vt 0.553034 0.484930
vt 0.504480 0.478758
vt 0.513842 0.480215
vt 0.526641 0.483822
vt 0.539440 0.487429
vt 0.551382 0.490794
vt 0.511215 0.489537
vt 0.523941 0.493387
vt 0.536741 0.497164
vt 0.548754 0.500216
vt 0.556258 0.489031
vt 0.554621 0.494887
vt 0.552825 0.501482
vt 0.553200 0.501530
vt 0.551039 0.507710
vt 0.503882 0.481508
vt 0.507113 0.472094
vt 0.554641 0.495732
vn 0.000000 -1.000000 -0.000000
vn 0.000000 -0.764422 -0.644717
vn 0.000000 0.000000 -1.000000
vn 0.000000 1.000000 -0.000000
vn 0.000000 -0.764422 -0.644717
vn 0.000000 0.000000 -1.000000
vn -0.644717 -0.764422 -0.000000
vn -0.707107 0.000002 -0.707107
vn 0.000000 1.000000 -0.000000
vn 0.000000 1.000000 -0.000000
vn 0.000000 1.000000 -0.000000
vn 0.000000 1.000000 -0.000000
vn 0.000000 1.000000 -0.000000
vn -0.644716 0.764422 -0.000000
vn -0.644716 0.764423 -0.000000
vn 0.000000 0.000000 1.000000
vn 0.000000 0.000000 1.000000
vn 0.000000 0.000000 1.000000
vn -0.707107 0.000002 0.707107
vn 0.000000 0.000000 1.000000
vn -0.000000 -1.000000 0.000000
vn 0.000000 0.000000 1.000000
vn -0.707107 -0.000002 0.707107
vn -0.000000 -1.000000 0.000000
vn -0.000000 -1.000000 0.000000
vn 0.000000 -1.000000 -0.000000
vn 0.000000 -1.000000 -0.000000
vn -0.644716 -0.764422 -0.000000
vn -0.644718 -0.764421 -0.000000
vn -1.000000 -0.000002 -0.000000
vn -0.644716 -0.764422 -0.000000
vn -0.707107 0.000002 0.707107
vn -1.000000 -0.000002 -0.000000
vn -1.000000 0.000002 -0.000000
vn -0.644716 0.764422 -0.000000
vn -0.000000 -0.764422 0.644717
vn 0.000000 -1.000000 -0.000000
vn 0.000000 1.000000 -0.000000
vn -0.000000 0.000000 1.000000
vn 0.000000 -1.000000 -0.000000
vn 0.000000 0.764421 -0.644717
s 1
usemtl street_bricks_include:lambert13SG
f 21/30/1 22/31/2 2/3/3 1/2/4
f 22/31/2 23/32/5 3/4/6 2/3/3
f 23/32/5 24/33/7 4/5/8 3/4/6
f 1/2/4 26/7/9 6/12/10 5/11/11
f 26/7/9 27/8/12 7/13/13 6/12/10
f 27/8/12 28/9/14 8/14/15 7/13/13
f 5/11/11 6/12/10 10/16/16 9/15/17
f 6/12/10 7/13/13 11/17/18 10/16/16
f 7/13/13 8/14/15 12/18/19 11/17/18
f 9/15/17 10/16/16 14/20/20 13/19/21
f 10/16/16 11/17/18 15/21/22 14/20/20
f 11/17/18 12/18/19 16/22/23 15/21/22
f 13/19/21 14/20/20 18/27/24 17/26/25
f 14/20/20 30/23/26 19/28/27 18/27/24
f 30/23/26 31/24/28 20/29/29 19/28/27
f 17/26/25 18/27/24 22/31/2 21/30/1
f 18/27/24 19/28/27 23/32/5 22/31/2
f 19/28/27 20/29/29 24/33/7 23/32/5
f 40/35/30 38/34/31 37/41/32 25/37/33
f 33/36/34 40/35/30 25/37/33 34/38/35
f 29/40/36 39/25/37 35/10/38 36/39/39
f 39/25/37 32/1/40 41/6/41 35/10/38
f 1/2/4 2/3/3 26/7/9
f 26/7/9 2/3/3 3/4/6 27/8/12
f 27/8/12 3/4/6 4/5/8 28/9/14
f 14/20/20 15/21/22 30/23/26
f 30/23/26 15/21/22 16/22/23 31/24/28
f 24/33/7 33/36/34 34/38/35 4/5/8
f 28/9/14 34/38/35 25/37/33 8/14/15
f 8/14/15 25/37/33 37/41/32 12/18/19
f 12/18/19 37/41/32 38/34/31 16/22/23
f 31/24/28 38/34/31 40/35/30 20/29/29
f 20/29/29 40/35/30 33/36/34 24/33/7
f 34/38/35 28/9/14 4/5/8
f 38/34/31 31/24/28 16/22/23
f 41/6/41 32/1/40 21/30/1 1/2/4
f 35/10/38 41/6/41 1/2/4 5/11/11
f 36/39/39 35/10/38 5/11/11 9/15/17
f 29/40/36 36/39/39 9/15/17 13/19/21
f 39/25/37 29/40/36 13/19/21 17/26/25
f 32/1/40 39/25/37 17/26/25 21/30/1
