# This file uses meters as units for non-parametric coordinates.

v 35.355335 -300.000000 -35.355335
v 0.000000 -300.000000 -49.999992
v -35.355335 -300.000000 -35.355335
v -49.999992 -300.000000 0.000000
v -35.355335 -300.000000 35.355335
v 0.000000 -300.000000 49.999996
v 35.355339 -300.000000 35.355339
v 50.000000 -300.000000 0.000000
v 35.355335 300.000000 -35.355335
v 0.000000 300.000000 -49.999992
v -35.355335 300.000000 -35.355335
v -49.999992 300.000000 0.000000
v -35.355335 300.000000 35.355335
v 0.000000 300.000000 49.999996
v 35.355339 300.000000 35.355339
v 50.000000 300.000000 0.000000
vt 0.000016 0.000000
vt 0.000016 1.000000
vt 0.875016 1.000000
vt 0.125016 0.000000
vt 0.125016 1.000000
vt 0.250016 0.000000
vt 0.250016 1.000000
vt 0.375016 0.000000
vt 0.375016 1.000000
vt 0.500016 0.000000
vt 0.500016 1.000000
vt 0.625016 0.000000
vt 0.625016 1.000000
vt 0.750016 0.000000
vt 0.750016 1.000000
vt 0.875016 0.000000
vt 1.000016 0.000000
vt 1.000016 1.000000
vn 0.707107 0.000000 -0.707107
vn 0.000000 0.000000 -1.000000
vn 0.000000 0.000000 -1.000000
vn 0.707107 0.000000 -0.707107
vn 0.000000 0.000000 -1.000000
vn -0.707107 -0.000000 -0.707107
vn -0.707107 -0.000000 -0.707107
vn 0.000000 0.000000 -1.000000
vn -0.707107 -0.000000 -0.707107
vn -1.000000 -0.000000 0.000000
vn -1.000000 -0.000000 0.000000
vn -0.707107 -0.000000 -0.707107
vn -1.000000 -0.000000 0.000000
vn -0.707107 -0.000000 0.707107
vn -0.707107 -0.000000 0.707107
vn -1.000000 -0.000000 0.000000
vn -0.707107 -0.000000 0.707107
vn -0.000000 0.000000 1.000000
vn -0.000000 0.000000 1.000000
vn -0.707107 -0.000000 0.707107
vn -0.000000 0.000000 1.000000
vn 0.707107 -0.000000 0.707107
vn 0.707107 -0.000000 0.707107
vn -0.000000 0.000000 1.000000
vn 0.707107 -0.000000 0.707107
vn 1.000000 0.000000 -0.000000
vn 1.000000 0.000000 -0.000000
vn 0.707107 -0.000000 0.707107
vn 1.000000 0.000000 -0.000000
vn 0.707107 0.000000 -0.707107
vn 0.707107 0.000000 -0.707107
vn 1.000000 0.000000 -0.000000
g cyl
f 1/16/1 2/17/2 10/18/3 9/3/4
f 2/1/5 3/4/6 11/5/7 10/2/8
f 3/4/9 4/6/10 12/7/11 11/5/12
f 4/6/13 5/8/14 13/9/15 12/7/16
f 5/8/17 6/10/18 14/11/19 13/9/20
f 6/10/21 7/12/22 15/13/23 14/11/24
f 7/12/25 8/14/26 16/15/27 15/13/28
f 8/14/29 1/16/30 9/3/31 16/15/32
