# This file uses centimeters as units for non-parametric coordinates.

mtllib rubblePiece_2.mtl
g jiggle1Set tweakSet1
v 0.021860 0.000000 -0.069514
v -0.021860 0.000000 -0.069514
v -0.085622 0.000000 -0.000000
v -0.063762 0.000000 0.069514
v 0.021860 0.000000 0.069514
v 0.070468 0.000000 0.000000
v 0.019154 0.012157 -0.105235
v -0.026210 0.009295 -0.082881
v -0.093354 0.009295 -0.002614
v -0.025242 0.025242 0.080267
v 0.021044 0.009223 0.078640
v 0.080857 0.013190 0.007233
v 0.015601 0.038789 -0.118261
v -0.031239 0.026680 -0.104283
v -0.086591 0.034537 -0.002614
v -0.002902 0.033451 0.093163
v 0.023161 0.033203 0.094652
v 0.058890 0.045178 0.025648
v 0.004785 0.060421 -0.083868
v -0.025899 0.041752 -0.086928
v -0.040674 0.041752 -0.039945
v -0.013023 0.061364 0.044492
v 0.002614 0.073304 0.027404
v 0.037258 0.066810 0.025648
vt 0.683589 0.900913
vt 0.433370 0.900913
vt 0.414015 0.756449
vt 0.702944 0.756449
vt 0.433370 0.611984
vt 0.683589 0.611984
vt 0.486247 0.506229
vt 0.630712 0.506229
vt 0.001992 0.468714
vt 0.001992 0.252018
vt 0.146456 0.252018
vt 0.146456 0.502237
vt 0.001992 0.035321
vt 0.146456 0.001798
vt 0.290921 0.252018
vt 0.290921 0.468714
vt 0.290921 0.035321
vt 0.396676 0.252018
vt 0.396676 0.377128
vt 0.396676 0.126908
vt 0.728434 0.506229
vt 0.978653 0.506229
vt 0.998008 0.650693
vt 0.709079 0.650693
vt 0.978653 0.795158
vt 0.728434 0.795158
vt 0.925776 0.900913
vt 0.781311 0.900913
vt 0.403671 0.468714
vt 0.403671 0.252018
vt 0.548136 0.252018
vt 0.548136 0.502237
vt 0.403671 0.035321
vt 0.548136 0.001798
vt 0.692600 0.252018
vt 0.692600 0.468714
vt 0.692600 0.035321
vt 0.798355 0.252018
vt 0.798355 0.377128
vt 0.798355 0.126908
vt 0.282770 0.506229
vt 0.407880 0.578461
vt 0.407880 0.722925
vt 0.282770 0.795158
vt 0.157660 0.722926
vt 0.157660 0.578461
vn 0.318653 -0.846625 -0.426246
vn -0.297617 -0.850006 -0.434643
vn -0.436626 -0.696768 -0.569098
vn 0.481078 -0.601736 -0.637556
vn -0.994196 -0.098108 -0.044142
vn -0.999888 0.006005 -0.013668
vn -0.603614 0.198309 0.772220
vn -0.584193 0.060637 0.809346
vn 0.379008 -0.599884 0.704622
vn 0.426514 -0.494037 0.757636
vn 0.716163 -0.697323 0.029158
vn 0.956026 -0.287017 0.060290
vn -0.644191 0.326721 -0.691572
vn 0.462076 0.551154 -0.694777
vn -0.755489 0.654811 -0.021411
vn -0.460057 0.612784 0.642528
vn 0.398933 0.423077 0.813547
vn 0.820301 0.564259 0.093370
vn -0.397139 0.868690 -0.296071
vn 0.015243 0.943787 -0.330203
vn -0.416544 0.907006 -0.061891
vn -0.297415 0.937296 0.181715
vn -0.011205 0.956617 0.291132
vn 0.279427 0.959876 0.023647
s 1
g pSphere1
usemtl initialShadingGroup
f 1/1/1 2/2/2 8/3/3 7/4/4
f 2/9/2 3/10/5 9/11/6 8/12/3
f 3/10/5 4/13/7 10/14/8 9/11/6
f 4/21/7 5/22/9 11/23/10 10/24/8
f 5/29/9 6/30/11 12/31/12 11/32/10
f 6/30/11 1/33/1 7/34/4 12/31/12
f 7/4/4 8/3/3 14/5/13 13/6/14
f 8/12/3 9/11/6 15/15/15 14/16/13
f 9/11/6 10/14/8 16/17/16 15/15/15
f 10/24/8 11/23/10 17/25/17 16/26/16
f 11/32/10 12/31/12 18/35/18 17/36/17
f 12/31/12 7/34/4 13/37/14 18/35/18
f 13/6/14 14/5/13 20/7/19 19/8/20
f 14/16/13 15/15/15 21/18/21 20/19/19
f 15/15/15 16/17/16 22/20/22 21/18/21
f 16/26/16 17/25/17 23/27/23 22/28/22
f 17/36/17 18/35/18 24/38/24 23/39/23
f 18/35/18 13/37/14 19/40/20 24/38/24
f 24/41/24 19/42/20 20/43/19 21/44/21 22/45/22 23/46/23
