# This file uses centimeters as units for non-parametric coordinates.

v -119.374458 -10.894075 158.767563
v -118.883698 -3.646615 163.057144
v -118.883698 97.216591 0.729813
v -119.374458 87.955261 -0.141340
v -118.337242 -3.664539 162.942291
v -118.131630 96.814789 0.835135
v -104.340736 93.684952 0.415548
v -104.340736 -5.637294 160.976456
v -94.552795 -5.133579 161.502991
v -94.552795 94.578491 0.495061
v -89.797775 -3.646615 163.057144
v -89.307014 -10.894075 158.767563
v -89.307014 87.955261 -0.141340
v -89.797775 97.216591 0.729813
v -117.362206 -10.894075 158.767563
v -90.809052 87.955261 -0.141340
v -90.452568 97.164696 0.922790
v -91.304390 95.866364 0.609608
v -91.304390 -4.407676 162.261673
v -90.452568 -3.524246 163.050537
v -95.761482 -10.894075 158.767563
v -90.809052 -10.894075 158.767563
v -95.761482 87.955261 -0.141340
v -99.146645 87.955261 -0.141340
v -117.293350 95.739357 0.598340
v -117.293350 -4.479198 162.186798
v -114.134399 -5.039551 161.601334
v -114.134399 94.745461 0.509811
v -112.420265 -10.894075 158.767563
v -110.628311 -10.894075 158.767563
v -112.420265 87.955261 -0.141340
v -117.172424 87.955261 -0.141340
v -110.628311 87.955261 -0.141340
v -104.345505 -10.894075 158.767563
v -99.146645 -10.894075 158.767563
v -104.236023 87.955261 -0.141340
vt 0.026284 -0.000000
vt 0.000000 0.067037
vt 0.994662 1.000000
vt 1.000000 0.914335
vt 0.000704 0.066872
vt 0.994017 0.996283
vt 0.996588 0.967333
vt 0.012749 0.048624
vt 0.009523 0.053283
vt 0.996100 0.975598
vt 0.000000 0.067037
vt 0.026284 -0.000000
vt 1.000000 0.914335
vt 0.994662 1.000000
vt 0.026284 -0.000000
vt 1.000000 0.914335
vt 0.993480 0.999520
vt 0.995399 0.987511
vt 0.004874 0.059998
vt 0.000041 0.068169
vt 0.026284 -0.000000
vt 0.026284 -0.000000
vt 1.000000 0.914335
vt 1.000000 0.914335
vt 0.995468 0.986336
vt 0.005333 0.059336
vt 0.008921 0.054153
vt 0.996010 0.977143
vt 0.026284 -0.000000
vt 0.026284 -0.000000
vt 1.000000 0.914335
vt 1.000000 0.914335
vt 1.000000 0.914335
vt 0.026284 -0.000000
vt 0.026284 -0.000000
vt 1.000000 0.914335
vn -0.998286 0.049698 0.030897
vn -0.998286 0.049698 0.030897
vn -0.998286 0.049698 0.030897
vn -0.998286 0.049698 0.030897
vn 0.268302 0.818446 0.508094
vn 0.268302 0.818446 0.508094
vn 0.268302 0.818446 0.508094
vn 0.268302 0.818446 0.508094
vn -0.076758 0.847795 0.524741
vn -0.076758 0.847795 0.524741
vn -0.076758 0.847795 0.524741
vn -0.076758 0.847795 0.524741
vn 0.998286 0.049698 0.030897
vn 0.998286 0.049698 0.030897
vn 0.998286 0.049698 0.030897
vn 0.998286 0.049698 0.030897
vn 0.035238 -0.503540 0.863253
vn 0.035238 -0.503540 0.863253
vn 0.035238 -0.503540 0.863253
vn 0.035238 -0.503540 0.863253
vn -0.091128 0.103113 -0.990487
vn -0.091128 0.103113 -0.990487
vn -0.091128 0.103113 -0.990487
vn -0.091128 0.103113 -0.990487
vn -0.819396 0.487040 0.302295
vn -0.819396 0.487040 0.302295
vn -0.819396 0.487040 0.302295
vn -0.819396 0.487040 0.302295
vn -0.046784 -0.476498 0.877930
vn -0.046784 -0.476498 0.877930
vn -0.046784 -0.476498 0.877930
vn -0.046784 -0.476498 0.877930
vn -0.001421 0.095892 -0.995391
vn -0.001421 0.095892 -0.995391
vn -0.001421 0.095892 -0.995391
vn -0.001421 0.095892 -0.995391
vn 0.256421 0.821553 0.509215
vn 0.256421 0.821553 0.509215
vn 0.256421 0.821553 0.509215
vn 0.256421 0.821553 0.509215
vn 0.059455 -0.420739 0.905231
vn 0.059455 -0.420739 0.905231
vn 0.059455 -0.420739 0.905231
vn 0.059455 -0.420739 0.905231
vn -0.024054 0.094193 -0.995263
vn -0.024054 0.094193 -0.995263
vn -0.024054 0.094193 -0.995263
vn -0.024054 0.094193 -0.995263
vn 0.001456 0.095827 -0.995397
vn 0.001456 0.095827 -0.995397
vn -0.024054 0.094193 -0.995263
vn -0.024054 0.094193 -0.995263
vn 0.256421 0.821553 0.509215
vn 0.256421 0.821553 0.509215
vn -0.076758 0.847795 0.524741
vn -0.076758 0.847795 0.524741
vn -0.018604 -0.402889 0.915060
vn -0.018604 -0.402889 0.915060
vn -0.018604 -0.402889 0.915060
vn -0.018604 -0.402889 0.915060
vn -0.076758 0.847795 0.524741
vn -0.076758 0.847795 0.524741
vn -0.819396 0.487040 0.302295
vn -0.819396 0.487040 0.302295
vn 0.000498 0.096184 -0.995363
vn 0.000498 0.096184 -0.995363
vn 0.001456 0.095827 -0.995397
vn 0.001456 0.095827 -0.995397
vn -0.018604 -0.402889 0.915060
vn -0.018604 -0.402889 0.915060
vn -0.046784 -0.476498 0.877930
vn -0.046784 -0.476498 0.877930
vn 0.059455 -0.420739 0.905231
vn 0.059455 -0.420739 0.905231
vn -0.018604 -0.402889 0.915060
vn -0.018604 -0.402889 0.915060
vn -0.001421 0.095892 -0.995391
vn -0.001421 0.095892 -0.995391
vn 0.000498 0.096184 -0.995363
vn 0.000498 0.096184 -0.995363
vn 0.268302 0.818446 0.508094
vn 0.268302 0.818446 0.508094
vn 0.256421 0.821553 0.509215
vn 0.256421 0.821553 0.509215
vn 0.035238 -0.503540 0.863253
vn 0.035238 -0.503540 0.863253
vn 0.059455 -0.420739 0.905231
vn 0.059455 -0.420739 0.905231
vn -0.024054 0.094193 -0.995263
vn -0.024054 0.094193 -0.995263
vn 0.049409 0.102574 -0.993497
vn 0.049409 0.102574 -0.993497
vn -0.091128 0.103113 -0.990487
vn -0.091128 0.103113 -0.990487
vn -0.001421 0.095892 -0.995391
vn -0.001421 0.095892 -0.995391
vn 0.119944 0.843313 0.523867
vn 0.119944 0.843313 0.523867
vn 0.119944 0.843313 0.523867
vn 0.119944 0.843313 0.523867
vn -0.046784 -0.476498 0.877930
vn -0.046784 -0.476498 0.877930
vn -0.031381 -0.505848 0.862052
vn -0.031381 -0.505848 0.862052
g canopy_brick_lower
f 1/1/1 2/2/2 3/3/3 4/4/4
f 3/3/5 2/2/6 5/5/7 6/6/8
f 7/7/9 8/8/10 9/9/11 10/10/12
f 11/11/13 12/12/14 13/13/15 14/14/16
f 1/1/17 15/15/18 5/5/19 2/2/20
f 13/13/21 16/16/22 17/17/23 14/14/24
f 18/18/25 19/19/26 20/20/27 17/17/28
f 19/19/29 21/21/30 22/22/31 20/20/32
f 18/18/33 23/23/34 24/24/35 10/10/36
f 25/25/37 26/26/38 27/27/39 28/28/40
f 26/26/41 29/29/42 30/30/43 27/27/44
f 25/25/45 31/31/46 32/32/47 6/6/48
f 28/28/49 33/33/50 31/31/51 25/25/52
f 28/28/53 27/27/54 8/8/55 7/7/56
f 8/8/57 34/34/58 35/35/59 9/9/60
f 10/10/61 9/9/62 19/19/63 18/18/64
f 7/7/65 36/36/66 33/33/67 28/28/68
f 9/9/69 35/35/70 21/21/71 19/19/72
f 27/27/73 30/30/74 34/34/75 8/8/76
f 10/10/77 24/24/78 36/36/79 7/7/80
f 6/6/81 5/5/82 26/26/83 25/25/84
f 5/5/85 15/15/86 29/29/87 26/26/88
f 6/6/89 32/32/90 4/4/91 3/3/92
f 17/17/93 16/16/94 23/23/95 18/18/96
f 17/17/97 20/20/98 11/11/99 14/14/100
f 20/20/101 22/22/102 12/12/103 11/11/104
