# This file uses centimeters as units for non-parametric coordinates.

v 9.999999 -15.047019 138.261703
v 9.999999 -15.047019 1.014800
v 9.999999 2.953181 19.014999
v 9.999999 2.953181 114.625298
v -10.000000 61.216385 20.000799
v -10.000000 3.953080 115.252998
v -10.000000 3.953080 137.641098
v -10.000000 75.031975 19.997799
v 9.999999 75.031975 19.997799
v 9.999999 3.953080 137.641098
v 9.999999 3.953080 115.252998
v 9.999999 61.216385 20.000799
v -10.000000 2.953481 19.015301
v -10.000000 60.578773 19.000999
v -10.000000 70.097580 1.014800
v -10.000000 -15.047019 1.014800
v 9.999999 70.714874 1.014800
v 9.999999 60.611279 19.000999
v -10.000000 2.953181 114.625298
v -10.000000 -15.285419 138.574799
v 9.999999 2.953181 138.574799
v -10.000000 2.953181 138.574799
v -10.000000 70.905670 1.014800
v -10.000000 75.921478 18.997499
v 9.999999 71.522972 1.014800
v 9.999999 75.953979 18.997499
v 9.000100 75.683281 20.853399
v -9.000100 75.683281 20.853399
v -9.000100 4.470181 138.718796
v 9.000100 4.470181 138.718796
v -9.000100 2.953181 139.574677
v -9.000100 -15.047019 139.574677
v 9.000100 -15.047019 139.574677
v 9.000100 2.953181 139.574677
v -9.000100 -16.046919 1.014800
v 9.000100 -16.046919 1.014800
v 9.000100 -16.046919 138.574799
v -9.000100 -16.046919 138.574799
v 9.000100 71.244087 0.014900
v 9.000100 -15.047019 0.014900
v -9.000100 -15.047019 0.014900
v -9.000100 70.659271 0.014900
v -9.000100 77.039986 0.014900
v 9.000100 77.039986 0.014900
v 9.999999 77.039986 1.014800
v 9.999999 77.039986 18.998314
v -10.000000 77.039986 18.998337
v -10.000000 77.039986 1.014800
v -9.000100 3.953080 112.312492
v 9.000100 3.953080 112.312492
v 9.000100 3.953080 21.014801
v -9.000100 3.953080 21.014801
v 9.000100 4.952981 20.014700
v 9.000100 59.049583 20.001299
v -9.000100 59.049583 20.001299
v -9.000100 4.952981 20.014700
v 9.000100 59.534382 20.858000
v 9.000100 4.468281 112.455406
v -9.000100 4.468281 112.455406
v -9.000100 59.534382 20.858000
v -9.125434 77.039986 19.872852
v -9.000100 77.039986 20.088655
v 9.000100 77.039986 20.088655
v 9.128703 77.039986 19.869581
vt 0.009408 0.010742
vt 0.992835 0.010742
vt 0.863857 0.204111
vt 0.178772 0.204111
vt 0.856793 0.830013
vt 0.174274 0.214853
vt 0.013855 0.214853
vt 0.856815 0.978429
vt 0.856815 0.978429
vt 0.013855 0.214853
vt 0.174274 0.214853
vt 0.856793 0.830013
vt 0.863855 0.204115
vt 0.863957 0.823163
vt 0.992835 0.925420
vt 0.992835 0.010742
vt 0.992835 0.932052
vt 0.863957 0.823512
vt 0.178772 0.204111
vt 0.007165 0.008181
vt 0.007165 0.204111
vt 0.007165 0.204111
vt 0.992835 0.934101
vt 0.863982 0.987984
vt 0.992835 0.940733
vt 0.863982 0.988333
vt 0.850684 0.985425
vt 0.850684 0.985425
vt 0.006133 0.220408
vt 0.006133 0.220408
vt 0.000000 0.204111
vt 0.000000 0.010742
vt 0.000000 0.010742
vt 0.000000 0.204111
vt 0.992835 0.000000
vt 0.992835 0.000000
vt 0.007165 0.000000
vt 0.007165 0.000000
vt 1.000000 0.937737
vt 1.000000 0.010742
vt 1.000000 0.010742
vt 1.000000 0.931454
vt 1.000000 1.000000
vt 1.000000 1.000000
vt 0.992835 1.000000
vt 0.863976 1.000000
vt 0.863976 1.000000
vt 0.992835 1.000000
vt 0.195344 0.214853
vt 0.195344 0.214853
vt 0.849527 0.214853
vt 0.849527 0.214853
vt 0.856694 0.225595
vt 0.856790 0.806736
vt 0.856790 0.806736
vt 0.856694 0.225595
vt 0.850651 0.811944
vt 0.194320 0.220388
vt 0.194320 0.220388
vt 0.850651 0.811944
vt 0.857710 1.000000
vt 0.856164 1.000000
vt 0.856164 1.000000
vt 0.857733 1.000000
vn 1.000000 -0.000000 0.000000
vn 1.000000 -0.000000 0.000000
vn 1.000000 -0.000000 0.000000
vn 0.992703 0.054668 -0.107481
vn -0.986695 -0.139135 0.084111
vn -0.992703 0.054669 -0.107481
vn -1.000000 0.000000 0.000000
vn -1.000000 0.000000 0.000000
vn 1.000000 -0.000000 0.000000
vn 1.000000 -0.000000 0.000000
vn 0.992703 0.054668 -0.107481
vn 0.986863 -0.139326 0.081786
vn -1.000000 0.000000 0.000000
vn -0.986695 -0.139135 0.084111
vn -1.000000 0.000000 0.000000
vn -1.000000 0.000000 0.000000
vn 1.000000 -0.000000 0.000000
vn 1.000000 -0.000000 0.000000
vn 0.986863 -0.139326 0.081786
vn 1.000000 -0.000000 0.000000
vn -0.992703 0.054669 -0.107481
vn -1.000000 0.000000 0.000000
vn -1.000000 0.000000 0.000000
vn -1.000000 0.000000 0.000000
vn 1.000000 -0.000000 0.000000
vn 1.000000 -0.000000 0.000000
vn 1.000000 -0.000000 0.000000
vn 0.992703 0.054668 -0.107481
vn 0.992703 0.054668 -0.107481
vn -0.992703 0.054669 -0.107481
vn -0.992703 0.054669 -0.107481
vn -1.000000 0.000000 0.000000
vn -1.000000 0.000000 0.000000
vn -1.000000 0.000000 0.000000
vn -1.000000 0.000000 0.000000
vn -1.000000 0.000000 0.000000
vn -0.986695 -0.139135 0.084111
vn -0.986695 -0.139135 0.084111
vn -1.000000 0.000000 0.000000
vn -1.000000 0.000000 0.000000
vn 1.000000 -0.000000 0.000000
vn 1.000000 -0.000000 0.000000
vn 1.000000 -0.000000 0.000000
vn 1.000000 -0.000000 0.000000
vn 0.986863 -0.139326 0.081786
vn 0.986863 -0.139326 0.081786
vn 0.000000 0.696342 0.717710
vn 0.000000 0.696342 0.717710
vn 0.000000 0.696477 0.717579
vn 0.000000 0.696477 0.717579
vn 0.000000 0.254011 0.967201
vn 0.000000 0.000000 1.000000
vn 0.000000 0.000000 1.000000
vn 0.000000 0.254011 0.967201
vn 0.000000 -1.000000 0.000000
vn 0.000000 -1.000000 0.000000
vn 0.000000 -1.000000 0.000000
vn 0.000000 -1.000000 0.000000
vn 0.000000 0.000000 -1.000000
vn 0.000000 0.000000 -1.000000
vn 0.000000 0.000000 -1.000000
vn 0.000000 0.000000 -1.000000
vn 0.000000 0.000000 -1.000000
vn 0.000000 0.000000 -1.000000
vn 0.000000 0.000000 -1.000000
vn 0.000000 0.000000 -1.000000
vn 1.000000 -0.000000 0.000000
vn 1.000000 0.000000 0.000000
vn 1.000000 0.000000 0.000000
vn 1.000000 -0.000000 0.000000
vn -1.000000 0.000000 0.000000
vn -1.000000 0.000000 0.000000
vn -1.000000 0.000000 0.000000
vn -1.000000 0.000000 0.000000
vn 0.000000 1.000000 0.000000
vn 0.000000 1.000000 0.000000
vn 0.000000 1.000000 0.000000
vn 0.000000 1.000000 0.000000
vn 0.000000 0.000248 1.000000
vn 0.000000 0.000248 1.000000
vn 0.000000 0.000248 1.000000
vn 0.000000 0.000248 1.000000
vn 0.000000 -0.857048 -0.515236
vn 0.000000 -0.857048 -0.515236
vn 0.000000 -0.857048 -0.515236
vn 0.000000 -0.857048 -0.515236
vn 0.713915 0.513167 0.476430
vn 0.713915 0.513167 0.476430
vn 0.758821 0.490826 0.428112
vn 0.758821 0.490826 0.428112
vn 0.000000 0.254011 0.967201
vn 0.000000 0.696477 0.717579
vn 0.000000 0.696477 0.717579
vn 0.000000 0.254011 0.967201
vn 0.748347 0.207137 0.630136
vn 0.748347 0.207137 0.630136
vn 0.756438 -0.005688 0.654040
vn 0.756438 -0.005688 0.654040
vn -0.713915 0.513167 0.476430
vn -0.713915 0.513167 0.476430
vn -0.759946 0.491323 0.425540
vn -0.759946 0.491323 0.425540
vn -0.723452 0.210150 0.657613
vn -0.723452 0.210150 0.657613
vn -0.707106 0.000000 0.707108
vn -0.707106 0.000000 0.707108
vn -0.660955 -0.750425 -0.000650
vn -0.660955 -0.750425 -0.000650
vn -0.660955 -0.750425 -0.000650
vn -0.660955 -0.750425 -0.000650
vn -0.244481 -0.685647 0.685651
vn -0.244481 -0.685647 0.685651
vn 0.000000 -0.707105 0.707109
vn 0.000000 -0.707105 0.707109
vn 0.707107 -0.707107 0.000000
vn 0.707107 -0.707107 0.000000
vn 0.707107 -0.707107 0.000000
vn 0.707107 -0.707107 0.000000
vn -0.707107 0.000000 -0.707107
vn -0.707107 0.000000 -0.707107
vn -0.707107 0.000000 -0.707107
vn -0.707107 0.000000 -0.707107
vn 0.000000 -0.707107 -0.707107
vn 0.000000 -0.707107 -0.707107
vn 0.000000 -0.707107 -0.707107
vn 0.000000 -0.707107 -0.707107
vn 0.707107 0.000000 -0.707107
vn 0.707107 0.000000 -0.707107
vn 0.707106 0.000000 -0.707107
vn 0.707106 0.000000 -0.707108
vn -0.707063 0.707151 0.000001
vn -0.707063 0.707151 0.000001
vn -0.707063 0.707151 0.000001
vn -0.707063 0.707151 0.000001
vn 0.000000 0.707194 0.707019
vn 0.000000 0.707194 0.707019
vn 0.000000 0.707194 0.707019
vn 0.000000 0.707194 0.707019
vn -0.707107 0.000175 0.707107
vn -0.707107 0.000175 0.707107
vn -0.707107 0.000175 0.707107
vn -0.707107 0.000175 0.707107
vn 0.707150 0.000174 0.707063
vn 0.707150 0.000174 0.707063
vn 0.707150 0.000174 0.707063
vn 0.707150 0.000174 0.707063
vn 0.707107 0.707107 0.000000
vn 0.707107 0.707107 0.000000
vn 0.707107 0.707107 0.000000
vn 0.707107 0.707107 0.000000
vn 0.000000 -0.870351 0.492432
vn 0.000000 -0.870351 0.492432
vn 0.000000 -0.870351 0.492432
vn 0.000000 -0.870351 0.492432
vn -0.707107 -0.606024 -0.364326
vn -0.707107 -0.606024 -0.364326
vn -0.707107 -0.606024 -0.364326
vn -0.707107 -0.606024 -0.364326
vn 0.707107 -0.606024 -0.364326
vn 0.707107 -0.606024 -0.364326
vn 0.707107 -0.606024 -0.364326
vn 0.707107 -0.606024 -0.364326
vn 0.000000 0.267349 -0.963600
vn 0.000000 0.267349 -0.963600
vn 0.000000 0.267349 -0.963600
vn 0.000000 0.267349 -0.963600
vn -0.707087 -0.000529 0.707126
vn -0.771831 0.188390 0.607278
vn -0.810508 0.264410 0.522651
vn -0.771831 0.188390 0.607278
vn -0.759946 0.491323 0.425540
vn -0.810508 0.264410 0.522651
vn -0.759946 0.491323 0.425540
vn -0.767203 0.357951 0.532231
vn -0.759946 0.491323 0.425540
vn -0.810508 0.264410 0.522651
vn -0.759946 0.491323 0.425540
vn -0.767203 0.357951 0.532231
vn 0.713915 0.513167 0.476430
vn 0.748347 0.207137 0.630136
vn 0.748347 0.207137 0.630136
vn 0.713915 0.513167 0.476430
vn -0.713915 0.513167 0.476430
vn -0.713915 0.513167 0.476430
vn -0.723452 0.210150 0.657613
vn -0.723452 0.210150 0.657613
vn -0.474124 -0.622576 0.622580
vn -0.244481 -0.685647 0.685651
vn -0.244481 -0.685647 0.685651
vn 0.680430 -0.518175 0.518179
vn 0.680430 -0.518175 0.518179
vn 0.680430 -0.518175 0.518179
vn -0.577350 -0.577350 -0.577350
vn -0.577350 -0.577350 -0.577350
vn -0.577350 -0.577350 -0.577350
vn 0.577350 -0.577350 -0.577350
vn 0.577350 -0.577350 -0.577350
vn 0.577350 -0.577350 -0.577350
vn -0.904500 0.301600 0.301525
vn -0.904500 0.301600 0.301525
vn -0.904500 0.301600 0.301525
vn 0.904527 0.301559 0.301484
vn 0.904527 0.301559 0.301484
vn 0.904527 0.301559 0.301484
vn -0.986695 -0.139135 0.084111
vn -0.880209 -0.406141 0.245523
vn -0.880209 -0.406141 0.245523
vn -0.986695 -0.139135 0.084111
vn 0.986863 -0.139326 0.081786
vn 0.986863 -0.139326 0.081786
vn 0.881727 -0.406843 0.238821
vn 0.881727 -0.406843 0.238821
vn -0.992703 0.054669 -0.107481
vn -0.992703 0.054669 -0.107481
vn -0.934319 0.161595 -0.317703
vn -0.934319 0.161595 -0.317703
vn 0.992703 0.054668 -0.107481
vn 0.934319 0.161594 -0.317702
vn 0.934319 0.161594 -0.317702
vn 0.992703 0.054668 -0.107481
vn -0.707107 0.000000 -0.707107
vn -0.707107 0.000000 -0.707107
vn -0.707107 0.000000 -0.707107
vn 0.707106 0.000000 -0.707107
vn 0.707106 0.000000 -0.707108
vn 0.707106 0.000000 -0.707108
vn 0.707107 0.000000 -0.707107
vn 0.707107 0.000000 -0.707107
vn 0.707106 0.000000 -0.707108
vn 0.707106 0.000000 -0.707107
vn -0.707107 0.000000 -0.707107
vn -0.707107 0.000000 -0.707107
vn -0.707107 0.000000 -0.707107
vn -0.707107 0.000000 -0.707107
vn 0.000000 0.491041 0.871137
vn 0.000000 0.491041 0.871137
vn 0.000000 0.696342 0.717710
vn 0.000000 0.696342 0.717710
vn 0.707093 -0.000530 0.707120
vn 0.807854 0.263198 0.527350
vn 0.770210 0.187719 0.609540
vn 0.770210 0.187719 0.609540
vn 0.807854 0.263198 0.527350
vn 0.758821 0.490826 0.428112
vn 0.758821 0.490826 0.428112
vn 0.758821 0.490826 0.428112
vn 0.766171 0.357352 0.534118
vn 0.807854 0.263198 0.527350
vn 0.766171 0.357352 0.534118
vn 0.758821 0.490826 0.428112
g canopy_brick_support
f 1/1/1 2/2/2 3/3/3 4/4/4
f 5/5/5 6/6/6 7/7/7 8/8/8
f 9/9/9 10/10/10 11/11/11 12/12/12
f 13/13/13 14/14/14 15/15/15 16/16/16
f 2/2/17 17/17/18 18/18/19 3/3/20
f 19/19/21 13/13/22 16/16/23 20/20/24
f 10/10/25 21/21/26 1/1/27 4/4/28 11/11/29
f 6/6/30 19/19/31 20/20/32 22/22/33 7/7/34
f 23/23/35 15/15/36 14/14/37 5/5/38 8/8/39 24/24/40
f 17/17/41 25/25/42 26/26/43 9/9/44 12/12/45 18/18/46
f 27/27/47 28/28/48 29/29/49 30/30/50
f 31/31/51 32/32/52 33/33/53 34/34/54
f 35/35/55 36/36/56 37/37/57 38/38/58
f 39/39/59 40/40/60 41/41/61 42/42/62
f 42/42/63 43/43/64 44/44/65 39/39/66
f 25/25/67 45/45/68 46/46/69 26/26/70
f 24/24/71 47/47/72 48/48/73 23/23/74
f 49/49/75 50/50/76 51/51/77 52/52/78
f 53/53/79 54/54/80 55/55/81 56/56/82
f 57/57/83 58/58/84 59/59/85 60/60/86
f 30/30/87 10/10/88 9/9/89 27/27/90
f 34/34/91 30/30/92 29/29/93 31/31/94
f 21/21/95 34/34/96 33/33/97 1/1/98
f 7/7/99 29/29/100 28/28/101 8/8/102
f 31/31/103 22/22/104 20/20/105 32/32/106
f 38/38/107 20/20/108 16/16/109 35/35/110
f 32/32/111 38/38/112 37/37/113 33/33/114
f 1/1/115 37/37/116 36/36/117 2/2/118
f 41/41/119 16/16/120 15/15/121 42/42/122
f 35/35/123 41/41/124 40/40/125 36/36/126
f 2/2/127 40/40/128 39/39/129 17/17/130
f 52/52/131 13/13/132 19/19/133 49/49/134
f 56/56/135 52/52/136 51/51/137 53/53/138
f 13/13/139 56/56/140 55/55/141 14/14/142
f 53/53/143 3/3/144 18/18/145 54/54/146
f 3/3/147 51/51/148 50/50/149 4/4/150
f 60/60/151 55/55/152 54/54/153 57/57/154
f 5/5/155 60/60/156 59/59/157 6/6/158
f 57/57/159 12/12/160 11/11/161 58/58/162
f 49/49/163 59/59/164 58/58/165 50/50/166
f 47/47/167 24/24/168 61/61/169
f 24/24/170 8/8/171 61/61/172
f 28/28/173 62/62/174 8/8/175
f 61/61/176 8/8/177 62/62/178
f 30/30/179 34/34/180 21/21/181 10/10/182
f 29/29/183 7/7/184 22/22/185 31/31/186
f 20/20/187 38/38/188 32/32/189
f 1/1/190 33/33/191 37/37/192
f 16/16/193 41/41/194 35/35/195
f 40/40/196 2/2/197 36/36/198
f 13/13/199 52/52/200 56/56/201
f 3/3/202 53/53/203 51/51/204
f 14/14/205 55/55/206 60/60/207 5/5/208
f 18/18/209 12/12/210 57/57/211 54/54/212
f 19/19/213 6/6/214 59/59/215 49/49/216
f 4/4/217 50/50/218 58/58/219 11/11/220
f 42/42/221 15/15/222 23/23/223
f 39/39/224 25/25/225 17/17/226
f 44/44/227 45/45/228 25/25/229 39/39/230
f 48/48/231 43/43/232 42/42/233 23/23/234
f 63/63/235 62/62/236 28/28/237 27/27/238
f 46/46/239 64/64/240 26/26/241
f 26/26/242 64/64/243 9/9/244
f 27/27/245 9/9/246 63/63/247
f 64/64/248 63/63/249 9/9/250
