# This file uses centimeters as units for non-parametric coordinates.

v -153.980469 88.941704 1.522636
v -153.980469 -12.403164 166.218323
v -138.946777 -3.036290 170.623627
v -138.946777 99.861572 2.596336
v -123.913078 -12.403164 166.218323
v -123.913078 88.941704 1.522636
v -153.117172 -16.096540 163.818619
v -138.946075 -7.985516 167.977402
v -138.946075 94.122215 1.554945
v -153.117172 84.288239 0.600594
v -124.590973 84.288239 0.600594
v -124.609177 -16.196327 163.753784
vt 0.994577 0.905910
vt 0.025910 0.032683
vt 0.000000 0.113392
vt 0.988262 1.000000
vt 0.025910 0.032683
vt 0.994577 0.905910
vt 0.040024 0.000860
vt 0.015564 0.070748
vt 0.994387 0.950548
vt 1.000000 0.865814
vt 1.000000 0.865814
vt 0.040405 0.000000
vn -0.556815 0.707902 0.434547
vn -0.556815 0.707902 0.434547
vn -0.556815 0.707902 0.434547
vn -0.556815 0.707902 0.434547
vn 0.556815 0.707902 0.434547
vn 0.556815 0.707902 0.434547
vn 0.556815 0.707902 0.434547
vn 0.556815 0.707902 0.434547
vn 0.038853 -0.491277 0.870136
vn 0.038853 -0.491277 0.870136
vn 0.038853 -0.491277 0.870136
vn 0.038853 -0.491277 0.870136
vn -0.008921 0.109685 -0.993926
vn -0.008921 0.109685 -0.993926
vn -0.008921 0.109685 -0.993926
vn -0.008921 0.109685 -0.993926
vn -0.971389 -0.202283 -0.124442
vn -0.971389 -0.202283 -0.124442
vn -0.971389 -0.202283 -0.124442
vn -0.971389 -0.202283 -0.124442
vn -0.533209 -0.720694 -0.443045
vn -0.533209 -0.720694 -0.443045
vn -0.533209 -0.720694 -0.443045
vn -0.533209 -0.720694 -0.443045
vn 0.982183 -0.160059 -0.098481
vn 0.982183 -0.160059 -0.098481
vn 0.982183 -0.160059 -0.098481
vn 0.982183 -0.160059 -0.098481
vn 0.535407 -0.719659 -0.442074
vn 0.535407 -0.719659 -0.442074
vn 0.535407 -0.719659 -0.442074
vn 0.535407 -0.719659 -0.442074
vn -0.039459 -0.492677 0.869317
vn -0.039459 -0.492677 0.869317
vn -0.039459 -0.492677 0.869317
vn -0.039459 -0.492677 0.869317
vn 0.008992 0.109864 -0.993906
vn 0.008992 0.109864 -0.993906
vn 0.008992 0.109864 -0.993906
vn 0.008992 0.109864 -0.993906
g canopy_brick_upper
f 1/1/1 2/2/2 3/3/3 4/4/4
f 4/4/5 3/3/6 5/5/7 6/6/8
f 2/2/9 7/7/10 8/8/11 3/3/12
f 4/4/13 9/9/14 10/10/15 1/1/16
f 2/2/17 1/1/18 10/10/19 7/7/20
f 8/8/21 9/9/22 11/11/23 12/12/24
f 12/12/25 11/11/26 6/6/27 5/5/28
f 7/7/29 10/10/30 9/9/31 8/8/32
f 3/3/33 8/8/34 12/12/35 5/5/36
f 6/6/37 11/11/38 9/9/39 4/4/40
