# This file uses centimeters as units for non-parametric coordinates.

v -0.020588 -0.027269 0.045084
v 0.024053 -0.027269 0.045084
v 0.024053 -0.018539 0.044024
v -0.020588 -0.018539 0.044024
v -0.020588 -0.018327 0.043872
v 0.024053 -0.018365 0.043860
v 0.024053 -0.016021 0.030814
v -0.020588 -0.016021 0.030814
v -0.020588 -0.018263 0.043738
v 0.024053 -0.011793 0.019902
v -0.020588 -0.011793 0.019902
v 0.024053 -0.006027 0.009758
v -0.020588 -0.006027 0.009758
v 0.024053 0.001284 -0.001285
v -0.020588 0.001284 -0.001285
v 0.024239 0.000199 -0.000318
v 0.024239 0.000145 -0.000423
v -0.020732 0.000145 -0.000423
v -0.020732 0.000199 -0.000318
v 0.024239 0.000061 -0.000507
v -0.020732 0.000061 -0.000507
v 0.024239 -0.000044 -0.000561
v -0.020732 -0.000044 -0.000561
v 0.024239 -0.000162 -0.000580
v -0.020732 -0.000162 -0.000580
v 0.024239 -0.000279 -0.000561
v -0.020732 -0.000279 -0.000561
v 0.024239 -0.000385 -0.000507
v -0.020732 -0.000385 -0.000507
v 0.024239 -0.000469 -0.000423
v -0.020732 -0.000469 -0.000423
v 0.024239 -0.000523 -0.000318
v -0.020732 -0.000523 -0.000318
v 0.024239 -0.000541 -0.000200
v -0.020732 -0.000541 -0.000200
v 0.024239 -0.000523 -0.000083
v -0.020732 -0.000523 -0.000083
v 0.024239 -0.000469 0.000023
v -0.020732 -0.000469 0.000023
v 0.024239 -0.000385 0.000107
v -0.020732 -0.000385 0.000107
v 0.024239 -0.000279 0.000160
v -0.020732 -0.000279 0.000160
v 0.024239 -0.000162 0.000179
v -0.020732 -0.000162 0.000179
v 0.024239 -0.000044 0.000160
v -0.020732 -0.000044 0.000160
v 0.024239 0.000061 0.000107
v -0.020732 0.000061 0.000107
v 0.024239 0.000145 0.000023
v -0.020732 0.000145 0.000023
v 0.024239 0.000199 -0.000083
v -0.020732 0.000199 -0.000083
v 0.024239 0.000218 -0.000200
v -0.020732 0.000218 -0.000200
v 0.024239 -0.000162 -0.000200
v -0.020732 -0.000162 -0.000200
v 0.024239 -0.018366 0.043527
v 0.024239 -0.018420 0.043421
v -0.020732 -0.018420 0.043421
v -0.020732 -0.018366 0.043527
v 0.024239 -0.018504 0.043338
v -0.020732 -0.018504 0.043338
v 0.024239 -0.018610 0.043284
v -0.020732 -0.018610 0.043284
v 0.024239 -0.018727 0.043265
v -0.020732 -0.018727 0.043265
v 0.024239 -0.018844 0.043284
v -0.020732 -0.018844 0.043284
v 0.024239 -0.018950 0.043338
v -0.020732 -0.018950 0.043338
v 0.024239 -0.019034 0.043421
v -0.020732 -0.019034 0.043421
v 0.024239 -0.019088 0.043527
v -0.020732 -0.019088 0.043527
v 0.024239 -0.019107 0.043645
v -0.020732 -0.019107 0.043645
v 0.024239 -0.019088 0.043762
v -0.020732 -0.019088 0.043762
v 0.024239 -0.019034 0.043868
v -0.020732 -0.019034 0.043868
v 0.024239 -0.018950 0.043951
v -0.020732 -0.018950 0.043951
v 0.024239 -0.018844 0.044005
v -0.020732 -0.018844 0.044005
v 0.024239 -0.018727 0.044024
v -0.020732 -0.018727 0.044024
v 0.024239 -0.018610 0.044005
v -0.020732 -0.018610 0.044005
v 0.024239 -0.018504 0.043951
v -0.020732 -0.018504 0.043951
v 0.024239 -0.018420 0.043868
v -0.020732 -0.018420 0.043868
v 0.024239 -0.018366 0.043762
v -0.020732 -0.018366 0.043762
v 0.024239 -0.018348 0.043645
v -0.020732 -0.018348 0.043645
v 0.024239 -0.018727 0.043645
v -0.020732 -0.018727 0.043645
vt -0.000000 0.000000
vt -0.000000 0.000000
vt 0.022860 0.305747
vt 0.022860 0.305747
vt 0.026138 0.313172
vt 0.026397 0.311841
vt 0.307749 0.393934
vt 0.307749 0.393934
vt 0.029028 0.315413
vt 0.543078 0.542010
vt 0.543078 0.542010
vt 0.761845 0.743950
vt 0.761845 0.743950
vt 1.000000 1.000000
vt 1.000000 1.000000
vt 0.979145 0.962000
vt 0.981410 0.960109
vt 0.981410 0.960109
vt 0.979145 0.962000
vt 0.983221 0.957167
vt 0.983221 0.957167
vt 0.984386 0.953490
vt 0.984386 0.953490
vt 0.984796 0.949357
vt 0.984796 0.949357
vt 0.984386 0.945260
vt 0.984386 0.945260
vt 0.983221 0.941547
vt 0.983221 0.941547
vt 0.981410 0.938605
vt 0.981410 0.938605
vt 0.979145 0.936714
vt 0.979145 0.936714
vt 0.976601 0.936084
vt 0.976601 0.936084
vt 0.974077 0.936714
vt 0.974077 0.936714
vt 0.971791 0.938605
vt 0.971791 0.938605
vt 0.969980 0.941547
vt 0.969980 0.941547
vt 0.968837 0.945260
vt 0.968837 0.945260
vt 0.968427 0.949357
vt 0.968427 0.949357
vt 0.968837 0.953490
vt 0.968837 0.953490
vt 0.969980 0.957167
vt 0.969980 0.957167
vt 0.971791 0.960109
vt 0.971791 0.960109
vt 0.974077 0.962000
vt 0.974077 0.962000
vt 0.976601 0.962666
vt 0.976601 0.962666
vt 0.976601 0.949357
vt 0.976601 0.949357
vt 0.033578 0.311806
vt 0.035864 0.309915
vt 0.035864 0.309915
vt 0.033578 0.311806
vt 0.037654 0.306973
vt 0.037654 0.306973
vt 0.038819 0.303261
vt 0.038819 0.303261
vt 0.039229 0.299163
vt 0.039229 0.299163
vt 0.038819 0.295065
vt 0.038819 0.295065
vt 0.037654 0.291353
vt 0.037654 0.291353
vt 0.035864 0.288411
vt 0.035864 0.288411
vt 0.033578 0.286520
vt 0.033578 0.286520
vt 0.031034 0.285854
vt 0.031034 0.285854
vt 0.028510 0.286520
vt 0.028510 0.286520
vt 0.026224 0.288411
vt 0.026224 0.288411
vt 0.024434 0.291353
vt 0.024434 0.291353
vt 0.023270 0.295065
vt 0.023270 0.295065
vt 0.022860 0.299163
vt 0.022860 0.299163
vt 0.023270 0.303261
vt 0.023270 0.303261
vt 0.024434 0.306973
vt 0.024434 0.306973
vt 0.026224 0.309915
vt 0.026224 0.309915
vt 0.028510 0.311806
vt 0.028510 0.311806
vt 0.031034 0.312437
vt 0.031034 0.312437
vt 0.031034 0.299163
vt 0.031034 0.299163
vn 0.000000 1.000000 0.000000
vn 0.000000 1.000000 0.000000
vn 0.000000 0.120606 0.992700
vn 0.000000 0.120606 0.992700
vn 0.000886 0.984501 0.175377
vn 0.000886 0.984501 0.175377
vn 0.000904 0.985436 0.170043
vn 0.000904 0.985436 0.170043
vn 0.000904 0.985436 0.170043
vn 0.000904 0.985436 0.170043
vn 0.000904 0.985436 0.170043
vn 0.000000 0.932447 0.361308
vn 0.000000 0.932447 0.361308
vn 0.000000 0.932447 0.361308
vn 0.000000 0.932447 0.361308
vn 0.000000 0.869363 0.494175
vn 0.000000 0.869363 0.494175
vn 0.000000 0.869363 0.494175
vn 0.000000 0.869363 0.494175
vn 0.000000 1.000000 0.000000
vn 0.000000 1.000000 0.000000
vn -0.000000 0.951057 -0.309015
vn -0.000000 0.809013 -0.587791
vn -0.000000 0.809013 -0.587791
vn -0.000000 0.951057 -0.309015
vn -0.000000 0.809013 -0.587791
vn -0.000000 0.587785 -0.809017
vn -0.000000 0.587785 -0.809017
vn -0.000000 0.809013 -0.587791
vn -0.000000 0.587785 -0.809017
vn 0.000000 0.309016 -0.951057
vn 0.000000 0.309016 -0.951057
vn -0.000000 0.587785 -0.809017
vn 0.000000 0.309016 -0.951057
vn 0.000000 -0.000001 -1.000000
vn 0.000000 -0.000001 -1.000000
vn 0.000000 0.309016 -0.951057
vn 0.000000 -0.000001 -1.000000
vn 0.000000 -0.309018 -0.951056
vn 0.000000 -0.309018 -0.951056
vn 0.000000 -0.000001 -1.000000
vn 0.000000 -0.309018 -0.951056
vn 0.000000 -0.587790 -0.809013
vn 0.000000 -0.587790 -0.809013
vn 0.000000 -0.309018 -0.951056
vn 0.000000 -0.587790 -0.809013
vn 0.000000 -0.809016 -0.587787
vn 0.000000 -0.809016 -0.587787
vn 0.000000 -0.587790 -0.809013
vn 0.000000 -0.809016 -0.587787
vn 0.000000 -0.951055 -0.309022
vn 0.000000 -0.951055 -0.309022
vn 0.000000 -0.809016 -0.587787
vn 0.000000 -0.951055 -0.309022
vn 0.000000 -1.000000 -0.000007
vn 0.000000 -1.000000 -0.000007
vn 0.000000 -0.951055 -0.309022
vn 0.000000 -1.000000 -0.000007
vn 0.000000 -0.951057 0.309016
vn 0.000000 -0.951057 0.309016
vn 0.000000 -1.000000 -0.000007
vn 0.000000 -0.951057 0.309016
vn 0.000000 -0.809012 0.587793
vn 0.000000 -0.809012 0.587793
vn 0.000000 -0.951057 0.309016
vn 0.000000 -0.809012 0.587793
vn 0.000000 -0.587784 0.809018
vn 0.000000 -0.587784 0.809018
vn 0.000000 -0.809012 0.587793
vn 0.000000 -0.587784 0.809018
vn 0.000000 -0.309017 0.951056
vn 0.000000 -0.309017 0.951056
vn 0.000000 -0.587784 0.809018
vn 0.000000 -0.309017 0.951056
vn 0.000000 -0.000001 1.000000
vn 0.000000 -0.000001 1.000000
vn 0.000000 -0.309017 0.951056
vn 0.000000 -0.000001 1.000000
vn 0.000000 0.309017 0.951056
vn 0.000000 0.309017 0.951056
vn 0.000000 -0.000001 1.000000
vn 0.000000 0.309017 0.951056
vn 0.000000 0.587790 0.809014
vn 0.000000 0.587790 0.809014
vn 0.000000 0.309017 0.951056
vn 0.000000 0.587790 0.809014
vn 0.000000 0.809015 0.587788
vn 0.000000 0.809015 0.587788
vn 0.000000 0.587790 0.809014
vn 0.000000 0.809015 0.587788
vn 0.000000 0.951057 0.309014
vn 0.000000 0.951057 0.309014
vn 0.000000 0.809015 0.587788
vn 0.000000 0.951057 0.309014
vn -0.000000 1.000000 -0.000001
vn -0.000000 1.000000 -0.000001
vn 0.000000 0.951057 0.309014
vn -0.000000 1.000000 -0.000001
vn -0.000000 0.951057 -0.309015
vn -0.000000 0.951057 -0.309015
vn -0.000000 1.000000 -0.000001
vn 1.000000 -0.000011 0.000000
vn 1.000000 -0.000009 0.000000
vn 1.000000 0.000002 0.000000
vn 1.000000 -0.000009 0.000000
vn 1.000000 -0.000011 0.000000
vn 1.000000 0.000002 0.000000
vn 1.000000 -0.000004 0.000000
vn 1.000000 -0.000009 0.000000
vn 1.000000 0.000002 0.000000
vn 1.000000 0.000000 0.000000
vn 1.000000 -0.000004 0.000000
vn 1.000000 0.000002 0.000000
vn 1.000000 0.000004 0.000000
vn 1.000000 0.000000 0.000000
vn 1.000000 0.000002 0.000000
vn 1.000000 0.000009 0.000000
vn 1.000000 0.000004 0.000000
vn 1.000000 0.000002 0.000000
vn 1.000000 0.000011 0.000000
vn 1.000000 0.000009 0.000000
vn 1.000000 0.000002 0.000000
vn 1.000000 0.000016 0.000000
vn 1.000000 0.000011 0.000000
vn 1.000000 0.000002 0.000000
vn 1.000000 0.000019 0.000000
vn 1.000000 0.000016 0.000000
vn 1.000000 0.000002 0.000000
vn 1.000000 0.000016 0.000000
vn 1.000000 0.000019 0.000000
vn 1.000000 0.000002 0.000000
vn 1.000000 0.000005 0.000000
vn 1.000000 0.000016 0.000000
vn 1.000000 0.000002 0.000000
vn 1.000000 -0.000004 0.000000
vn 1.000000 0.000005 0.000000
vn 1.000000 0.000002 0.000000
vn 1.000000 -0.000004 0.000000
vn 1.000000 -0.000004 0.000000
vn 1.000000 0.000002 0.000000
vn 1.000000 0.000000 0.000000
vn 1.000000 -0.000004 0.000000
vn 1.000000 0.000002 0.000000
vn 1.000000 0.000004 0.000000
vn 1.000000 0.000000 0.000000
vn 1.000000 0.000002 0.000000
vn 1.000000 0.000001 0.000000
vn 1.000000 0.000004 0.000000
vn 1.000000 0.000002 0.000000
vn 1.000000 0.000005 0.000000
vn 1.000000 0.000001 0.000000
vn 1.000000 0.000002 0.000000
vn 1.000000 -0.000003 0.000000
vn 1.000000 0.000005 0.000000
vn 1.000000 0.000002 0.000000
vn 1.000000 -0.000012 0.000000
vn 1.000000 -0.000003 0.000000
vn 1.000000 0.000002 0.000000
vn 1.000000 -0.000009 0.000000
vn 1.000000 -0.000012 0.000000
vn 1.000000 0.000002 0.000000
vn -1.000000 0.000018 -0.000012
vn -1.000000 0.000036 -0.000023
vn -1.000000 0.000026 0.000000
vn -1.000000 0.000036 -0.000023
vn -1.000000 0.000029 -0.000032
vn -1.000000 0.000026 0.000000
vn -1.000000 0.000029 -0.000032
vn -1.000000 0.000070 -0.000018
vn -1.000000 0.000026 0.000000
vn -1.000000 0.000070 -0.000018
vn -1.000000 0.000065 -0.000000
vn -1.000000 0.000026 0.000000
vn -1.000000 0.000065 -0.000000
vn -1.000000 0.000006 0.000000
vn -1.000000 0.000026 0.000000
vn -1.000000 0.000006 0.000000
vn -1.000000 0.000009 0.000000
vn -1.000000 0.000026 0.000000
vn -1.000000 0.000009 0.000000
vn -1.000000 0.000014 0.000000
vn -1.000000 0.000026 0.000000
vn -1.000000 0.000014 0.000000
vn -1.000000 -0.000004 0.000000
vn -1.000000 0.000026 0.000000
vn -1.000000 -0.000004 0.000000
vn -1.000000 -0.000026 0.000000
vn -1.000000 0.000026 0.000000
vn -1.000000 -0.000026 0.000000
vn -1.000000 -0.000004 0.000000
vn -1.000000 0.000026 0.000000
vn -1.000000 -0.000004 0.000000
vn -1.000000 0.000015 0.000000
vn -1.000000 0.000026 0.000000
vn -1.000000 0.000015 0.000000
vn -1.000000 0.000009 0.000000
vn -1.000000 0.000026 0.000000
vn -1.000000 0.000009 0.000000
vn -1.000000 0.000002 0.000000
vn -1.000000 0.000026 0.000000
vn -1.000000 0.000002 0.000000
vn -1.000000 0.000060 0.000000
vn -1.000000 0.000026 0.000000
vn -1.000000 0.000060 0.000000
vn -1.000000 0.000070 0.000018
vn -1.000000 0.000026 0.000000
vn -1.000000 0.000070 0.000018
vn -1.000000 0.000019 0.000032
vn -1.000000 0.000026 0.000000
vn -1.000000 0.000019 0.000032
vn -1.000000 0.000035 0.000023
vn -1.000000 0.000026 0.000000
vn -1.000000 0.000035 0.000023
vn -1.000000 0.000058 0.000012
vn -1.000000 0.000026 0.000000
vn -1.000000 0.000058 0.000012
vn -1.000000 0.000038 0.000000
vn -1.000000 0.000026 0.000000
vn -1.000000 0.000038 0.000000
vn -1.000000 0.000018 -0.000012
vn -1.000000 0.000026 0.000000
vn -0.000000 0.951054 -0.309024
vn -0.000000 0.809022 -0.587779
vn -0.000000 0.809022 -0.587779
vn -0.000000 0.951054 -0.309024
vn -0.000000 0.809022 -0.587779
vn -0.000000 0.587788 -0.809015
vn -0.000000 0.587788 -0.809015
vn -0.000000 0.809022 -0.587779
vn -0.000000 0.587788 -0.809015
vn -0.000000 0.309009 -0.951059
vn -0.000000 0.309009 -0.951059
vn -0.000000 0.587788 -0.809015
vn -0.000000 0.309009 -0.951059
vn 0.000000 0.000000 -1.000000
vn 0.000000 0.000000 -1.000000
vn -0.000000 0.309009 -0.951059
vn 0.000000 0.000000 -1.000000
vn 0.000000 -0.309008 -0.951059
vn 0.000000 -0.309008 -0.951059
vn 0.000000 0.000000 -1.000000
vn 0.000000 -0.309008 -0.951059
vn 0.000000 -0.587787 -0.809016
vn 0.000000 -0.587787 -0.809016
vn 0.000000 -0.309008 -0.951059
vn 0.000000 -0.587787 -0.809016
vn 0.000000 -0.809020 -0.587781
vn 0.000000 -0.809020 -0.587781
vn 0.000000 -0.587787 -0.809016
vn 0.000000 -0.809020 -0.587781
vn 0.000000 -0.951055 -0.309023
vn 0.000000 -0.951055 -0.309023
vn 0.000000 -0.809020 -0.587781
vn 0.000000 -0.951055 -0.309023
vn 0.000000 -1.000000 0.000002
vn 0.000000 -1.000000 0.000002
vn 0.000000 -0.951055 -0.309023
vn 0.000000 -1.000000 0.000002
vn 0.000000 -0.951054 0.309026
vn 0.000000 -0.951054 0.309026
vn 0.000000 -1.000000 0.000002
vn 0.000000 -0.951054 0.309026
vn 0.000000 -0.809021 0.587780
vn 0.000000 -0.809021 0.587780
vn 0.000000 -0.951054 0.309026
vn 0.000000 -0.809021 0.587780
vn 0.000000 -0.587788 0.809015
vn 0.000000 -0.587788 0.809015
vn 0.000000 -0.809021 0.587780
vn 0.000000 -0.587788 0.809015
vn 0.000000 -0.309008 0.951059
vn 0.000000 -0.309008 0.951059
vn 0.000000 -0.587788 0.809015
vn 0.000000 -0.309008 0.951059
vn 0.000000 -0.000000 1.000000
vn 0.000000 -0.000000 1.000000
vn 0.000000 -0.309008 0.951059
vn 0.000000 -0.000000 1.000000
vn 0.000000 0.309007 0.951060
vn 0.000000 0.309007 0.951060
vn 0.000000 -0.000000 1.000000
vn 0.000000 0.309007 0.951060
vn 0.000000 0.587786 0.809017
vn 0.000000 0.587786 0.809017
vn 0.000000 0.309007 0.951060
vn 0.000000 0.587786 0.809017
vn 0.000000 0.809019 0.587782
vn 0.000000 0.809019 0.587782
vn 0.000000 0.587786 0.809017
vn 0.000000 0.809019 0.587782
vn 0.000000 0.951055 0.309023
vn 0.000000 0.951055 0.309023
vn 0.000000 0.809019 0.587782
vn 0.000000 0.951055 0.309023
vn -0.000000 1.000000 -0.000003
vn -0.000000 1.000000 -0.000003
vn 0.000000 0.951055 0.309023
vn -0.000000 1.000000 -0.000003
vn -0.000000 0.951054 -0.309024
vn -0.000000 0.951054 -0.309024
vn -0.000000 1.000000 -0.000003
vn 1.000000 -0.000001 0.000000
vn 1.000000 -0.000000 0.000000
vn 1.000000 0.000000 0.000000
vn 1.000000 0.000001 0.000000
vn 1.000000 -0.000001 0.000000
vn 1.000000 0.000000 0.000000
vn 1.000000 -0.000003 0.000000
vn 1.000000 0.000001 0.000000
vn 1.000000 0.000000 0.000000
vn 1.000000 0.000000 0.000000
vn 1.000000 -0.000003 0.000000
vn 1.000000 0.000000 0.000000
vn 1.000000 0.000003 0.000000
vn 1.000000 0.000000 0.000000
vn 1.000000 0.000000 0.000000
vn 1.000000 -0.000001 0.000000
vn 1.000000 0.000003 0.000000
vn 1.000000 0.000000 0.000000
vn 1.000000 0.000001 0.000000
vn 1.000000 -0.000001 0.000000
vn 1.000000 0.000000 0.000000
vn 1.000000 0.000000 0.000000
vn 1.000000 0.000001 0.000000
vn 1.000000 0.000000 0.000000
vn 1.000000 -0.000009 0.000000
vn 1.000000 0.000000 0.000000
vn 1.000000 0.000000 0.000000
vn 1.000000 0.000000 0.000000
vn 1.000000 -0.000009 0.000000
vn 1.000000 0.000000 0.000000
vn 1.000000 0.000001 0.000000
vn 1.000000 0.000000 0.000000
vn 1.000000 0.000000 0.000000
vn 1.000000 -0.000001 0.000000
vn 1.000000 0.000001 0.000000
vn 1.000000 0.000000 0.000000
vn 1.000000 0.000003 0.000000
vn 1.000000 -0.000001 0.000000
vn 1.000000 0.000000 0.000000
vn 1.000000 0.000000 0.000000
vn 1.000000 0.000003 0.000000
vn 1.000000 0.000000 0.000000
vn 1.000000 -0.000003 0.000000
vn 1.000000 0.000000 0.000000
vn 1.000000 0.000000 0.000000
vn 1.000000 0.000001 0.000000
vn 1.000000 -0.000003 0.000000
vn 1.000000 0.000000 0.000000
vn 1.000000 -0.000001 0.000000
vn 1.000000 0.000001 0.000000
vn 1.000000 0.000000 0.000000
vn 1.000000 -0.000000 0.000000
vn 1.000000 -0.000001 0.000000
vn 1.000000 0.000000 0.000000
vn 1.000000 0.000009 0.000000
vn 1.000000 -0.000000 0.000000
vn 1.000000 0.000000 0.000000
vn 1.000000 -0.000000 0.000000
vn 1.000000 0.000009 0.000000
vn 1.000000 0.000000 0.000000
vn -1.000000 0.000040 -0.000012
vn -1.000000 0.000023 -0.000023
vn -1.000000 0.000020 0.000000
vn -1.000000 0.000023 -0.000023
vn -1.000000 0.000022 -0.000032
vn -1.000000 0.000020 0.000000
vn -1.000000 0.000022 -0.000032
vn -1.000000 0.000074 -0.000018
vn -1.000000 0.000020 0.000000
vn -1.000000 0.000074 -0.000018
vn -1.000000 0.000060 0.000000
vn -1.000000 0.000020 0.000000
vn -1.000000 0.000060 0.000000
vn -1.000000 -0.000002 0.000000
vn -1.000000 0.000020 0.000000
vn -1.000000 -0.000002 0.000000
vn -1.000000 -0.000004 0.000000
vn -1.000000 0.000020 0.000000
vn -1.000000 -0.000004 0.000000
vn -1.000000 -0.000014 0.000000
vn -1.000000 0.000020 0.000000
vn -1.000000 -0.000014 0.000000
vn -1.000000 -0.000016 0.000000
vn -1.000000 0.000020 0.000000
vn -1.000000 -0.000016 0.000000
vn -1.000000 -0.000012 0.000000
vn -1.000000 0.000020 0.000000
vn -1.000000 -0.000012 0.000000
vn -1.000000 -0.000016 0.000000
vn -1.000000 0.000020 0.000000
vn -1.000000 -0.000016 0.000000
vn -1.000000 -0.000014 0.000000
vn -1.000000 0.000020 0.000000
vn -1.000000 -0.000014 0.000000
vn -1.000000 -0.000004 0.000000
vn -1.000000 0.000020 0.000000
vn -1.000000 -0.000004 0.000000
vn -1.000000 -0.000002 0.000000
vn -1.000000 0.000020 0.000000
vn -1.000000 -0.000002 0.000000
vn -1.000000 0.000060 0.000000
vn -1.000000 0.000020 0.000000
vn -1.000000 0.000060 0.000000
vn -1.000000 0.000074 0.000018
vn -1.000000 0.000020 0.000000
vn -1.000000 0.000074 0.000018
vn -1.000000 0.000022 0.000032
vn -1.000000 0.000020 0.000000
vn -1.000000 0.000022 0.000032
vn -1.000000 0.000023 0.000023
vn -1.000000 0.000020 0.000000
vn -1.000000 0.000023 0.000023
vn -1.000000 0.000040 0.000012
vn -1.000000 0.000020 0.000000
vn -1.000000 0.000040 0.000012
vn -1.000000 0.000055 -0.000000
vn -1.000000 0.000020 0.000000
vn -1.000000 0.000055 -0.000000
vn -1.000000 0.000040 -0.000012
vn -1.000000 0.000020 0.000000
vn 0.000374 0.634264 0.773117
vn 0.000374 0.634264 0.773117
vn 0.000374 0.634264 0.773117
vn 0.000374 0.634264 0.773117
g canopy
f 1/1/1 2/2/2 3/3/3 4/4/4
f 5/5/5 6/6/6 7/7/7 8/8/8 9/9/9
f 8/8/10 7/7/11 10/10/12 11/11/13
f 11/11/14 10/10/15 12/12/16 13/13/17
f 13/13/18 12/12/19 14/14/20 15/15/21
f 16/16/22 17/17/23 18/18/24 19/19/25
f 17/17/26 20/20/27 21/21/28 18/18/29
f 20/20/30 22/22/31 23/23/32 21/21/33
f 22/22/34 24/24/35 25/25/36 23/23/37
f 24/24/38 26/26/39 27/27/40 25/25/41
f 26/26/42 28/28/43 29/29/44 27/27/45
f 28/28/46 30/30/47 31/31/48 29/29/49
f 30/30/50 32/32/51 33/33/52 31/31/53
f 32/32/54 34/34/55 35/35/56 33/33/57
f 34/34/58 36/36/59 37/37/60 35/35/61
f 36/36/62 38/38/63 39/39/64 37/37/65
f 38/38/66 40/40/67 41/41/68 39/39/69
f 40/40/70 42/42/71 43/43/72 41/41/73
f 42/42/74 44/44/75 45/45/76 43/43/77
f 44/44/78 46/46/79 47/47/80 45/45/81
f 46/46/82 48/48/83 49/49/84 47/47/85
f 48/48/86 50/50/87 51/51/88 49/49/89
f 50/50/90 52/52/91 53/53/92 51/51/93
f 52/52/94 54/54/95 55/55/96 53/53/97
f 54/54/98 16/16/99 19/19/100 55/55/101
f 17/17/102 16/16/103 56/56/104
f 20/20/105 17/17/106 56/56/107
f 22/22/108 20/20/109 56/56/110
f 24/24/111 22/22/112 56/56/113
f 26/26/114 24/24/115 56/56/116
f 28/28/117 26/26/118 56/56/119
f 30/30/120 28/28/121 56/56/122
f 32/32/123 30/30/124 56/56/125
f 34/34/126 32/32/127 56/56/128
f 36/36/129 34/34/130 56/56/131
f 38/38/132 36/36/133 56/56/134
f 40/40/135 38/38/136 56/56/137
f 42/42/138 40/40/139 56/56/140
f 44/44/141 42/42/142 56/56/143
f 46/46/144 44/44/145 56/56/146
f 48/48/147 46/46/148 56/56/149
f 50/50/150 48/48/151 56/56/152
f 52/52/153 50/50/154 56/56/155
f 54/54/156 52/52/157 56/56/158
f 16/16/159 54/54/160 56/56/161
f 19/19/162 18/18/163 57/57/164
f 18/18/165 21/21/166 57/57/167
f 21/21/168 23/23/169 57/57/170
f 23/23/171 25/25/172 57/57/173
f 25/25/174 27/27/175 57/57/176
f 27/27/177 29/29/178 57/57/179
f 29/29/180 31/31/181 57/57/182
f 31/31/183 33/33/184 57/57/185
f 33/33/186 35/35/187 57/57/188
f 35/35/189 37/37/190 57/57/191
f 37/37/192 39/39/193 57/57/194
f 39/39/195 41/41/196 57/57/197
f 41/41/198 43/43/199 57/57/200
f 43/43/201 45/45/202 57/57/203
f 45/45/204 47/47/205 57/57/206
f 47/47/207 49/49/208 57/57/209
f 49/49/210 51/51/211 57/57/212
f 51/51/213 53/53/214 57/57/215
f 53/53/216 55/55/217 57/57/218
f 55/55/219 19/19/220 57/57/221
f 58/58/222 59/59/223 60/60/224 61/61/225
f 59/59/226 62/62/227 63/63/228 60/60/229
f 62/62/230 64/64/231 65/65/232 63/63/233
f 64/64/234 66/66/235 67/67/236 65/65/237
f 66/66/238 68/68/239 69/69/240 67/67/241
f 68/68/242 70/70/243 71/71/244 69/69/245
f 70/70/246 72/72/247 73/73/248 71/71/249
f 72/72/250 74/74/251 75/75/252 73/73/253
f 74/74/254 76/76/255 77/77/256 75/75/257
f 76/76/258 78/78/259 79/79/260 77/77/261
f 78/78/262 80/80/263 81/81/264 79/79/265
f 80/80/266 82/82/267 83/83/268 81/81/269
f 82/82/270 84/84/271 85/85/272 83/83/273
f 84/84/274 86/86/275 87/87/276 85/85/277
f 86/86/278 88/88/279 89/89/280 87/87/281
f 88/88/282 90/90/283 91/91/284 89/89/285
f 90/90/286 92/92/287 93/93/288 91/91/289
f 92/92/290 94/94/291 95/95/292 93/93/293
f 94/94/294 96/96/295 97/97/296 95/95/297
f 96/96/298 58/58/299 61/61/300 97/97/301
f 59/59/302 58/58/303 98/98/304
f 62/62/305 59/59/306 98/98/307
f 64/64/308 62/62/309 98/98/310
f 66/66/311 64/64/312 98/98/313
f 68/68/314 66/66/315 98/98/316
f 70/70/317 68/68/318 98/98/319
f 72/72/320 70/70/321 98/98/322
f 74/74/323 72/72/324 98/98/325
f 76/76/326 74/74/327 98/98/328
f 78/78/329 76/76/330 98/98/331
f 80/80/332 78/78/333 98/98/334
f 82/82/335 80/80/336 98/98/337
f 84/84/338 82/82/339 98/98/340
f 86/86/341 84/84/342 98/98/343
f 88/88/344 86/86/345 98/98/346
f 90/90/347 88/88/348 98/98/349
f 92/92/350 90/90/351 98/98/352
f 94/94/353 92/92/354 98/98/355
f 96/96/356 94/94/357 98/98/358
f 58/58/359 96/96/360 98/98/361
f 61/61/362 60/60/363 99/99/364
f 60/60/365 63/63/366 99/99/367
f 63/63/368 65/65/369 99/99/370
f 65/65/371 67/67/372 99/99/373
f 67/67/374 69/69/375 99/99/376
f 69/69/377 71/71/378 99/99/379
f 71/71/380 73/73/381 99/99/382
f 73/73/383 75/75/384 99/99/385
f 75/75/386 77/77/387 99/99/388
f 77/77/389 79/79/390 99/99/391
f 79/79/392 81/81/393 99/99/394
f 81/81/395 83/83/396 99/99/397
f 83/83/398 85/85/399 99/99/400
f 85/85/401 87/87/402 99/99/403
f 87/87/404 89/89/405 99/99/406
f 89/89/407 91/91/408 99/99/409
f 91/91/410 93/93/411 99/99/412
f 93/93/413 95/95/414 99/99/415
f 95/95/416 97/97/417 99/99/418
f 97/97/419 61/61/420 99/99/421
f 3/3/422 6/6/423 5/5/424 4/4/425
