# This file uses centimeters as units for non-parametric coordinates.

v -116.482224 85.786552 0.797557
v 138.809738 85.786545 0.797547
v 138.809723 -10.468552 162.599670
v -116.482239 -10.468549 162.599686
v 138.809723 -10.205167 164.112671
v 138.809723 -3.931584 167.844772
v -116.482239 -3.931581 167.844788
v -116.482239 -10.205164 164.112686
v -117.482124 -3.335630 166.843018
v -117.482117 92.919472 5.040888
v -117.482117 86.645882 1.308770
v -117.482124 -9.609212 163.110901
v 139.809631 86.645882 1.308760
v 139.809631 92.919464 5.040878
v 139.809616 -3.335633 166.843002
v 139.809616 -9.609216 163.110886
v 138.809723 -2.476297 167.354218
v 138.809738 93.778801 5.552091
v -116.482224 93.778809 5.552102
v -116.482239 -2.476294 167.354218
v 138.809738 93.515427 4.039090
v 138.809738 87.241844 0.306972
v -116.482224 87.241852 0.306983
v -116.482224 93.515434 4.039100
vt 0.997072 0.923334
vt 0.997072 0.923334
vt 0.031307 0.000000
vt 0.031307 0.000000
vt 0.022276 0.002527
vt 0.000000 0.062706
vt 0.000000 0.062706
vt 0.022276 0.002527
vt 0.005979 0.068423
vt 0.971744 0.991757
vt 0.994020 0.931577
vt 0.028256 0.008243
vt 0.994020 0.931577
vt 0.971744 0.991757
vt 0.005979 0.068423
vt 0.028256 0.008243
vt 0.002928 0.076666
vt 0.968693 1.000000
vt 0.968693 1.000000
vt 0.002928 0.076666
vt 0.977724 0.997474
vt 1.000000 0.937294
vt 1.000000 0.937294
vt 0.977724 0.997474
vn 0.000000 -0.859423 -0.511265
vn 0.000000 -0.859423 -0.511265
vn 0.000000 -0.859423 -0.511265
vn 0.000000 -0.859423 -0.511265
vn 0.000000 -0.511264 0.859424
vn 0.000000 -0.511264 0.859424
vn 0.000000 -0.511264 0.859424
vn 0.000000 -0.511264 0.859424
vn -1.000000 0.000000 0.000000
vn -1.000000 0.000000 0.000000
vn -1.000000 0.000000 0.000000
vn -1.000000 0.000000 0.000000
vn 1.000000 -0.000001 0.000000
vn 1.000000 -0.000001 0.000000
vn 1.000000 -0.000001 0.000000
vn 1.000000 -0.000001 0.000000
vn 0.000000 0.859423 0.511265
vn 0.000000 0.859423 0.511265
vn 0.000000 0.859423 0.511265
vn 0.000000 0.859423 0.511265
vn -0.000000 0.511265 -0.859423
vn -0.000000 0.511265 -0.859423
vn -0.000000 0.511265 -0.859423
vn -0.000000 0.511265 -0.859423
vn -0.707109 -0.607701 -0.361518
vn -0.707109 -0.607701 -0.361518
vn -0.707109 -0.607701 -0.361518
vn -0.707109 -0.607701 -0.361518
vn 0.000000 -0.985184 0.171502
vn 0.000000 -0.985184 0.171502
vn 0.000000 -0.985184 0.171502
vn 0.000000 -0.985184 0.171502
vn -0.759008 -0.332875 0.559555
vn -0.759008 -0.332875 0.559555
vn -0.759008 -0.332875 0.559555
vn -0.759008 -0.332875 0.559555
vn 0.707108 -0.607703 -0.361519
vn 0.707108 -0.607703 -0.361519
vn 0.707108 -0.607703 -0.361519
vn 0.707108 -0.607703 -0.361519
vn 0.759008 -0.332875 0.559555
vn 0.759008 -0.332875 0.559555
vn 0.759008 -0.332875 0.559555
vn 0.759008 -0.332875 0.559555
vn -0.707109 0.607702 0.361518
vn -0.707109 0.607702 0.361518
vn -0.707109 0.607702 0.361518
vn -0.707109 0.607702 0.361518
vn 0.000000 0.319431 0.947610
vn 0.000000 0.319431 0.947610
vn 0.000000 0.319431 0.947610
vn 0.000000 0.319431 0.947610
vn 0.707109 0.607702 0.361518
vn 0.707109 0.607702 0.361518
vn 0.707109 0.607702 0.361518
vn 0.707109 0.607702 0.361518
vn -0.759011 0.332873 -0.559551
vn -0.759011 0.332873 -0.559551
vn -0.759011 0.332873 -0.559551
vn -0.759011 0.332873 -0.559551
vn 0.000000 0.985185 -0.171494
vn 0.000000 0.985185 -0.171494
vn 0.000000 0.985185 -0.171494
vn 0.000000 0.985185 -0.171494
vn 0.759012 0.332873 -0.559550
vn 0.759012 0.332873 -0.559550
vn 0.759012 0.332873 -0.559550
vn 0.759012 0.332873 -0.559550
vn 0.000000 -0.319434 -0.947609
vn 0.000000 -0.319434 -0.947609
vn 0.000000 -0.319434 -0.947609
vn 0.000000 -0.319434 -0.947609
vn -0.604582 -0.784741 0.136609
vn -0.604582 -0.784741 0.136609
vn -0.604582 -0.784741 0.136609
vn 0.604584 -0.784740 0.136608
vn 0.604584 -0.784740 0.136608
vn 0.604584 -0.784740 0.136608
vn -0.604581 0.254440 0.754812
vn -0.604581 0.254440 0.754812
vn -0.604581 0.254440 0.754812
vn 0.604576 0.254442 0.754816
vn 0.604576 0.254442 0.754816
vn 0.604576 0.254442 0.754816
vn -0.604585 0.784741 -0.136599
vn -0.604585 0.784741 -0.136599
vn -0.604585 0.784741 -0.136599
vn 0.604587 0.784738 -0.136604
vn 0.604587 0.784738 -0.136604
vn 0.604587 0.784738 -0.136604
vn -0.604586 -0.254442 -0.754808
vn -0.604586 -0.254442 -0.754808
vn -0.604586 -0.254442 -0.754808
vn 0.604583 -0.254443 -0.754810
vn 0.604583 -0.254443 -0.754810
vn 0.604583 -0.254443 -0.754810
g canopy_brick_support_board
f 1/1/1 2/2/2 3/3/3 4/4/4
f 5/5/5 6/6/6 7/7/7 8/8/8
f 9/9/9 10/10/10 11/11/11 12/12/12
f 13/13/13 14/14/14 15/15/15 16/16/16
f 17/17/17 18/18/18 19/19/19 20/20/20
f 21/21/21 22/22/22 23/23/23 24/24/24
f 4/4/25 12/12/26 11/11/27 1/1/28
f 8/8/29 4/4/30 3/3/31 5/5/32
f 12/12/33 8/8/34 7/7/35 9/9/36
f 16/16/37 3/3/38 2/2/39 13/13/40
f 5/5/41 16/16/42 15/15/43 6/6/44
f 9/9/45 20/20/46 19/19/47 10/10/48
f 20/20/49 7/7/50 6/6/51 17/17/52
f 17/17/53 15/15/54 14/14/55 18/18/56
f 10/10/57 24/24/58 23/23/59 11/11/60
f 24/24/61 19/19/62 18/18/63 21/21/64
f 21/21/65 14/14/66 13/13/67 22/22/68
f 1/1/69 23/23/70 22/22/71 2/2/72
f 12/12/73 4/4/74 8/8/75
f 3/3/76 16/16/77 5/5/78
f 20/20/79 9/9/80 7/7/81
f 15/15/82 17/17/83 6/6/84
f 24/24/85 10/10/86 19/19/87
f 14/14/88 21/21/89 18/18/90
f 1/1/91 11/11/92 23/23/93
f 13/13/94 2/2/95 22/22/96
