# This file uses centimeters as units for non-parametric coordinates.

mtllib streetBlock_1.mtl
v 0.088403 0.000000 -0.088403
v 0.000000 0.000000 -0.125021
v -0.088403 0.000000 -0.088403
v -0.125021 0.000000 0.000000
v -0.088403 0.000000 0.088403
v 0.000000 0.000000 0.125021
v 0.088403 0.000000 0.088404
v 0.125021 0.000000 0.000000
v 0.000000 0.559299 0.000000
v 0.059239 0.459482 -0.059239
v 0.000000 0.459482 -0.083777
v -0.059239 0.459482 -0.059239
v -0.083777 0.459482 0.000000
v -0.059239 0.459482 0.059239
v 0.000000 0.459482 0.083777
v 0.059239 0.459482 0.059239
v 0.083777 0.459482 0.000000
v 0.035759 0.536862 -0.035759
v 0.000000 0.536862 -0.050571
v -0.035759 0.536862 -0.035759
v -0.050572 0.536862 0.000000
v -0.035759 0.536862 0.035759
v 0.000000 0.536862 0.050571
v 0.035759 0.536862 0.035759
v 0.050571 0.536862 0.000000
vt -0.499968 0.000000
vt -0.499968 0.821532
vt 1.250032 0.821532
vt -0.249968 0.000000
vt -0.249968 0.821532
vt 0.000032 0.000000
vt 0.000032 0.821532
vt 0.250032 0.000000
vt 0.250032 0.821532
vt 0.500032 0.000000
vt 0.500032 0.821532
vt 0.750032 0.000000
vt 0.750032 0.821532
vt 1.000032 0.000000
vt 1.000032 0.821532
vt -0.499968 0.959883
vt 1.250032 0.959883
vt -0.249968 0.959883
vt 0.000032 0.959883
vt 0.250032 0.959883
vt 0.500032 0.959883
vt -0.499968 1.000000
vt 1.250032 0.000000
vt 1.500032 0.000000
vt 1.500032 0.821532
vt 1.500032 0.959883
vt 2.500032 0.959883
vt 0.750032 0.959883
vt 1.500032 1.000000
vt 1.000032 0.959883
vn 0.704275 0.089403 -0.704275
vn 0.000000 0.089403 -0.995996
vn -0.000000 0.245768 -0.969329
vn 0.685419 0.245768 -0.685419
vn -0.704275 0.089403 -0.704275
vn -0.685419 0.245768 -0.685419
vn -0.995996 0.089403 0.000000
vn -0.969329 0.245768 0.000000
vn -0.704275 0.089403 0.704275
vn -0.685419 0.245768 0.685419
vn -0.000000 0.089403 0.995996
vn -0.000000 0.245768 0.969329
vn 0.704275 0.089403 0.704275
vn 0.685419 0.245768 0.685419
vn 0.995996 0.089403 0.000000
vn 0.969329 0.245768 -0.000000
vn -0.000000 0.710231 -0.703968
vn 0.497781 0.710231 -0.497781
vn -0.497781 0.710231 -0.497781
vn -0.703968 0.710231 0.000000
vn -0.497781 0.710231 0.497781
vn -0.000000 0.710231 0.703968
vn 0.497781 0.710231 0.497781
vn 0.703969 0.710231 -0.000000
vn 0.000000 1.000000 -0.000000
s 1
g streetBlock_1
usemtl lambert2SG
f 1/23/1 2/24/2 11/25/3 10/3/4
f 2/1/2 3/4/5 12/5/6 11/2/3
f 3/4/5 4/6/7 13/7/8 12/5/6
f 4/6/7 5/8/9 14/9/10 13/7/8
f 5/8/9 6/10/11 15/11/12 14/9/10
f 6/10/11 7/12/13 16/13/14 15/11/12
f 7/12/13 8/14/15 17/15/16 16/13/14
f 8/14/15 1/23/1 10/3/4 17/15/16
f 10/3/4 11/25/3 19/26/17 18/17/18
f 11/2/3 12/5/6 20/18/19 19/16/17
f 12/5/6 13/7/8 21/19/20 20/18/19
f 13/7/8 14/9/10 22/20/21 21/19/20
f 14/9/10 15/11/12 23/21/22 22/20/21
f 15/11/12 16/13/14 24/28/23 23/21/22
f 16/13/14 17/15/16 25/30/24 24/28/23
f 17/15/16 10/3/4 18/17/18 25/30/24
f 18/17/18 19/26/17 9/29/25
f 19/16/17 20/18/19 9/22/25
f 20/18/19 21/19/20 9/22/25
f 21/19/20 22/20/21 9/22/25
f 22/20/21 23/21/22 9/22/25
f 23/27/22 24/28/23 9/29/25
f 24/28/23 25/30/24 9/29/25
f 25/30/24 18/17/18 9/29/25
