# This file uses centimeters as units for non-parametric coordinates.

mtllib saeule_ornate2.mtl
v 4.622437 -1.269455 2.733391
v 4.884195 -1.269455 2.733391
v 4.622437 0.248089 2.733391
v 4.884195 0.248089 2.733391
v 4.622437 0.248089 2.471632
v 4.884195 0.248089 2.471632
v 4.622437 -1.269455 2.471632
v 4.884195 -1.269455 2.471632
v 4.884195 0.135693 2.471632
v 4.884195 0.135693 2.733391
v 4.622437 0.135693 2.733391
v 4.622437 0.135693 2.471632
v 4.884195 -0.020682 2.471632
v 4.884195 -0.020682 2.733391
v 4.622437 -0.020682 2.733391
v 4.622437 -0.020682 2.471632
v 4.884195 -0.177057 2.471632
v 4.884195 -0.177057 2.733391
v 4.622437 -0.177057 2.733391
v 4.622437 -0.177057 2.471632
v 4.884195 -0.333432 2.471632
v 4.884195 -0.333432 2.733391
v 4.622437 -0.333432 2.733391
v 4.622437 -0.333432 2.471632
v 4.884195 -0.489807 2.471632
v 4.884195 -0.489807 2.733391
v 4.622437 -0.489807 2.733391
v 4.622437 -0.489807 2.471632
v 4.622437 0.135693 2.790596
v 4.622437 0.248089 2.838927
v 4.884195 0.135693 2.790596
v 4.884195 0.248089 2.838927
v 4.622437 -0.177057 2.790596
v 4.622437 -0.020682 2.790596
v 4.884195 -0.177057 2.790596
v 4.884195 -0.020682 2.790596
v 4.622437 -0.489807 2.790596
v 4.622437 -0.333432 2.790596
v 4.884195 -0.489807 2.790596
v 4.884195 -0.333432 2.790596
v 4.884195 -1.139514 2.471632
v 4.884195 -1.139514 2.733391
v 4.622437 -1.139514 2.733391
v 4.622437 -1.139514 2.471632
v 4.622437 -1.269455 2.843488
v 4.622437 -1.139514 2.843488
v 4.884195 -1.269455 2.843488
v 4.884195 -1.139513 2.843488
vt 0.361806 0.000000
vt 0.838833 0.000000
vt 0.838833 0.085626
vt 0.361806 0.085626
vt 0.838833 0.000000
vt 0.361806 0.000000
vt 0.361806 0.085626
vt 0.838833 0.085626
vt 0.361806 0.925936
vt 0.838833 0.925936
vt 0.838833 1.000000
vt 0.361806 1.000000
vt 0.838833 0.925936
vt 0.361806 0.925936
vt 0.361806 1.000000
vt 0.838833 1.000000
vt 0.361806 0.822891
vt 0.838833 0.822891
vt 0.838833 0.822891
vt 0.361806 0.822891
vt 0.361806 0.719846
vt 0.838833 0.719846
vt 0.838833 0.719846
vt 0.361806 0.719846
vt 0.361806 0.616801
vt 0.838833 0.616801
vt 0.838833 0.616801
vt 0.361806 0.616801
vt 0.361806 0.513757
vt 0.838833 0.513757
vt 0.838833 0.513757
vt 0.361806 0.513757
vt 0.257556 0.925936
vt 0.169478 1.000000
vt 0.169478 1.000000
vt 0.257556 0.925936
vt 0.257556 0.719846
vt 0.257556 0.822891
vt 0.257556 0.822891
vt 0.257556 0.719846
vt 0.257556 0.513757
vt 0.257556 0.616801
vt 0.257556 0.616801
vt 0.257556 0.513757
vt 0.161167 0.000000
vt 0.161167 0.085626
vt 0.161167 0.085626
vt 0.161167 0.000000
vt 0.264585 0.085626
vt 0.264585 0.000000
vt 0.735416 0.000000
vt 0.735416 0.085626
vt 0.264585 1.000000
vt 0.264585 0.925936
vt 0.735416 0.925936
vt 0.735416 1.000000
vt 0.264585 0.925936
vt 0.264585 0.822891
vt 0.735416 0.822891
vt 0.735416 0.925936
vt 0.264585 0.822891
vt 0.264585 0.719846
vt 0.735416 0.719846
vt 0.735416 0.822891
vt 0.264585 0.719846
vt 0.264585 0.616801
vt 0.735416 0.616801
vt 0.735416 0.719846
vt 0.264585 0.616801
vt 0.264585 0.513757
vt 0.735416 0.513757
vt 0.735416 0.616801
vt 0.702225 0.297642
vt 0.702225 0.151656
vt 0.734129 0.151656
vt 0.734129 0.297642
vt 0.664666 0.297642
vt 0.664666 0.151656
vt 0.696570 0.151656
vt 0.696570 0.297642
vt 0.659011 0.151656
vt 0.659011 0.297642
vt 0.627107 0.297642
vt 0.627107 0.151656
vt 0.589548 0.297642
vt 0.589548 0.151656
vt 0.621452 0.151656
vt 0.621452 0.297642
vt 0.583893 0.368020
vt 0.583893 0.514005
vt 0.551989 0.514005
vt 0.551989 0.368020
vt 0.264585 0.513757
vt 0.264585 0.085626
vt 0.735416 0.085626
vt 0.735416 0.513757
vt 0.484932 0.514005
vt 0.484932 0.368020
vt 0.546334 0.368020
vt 0.546334 0.514005
vt 0.479277 0.852023
vt 0.479277 0.998008
vt 0.417875 0.998008
vt 0.417875 0.852023
vn 1.000000 0.000000 0.000000
vn 1.000000 0.000000 0.000000
vn 1.000000 0.000000 0.000000
vn 1.000000 0.000000 0.000000
vn -1.000000 0.000000 0.000000
vn -1.000000 0.000000 0.000000
vn -1.000000 0.000000 0.000000
vn -1.000000 0.000000 0.000000
vn 0.000000 0.000000 1.000000
vn 0.000000 0.000000 1.000000
vn 0.000000 0.000000 1.000000
vn 0.000000 0.000000 1.000000
vn 1.000000 0.000000 0.000000
vn 1.000000 0.000000 0.000000
vn 1.000000 0.000000 0.000000
vn 1.000000 0.000000 0.000000
vn 0.000000 -0.395027 0.918669
vn 0.000000 -0.395027 0.918669
vn 0.000000 -0.395027 0.918669
vn 0.000000 -0.395027 0.918669
vn -1.000000 0.000000 0.000000
vn -1.000000 0.000000 0.000000
vn -1.000000 0.000000 0.000000
vn -1.000000 0.000000 0.000000
vn 1.000000 0.000000 0.000000
vn 1.000000 0.000000 0.000000
vn 1.000000 0.000000 0.000000
vn 1.000000 0.000000 0.000000
vn 0.000000 0.000000 1.000000
vn 0.000000 0.000000 1.000000
vn 0.000000 0.000000 1.000000
vn 0.000000 0.000000 1.000000
vn -1.000000 0.000000 0.000000
vn -1.000000 0.000000 0.000000
vn -1.000000 0.000000 0.000000
vn -1.000000 0.000000 0.000000
vn 1.000000 0.000000 0.000000
vn 1.000000 0.000000 0.000000
vn 1.000000 0.000000 0.000000
vn 1.000000 0.000000 0.000000
vn 0.000000 0.000000 1.000000
vn 0.000000 0.000000 1.000000
vn 0.000000 0.000000 1.000000
vn 0.000000 0.000000 1.000000
vn -1.000000 0.000000 0.000000
vn -1.000000 0.000000 0.000000
vn -1.000000 0.000000 0.000000
vn -1.000000 0.000000 0.000000
vn 1.000000 0.000000 0.000000
vn 1.000000 0.000000 0.000000
vn 1.000000 0.000000 0.000000
vn 1.000000 0.000000 0.000000
vn 0.000000 0.000000 1.000000
vn 0.000000 0.000000 1.000000
vn 0.000000 0.000000 1.000000
vn 0.000000 0.000000 1.000000
vn -1.000000 0.000000 0.000000
vn -1.000000 0.000000 0.000000
vn -1.000000 0.000000 0.000000
vn -1.000000 0.000000 0.000000
vn 1.000000 0.000000 0.000000
vn 1.000000 0.000000 0.000000
vn 1.000000 0.000000 0.000000
vn 1.000000 0.000000 0.000000
vn 0.000000 0.000000 1.000000
vn 0.000000 0.000000 1.000000
vn 0.000000 0.000000 1.000000
vn 0.000000 0.000000 1.000000
vn -1.000000 0.000000 0.000000
vn -1.000000 0.000000 0.000000
vn -1.000000 0.000000 0.000000
vn -1.000000 0.000000 0.000000
vn -1.000000 0.000000 0.000000
vn -1.000000 0.000000 0.000000
vn -1.000000 0.000000 0.000000
vn -1.000000 0.000000 0.000000
vn 0.000000 -1.000000 0.000000
vn 0.000000 -1.000000 0.000000
vn 0.000000 -1.000000 0.000000
vn 0.000000 -1.000000 0.000000
vn 1.000000 0.000007 0.000000
vn 1.000000 0.000007 0.000000
vn 1.000000 0.000007 0.000000
vn 1.000000 0.000007 0.000000
vn -1.000000 0.000000 0.000000
vn -1.000000 0.000000 0.000000
vn -1.000000 0.000000 0.000000
vn -1.000000 0.000000 0.000000
vn 0.000000 -1.000000 0.000000
vn 0.000000 -1.000000 0.000000
vn 0.000000 -1.000000 0.000000
vn 0.000000 -1.000000 0.000000
vn 1.000000 0.000000 0.000000
vn 1.000000 0.000000 0.000000
vn 1.000000 0.000000 0.000000
vn 1.000000 0.000000 0.000000
vn 0.000000 1.000000 -0.000001
vn 0.000000 1.000000 -0.000001
vn 0.000000 1.000000 -0.000001
vn 0.000000 1.000000 -0.000001
vn -1.000000 0.000000 0.000000
vn -1.000000 0.000000 0.000000
vn -1.000000 0.000000 0.000000
vn -1.000000 0.000000 0.000000
vn 0.000000 -1.000000 0.000000
vn 0.000000 -1.000000 0.000000
vn 0.000000 -1.000000 0.000000
vn 0.000000 -1.000000 0.000000
vn 1.000000 0.000000 0.000000
vn 1.000000 0.000000 0.000000
vn 1.000000 0.000000 0.000000
vn 1.000000 0.000000 0.000000
vn 0.000000 1.000000 0.000000
vn 0.000000 1.000000 0.000000
vn 0.000000 1.000000 0.000000
vn 0.000000 1.000000 0.000000
vn 1.000000 0.000000 0.000000
vn 1.000000 0.000000 0.000000
vn 1.000000 0.000000 0.000000
vn 1.000000 0.000000 0.000000
vn 0.000000 0.000000 1.000000
vn 0.000000 0.000000 1.000000
vn 0.000000 0.000000 1.000000
vn 0.000000 0.000000 1.000000
vn -1.000000 0.000000 0.000000
vn -1.000000 0.000000 0.000000
vn -1.000000 0.000000 0.000000
vn -1.000000 0.000000 0.000000
vn -1.000000 0.000000 0.000000
vn -1.000000 0.000000 0.000000
vn -1.000000 0.000000 0.000000
vn -1.000000 0.000000 0.000000
vn 0.000000 -1.000000 0.000000
vn 0.000000 -1.000000 0.000000
vn 0.000000 -1.000000 0.000000
vn 0.000000 -1.000000 0.000000
vn 1.000000 0.000000 0.000000
vn 1.000000 0.000000 0.000000
vn 1.000000 0.000000 0.000000
vn 1.000000 0.000000 0.000000
vn -0.000000 1.000000 -0.000001
vn -0.000000 1.000000 -0.000001
vn -0.000000 1.000000 -0.000001
vn -0.000000 1.000000 -0.000001
s off
g pCube2
usemtl initialShadingGroup1
f 2/1/1 8/2/2 41/3/3 42/4/4
f 7/5/5 1/6/6 43/7/7 44/8/8
f 46/49/9 45/50/10 47/51/11 48/52/12
f 10/9/13 9/10/14 6/11/15 4/12/16
f 30/53/17 29/54/18 31/55/19 32/56/20
f 12/13/21 11/14/22 3/15/23 5/16/24
f 14/17/25 13/18/26 9/10/27 10/9/28
f 11/57/29 15/58/30 14/59/31 10/60/32
f 16/19/33 15/20/34 11/14/35 12/13/36
f 18/21/37 17/22/38 13/18/39 14/17/40
f 34/61/41 33/62/42 35/63/43 36/64/44
f 20/23/45 19/24/46 15/20/47 16/19/48
f 22/25/49 21/26/50 17/22/51 18/21/52
f 19/65/53 23/66/54 22/67/55 18/68/56
f 24/27/57 23/28/58 19/24/59 20/23/60
f 26/29/61 25/30/62 21/26/63 22/25/64
f 38/69/65 37/70/66 39/71/67 40/72/68
f 28/31/69 27/32/70 23/28/71 24/27/72
f 3/15/73 11/14/74 29/33/75 30/34/76
f 11/73/77 10/74/78 31/75/79 29/76/80
f 10/9/81 4/12/82 32/35/83 31/36/84
f 15/20/85 19/24/86 33/37/87 34/38/88
f 19/77/89 18/78/90 35/79/91 33/80/92
f 18/21/93 14/17/94 36/39/95 35/40/96
f 14/81/97 15/82/98 34/83/99 36/84/100
f 23/28/101 27/32/102 37/41/103 38/42/104
f 27/85/105 26/86/106 39/87/107 37/88/108
f 26/29/109 22/25/110 40/43/111 39/44/112
f 22/89/113 23/90/114 38/91/115 40/92/116
f 26/29/117 42/4/118 41/3/119 25/30/120
f 27/93/121 43/94/122 42/95/123 26/96/124
f 28/31/125 44/8/126 43/7/127 27/32/128
f 43/7/129 1/6/130 45/45/131 46/46/132
f 1/97/133 2/98/134 47/99/135 45/100/136
f 2/1/137 42/4/138 48/47/139 47/48/140
f 42/101/141 43/102/142 46/103/143 48/104/144
