# This file uses meters as units for non-parametric coordinates.

mtllib fut1.mtl
g default
v -0.014054 1.160496 0.010341
v 0.673908 2.062958 0.010341
v 0.542519 2.062958 -0.394033
v 0.198538 2.062958 -0.643950
v -0.226646 2.062958 -0.643950
v -0.570627 2.062958 -0.394033
v -0.702016 2.062958 0.010341
v -0.570627 2.062958 0.414715
v -0.226646 2.062958 0.664633
v 0.198538 2.062958 0.664633
v 0.542519 2.062958 0.414715
v 0.855154 0.000000 0.010341
v 0.689150 0.000000 -0.500567
v 0.254546 0.000000 -0.816325
v -0.282654 0.000000 -0.816325
v -0.717258 0.000000 -0.500567
v -0.883262 0.000000 0.010341
v -0.717258 0.000000 0.521249
v -0.282654 0.000000 0.837008
v 0.254546 0.000000 0.837008
v 0.689150 0.000000 0.521249
vt 0.998667 1.498000
vt 0.000000 0.998667
vt 0.199733 0.998667
vt 0.399467 0.998667
vt 0.599200 0.998667
vt 0.798933 0.998667
vt 0.998667 0.998667
vt 1.198400 0.998667
vt 1.398133 0.998667
vt 1.597867 0.998667
vt 1.797600 0.998667
vt 1.997334 0.998667
vt 0.000000 0.499333
vt 0.199733 0.499333
vt 0.399467 0.499333
vt 0.599200 0.499333
vt 0.798933 0.499333
vt 0.998667 0.499333
vt 1.198400 0.499333
vt 1.398133 0.499333
vt 1.597867 0.499333
vt 1.797600 0.499333
vt 1.997334 0.499333
vn 0.000000 1.000000 0.000000
vn 0.000000 1.000000 0.000000
vn 0.000000 1.000000 0.000000
vn 0.000000 1.000000 0.000000
vn 0.000000 1.000000 0.000000
vn 0.000000 1.000000 0.000000
vn 0.000000 1.000000 0.000000
vn 0.000000 1.000000 0.000000
vn 0.000000 1.000000 0.000000
vn 0.000000 1.000000 0.000000
vn 0.000000 1.000000 0.000000
vn 0.000000 1.000000 0.000000
vn 0.000000 1.000000 0.000000
vn 0.000000 1.000000 0.000000
vn 0.000000 1.000000 0.000000
vn 0.000000 1.000000 0.000000
vn 0.000000 1.000000 0.000000
vn 0.000000 1.000000 0.000000
vn 0.000000 1.000000 0.000000
vn 0.000000 1.000000 0.000000
vn 0.000000 1.000000 0.000000
vn 0.000000 1.000000 0.000000
vn 0.000000 1.000000 0.000000
vn 0.000000 1.000000 0.000000
vn 0.000000 1.000000 0.000000
vn 0.000000 1.000000 0.000000
vn 0.000000 1.000000 0.000000
vn 0.000000 1.000000 0.000000
vn 0.000000 1.000000 0.000000
vn 0.000000 1.000000 0.000000
vn 0.805913 0.087520 -0.585530
vn 0.996163 0.087520 0.000000
vn 0.996163 0.087520 0.000000
vn 0.805913 0.087520 -0.585530
vn 0.307831 0.087520 -0.947407
vn 0.805913 0.087520 -0.585530
vn 0.805913 0.087520 -0.585530
vn 0.307831 0.087520 -0.947407
vn -0.307831 0.087520 -0.947407
vn 0.307831 0.087520 -0.947407
vn 0.307831 0.087520 -0.947407
vn -0.307831 0.087520 -0.947407
vn -0.805913 0.087520 -0.585530
vn -0.307831 0.087520 -0.947407
vn -0.307831 0.087520 -0.947407
vn -0.805913 0.087520 -0.585530
vn -0.996163 0.087520 0.000000
vn -0.805913 0.087520 -0.585530
vn -0.805913 0.087520 -0.585530
vn -0.996163 0.087520 0.000000
vn -0.805913 0.087520 0.585530
vn -0.996163 0.087520 0.000000
vn -0.996163 0.087520 0.000000
vn -0.805913 0.087520 0.585530
vn -0.307831 0.087520 0.947407
vn -0.805913 0.087520 0.585530
vn -0.805913 0.087520 0.585530
vn -0.307831 0.087520 0.947407
vn 0.307831 0.087520 0.947407
vn -0.307831 0.087520 0.947407
vn -0.307831 0.087520 0.947407
vn 0.307831 0.087520 0.947407
vn 0.805913 0.087520 0.585530
vn 0.307831 0.087520 0.947407
vn 0.307831 0.087520 0.947407
vn 0.805913 0.087520 0.585530
vn 0.996163 0.087520 0.000000
vn 0.805913 0.087520 0.585530
vn 0.805913 0.087520 0.585530
vn 0.996163 0.087520 0.000000
s off
g pPipe1
usemtl phong1SG
f 1/1/1 2/2/2 3/3/3
f 1/1/4 3/3/5 4/4/6
f 1/1/7 4/4/8 5/5/9
f 1/1/10 5/5/11 6/6/12
f 1/1/13 6/6/14 7/7/15
f 1/1/16 7/7/17 8/8/18
f 1/1/19 8/8/20 9/9/21
f 1/1/22 9/9/23 10/10/24
f 1/1/25 10/10/26 11/11/27
f 1/1/28 11/11/29 2/12/30
f 3/3/31 2/2/32 12/13/33 13/14/34
f 4/4/35 3/3/36 13/14/37 14/15/38
f 5/5/39 4/4/40 14/15/41 15/16/42
f 6/6/43 5/5/44 15/16/45 16/17/46
f 7/7/47 6/6/48 16/17/49 17/18/50
f 8/8/51 7/7/52 17/18/53 18/19/54
f 9/9/55 8/8/56 18/19/57 19/20/58
f 10/10/59 9/9/60 19/20/61 20/21/62
f 11/11/63 10/10/64 20/21/65 21/22/66
f 2/12/67 11/11/68 21/22/69 12/23/70
