# This file uses meters as units for non-parametric coordinates.

mtllib modillon1.mtl
g default
v -0.140000 0.240000 0.000000
v -0.140000 0.240000 0.419817
v 0.140000 0.240000 0.419817
v 0.140000 0.240000 0.000000
v -0.140000 0.163056 0.420000
v 0.140000 0.163056 0.420000
v -0.140000 0.042837 0.212597
v 0.140000 0.042837 0.212597
v -0.140000 -0.188686 0.116555
v 0.140000 -0.188686 0.116555
v -0.140000 -0.189667 0.091936
v 0.140000 -0.189667 0.091936
v -0.140000 -0.215778 0.061984
v 0.140000 -0.215778 0.061984
v -0.140000 -0.240000 0.035509
v 0.140000 -0.240000 0.035509
v -0.140000 -0.240000 0.000000
v 0.140000 -0.240000 0.000000
vn 0.000000 1.000000 0.000000
vn 0.000000 1.000000 0.000000
vn 0.000000 1.000000 0.000000
vn 0.000000 1.000000 0.000000
vn 0.000000 1.000000 0.000000
vn 0.000000 1.000000 0.000000
vn 0.000000 0.002378 0.999997
vn 0.000000 0.002378 0.999997
vn 0.000000 0.002378 0.999997
vn 0.000000 0.002378 0.999997
vn 0.000000 0.002378 0.999997
vn 0.000000 0.002378 0.999997
vn 0.000000 -0.865166 0.501485
vn 0.000000 -0.865166 0.501485
vn 0.000000 -0.865166 0.501485
vn 0.000000 -0.865166 0.501485
vn 0.000000 -0.865166 0.501485
vn 0.000000 -0.865166 0.501485
vn 0.000000 -0.383167 0.923679
vn 0.000000 -0.383167 0.923679
vn 0.000000 -0.383167 0.923679
vn 0.000000 -0.383167 0.923679
vn 0.000000 -0.383167 0.923679
vn 0.000000 -0.383167 0.923679
vn 0.000000 -0.999207 0.039817
vn 0.000000 -0.999207 0.039817
vn 0.000000 -0.999207 0.039817
vn 0.000000 -0.999207 0.039816
vn 0.000000 -0.999207 0.039816
vn 0.000000 -0.999207 0.039816
vn 0.000000 -0.753788 0.657117
vn 0.000000 -0.753788 0.657117
vn 0.000000 -0.753788 0.657117
vn 0.000000 -0.753789 0.657117
vn 0.000000 -0.753789 0.657117
vn 0.000000 -0.753789 0.657117
vn 0.000000 -0.737799 0.675021
vn 0.000000 -0.737799 0.675021
vn 0.000000 -0.737799 0.675021
vn 0.000000 -0.737799 0.675021
vn 0.000000 -0.737799 0.675021
vn 0.000000 -0.737799 0.675021
vn 0.000000 -1.000000 0.000000
vn 0.000000 -1.000000 0.000000
vn 0.000000 -1.000000 0.000000
vn 0.000000 -1.000000 0.000000
vn 0.000000 -1.000000 0.000000
vn 0.000000 -1.000000 0.000000
vn -1.000000 0.000000 0.000000
vn -1.000000 0.000000 0.000000
vn -1.000000 0.000000 0.000000
vn -1.000000 0.000000 0.000000
vn -1.000000 0.000000 0.000000
vn -1.000000 0.000000 0.000000
vn -1.000000 0.000000 0.000000
vn -1.000000 0.000000 0.000000
vn -1.000000 0.000000 0.000000
vn -1.000000 0.000000 0.000000
vn -1.000000 0.000000 0.000000
vn -1.000000 0.000000 0.000000
vn -1.000000 0.000000 0.000000
vn -1.000000 0.000000 0.000000
vn -1.000000 0.000000 0.000000
vn -1.000000 0.000000 0.000000
vn -1.000000 0.000000 0.000000
vn -1.000000 0.000000 0.000000
vn -1.000000 0.000000 0.000000
vn -1.000000 0.000000 0.000000
vn -1.000000 0.000000 0.000000
vn 1.000000 0.000000 0.000000
vn 1.000000 0.000000 0.000000
vn 1.000000 0.000000 0.000000
vn 1.000000 -0.000000 0.000000
vn 1.000000 -0.000000 0.000000
vn 1.000000 -0.000000 0.000000
vn 1.000000 0.000000 0.000000
vn 1.000000 0.000000 0.000000
vn 1.000000 0.000000 0.000000
vn 1.000000 0.000000 0.000000
vn 1.000000 0.000000 0.000000
vn 1.000000 0.000000 0.000000
vn 1.000000 0.000000 0.000000
vn 1.000000 0.000000 0.000000
vn 1.000000 0.000000 0.000000
vn 1.000000 0.000000 0.000000
vn 1.000000 0.000000 0.000000
vn 1.000000 0.000000 0.000000
vn 1.000000 0.000000 0.000000
vn 1.000000 0.000000 0.000000
vn 1.000000 0.000000 0.000000
s off
g modillon1_2
usemtl Default
f 1//1 2//2 3//3
f 4//4 1//5 3//6
f 2//7 5//8 6//9
f 3//10 2//11 6//12
f 5//13 7//14 8//15
f 6//16 5//17 8//18
f 7//19 9//20 10//21
f 8//22 7//23 10//24
f 9//25 11//26 12//27
f 10//28 9//29 12//30
f 11//31 13//32 14//33
f 12//34 11//35 14//36
f 13//37 15//38 16//39
f 14//40 13//41 16//42
f 17//43 18//44 15//45
f 18//46 16//47 15//48
f 5//49 2//50 7//51
f 2//52 1//53 7//54
f 7//55 1//56 9//57
f 13//58 17//59 15//60
f 13//61 1//62 17//63
f 9//64 1//65 11//66
f 11//67 1//68 13//69
f 3//70 6//71 8//72
f 4//73 3//74 8//75
f 4//76 8//77 10//78
f 18//79 14//80 16//81
f 4//82 14//83 18//84
f 4//85 12//86 14//87
f 4//88 10//89 12//90
