# This file uses centimeters as units for non-parametric coordinates.

mtllib scifi_building.mtl
v 17.342400 34.684788 17.342392
v -17.342400 34.684788 17.342392
v -17.342400 -0.000179 17.342392
v 17.342400 -0.000179 17.342392
v 17.342400 21.296461 -17.342392
v 17.342400 -0.000179 -17.342392
v -17.342400 -0.000179 -17.342392
v -17.342400 21.296461 -17.342392
v 17.342400 34.684788 -3.954086
v -17.342400 34.684788 -3.954086
v 17.342400 44.396526 17.342392
v 17.342400 79.081314 17.342392
v -17.342400 79.081314 17.342392
v -17.342400 44.396526 17.342392
v 17.342400 57.784859 -17.342392
v -17.342400 57.784859 -17.342392
v -17.342400 79.081314 -17.342392
v 17.342400 79.081314 -17.342392
v 17.342400 44.396526 -3.954086
v -17.342400 44.396526 -3.954086
v -11.029747 53.321274 -12.878708
v -11.029747 48.860115 -8.417801
v 11.029762 53.321274 -12.878708
v 11.029762 48.860115 -8.417801
v 11.029762 25.760149 -12.878708
v 11.029762 30.221100 -8.417801
v -11.029747 25.760149 -12.878708
v -11.029747 30.221100 -8.417801
v -14.567604 57.663460 -14.567612
v 14.567604 57.663460 -14.567612
v 14.567604 22.111553 -14.567612
v -14.567604 22.111553 -14.567612
v 14.567604 57.663460 14.567642
v 14.567604 22.111553 14.567642
v -14.567604 57.663460 14.567642
v -14.567604 22.111553 14.567642
v -13.457695 79.081314 -13.457687
v 13.457695 79.081314 -13.457687
v -13.457695 79.081314 13.457718
v 13.457695 79.081314 13.457718
v -13.457695 82.549797 -13.457687
v 13.457695 82.549797 -13.457687
v -13.457695 82.549797 13.457718
v 13.457695 82.549797 13.457718
vt 0.987062 0.146862
vt 0.920395 0.146862
vt 0.920395 0.080195
vt 0.987062 0.080195
vt 0.869395 0.101733
vt 0.869395 0.060240
vt 0.936062 0.060240
vt 0.936062 0.101733
vt 0.967328 0.076862
vt 0.926395 0.076862
vt 0.926395 0.010195
vt 0.993062 0.010195
vt 0.993062 0.051128
vt 0.895128 0.174862
vt 0.869395 0.149128
vt 0.869395 0.108195
vt 0.936062 0.108195
vt 0.936062 0.174862
vt 0.951062 0.263388
vt 0.884395 0.263388
vt 0.884395 0.222698
vt 0.951062 0.222698
vt 0.652562 0.458695
vt 0.652562 0.525362
vt 0.585895 0.525362
vt 0.585895 0.458695
vt 0.651395 0.483824
vt 0.718062 0.483824
vt 0.718062 0.525316
vt 0.651395 0.525316
vt 0.627329 0.421195
vt 0.653062 0.446928
vt 0.653062 0.487862
vt 0.586395 0.487862
vt 0.586395 0.421195
vt 0.677128 0.422195
vt 0.718062 0.422195
vt 0.718062 0.488862
vt 0.651395 0.488862
vt 0.651395 0.447928
vt 0.885395 0.283888
vt 0.885395 0.234669
vt 0.952062 0.234669
vt 0.952062 0.283888
vt 0.929062 0.018739
vt 0.929062 0.044824
vt 0.916928 0.036127
vt 0.916928 0.027436
vt 0.929062 0.044824
vt 0.862395 0.044824
vt 0.874529 0.036127
vt 0.862395 0.044824
vt 0.862395 0.018739
vt 0.874529 0.027436
vt 0.862395 0.018739
vt 0.929062 0.018739
vt 0.885395 0.218818
vt 0.885395 0.192733
vt 0.897529 0.201429
vt 0.897529 0.210121
vt 0.885395 0.192733
vt 0.952062 0.192733
vt 0.939928 0.201429
vt 0.952062 0.192733
vt 0.952062 0.218818
vt 0.939928 0.210121
vt 0.951062 0.222698
vt 0.884395 0.222698
vt 0.896528 0.214169
vt 0.938928 0.214169
vt 0.640588 0.623888
vt 0.591369 0.623888
vt 0.591369 0.574669
vt 0.640588 0.574669
vt 0.991270 0.266071
vt 0.976687 0.276862
vt 0.976687 0.210195
vt 0.991270 0.220985
vt 0.306308 0.437557
vt 0.263909 0.437557
vt 0.263909 0.383860
vt 0.306308 0.383860
vt 0.973770 0.276862
vt 0.959187 0.266071
vt 0.959187 0.220985
vt 0.973770 0.210195
vt 0.324535 0.332047
vt 0.259499 0.332047
vt 0.259499 0.267010
vt 0.324535 0.267010
vt 0.256247 0.332047
vt 0.191210 0.332047
vt 0.191210 0.267010
vt 0.256247 0.267010
vt 0.187958 0.332047
vt 0.122922 0.332047
vt 0.122922 0.267010
vt 0.187958 0.267010
vt 0.254296 0.332047
vt 0.189259 0.332047
vt 0.189259 0.267010
vt 0.254296 0.267010
vt 0.152395 0.709695
vt 0.219062 0.709695
vt 0.211595 0.717162
vt 0.159862 0.717162
vt 0.219062 0.709695
vt 0.219062 0.776362
vt 0.211595 0.768895
vt 0.219062 0.776362
vt 0.152395 0.776362
vt 0.159862 0.768895
vt 0.152395 0.776362
vt 0.152395 0.709695
vt 0.726369 0.484987
vt 0.775588 0.484987
vt 0.775588 0.499570
vt 0.726369 0.499570
vt 0.725369 0.503487
vt 0.774588 0.503487
vt 0.774588 0.518070
vt 0.725369 0.518070
vt 0.727369 0.449987
vt 0.776588 0.449987
vt 0.776588 0.464570
vt 0.727369 0.464570
vt 0.726369 0.467487
vt 0.775588 0.467487
vt 0.775588 0.482070
vt 0.726369 0.482070
vt 0.211088 0.646669
vt 0.211088 0.695888
vt 0.161869 0.695888
vt 0.161869 0.646669
vn 0.000000 0.000000 1.000000
vn 0.000000 0.000000 1.000000
vn 0.000000 0.000000 1.000000
vn 0.000000 0.000000 1.000000
vn 0.000000 0.000000 -1.000000
vn 0.000000 0.000000 -1.000000
vn 0.000000 0.000000 -1.000000
vn 0.000000 0.000000 -1.000000
vn 1.000000 -0.000000 0.000000
vn 1.000000 -0.000000 0.000000
vn 1.000000 -0.000000 0.000000
vn 1.000000 -0.000000 0.000000
vn 1.000000 -0.000000 0.000000
vn -1.000000 0.000000 0.000000
vn -1.000000 0.000000 0.000000
vn -1.000000 0.000000 0.000000
vn -1.000000 0.000000 0.000000
vn -1.000000 0.000000 0.000000
vn 0.000000 1.000000 0.000000
vn 0.000000 1.000000 0.000000
vn 0.000000 1.000000 0.000000
vn 0.000000 1.000000 0.000000
vn 0.000000 0.000000 1.000000
vn 0.000000 0.000000 1.000000
vn 0.000000 0.000000 1.000000
vn 0.000000 0.000000 1.000000
vn 0.000000 0.000000 -1.000000
vn 0.000000 0.000000 -1.000000
vn 0.000000 0.000000 -1.000000
vn 0.000000 0.000000 -1.000000
vn 1.000000 0.000000 0.000000
vn 1.000000 0.000000 0.000000
vn 1.000000 0.000000 0.000000
vn 1.000000 0.000000 0.000000
vn 1.000000 0.000000 0.000000
vn -1.000000 0.000000 0.000000
vn -1.000000 0.000000 0.000000
vn -1.000000 0.000000 0.000000
vn -1.000000 0.000000 0.000000
vn -1.000000 0.000000 0.000000
vn 0.000000 -1.000000 0.000000
vn 0.000000 -1.000000 0.000000
vn 0.000000 -1.000000 0.000000
vn 0.000000 -1.000000 0.000000
vn -0.000002 -0.707101 -0.707113
vn -0.000002 -0.707101 -0.707113
vn -0.000002 -0.707101 -0.707113
vn -0.000002 -0.707101 -0.707113
vn 0.000000 -0.707114 -0.707099
vn 0.000000 -0.707114 -0.707099
vn 0.000000 -0.707114 -0.707099
vn 0.000000 -0.707114 -0.707099
vn 0.000000 -0.707102 -0.707112
vn 0.000000 -0.707102 -0.707112
vn 0.000000 -0.707102 -0.707112
vn 0.000000 -0.707102 -0.707112
vn 0.000000 -0.707117 -0.707097
vn 0.000000 -0.707117 -0.707097
vn 0.000000 -0.707117 -0.707097
vn 0.000000 -0.707117 -0.707097
vn 0.000002 0.707106 -0.707108
vn 0.000002 0.707106 -0.707108
vn 0.000002 0.707106 -0.707108
vn 0.000002 0.707106 -0.707108
vn 0.000000 0.707106 -0.707107
vn 0.000000 0.707106 -0.707107
vn 0.000000 0.707106 -0.707107
vn 0.000000 0.707106 -0.707107
vn 0.000002 0.707106 -0.707108
vn 0.000002 0.707106 -0.707108
vn 0.000002 0.707106 -0.707108
vn 0.000002 0.707106 -0.707108
vn 0.000000 0.707109 -0.707105
vn 0.000000 0.707109 -0.707105
vn 0.000000 0.707109 -0.707105
vn 0.000000 0.707109 -0.707105
vn 0.000000 0.000000 1.000000
vn 0.000000 0.000000 1.000000
vn 0.000000 0.000000 1.000000
vn 0.000000 0.000000 1.000000
vn -1.000000 0.000000 0.000000
vn -1.000000 0.000000 0.000000
vn -1.000000 0.000000 0.000000
vn -1.000000 0.000000 0.000000
vn 0.000000 0.000000 -1.000000
vn 0.000000 0.000000 -1.000000
vn 0.000000 0.000000 -1.000000
vn 0.000000 0.000000 -1.000000
vn 1.000000 0.000000 0.000000
vn 1.000000 0.000000 0.000000
vn 1.000000 0.000000 0.000000
vn 1.000000 0.000000 0.000000
vn 0.000000 0.000000 -1.000000
vn 0.000000 0.000000 -1.000000
vn 0.000000 0.000000 -1.000000
vn 0.000000 0.000000 -1.000000
vn 1.000000 0.000000 0.000000
vn 1.000000 0.000000 0.000000
vn 1.000000 0.000000 0.000000
vn 1.000000 0.000000 0.000000
vn 0.000000 0.000000 1.000000
vn 0.000000 0.000000 1.000000
vn 0.000000 0.000000 1.000000
vn 0.000000 0.000000 1.000000
vn -1.000000 0.000000 0.000000
vn -1.000000 0.000000 0.000000
vn -1.000000 0.000000 0.000000
vn -1.000000 0.000000 0.000000
vn 0.000000 1.000000 -0.000000
vn 0.000000 1.000000 -0.000000
vn 0.000000 1.000000 -0.000000
vn 0.000000 1.000000 -0.000000
vn 0.000000 1.000000 0.000000
vn 0.000000 1.000000 0.000000
vn 0.000000 1.000000 0.000000
vn 0.000000 1.000000 0.000000
vn 0.000000 1.000000 0.000000
vn 0.000000 1.000000 0.000000
vn 0.000000 1.000000 0.000000
vn 0.000000 1.000000 0.000000
vn 0.000000 1.000000 0.000000
vn 0.000000 1.000000 0.000000
vn 0.000000 1.000000 0.000000
vn 0.000000 1.000000 0.000000
vn 0.000000 0.000000 -1.000000
vn 0.000000 0.000000 -1.000000
vn 0.000000 0.000000 -1.000000
vn 0.000000 0.000000 -1.000000
vn -1.000000 0.000000 0.000000
vn -1.000000 0.000000 0.000000
vn -1.000000 0.000000 0.000000
vn -1.000000 0.000000 0.000000
vn 0.000000 0.000000 1.000000
vn 0.000000 0.000000 1.000000
vn 0.000000 0.000000 1.000000
vn 0.000000 0.000000 1.000000
vn 1.000000 0.000000 0.000000
vn 1.000000 0.000000 0.000000
vn 1.000000 0.000000 0.000000
vn 1.000000 0.000000 0.000000
vn 0.000000 1.000000 0.000000
vn 0.000000 1.000000 0.000000
vn 0.000000 1.000000 0.000000
vn 0.000000 1.000000 0.000000
g building_5
usemtl lambert2SG
f 1/1/1 2/2/2 3/3/3 4/4/4
f 5/5/5 6/6/6 7/7/7 8/8/8
f 9/9/9 1/10/10 4/11/11 6/12/12 5/13/13
f 10/14/14 8/15/15 7/16/16 3/17/17 2/18/18
f 2/19/19 1/20/20 9/21/21 10/22/22
f 11/23/23 12/24/24 13/25/25 14/26/26
f 15/27/27 16/28/28 17/29/29 18/30/30
f 19/31/31 15/32/32 18/33/33 12/34/34 11/35/35
f 20/36/36 14/37/37 13/38/38 17/39/39 16/40/40
f 14/41/41 20/42/42 19/43/43 11/44/44
f 20/45/45 16/46/46 21/47/47 22/48/48
f 16/49/49 15/50/50 23/51/51 21/47/52
f 15/52/53 19/53/54 24/54/55 23/51/56
f 19/55/57 20/56/58 22/48/59 24/54/60
f 9/57/61 5/58/62 25/59/63 26/60/64
f 5/61/65 8/62/66 27/63/67 25/59/68
f 8/64/69 10/65/70 28/66/71 27/63/72
f 10/67/73 9/68/74 26/69/75 28/70/76
f 24/71/77 22/72/78 28/73/79 26/74/80
f 22/75/81 21/76/82 27/77/83 28/78/84
f 21/79/85 23/80/86 25/81/87 27/82/88
f 23/83/89 24/84/90 26/85/91 25/86/92
f 29/87/93 30/88/94 31/89/95 32/90/96
f 30/91/97 33/92/98 34/93/99 31/94/100
f 33/95/101 35/96/102 36/97/103 34/98/104
f 35/99/105 29/100/106 32/101/107 36/102/108
f 18/103/109 17/104/110 37/105/111 38/106/112
f 17/107/113 13/108/114 39/109/115 37/105/116
f 13/110/117 12/111/118 40/112/119 39/109/120
f 12/113/121 18/114/122 38/106/123 40/112/124
f 38/115/125 37/116/126 41/117/127 42/118/128
f 37/119/129 39/120/130 43/121/131 41/122/132
f 39/123/133 40/124/134 44/125/135 43/126/136
f 40/127/137 38/128/138 42/129/139 44/130/140
f 41/131/141 43/132/142 44/133/143 42/134/144
