# This file uses centimeters as units for non-parametric coordinates.

mtllib scifi_building.mtl
v 21.395905 15.619010 21.395905
v -21.395905 15.619010 21.395905
v -21.395905 -0.000179 21.395905
v 21.395905 -0.000179 21.395905
v 21.395905 7.916484 -21.395905
v -21.395905 7.916484 -21.395905
v -21.395905 15.619010 -13.693390
v 21.395905 15.619010 -13.693390
v 21.395905 -0.000179 -21.395905
v -21.395905 -0.000179 -21.395905
vt 0.787059 0.450284
vt 0.717218 0.450284
vt 0.717218 0.424792
vt 0.787059 0.424792
vt 0.785725 0.437457
vt 0.717662 0.437457
vt 0.717662 0.420131
vt 0.785725 0.420131
vt 0.785725 0.450049
vt 0.717662 0.450049
vt 0.848882 0.423815
vt 0.779041 0.423815
vt 0.779041 0.436736
vt 0.791612 0.449308
vt 0.848882 0.449308
vt 0.848882 0.423815
vt 0.791612 0.449308
vt 0.848559 0.424251
vt 0.848559 0.449743
vt 0.791289 0.449743
vt 0.848559 0.424251
vt 0.791289 0.449743
vt 0.778718 0.437172
vt 0.778718 0.424251
vt 0.150157 0.643184
vt 0.150157 0.816616
vt 0.007943 0.816616
vt 0.007943 0.643184
vn 0.000000 0.000000 1.000000
vn 0.000000 0.000000 1.000000
vn 0.000000 0.000000 1.000000
vn 0.000000 0.000000 1.000000
vn 0.000000 0.707106 -0.707107
vn 0.000000 0.707106 -0.707107
vn 0.000000 0.707106 -0.707107
vn 0.000000 0.707106 -0.707107
vn 0.000000 0.000000 -1.000000
vn 0.000000 0.000000 -1.000000
vn 0.000000 0.000000 -1.000000
vn 0.000000 0.000000 -1.000000
vn 1.000000 0.000000 0.000000
vn 1.000000 0.000000 0.000000
vn 1.000000 0.000000 0.000000
vn 1.000000 0.000000 0.000000
vn 1.000000 0.000000 0.000000
vn 1.000000 0.000000 0.000000
vn 1.000000 0.000000 0.000000
vn -1.000000 0.000000 0.000000
vn -1.000000 0.000000 0.000000
vn -1.000000 0.000000 0.000000
vn -1.000000 0.000001 0.000000
vn -1.000000 0.000001 0.000000
vn -1.000000 0.000001 0.000000
vn -1.000000 0.000001 0.000000
vn 0.000000 1.000000 0.000000
vn 0.000000 1.000000 0.000000
vn 0.000000 1.000000 0.000000
vn 0.000000 1.000000 0.000000
g building_2
usemtl lambert2SG
f 1/1/1 2/2/2 3/3/3 4/4/4
f 5/5/5 6/6/6 7/7/7 8/8/8
f 5/5/9 9/9/10 10/10/11 6/6/12
f 4/11/13 9/12/14 5/13/15 8/14/16
f 1/15/17 4/16/18 8/17/19
f 3/18/20 2/19/21 7/20/22
f 3/21/23 7/22/24 6/23/25 10/24/26
f 2/25/27 1/26/28 8/27/29 7/28/30
