# This file uses centimeters as units for non-parametric coordinates.

mtllib scifi_building.mtl
v -24.778100 11.645706 -32.335419
v -24.778100 11.645706 5.079498
v 24.778100 11.645706 5.079498
v 24.778100 11.645706 -32.335419
v 24.778100 11.645706 32.335419
v 24.778100 21.804728 5.079498
v 24.778100 21.804728 32.335419
v -24.778100 21.804728 5.079498
v -24.778100 11.645706 32.335419
v -24.778100 21.804728 32.335419
v 24.778100 -0.003469 -32.335419
v -24.778100 -0.003469 -32.335419
v -24.778100 -0.003469 32.335419
v 24.778100 -0.003469 32.335419
vt 0.856788 0.684742
vt 0.980435 0.684742
vt 0.980435 0.848512
vt 0.856788 0.848512
vt 0.110028 0.597425
vt 0.067504 0.597425
vt 0.067504 0.581575
vt 0.110028 0.581575
vt 0.097506 0.530687
vt 0.030653 0.530687
vt 0.030653 0.516983
vt 0.097506 0.516983
vt 0.067504 0.552745
vt 0.110028 0.552745
vt 0.110028 0.568595
vt 0.067504 0.568595
vt 0.327272 0.580099
vt 0.394886 0.580099
vt 0.394886 0.593960
vt 0.327272 0.593960
vt 0.868439 0.995954
vt 0.868439 0.862716
vt 0.941720 0.862716
vt 0.941720 0.995954
vt 0.394296 0.548029
vt 0.394296 0.563641
vt 0.327862 0.563641
vt 0.327862 0.548029
vt 0.067504 0.552745
vt 0.110028 0.534575
vt 0.009130 0.552745
vt 0.009130 0.534575
vt 0.067504 0.552745
vt 0.009130 0.597425
vt 0.067504 0.597425
vt 0.110028 0.615595
vt 0.009130 0.615595
vt 0.067504 0.597425
vt 0.394886 0.580099
vt 0.327272 0.580099
vt 0.327272 0.564210
vt 0.394886 0.564210
vn 0.000000 1.000000 0.000000
vn 0.000000 1.000000 0.000000
vn 0.000000 1.000000 0.000000
vn 0.000000 1.000000 0.000000
vn 1.000000 0.000000 0.000000
vn 1.000000 0.000000 0.000000
vn 1.000000 0.000000 0.000000
vn 1.000000 0.000000 0.000000
vn 0.000000 0.000000 -1.000000
vn 0.000000 0.000000 -1.000000
vn 0.000000 0.000000 -1.000000
vn 0.000000 0.000000 -1.000000
vn -1.000000 0.000000 0.000000
vn -1.000000 0.000000 0.000000
vn -1.000000 0.000000 0.000000
vn -1.000000 0.000000 0.000000
vn 0.000000 0.000000 1.000000
vn 0.000000 0.000000 1.000000
vn 0.000000 0.000000 1.000000
vn 0.000000 0.000000 1.000000
vn 0.000000 1.000000 0.000000
vn 0.000000 1.000000 0.000000
vn 0.000000 1.000000 0.000000
vn 0.000000 1.000000 0.000000
vn 0.000000 0.000000 -1.000000
vn 0.000000 0.000000 -1.000000
vn 0.000000 0.000000 -1.000000
vn 0.000000 0.000000 -1.000000
vn -1.000000 0.000000 0.000000
vn -1.000000 0.000000 0.000000
vn -1.000000 0.000000 0.000000
vn -1.000000 0.000000 0.000000
vn -1.000000 0.000000 0.000000
vn -1.000000 0.000000 0.000000
vn -1.000000 0.000000 0.000000
vn 1.000000 0.000000 0.000000
vn 1.000000 0.000000 0.000000
vn 1.000000 0.000000 0.000000
vn 1.000000 0.000000 0.000000
vn 1.000000 0.000000 0.000000
vn 1.000000 0.000000 0.000000
vn 1.000000 0.000000 0.000000
vn 0.000000 0.000000 1.000000
vn 0.000000 0.000000 1.000000
vn 0.000000 0.000000 1.000000
vn 0.000000 0.000000 1.000000
g building_20
usemtl lambert2SG
f 1/1/1 2/2/2 3/3/3 4/4/4
f 5/5/5 3/6/6 6/7/7 7/8/8
f 3/9/9 2/10/10 8/11/11 6/12/12
f 2/13/13 9/14/14 10/15/15 8/16/16
f 9/17/17 5/18/18 7/19/19 10/20/20
f 6/21/21 8/22/22 10/23/23 7/24/24
f 4/25/25 11/26/26 12/27/27 1/28/28
f 2/29/29 13/30/30 9/14/31
f 1/31/32 12/32/33 13/30/34 2/33/35
f 4/34/36 3/35/37 14/36/38 11/37/39
f 3/38/40 5/5/41 14/36/42
f 5/39/43 9/40/44 13/41/45 14/42/46
