# This file uses centimeters as units for non-parametric coordinates.

mtllib scifi_building.mtl
v -20.738678 -0.000179 -5.556885
v -20.738678 64.410797 -5.556885
v -15.181747 64.410797 -15.181732
v -15.181747 -0.000179 -15.181732
v 15.181747 -0.000179 15.181763
v 20.738678 -0.000179 5.556946
v 20.738678 64.410797 5.556946
v 15.181747 64.410797 15.181763
v -5.556931 -0.000179 -20.738678
v -5.556931 64.410797 -20.738678
v 5.556931 -0.000179 20.738708
v 5.556931 64.410797 20.738708
v -5.556931 -0.000179 20.738708
v -5.556931 64.410797 20.738708
v -15.181747 -0.000179 15.181763
v -15.181747 64.410797 15.181763
v 15.181747 -0.000179 -15.181732
v 5.556931 -0.000179 -20.738678
v 5.556931 64.410797 -20.738678
v 15.181747 64.410797 -15.181732
v -20.738678 64.410797 5.556946
v -20.738678 -0.000179 5.556946
v 20.738678 -0.000179 -5.556885
v 20.738678 64.410797 -5.556885
v -7.190735 64.410797 26.836243
v -19.645508 64.410797 19.645538
v 7.190750 64.410797 26.836243
v 19.645508 64.410797 19.645538
v 26.836243 64.410797 7.190735
v 26.836243 64.410797 -7.190735
v 19.645508 64.410797 -19.645447
v 7.190750 64.410797 -26.836243
v -7.190735 64.410797 -26.836243
v -19.645508 64.410797 -19.645447
v -26.836243 64.410797 -7.190735
v -26.836243 64.410797 7.190735
v -19.645508 76.004745 -19.645447
v -7.190735 76.004745 -26.836243
v -26.836243 76.004745 -7.190735
v -26.836243 76.004745 7.190735
v -19.645508 76.004745 19.645538
v -7.190735 76.004745 26.836243
v 7.190750 76.004745 26.836243
v 19.645508 76.004745 19.645538
v 26.836243 76.004745 7.190735
v 26.836243 76.004745 -7.190735
v 19.645508 76.004745 -19.645447
v 7.190750 76.004745 -26.836243
v -14.678833 85.022263 -14.678772
v -5.372803 85.022263 -20.051636
v -20.051636 85.022263 -5.372803
v -20.051636 85.022263 5.372803
v -14.678833 85.022263 14.678833
v -5.372803 85.022263 20.051636
v 5.372803 85.022263 20.051636
v 14.678833 85.022263 14.678833
v 20.051651 85.022263 5.372803
v 20.051651 85.022263 -5.372803
v 14.678833 85.022263 -14.678772
v 5.372803 85.022263 -20.051636
v 11.346725 85.022263 -11.346741
v 15.499939 85.022263 -4.153168
v 4.153198 85.022263 -15.499939
v -4.153198 85.022263 -15.499939
v -11.346725 85.022263 -11.346741
v -15.499939 85.022263 -4.153168
v -15.499939 85.022263 4.153198
v -11.346725 85.022263 11.346741
v -4.153198 85.022263 15.499939
v 4.153198 85.022263 15.499939
v 11.346725 85.022263 11.346741
v 15.499939 85.022263 4.153198
v -10.003540 75.145935 -2.680420
v -7.323120 75.145935 -7.323120
v -10.003540 75.145935 2.680450
v -7.323120 75.145935 7.323120
v -2.680450 75.145935 10.003571
v 2.680450 75.145935 10.003571
v 7.323135 75.145935 7.323120
v 10.003555 75.145935 2.680450
v 10.003555 75.145935 -2.680420
v 7.323135 75.145935 -7.323120
v 2.680450 75.145935 -10.003571
v -2.680450 75.145935 -10.003571
vt 0.063856 0.168231
vt 0.063856 0.013269
vt 0.091352 0.013269
vt 0.091352 0.168231
vt 0.264838 0.168231
vt 0.237342 0.168231
vt 0.237342 0.013269
vt 0.264838 0.013269
vt 0.118849 0.168231
vt 0.118849 0.013269
vt 0.292334 0.168231
vt 0.292334 0.013269
vt 0.324085 0.168231
vt 0.324085 0.013269
vt 0.351581 0.168231
vt 0.351581 0.013269
vt 0.178095 0.168231
vt 0.150599 0.168231
vt 0.150599 0.013269
vt 0.178095 0.013269
vt 0.004610 0.168231
vt 0.004610 0.013269
vt 0.032106 0.013269
vt 0.032106 0.168231
vt 0.205592 0.168231
vt 0.205592 0.013269
vt 0.154652 0.657848
vt 0.175477 0.669872
vt 0.171942 0.683065
vt 0.144994 0.667506
vt 0.175477 0.669872
vt 0.199523 0.669872
vt 0.203058 0.683065
vt 0.199523 0.669872
vt 0.220348 0.657848
vt 0.230006 0.667506
vt 0.220348 0.657848
vt 0.232371 0.637023
vt 0.245565 0.640558
vt 0.232371 0.637023
vt 0.232371 0.612977
vt 0.245565 0.609442
vt 0.232371 0.612977
vt 0.220348 0.592152
vt 0.230006 0.582494
vt 0.220348 0.592152
vt 0.199523 0.580129
vt 0.203058 0.566935
vt 0.199523 0.580129
vt 0.175477 0.580129
vt 0.171942 0.566935
vt 0.175477 0.580129
vt 0.154652 0.592152
vt 0.144994 0.582494
vt 0.154652 0.592152
vt 0.142629 0.612977
vt 0.129435 0.609442
vt 0.142629 0.612977
vt 0.142629 0.637023
vt 0.129435 0.640558
vt 0.142629 0.637023
vt 0.154652 0.657848
vt 0.494688 0.394292
vt 0.511714 0.394292
vt 0.511714 0.416599
vt 0.494688 0.416599
vt 0.296857 0.394292
vt 0.313884 0.394292
vt 0.313884 0.416599
vt 0.296857 0.416599
vt 0.313884 0.394292
vt 0.333545 0.394292
vt 0.333545 0.416599
vt 0.333545 0.394292
vt 0.350571 0.394292
vt 0.350571 0.416599
vt 0.350571 0.394292
vt 0.367598 0.394292
vt 0.367598 0.416599
vt 0.367598 0.394292
vt 0.387259 0.394292
vt 0.387259 0.416599
vt 0.387259 0.394292
vt 0.404286 0.394292
vt 0.404286 0.416599
vt 0.404286 0.394292
vt 0.421313 0.394292
vt 0.421313 0.416599
vt 0.421313 0.394292
vt 0.440973 0.394292
vt 0.440973 0.416599
vt 0.440973 0.394292
vt 0.458000 0.394292
vt 0.458000 0.416599
vt 0.458000 0.394292
vt 0.475027 0.394292
vt 0.475027 0.416599
vt 0.475027 0.394292
vt 0.494688 0.394292
vt 0.831561 0.178843
vt 0.837619 0.197169
vt 0.825480 0.198018
vt 0.821472 0.185647
vt 0.837619 0.197169
vt 0.833702 0.216070
vt 0.822765 0.210734
vt 0.833702 0.216070
vt 0.820860 0.230480
vt 0.814055 0.220391
vt 0.820860 0.230480
vt 0.802532 0.236538
vt 0.801684 0.224398
vt 0.802532 0.236538
vt 0.783631 0.232620
vt 0.788966 0.221683
vt 0.783631 0.232620
vt 0.769221 0.219777
vt 0.779310 0.212973
vt 0.769221 0.219777
vt 0.763164 0.201449
vt 0.775303 0.200601
vt 0.763164 0.201449
vt 0.767082 0.182548
vt 0.778019 0.187884
vt 0.767082 0.182548
vt 0.779926 0.168140
vt 0.786729 0.178229
vt 0.779926 0.168140
vt 0.798253 0.162083
vt 0.799100 0.174223
vt 0.798253 0.162083
vt 0.817152 0.166001
vt 0.811817 0.176938
vt 0.817152 0.166001
vt 0.831561 0.178843
vt 0.799321 0.178959
vt 0.789289 0.182220
vt 0.809640 0.181150
vt 0.817481 0.188207
vt 0.820743 0.198239
vt 0.818553 0.208558
vt 0.811495 0.216400
vt 0.801463 0.219662
vt 0.791143 0.217471
vt 0.783301 0.210413
vt 0.780040 0.200381
vt 0.782231 0.190061
vt 0.808900 0.204069
vt 0.810140 0.199177
vt 0.805381 0.207686
vt 0.800525 0.209059
vt 0.795633 0.207819
vt 0.792016 0.204300
vt 0.790643 0.199444
vt 0.791883 0.194552
vt 0.795402 0.190935
vt 0.800258 0.189563
vt 0.805149 0.190802
vt 0.808767 0.194321
vn -0.866024 0.000000 -0.500002
vn -0.866024 0.000000 -0.500002
vn -0.866024 0.000000 -0.500002
vn -0.866024 0.000000 -0.500002
vn 0.866024 0.000000 0.500003
vn 0.866024 0.000000 0.500003
vn 0.866024 0.000000 0.500003
vn 0.866024 0.000000 0.500003
vn -0.500003 0.000000 -0.866024
vn -0.500003 0.000000 -0.866024
vn -0.500003 0.000000 -0.866024
vn -0.500003 0.000000 -0.866024
vn 0.500003 0.000000 0.866024
vn 0.500003 0.000000 0.866024
vn 0.500003 0.000000 0.866024
vn 0.500003 0.000000 0.866024
vn 0.000000 0.000000 1.000000
vn 0.000000 0.000000 1.000000
vn 0.000000 0.000000 1.000000
vn 0.000000 0.000000 1.000000
vn -0.500003 0.000000 0.866024
vn -0.500003 0.000000 0.866024
vn -0.500003 0.000000 0.866024
vn -0.500003 0.000000 0.866024
vn 0.500003 0.000000 -0.866024
vn 0.500003 0.000000 -0.866024
vn 0.500003 0.000000 -0.866024
vn 0.500003 0.000000 -0.866024
vn -0.866024 0.000000 0.500003
vn -0.866024 0.000000 0.500003
vn -0.866024 0.000000 0.500003
vn -0.866024 0.000000 0.500003
vn 0.866024 0.000000 -0.500002
vn 0.866024 0.000000 -0.500002
vn 0.866024 0.000000 -0.500002
vn 0.866024 0.000000 -0.500002
vn -1.000000 0.000000 0.000000
vn -1.000000 0.000000 0.000000
vn -1.000000 0.000000 0.000000
vn -1.000000 0.000000 0.000000
vn 0.000000 0.000000 -1.000000
vn 0.000000 0.000000 -1.000000
vn 0.000000 0.000000 -1.000000
vn 0.000000 0.000000 -1.000000
vn 1.000000 0.000000 0.000000
vn 1.000000 0.000000 0.000000
vn 1.000000 0.000000 0.000000
vn 1.000000 0.000000 0.000000
vn 0.000000 -1.000000 -0.000000
vn 0.000000 -1.000000 -0.000000
vn 0.000000 -1.000000 -0.000000
vn 0.000000 -1.000000 -0.000000
vn 0.000000 -1.000000 0.000000
vn 0.000000 -1.000000 0.000000
vn 0.000000 -1.000000 0.000000
vn 0.000000 -1.000000 0.000000
vn 0.000000 -1.000000 -0.000000
vn 0.000000 -1.000000 -0.000000
vn 0.000000 -1.000000 -0.000000
vn 0.000000 -1.000000 -0.000000
vn 0.000000 -1.000000 0.000000
vn 0.000000 -1.000000 0.000000
vn 0.000000 -1.000000 0.000000
vn 0.000000 -1.000000 0.000000
vn 0.000000 -1.000000 0.000000
vn 0.000000 -1.000000 0.000000
vn 0.000000 -1.000000 0.000000
vn 0.000000 -1.000000 0.000000
vn 0.000000 -1.000000 0.000000
vn 0.000000 -1.000000 0.000000
vn 0.000000 -1.000000 0.000000
vn 0.000000 -1.000000 0.000000
vn 0.000000 -1.000000 0.000000
vn 0.000000 -1.000000 0.000000
vn 0.000000 -1.000000 0.000000
vn 0.000000 -1.000000 0.000000
vn 0.000000 -1.000000 -0.000000
vn 0.000000 -1.000000 -0.000000
vn 0.000000 -1.000000 -0.000000
vn 0.000000 -1.000000 -0.000000
vn 0.000000 -1.000000 0.000000
vn 0.000000 -1.000000 0.000000
vn 0.000000 -1.000000 0.000000
vn 0.000000 -1.000000 0.000000
vn 0.000000 -1.000000 -0.000000
vn 0.000000 -1.000000 -0.000000
vn 0.000000 -1.000000 -0.000000
vn 0.000000 -1.000000 -0.000000
vn 0.000000 -1.000000 0.000000
vn 0.000000 -1.000000 0.000000
vn 0.000000 -1.000000 0.000000
vn 0.000000 -1.000000 0.000000
vn 0.000000 -1.000000 0.000000
vn 0.000000 -1.000000 0.000000
vn 0.000000 -1.000000 0.000000
vn 0.000000 -1.000000 0.000000
vn -0.500001 0.000000 -0.866025
vn -0.500001 0.000000 -0.866025
vn -0.500001 0.000000 -0.866025
vn -0.500001 0.000000 -0.866025
vn -0.866025 0.000000 -0.500001
vn -0.866025 0.000000 -0.500001
vn -0.866025 0.000000 -0.500001
vn -0.866025 0.000000 -0.500001
vn -1.000000 0.000000 0.000000
vn -1.000000 0.000000 0.000000
vn -1.000000 0.000000 0.000000
vn -1.000000 0.000000 0.000000
vn -0.866027 0.000000 0.499997
vn -0.866027 0.000000 0.499997
vn -0.866027 0.000000 0.499997
vn -0.866027 0.000000 0.499997
vn -0.499997 0.000000 0.866027
vn -0.499997 0.000000 0.866027
vn -0.499997 0.000000 0.866027
vn -0.499997 0.000000 0.866027
vn 0.000000 0.000000 1.000000
vn 0.000000 0.000000 1.000000
vn 0.000000 0.000000 1.000000
vn 0.000000 0.000000 1.000000
vn 0.499997 0.000000 0.866027
vn 0.499997 0.000000 0.866027
vn 0.499997 0.000000 0.866027
vn 0.499997 0.000000 0.866027
vn 0.866027 0.000000 0.499997
vn 0.866027 0.000000 0.499997
vn 0.866027 0.000000 0.499997
vn 0.866027 0.000000 0.499997
vn 1.000000 0.000000 0.000000
vn 1.000000 0.000000 0.000000
vn 1.000000 0.000000 0.000000
vn 1.000000 0.000000 0.000000
vn 0.866025 0.000000 -0.500001
vn 0.866025 0.000000 -0.500001
vn 0.866025 0.000000 -0.500001
vn 0.866025 0.000000 -0.500001
vn 0.500002 0.000000 -0.866024
vn 0.500002 0.000000 -0.866024
vn 0.500002 0.000000 -0.866024
vn 0.500002 0.000000 -0.866024
vn 0.000000 0.000000 -1.000000
vn 0.000000 0.000000 -1.000000
vn 0.000000 0.000000 -1.000000
vn 0.000000 0.000000 -1.000000
vn -0.399544 0.601217 -0.692028
vn -0.399544 0.601217 -0.692028
vn -0.399544 0.601217 -0.692028
vn -0.399544 0.601217 -0.692028
vn -0.692028 0.601218 -0.399543
vn -0.692028 0.601218 -0.399543
vn -0.692028 0.601218 -0.399543
vn -0.692028 0.601218 -0.399543
vn -0.799087 0.601216 0.000000
vn -0.799087 0.601216 0.000000
vn -0.799087 0.601216 0.000000
vn -0.799087 0.601216 0.000000
vn -0.692030 0.601218 0.399540
vn -0.692030 0.601218 0.399540
vn -0.692030 0.601218 0.399540
vn -0.692030 0.601218 0.399540
vn -0.399540 0.601218 0.692030
vn -0.399540 0.601218 0.692030
vn -0.399540 0.601218 0.692030
vn -0.399540 0.601218 0.692030
vn 0.000000 0.601218 0.799085
vn 0.000000 0.601218 0.799085
vn 0.000000 0.601218 0.799085
vn 0.000000 0.601218 0.799085
vn 0.399540 0.601218 0.692030
vn 0.399540 0.601218 0.692030
vn 0.399540 0.601218 0.692030
vn 0.399540 0.601218 0.692030
vn 0.692030 0.601216 0.399541
vn 0.692030 0.601216 0.399541
vn 0.692030 0.601216 0.399541
vn 0.692030 0.601216 0.399541
vn 0.799087 0.601216 0.000000
vn 0.799087 0.601216 0.000000
vn 0.799087 0.601216 0.000000
vn 0.799087 0.601216 0.000000
vn 0.692028 0.601217 -0.399544
vn 0.692028 0.601217 -0.399544
vn 0.692028 0.601217 -0.399544
vn 0.692028 0.601217 -0.399544
vn 0.399544 0.601217 -0.692028
vn 0.399544 0.601217 -0.692028
vn 0.399544 0.601217 -0.692028
vn 0.399544 0.601217 -0.692028
vn 0.000000 0.601218 -0.799085
vn 0.000000 0.601218 -0.799085
vn 0.000000 0.601218 -0.799085
vn 0.000000 0.601218 -0.799085
vn 0.000000 1.000000 -0.000001
vn 0.000000 1.000000 -0.000001
vn 0.000000 1.000000 -0.000001
vn 0.000000 1.000000 -0.000001
vn 0.000000 1.000000 -0.000001
vn 0.000000 1.000000 -0.000001
vn 0.000000 1.000000 -0.000001
vn 0.000000 1.000000 -0.000001
vn 0.000000 1.000000 -0.000001
vn 0.000000 1.000000 -0.000001
vn 0.000000 1.000000 -0.000001
vn 0.000000 1.000000 -0.000001
vn 0.000000 1.000000 -0.000001
vn 0.000000 1.000000 -0.000001
vn 0.000000 1.000000 -0.000001
vn 0.000000 1.000000 -0.000001
vn 0.000000 1.000000 0.000000
vn 0.000000 1.000000 0.000000
vn 0.000000 1.000000 0.000000
vn 0.000000 1.000000 0.000000
vn 0.000000 1.000000 0.000000
vn 0.000000 1.000000 0.000000
vn 0.000000 1.000000 0.000000
vn 0.000000 1.000000 0.000000
vn 0.000000 1.000000 0.000000
vn 0.000000 1.000000 0.000000
vn 0.000000 1.000000 0.000000
vn 0.000000 1.000000 0.000000
vn 0.000000 1.000000 0.000001
vn 0.000000 1.000000 0.000001
vn 0.000000 1.000000 0.000001
vn 0.000000 1.000000 0.000001
vn 0.000000 1.000000 0.000001
vn 0.000000 1.000000 0.000001
vn 0.000000 1.000000 0.000001
vn 0.000000 1.000000 0.000001
vn 0.000000 1.000000 0.000001
vn 0.000000 1.000000 0.000001
vn 0.000000 1.000000 0.000001
vn 0.000000 1.000000 0.000001
vn 0.000000 1.000000 0.000000
vn 0.000000 1.000000 0.000000
vn 0.000000 1.000000 0.000000
vn 0.000000 1.000000 0.000000
vn 0.000000 1.000000 0.000000
vn 0.000000 1.000000 0.000000
vn 0.000000 1.000000 0.000000
vn 0.000000 1.000000 0.000000
vn 0.756735 0.486286 0.436896
vn 0.756735 0.486286 0.436896
vn 0.756735 0.486286 0.436896
vn 0.756735 0.486286 0.436896
vn 0.873798 0.486288 0.000000
vn 0.873798 0.486288 0.000000
vn 0.873798 0.486288 0.000000
vn 0.873798 0.486288 0.000000
vn 0.756732 0.486287 -0.436900
vn 0.756732 0.486287 -0.436900
vn 0.756732 0.486287 -0.436900
vn 0.756732 0.486287 -0.436900
vn 0.436900 0.486285 -0.756733
vn 0.436900 0.486285 -0.756733
vn 0.436900 0.486285 -0.756733
vn 0.436900 0.486285 -0.756733
vn 0.000000 0.486286 -0.873800
vn 0.000000 0.486286 -0.873800
vn 0.000000 0.486286 -0.873800
vn 0.000000 0.486286 -0.873800
vn -0.436900 0.486285 -0.756733
vn -0.436900 0.486285 -0.756733
vn -0.436900 0.486285 -0.756733
vn -0.436900 0.486285 -0.756733
vn -0.756732 0.486287 -0.436900
vn -0.756732 0.486287 -0.436900
vn -0.756732 0.486287 -0.436900
vn -0.756732 0.486287 -0.436900
vn -0.873799 0.486288 0.000000
vn -0.873799 0.486288 0.000000
vn -0.873799 0.486288 0.000000
vn -0.873799 0.486288 0.000000
vn -0.756736 0.486284 0.436897
vn -0.756736 0.486284 0.436897
vn -0.756736 0.486284 0.436897
vn -0.756736 0.486284 0.436897
vn -0.436900 0.486286 0.756733
vn -0.436900 0.486286 0.756733
vn -0.436900 0.486286 0.756733
vn -0.436900 0.486286 0.756733
vn 0.000000 0.486286 0.873800
vn 0.000000 0.486286 0.873800
vn 0.000000 0.486286 0.873800
vn 0.000000 0.486286 0.873800
vn 0.436900 0.486285 0.756733
vn 0.436900 0.486285 0.756733
vn 0.436900 0.486285 0.756733
vn 0.436900 0.486285 0.756733
vn 0.000000 1.000000 0.000000
vn 0.000000 1.000000 0.000000
vn 0.000000 1.000000 0.000000
vn 0.000000 1.000000 0.000000
vn 0.000000 1.000000 0.000000
vn 0.000000 1.000000 0.000000
vn 0.000000 1.000000 0.000000
vn 0.000000 1.000000 0.000000
vn 0.000000 1.000000 0.000000
vn 0.000000 1.000000 0.000000
vn 0.000000 1.000000 0.000000
vn 0.000000 1.000000 0.000000
g building_4
usemtl lambert2SG
f 1/1/1 2/2/2 3/3/3 4/4/4
f 5/5/5 6/6/6 7/7/7 8/8/8
f 9/9/9 4/4/10 3/3/11 10/10/12
f 11/11/13 5/5/14 8/8/15 12/12/16
f 13/13/17 11/11/18 12/12/19 14/14/20
f 15/15/21 13/13/22 14/14/23 16/16/24
f 17/17/25 18/18/26 19/19/27 20/20/28
f 15/21/29 16/22/30 21/23/31 22/24/32
f 23/25/33 17/17/34 20/20/35 24/26/36
f 1/1/37 22/24/38 21/23/39 2/2/40
f 9/9/41 10/10/42 19/19/43 18/18/44
f 23/25/45 24/26/46 7/7/47 6/6/48
f 16/27/49 14/28/50 25/29/51 26/30/52
f 14/31/53 12/32/54 27/33/55 25/29/56
f 12/34/57 8/35/58 28/36/59 27/33/60
f 8/37/61 7/38/62 29/39/63 28/36/64
f 7/40/65 24/41/66 30/42/67 29/39/68
f 24/43/69 20/44/70 31/45/71 30/42/72
f 20/46/73 19/47/74 32/48/75 31/45/76
f 19/49/77 10/50/78 33/51/79 32/48/80
f 10/52/81 3/53/82 34/54/83 33/51/84
f 3/55/85 2/56/86 35/57/87 34/54/88
f 2/58/89 21/59/90 36/60/91 35/57/92
f 21/61/93 16/62/94 26/30/95 36/60/96
f 33/63/97 34/64/98 37/65/99 38/66/100
f 34/67/101 35/68/102 39/69/103 37/70/104
f 35/71/105 36/72/106 40/73/107 39/69/108
f 36/74/109 26/75/110 41/76/111 40/73/112
f 26/77/113 25/78/114 42/79/115 41/76/116
f 25/80/117 27/81/118 43/82/119 42/79/120
f 27/83/121 28/84/122 44/85/123 43/82/124
f 28/86/125 29/87/126 45/88/127 44/85/128
f 29/89/129 30/90/130 46/91/131 45/88/132
f 30/92/133 31/93/134 47/94/135 46/91/136
f 31/95/137 32/96/138 48/97/139 47/94/140
f 32/98/141 33/99/142 38/66/143 48/97/144
f 38/100/145 37/101/146 49/102/147 50/103/148
f 37/104/149 39/105/150 51/106/151 49/102/152
f 39/107/153 40/108/154 52/109/155 51/106/156
f 40/110/157 41/111/158 53/112/159 52/109/160
f 41/113/161 42/114/162 54/115/163 53/112/164
f 42/116/165 43/117/166 55/118/167 54/115/168
f 43/119/169 44/120/170 56/121/171 55/118/172
f 44/122/173 45/123/174 57/124/175 56/121/176
f 45/125/177 46/126/178 58/127/179 57/124/180
f 46/128/181 47/129/182 59/130/183 58/127/184
f 47/131/185 48/132/186 60/133/187 59/130/188
f 48/134/189 38/135/190 50/103/191 60/133/192
f 58/127/193 59/130/194 61/136/195 62/137/196
f 59/130/197 60/133/198 63/138/199 61/136/200
f 60/133/201 50/103/202 64/139/203 63/138/204
f 50/103/205 49/102/206 65/140/207 64/139/208
f 49/102/209 51/106/210 66/141/211 65/140/212
f 51/106/213 52/109/214 67/142/215 66/141/216
f 52/109/217 53/112/218 68/143/219 67/142/220
f 53/112/221 54/115/222 69/144/223 68/143/224
f 54/115/225 55/118/226 70/145/227 69/144/228
f 55/118/229 56/121/230 71/146/231 70/145/232
f 56/121/233 57/124/234 72/147/235 71/146/236
f 57/124/237 58/127/238 62/137/239 72/147/240
f 65/140/241 66/141/242 73/148/243 74/149/244
f 66/141/245 67/142/246 75/150/247 73/148/248
f 67/142/249 68/143/250 76/151/251 75/150/252
f 68/143/253 69/144/254 77/152/255 76/151/256
f 69/144/257 70/145/258 78/153/259 77/152/260
f 70/145/261 71/146/262 79/154/263 78/153/264
f 71/146/265 72/147/266 80/155/267 79/154/268
f 72/147/269 62/137/270 81/156/271 80/155/272
f 62/137/273 61/136/274 82/157/275 81/156/276
f 61/136/277 63/138/278 83/158/279 82/157/280
f 63/138/281 64/139/282 84/159/283 83/158/284
f 64/139/285 65/140/286 74/149/287 84/159/288
f 84/159/289 74/149/290 73/148/291 75/150/292 76/151/293 77/152/294 78/153/295 79/154/296 80/155/297 81/156/298 82/157/299 83/158/300
