# This file uses centimeters as units for non-parametric coordinates.

mtllib scifi_building.mtl
v 27.169319 11.941008 -27.169312
v 27.169319 18.099369 -27.169312
v 27.169319 18.099369 27.169312
v 27.169319 11.941008 27.169312
v 27.169319 36.212288 -27.169312
v 27.169319 42.370647 -27.169312
v 27.169319 42.370647 27.169312
v 27.169319 36.212288 27.169312
v -27.169319 -0.012373 27.169312
v -27.169319 18.099369 27.169312
v -27.169319 18.099369 -27.169312
v -27.169319 -0.012373 -27.169312
v -27.169319 36.212288 27.169312
v -27.169319 36.212288 -27.169312
v -27.169319 54.325150 27.169312
v -27.169319 54.325150 -27.169312
v 10.052635 -0.012373 27.169312
v 10.052635 -0.012373 -27.169312
v 10.052635 54.325150 -27.169312
v 10.052635 54.325150 27.169312
v 10.052635 18.099369 -27.169312
v 10.052635 36.212288 -27.169312
v 10.052635 18.099369 27.169312
v 10.052635 36.212288 27.169312
vt 0.718454 0.440887
vt 0.718454 0.432653
vt 0.791106 0.432653
vt 0.791106 0.440887
vt 0.718454 0.441387
vt 0.718454 0.433153
vt 0.791106 0.433153
vt 0.791106 0.441387
vt 0.116851 0.527949
vt 0.116851 0.546996
vt 0.059709 0.546996
vt 0.059709 0.527949
vt 0.116851 0.566044
vt 0.059709 0.566044
vt 0.116851 0.585091
vt 0.059709 0.585091
vt 0.398768 0.705514
vt 0.376604 0.705514
vt 0.376604 0.636526
vt 0.398768 0.636526
vt 0.944582 0.092120
vt 0.906769 0.092120
vt 0.906769 0.036920
vt 0.944582 0.036920
vt 0.399021 0.705876
vt 0.376539 0.705876
vt 0.376539 0.636361
vt 0.399021 0.636361
vt 0.896680 0.264822
vt 0.896680 0.227009
vt 0.951880 0.227009
vt 0.951880 0.264822
vt 0.102950 0.569704
vt 0.084949 0.582277
vt 0.084949 0.563228
vt 0.102949 0.563228
vt 0.084949 0.582277
vt 0.045805 0.582277
vt 0.045805 0.563229
vt 0.045805 0.563229
vt 0.045805 0.544181
vt 0.084948 0.544181
vt 0.102947 0.544181
vt 0.084948 0.525133
vt 0.102947 0.537705
vt 0.045805 0.544181
vt 0.045805 0.525133
vt 0.084948 0.525133
vt 0.096851 0.542996
vt 0.078851 0.542996
vt 0.078851 0.523949
vt 0.096851 0.536520
vt 0.039709 0.542996
vt 0.039709 0.523949
vt 0.078851 0.523949
vt 0.078851 0.562044
vt 0.039709 0.562044
vt 0.039709 0.542996
vt 0.096851 0.568520
vt 0.078851 0.581091
vt 0.096851 0.562044
vt 0.078851 0.581091
vt 0.039709 0.581091
vt 0.039709 0.562044
vt 0.920792 0.149324
vt 0.920792 0.209716
vt 0.901768 0.209716
vt 0.901768 0.149324
vt 0.716990 0.455757
vt 0.787570 0.455757
vt 0.787570 0.479283
vt 0.716990 0.479283
vt 0.950792 0.149324
vt 0.950792 0.209716
vt 0.931768 0.209716
vt 0.931768 0.149324
vn 1.000000 0.000000 0.000000
vn 1.000000 0.000000 0.000000
vn 1.000000 0.000000 0.000000
vn 1.000000 0.000000 0.000000
vn 1.000000 0.000000 0.000000
vn 1.000000 0.000000 0.000000
vn 1.000000 0.000000 0.000000
vn 1.000000 0.000000 0.000000
vn -1.000000 0.000000 0.000000
vn -1.000000 0.000000 0.000000
vn -1.000000 0.000000 0.000000
vn -1.000000 0.000000 0.000000
vn -1.000000 0.000000 0.000000
vn -1.000000 0.000000 0.000000
vn -1.000000 0.000000 0.000000
vn -1.000000 0.000000 0.000000
vn -1.000000 0.000000 0.000000
vn -1.000000 0.000000 0.000000
vn -1.000000 0.000000 0.000000
vn -1.000000 0.000000 0.000000
vn 0.572552 -0.819868 0.000000
vn 0.572552 -0.819868 0.000000
vn 0.572552 -0.819868 0.000000
vn 0.572552 -0.819868 0.000000
vn 0.000000 -1.000000 0.000000
vn 0.000000 -1.000000 0.000000
vn 0.000000 -1.000000 0.000000
vn 0.000000 -1.000000 0.000000
vn 0.572588 0.819843 0.000000
vn 0.572588 0.819843 0.000000
vn 0.572588 0.819843 0.000000
vn 0.572588 0.819843 0.000000
vn 0.000000 1.000000 0.000000
vn 0.000000 1.000000 0.000000
vn 0.000000 1.000000 0.000000
vn 0.000000 1.000000 0.000000
vn 0.000000 0.000000 -1.000000
vn 0.000000 0.000000 -1.000000
vn 0.000000 0.000000 -1.000000
vn 0.000000 0.000000 -1.000000
vn 0.000000 0.000000 -1.000000
vn 0.000000 0.000000 -1.000000
vn 0.000000 0.000000 -1.000000
vn 0.000000 0.000000 -1.000000
vn 0.000000 0.000000 -1.000000
vn 0.000000 0.000000 -1.000000
vn 0.000000 0.000000 -1.000000
vn 0.000000 0.000000 -1.000000
vn 0.000002 0.000000 -1.000000
vn 0.000002 0.000000 -1.000000
vn 0.000002 0.000000 -1.000000
vn 0.000002 0.000000 -1.000000
vn 0.000000 0.000000 -1.000000
vn 0.000000 0.000000 -1.000000
vn 0.000000 0.000000 -1.000000
vn 0.000000 0.000000 -1.000000
vn -0.000005 0.000000 1.000000
vn -0.000005 0.000000 1.000000
vn -0.000005 0.000000 1.000000
vn -0.000005 0.000000 1.000000
vn 0.000000 0.000000 1.000000
vn 0.000000 0.000000 1.000000
vn 0.000000 0.000000 1.000000
vn 0.000000 0.000000 1.000000
vn 0.000000 0.000000 1.000000
vn 0.000000 0.000000 1.000000
vn 0.000000 0.000000 1.000000
vn 0.000000 0.000000 1.000000
vn 0.000000 0.000000 1.000000
vn 0.000000 0.000000 1.000000
vn 0.000000 0.000000 1.000000
vn 0.000000 0.000000 1.000000
vn 0.000000 0.000000 1.000000
vn 0.000000 0.000000 1.000000
vn 0.000000 0.000000 1.000000
vn 0.000000 0.000000 1.000000
vn 0.000000 -1.000000 0.000000
vn 0.000000 -1.000000 0.000000
vn 0.000000 -1.000000 0.000000
vn 0.000000 -1.000000 0.000000
vn 1.000000 0.000000 0.000000
vn 1.000000 0.000000 0.000000
vn 1.000000 0.000000 0.000000
vn 1.000000 0.000000 0.000000
vn 0.000000 1.000000 0.000000
vn 0.000000 1.000000 0.000000
vn 0.000000 1.000000 0.000000
vn 0.000000 1.000000 0.000000
g building_13
usemtl lambert2SG
f 1/1/1 2/2/2 3/3/3 4/4/4
f 5/5/5 6/6/6 7/7/7 8/8/8
f 9/9/9 10/10/10 11/11/11 12/12/12
f 10/10/13 13/13/14 14/14/15 11/11/16
f 13/13/17 15/15/18 16/16/19 14/14/20
f 4/17/21 17/18/22 18/19/23 1/20/24
f 17/21/25 9/22/26 12/23/27 18/24/28
f 6/25/29 19/26/30 20/27/31 7/28/32
f 19/29/33 16/30/34 15/31/35 20/32/36
f 1/33/37 18/34/38 21/35/39 2/36/40
f 18/37/41 12/38/42 11/39/43 21/35/44
f 21/35/45 11/40/46 14/41/47 22/42/48
f 5/43/49 22/42/50 19/44/51 6/45/52
f 22/42/53 14/46/54 16/47/55 19/48/56
f 3/49/57 23/50/58 17/51/59 4/52/60
f 23/50/61 10/53/62 9/54/63 17/55/64
f 24/56/65 13/57/66 10/58/67 23/50/68
f 7/59/69 20/60/70 24/56/71 8/61/72
f 20/62/73 15/63/74 13/64/75 24/56/76
f 5/65/77 8/66/78 24/67/79 22/68/80
f 22/69/81 24/70/82 23/71/83 21/72/84
f 21/73/85 23/74/86 3/75/87 2/76/88
