# This file uses centimeters as units for non-parametric coordinates.

mtllib scifi_building.mtl
v -19.667404 -0.000137 -19.470718
v 19.667404 -0.000137 -19.470718
v 19.667404 -0.000137 19.470718
v -19.667404 -0.000137 19.470718
v -19.667404 39.352730 -19.470718
v 19.667404 39.352730 -19.470718
v 19.667404 39.352730 19.470718
v -19.667404 39.352730 19.470718
vt 0.878213 0.101453
vt 0.982347 0.101453
vt 0.982347 0.205587
vt 0.878213 0.205587
vt 0.781126 0.429174
vt 0.781126 0.486866
vt 0.723434 0.486866
vt 0.723434 0.429174
vt 0.991972 0.288828
vt 0.991972 0.419212
vt 0.861588 0.419212
vt 0.861588 0.288828
vt 0.781126 0.486366
vt 0.781126 0.428674
vt 0.723434 0.428674
vt 0.723434 0.486366
vt 0.646126 0.486366
vt 0.588434 0.486366
vt 0.588434 0.428674
vt 0.646126 0.428674
vt 0.227030 0.781770
vt 0.294530 0.781770
vt 0.294530 0.849270
vt 0.227030 0.849270
vn 0.000000 -1.000000 0.000000
vn 0.000000 -1.000000 0.000000
vn 0.000000 -1.000000 0.000000
vn 0.000000 -1.000000 0.000000
vn 0.000000 0.000000 -1.000000
vn 0.000000 0.000000 -1.000000
vn 0.000000 0.000000 -1.000000
vn 0.000000 0.000000 -1.000000
vn 1.000000 0.000000 0.000000
vn 1.000000 0.000000 0.000000
vn 1.000000 0.000000 0.000000
vn 1.000000 0.000000 0.000000
vn 0.000000 0.000000 1.000000
vn 0.000000 0.000000 1.000000
vn 0.000000 0.000000 1.000000
vn 0.000000 0.000000 1.000000
vn -1.000000 0.000000 0.000000
vn -1.000000 0.000000 0.000000
vn -1.000000 0.000000 0.000000
vn -1.000000 0.000000 0.000000
vn 0.000000 1.000000 0.000000
vn 0.000000 1.000000 0.000000
vn 0.000000 1.000000 0.000000
vn 0.000000 1.000000 0.000000
g building_7
usemtl lambert2SG
f 1/1/1 2/2/2 3/3/3 4/4/4
f 5/5/5 6/6/6 2/7/7 1/8/8
f 6/9/9 7/10/10 3/11/11 2/12/12
f 7/13/13 8/14/14 4/15/15 3/16/16
f 8/17/17 5/18/18 1/19/19 4/20/20
f 5/21/21 8/22/22 7/23/23 6/24/24
