# This file uses centimeters as units for non-parametric coordinates.

mtllib scifi_building.mtl
v -21.509849 21.702414 -12.614502
v -21.509849 73.374832 -12.614502
v -12.593979 73.374832 -12.614502
v -12.593979 21.702414 -12.614502
v -4.872604 21.702414 -8.156494
v -4.872604 73.374832 -8.156494
v -29.231224 21.702414 -8.156494
v -29.231224 73.374832 -8.156494
v -0.414665 73.374832 22.260010
v -33.689140 73.374832 22.260010
v -33.689140 26.352932 22.260010
v -0.414665 26.352932 22.260010
v -33.689140 73.374832 8.480713
v -33.689140 21.702414 8.480713
v -0.414665 21.702414 8.480713
v -0.414665 73.374832 8.480713
v -33.689140 73.374832 -0.435181
v -33.689140 21.702414 -0.435181
v -0.414665 73.374832 -0.435181
v -0.414665 21.702414 -0.435181
v -21.509849 17.913105 -33.111206
v -12.593979 17.913105 -33.111206
v -12.593979 -0.012372 -33.111206
v -21.509849 -0.012372 -33.111206
v -4.872604 17.913105 -28.653259
v -4.872604 -0.012372 -28.653259
v -29.231224 -0.012372 -28.653259
v -29.231224 17.913105 -28.653259
v -0.414665 -0.012372 33.111206
v -0.414665 17.913105 33.111206
v -33.689140 17.913105 33.111206
v -33.689140 -0.012372 33.111206
v -33.689140 17.913105 8.480713
v -33.689140 -0.012372 8.480713
v -33.689140 -0.012372 -20.931885
v -33.689140 17.913105 -20.931885
v -0.414665 -0.012372 -20.931885
v -0.414665 17.913105 -20.931885
v -0.414665 17.913105 8.480713
v -0.414665 -0.012372 8.480713
v 11.470002 7.750863 33.111206
v 11.470002 7.750863 8.480713
v 11.470002 -0.012372 33.111206
v 11.470002 -0.012372 8.480713
v 33.689140 7.750863 33.111206
v 33.689140 7.750863 8.480713
v 33.689140 -0.012372 33.111206
v 33.689140 -0.012372 8.480713
v 11.470002 7.750863 -12.532776
v 11.470002 -0.012372 -12.532776
v 33.689140 7.750863 -12.532776
v 33.689140 -0.012372 -12.532776
v -27.756633 73.374832 12.538757
v -30.247551 73.374832 4.773010
v -21.176910 73.374832 17.357239
v -13.021518 73.374832 17.387939
v -6.405620 73.374832 12.619263
v -3.856243 73.374832 4.872498
v -6.347168 73.374832 -2.893188
v -12.926925 73.374832 -7.711670
v -21.082279 73.374832 -7.742371
v -27.698173 73.374832 -2.973633
v -27.698173 70.446732 -2.973633
v -21.082279 70.446732 -7.742371
v -30.247551 70.446732 4.773010
v -27.756633 70.446732 12.538757
v -21.176910 70.446732 17.357239
v -13.021518 70.446732 17.387939
v -6.405620 70.446732 12.619263
v -3.856243 70.446732 4.872498
v -6.347168 70.446732 -2.893188
v -12.926925 70.446732 -7.711670
v -17.051899 70.446732 4.822815
vt 0.664523 0.423048
vt 0.664520 0.523602
vt 0.647170 0.523601
vt 0.647173 0.423048
vt 0.629823 0.423047
vt 0.629820 0.523601
vt 0.681873 0.423049
vt 0.681871 0.523602
vt 0.823265 0.532155
vt 0.748867 0.532209
vt 0.748790 0.444074
vt 0.823188 0.444019
vt 0.718058 0.532232
vt 0.717974 0.433698
vt 0.853989 0.433599
vt 0.854074 0.532132
vt 0.699220 0.523603
vt 0.699223 0.423049
vt 0.716573 0.423050
vt 0.716571 0.523603
vt 0.612470 0.523600
vt 0.595120 0.523600
vt 0.595123 0.423046
vt 0.612473 0.423047
vt 0.350969 0.648114
vt 0.350969 0.631403
vt 0.413337 0.631402
vt 0.413337 0.648114
vt 0.404981 0.616930
vt 0.359325 0.616930
vt 0.373797 0.608574
vt 0.390509 0.608574
vt 0.350969 0.631403
vt 0.359325 0.616930
vt 0.404981 0.616930
vt 0.413337 0.631402
vt 0.740401 0.428196
vt 0.758772 0.428196
vt 0.758344 0.464784
vt 0.739974 0.464784
vt 0.777142 0.428196
vt 0.776714 0.464784
vt 0.721604 0.464784
vt 0.722031 0.428196
vt 0.786107 0.430363
vt 0.786107 0.463740
vt 0.724108 0.463740
vt 0.724108 0.430363
vt 0.591885 0.464784
vt 0.592312 0.428196
vt 0.643060 0.428196
vt 0.642633 0.464784
vt 0.703233 0.464784
vt 0.703661 0.428196
vt 0.795085 0.464784
vt 0.795512 0.428196
vt 0.856114 0.428196
vt 0.855687 0.464784
vt 0.858467 0.553838
vt 0.858467 0.452259
vt 0.948257 0.452259
vt 0.948257 0.553838
vt 0.971829 0.465868
vt 0.985438 0.489440
vt 0.985438 0.516658
vt 0.971829 0.540229
vt 0.948257 0.553838
vt 0.948257 0.452259
vt 0.971829 0.465868
vt 0.971829 0.540229
vt 0.717974 0.433698
vt 0.717968 0.425226
vt 0.773038 0.425185
vt 0.025755 0.609992
vt 0.084840 0.609992
vt 0.084840 0.616720
vt 0.025755 0.616720
vt 0.853989 0.433599
vt 0.798912 0.425166
vt 0.853983 0.425126
vt 0.944270 0.136016
vt 0.944270 0.195940
vt 0.919513 0.195940
vt 0.919513 0.136016
vt 0.912707 0.246813
vt 0.912707 0.204896
vt 0.939319 0.204896
vt 0.939319 0.246814
vt 0.808252 0.430364
vt 0.808251 0.444806
vt 0.877570 0.762025
vt 0.910669 0.762025
vt 0.891892 0.783985
vt 0.877570 0.783985
vt 0.925978 0.345628
vt 0.925978 0.412906
vt 0.865286 0.412906
vt 0.865286 0.345628
vt 0.808251 0.444806
vt 0.849652 0.430366
vt 0.849651 0.444808
vt 0.688390 0.443023
vt 0.688390 0.456705
vt 0.644910 0.456705
vt 0.644910 0.443023
vt 0.707204 0.486142
vt 0.707204 0.502313
vt 0.663364 0.502313
vt 0.663364 0.486142
vt 0.925978 0.345628
vt 0.865286 0.288229
vt 0.925978 0.288229
vt 0.644910 0.443023
vt 0.607815 0.456705
vt 0.607815 0.443023
vt 0.605224 0.512105
vt 0.605224 0.496714
vt 0.649344 0.496714
vt 0.649344 0.512105
vt 0.949279 0.992586
vt 0.918930 0.992512
vt 0.905137 0.972335
vt 0.931565 0.980827
vt 0.918930 0.992512
vt 0.872090 0.992488
vt 0.888758 0.949958
vt 0.872090 0.992488
vt 0.872090 0.879397
vt 0.888651 0.922241
vt 0.872090 0.879397
vt 0.918919 0.879390
vt 0.904856 0.899754
vt 0.918919 0.879390
vt 0.949249 0.879370
vt 0.931194 0.891091
vt 0.949249 0.879370
vt 0.975545 0.894521
vt 0.957632 0.899556
vt 0.975545 0.894521
vt 0.990745 0.920793
vt 0.974056 0.921940
vt 0.990745 0.920793
vt 0.990765 0.951145
vt 0.974182 0.949695
vt 0.990765 0.951145
vt 0.975588 0.977431
vt 0.957950 0.972201
vt 0.975588 0.977431
vt 0.949279 0.992586
vt 0.869171 0.095530
vt 0.869172 0.070500
vt 0.878159 0.070501
vt 0.878158 0.095530
vt 0.869172 0.070500
vt 0.869174 0.045470
vt 0.878161 0.045471
vt 0.869174 0.045470
vt 0.869177 0.020438
vt 0.878164 0.020439
vt 0.869170 0.270749
vt 0.869171 0.245719
vt 0.878158 0.245719
vt 0.878156 0.270749
vt 0.869171 0.245719
vt 0.869171 0.220688
vt 0.878159 0.220688
vt 0.869171 0.220688
vt 0.869170 0.195655
vt 0.878158 0.195655
vt 0.869170 0.195655
vt 0.869170 0.170622
vt 0.878158 0.170622
vt 0.869170 0.170622
vt 0.869170 0.145591
vt 0.878157 0.145591
vt 0.869170 0.145591
vt 0.869170 0.120560
vt 0.878157 0.120561
vt 0.869170 0.120560
vt 0.869171 0.095530
vt 0.925304 0.684080
vt 0.899401 0.675913
vt 0.924921 0.640137
vt 0.899401 0.675913
vt 0.883247 0.654081
vt 0.883247 0.654081
vt 0.883010 0.626922
vt 0.883010 0.626922
vt 0.898781 0.604812
vt 0.898781 0.604812
vt 0.924537 0.596194
vt 0.924537 0.596194
vt 0.950439 0.604361
vt 0.950439 0.604361
vt 0.966594 0.626193
vt 0.966594 0.626193
vt 0.966831 0.653351
vt 0.966831 0.653351
vt 0.951059 0.675462
vt 0.951059 0.675462
vt 0.925304 0.684080
vn 0.000000 0.000000 -1.000000
vn 0.000000 0.000000 -1.000000
vn 0.000000 0.000000 -1.000000
vn 0.000000 0.000000 -1.000000
vn 0.500011 0.000000 -0.866019
vn 0.500011 0.000000 -0.866019
vn 0.500011 0.000000 -0.866019
vn 0.500011 0.000000 -0.866019
vn -0.500011 0.000000 -0.866019
vn -0.500011 0.000000 -0.866019
vn -0.500011 0.000000 -0.866019
vn -0.500011 0.000000 -0.866019
vn 0.000000 0.000000 1.000000
vn 0.000000 0.000000 1.000000
vn 0.000000 0.000000 1.000000
vn 0.000000 0.000000 1.000000
vn -1.000000 0.000000 0.000000
vn -1.000000 0.000000 0.000000
vn -1.000000 0.000000 0.000000
vn -1.000000 0.000000 0.000000
vn 1.000000 0.000000 0.000000
vn 1.000000 0.000000 0.000000
vn 1.000000 0.000000 0.000000
vn 1.000000 0.000000 0.000000
vn -1.000000 0.000000 0.000000
vn -1.000000 0.000000 0.000000
vn -1.000000 0.000000 0.000000
vn -1.000000 0.000000 0.000000
vn 1.000000 0.000000 0.000000
vn 1.000000 0.000000 0.000000
vn 1.000000 0.000000 0.000000
vn 1.000000 0.000000 0.000000
vn 0.000000 -1.000000 0.000000
vn 0.000000 -1.000000 0.000000
vn 0.000000 -1.000000 0.000000
vn 0.000000 -1.000000 0.000000
vn 0.866022 0.000000 -0.500005
vn 0.866022 0.000000 -0.500005
vn 0.866022 0.000000 -0.500005
vn 0.866022 0.000000 -0.500005
vn -0.866023 0.000000 -0.500003
vn -0.866023 0.000000 -0.500003
vn -0.866023 0.000000 -0.500003
vn -0.866023 0.000000 -0.500003
vn 0.000000 -1.000000 -0.000000
vn 0.000000 -1.000000 -0.000000
vn 0.000000 -1.000000 -0.000000
vn 0.000000 -1.000000 -0.000000
vn 0.000000 -1.000000 0.000000
vn 0.000000 -1.000000 0.000000
vn 0.000000 -1.000000 0.000000
vn 0.000000 -1.000000 0.000000
vn 0.000000 0.000000 -1.000000
vn 0.000000 0.000000 -1.000000
vn 0.000000 0.000000 -1.000000
vn 0.000000 0.000000 -1.000000
vn 0.499998 0.000000 -0.866027
vn 0.499998 0.000000 -0.866027
vn 0.499998 0.000000 -0.866027
vn 0.499998 0.000000 -0.866027
vn -0.499998 0.000000 -0.866027
vn -0.499998 0.000000 -0.866027
vn -0.499998 0.000000 -0.866027
vn -0.499998 0.000000 -0.866027
vn 0.000000 0.000000 1.000000
vn 0.000000 0.000000 1.000000
vn 0.000000 0.000000 1.000000
vn 0.000000 0.000000 1.000000
vn -1.000000 0.000000 0.000000
vn -1.000000 0.000000 0.000000
vn -1.000000 0.000000 0.000000
vn -1.000000 0.000000 0.000000
vn -1.000000 0.000000 0.000000
vn -1.000000 0.000000 0.000000
vn -1.000000 0.000000 0.000000
vn -1.000000 0.000000 0.000000
vn 1.000000 0.000000 0.000000
vn 1.000000 0.000000 0.000000
vn 1.000000 0.000000 0.000000
vn 1.000000 0.000000 0.000000
vn 0.000000 1.000000 0.000000
vn 0.000000 1.000000 0.000000
vn 0.000000 1.000000 0.000000
vn 0.000000 1.000000 0.000000
vn 0.866027 0.000000 -0.499998
vn 0.866027 0.000000 -0.499998
vn 0.866027 0.000000 -0.499998
vn 0.866027 0.000000 -0.499998
vn -0.866028 0.000000 -0.499996
vn -0.866028 0.000000 -0.499996
vn -0.866028 0.000000 -0.499996
vn -0.866028 0.000000 -0.499996
vn 0.000000 1.000000 0.000000
vn 0.000000 1.000000 0.000000
vn 0.000000 1.000000 0.000000
vn 0.000000 1.000000 0.000000
vn 0.000000 1.000000 -0.000000
vn 0.000000 1.000000 -0.000000
vn 0.000000 1.000000 -0.000000
vn 0.000000 1.000000 -0.000000
vn -1.000000 -0.000000 0.000000
vn -1.000000 -0.000000 0.000000
vn -1.000000 -0.000000 0.000000
vn -1.000000 -0.000000 0.000000
vn 0.000000 0.000000 -1.000000
vn 0.000000 0.000000 -1.000000
vn 0.000000 0.000000 -1.000000
vn 0.000000 0.000000 -1.000000
vn 1.000000 0.000000 0.000000
vn 1.000000 0.000000 0.000000
vn 1.000000 0.000000 0.000000
vn 1.000000 0.000000 0.000000
vn 0.000000 0.789352 0.613941
vn 0.000000 0.789352 0.613941
vn 0.000000 0.789352 0.613941
vn 0.000000 0.789352 0.613941
vn 0.649885 0.760033 0.000000
vn 0.649885 0.760033 0.000000
vn 0.649885 0.760033 0.000000
vn 0.649885 0.760033 0.000000
vn -0.000006 0.000000 1.000000
vn -0.000006 0.000000 1.000000
vn -0.000006 0.000000 1.000000
vn -0.000006 0.000000 1.000000
vn 0.000003 0.000000 -1.000000
vn 0.000003 0.000000 -1.000000
vn 0.000003 0.000000 -1.000000
vn 0.000003 0.000000 -1.000000
vn 0.000000 1.000000 0.000000
vn 0.000000 1.000000 0.000000
vn 0.000000 1.000000 0.000000
vn 0.000000 1.000000 0.000000
vn 0.000000 0.000000 1.000000
vn 0.000000 0.000000 1.000000
vn 0.000000 0.000000 1.000000
vn 0.000000 0.000000 1.000000
vn 1.000000 0.000000 0.000000
vn 1.000000 0.000000 0.000000
vn 1.000000 0.000000 0.000000
vn 1.000000 0.000000 0.000000
vn -1.000000 0.000000 0.000000
vn -1.000000 0.000000 0.000000
vn -1.000000 0.000000 0.000000
vn -1.000000 0.000000 0.000000
vn 0.000000 1.000000 0.000000
vn 0.000000 1.000000 0.000000
vn 0.000000 1.000000 0.000000
vn 0.000000 1.000000 0.000000
vn 1.000000 0.000000 0.000000
vn 1.000000 0.000000 0.000000
vn 1.000000 0.000000 0.000000
vn 1.000000 0.000000 0.000000
vn 0.000000 0.000000 -1.000000
vn 0.000000 0.000000 -1.000000
vn 0.000000 0.000000 -1.000000
vn 0.000000 0.000000 -1.000000
vn 0.000000 1.000000 0.000000
vn 0.000000 1.000000 0.000000
vn 0.000000 1.000000 0.000000
vn 0.000000 1.000000 0.000000
vn 0.000000 1.000000 0.000000
vn 0.000000 1.000000 0.000000
vn 0.000000 1.000000 0.000000
vn 0.000000 1.000000 0.000000
vn 0.000000 1.000000 0.000000
vn 0.000000 1.000000 0.000000
vn 0.000000 1.000000 0.000000
vn 0.000000 1.000000 0.000000
vn 0.000000 1.000000 0.000000
vn 0.000000 1.000000 0.000000
vn 0.000000 1.000000 0.000000
vn 0.000000 1.000000 0.000000
vn 0.000000 1.000000 -0.000001
vn 0.000000 1.000000 -0.000001
vn 0.000000 1.000000 -0.000001
vn 0.000000 1.000000 -0.000001
vn 0.000000 1.000000 -0.000000
vn 0.000000 1.000000 -0.000000
vn 0.000000 1.000000 -0.000000
vn 0.000000 1.000000 -0.000000
vn 0.000000 1.000000 0.000001
vn 0.000000 1.000000 0.000001
vn 0.000000 1.000000 0.000001
vn 0.000000 1.000000 0.000001
vn 0.000000 1.000000 -0.000001
vn 0.000000 1.000000 -0.000001
vn 0.000000 1.000000 -0.000001
vn 0.000000 1.000000 -0.000001
vn 0.000000 1.000000 0.000000
vn 0.000000 1.000000 0.000000
vn 0.000000 1.000000 0.000000
vn 0.000000 1.000000 0.000000
vn 0.000000 1.000000 -0.000000
vn 0.000000 1.000000 -0.000000
vn 0.000000 1.000000 -0.000000
vn 0.000000 1.000000 -0.000000
vn 0.584734 0.000000 0.811225
vn 0.584734 0.000000 0.811225
vn 0.584734 0.000000 0.811225
vn 0.584734 0.000000 0.811225
vn 0.949884 0.000000 0.312603
vn 0.949884 0.000000 0.312603
vn 0.949884 0.000000 0.312603
vn 0.949884 0.000000 0.312603
vn 0.952215 0.000000 -0.305428
vn 0.952215 0.000000 -0.305428
vn 0.952215 0.000000 -0.305428
vn 0.952215 0.000000 -0.305428
vn 0.590831 0.000000 -0.806796
vn 0.590831 0.000000 -0.806796
vn 0.590831 0.000000 -0.806796
vn 0.590831 0.000000 -0.806796
vn 0.003762 0.000000 -0.999993
vn 0.003762 0.000000 -0.999993
vn 0.003762 0.000000 -0.999993
vn 0.003762 0.000000 -0.999993
vn -0.584726 0.000000 -0.811231
vn -0.584726 0.000000 -0.811231
vn -0.584726 0.000000 -0.811231
vn -0.584726 0.000000 -0.811231
vn -0.949886 0.000000 -0.312597
vn -0.949886 0.000000 -0.312597
vn -0.949886 0.000000 -0.312597
vn -0.949886 0.000000 -0.312597
vn -0.952213 0.000000 0.305435
vn -0.952213 0.000000 0.305435
vn -0.952213 0.000000 0.305435
vn -0.952213 0.000000 0.305435
vn -0.590835 0.000000 0.806792
vn -0.590835 0.000000 0.806792
vn -0.590835 0.000000 0.806792
vn -0.590835 0.000000 0.806792
vn -0.003762 0.000000 0.999993
vn -0.003762 0.000000 0.999993
vn -0.003762 0.000000 0.999993
vn -0.003762 0.000000 0.999993
vn 0.000000 1.000000 0.000000
vn 0.000000 1.000000 0.000000
vn 0.000000 1.000000 0.000000
vn 0.000000 1.000000 0.000000
vn 0.000000 1.000000 0.000000
vn 0.000000 1.000000 0.000000
vn 0.000000 1.000000 0.000000
vn 0.000000 1.000000 0.000000
vn 0.000000 1.000000 0.000000
vn 0.000000 1.000000 0.000001
vn 0.000000 1.000000 0.000001
vn 0.000000 1.000000 0.000001
vn 0.000000 1.000000 0.000000
vn 0.000000 1.000000 0.000000
vn 0.000000 1.000000 0.000000
vn 0.000000 1.000000 0.000000
vn 0.000000 1.000000 0.000000
vn 0.000000 1.000000 0.000000
vn 0.000000 1.000000 0.000000
vn 0.000000 1.000000 0.000000
vn 0.000000 1.000000 0.000000
vn 0.000000 1.000000 0.000000
vn 0.000000 1.000000 0.000000
vn 0.000000 1.000000 0.000000
vn 0.000000 1.000000 0.000001
vn 0.000000 1.000000 0.000001
vn 0.000000 1.000000 0.000001
vn 0.000000 1.000000 -0.000001
vn 0.000000 1.000000 -0.000001
vn 0.000000 1.000000 -0.000001
g building_26
usemtl lambert2SG
f 1/1/1 2/2/2 3/3/3 4/4/4
f 5/5/5 4/4/6 3/3/7 6/6/8
f 1/1/9 7/7/10 8/8/11 2/2/12
f 9/9/13 10/10/14 11/11/15 12/12/16
f 10/10/17 13/13/18 14/14/19 11/11/20
f 12/12/21 15/15/22 16/16/23 9/9/24
f 17/17/25 18/18/26 14/19/27 13/20/28
f 19/21/29 16/22/30 15/23/31 20/24/32
f 14/25/33 18/26/34 20/27/35 15/28/36
f 19/21/37 20/24/38 5/5/39 6/6/40
f 17/17/41 8/8/42 7/7/43 18/18/44
f 5/29/45 7/30/46 1/31/47 4/32/48
f 18/33/49 7/34/50 5/35/51 20/36/52
f 21/37/53 22/38/54 23/39/55 24/40/56
f 25/41/57 26/42/58 23/39/59 22/38/60
f 21/37/61 24/40/62 27/43/63 28/44/64
f 29/45/65 30/46/66 31/47/67 32/48/68
f 32/49/69 31/50/70 33/51/71 34/52/72
f 35/53/73 34/52/74 33/51/75 36/54/76
f 37/55/77 38/56/78 39/57/79 40/58/80
f 33/59/81 39/60/82 38/61/83 36/62/84
f 37/55/85 26/42/86 25/41/87 38/56/88
f 35/53/89 36/54/90 28/44/91 27/43/92
f 25/63/93 22/64/94 21/65/95 28/66/96
f 36/67/97 38/68/98 25/69/99 28/70/100
f 11/11/101 14/71/102 33/72/103 31/73/104
f 14/74/105 15/75/106 39/76/107 33/77/108
f 15/78/109 12/12/110 30/79/111 39/80/112
f 12/81/113 11/82/114 31/83/115 30/84/116
f 39/85/117 30/86/118 41/87/119 42/88/120
f 30/46/121 29/45/122 43/89/123 41/90/124
f 40/91/125 39/92/126 42/93/127 44/94/128
f 42/95/129 41/96/130 45/97/131 46/98/132
f 41/99/133 43/89/134 47/100/135 45/101/136
f 45/102/137 47/103/138 48/104/139 46/105/140
f 44/106/141 42/107/142 49/108/143 50/109/144
f 42/110/145 46/98/146 51/111/147 49/112/148
f 46/113/149 48/104/150 52/114/151 51/115/152
f 50/116/153 49/117/154 51/118/155 52/119/156
f 17/120/157 13/121/158 53/122/159 54/123/160
f 13/124/161 10/125/162 55/126/163 53/122/164
f 10/127/165 9/128/166 56/129/167 55/126/168
f 9/130/169 16/131/170 57/132/171 56/129/172
f 16/133/173 19/134/174 58/135/175 57/132/176
f 19/136/177 6/137/178 59/138/179 58/135/180
f 6/139/181 3/140/182 60/141/183 59/138/184
f 3/142/185 2/143/186 61/144/187 60/141/188
f 2/145/189 8/146/190 62/147/191 61/144/192
f 8/148/193 17/149/194 54/123/195 62/147/196
f 61/150/197 62/151/198 63/152/199 64/153/200
f 62/154/201 54/155/202 65/156/203 63/152/204
f 54/157/205 53/158/206 66/159/207 65/156/208
f 53/160/209 55/161/210 67/162/211 66/163/212
f 55/164/213 56/165/214 68/166/215 67/162/216
f 56/167/217 57/168/218 69/169/219 68/166/220
f 57/170/221 58/171/222 70/172/223 69/169/224
f 58/173/225 59/174/226 71/175/227 70/172/228
f 59/176/229 60/177/230 72/178/231 71/175/232
f 60/179/233 61/180/234 64/153/235 72/178/236
f 70/181/237 71/182/238 73/183/239
f 71/184/240 72/185/241 73/183/242
f 72/186/243 64/187/244 73/183/245
f 64/188/246 63/189/247 73/183/248
f 63/190/249 65/191/250 73/183/251
f 65/192/252 66/193/253 73/183/254
f 66/194/255 67/195/256 73/183/257
f 67/196/258 68/197/259 73/183/260
f 68/198/261 69/199/262 73/183/263
f 69/200/264 70/201/265 73/183/266
