# This file uses centimeters as units for non-parametric coordinates.

g default
v -0.036000 0.000000 -0.036000
v 0.036000 0.000000 -0.036000
v -0.036000 0.000000 0.036000
v 0.036000 0.000000 0.036000
v -0.036000 0.037966 0.036000
v 0.036000 0.037966 0.036000
v -0.036000 0.037966 -0.036000
v 0.036000 0.037966 -0.036000
v -0.020025 0.037966 0.020025
v 0.020025 0.037966 0.020025
v 0.020025 0.037966 -0.020025
v -0.020025 0.037966 -0.020025
v -0.020025 0.766997 0.020025
v 0.020025 0.766997 0.020025
v 0.020025 0.766997 -0.020025
v -0.020025 0.766997 -0.020025
v -0.036000 0.766997 -0.036000
v 0.036000 0.766997 -0.036000
v -0.036000 0.766997 0.036000
v 0.036000 0.766997 0.036000
v -0.036000 0.793815 0.036000
v 0.036000 0.793815 0.036000
v -0.036000 0.793815 -0.036000
v 0.036000 0.793815 -0.036000
vt -0.190976 -0.521991
vt 0.058970 -0.521991
vt 0.058970 -0.295784
vt -0.190976 -0.295784
vt -0.190976 -0.765208
vt 0.058970 -0.765208
vt 0.058970 -0.539000
vt -0.190976 -0.539000
vt 0.068224 -0.765761
vt 0.318170 -0.765761
vt 0.318170 -0.539554
vt 0.068224 -0.539554
vt 0.068225 -0.295774
vt 0.068225 -0.521981
vt 0.318170 -0.521981
vt 0.318170 -0.295774
vt 0.322345 -0.765471
vt 0.572291 -0.765471
vt 0.516834 -0.715282
vt 0.377802 -0.715282
vt 0.572291 -0.539264
vt 0.516834 -0.589453
vt 0.322345 -0.539264
vt 0.377802 -0.589453
vt -0.775448 -0.764915
vt -0.636415 -0.764915
vt -0.636415 1.775448
vt -0.775448 1.775448
vt -0.633142 -0.764915
vt -0.494109 -0.764915
vt -0.494109 1.775448
vt -0.633142 1.775448
vt -0.199332 1.773794
vt -0.338365 1.773794
vt -0.338365 -0.766569
vt -0.199332 -0.766569
vt -0.485753 -0.764915
vt -0.346720 -0.764915
vt -0.346720 1.775448
vt -0.485753 1.775448
vt 0.576466 -0.763583
vt 0.826411 -0.763583
vt 0.826411 -0.537375
vt 0.576466 -0.537375
vt 0.830586 -0.767359
vt 1.080532 -0.767359
vt 1.080532 -0.541152
vt 0.830586 -0.541152
vt 1.334649 -0.763583
vt 1.334649 -0.537375
vt 1.084703 -0.537375
vt 1.084703 -0.763583
vt 1.338818 -0.537375
vt 1.338818 -0.763583
vt 1.588764 -0.763583
vt 1.588764 -0.537375
vt 1.598016 -0.595447
vt 1.598016 -0.721275
vt 1.653473 -0.771464
vt 1.653473 -0.545257
vt 1.659004 -0.599431
vt 1.659004 -0.725259
vt 1.714460 -0.775448
vt 1.714460 -0.549241
vt 1.775448 -0.721274
vt 1.775448 -0.595446
vt 1.719992 -0.545257
vt 1.719992 -0.771464
vt 1.714460 -0.528701
vt 1.714460 -0.402873
vt 1.659004 -0.352683
vt 1.659004 -0.578891
vn 0.000000 0.000000 1.000000
vn 0.000000 0.000000 1.000000
vn 0.000000 0.000000 1.000000
vn 0.000000 0.000000 1.000000
vn 0.000000 0.000000 -1.000000
vn 0.000000 0.000000 -1.000000
vn 0.000000 0.000000 -1.000000
vn 0.000000 0.000000 -1.000000
vn 1.000000 0.000000 0.000000
vn 1.000000 0.000000 0.000000
vn 1.000000 0.000000 0.000000
vn 1.000000 0.000000 0.000000
vn -1.000000 0.000000 0.000000
vn -1.000000 0.000000 0.000000
vn -1.000000 0.000000 0.000000
vn -1.000000 0.000000 0.000000
vn 0.000000 1.000000 -0.000000
vn 0.000000 1.000000 -0.000000
vn 0.000000 1.000000 -0.000000
vn 0.000000 1.000000 -0.000000
vn 0.000000 1.000000 0.000000
vn 0.000000 1.000000 0.000000
vn 0.000000 1.000000 0.000000
vn 0.000000 1.000000 0.000000
vn 0.000000 0.000000 1.000000
vn 0.000000 0.000000 1.000000
vn 0.000000 0.000000 1.000000
vn 0.000000 0.000000 1.000000
vn 1.000000 0.000000 0.000000
vn 1.000000 0.000000 0.000000
vn 1.000000 0.000000 0.000000
vn 1.000000 0.000000 0.000000
vn 0.000000 0.000000 -1.000000
vn 0.000000 0.000000 -1.000000
vn 0.000000 0.000000 -1.000000
vn 0.000000 0.000000 -1.000000
vn -1.000000 0.000000 0.000000
vn -1.000000 0.000000 0.000000
vn -1.000000 0.000000 0.000000
vn -1.000000 0.000000 0.000000
vn 0.000000 0.000000 1.000000
vn 0.000000 0.000000 1.000000
vn 0.000000 0.000000 1.000000
vn 0.000000 0.000000 1.000000
vn 0.000000 0.000000 -1.000000
vn 0.000000 0.000000 -1.000000
vn 0.000000 0.000000 -1.000000
vn 0.000000 0.000000 -1.000000
vn 1.000000 0.000000 0.000000
vn 1.000000 0.000000 0.000000
vn 1.000000 0.000000 0.000000
vn 1.000000 0.000000 0.000000
vn -1.000000 0.000000 0.000000
vn -1.000000 0.000000 0.000000
vn -1.000000 0.000000 0.000000
vn -1.000000 0.000000 0.000000
vn 0.000000 -1.000000 0.000000
vn 0.000000 -1.000000 0.000000
vn 0.000000 -1.000000 0.000000
vn 0.000000 -1.000000 0.000000
vn 0.000000 -1.000000 0.000002
vn 0.000000 -1.000000 0.000002
vn 0.000000 -1.000000 0.000002
vn 0.000000 -1.000000 0.000002
vn 0.000000 -1.000000 0.000000
vn 0.000000 -1.000000 0.000000
vn 0.000000 -1.000000 0.000000
vn 0.000000 -1.000000 0.000000
vn 0.000000 -1.000000 -0.000002
vn 0.000000 -1.000000 -0.000002
vn 0.000000 -1.000000 -0.000002
vn 0.000000 -1.000000 -0.000002
g balconyRailingPole_1
f 3/1/1 4/2/2 6/3/3 5/4/4
f 7/5/5 8/6/6 2/7/7 1/8/8
f 2/9/9 8/10/10 6/11/11 4/12/12
f 7/13/13 1/14/14 3/15/15 5/16/16
f 5/17/17 6/18/18 10/19/19 9/20/20
f 6/18/18 8/21/21 11/22/22 10/19/19
f 8/21/21 7/23/23 12/24/24 11/22/22
f 7/23/23 5/17/17 9/20/20 12/24/24
f 9/25/25 10/26/26 14/27/27 13/28/28
f 10/29/29 11/30/30 15/31/31 14/32/32
f 11/33/33 12/34/34 16/35/35 15/36/36
f 12/37/37 9/38/38 13/39/39 16/40/40
f 19/41/41 20/42/42 22/43/43 21/44/44
f 23/45/45 24/46/46 18/47/47 17/48/48
f 18/49/49 24/50/50 22/51/51 20/52/52
f 23/53/53 17/54/54 19/55/55 21/56/56
f 14/57/57 15/58/58 18/59/59 20/60/60
f 13/61/61 14/62/62 20/63/63 19/64/64
f 16/65/65 13/66/66 19/67/67 17/68/68
f 15/69/69 16/70/70 17/71/71 18/72/72
