# This file uses centimeters as units for non-parametric coordinates.

g default
v -0.030773 0.000000 0.012677
v 0.030773 0.000000 0.012677
v -0.000000 0.800000 0.012677
v -0.000000 0.800000 -0.012677
v -0.030773 0.000000 -0.012677
v 0.030773 0.000000 -0.012677
v -0.049373 0.727357 0.012677
v 0.049373 0.727357 0.012677
v -0.049373 0.727357 -0.012677
v 0.049373 0.727357 -0.012677
vt 0.000000 0.000000
vt 0.246467 0.000000
vt 0.246467 0.908570
vt 0.000000 0.908570
vt 0.123234 0.999311
vt 0.374412 0.000689
vt 0.497645 0.091430
vt 0.251178 0.091430
vt 0.497645 1.000000
vt 0.251178 1.000000
vt 0.502355 0.000000
vt 0.748822 0.000000
vt 0.748822 0.908570
vt 0.502355 0.908570
vt 0.748822 0.999311
vt 0.502355 0.999311
vt 0.753533 0.000000
vt 1.000000 0.000000
vt 1.000000 0.908570
vt 0.753533 0.908570
vt 1.000000 0.999311
vt 0.753533 0.999311
vn 0.000000 0.000000 1.000000
vn 0.000000 0.000000 1.000000
vn 0.000000 0.000000 1.000000
vn 0.000000 0.000000 1.000000
vn 0.000000 0.000000 -1.000000
vn 0.000000 0.000000 -1.000000
vn 0.000000 0.000000 -1.000000
vn 0.999673 -0.025563 0.000000
vn 0.999673 -0.025563 0.000000
vn 0.961069 0.276309 0.000000
vn 0.961069 0.276309 0.000000
vn -0.999673 -0.025563 0.000001
vn -0.999673 -0.025563 0.000001
vn -0.961069 0.276309 0.000002
vn -0.961069 0.276309 0.000002
vn 0.000000 0.000000 1.000000
vn 0.000000 0.000000 -1.000000
vn 0.000000 0.000000 -1.000000
vn 0.827057 0.562118 0.000000
vn 0.827057 0.562118 0.000000
vn -0.827057 0.562118 0.000002
vn -0.827057 0.562118 0.000002
g balconyRailingPole_4
f 1/1/1 2/2/2 8/3/3 7/4/4
f 4/6/5 10/7/6 9/8/7
f 2/11/8 6/12/9 10/13/10 8/14/11
f 5/17/12 1/18/13 7/19/14 9/20/15
f 7/4/4 8/3/3 3/5/16
f 9/8/7 10/7/6 6/9/17 5/10/18
f 8/14/11 10/13/10 4/15/19 3/16/20
f 9/20/15 7/19/14 3/21/21 4/22/22
