# This file uses centimeters as units for non-parametric coordinates.

mtllib windowFrame_9.mtl
v 0.000000 0.673083 -0.027013
v -0.229586 0.673083 -0.027013
v -0.229586 0.000000 -0.027013
v 0.229586 0.000000 -0.027013
v 0.229586 0.673083 -0.027013
v 0.000000 0.673083 -0.027013
v 0.000000 0.650124 -0.027013
v 0.206627 0.650124 -0.027013
v 0.206627 0.022959 -0.027013
v -0.206627 0.022959 -0.027013
v -0.206627 0.650124 -0.027013
v 0.000000 0.650124 -0.027013
v 0.000000 0.673083 0.001685
v -0.229586 0.673083 0.001685
v -0.229586 0.000000 0.001685
v 0.229586 0.000000 0.001685
v 0.229586 0.673083 0.001685
v 0.000000 0.673083 0.001685
v 0.000000 0.650124 0.001685
v 0.206627 0.650124 0.001685
v 0.206627 0.022959 0.001685
v -0.206627 0.022959 0.001685
v -0.206627 0.650124 0.001685
v 0.000000 0.650124 0.001685
v -0.206627 0.169110 -0.027013
v 0.206627 0.169110 -0.027013
v -0.206627 0.169110 0.002987
v 0.206627 0.169110 0.002987
v -0.206627 0.216914 0.002987
v 0.206627 0.216914 0.002987
v -0.206627 0.216914 -0.027013
v 0.206627 0.216914 -0.027013
v -0.017799 0.650124 -0.017004
v -0.017799 0.022959 -0.017004
v -0.017799 0.650124 0.012996
v -0.017799 0.022959 0.012996
v 0.017799 0.650124 0.012996
v 0.017799 0.022959 0.012996
v 0.017799 0.650124 -0.017004
v 0.017799 0.022959 -0.017004
v -0.006922 0.650124 -0.002987
v -0.006922 0.022959 -0.002987
v -0.006922 0.650124 0.027013
v -0.006922 0.022959 0.027013
v 0.006921 0.650124 0.027013
v 0.006921 0.022959 0.027013
v 0.006921 0.650124 -0.002987
v 0.006921 0.022959 -0.002987
v -0.206627 0.412178 -0.027013
v 0.206627 0.412178 -0.027013
v -0.206627 0.412178 0.002987
v 0.206627 0.412178 0.002987
v -0.206627 0.459982 0.002987
v 0.206627 0.459982 0.002987
v -0.206627 0.459982 -0.027013
v 0.206627 0.459982 -0.027013
vt 0.499999 1.000000
vt -0.000001 1.000000
vt -0.000001 0.000000
vt 0.999999 0.000000
vt 0.999999 1.000000
vt 0.499999 1.000000
vt 0.499999 0.965890
vt 0.949999 0.965890
vt 0.949999 0.034110
vt 0.049998 0.034110
vt 0.049998 0.965890
vt 0.499999 0.965890
vt 0.499999 1.000000
vt -0.000001 1.000000
vt -0.000001 0.000000
vt 0.999999 0.000000
vt 0.999999 1.000000
vt 0.499999 1.000000
vt 0.499999 0.965890
vt 0.949999 0.965890
vt 0.949999 0.034110
vt 0.049998 0.034110
vt 0.049998 0.965890
vt 0.499999 0.965890
vt 0.049998 0.251247
vt 0.950000 0.251247
vt 0.950000 0.251247
vt 0.049998 0.251247
vt 0.950000 0.322269
vt 0.049998 0.322269
vt 0.950000 0.322269
vt 0.049998 0.322269
vt 0.461236 0.965891
vt 0.461236 0.034110
vt 0.461236 0.034110
vt 0.461236 0.965891
vt 0.538762 0.034110
vt 0.538762 0.965891
vt 0.538762 0.034110
vt 0.538762 0.965891
vt 0.484924 0.965891
vt 0.484924 0.034110
vt 0.484924 0.034110
vt 0.484924 0.965891
vt 0.515073 0.034110
vt 0.515073 0.965891
vt 0.515073 0.034110
vt 0.515073 0.965891
vt 0.049998 0.612374
vt 0.950000 0.612374
vt 0.950000 0.612374
vt 0.049998 0.612374
vt 0.950000 0.683396
vt 0.049998 0.683396
vt 0.950000 0.683396
vt 0.049998 0.683396
vn 0.000000 0.000000 1.000000
vn 0.000000 0.000000 1.000000
vn 0.000000 0.000000 1.000000
vn 0.000000 0.000000 1.000000
vn 0.000000 1.000000 0.000000
vn 0.000000 1.000000 0.000000
vn 0.000000 1.000000 0.000000
vn 0.000000 1.000000 0.000000
vn -1.000000 0.000000 0.000000
vn -1.000000 0.000000 0.000000
vn -1.000000 0.000000 0.000000
vn -1.000000 0.000000 0.000000
vn 0.000000 -1.000000 0.000000
vn 0.000000 -1.000000 0.000000
vn 0.000000 -1.000000 0.000000
vn 0.000000 -1.000000 0.000000
vn 1.000000 0.000000 0.000000
vn 1.000000 0.000000 0.000000
vn 1.000000 0.000000 0.000000
vn 1.000000 0.000000 0.000000
vn 0.000000 1.000000 0.000000
vn 0.000000 1.000000 0.000000
vn 0.000000 1.000000 0.000000
vn 0.000000 1.000000 0.000000
vn 0.000000 -1.000000 0.000000
vn 0.000000 -1.000000 0.000000
vn 0.000000 -1.000000 0.000000
vn 0.000000 -1.000000 0.000000
vn -1.000000 0.000000 0.000000
vn -1.000000 0.000000 0.000000
vn -1.000000 0.000000 0.000000
vn -1.000000 0.000000 0.000000
vn 0.000000 1.000000 0.000000
vn 0.000000 1.000000 0.000000
vn 0.000000 1.000000 0.000000
vn 0.000000 1.000000 0.000000
vn 1.000000 0.000000 0.000000
vn 1.000000 0.000000 0.000000
vn 1.000000 0.000000 0.000000
vn 1.000000 0.000000 0.000000
vn 0.000000 -1.000000 0.000000
vn 0.000000 -1.000000 0.000000
vn 0.000000 -1.000000 0.000000
vn 0.000000 -1.000000 0.000000
vn 0.000000 -1.000000 0.000000
vn 0.000000 -1.000000 0.000000
vn 0.000000 -1.000000 0.000000
vn 0.000000 -1.000000 0.000000
vn 0.000000 0.000000 1.000000
vn 0.000000 0.000000 1.000000
vn 0.000000 0.000000 1.000000
vn 0.000000 0.000000 1.000000
vn 0.000000 1.000000 0.000000
vn 0.000000 1.000000 0.000000
vn 0.000000 1.000000 0.000000
vn 0.000000 1.000000 0.000000
vn -1.000000 0.000000 0.000000
vn -1.000000 0.000000 0.000000
vn -1.000000 0.000000 0.000000
vn -1.000000 0.000000 0.000000
vn 0.000000 0.000000 1.000000
vn 0.000000 0.000000 1.000000
vn 0.000000 0.000000 1.000000
vn 0.000000 0.000000 1.000000
vn 1.000000 0.000000 0.000000
vn 1.000000 0.000000 0.000000
vn 1.000000 0.000000 0.000000
vn 1.000000 0.000000 0.000000
vn -1.000000 0.000000 0.000000
vn -1.000000 0.000000 0.000000
vn -1.000000 0.000000 0.000000
vn -1.000000 0.000000 0.000000
vn 0.000000 0.000000 1.000000
vn 0.000000 0.000000 1.000000
vn 0.000000 0.000000 1.000000
vn 0.000000 0.000000 1.000000
vn 1.000000 0.000000 0.000000
vn 1.000000 0.000000 0.000000
vn 1.000000 0.000000 0.000000
vn 1.000000 0.000000 0.000000
vn 0.000000 -1.000000 0.000000
vn 0.000000 -1.000000 0.000000
vn 0.000000 -1.000000 0.000000
vn 0.000000 -1.000000 0.000000
vn 0.000000 0.000000 1.000000
vn 0.000000 0.000000 1.000000
vn 0.000000 0.000000 1.000000
vn 0.000000 0.000000 1.000000
vn 0.000000 1.000000 0.000000
vn 0.000000 1.000000 0.000000
vn 0.000000 1.000000 0.000000
vn 0.000000 1.000000 0.000000
vn 0.000000 0.000000 1.000000
vn 0.000000 0.000000 1.000000
vn 0.000000 0.000000 1.000000
vn 0.000000 0.000000 1.000000
vn 0.000000 0.000000 1.000000
vn 0.000000 0.000000 1.000000
vn 0.000000 0.000000 1.000000
vn 0.000000 0.000000 1.000000
vn 0.000000 0.000000 1.000000
vn 0.000000 0.000000 1.000000
vn 0.000000 0.000000 1.000000
vn 0.000000 0.000000 1.000000
vn 0.000000 0.000000 1.000000
vn 0.000000 0.000000 1.000000
vn 0.000000 0.000000 1.000000
vn 0.000000 0.000000 1.000000
s off
g windowFrame_9
usemtl initialShadingGroup1
f 20/8/1 17/5/2 18/6/3 19/7/4
f 1/13/5 2/14/6 14/2/7 13/1/8
f 2/14/9 3/15/10 15/3/11 14/2/12
f 3/15/13 4/16/14 16/4/15 15/3/16
f 4/16/17 5/17/18 17/5/19 16/4/20
f 5/17/21 6/18/22 18/6/23 17/5/24
f 7/19/25 8/20/26 20/8/27 19/7/28
f 8/20/29 9/21/30 21/9/31 20/8/32
f 9/21/33 10/22/34 22/10/35 21/9/36
f 10/22/37 11/23/38 23/11/39 22/10/40
f 11/23/41 12/24/42 24/12/43 23/11/44
f 25/25/45 26/26/46 28/27/47 27/28/48
f 27/28/49 28/27/50 30/29/51 29/30/52
f 29/30/53 30/29/54 32/31/55 31/32/56
f 33/33/57 34/34/58 36/35/59 35/36/60
f 35/36/61 36/35/62 38/37/63 37/38/64
f 37/38/65 38/37/66 40/39/67 39/40/68
f 41/41/69 42/42/70 44/43/71 43/44/72
f 43/44/73 44/43/74 46/45/75 45/46/76
f 45/46/77 46/45/78 48/47/79 47/48/80
f 49/49/81 50/50/82 52/51/83 51/52/84
f 51/52/85 52/51/86 54/53/87 53/54/88
f 53/54/89 54/53/90 56/55/91 55/56/92
f 21/9/93 16/4/94 17/5/95 20/8/96
f 22/10/97 15/3/98 16/4/99 21/9/100
f 23/11/101 14/2/102 15/3/103 22/10/104
f 13/1/105 14/2/106 23/11/107 24/12/108
