# This file uses centimeters as units for non-parametric coordinates.

mtllib windowFrame_5.mtl
v -0.000817 0.819809 -0.025000
v -0.233595 0.819809 -0.025000
v -0.233595 0.000000 -0.025000
v 0.233595 0.000000 -0.025000
v 0.233595 0.819809 -0.025000
v -0.000817 0.819809 -0.025000
v -0.001105 0.773731 -0.025000
v 0.174261 0.773731 -0.025000
v 0.174261 0.046078 -0.025000
v -0.172324 0.046078 -0.025000
v -0.172324 0.773731 -0.025000
v -0.001105 0.773731 -0.025000
v -0.000817 0.819809 0.025000
v -0.233595 0.819809 0.025000
v -0.233595 0.000000 0.025000
v 0.233595 0.000000 0.025000
v 0.233595 0.819809 0.025000
v -0.000817 0.819809 0.025000
v -0.001105 0.773731 0.025000
v 0.174261 0.773731 0.025000
v 0.174261 0.046078 0.025000
v -0.172324 0.046078 0.025000
v -0.172324 0.773731 0.025000
v -0.001105 0.773731 0.025000
v -0.172324 0.568851 -0.025000
v 0.174261 0.568851 -0.025000
v -0.172324 0.568851 0.005000
v 0.174261 0.568851 0.005000
v -0.172324 0.598851 0.005000
v 0.174261 0.598851 0.005000
v -0.172324 0.598851 -0.025000
v 0.174261 0.598851 -0.025000
v -0.015247 0.773731 -0.013084
v -0.015247 0.046078 -0.013084
v -0.015247 0.773731 0.016916
v -0.015247 0.046078 0.016916
v 0.013613 0.773731 0.016916
v 0.013613 0.046078 0.016916
v 0.013613 0.773731 -0.013084
v 0.013613 0.046078 -0.013084
v -0.005677 0.773731 -0.005414
v -0.005677 0.046078 -0.005414
v -0.005677 0.773731 0.024586
v -0.005677 0.046078 0.024586
v 0.004043 0.773731 0.024586
v 0.004043 0.046078 0.024586
v 0.004043 0.773731 -0.005414
v 0.004043 0.046078 -0.005414
v -0.172324 0.221830 -0.025000
v 0.174261 0.221830 -0.025000
v -0.172324 0.221830 0.005000
v 0.174261 0.221830 0.005000
v -0.172324 0.251830 0.005000
v 0.174261 0.251830 0.005000
v -0.172324 0.251830 -0.025000
v 0.174261 0.251830 -0.025000
vt 0.498251 1.000000
vt 0.000000 1.000000
vt 0.000000 0.000000
vt 1.000000 0.000000
vt 1.000000 1.000000
vt 0.498251 1.000000
vt 0.497635 0.943794
vt 0.872997 0.943794
vt 0.872997 0.056206
vt 0.131149 0.056206
vt 0.131149 0.943794
vt 0.497635 0.943794
vt 0.498251 1.000000
vt 0.000000 1.000000
vt 0.000000 0.000000
vt 1.000000 0.000000
vt 1.000000 1.000000
vt 0.498251 1.000000
vt 0.497635 0.943794
vt 0.872997 0.943794
vt 0.872997 0.056206
vt 0.131149 0.056206
vt 0.131149 0.943794
vt 0.497635 0.943794
vt 0.131149 0.693882
vt 0.872997 0.693882
vt 0.872997 0.693882
vt 0.131149 0.693882
vt 0.872997 0.730476
vt 0.131149 0.730476
vt 0.872997 0.730476
vt 0.131149 0.730476
vt 0.467363 0.943794
vt 0.467363 0.056206
vt 0.467363 0.056206
vt 0.467363 0.943794
vt 0.529137 0.056206
vt 0.529137 0.943794
vt 0.529137 0.056206
vt 0.529137 0.943794
vt 0.487848 0.943794
vt 0.487848 0.056206
vt 0.487848 0.056206
vt 0.487848 0.943794
vt 0.508654 0.056206
vt 0.508654 0.943794
vt 0.508654 0.056206
vt 0.508654 0.943794
vt 0.131149 0.270588
vt 0.872997 0.270588
vt 0.872997 0.270588
vt 0.131149 0.270588
vt 0.872997 0.307182
vt 0.131149 0.307182
vt 0.872997 0.307182
vt 0.131149 0.307182
vn 0.000000 0.000000 1.000000
vn 0.000000 0.000000 1.000000
vn 0.000000 0.000000 1.000000
vn 0.000000 0.000000 1.000000
vn 0.000000 1.000000 0.000000
vn 0.000000 1.000000 0.000000
vn 0.000000 1.000000 0.000000
vn 0.000000 1.000000 0.000000
vn -1.000000 0.000000 0.000000
vn -1.000000 0.000000 0.000000
vn -1.000000 0.000000 0.000000
vn -1.000000 0.000000 0.000000
vn 0.000000 -1.000000 0.000000
vn 0.000000 -1.000000 0.000000
vn 0.000000 -1.000000 0.000000
vn 0.000000 -1.000000 0.000000
vn 1.000000 0.000000 0.000000
vn 1.000000 0.000000 0.000000
vn 1.000000 0.000000 0.000000
vn 1.000000 0.000000 0.000000
vn 0.000000 1.000000 0.000000
vn 0.000000 1.000000 0.000000
vn 0.000000 1.000000 0.000000
vn 0.000000 1.000000 0.000000
vn 0.000000 -1.000000 0.000000
vn 0.000000 -1.000000 0.000000
vn 0.000000 -1.000000 0.000000
vn 0.000000 -1.000000 0.000000
vn -1.000000 0.000000 0.000000
vn -1.000000 0.000000 0.000000
vn -1.000000 0.000000 0.000000
vn -1.000000 0.000000 0.000000
vn 0.000000 1.000000 0.000000
vn 0.000000 1.000000 0.000000
vn 0.000000 1.000000 0.000000
vn 0.000000 1.000000 0.000000
vn 1.000000 0.000000 0.000000
vn 1.000000 0.000000 0.000000
vn 1.000000 0.000000 0.000000
vn 1.000000 0.000000 0.000000
vn 0.000000 -1.000000 0.000000
vn 0.000000 -1.000000 0.000000
vn 0.000000 -1.000000 0.000000
vn 0.000000 -1.000000 0.000000
vn 0.000000 -1.000000 0.000000
vn 0.000000 -1.000000 0.000000
vn 0.000000 -1.000000 0.000000
vn 0.000000 -1.000000 0.000000
vn 0.000000 0.000000 1.000000
vn 0.000000 0.000000 1.000000
vn 0.000000 0.000000 1.000000
vn 0.000000 0.000000 1.000000
vn 0.000000 1.000000 0.000000
vn 0.000000 1.000000 0.000000
vn 0.000000 1.000000 0.000000
vn 0.000000 1.000000 0.000000
vn -1.000000 0.000000 0.000000
vn -1.000000 0.000000 0.000000
vn -1.000000 0.000000 0.000000
vn -1.000000 0.000000 0.000000
vn 0.000000 0.000000 1.000000
vn 0.000000 0.000000 1.000000
vn 0.000000 0.000000 1.000000
vn 0.000000 0.000000 1.000000
vn 1.000000 0.000000 0.000000
vn 1.000000 0.000000 0.000000
vn 1.000000 0.000000 0.000000
vn 1.000000 0.000000 0.000000
vn -1.000000 0.000000 0.000000
vn -1.000000 0.000000 0.000000
vn -1.000000 0.000000 0.000000
vn -1.000000 0.000000 0.000000
vn 0.000000 0.000000 1.000000
vn 0.000000 0.000000 1.000000
vn 0.000000 0.000000 1.000000
vn 0.000000 0.000000 1.000000
vn 1.000000 0.000000 0.000000
vn 1.000000 0.000000 0.000000
vn 1.000000 0.000000 0.000000
vn 1.000000 0.000000 0.000000
vn 0.000000 -1.000000 0.000000
vn 0.000000 -1.000000 0.000000
vn 0.000000 -1.000000 0.000000
vn 0.000000 -1.000000 0.000000
vn 0.000000 0.000000 1.000000
vn 0.000000 0.000000 1.000000
vn 0.000000 0.000000 1.000000
vn 0.000000 0.000000 1.000000
vn 0.000000 1.000000 0.000000
vn 0.000000 1.000000 0.000000
vn 0.000000 1.000000 0.000000
vn 0.000000 1.000000 0.000000
vn 0.000000 0.000000 1.000000
vn 0.000000 0.000000 1.000000
vn 0.000000 0.000000 1.000000
vn 0.000000 0.000000 1.000000
vn 0.000000 0.000000 1.000000
vn 0.000000 0.000000 1.000000
vn 0.000000 0.000000 1.000000
vn 0.000000 0.000000 1.000000
vn 0.000000 0.000000 1.000000
vn 0.000000 0.000000 1.000000
vn 0.000000 0.000000 1.000000
vn 0.000000 0.000000 1.000000
vn 0.000000 0.000000 1.000000
vn 0.000000 0.000000 1.000000
vn 0.000000 0.000000 1.000000
vn 0.000000 0.000000 1.000000
s off
g windowFrame_5
usemtl initialShadingGroup1
f 20/8/1 17/5/2 18/6/3 19/7/4
f 1/13/5 2/14/6 14/2/7 13/1/8
f 2/14/9 3/15/10 15/3/11 14/2/12
f 3/15/13 4/16/14 16/4/15 15/3/16
f 4/16/17 5/17/18 17/5/19 16/4/20
f 5/17/21 6/18/22 18/6/23 17/5/24
f 7/19/25 8/20/26 20/8/27 19/7/28
f 8/20/29 9/21/30 21/9/31 20/8/32
f 9/21/33 10/22/34 22/10/35 21/9/36
f 10/22/37 11/23/38 23/11/39 22/10/40
f 11/23/41 12/24/42 24/12/43 23/11/44
f 25/25/45 26/26/46 28/27/47 27/28/48
f 27/28/49 28/27/50 30/29/51 29/30/52
f 29/30/53 30/29/54 32/31/55 31/32/56
f 33/33/57 34/34/58 36/35/59 35/36/60
f 35/36/61 36/35/62 38/37/63 37/38/64
f 37/38/65 38/37/66 40/39/67 39/40/68
f 41/41/69 42/42/70 44/43/71 43/44/72
f 43/44/73 44/43/74 46/45/75 45/46/76
f 45/46/77 46/45/78 48/47/79 47/48/80
f 49/49/81 50/50/82 52/51/83 51/52/84
f 51/52/85 52/51/86 54/53/87 53/54/88
f 53/54/89 54/53/90 56/55/91 55/56/92
f 22/10/93 15/3/94 16/4/95 21/9/96
f 13/1/97 14/2/98 23/11/99 24/12/100
f 23/11/101 14/2/102 15/3/103 22/10/104
f 21/9/105 16/4/106 17/5/107 20/8/108
