# This file uses centimeters as units for non-parametric coordinates.

mtllib windowFrame_7.mtl
g default
v 0.000000 0.991259 -0.025000
v -0.320000 0.991259 -0.025000
v -0.320000 0.000000 -0.025000
v 0.320000 0.000000 -0.025000
v 0.320000 0.991259 -0.025000
v 0.000000 0.991259 -0.025000
v 0.000000 0.951259 -0.025000
v 0.288000 0.951259 -0.025000
v 0.288000 0.040000 -0.025000
v -0.288000 0.040000 -0.025000
v -0.288000 0.951259 -0.025000
v 0.000000 0.951259 -0.025000
v 0.000000 0.991259 0.025000
v -0.320000 0.991259 0.025000
v -0.320000 0.000000 0.025000
v 0.320000 0.000000 0.025000
v 0.320000 0.991259 0.025000
v 0.000000 0.991259 0.025000
v 0.000000 0.951259 0.025000
v 0.288000 0.951259 0.025000
v 0.288000 0.040000 0.025000
v -0.288000 0.040000 0.025000
v -0.288000 0.951259 0.025000
v 0.000000 0.951259 0.025000
v -0.288000 0.473700 -0.025000
v 0.288000 0.473700 -0.025000
v -0.288000 0.473700 0.005000
v 0.288000 0.473700 0.005000
v -0.288000 0.503700 0.005000
v 0.288000 0.503700 0.005000
v -0.288000 0.503700 -0.025000
v 0.288000 0.503700 -0.025000
v -0.032491 0.951259 -0.013084
v -0.032491 0.040000 -0.013084
v -0.032491 0.951259 0.016916
v -0.032491 0.040000 0.016916
v 0.032491 0.951259 0.016916
v 0.032491 0.040000 0.016916
v 0.032491 0.951259 -0.013084
v 0.032491 0.040000 -0.013084
v -0.004860 0.951259 -0.005414
v -0.004860 0.040000 -0.005414
v -0.004860 0.951259 0.024586
v -0.004860 0.040000 0.024586
v 0.004860 0.951259 0.024586
v 0.004860 0.040000 0.024586
v 0.004860 0.951259 -0.005414
v 0.004860 0.040000 -0.005414
v -0.288000 0.720789 -0.025000
v 0.288000 0.720789 -0.025000
v -0.288000 0.720789 0.005000
v 0.288000 0.720789 0.005000
v -0.288000 0.750789 0.005000
v 0.288000 0.750789 0.005000
v -0.288000 0.750789 -0.025000
v 0.288000 0.750789 -0.025000
v -0.288000 0.236396 -0.025000
v 0.288000 0.236396 -0.025000
v -0.288000 0.236396 0.005000
v 0.288000 0.236396 0.005000
v -0.288000 0.266396 0.005000
v 0.288000 0.266396 0.005000
v -0.288000 0.266396 -0.025000
v 0.288000 0.266396 -0.025000
vt 0.500000 1.000000
vt 0.000000 1.000000
vt 0.000000 0.000000
vt 1.000000 0.000000
vt 1.000000 1.000000
vt 0.500000 1.000000
vt 0.500000 0.959647
vt 0.950000 0.959647
vt 0.950000 0.040353
vt 0.050000 0.040353
vt 0.050000 0.959647
vt 0.500000 0.959647
vt 0.500000 1.000000
vt 0.000000 1.000000
vt 0.000000 0.000000
vt 1.000000 0.000000
vt 1.000000 1.000000
vt 0.500000 1.000000
vt 0.500000 0.959647
vt 0.950000 0.959647
vt 0.950000 0.040353
vt 0.050000 0.040353
vt 0.050000 0.959647
vt 0.500000 0.959647
vt 0.050000 0.477877
vt 0.950000 0.477877
vt 0.950000 0.477877
vt 0.050000 0.477877
vt 0.950000 0.508142
vt 0.050000 0.508142
vt 0.950000 0.508142
vt 0.050000 0.508142
vt 0.449233 0.959648
vt 0.449233 0.040353
vt 0.449233 0.040353
vt 0.449233 0.959648
vt 0.550768 0.040353
vt 0.550768 0.959648
vt 0.550768 0.040353
vt 0.550768 0.959648
vt 0.492407 0.959648
vt 0.492407 0.040353
vt 0.492407 0.040353
vt 0.492407 0.959648
vt 0.507594 0.040353
vt 0.507594 0.959648
vt 0.507594 0.040353
vt 0.507594 0.959648
vt 0.050000 0.727146
vt 0.950000 0.727146
vt 0.950000 0.727146
vt 0.050000 0.727146
vt 0.950000 0.757410
vt 0.050000 0.757410
vt 0.950000 0.757410
vt 0.050000 0.757410
vt 0.050000 0.238481
vt 0.950000 0.238481
vt 0.950000 0.238481
vt 0.050000 0.238481
vt 0.950000 0.268745
vt 0.050000 0.268745
vt 0.950000 0.268745
vt 0.050000 0.268745
vn -0.000000 0.000000 1.000000
vn -0.000000 0.000000 1.000000
vn -0.000000 0.000000 1.000000
vn -0.000000 0.000000 1.000000
vn -0.000000 0.000000 1.000000
vn -0.000000 0.000000 1.000000
vn -0.000000 0.000000 1.000000
vn -0.000000 0.000000 1.000000
vn -0.000000 0.000000 1.000000
vn -0.000000 0.000000 1.000000
vn -0.000000 0.000000 1.000000
vn -0.000000 0.000000 1.000000
vn 0.000000 1.000000 0.000000
vn 0.000000 1.000000 0.000000
vn 0.000000 1.000000 0.000000
vn 0.000000 1.000000 0.000000
vn -1.000000 0.000000 0.000000
vn -1.000000 0.000000 0.000000
vn -1.000000 0.000000 0.000000
vn -1.000000 0.000000 0.000000
vn 0.000000 -1.000000 0.000000
vn 0.000000 -1.000000 0.000000
vn 0.000000 -1.000000 0.000000
vn 0.000000 -1.000000 0.000000
vn 1.000000 0.000000 0.000000
vn 1.000000 0.000000 0.000000
vn 1.000000 0.000000 0.000000
vn 1.000000 0.000000 0.000000
vn 0.000000 1.000000 0.000000
vn 0.000000 1.000000 0.000000
vn 0.000000 1.000000 0.000000
vn 0.000000 1.000000 0.000000
vn 0.000000 -1.000000 0.000000
vn 0.000000 -1.000000 0.000000
vn 0.000000 -1.000000 0.000000
vn 0.000000 -1.000000 0.000000
vn -1.000000 0.000000 0.000000
vn -1.000000 0.000000 0.000000
vn -1.000000 0.000000 0.000000
vn -1.000000 0.000000 0.000000
vn 0.000000 1.000000 0.000000
vn 0.000000 1.000000 0.000000
vn 0.000000 1.000000 0.000000
vn 0.000000 1.000000 0.000000
vn 1.000000 0.000000 0.000000
vn 1.000000 0.000000 0.000000
vn 1.000000 0.000000 0.000000
vn 1.000000 0.000000 0.000000
vn 0.000000 -1.000000 0.000000
vn 0.000000 -1.000000 0.000000
vn 0.000000 -1.000000 0.000000
vn 0.000000 -1.000000 0.000000
vn 0.000000 -1.000000 0.000000
vn 0.000000 -1.000000 0.000000
vn 0.000000 -1.000000 0.000000
vn 0.000000 -1.000000 0.000000
vn 0.000000 0.000000 1.000000
vn 0.000000 0.000000 1.000000
vn 0.000000 0.000000 1.000000
vn 0.000000 0.000000 1.000000
vn 0.000000 1.000000 0.000000
vn 0.000000 1.000000 0.000000
vn 0.000000 1.000000 0.000000
vn 0.000000 1.000000 0.000000
vn -1.000000 0.000000 0.000000
vn -1.000000 0.000000 0.000000
vn -1.000000 0.000000 0.000000
vn -1.000000 0.000000 0.000000
vn 0.000000 0.000000 1.000000
vn 0.000000 0.000000 1.000000
vn 0.000000 0.000000 1.000000
vn 0.000000 0.000000 1.000000
vn 1.000000 0.000000 0.000000
vn 1.000000 0.000000 0.000000
vn 1.000000 0.000000 0.000000
vn 1.000000 0.000000 0.000000
vn -1.000000 0.000000 0.000000
vn -1.000000 0.000000 0.000000
vn -1.000000 0.000000 0.000000
vn -1.000000 0.000000 0.000000
vn 0.000000 0.000000 1.000000
vn 0.000000 0.000000 1.000000
vn 0.000000 0.000000 1.000000
vn 0.000000 0.000000 1.000000
vn 1.000000 0.000000 0.000000
vn 1.000000 0.000000 0.000000
vn 1.000000 0.000000 0.000000
vn 1.000000 0.000000 0.000000
vn 0.000000 -1.000000 0.000000
vn 0.000000 -1.000000 0.000000
vn 0.000000 -1.000000 0.000000
vn 0.000000 -1.000000 0.000000
vn 0.000000 0.000000 1.000000
vn 0.000000 0.000000 1.000000
vn 0.000000 0.000000 1.000000
vn 0.000000 0.000000 1.000000
vn 0.000000 1.000000 0.000000
vn 0.000000 1.000000 0.000000
vn 0.000000 1.000000 0.000000
vn 0.000000 1.000000 0.000000
vn 0.000000 -1.000000 0.000000
vn 0.000000 -1.000000 0.000000
vn 0.000000 -1.000000 0.000000
vn 0.000000 -1.000000 0.000000
vn 0.000000 0.000000 1.000000
vn 0.000000 0.000000 1.000000
vn 0.000000 0.000000 1.000000
vn 0.000000 0.000000 1.000000
vn 0.000000 1.000000 0.000000
vn 0.000000 1.000000 0.000000
vn 0.000000 1.000000 0.000000
vn 0.000000 1.000000 0.000000
g windowFrame_7
usemtl initialShadingGroup
f 13/1/1 14/2/2 15/3/3 16/4/4 17/5/5 18/6/6 19/7/7 20/8/8 21/9/9 22/10/10 23/11/11 24/12/12
f 1/13/13 2/14/14 14/2/15 13/1/16
f 2/14/17 3/15/18 15/3/19 14/2/20
f 3/15/21 4/16/22 16/4/23 15/3/24
f 4/16/25 5/17/26 17/5/27 16/4/28
f 5/17/29 6/18/30 18/6/31 17/5/32
f 7/19/33 8/20/34 20/8/35 19/7/36
f 8/20/37 9/21/38 21/9/39 20/8/40
f 9/21/41 10/22/42 22/10/43 21/9/44
f 10/22/45 11/23/46 23/11/47 22/10/48
f 11/23/49 12/24/50 24/12/51 23/11/52
f 25/25/53 26/26/54 28/27/55 27/28/56
f 27/28/57 28/27/58 30/29/59 29/30/60
f 29/30/61 30/29/62 32/31/63 31/32/64
f 33/33/65 34/34/66 36/35/67 35/36/68
f 35/36/69 36/35/70 38/37/71 37/38/72
f 37/38/73 38/37/74 40/39/75 39/40/76
f 41/41/77 42/42/78 44/43/79 43/44/80
f 43/44/81 44/43/82 46/45/83 45/46/84
f 45/46/85 46/45/86 48/47/87 47/48/88
f 49/49/89 50/50/90 52/51/91 51/52/92
f 51/52/93 52/51/94 54/53/95 53/54/96
f 53/54/97 54/53/98 56/55/99 55/56/100
f 57/57/101 58/58/102 60/59/103 59/60/104
f 59/60/105 60/59/106 62/61/107 61/62/108
f 61/62/109 62/61/110 64/63/111 63/64/112
