# This file uses centimeters as units for non-parametric coordinates.

mtllib windowFrame_10.mtl
v -0.215376 0.363967 -0.017016
v 0.215376 0.363967 -0.017016
v -0.215376 0.363967 0.012984
v 0.215376 0.363967 0.012984
v -0.215376 0.393967 0.012984
v 0.215376 0.393967 0.012984
v -0.215376 0.393967 -0.017016
v 0.215376 0.393967 -0.017016
v 0.000000 0.779290 -0.017016
v -0.239307 0.779290 -0.017016
v -0.239307 0.000000 -0.017016
v 0.239307 0.000000 -0.017016
v 0.239307 0.779290 -0.017016
v 0.000000 0.779290 -0.017016
v 0.000000 0.755359 -0.017016
v 0.215376 0.755359 -0.017016
v 0.215376 0.023931 -0.017016
v -0.215376 0.023931 -0.017016
v -0.215376 0.755359 -0.017016
v 0.000000 0.755359 -0.017016
v 0.000000 0.779290 0.012898
v -0.239307 0.779290 0.012898
v -0.239307 0.000000 0.012898
v 0.239307 0.000000 0.012898
v 0.239307 0.779290 0.012898
v 0.000000 0.779290 0.012898
v 0.000000 0.755359 0.012898
v 0.215376 0.755359 0.012898
v 0.215376 0.023931 0.012898
v -0.215376 0.023931 0.012898
v -0.215376 0.755359 0.012898
v 0.000000 0.755359 0.012898
v -0.023550 0.755359 -0.018835
v -0.023550 0.023931 -0.018835
v -0.023550 0.755359 0.011165
v -0.023550 0.023931 0.011165
v 0.023550 0.755359 0.011165
v 0.023550 0.023931 0.011165
v 0.023550 0.755359 -0.018835
v 0.023550 0.023931 -0.018835
v -0.004860 0.755359 -0.011165
v -0.004860 0.023931 -0.011165
v -0.004860 0.755359 0.018835
v -0.004860 0.023931 0.018835
v 0.004860 0.755359 0.018835
v 0.004860 0.023931 0.018835
v 0.004860 0.755359 -0.011165
v 0.004860 0.023931 -0.011165
vt 0.050000 0.467050
vt 0.949999 0.467050
vt 0.949999 0.467050
vt 0.050000 0.467050
vt 0.949999 0.505546
vt 0.050000 0.505546
vt 0.949999 0.505546
vt 0.050000 0.505546
vt 0.500000 1.000000
vt 0.000000 1.000000
vt 0.000000 0.000000
vt 1.000000 0.000000
vt 1.000000 1.000000
vt 0.500000 1.000000
vt 0.500000 0.969292
vt 0.949999 0.969292
vt 0.949999 0.030708
vt 0.050000 0.030708
vt 0.050000 0.969292
vt 0.500000 0.969292
vt 0.500000 1.000000
vt 0.000000 1.000000
vt 0.000000 0.000000
vt 1.000000 0.000000
vt 1.000000 1.000000
vt 0.500000 1.000000
vt 0.500000 0.969292
vt 0.949999 0.969292
vt 0.949999 0.030708
vt 0.050000 0.030708
vt 0.050000 0.969292
vt 0.500000 0.969292
vt 0.450796 0.969292
vt 0.450796 0.030708
vt 0.450796 0.030708
vt 0.450796 0.969292
vt 0.549204 0.030708
vt 0.549204 0.969292
vt 0.549204 0.030708
vt 0.549204 0.969292
vt 0.489846 0.969292
vt 0.489846 0.030708
vt 0.489846 0.030708
vt 0.489846 0.969292
vt 0.510153 0.030708
vt 0.510153 0.969292
vt 0.510153 0.030708
vt 0.510153 0.969292
vn 0.000000 -1.000000 0.000000
vn 0.000000 -1.000000 0.000000
vn 0.000000 -1.000000 0.000000
vn 0.000000 -1.000000 0.000000
vn 0.000000 0.000000 1.000000
vn 0.000000 0.000000 1.000000
vn 0.000000 0.000000 1.000000
vn 0.000000 0.000000 1.000000
vn 0.000000 1.000000 0.000000
vn 0.000000 1.000000 0.000000
vn 0.000000 1.000000 0.000000
vn 0.000000 1.000000 0.000000
vn 0.000000 0.000000 1.000000
vn 0.000000 0.000000 1.000000
vn 0.000000 0.000000 1.000000
vn 0.000000 0.000000 1.000000
vn 0.000000 1.000000 0.000000
vn 0.000000 1.000000 0.000000
vn 0.000000 1.000000 0.000000
vn 0.000000 1.000000 0.000000
vn -1.000000 0.000000 0.000000
vn -1.000000 0.000000 0.000000
vn -1.000000 0.000000 0.000000
vn -1.000000 0.000000 0.000000
vn 0.000000 -1.000000 0.000000
vn 0.000000 -1.000000 0.000000
vn 0.000000 -1.000000 0.000000
vn 0.000000 -1.000000 0.000000
vn 1.000000 0.000000 0.000000
vn 1.000000 0.000000 0.000000
vn 1.000000 0.000000 0.000000
vn 1.000000 0.000000 0.000000
vn 0.000000 1.000000 0.000000
vn 0.000000 1.000000 0.000000
vn 0.000000 1.000000 0.000000
vn 0.000000 1.000000 0.000000
vn 0.000000 -1.000000 0.000000
vn 0.000000 -1.000000 0.000000
vn 0.000000 -1.000000 0.000000
vn 0.000000 -1.000000 0.000000
vn -1.000000 0.000000 0.000000
vn -1.000000 0.000000 0.000000
vn -1.000000 0.000000 0.000000
vn -1.000000 0.000000 0.000000
vn 0.000000 1.000000 0.000000
vn 0.000000 1.000000 0.000000
vn 0.000000 1.000000 0.000000
vn 0.000000 1.000000 0.000000
vn 1.000000 0.000000 0.000000
vn 1.000000 0.000000 0.000000
vn 1.000000 0.000000 0.000000
vn 1.000000 0.000000 0.000000
vn 0.000000 -1.000000 0.000000
vn 0.000000 -1.000000 0.000000
vn 0.000000 -1.000000 0.000000
vn 0.000000 -1.000000 0.000000
vn -1.000000 0.000000 0.000000
vn -1.000000 0.000000 0.000000
vn -1.000000 0.000000 0.000000
vn -1.000000 0.000000 0.000000
vn 0.000000 0.000000 1.000000
vn 0.000000 0.000000 1.000000
vn 0.000000 0.000000 1.000000
vn 0.000000 0.000000 1.000000
vn 1.000000 0.000000 0.000000
vn 1.000000 0.000000 0.000000
vn 1.000000 0.000000 0.000000
vn 1.000000 0.000000 0.000000
vn -1.000000 0.000000 0.000000
vn -1.000000 0.000000 0.000000
vn -1.000000 0.000000 0.000000
vn -1.000000 0.000000 0.000000
vn 0.000000 0.000000 1.000000
vn 0.000000 0.000000 1.000000
vn 0.000000 0.000000 1.000000
vn 0.000000 0.000000 1.000000
vn 1.000000 0.000000 0.000000
vn 1.000000 0.000000 0.000000
vn 1.000000 0.000000 0.000000
vn 1.000000 0.000000 0.000000
vn 0.000000 0.000000 1.000000
vn 0.000000 0.000000 1.000000
vn 0.000000 0.000000 1.000000
vn 0.000000 0.000000 1.000000
vn 0.000000 0.000000 1.000000
vn 0.000000 0.000000 1.000000
vn 0.000000 0.000000 1.000000
vn 0.000000 0.000000 1.000000
vn 0.000000 0.000000 1.000000
vn 0.000000 0.000000 1.000000
vn 0.000000 0.000000 1.000000
vn 0.000000 0.000000 1.000000
vn 0.000000 0.000000 1.000000
vn 0.000000 0.000000 1.000000
vn 0.000000 0.000000 1.000000
vn 0.000000 0.000000 1.000000
s off
g windowFrame_10
usemtl initialShadingGroup1
f 1/1/1 2/2/2 4/3/3 3/4/4
f 3/4/5 4/3/6 6/5/7 5/6/8
f 5/6/9 6/5/10 8/7/11 7/8/12
f 28/16/13 25/13/14 26/14/15 27/15/16
f 9/21/17 10/22/18 22/10/19 21/9/20
f 10/22/21 11/23/22 23/11/23 22/10/24
f 11/23/25 12/24/26 24/12/27 23/11/28
f 12/24/29 13/25/30 25/13/31 24/12/32
f 13/25/33 14/26/34 26/14/35 25/13/36
f 15/27/37 16/28/38 28/16/39 27/15/40
f 16/28/41 17/29/42 29/17/43 28/16/44
f 17/29/45 18/30/46 30/18/47 29/17/48
f 18/30/49 19/31/50 31/19/51 30/18/52
f 19/31/53 20/32/54 32/20/55 31/19/56
f 33/33/57 34/34/58 36/35/59 35/36/60
f 35/36/61 36/35/62 38/37/63 37/38/64
f 37/38/65 38/37/66 40/39/67 39/40/68
f 41/41/69 42/42/70 44/43/71 43/44/72
f 43/44/73 44/43/74 46/45/75 45/46/76
f 45/46/77 46/45/78 48/47/79 47/48/80
f 29/17/81 24/12/82 25/13/83 28/16/84
f 30/18/85 23/11/86 24/12/87 29/17/88
f 31/19/89 22/10/90 23/11/91 30/18/92
f 21/9/93 22/10/94 31/19/95 32/20/96
