# This file uses centimeters as units for non-parametric coordinates.

mtllib windowFrame_6.mtl
v 0.000000 0.807697 -0.025000
v -0.148642 0.807697 -0.025000
v -0.148642 0.000000 -0.025000
v 0.148642 0.000000 -0.025000
v 0.148642 0.807697 -0.025000
v 0.000000 0.807697 -0.025000
v 0.000000 0.767697 -0.025000
v 0.096617 0.767697 -0.025000
v 0.096617 0.040000 -0.025000
v -0.096617 0.040000 -0.025000
v -0.096617 0.767697 -0.025000
v 0.000000 0.767697 -0.025000
v 0.000000 0.807697 0.025000
v -0.148642 0.807697 0.025000
v -0.148642 0.000000 0.025000
v 0.148642 0.000000 0.025000
v 0.148642 0.807697 0.025000
v 0.000000 0.807697 0.025000
v 0.000000 0.767697 0.025000
v 0.096617 0.767697 0.025000
v 0.096617 0.040000 0.025000
v -0.096617 0.040000 0.025000
v -0.096617 0.767697 0.025000
v 0.000000 0.767697 0.025000
v -0.096617 0.523214 -0.025000
v 0.096617 0.523214 -0.025000
v -0.096617 0.523214 0.005000
v 0.096617 0.523214 0.005000
v -0.096617 0.553214 0.005000
v 0.096617 0.553214 0.005000
v -0.096617 0.553214 -0.025000
v 0.096617 0.553214 -0.025000
v -0.096617 0.246268 -0.025000
v 0.096617 0.246268 -0.025000
v -0.096617 0.246268 0.005000
v 0.096617 0.246268 0.005000
v -0.096617 0.276268 0.005000
v 0.096617 0.276268 0.005000
v -0.096617 0.276268 -0.025000
v 0.096617 0.276268 -0.025000
vt 0.500000 1.000000
vt 0.000000 1.000000
vt 0.000000 0.000000
vt 1.000002 0.000000
vt 1.000002 1.000000
vt 0.500000 1.000000
vt 0.500000 0.950477
vt 0.825001 0.950477
vt 0.825001 0.049524
vt 0.175001 0.049524
vt 0.175001 0.950477
vt 0.500000 0.950477
vt 0.500000 1.000000
vt 0.000000 1.000000
vt 0.000000 0.000000
vt 1.000002 0.000000
vt 1.000002 1.000000
vt 0.500000 1.000000
vt 0.500000 0.950477
vt 0.825001 0.950477
vt 0.825001 0.049524
vt 0.175001 0.049524
vt 0.175001 0.950477
vt 0.500000 0.950477
vt 0.175001 0.647785
vt 0.825001 0.647785
vt 0.825001 0.647785
vt 0.175001 0.647785
vt 0.825001 0.684928
vt 0.175001 0.684928
vt 0.825001 0.684928
vt 0.175001 0.684928
vt 0.175001 0.304902
vt 0.825001 0.304902
vt 0.825001 0.304902
vt 0.175001 0.304902
vt 0.825001 0.342045
vt 0.175001 0.342045
vt 0.825001 0.342045
vt 0.175001 0.342045
vn 0.000000 0.000000 1.000000
vn 0.000000 0.000000 1.000000
vn 0.000000 0.000000 1.000000
vn 0.000000 0.000000 1.000000
vn 0.000000 1.000000 0.000000
vn 0.000000 1.000000 0.000000
vn 0.000000 1.000000 0.000000
vn 0.000000 1.000000 0.000000
vn -1.000000 0.000000 0.000000
vn -1.000000 0.000000 0.000000
vn -1.000000 0.000000 0.000000
vn -1.000000 0.000000 0.000000
vn 0.000000 -1.000000 0.000000
vn 0.000000 -1.000000 0.000000
vn 0.000000 -1.000000 0.000000
vn 0.000000 -1.000000 0.000000
vn 1.000000 0.000000 0.000000
vn 1.000000 0.000000 0.000000
vn 1.000000 0.000000 0.000000
vn 1.000000 0.000000 0.000000
vn 0.000000 1.000000 0.000000
vn 0.000000 1.000000 0.000000
vn 0.000000 1.000000 0.000000
vn 0.000000 1.000000 0.000000
vn 0.000000 -1.000000 0.000000
vn 0.000000 -1.000000 0.000000
vn 0.000000 -1.000000 0.000000
vn 0.000000 -1.000000 0.000000
vn -1.000000 0.000000 0.000000
vn -1.000000 0.000000 0.000000
vn -1.000000 0.000000 0.000000
vn -1.000000 0.000000 0.000000
vn 0.000000 1.000000 0.000000
vn 0.000000 1.000000 0.000000
vn 0.000000 1.000000 0.000000
vn 0.000000 1.000000 0.000000
vn 1.000000 0.000000 0.000000
vn 1.000000 0.000000 0.000000
vn 1.000000 0.000000 0.000000
vn 1.000000 0.000000 0.000000
vn 0.000000 -1.000000 0.000000
vn 0.000000 -1.000000 0.000000
vn 0.000000 -1.000000 0.000000
vn 0.000000 -1.000000 0.000000
vn 0.000000 -1.000000 0.000000
vn 0.000000 -1.000000 0.000000
vn 0.000000 -1.000000 0.000000
vn 0.000000 -1.000000 0.000000
vn 0.000000 0.000000 1.000000
vn 0.000000 0.000000 1.000000
vn 0.000000 0.000000 1.000000
vn 0.000000 0.000000 1.000000
vn 0.000000 1.000000 0.000000
vn 0.000000 1.000000 0.000000
vn 0.000000 1.000000 0.000000
vn 0.000000 1.000000 0.000000
vn 0.000000 -1.000000 0.000000
vn 0.000000 -1.000000 0.000000
vn 0.000000 -1.000000 0.000000
vn 0.000000 -1.000000 0.000000
vn 0.000000 0.000000 1.000000
vn 0.000000 0.000000 1.000000
vn 0.000000 0.000000 1.000000
vn 0.000000 0.000000 1.000000
vn 0.000000 1.000000 0.000000
vn 0.000000 1.000000 0.000000
vn 0.000000 1.000000 0.000000
vn 0.000000 1.000000 0.000000
vn 0.000000 0.000000 1.000000
vn 0.000000 0.000000 1.000000
vn 0.000000 0.000000 1.000000
vn 0.000000 0.000000 1.000000
vn 0.000000 0.000000 1.000000
vn 0.000000 0.000000 1.000000
vn 0.000000 0.000000 1.000000
vn 0.000000 0.000000 1.000000
vn 0.000000 0.000000 1.000000
vn 0.000000 0.000000 1.000000
vn 0.000000 0.000000 1.000000
vn 0.000000 0.000000 1.000000
vn 0.000000 0.000000 1.000000
vn 0.000000 0.000000 1.000000
vn 0.000000 0.000000 1.000000
vn 0.000000 0.000000 1.000000
s off
g windowFrame_6
usemtl initialShadingGroup1
f 20/8/1 17/5/2 18/6/3 19/7/4
f 1/13/5 2/14/6 14/2/7 13/1/8
f 2/14/9 3/15/10 15/3/11 14/2/12
f 3/15/13 4/16/14 16/4/15 15/3/16
f 4/16/17 5/17/18 17/5/19 16/4/20
f 5/17/21 6/18/22 18/6/23 17/5/24
f 7/19/25 8/20/26 20/8/27 19/7/28
f 8/20/29 9/21/30 21/9/31 20/8/32
f 9/21/33 10/22/34 22/10/35 21/9/36
f 10/22/37 11/23/38 23/11/39 22/10/40
f 11/23/41 12/24/42 24/12/43 23/11/44
f 25/25/45 26/26/46 28/27/47 27/28/48
f 27/28/49 28/27/50 30/29/51 29/30/52
f 29/30/53 30/29/54 32/31/55 31/32/56
f 33/33/57 34/34/58 36/35/59 35/36/60
f 35/36/61 36/35/62 38/37/63 37/38/64
f 37/38/65 38/37/66 40/39/67 39/40/68
f 21/9/69 16/4/70 17/5/71 20/8/72
f 22/10/73 15/3/74 16/4/75 21/9/76
f 23/11/77 14/2/78 15/3/79 22/10/80
f 13/1/81 14/2/82 23/11/83 24/12/84
