# This file uses meters as units for non-parametric coordinates.

v 7.500000 -49.400002 -9.400000
v 7.500000 49.400002 -9.400000
v 7.500000 49.400002 9.400000
v 7.500000 -49.400002 9.400000
v 6.900000 49.400002 10.000000
v -6.900000 49.400002 10.000000
v -6.900000 -49.400002 10.000000
v 6.900000 -49.400002 10.000000
v -6.900000 -50.000000 9.400000
v -6.900000 -50.000000 -9.400000
v 6.900000 -50.000000 -9.400000
v 6.900000 -50.000000 9.400000
v 6.900000 50.000000 -9.400000
v -6.900000 50.000000 -9.400000
v -6.900000 50.000000 9.400000
v 6.900000 50.000000 9.400000
v -7.500000 49.400002 9.400000
v -7.500000 49.400002 -9.400000
v -7.500000 -49.400002 -9.400000
v -7.500000 -49.400002 9.400000
v -6.900000 49.400002 -10.000000
v 6.900000 49.400002 -10.000000
v 6.900000 -49.400002 -10.000000
v -6.900000 -49.400002 -10.000000
vt 0.010001 0.278740
vt 0.994065 0.279377
vt 0.993946 0.503661
vt 0.009882 0.503025
vt 0.994069 0.271880
vt 0.993949 0.498929
vt 0.009885 0.498292
vt 0.010005 0.271243
vt 0.789890 0.474136
vt 0.602640 0.474015
vt 0.602727 0.309381
vt 0.789977 0.309502
vt 0.444255 0.309618
vt 0.444168 0.474252
vt 0.256917 0.474131
vt 0.257004 0.309497
vt 1.000041 0.278919
vt 0.999923 0.503203
vt 0.015859 0.502566
vt 0.015978 0.278282
vt 1.000045 0.271412
vt 0.999923 0.502142
vt 0.015859 0.501506
vt 0.015982 0.270775
vt 0.003906 0.503021
vt 0.004025 0.278737
vt 0.009878 0.510182
vt 0.993943 0.510819
vt 0.004029 0.271239
vt 0.003909 0.498288
vt 0.999923 0.503665
vt 1.000041 0.279381
vt 1.000045 0.271883
vt 0.999925 0.498933
vt 0.789887 0.481294
vt 0.602636 0.481173
vt 0.009880 0.508163
vt 0.993944 0.508800
vt 0.256913 0.481289
vt 0.444165 0.481410
vt 0.596663 0.474012
vt 0.596751 0.309377
vt 0.015855 0.509724
vt 0.999919 0.510361
vt 0.450145 0.474256
vt 0.450232 0.309622
vt 0.010005 0.271583
vt 0.994069 0.272219
vn 1.000000 -0.000000 0.000000
vn 1.000000 -0.000000 0.000000
vn 1.000000 -0.000000 0.000000
vn 1.000000 -0.000000 0.000000
vn 0.000000 0.000000 1.000000
vn 0.000000 0.000000 1.000000
vn 0.000000 0.000000 1.000000
vn 0.000000 0.000000 1.000000
vn -0.000000 -1.000000 0.000000
vn -0.000000 -1.000000 0.000000
vn -0.000000 -1.000000 0.000000
vn -0.000000 -1.000000 0.000000
vn 0.000000 1.000000 0.000000
vn 0.000000 1.000000 0.000000
vn 0.000000 1.000000 0.000000
vn 0.000000 1.000000 0.000000
vn -1.000000 0.000000 0.000000
vn -1.000000 0.000000 0.000000
vn -1.000000 0.000000 0.000000
vn -1.000000 0.000000 0.000000
vn 0.000000 0.000000 -1.000000
vn 0.000000 0.000000 -1.000000
vn 0.000000 0.000000 -1.000000
vn 0.000000 0.000000 -1.000000
vn 0.707105 -0.707108 0.000000
vn 0.707105 -0.707108 0.000000
vn 0.707105 -0.707108 0.000000
vn 0.707105 -0.707108 0.000000
vn 0.707107 -0.000000 0.707106
vn 0.707107 -0.000000 0.707106
vn 0.707107 -0.000000 0.707106
vn 0.707107 -0.000000 0.707106
vn -0.000000 -0.707108 0.707106
vn -0.000000 -0.707108 0.707106
vn -0.000000 -0.707108 0.707106
vn -0.000000 -0.707108 0.707106
vn 0.707107 0.707107 0.000000
vn 0.707107 0.707107 0.000000
vn 0.707107 0.707107 0.000000
vn 0.707107 0.707107 0.000000
vn 0.000000 0.707108 0.707106
vn 0.000000 0.707108 0.707106
vn 0.000000 0.707108 0.707106
vn 0.000000 0.707108 0.707106
vn -0.707107 -0.707107 -0.000000
vn -0.707107 -0.707107 -0.000000
vn -0.707107 -0.707107 -0.000000
vn -0.707107 -0.707107 -0.000000
vn -0.707107 0.000000 0.707106
vn -0.707107 0.000000 0.707106
vn -0.707107 0.000000 0.707106
vn -0.707107 0.000000 0.707106
vn -0.707105 0.707108 0.000000
vn -0.707105 0.707108 0.000000
vn -0.707105 0.707108 0.000000
vn -0.707105 0.707108 0.000000
vn -0.000000 -0.707108 -0.707106
vn -0.000000 -0.707108 -0.707106
vn -0.000000 -0.707108 -0.707106
vn -0.000000 -0.707108 -0.707106
vn -0.707107 0.000000 -0.707106
vn -0.707107 0.000000 -0.707106
vn -0.707107 0.000000 -0.707106
vn -0.707107 0.000000 -0.707106
vn 0.000000 0.707108 -0.707106
vn 0.000000 0.707108 -0.707106
vn 0.000000 0.707108 -0.707106
vn 0.000000 0.707108 -0.707106
vn 0.707107 -0.000000 -0.707106
vn 0.707107 -0.000000 -0.707106
vn 0.707107 -0.000000 -0.707106
vn 0.707107 -0.000000 -0.707106
vn 0.577350 -0.577351 0.577350
vn 0.577350 -0.577351 0.577350
vn 0.577350 -0.577351 0.577350
vn 0.577350 0.577351 0.577350
vn 0.577350 0.577351 0.577350
vn 0.577350 0.577351 0.577350
vn -0.577350 -0.577351 0.577350
vn -0.577350 -0.577351 0.577350
vn -0.577350 -0.577351 0.577350
vn -0.577350 0.577351 0.577350
vn -0.577350 0.577351 0.577350
vn -0.577350 0.577351 0.577350
vn -0.577348 -0.577352 -0.577350
vn -0.577348 -0.577352 -0.577350
vn -0.577348 -0.577352 -0.577350
vn -0.577348 0.577352 -0.577350
vn -0.577348 0.577352 -0.577350
vn -0.577348 0.577352 -0.577350
vn 0.577350 -0.577351 -0.577350
vn 0.577350 -0.577351 -0.577350
vn 0.577350 -0.577351 -0.577350
vn 0.577350 0.577351 -0.577350
vn 0.577350 0.577351 -0.577350
vn 0.577350 0.577351 -0.577350
g slat
f 1/1/1 2/2/2 3/3/3 4/4/4
f 5/5/5 6/6/6 7/7/7 8/8/8
f 9/9/9 10/10/10 11/11/11 12/12/12
f 13/13/13 14/14/14 15/15/15 16/16/16
f 17/17/17 18/18/18 19/19/19 20/20/20
f 21/21/21 22/22/22 23/23/23 24/24/24
f 4/4/25 12/25/26 11/26/27 1/1/28
f 8/27/29 4/4/30 3/3/31 5/28/32
f 12/29/33 8/8/34 7/7/35 9/30/36
f 16/31/37 3/3/38 2/2/39 13/32/40
f 5/5/41 16/33/42 15/34/43 6/6/44
f 9/9/45 20/35/46 19/36/47 10/10/48
f 20/37/49 7/7/50 6/6/51 17/38/52
f 17/39/53 15/15/54 14/14/55 18/40/56
f 10/10/57 24/41/58 23/42/59 11/11/60
f 24/43/61 19/19/62 18/18/63 21/44/64
f 21/45/65 14/14/66 13/13/67 22/46/68
f 1/1/69 23/47/70 22/48/71 2/2/72
f 12/25/73 4/4/74 8/27/75
f 3/3/76 16/31/77 5/28/78
f 20/37/79 9/30/80 7/7/81
f 15/34/82 17/38/83 6/6/84
f 24/41/85 10/10/86 19/36/87
f 14/14/88 21/45/89 18/40/90
f 1/1/91 11/26/92 23/47/93
f 13/32/94 2/2/95 22/48/96
