# This file uses meters as units for non-parametric coordinates.

v -50.000000 -6.900000 9.400000
v -49.400002 -7.500000 9.400000
v -49.400002 -6.900000 10.000000
v 49.400002 -7.500000 9.400000
v 50.000000 -6.900000 9.400000
v 49.400002 -6.900000 10.000000
v -49.400002 7.500000 9.400000
v -50.000000 6.900000 9.400000
v -49.400002 6.900000 10.000000
v 50.000000 6.900000 9.400000
v 49.400002 7.500000 9.400000
v 49.400002 6.900000 10.000000
v -49.400002 6.900000 -10.000000
v -50.000000 6.900000 -9.400000
v -49.400002 7.500000 -9.400000
v 50.000000 6.900000 -9.400000
v 49.400002 6.900000 -10.000000
v 49.400002 7.500000 -9.400000
v -49.400002 -7.500000 -9.400000
v -50.000000 -6.900000 -9.400000
v -49.400002 -6.900000 -10.000000
v 50.000000 -6.900000 -9.400000
v 49.400002 -7.500000 -9.400000
v 49.400002 -6.900000 -10.000000
vt 0.010001 0.278740
vt 0.994065 0.279377
vt 0.993946 0.503661
vt 0.009882 0.503025
vt 0.010005 0.271583
vt 0.994069 0.272219
vt 0.999923 0.503665
vt 1.000041 0.279381
vt 0.009878 0.510182
vt 0.993943 0.510819
vt 0.003906 0.503021
vt 0.004025 0.278737
vt 0.994069 0.271880
vt 0.993949 0.498929
vt 0.009885 0.498292
vt 0.010005 0.271243
vt 1.000045 0.271883
vt 0.999925 0.498933
vt 0.009880 0.508163
vt 0.993944 0.508800
vt 0.004029 0.271239
vt 0.003909 0.498288
vt 0.789890 0.474136
vt 0.602640 0.474015
vt 0.602727 0.309381
vt 0.789977 0.309502
vt 0.789887 0.481294
vt 0.602636 0.481173
vt 0.596663 0.474012
vt 0.596751 0.309377
vt 0.444255 0.309618
vt 0.444168 0.474252
vt 0.256917 0.474131
vt 0.257004 0.309497
vt 0.450145 0.474256
vt 0.450232 0.309622
vt 0.256913 0.481289
vt 0.444165 0.481410
vt 1.000041 0.278919
vt 0.999923 0.503203
vt 0.015859 0.502566
vt 0.015978 0.278282
vt 0.015855 0.509724
vt 0.999919 0.510361
vt 1.000045 0.271412
vt 0.999923 0.502142
vt 0.015859 0.501506
vt 0.015982 0.270775
vn 0.000000 -1.000000 -0.000000
vn 0.000000 -1.000000 -0.000000
vn 0.000000 -1.000000 -0.000000
vn 0.000000 -1.000000 -0.000000
vn 0.000000 0.000000 1.000000
vn 0.000000 0.000000 1.000000
vn 0.000000 0.000000 1.000000
vn 0.000000 0.000000 1.000000
vn -1.000000 0.000000 0.000000
vn -1.000000 0.000000 0.000000
vn -1.000000 0.000000 0.000000
vn -1.000000 0.000000 0.000000
vn 1.000000 0.000000 0.000000
vn 1.000000 0.000000 0.000000
vn 1.000000 0.000000 0.000000
vn 1.000000 0.000000 0.000000
vn 0.000000 1.000000 -0.000000
vn 0.000000 1.000000 -0.000000
vn 0.000000 1.000000 -0.000000
vn 0.000000 1.000000 -0.000000
vn 0.000000 0.000000 -1.000000
vn 0.000000 0.000000 -1.000000
vn 0.000000 0.000000 -1.000000
vn 0.000000 0.000000 -1.000000
vn -0.707108 -0.707105 -0.000000
vn -0.707108 -0.707105 -0.000000
vn -0.707108 -0.707105 -0.000000
vn -0.707108 -0.707105 -0.000000
vn -0.000000 -0.707107 0.707106
vn -0.000000 -0.707107 0.707106
vn -0.000000 -0.707107 0.707106
vn -0.000000 -0.707107 0.707106
vn -0.707108 -0.000000 0.707106
vn -0.707108 -0.000000 0.707106
vn -0.707108 -0.000000 0.707106
vn -0.707108 -0.000000 0.707106
vn 0.707107 -0.707107 -0.000000
vn 0.707107 -0.707107 -0.000000
vn 0.707107 -0.707107 -0.000000
vn 0.707107 -0.707107 -0.000000
vn 0.707108 -0.000000 0.707106
vn 0.707108 -0.000000 0.707106
vn 0.707108 -0.000000 0.707106
vn 0.707108 -0.000000 0.707106
vn -0.707107 0.707107 -0.000000
vn -0.707107 0.707107 -0.000000
vn -0.707107 0.707107 -0.000000
vn -0.707107 0.707107 -0.000000
vn -0.000000 0.707107 0.707106
vn -0.000000 0.707107 0.707106
vn -0.000000 0.707107 0.707106
vn -0.000000 0.707107 0.707106
vn 0.707108 0.707105 -0.000000
vn 0.707108 0.707105 -0.000000
vn 0.707108 0.707105 -0.000000
vn 0.707108 0.707105 -0.000000
vn -0.707108 0.000000 -0.707106
vn -0.707108 0.000000 -0.707106
vn -0.707108 0.000000 -0.707106
vn -0.707108 0.000000 -0.707106
vn -0.000000 0.707107 -0.707106
vn -0.000000 0.707107 -0.707106
vn -0.000000 0.707107 -0.707106
vn -0.000000 0.707107 -0.707106
vn 0.707108 0.000000 -0.707106
vn 0.707108 0.000000 -0.707106
vn 0.707108 0.000000 -0.707106
vn 0.707108 0.000000 -0.707106
vn -0.000000 -0.707107 -0.707106
vn -0.000000 -0.707107 -0.707106
vn -0.000000 -0.707107 -0.707106
vn -0.000000 -0.707107 -0.707106
vn -0.577351 -0.577350 0.577350
vn -0.577351 -0.577350 0.577350
vn -0.577351 -0.577350 0.577350
vn 0.577351 -0.577350 0.577350
vn 0.577351 -0.577350 0.577350
vn 0.577351 -0.577350 0.577350
vn -0.577351 0.577350 0.577350
vn -0.577351 0.577350 0.577350
vn -0.577351 0.577350 0.577350
vn 0.577351 0.577350 0.577350
vn 0.577351 0.577350 0.577350
vn 0.577351 0.577350 0.577350
vn -0.577352 0.577348 -0.577350
vn -0.577352 0.577348 -0.577350
vn -0.577352 0.577348 -0.577350
vn 0.577352 0.577348 -0.577350
vn 0.577352 0.577348 -0.577350
vn 0.577352 0.577348 -0.577350
vn -0.577351 -0.577350 -0.577350
vn -0.577351 -0.577350 -0.577350
vn -0.577351 -0.577350 -0.577350
vn 0.577351 -0.577350 -0.577350
vn 0.577351 -0.577350 -0.577350
vn 0.577351 -0.577350 -0.577350
g slat
f 19/1/1 23/2/2 4/3/3 2/4/4
f 6/13/5 12/14/6 9/15/7 3/16/8
f 8/23/9 14/24/10 20/25/11 1/26/12
f 22/31/13 16/32/14 10/33/15 5/34/16
f 11/39/17 18/40/18 15/41/19 7/42/20
f 17/45/21 24/46/22 21/47/23 13/48/24
f 2/4/25 1/11/26 20/12/27 19/1/28
f 3/9/29 2/4/30 4/3/31 6/10/32
f 1/21/33 3/16/34 9/15/35 8/22/36
f 5/7/37 4/3/38 23/2/39 22/8/40
f 6/13/41 5/17/42 10/18/43 12/14/44
f 8/23/45 7/27/46 15/28/47 14/24/48
f 7/19/49 9/15/50 12/14/51 11/20/52
f 11/37/53 10/33/54 16/32/55 18/38/56
f 14/24/57 13/29/58 21/30/59 20/25/60
f 13/43/61 15/41/62 18/40/63 17/44/64
f 17/35/65 16/32/66 22/31/67 24/36/68
f 19/1/69 21/5/70 24/6/71 23/2/72
f 1/11/73 2/4/74 3/9/75
f 4/3/76 5/7/77 6/10/78
f 7/19/79 8/22/80 9/15/81
f 10/18/82 11/20/83 12/14/84
f 13/29/85 14/24/86 15/28/87
f 16/32/88 17/35/89 18/38/90
f 19/1/91 20/12/92 21/5/93
f 22/8/94 23/2/95 24/6/96
