# This file uses meters as units for non-parametric coordinates.

v -50.000000 -6.900000 9.400000
v -49.400002 -7.500000 9.400000
v -49.400002 -6.900000 10.000000
v 49.400002 -7.500000 9.400000
v 50.000000 -6.900000 9.400000
v 49.400002 -6.900000 10.000000
v -49.400002 7.500000 9.400000
v -50.000000 6.900000 9.400000
v -49.400002 6.900000 10.000000
v 50.000000 6.900000 9.400000
v 49.400002 7.500000 9.400000
v 49.400002 6.900000 10.000000
v -49.400002 6.900000 -10.000000
v -50.000000 6.900000 -9.400000
v -49.400002 7.500000 -9.400000
v 50.000000 6.900000 -9.400000
v 49.400002 6.900000 -10.000000
v 49.400002 7.500000 -9.400000
v -49.400002 -7.500000 -9.400000
v -50.000000 -6.900000 -9.400000
v -49.400002 -6.900000 -10.000000
v 50.000000 -6.900000 -9.400000
v 49.400002 -7.500000 -9.400000
v 49.400002 -6.900000 -10.000000
vt 0.010001 0.790035
vt 0.994065 0.790617
vt 0.993946 0.995355
vt 0.009882 0.994775
vt 0.010005 0.783501
vt 0.994069 0.784082
vt 0.999923 0.995359
vt 1.000041 0.790620
vt 0.009878 1.001308
vt 0.993943 1.001890
vt 0.003906 0.994771
vt 0.004025 0.790032
vt 0.994069 0.783772
vt 0.993949 0.991035
vt 0.009885 0.990454
vt 0.010005 0.783191
vt 1.000045 0.783776
vt 0.999925 0.991039
vt 0.009880 0.999465
vt 0.993944 1.000046
vt 0.004029 0.783188
vt 0.003909 0.990451
vt 0.789890 0.968404
vt 0.602640 0.968293
vt 0.602727 0.818006
vt 0.789977 0.818116
vt 0.789887 0.974938
vt 0.602636 0.974827
vt 0.596663 0.968290
vt 0.596751 0.818002
vt 0.444255 0.818222
vt 0.444168 0.968509
vt 0.256917 0.968399
vt 0.257004 0.818112
vt 0.450145 0.968512
vt 0.450232 0.818226
vt 0.256913 0.974933
vt 0.444165 0.975043
vt 1.000041 0.790198
vt 0.999923 0.994937
vt 0.015859 0.994355
vt 0.015978 0.789617
vt 0.015855 1.000890
vt 0.999919 1.001471
vt 1.000045 0.783345
vt 0.999923 0.993969
vt 0.015859 0.993388
vt 0.015982 0.782764
vn 0.000000 -1.000000 -0.000000
vn 0.000000 -1.000000 -0.000000
vn 0.000000 -1.000000 -0.000000
vn 0.000000 -1.000000 -0.000000
vn 0.000000 0.000000 1.000000
vn 0.000000 0.000000 1.000000
vn 0.000000 0.000000 1.000000
vn 0.000000 0.000000 1.000000
vn -1.000000 0.000000 0.000000
vn -1.000000 0.000000 0.000000
vn -1.000000 0.000000 0.000000
vn -1.000000 0.000000 0.000000
vn 1.000000 0.000000 0.000000
vn 1.000000 0.000000 0.000000
vn 1.000000 0.000000 0.000000
vn 1.000000 0.000000 0.000000
vn 0.000000 1.000000 -0.000000
vn 0.000000 1.000000 -0.000000
vn 0.000000 1.000000 -0.000000
vn 0.000000 1.000000 -0.000000
vn 0.000000 0.000000 -1.000000
vn 0.000000 0.000000 -1.000000
vn 0.000000 0.000000 -1.000000
vn 0.000000 0.000000 -1.000000
vn -0.707108 -0.707105 -0.000000
vn -0.707108 -0.707105 -0.000000
vn -0.707108 -0.707105 -0.000000
vn -0.707108 -0.707105 -0.000000
vn -0.000000 -0.707107 0.707106
vn -0.000000 -0.707107 0.707106
vn -0.000000 -0.707107 0.707106
vn -0.000000 -0.707107 0.707106
vn -0.707108 -0.000000 0.707106
vn -0.707108 -0.000000 0.707106
vn -0.707108 -0.000000 0.707106
vn -0.707108 -0.000000 0.707106
vn 0.707107 -0.707107 -0.000000
vn 0.707107 -0.707107 -0.000000
vn 0.707107 -0.707107 -0.000000
vn 0.707107 -0.707107 -0.000000
vn 0.707108 -0.000000 0.707106
vn 0.707108 -0.000000 0.707106
vn 0.707108 -0.000000 0.707106
vn 0.707108 -0.000000 0.707106
vn -0.707107 0.707107 -0.000000
vn -0.707107 0.707107 -0.000000
vn -0.707107 0.707107 -0.000000
vn -0.707107 0.707107 -0.000000
vn -0.000000 0.707107 0.707106
vn -0.000000 0.707107 0.707106
vn -0.000000 0.707107 0.707106
vn -0.000000 0.707107 0.707106
vn 0.707108 0.707105 -0.000000
vn 0.707108 0.707105 -0.000000
vn 0.707108 0.707105 -0.000000
vn 0.707108 0.707105 -0.000000
vn -0.707108 0.000000 -0.707106
vn -0.707108 0.000000 -0.707106
vn -0.707108 0.000000 -0.707106
vn -0.707108 0.000000 -0.707106
vn -0.000000 0.707107 -0.707106
vn -0.000000 0.707107 -0.707106
vn -0.000000 0.707107 -0.707106
vn -0.000000 0.707107 -0.707106
vn 0.707108 0.000000 -0.707106
vn 0.707108 0.000000 -0.707106
vn 0.707108 0.000000 -0.707106
vn 0.707108 0.000000 -0.707106
vn -0.000000 -0.707107 -0.707106
vn -0.000000 -0.707107 -0.707106
vn -0.000000 -0.707107 -0.707106
vn -0.000000 -0.707107 -0.707106
vn -0.577351 -0.577350 0.577350
vn -0.577351 -0.577350 0.577350
vn -0.577351 -0.577350 0.577350
vn 0.577351 -0.577350 0.577350
vn 0.577351 -0.577350 0.577350
vn 0.577351 -0.577350 0.577350
vn -0.577351 0.577350 0.577350
vn -0.577351 0.577350 0.577350
vn -0.577351 0.577350 0.577350
vn 0.577351 0.577350 0.577350
vn 0.577351 0.577350 0.577350
vn 0.577351 0.577350 0.577350
vn -0.577352 0.577348 -0.577350
vn -0.577352 0.577348 -0.577350
vn -0.577352 0.577348 -0.577350
vn 0.577352 0.577348 -0.577350
vn 0.577352 0.577348 -0.577350
vn 0.577352 0.577348 -0.577350
vn -0.577351 -0.577350 -0.577350
vn -0.577351 -0.577350 -0.577350
vn -0.577351 -0.577350 -0.577350
vn 0.577351 -0.577350 -0.577350
vn 0.577351 -0.577350 -0.577350
vn 0.577351 -0.577350 -0.577350
g slat
f 19/1/1 23/2/2 4/3/3 2/4/4
f 6/13/5 12/14/6 9/15/7 3/16/8
f 8/23/9 14/24/10 20/25/11 1/26/12
f 22/31/13 16/32/14 10/33/15 5/34/16
f 11/39/17 18/40/18 15/41/19 7/42/20
f 17/45/21 24/46/22 21/47/23 13/48/24
f 2/4/25 1/11/26 20/12/27 19/1/28
f 3/9/29 2/4/30 4/3/31 6/10/32
f 1/21/33 3/16/34 9/15/35 8/22/36
f 5/7/37 4/3/38 23/2/39 22/8/40
f 6/13/41 5/17/42 10/18/43 12/14/44
f 8/23/45 7/27/46 15/28/47 14/24/48
f 7/19/49 9/15/50 12/14/51 11/20/52
f 11/37/53 10/33/54 16/32/55 18/38/56
f 14/24/57 13/29/58 21/30/59 20/25/60
f 13/43/61 15/41/62 18/40/63 17/44/64
f 17/35/65 16/32/66 22/31/67 24/36/68
f 19/1/69 21/5/70 24/6/71 23/2/72
f 1/11/73 2/4/74 3/9/75
f 4/3/76 5/7/77 6/10/78
f 7/19/79 8/22/80 9/15/81
f 10/18/82 11/20/83 12/14/84
f 13/29/85 14/24/86 15/28/87
f 16/32/88 17/35/89 18/38/90
f 19/1/91 20/12/92 21/5/93
f 22/8/94 23/2/95 24/6/96
