# This file uses meters as units for non-parametric coordinates.

v 0.387232 -0.035654 -0.036186
v 0.387232 0.035654 -0.036186
v -0.387232 0.035654 -0.036186
v -0.387232 -0.035654 -0.036186
v -0.387232 0.035654 -0.098207
v -0.387232 -0.035654 -0.098207
v 0.387232 0.035654 -0.098207
v 0.387232 -0.035654 -0.098207
v -0.067837 -0.387232 -0.036186
v 0.067837 -0.387232 -0.036186
v 0.067837 0.387232 -0.036186
v -0.067837 0.387232 -0.036186
v 0.067837 0.387232 -0.098207
v -0.067837 0.387232 -0.098207
v 0.067837 -0.387232 -0.098207
v -0.067837 -0.387232 -0.098207
v 0.071015 0.000000 -0.091586
v 0.071015 0.000000 -0.029364
v 0.389061 -0.318046 -0.029364
v 0.389061 -0.318046 -0.091586
v 0.000000 0.071015 -0.091586
v -0.318046 0.389061 -0.091586
v -0.318046 0.389061 -0.029364
v 0.000000 0.071015 -0.029364
v -0.071015 0.000000 -0.029364
v -0.389061 0.318046 -0.029364
v -0.389061 0.318046 -0.091586
v -0.071015 0.000000 -0.091586
v 0.000000 -0.071015 -0.029364
v 0.000000 -0.071015 -0.091586
v 0.318046 -0.389061 -0.091586
v 0.318046 -0.389061 -0.029364
v 0.387034 0.389878 -0.091586
v 0.387034 0.389878 -0.029364
v 0.389061 0.318046 -0.029364
v 0.389061 0.318046 -0.091586
v 0.318046 0.389061 -0.029364
v 0.318046 0.389061 -0.091586
v 0.034887 0.036128 -0.029364
v 0.034887 0.036128 -0.091586
v -0.388801 -0.389490 -0.029364
v -0.388801 -0.389490 -0.091586
v -0.318046 -0.389061 -0.091586
v -0.318046 -0.389061 -0.029364
v -0.035966 -0.035049 -0.091586
v -0.035966 -0.035049 -0.029364
v 0.389490 -0.388801 -0.029364
v 0.035049 -0.035966 -0.029364
v -0.036128 0.034887 -0.029364
v -0.389878 0.387034 -0.029364
v -0.389061 -0.318046 -0.091586
v -0.389061 -0.318046 -0.029364
v 0.389490 -0.388801 -0.091586
v 0.035049 -0.035966 -0.091586
v -0.036128 0.034887 -0.091586
v -0.389878 0.387034 -0.091586
vt 0.416050 1.517912
vt 0.664569 1.517912
vt 0.664569 1.766431
vt 0.416050 1.766431
vt 0.664569 2.014950
vt 0.416050 2.014950
vt 0.664569 2.263469
vt 0.416050 2.263469
vt 0.664569 2.511988
vt 0.416050 2.511988
vt 0.913088 1.517912
vt 0.913088 1.766431
vt 0.167531 1.517912
vt 0.167531 1.766431
vt 0.416050 1.517912
vt 0.664569 1.517912
vt 0.664569 1.766431
vt 0.416050 1.766431
vt 0.664569 2.014950
vt 0.416050 2.014950
vt 0.664569 2.263469
vt 0.416050 2.263469
vt 0.664569 2.511988
vt 0.416050 2.511988
vt 0.913088 1.517912
vt 0.913088 1.766431
vt 0.167531 1.517912
vt 0.167531 1.766431
vt 0.913088 1.629692
vt 0.664569 1.629692
vt 0.664569 1.517912
vt 0.913088 1.517912
vt 0.913088 1.654651
vt 0.913088 1.766431
vt 0.664569 1.766431
vt 0.664569 1.654651
vt 0.416050 1.654651
vt 0.416050 1.766431
vt 0.167531 1.766431
vt 0.167531 1.654651
vt 0.416050 1.629692
vt 0.167531 1.629692
vt 0.167531 1.517912
vt 0.416050 1.517912
vt 0.550789 2.014950
vt 0.550789 1.766431
vt 0.664569 1.766431
vt 0.664569 2.014950
vt 0.416050 1.766431
vt 0.416050 2.014950
vt 0.550789 1.653630
vt 0.416050 1.654651
vt 0.667422 1.641970
vt 0.550789 1.653630
vt 0.913088 1.654651
vt 0.913088 1.766431
vt 0.664569 1.654651
vt 0.550789 2.127751
vt 0.664569 2.126730
vt 0.416050 2.126730
vt 0.550789 2.127751
vt 0.416050 1.654651
vt 0.167531 1.766431
vt 0.167531 1.654651
vt 0.550789 2.511988
vt 0.550789 2.263469
vt 0.664569 2.263469
vt 0.664569 2.511988
vt 0.664569 2.151689
vt 0.550789 2.150447
vt 0.550789 1.630934
vt 0.550789 1.517912
vt 0.664569 1.517912
vt 0.664569 1.629692
vt 1.693669 1.516675
vt 1.808836 1.516619
vt 0.664569 1.642010
vt 0.437895 1.653370
vt -0.701556 1.767031
vt -0.589128 1.744897
vt 0.437639 1.642246
vt 0.167531 1.629692
vt 0.167531 1.517912
vt 0.416050 1.517912
vt 0.416050 1.629692
vt 0.664569 1.629692
vt 0.913088 1.517912
vt 0.913088 1.629692
vt 0.416050 2.263469
vt 0.416050 2.511988
vt 0.550789 2.150447
vt 0.416050 2.151689
vt 0.416050 1.629692
vt 0.550790 1.630934
vt 0.550789 2.511988
vt 0.550789 2.263469
vt 0.664569 2.263469
vt 0.664569 2.511988
vt 0.550789 2.150447
vt 0.550789 2.127751
vt 0.550789 2.014950
vt 0.664569 2.014950
vt 0.664569 2.126730
vt 0.667167 2.150536
vt 0.664569 2.151689
vt 0.550789 1.766431
vt 0.550789 1.653630
vt 0.550789 1.630934
vt 0.550789 1.517912
vt 0.666902 1.619326
vt 0.664569 1.642390
vt 0.667422 1.641970
vt 0.416050 2.263469
vt 0.416050 2.511988
vt 0.416050 2.014950
vt 0.550789 2.127751
vt 0.550789 2.150447
vt 0.416050 2.151689
vt 0.416050 2.139048
vt 0.413200 2.116360
vn 0.000000 0.000000 1.000000
vn 0.000000 0.000000 1.000000
vn 0.000000 0.000000 1.000000
vn 0.000000 0.000000 1.000000
vn -1.000000 0.000000 0.000000
vn -1.000000 0.000000 0.000000
vn -1.000000 0.000000 0.000000
vn -1.000000 0.000000 0.000000
vn 0.000000 0.000000 -1.000000
vn 0.000000 0.000000 -1.000000
vn 0.000000 0.000000 -1.000000
vn 0.000000 0.000000 -1.000000
vn 1.000000 0.000000 0.000000
vn 1.000000 0.000000 0.000000
vn 1.000000 0.000000 0.000000
vn 1.000000 0.000000 0.000000
vn 0.000000 1.000000 0.000000
vn 0.000000 1.000000 0.000000
vn 0.000000 1.000000 0.000000
vn 0.000000 1.000000 0.000000
vn 0.000000 -1.000000 0.000000
vn 0.000000 -1.000000 0.000000
vn 0.000000 -1.000000 0.000000
vn 0.000000 -1.000000 0.000000
vn 0.000000 0.000000 1.000000
vn 0.000000 0.000000 1.000000
vn 0.000000 0.000000 1.000000
vn 0.000000 0.000000 1.000000
vn 0.000000 1.000000 0.000000
vn 0.000000 1.000000 0.000000
vn 0.000000 1.000000 0.000000
vn 0.000000 1.000000 0.000000
vn 0.000000 0.000000 -1.000000
vn 0.000000 0.000000 -1.000000
vn 0.000000 0.000000 -1.000000
vn 0.000000 0.000000 -1.000000
vn 0.000000 -1.000000 0.000000
vn 0.000000 -1.000000 0.000000
vn 0.000000 -1.000000 0.000000
vn 0.000000 -1.000000 0.000000
vn 1.000000 0.000000 0.000000
vn 1.000000 0.000000 0.000000
vn 1.000000 0.000000 0.000000
vn 1.000000 0.000000 0.000000
vn -1.000000 0.000000 0.000000
vn -1.000000 0.000000 0.000000
vn -1.000000 0.000000 0.000000
vn -1.000000 0.000000 0.000000
vn 0.707107 0.707107 0.000000
vn 0.707107 0.707107 0.000000
vn 0.707107 0.707107 0.000000
vn 0.707107 0.707107 0.000000
vn 0.707107 0.707107 0.000000
vn 0.707107 0.707107 0.000000
vn 0.707107 0.707107 0.000000
vn 0.707107 0.707107 0.000000
vn -0.707107 -0.707107 0.000000
vn -0.707107 -0.707107 0.000000
vn -0.707107 -0.707107 0.000000
vn -0.707107 -0.707107 0.000000
vn -0.707107 -0.707107 0.000000
vn -0.707107 -0.707107 0.000000
vn -0.707107 -0.707107 0.000000
vn -0.707107 -0.707107 0.000000
vn 0.999602 0.028206 0.000000
vn 0.999602 0.028206 0.000000
vn 0.999602 0.028206 0.000000
vn 0.999602 0.028206 0.000000
vn -0.011841 0.999930 0.000000
vn -0.011841 0.999930 0.000000
vn -0.011841 0.999930 0.000000
vn -0.011841 0.999930 0.000000
vn 0.000000 0.000000 1.000000
vn 0.000000 0.000000 1.000000
vn 0.000000 0.000000 1.000000
vn 0.000000 0.000000 1.000000
vn 0.000000 0.000000 1.000000
vn 0.000000 0.000000 1.000000
vn 0.000000 0.000000 1.000000
vn 0.000000 0.000000 1.000000
vn 0.707107 -0.707107 0.000000
vn 0.707107 -0.707107 0.000000
vn 0.707107 -0.707107 0.000000
vn 0.707107 -0.707107 0.000000
vn 0.000000 0.000000 -1.000000
vn 0.000000 0.000000 -1.000000
vn 0.000000 0.000000 -1.000000
vn 0.000000 0.000000 -1.000000
vn 0.000000 0.000000 -1.000000
vn 0.000000 0.000000 -1.000000
vn 0.000000 0.000000 -1.000000
vn 0.000000 0.000000 -1.000000
vn -0.707107 0.707107 0.000000
vn -0.707107 0.707107 0.000000
vn -0.707107 0.707107 0.000000
vn -0.707107 0.707107 0.000000
vn 0.006067 -0.999982 0.000000
vn 0.006067 -0.999982 0.000000
vn 0.006067 -0.999982 0.000000
vn 0.006067 -0.999982 0.000000
vn 0.000000 0.000000 -1.000000
vn 0.000000 0.000000 -1.000000
vn 0.000000 0.000000 -1.000000
vn 0.000000 0.000000 -1.000000
vn 0.000000 0.000000 1.000000
vn 0.000000 0.000000 1.000000
vn 0.000000 0.000000 1.000000
vn 0.000000 0.000000 1.000000
vn 0.000000 0.000000 1.000000
vn 0.000000 0.000000 1.000000
vn 0.000000 0.000000 1.000000
vn 0.000000 0.000000 1.000000
vn 0.000000 0.000000 1.000000
vn 0.000000 0.000000 1.000000
vn 0.000000 0.000000 1.000000
vn -0.707107 0.707107 0.000000
vn -0.707107 0.707107 0.000000
vn -0.707107 0.707107 0.000000
vn -0.707107 0.707107 0.000000
vn 0.707107 -0.707107 0.000000
vn 0.707107 -0.707107 0.000000
vn 0.707107 -0.707107 0.000000
vn 0.707107 -0.707107 0.000000
vn -0.999993 -0.003642 0.000000
vn -0.999993 -0.003642 0.000000
vn -0.999993 -0.003642 0.000000
vn -0.999993 -0.003642 0.000000
vn 0.000000 0.000000 -1.000000
vn 0.000000 0.000000 -1.000000
vn 0.000000 0.000000 -1.000000
vn 0.000000 0.000000 -1.000000
vn 0.000000 0.000000 1.000000
vn 0.000000 0.000000 1.000000
vn 0.000000 0.000000 1.000000
vn 0.000000 0.000000 1.000000
vn 0.999982 0.006067 0.000000
vn 0.999982 0.006067 0.000000
vn 0.999982 0.006067 0.000000
vn 0.999982 0.006067 0.000000
vn 0.000000 0.000000 -1.000000
vn 0.000000 0.000000 -1.000000
vn 0.000000 0.000000 -1.000000
vn 0.000000 0.000000 -1.000000
vn 0.000000 0.000000 -1.000000
vn 0.000000 0.000000 -1.000000
vn 0.000000 0.000000 -1.000000
vn 0.000000 0.000000 -1.000000
vn 0.000000 0.000000 -1.000000
vn -0.028206 0.999602 0.000000
vn -0.028206 0.999602 0.000000
vn -0.028206 0.999602 0.000000
vn -0.028206 0.999602 0.000000
vn 0.000000 0.000000 1.000000
vn 0.000000 0.000000 1.000000
vn 0.000000 0.000000 1.000000
vn 0.000000 0.000000 1.000000
vn 0.000000 0.000000 1.000000
vn 0.000000 0.000000 1.000000
vn 0.000000 0.000000 1.000000
vn 0.000000 0.000000 1.000000
vn 0.000000 0.000000 1.000000
vn 0.003642 -0.999993 0.000000
vn 0.003642 -0.999993 0.000000
vn 0.003642 -0.999993 0.000000
vn 0.003642 -0.999993 0.000000
vn 0.000000 0.000000 -1.000000
vn 0.000000 0.000000 -1.000000
vn 0.000000 0.000000 -1.000000
vn 0.000000 0.000000 -1.000000
vn 0.000000 0.000000 -1.000000
vn 0.000000 0.000000 -1.000000
vn 0.000000 0.000000 -1.000000
vn 0.000000 0.000000 -1.000000
vn 0.000000 0.000000 -1.000000
vn -0.999930 -0.011841 0.000000
vn -0.999930 -0.011841 0.000000
vn -0.999930 -0.011841 0.000000
vn -0.999930 -0.011841 0.000000
g cross
f 1/1/1 2/2/2 3/3/3 4/4/4
f 4/4/5 3/3/6 5/5/7 6/6/8
f 6/6/9 5/5/10 7/7/11 8/8/12
f 8/8/13 7/7/14 2/9/15 1/10/16
f 2/2/17 7/11/18 5/12/19 3/3/20
f 8/13/21 1/1/22 4/4/23 6/14/24
f 9/15/25 10/16/26 11/17/27 12/18/28
f 12/18/29 11/17/30 13/19/31 14/20/32
f 14/20/33 13/19/34 15/21/35 16/22/36
f 16/22/37 15/21/38 10/23/39 9/24/40
f 10/16/41 15/25/42 13/26/43 11/17/44
f 16/27/45 9/15/46 12/18/47 14/28/48
f 17/29/49 18/30/50 19/31/51 20/32/52
f 21/33/53 22/34/54 23/35/55 24/36/56
f 25/37/57 26/38/58 27/39/59 28/40/60
f 29/41/61 30/42/62 31/43/63 32/44/64
f 33/45/65 34/46/66 35/47/67 36/48/68
f 37/49/69 34/46/70 33/45/71 38/50/72
f 39/51/73 34/46/74 37/49/75 24/52/76
f 18/53/77 35/47/78 34/46/79 39/54/80
f 17/55/81 36/56/82 35/47/83 18/57/84
f 40/58/85 33/45/86 36/48/87 17/59/88
f 21/60/89 38/50/90 33/45/91 40/61/92
f 24/62/93 37/49/94 38/63/95 21/64/96
f 41/65/97 42/66/98 43/67/99 44/68/100
f 30/69/101 43/67/102 42/66/103 45/70/104
f 46/71/105 41/72/106 44/73/107 29/74/108 32/75/109 47/76/110 48/77/111 49/78/112 50/79/113 26/80/114 25/81/115
f 28/82/116 51/83/117 52/84/118 25/85/119
f 29/86/120 44/73/121 43/87/122 30/88/123
f 51/89/124 42/66/125 41/65/126 52/90/127
f 45/91/128 42/66/129 51/89/130 28/92/131
f 25/93/132 52/84/133 41/72/134 46/94/135
f 47/95/136 53/96/137 20/97/138 19/98/139
f 53/96/140 54/99/141 55/100/142 56/101/143 22/102/144 21/103/145 40/104/146 17/105/147 20/97/148
f 56/101/149 50/106/150 23/35/151 22/102/152
f 50/106/153 49/107/154 48/108/155 47/109/156 19/31/157 18/110/158 39/111/159 24/112/160 23/35/161
f 31/113/162 53/96/163 47/95/164 32/114/165
f 27/115/166 56/101/167 55/116/168 54/117/169 53/96/170 31/113/171 30/118/172 45/119/173 28/120/174
f 26/38/175 50/106/176 56/101/177 27/115/178
