# This file uses centimeters as units for non-parametric coordinates.

mtllib comble_2.mtl
v 0.000000 0.000000 -1.200000
v 1.782257 0.000000 -1.200000
v 1.742181 0.180166 -1.200000
v 1.599687 0.313753 -1.200000
v 1.363682 0.251412 -1.200000
v 1.145490 0.300395 -1.200000
v 0.976279 0.549758 -1.200000
v 0.931749 1.075202 -1.200000
v 0.878315 1.614005 -1.200000
v 0.758086 2.086015 -1.200000
v 0.553251 2.406625 -1.200000
v 0.308341 2.655988 -1.200000
v 0.000000 2.704970 -1.200000
v 0.000000 2.371001 -1.200000
v 0.254906 2.304208 -1.200000
v 0.477552 2.050391 -1.200000
v 0.606686 1.818840 -1.200000
v 0.713556 1.480418 -1.200000
v 0.740274 1.048485 -1.200000
v 0.673480 0.589834 -1.200000
v 0.562157 0.309300 -1.200000
v 0.392946 0.104466 -1.200000
v -1.782256 0.000000 -1.200000
v -1.742180 0.180166 -1.200000
v -1.599687 0.313753 -1.200000
v -1.363682 0.251412 -1.200000
v -1.145489 0.300395 -1.200000
v -0.976278 0.549758 -1.200000
v -0.931749 1.075202 -1.200000
v -0.878314 1.614005 -1.200000
v -0.758085 2.086015 -1.200000
v -0.553251 2.406625 -1.200000
v -0.308341 2.655988 -1.200000
v -0.254906 2.304208 -1.200000
v -0.477551 2.050391 -1.200000
v -0.606686 1.818840 -1.200000
v -0.713556 1.480418 -1.200000
v -0.740274 1.048485 -1.200000
v -0.673480 0.589834 -1.200000
v -0.562157 0.309300 -1.200000
v -0.392946 0.104466 -1.200000
v 0.000000 0.000000 0.000000
v 1.782257 0.000000 0.000000
v 1.742180 0.180166 0.000000
v 1.599687 0.313753 0.000000
v 1.363682 0.251412 0.000000
v 1.145489 0.300395 0.000000
v 0.976279 0.549758 0.000000
v 0.931749 1.075202 0.000000
v 0.878314 1.614005 0.000000
v 0.758086 2.086015 0.000000
v 0.553251 2.406625 0.000000
v 0.308341 2.655988 0.000000
v 0.000000 2.704970 0.000000
v 0.000000 2.371001 0.000000
v 0.254906 2.304208 0.000000
v 0.477552 2.050391 0.000000
v 0.606686 1.818840 0.000000
v 0.713556 1.480418 0.000000
v 0.740274 1.048485 0.000000
v 0.673480 0.589834 0.000000
v 0.562157 0.309300 0.000000
v 0.392946 0.104466 0.000000
v -0.392946 0.104466 0.000000
v -0.562157 0.309300 0.000000
v -0.673480 0.589834 0.000000
v -0.740274 1.048485 0.000000
v -0.713556 1.480418 0.000000
v -0.606686 1.818840 0.000000
v -0.477552 2.050391 0.000000
v -0.254906 2.304208 0.000000
v -0.308341 2.655988 0.000000
v -0.553251 2.406625 0.000000
v -0.758086 2.086015 0.000000
v -0.878314 1.614005 0.000000
v -0.931749 1.075202 0.000000
v -0.976278 0.549758 0.000000
v -1.145489 0.300395 0.000000
v -1.363682 0.251412 0.000000
v -1.599687 0.313753 0.000000
v -1.742180 0.180166 0.000000
v -1.782257 -0.000000 0.000000
v 0.000000 0.000000 -0.180179
v 0.392946 0.104466 -0.180179
v 0.562157 0.309300 -0.180179
v 0.673480 0.589834 -0.180179
v 0.740274 1.048485 -0.180179
v 0.713556 1.480418 -0.180179
v 0.606686 1.818840 -0.180179
v 0.477552 2.050391 -0.180179
v 0.254906 2.304208 -0.180179
v 0.000000 2.371001 -0.180179
v -0.254906 2.304208 -0.180179
v -0.477551 2.050391 -0.180179
v -0.606686 1.818840 -0.180179
v -0.713556 1.480418 -0.180179
v -0.740274 1.048485 -0.180179
v -0.673480 0.589834 -0.180179
v -0.562157 0.309300 -0.180179
v -0.392946 0.104466 -0.180179
vt 0.394419 0.003845
vt 0.782539 0.003845
vt 0.773812 0.064307
vt 0.742781 0.109138
vt 0.691387 0.088217
vt 0.643871 0.104654
vt 0.607022 0.188338
vt 0.597325 0.364672
vt 0.585688 0.545488
vt 0.559506 0.703889
vt 0.514900 0.811483
vt 0.461566 0.895166
vt 0.394419 0.911604
vt 0.394419 0.799528
vt 0.449929 0.777113
vt 0.498415 0.691935
vt 0.526536 0.614228
vt 0.549809 0.500658
vt 0.555628 0.355705
vt 0.541082 0.201787
vt 0.516839 0.107643
vt 0.479990 0.038903
vt 0.308847 0.038903
vt 0.271998 0.107643
vt 0.247756 0.201787
vt 0.233210 0.355705
vt 0.239028 0.500658
vt 0.262301 0.614228
vt 0.290423 0.691935
vt 0.338908 0.777113
vt 0.327272 0.895166
vt 0.273938 0.811483
vt 0.229331 0.703889
vt 0.203149 0.545488
vt 0.191512 0.364672
vt 0.181815 0.188338
vt 0.144966 0.104654
vt 0.097451 0.088217
vt 0.046056 0.109138
vt 0.015026 0.064307
vt 0.006298 0.003845
vt 0.394419 0.003845
vt 0.782539 0.003845
vt 0.609228 0.975558
vt 0.609228 0.943887
vt 1.096570 0.943887
vt 1.096570 0.975558
vt 0.609228 0.891431
vt 1.164283 0.000000
vt 1.164283 0.066605
vt 0.679125 0.066605
vt 0.679125 0.000000
vt 1.164283 0.203240
vt 1.164283 0.397491
vt 0.679125 0.397491
vt 0.679125 0.203240
vt 1.164283 0.596681
vt 0.679125 0.596681
vt 1.164283 0.771178
vt 0.679125 0.771178
vt 0.541082 0.201787
vt 0.516839 0.107643
vt 0.479990 0.038903
vt 0.308847 0.038903
vt 0.271998 0.107643
vt 0.247756 0.201787
vt 1.164283 0.889705
vt 0.679125 0.889705
vt 1.096570 0.891431
vt 0.609228 0.842935
vt 1.096570 0.842935
vt 0.609228 0.805325
vt 1.164283 0.876535
vt 1.164283 0.851842
vt 0.679125 0.851842
vt 0.679125 0.876535
vt 1.096570 0.805325
vt 0.609228 0.711301
vt 0.609228 0.656866
vt 1.096570 0.656866
vt 1.096570 0.711301
vt 0.006298 0.003845
vt 0.394419 0.003845
vt 0.479990 0.038903
vt 0.516839 0.107643
vt 0.541082 0.201787
vt 0.555628 0.355705
vt 0.549809 0.500658
vt 0.526536 0.614228
vt 0.498415 0.691935
vt 0.449929 0.777113
vt 0.394419 0.799528
vt 0.338908 0.777113
vt 0.290423 0.691935
vt 0.262301 0.614228
vt 0.239028 0.500658
vt 0.233210 0.355705
vt 0.247756 0.201787
vt 0.271998 0.107643
vt 0.308847 0.038903
vt 1.164283 0.758009
vt 0.679125 0.758009
vt 1.164283 0.672406
vt 0.679125 0.672406
vt 1.164283 0.547295
vt 0.679125 0.547295
vt 1.164283 0.387614
vt 0.679125 0.387614
vt 1.164283 0.218056
vt 0.679125 0.218056
vt 1.164283 0.218056
vt 1.164283 0.387614
vt 0.679125 0.387614
vt 0.679125 0.218056
vt 1.164283 0.547295
vt 0.679125 0.547295
vt 1.164283 0.672406
vt 0.679125 0.672406
vt 1.164283 0.758009
vt 0.679125 0.758009
vt 1.164283 0.851842
vt 0.679125 0.851842
vt 0.609228 0.588333
vt 1.096570 0.588333
vt 1.164283 0.889705
vt 0.679125 0.889705
vt 1.164283 0.771178
vt 0.679125 0.771178
vt 1.164283 0.596681
vt 0.679125 0.596681
vt 1.164283 0.397491
vt 0.679125 0.397491
vt 1.164283 0.203240
vt 0.679125 0.203240
vt 1.164283 0.066605
vt 1.164283 0.000000
vt 0.679125 0.000000
vt 0.679125 0.066605
vt 0.609228 0.519799
vt 1.096570 0.519799
vt 0.609228 0.465364
vt 1.096570 0.465364
vt 0.609228 0.371340
vt 0.609228 0.333731
vt 1.096570 0.333730
vt 1.096570 0.371340
vt 0.609228 0.285234
vt 1.096570 0.285234
vt 0.609228 0.232778
vt 1.096570 0.232778
vt 0.609228 0.201107
vt 1.096570 0.201107
vn -0.000001 -0.000000 1.000000
vn -0.000001 -0.000000 1.000000
vn -0.000001 -0.000000 1.000000
vn -0.000001 -0.000000 1.000000
vn -0.000001 -0.000000 1.000000
vn -0.000001 -0.000000 1.000000
vn -0.000001 -0.000000 1.000000
vn -0.000001 -0.000000 1.000000
vn -0.000001 -0.000000 1.000000
vn -0.000001 -0.000000 1.000000
vn -0.000001 -0.000000 1.000000
vn -0.000001 -0.000000 1.000000
vn -0.000001 -0.000000 1.000000
vn -0.000001 -0.000000 1.000000
vn -0.000001 -0.000000 1.000000
vn -0.000001 -0.000000 1.000000
vn -0.000001 -0.000000 1.000000
vn -0.000001 -0.000000 1.000000
vn -0.000001 -0.000000 1.000000
vn -0.000001 -0.000000 1.000000
vn -0.000001 -0.000000 1.000000
vn -0.000001 -0.000000 1.000000
vn 0.000000 -0.000000 1.000000
vn 0.000000 -0.000000 1.000000
vn 0.000000 -0.000000 1.000000
vn 0.000000 -0.000000 1.000000
vn 0.000000 -0.000000 1.000000
vn 0.000000 -0.000000 1.000000
vn 0.000000 -0.000000 1.000000
vn 0.000000 -0.000000 1.000000
vn 0.000000 -0.000000 1.000000
vn 0.000000 -0.000000 1.000000
vn 0.000000 -0.000000 1.000000
vn 0.000000 -0.000000 1.000000
vn 0.000000 -0.000000 1.000000
vn 0.000000 -0.000000 1.000000
vn 0.000000 -0.000000 1.000000
vn 0.000000 -0.000000 1.000000
vn 0.000000 -0.000000 1.000000
vn 0.000000 -0.000000 1.000000
vn 0.000000 -0.000000 1.000000
vn 0.000000 -0.000000 1.000000
vn 0.000000 -0.000000 1.000000
vn 0.000000 -0.000000 1.000000
vn 0.000000 -1.000000 0.000000
vn 0.780107 -0.625646 0.000000
vn 0.780107 -0.625646 0.000000
vn 0.000000 -1.000000 0.000000
vn 0.868682 0.495370 0.000000
vn 0.868682 0.495370 0.000000
vn 0.244933 0.969540 0.000000
vn 0.244933 0.969540 0.000000
vn -0.018710 0.999825 -0.000000
vn -0.018710 0.999825 -0.000000
vn 0.562753 0.826625 0.000000
vn 0.562753 0.826625 0.000000
vn 0.942631 0.333837 0.000000
vn 0.942631 0.333837 0.000000
vn 0.995799 0.091568 0.000000
vn 0.995799 0.091568 0.000000
vn 0.984877 0.173253 0.000000
vn 0.984877 0.173253 0.000000
vn 0.917531 0.397664 0.000000
vn 0.917531 0.397664 0.000000
vn 0.782293 0.622910 0.000000
vn 0.782293 0.622910 0.000000
vn 0.458204 0.888847 -0.000000
vn 0.458204 0.888847 -0.000000
vn 0.000000 1.000000 -0.000000
vn 0.000000 1.000000 -0.000000
vn 0.000000 -1.000000 -0.000000
vn -0.525667 -0.850690 -0.000000
vn -0.525667 -0.850690 -0.000000
vn 0.000000 -1.000000 -0.000000
vn -0.817119 -0.576469 -0.000000
vn -0.817119 -0.576469 -0.000000
vn -0.918192 -0.396136 -0.000000
vn -0.918192 -0.396136 -0.000000
vn -0.983151 -0.182794 -0.000000
vn -0.983151 -0.182794 -0.000000
vn -0.999142 0.041407 -0.000000
vn -0.999142 0.041407 -0.000000
vn -0.966083 0.258231 -0.000000
vn -0.966083 0.258231 -0.000000
vn -0.860724 0.509072 -0.000000
vn -0.860724 0.509072 -0.000000
vn -0.539713 0.841849 -0.000000
vn -0.539713 0.841849 -0.000000
vn -0.256929 0.966430 -0.000000
vn -0.256929 0.966430 -0.000000
vn 0.256929 0.966430 0.000000
vn 0.539713 0.841849 0.000000
vn 0.539713 0.841849 0.000000
vn 0.256929 0.966430 0.000000
vn 0.860724 0.509072 0.000000
vn 0.860724 0.509072 0.000000
vn 0.966083 0.258231 0.000000
vn 0.966083 0.258231 0.000000
vn 0.999142 0.041407 0.000000
vn 0.999142 0.041407 0.000000
vn 0.983151 -0.182794 0.000000
vn 0.983151 -0.182794 0.000000
vn 0.918192 -0.396136 0.000000
vn 0.918192 -0.396136 0.000000
vn 0.817119 -0.576469 0.000000
vn 0.817119 -0.576469 0.000000
vn 0.525667 -0.850690 0.000000
vn 0.525667 -0.850690 0.000000
vn -0.458204 0.888847 -0.000000
vn -0.458204 0.888847 -0.000000
vn -0.782293 0.622910 -0.000000
vn -0.782293 0.622910 -0.000000
vn -0.917531 0.397664 -0.000000
vn -0.917531 0.397664 -0.000000
vn -0.984877 0.173253 -0.000000
vn -0.984877 0.173253 -0.000000
vn -0.995799 0.091568 -0.000000
vn -0.995799 0.091568 -0.000000
vn -0.942631 0.333837 -0.000000
vn -0.942631 0.333837 -0.000000
vn -0.562753 0.826625 -0.000000
vn -0.562753 0.826625 -0.000000
vn 0.018710 0.999825 0.000000
vn 0.018710 0.999825 0.000000
vn -0.244932 0.969540 -0.000000
vn -0.244932 0.969540 -0.000000
vn -0.868682 0.495370 -0.000000
vn -0.868682 0.495370 -0.000000
vn -0.780107 -0.625646 -0.000000
vn -0.780107 -0.625646 -0.000000
vn 0.000000 -1.000000 -0.000000
vn 0.000000 -1.000000 -0.000000
vn -0.000000 0.000000 1.000000
vn -0.000000 0.000000 1.000000
vn -0.000000 0.000000 1.000000
vn -0.000000 0.000000 1.000000
vn -0.000000 0.000000 1.000000
vn -0.000000 0.000000 1.000000
vn -0.000000 0.000000 1.000000
vn -0.000000 0.000000 1.000000
vn -0.000000 0.000000 1.000000
vn -0.000000 0.000000 1.000000
vn -0.000000 0.000000 1.000000
vn -0.000000 0.000000 1.000000
vn -0.000000 0.000000 1.000000
vn -0.000000 0.000000 1.000000
vn -0.000000 0.000000 1.000000
vn -0.000000 0.000000 1.000000
vn -0.000000 0.000000 1.000000
vn -0.000000 0.000000 1.000000
s off
g polySurface6
usemtl lambert4SG
f 42/1/1 43/2/2 44/3/3 45/4/4 46/5/5 47/6/6 48/7/7 49/8/8 50/9/9 51/10/10 52/11/11 53/12/12 54/13/13 55/14/14 56/15/15 57/16/16 58/17/17 59/18/18 60/19/19 61/20/20 62/21/21 63/22/22
f 42/1/23 64/23/24 65/24/25 66/25/26 67/26/27 68/27/28 69/28/29 70/29/30 71/30/31 55/14/32 54/13/33 72/31/34 73/32/35 74/33/36 75/34/37 76/35/38 77/36/39 78/37/40 79/38/41 80/39/42 81/40/43 82/41/44
s 1
f 1/42/45 2/43/46 43/2/47 42/1/48
f 2/49/46 3/50/49 44/51/50 43/52/47
f 3/44/49 4/45/51 45/46/52 44/47/50
f 4/45/51 5/48/53 46/69/54 45/46/52
f 5/48/53 6/70/55 47/71/56 46/69/54
f 6/70/55 7/72/57 48/77/58 47/71/56
f 7/53/57 8/54/59 49/55/60 48/56/58
f 8/54/59 9/57/61 50/58/62 49/55/60
f 9/57/61 10/59/63 51/60/64 50/58/62
f 10/59/63 11/67/65 52/68/66 51/60/64
f 11/78/65 12/79/67 53/80/68 52/81/66
f 12/79/67 13/123/69 54/124/70 53/80/68
s 2
f 14/73/71 15/74/72 56/75/73 55/76/74
f 15/74/72 16/101/75 57/102/76 56/75/73
f 16/101/75 17/103/77 58/104/78 57/102/76
f 17/103/77 18/105/79 59/106/80 58/104/78
f 18/105/79 19/107/81 60/108/82 59/106/80
f 19/107/81 20/109/83 61/110/84 60/108/82
f 20/61/83 21/62/85 62/21/86 61/20/84
f 21/62/85 22/63/87 63/22/88 62/21/86
f 22/63/87 1/42/89 42/1/90 63/22/88
f 1/42/91 41/64/92 64/23/93 42/1/94
f 41/64/92 40/65/95 65/24/96 64/23/93
f 40/65/95 39/66/97 66/25/98 65/24/96
f 39/111/97 38/112/99 67/113/100 66/114/98
f 38/112/99 37/115/101 68/116/102 67/113/100
f 37/115/101 36/117/103 69/118/104 68/116/102
f 36/117/103 35/119/105 70/120/106 69/118/104
f 35/119/105 34/121/107 71/122/108 70/120/106
f 34/121/107 14/73/71 55/76/74 71/122/108
s 1
f 13/123/69 33/139/109 72/140/110 54/124/70
f 33/139/109 32/141/111 73/142/112 72/140/110
f 32/125/111 31/127/113 74/128/114 73/126/112
f 31/127/113 30/129/115 75/130/116 74/128/114
f 30/129/115 29/131/117 76/132/118 75/130/116
f 29/131/117 28/133/119 77/134/120 76/132/118
f 28/143/119 27/144/121 78/145/122 77/146/120
f 27/144/121 26/147/123 79/148/124 78/145/122
f 26/147/123 25/149/125 80/150/126 79/148/124
f 25/149/125 24/151/127 81/152/128 80/150/126
f 24/135/127 23/136/129 82/137/130 81/138/128
f 23/82/129 1/42/131 42/1/132 82/41/130
s off
f 83/83/133 84/84/134 85/85/135 86/86/136 87/87/137 88/88/138 89/89/139 90/90/140 91/91/141 92/92/142 93/93/143 94/94/144 95/95/145 96/96/146 97/97/147 98/98/148 99/99/149 100/100/150
