# This file uses centimeters as units for non-parametric coordinates.

mtllib comble_1.mtl
v -0.000000 2.648015 -1.200000
v 0.206395 2.626747 -1.200000
v 0.397806 2.541675 -1.200000
v 0.582128 2.357353 -1.200000
v 0.702646 2.151764 -1.200000
v 0.994025 2.116317 -1.200000
v 0.817999 2.504595 -1.200000
v 0.672745 2.739566 -1.200000
v 0.459135 2.901909 -1.200000
v 0.241254 2.948903 -1.200000
v -0.000000 2.957447 -1.200000
v -0.206395 2.626747 -1.200000
v -0.397806 2.541675 -1.200000
v -0.582128 2.357353 -1.200000
v -0.702646 2.151764 -1.200000
v -0.994026 2.116317 -1.200000
v -0.817999 2.504595 -1.200000
v -0.672745 2.739566 -1.200000
v -0.459135 2.901909 -1.200000
v -0.241254 2.948903 -1.200000
v -0.000000 2.648015 0.195713
v 0.206395 2.626747 0.195713
v 0.397806 2.541675 0.195713
v 0.582128 2.357353 0.195713
v 0.702646 2.151764 0.195713
v 0.994025 2.116317 0.195713
v 0.994025 2.504595 0.195713
v 0.817999 2.504595 0.195713
v 0.672745 2.739566 0.195713
v 0.459135 2.901909 0.195713
v 0.241254 2.948903 0.195713
v -0.000000 2.957447 0.195713
v -0.241254 2.948903 0.195713
v -0.459135 2.901909 0.195713
v -0.672745 2.739566 0.195713
v -0.817999 2.504595 0.195713
v -0.994026 2.116317 0.195713
v -0.702646 2.151764 0.195713
v -0.582128 2.357353 0.195713
v -0.397806 2.541675 0.195713
v -0.206395 2.626747 0.195713
v -0.000000 0.000000 -1.200000
v 1.475380 0.000000 -1.200000
v 1.340683 0.577939 -1.200000
v 0.994025 0.719725 -1.200000
v -0.000000 2.271518 -0.210598
v 0.459644 1.135759 -0.210598
v 0.476512 1.703638 -0.210598
v 0.379523 1.987578 -0.210598
v 0.484946 1.419699 -0.210598
v 0.228211 2.176542 -0.210598
v 0.229822 0.730223 -0.210598
v 0.408816 0.924446 -0.210598
v -0.000000 0.668437 -0.210598
v -0.228211 2.176542 -0.210598
v -0.379523 1.987578 -0.210598
v -0.476512 1.703638 -0.210598
v -0.484946 1.419699 -0.210598
v -0.459644 1.135759 -0.210598
v -0.408816 0.924446 -0.210598
v -0.229822 0.730223 -0.210598
v -1.475380 0.000000 -1.200000
v -1.340684 0.577939 -1.200000
v -0.994026 0.719725 -1.200000
v 0.000000 2.648015 0.000000
v 0.000000 2.271518 0.000000
v 0.228211 2.176542 0.000000
v 0.379523 1.987578 0.000000
v 0.476512 1.703638 0.000000
v 0.484946 1.419699 0.000000
v 0.459644 1.135759 0.000000
v 0.408816 0.924446 0.000000
v 0.229822 0.730223 0.000000
v 0.000000 0.668437 0.000000
v 0.000000 0.000000 0.000000
v 1.475380 0.000000 0.000000
v 1.340683 0.577939 0.000000
v 0.994025 0.719725 0.000000
v 0.994025 2.116317 0.000000
v 0.702646 2.151764 0.000000
v 0.582128 2.357353 0.000000
v 0.397806 2.541675 0.000000
v 0.206395 2.626747 0.000000
v -0.206395 2.626747 0.000000
v -0.397806 2.541675 0.000000
v -0.582128 2.357353 0.000000
v -0.702646 2.151764 0.000000
v -0.994026 2.116317 0.000000
v -0.994026 0.719725 0.000000
v -1.340684 0.577939 0.000000
v -1.475380 0.000000 0.000000
v -0.229822 0.730223 0.000000
v -0.408816 0.924446 0.000000
v -0.459644 1.135759 0.000000
v -0.484946 1.419699 0.000000
v -0.476512 1.703638 0.000000
v -0.379523 1.987578 0.000000
v -0.228211 2.176542 0.000000
v 1.116526 2.116317 -1.200000
v 1.116526 2.504595 -1.200000
v 1.116526 2.504595 0.195713
v 1.116526 2.116317 0.195713
v -1.116526 2.116317 -1.200000
v -1.116526 2.504595 -1.200000
v -1.116526 2.116317 0.195713
v -1.116526 2.504595 0.195713
vt 0.027695 0.397954
vt 0.221066 0.397954
vt 0.406640 0.337374
vt 0.595124 0.184106
vt 0.726490 0.005026
vt 1.000000 0.000000
vt 0.956671 0.691437
vt 0.976334 1.000000
vt 0.916952 1.000000
vt 0.916952 0.000000
vt 0.221066 0.397954
vt 0.406640 0.337374
vt 0.595124 0.184106
vt 0.726490 0.005026
vt 1.000000 0.000000
vt 0.146078 0.315327
vt 0.566989 0.691437
vt 0.976334 0.000000
vt 0.856383 1.000000
vt 0.856383 0.000000
vt 0.789316 1.000000
vt 0.027695 0.397954
vt 0.221066 0.397954
vt 0.406640 0.337374
vt 0.595124 0.184106
vt 0.726490 0.005026
vt 1.000000 0.000000
vt 0.956671 0.883669
vt 0.956671 1.000000
vt 0.789316 0.000000
vt 0.722250 1.000000
vt 0.722250 0.000000
vt 0.661680 1.000000
vt 0.661680 0.000000
vt 0.602299 1.000000
vt 0.602299 0.000000
vt 0.566989 1.000000
vt 0.566989 0.883669
vt 1.000000 0.000000
vt 0.726490 0.005026
vt 0.595124 0.184106
vt 0.406640 0.337374
vt 0.221066 0.397954
vt 0.289462 0.895382
vt 0.496648 0.000000
vt 0.527689 0.000000
vt 0.558729 0.000000
vt 0.620811 0.000000
vt 0.682892 0.000000
vt 0.744973 0.000000
vt 0.807054 0.000000
vt 0.869135 0.000000
vt 0.931216 0.000000
vt 0.993297 0.000000
vt 1.000000 0.504562
vt 0.956671 1.000000
vt 0.956671 0.883669
vt 0.289462 0.768074
vt 0.335524 0.735959
vt 0.366065 0.672063
vt 0.385641 0.576052
vt 0.387343 0.480041
vt 0.382236 0.384031
vt 0.371977 0.312578
vt 0.335849 0.246903
vt 0.566989 0.883669
vt 0.566989 1.000000
vt 0.146078 0.668493
vt 1.000000 0.504562
vt 0.993297 0.000000
vt 0.931216 0.000000
vt 0.869135 0.000000
vt 0.807054 0.000000
vt 0.744973 0.000000
vt 0.682892 0.000000
vt 0.620811 0.000000
vt 0.558729 0.000000
vt 0.527689 0.000000
vt 0.496648 0.000000
vt 0.496648 0.000000
vt 0.527689 0.000000
vt 0.558729 0.000000
vt 0.620811 0.000000
vt 0.682892 0.000000
vt 0.744973 0.000000
vt 0.807054 0.000000
vt 0.869135 0.000000
vt 0.931216 0.000000
vt 0.993297 0.000000
vt 1.000000 0.504562
vt 0.093886 0.668493
vt 0.956671 0.691437
vt 0.566989 0.691437
vt 1.000000 0.504562
vt 0.993297 0.000000
vt 0.931216 0.000000
vt 0.869135 0.000000
vt 0.807054 0.000000
vt 0.744973 0.000000
vt 0.682892 0.000000
vt 0.620811 0.000000
vt 0.558729 0.000000
vt 0.527689 0.000000
vt 0.496648 0.000000
vt 0.289462 0.226011
vt 0.289462 -0.000012
vt 0.587251 -0.000012
vt 0.560064 0.195411
vt 0.490095 0.243354
vt 0.490095 0.715595
vt 0.431284 0.727580
vt 0.406958 0.797098
vt 0.369755 0.859424
vt 0.331121 0.888190
vt 0.247804 0.888190
vt 0.209169 0.859424
vt 0.171966 0.797098
vt 0.147641 0.727580
vt 0.088829 0.715595
vt 0.088829 0.243354
vt 0.018860 0.195411
vt -0.008327 -0.000012
vt 0.243075 0.246903
vt 0.206947 0.312578
vt 0.196688 0.384031
vt 0.191581 0.480041
vt 0.193283 0.576052
vt 0.212860 0.672063
vt 0.243400 0.735959
vt 0.124358 0.846886
vt 0.064104 0.846886
vt 0.064104 0.715595
vt 0.088829 0.715595
vt 0.147641 0.727580
vt 0.171966 0.797098
vt 0.209169 0.859424
vt 0.247804 0.888190
vt 0.289462 0.895382
vt 0.331121 0.888190
vt 0.369755 0.859424
vt 0.406958 0.797098
vt 0.431284 0.727580
vt 0.490095 0.715595
vt 0.514821 0.715595
vt 0.514821 0.846886
vt 0.490095 0.846886
vt 0.454566 0.846886
vt 0.425248 0.926338
vt 0.382134 0.981233
vt 0.338486 0.735953
vt 0.288533 0.768067
vt 0.238579 0.735953
vt 0.205458 0.672059
vt 0.184228 0.576050
vt 0.182382 0.480042
vt 0.187920 0.384034
vt 0.199046 0.312583
vt 0.238226 0.246910
vt 0.288533 0.226018
vt 0.338839 0.246910
vt 0.378020 0.312583
vt 0.389145 0.384034
vt 0.394684 0.480042
vt 0.392838 0.576050
vt 0.371607 0.672059
vt 0.466181 0.024134
vt 0.466181 0.202368
vt 0.240027 0.202368
vt 0.240027 0.024134
vt 0.466181 0.202368
vt 0.466181 0.024134
vt 0.240027 0.024134
vt 0.240027 0.202368
vt 0.093886 0.315327
vt 0.462876 0.315327
vt 0.477955 0.720464
vt 0.431204 0.720464
vt 0.431204 0.335743
vt 0.477955 0.335743
vt 0.163091 0.720464
vt 0.116340 0.720464
vt 0.116340 0.335743
vt 0.163091 0.335743
vt 0.956671 -0.000000
vt 0.610525 0.691437
vt 0.610525 -0.000000
vt 0.956671 -0.000000
vt 0.610525 -0.000000
vt 0.610525 0.691437
vt 0.956671 0.691437
vt 0.956671 0.883669
vt 0.566989 0.883669
vt 0.566989 0.691437
vt 0.956671 0.883669
vt 0.956671 0.691437
vt 0.566989 0.691437
vt 0.566989 0.883669
vt 0.338157 0.997123
vt 0.289462 1.000012
vt 0.240768 0.997123
vt 0.196791 0.981233
vt 0.153676 0.926338
vt 0.484293 0.315327
vt 0.484293 0.668493
vt 0.432101 0.668493
vt 0.432101 0.315327
vn 0.000000 -1.000000 0.000000
vn -0.257518 -0.966273 0.000000
vn -0.257518 -0.966273 0.000000
vn 0.000000 -1.000000 0.000000
vn -0.566136 -0.824312 0.000000
vn -0.566136 -0.824312 0.000000
vn -0.791335 -0.611383 0.000000
vn -0.791335 -0.611383 0.000000
vn -0.862698 -0.505720 0.000000
vn -0.862698 -0.505720 0.000000
vn -0.120761 -0.992682 0.000000
vn -0.060491 -0.998169 0.000000
vn -0.060491 -0.998169 0.000000
vn -0.120761 -0.992682 0.000000
vn 1.000000 0.000000 0.000000
vn 1.000000 0.000000 0.000000
vn 1.000000 0.000000 0.000000
vn 1.000000 0.000000 0.000000
vn 0.850594 0.525822 0.000000
vn 0.740284 0.672294 0.000000
vn 0.740284 0.672294 0.000000
vn 0.850594 0.525822 0.000000
vn 0.417917 0.908485 0.000000
vn 0.417917 0.908485 0.000000
vn 0.123600 0.992332 0.000000
vn 0.123600 0.992332 0.000000
vn 0.000000 1.000000 0.000000
vn 0.000000 1.000000 0.000000
vn -0.123600 0.992332 0.000000
vn -0.123600 0.992332 0.000000
vn -0.417917 0.908485 0.000000
vn -0.417917 0.908485 0.000000
vn -0.740284 0.672294 0.000000
vn -0.740284 0.672294 0.000000
vn -0.850594 0.525822 0.000000
vn -0.850594 0.525822 0.000000
vn 0.000000 1.000000 0.000000
vn 0.000000 1.000000 0.000000
vn 0.000000 1.000000 0.000000
vn 0.000000 1.000000 0.000000
vn -1.000000 0.000000 0.000000
vn -1.000000 0.000000 0.000000
vn -1.000000 0.000000 0.000000
vn -1.000000 0.000000 0.000000
vn 0.060491 -0.998169 0.000000
vn 0.120761 -0.992682 0.000000
vn 0.120761 -0.992682 0.000000
vn 0.060491 -0.998169 0.000000
vn 0.862698 -0.505720 0.000000
vn 0.791335 -0.611383 0.000000
vn 0.791335 -0.611383 0.000000
vn 0.862698 -0.505720 0.000000
vn 0.566136 -0.824312 0.000000
vn 0.566136 -0.824312 0.000000
vn 0.257518 -0.966273 0.000000
vn 0.257518 -0.966273 0.000000
vn 0.000000 0.000000 1.000000
vn 0.000000 0.000000 1.000000
vn 0.000000 0.000000 1.000000
vn 0.000000 0.000000 1.000000
vn 0.000000 0.000000 1.000000
vn 0.000000 0.000000 1.000000
vn 0.000000 0.000000 1.000000
vn 0.000000 0.000000 1.000000
vn 0.000000 0.000000 1.000000
vn 0.000000 0.000000 1.000000
vn 0.000000 0.000000 1.000000
vn 0.000000 0.000000 1.000000
vn 0.000000 0.000000 1.000000
vn 0.000000 0.000000 1.000000
vn 0.000000 0.000000 1.000000
vn 0.000000 0.000000 1.000000
vn 0.000000 0.000000 1.000000
vn 0.000000 0.000000 1.000000
vn 0.000000 0.000000 1.000000
vn 0.000000 0.000000 1.000000
vn 0.000000 0.000000 1.000000
vn 0.000000 0.000000 1.000000
vn 0.000000 0.000000 1.000000
vn 0.000000 0.000000 1.000000
vn 0.000000 0.000000 1.000000
vn 0.000000 0.000000 1.000000
vn 0.000000 0.000000 1.000000
vn 0.000000 0.000000 1.000000
vn 0.000000 0.000000 1.000000
vn 0.000000 0.000000 1.000000
vn 0.000000 0.000000 1.000000
vn 0.000000 0.000000 1.000000
vn 0.000000 0.000000 1.000000
vn 0.000000 0.000000 1.000000
vn 0.000000 0.000000 1.000000
vn 0.000000 0.000000 1.000000
vn 0.000000 0.000000 1.000000
vn 0.000000 0.000000 1.000000
vn -0.384229 -0.923238 0.000001
vn -0.601188 -0.799108 0.000000
vn -0.601188 -0.799108 0.000000
vn -0.384229 -0.923238 0.000001
vn -0.876537 -0.481334 0.000000
vn -0.876537 -0.481334 0.000000
vn -0.983946 -0.178465 0.000000
vn -0.983946 -0.178465 0.000000
vn -0.999562 0.029586 0.000000
vn -0.999562 0.029586 0.000000
vn -0.986832 0.161749 0.000000
vn -0.986832 0.161749 0.000000
vn -0.882176 0.470919 0.000000
vn -0.882176 0.470919 0.000000
vn -0.735350 0.677688 0.000000
vn -0.735350 0.677688 0.000000
vn -0.259623 0.965710 0.000000
vn -0.259623 0.965710 0.000000
vn -0.259623 0.965710 0.000000
vn -0.259623 0.965710 0.000000
vn 0.000000 -1.000000 0.000000
vn 0.000000 -1.000000 0.000000
vn 0.000000 -1.000000 0.000000
vn 0.000000 -1.000000 0.000000
vn 0.973899 0.226981 0.000000
vn 0.973899 0.226981 0.000000
vn 0.973899 0.226981 0.000000
vn 0.973899 0.226981 0.000000
vn 0.378567 0.925574 0.000000
vn 0.378567 0.925574 0.000000
vn 0.378567 0.925574 0.000000
vn 0.378567 0.925574 0.000000
vn 1.000000 0.000000 0.000000
vn 1.000000 0.000000 0.000000
vn 1.000000 0.000000 0.000000
vn 1.000000 0.000000 0.000000
vn -1.000000 0.000000 0.000000
vn -1.000000 0.000000 0.000000
vn -1.000000 0.000000 0.000000
vn -1.000000 0.000000 0.000000
vn -0.378567 0.925574 0.000000
vn -0.378567 0.925574 0.000000
vn -0.378567 0.925574 0.000000
vn -0.378567 0.925574 0.000000
vn -0.973899 0.226981 0.000000
vn -0.973899 0.226981 0.000000
vn -0.973899 0.226981 0.000000
vn -0.973899 0.226981 0.000000
vn 0.000000 -1.000000 0.000000
vn 0.000000 -1.000000 0.000000
vn 0.259623 0.965710 0.000000
vn 0.259623 0.965710 0.000000
vn 0.259623 0.965710 0.000000
vn 0.259623 0.965710 0.000000
vn 0.735350 0.677688 -0.000000
vn 0.882176 0.470920 -0.000000
vn 0.882176 0.470920 -0.000000
vn 0.735350 0.677688 -0.000000
vn 0.986832 0.161749 0.000000
vn 0.986832 0.161749 0.000000
vn 0.999562 0.029586 0.000000
vn 0.999562 0.029586 0.000000
vn 0.983946 -0.178465 0.000000
vn 0.983946 -0.178465 0.000000
vn 0.876537 -0.481334 0.000000
vn 0.876537 -0.481334 0.000000
vn 0.601188 -0.799108 0.000000
vn 0.601188 -0.799108 0.000000
vn 0.384229 -0.923238 0.000000
vn 0.384229 -0.923238 0.000000
vn -0.000000 0.000000 1.000000
vn -0.000000 0.000000 1.000000
vn -0.000000 0.000000 1.000000
vn -0.000000 0.000000 1.000000
vn -0.000000 0.000000 1.000000
vn -0.000000 0.000000 1.000000
vn -0.000000 0.000000 1.000000
vn -0.000000 0.000000 1.000000
vn -0.000000 0.000000 1.000000
vn -0.000000 0.000000 1.000000
vn -0.000000 0.000000 1.000000
vn -0.000000 0.000000 1.000000
vn -0.000000 0.000000 1.000000
vn -0.000000 0.000000 1.000000
vn -0.000000 0.000000 1.000000
vn -0.000000 0.000000 1.000000
vn 0.000000 1.000000 0.000000
vn 0.000000 1.000000 0.000000
vn 0.000000 1.000000 0.000000
vn 0.000000 1.000000 0.000000
vn 0.000000 1.000000 0.000000
vn 0.000000 -1.000000 0.000000
vn 0.000000 -1.000000 0.000000
vn 0.000000 -1.000000 0.000000
vn 0.000000 -1.000000 0.000000
vn 0.000000 0.000000 1.000000
vn 0.000000 0.000000 1.000000
vn 0.000000 0.000000 1.000000
vn 0.000000 0.000000 1.000000
vn 0.000000 0.000000 1.000000
vn 0.000000 0.000000 1.000000
vn 0.000000 0.000000 1.000000
vn 0.000000 0.000000 1.000000
vn 0.000000 0.000000 1.000000
vn 0.000000 0.000000 1.000000
vn 0.000000 0.000000 1.000000
vn 0.000000 0.000000 1.000000
vn 0.000000 0.000000 1.000000
vn 0.000000 0.000000 1.000000
vn 0.000000 0.000000 1.000000
vn 0.000000 0.000000 1.000000
vn 0.000000 0.000000 1.000000
vn 0.000000 0.000000 1.000000
vn 0.000000 0.000000 1.000000
vn 0.000000 0.000000 1.000000
vn 0.000000 0.000000 1.000000
vn 0.000000 0.000000 1.000000
vn 0.000000 0.000000 1.000000
vn 0.000000 0.000000 1.000000
vn 0.000000 0.000000 1.000000
s 1
g polySurface3
usemtl lambert3SG
f 1/1/1 2/2/2 22/23/3 21/22/4
f 2/2/2 3/3/5 23/24/6 22/23/3
f 3/3/5 4/4/7 24/25/8 23/24/6
f 4/4/7 5/5/9 25/26/10 24/25/8
s 2
f 5/5/11 6/6/12 26/27/13 25/26/14
s off
f 99/190/15 100/191/16 101/192/17 102/193/18
s 3
f 7/28/19 8/29/20 29/37/21 28/38/22
f 8/8/20 9/9/23 30/10/24 29/18/21
f 9/9/23 10/19/25 31/20/26 30/10/24
f 10/19/25 11/21/27 32/30/28 31/20/26
f 11/21/27 20/31/29 33/32/30 32/30/28
f 20/31/29 19/33/31 34/34/32 33/32/30
f 19/33/31 18/35/33 35/36/34 34/34/32
f 18/56/33 17/57/35 36/66/36 35/67/34
s off
f 36/16/37 17/68/38 104/91/39 106/174/40
f 104/194/41 103/195/42 105/196/43 106/197/44
s 4
f 16/15/45 15/14/46 38/40/47 37/39/48
s 1
f 15/14/49 14/13/50 39/41/51 38/40/52
f 14/13/50 13/12/53 40/42/54 39/41/51
f 13/12/53 12/11/55 41/43/56 40/42/54
f 12/11/55 1/1/1 21/22/4 41/43/56
s off
f 65/44/57 66/58/58 67/59/59 68/60/60 69/61/61 70/62/62 71/63/63 72/64/64 73/65/65 74/105/66 75/106/67 76/107/68 77/108/69 78/109/70 79/110/71 80/111/72 81/112/73 82/113/74 83/114/75
f 65/44/76 84/115/77 85/116/78 86/117/79 87/118/80 88/119/81 89/120/82 90/121/83 91/122/84 75/106/85 74/105/86 92/123/87 93/124/88 94/125/89 95/126/90 96/127/91 97/128/92 98/129/93 66/58/94
s 6
f 46/80/95 51/81/96 67/46/97 66/45/98
f 51/81/96 49/82/99 68/47/100 67/46/97
f 49/82/99 48/83/101 69/48/102 68/47/100
f 48/83/101 50/84/103 70/49/104 69/48/102
f 50/84/103 47/85/105 71/50/106 70/49/104
f 47/85/105 53/86/107 72/51/108 71/50/106
f 53/86/107 52/87/109 73/52/110 72/51/108
s off
f 52/87/111 54/88/112 74/53/113 73/52/114
s 7
f 42/89/115 43/90/116 76/55/117 75/54/118
s off
f 43/166/119 44/167/120 77/168/121 76/169/122
f 44/176/123 45/177/124 78/178/125 77/179/126
f 45/184/127 6/7/128 79/185/129 78/186/130
f 16/92/131 64/187/132 89/188/133 88/189/134
f 64/180/135 63/181/136 90/182/137 89/183/138
f 63/170/139 62/171/140 91/172/141 90/173/142
s 7
f 62/94/143 42/95/115 75/70/118 91/69/144
s off
f 54/96/145 61/97/146 92/72/147 74/71/148
s 8
f 61/97/149 60/98/150 93/73/151 92/72/152
f 60/98/150 59/99/153 94/74/154 93/73/151
f 59/99/153 58/100/155 95/75/156 94/74/154
f 58/100/155 57/101/157 96/76/158 95/75/156
f 57/101/157 56/102/159 97/77/160 96/76/158
f 56/102/159 55/103/161 98/78/162 97/77/160
f 55/103/161 46/104/163 66/79/164 98/78/162
s off
f 51/150/165 46/151/166 55/152/167 56/153/168 57/154/169 58/155/170 59/156/171 60/157/172 61/158/173 54/159/174 52/160/175 53/161/176 47/162/177 50/163/178 48/164/179 49/165/180
f 27/175/181 101/203/182 100/204/183 7/205/184 28/206/185
s 2
f 26/17/13 6/7/12 99/190/186 102/193/187
s 4
f 16/92/45 37/93/48 105/196/188 103/195/189
s off
f 36/130/190 106/131/191 105/132/192 37/133/193 38/134/194 39/135/195 40/136/196 41/137/197 21/138/198 22/139/199 23/140/200 24/141/201 25/142/202 26/143/203 102/144/204 101/145/205 27/146/206 28/147/207 29/148/208 30/149/209 31/198/210 32/199/211 33/200/212 34/201/213 35/202/214
