# This file uses centimeters as units for non-parametric coordinates.

mtllib comble_4.mtl
v -0.019201 0.708289 0.000000
v 0.517604 0.708289 0.000000
v -0.549950 0.708289 0.000000
v -0.737267 0.708289 0.000000
v -0.737267 0.150512 0.000000
v -0.737267 0.000000 0.000000
v -0.886412 2.544641 0.096230
v -0.886412 2.339000 0.096230
v -0.737267 2.339000 0.096230
v -0.019201 2.653333 0.096230
v -0.019201 2.944101 0.096230
v 0.886413 2.544641 0.096230
v 0.736700 2.339000 0.096230
v 0.886413 2.339000 0.096230
v 0.736700 2.339000 0.000000
v -0.019201 2.653333 0.000000
v -0.737267 2.339000 0.000000
v 0.736700 0.000000 0.000000
v 0.736700 0.150512 0.000000
v 0.736700 0.708289 0.000000
v 0.517604 2.133374 0.000000
v 0.736700 2.133374 0.000000
v -0.019201 2.133374 0.000000
v -0.549950 2.133374 0.000000
v -0.737267 2.133374 0.000000
v -0.019201 2.133374 -0.105448
v -0.019201 0.708289 -0.105448
v 0.517604 0.708289 -0.105448
v 0.517604 2.133374 -0.105448
v -0.549950 2.133374 -0.105448
v -0.549950 0.708289 -0.105448
v -0.737267 0.000000 -1.197067
v -0.886412 2.544641 -1.197067
v -0.886412 2.339000 -1.197067
v -0.019201 2.944101 -1.197067
v 0.886413 2.544641 -1.197067
v 0.736700 0.000000 -1.197067
v 0.736700 2.339000 -1.197067
v -0.737267 2.339000 -1.197067
v 0.886413 2.339000 -1.197067
vt 0.047668 0.062948
vt 0.047668 0.014062
vt 0.350673 0.014062
vt 0.350673 0.062948
vt 0.086175 0.244116
vt 0.047668 0.244116
vt 0.350673 0.244116
vt 0.305633 0.244116
vt 0.195282 0.244116
vt 0.017008 0.840569
vt 0.017008 0.773776
vt 0.047668 0.773776
vt 0.195282 0.875872
vt 0.195282 0.970314
vt 0.381450 0.840569
vt 0.350673 0.773776
vt 0.381450 0.773776
vt 0.350673 0.773776
vt 0.195282 0.875872
vt 0.047668 0.773776
vt 0.305633 0.706988
vt 0.350673 0.706988
vt 0.047668 0.706988
vt 0.086175 0.706988
vt 0.195282 0.706988
vt 0.195282 0.244116
vt 0.305633 0.244116
vt 0.305633 0.706988
vt 0.195282 0.706988
vt 0.086175 0.706988
vt 0.086175 0.244116
vt 0.047668 0.773776
vt 0.482779 0.059149
vt 0.338554 0.417627
vt 0.017008 0.773776
vt 0.338554 0.020304
vt 1.000757 0.020304
vt 0.482779 0.278345
vt 0.350673 0.773776
vt 0.381450 0.773776
vt 0.482779 0.838379
vt 0.482779 0.919186
vt 0.939342 0.919186
vt 0.939342 -0.000000
vt 0.482779 -0.000000
vt 0.939342 1.000000
vt 0.939342 0.919186
vt 0.446077 0.919186
vt 0.446077 1.000000
vt 0.939342 -0.000000
vt 0.939342 0.919186
vt 0.482779 0.919186
vt 0.482779 0.838379
vt 0.482779 0.278345
vt 0.482779 0.059149
vt 0.482779 -0.000000
vt 0.939342 1.000000
vt 0.446077 1.000000
vt 0.446077 0.919186
vt 0.939342 0.919186
vt 1.000757 0.417628
vt 0.338554 0.832546
vt 1.000757 0.832546
vn 0.000000 0.000000 1.000000
vn 0.000000 0.000000 1.000000
vn 0.000000 0.000000 1.000000
vn 0.000000 0.000000 1.000000
vn 0.000000 0.000000 1.000000
vn 0.000000 0.000000 1.000000
vn 0.000000 0.000000 1.000000
vn 0.000000 0.000000 1.000000
vn 0.000000 0.000000 1.000000
vn 0.000000 0.000000 1.000000
vn 0.000000 0.000000 1.000000
vn 0.000000 0.000000 1.000000
vn 0.000000 0.000000 1.000000
vn 0.000000 0.000000 1.000000
vn 0.000000 0.000000 1.000000
vn 0.000000 0.000000 1.000000
vn 0.000000 0.000000 1.000000
vn 0.000000 0.000000 1.000000
vn 0.000000 0.000000 1.000000
vn 0.000000 0.000000 1.000000
vn 0.000000 0.000000 1.000000
vn 0.000000 0.000000 1.000000
vn 0.000000 0.000000 1.000000
vn 0.000000 0.000000 1.000000
vn 0.000000 0.000000 1.000000
vn 0.000000 0.000000 1.000000
vn 0.000000 0.000000 1.000000
vn 0.000000 0.000000 1.000000
vn 0.000000 0.000000 1.000000
vn 0.000000 0.000000 1.000000
vn 0.000000 0.000000 1.000000
vn 0.000000 0.000000 1.000000
vn 0.000000 0.000000 1.000000
vn 0.000000 0.000000 1.000000
vn 0.000000 0.000000 1.000000
vn 0.000000 0.000000 1.000000
vn 0.000000 0.000000 1.000000
vn 0.000000 0.000000 1.000000
vn 0.000000 0.000000 1.000000
vn 0.000000 0.000000 1.000000
vn 0.000000 0.000000 1.000000
vn 0.000000 0.000000 1.000000
vn 0.000000 0.000000 1.000000
vn 0.000000 0.000000 1.000000
vn 0.000000 0.000000 1.000000
vn 0.000000 1.000000 0.000000
vn 0.000000 1.000000 0.000000
vn 0.000000 1.000000 0.000000
vn 0.000000 1.000000 0.000000
vn 0.000000 1.000000 0.000000
vn 0.000000 1.000000 0.000000
vn -1.000000 0.000000 0.000000
vn -1.000000 0.000000 0.000000
vn -1.000000 0.000000 0.000000
vn -1.000000 0.000000 0.000000
vn 0.000000 -1.000000 0.000000
vn 0.000000 -1.000000 0.000000
vn 0.000000 -1.000000 0.000000
vn 0.000000 -1.000000 0.000000
vn 0.000000 -1.000000 0.000000
vn 0.000000 -1.000000 0.000000
vn 1.000000 0.000000 0.000000
vn 1.000000 0.000000 0.000000
vn 1.000000 0.000000 0.000000
vn 1.000000 0.000000 0.000000
vn -1.000000 0.000000 0.000000
vn -1.000000 0.000000 0.000000
vn -1.000000 0.000000 0.000000
vn -1.000000 0.000000 0.000000
vn -1.000000 0.000000 0.000000
vn -1.000000 0.000000 0.000000
vn -1.000000 0.000000 0.000000
vn -1.000000 0.000000 0.000000
vn -1.000000 0.000000 0.000000
vn -1.000000 0.000000 0.000000
vn -1.000000 0.000000 0.000000
vn -0.217024 0.976166 0.000000
vn -0.217024 0.976166 0.000000
vn -0.217024 0.976166 0.000000
vn -0.004545 0.999990 0.000000
vn 0.207987 0.978132 0.000000
vn -0.004545 0.999990 0.000000
vn -0.004545 0.999990 0.000000
vn 0.207988 0.978131 0.000000
vn 1.000000 0.000000 0.000000
vn 1.000000 0.000000 0.000000
vn 1.000000 0.000000 0.000000
vn 1.000000 0.000000 0.000000
vn 1.000000 0.000000 0.000000
vn 1.000000 0.000000 0.000000
vn 0.000000 -1.000000 0.000000
vn 0.000000 -1.000000 0.000000
vn 0.000000 -1.000000 0.000000
vn 0.147529 -0.989058 0.000000
vn 0.147529 -0.989058 0.000000
vn 0.000000 -1.000000 0.000000
vn 0.000000 -1.000000 0.000000
vn 0.000000 -1.000000 0.000000
vn 0.147529 -0.989058 0.000000
vn 0.294205 -0.955742 0.000000
vn 0.294205 -0.955742 0.000000
vn 0.147529 -0.989058 0.000000
vn -0.280666 -0.959805 0.000000
vn -0.140698 -0.990053 0.000000
vn -0.140698 -0.990053 0.000000
vn -0.280666 -0.959805 0.000000
vn 0.000000 -1.000000 0.000000
vn 0.000000 -1.000000 0.000000
vn -0.140698 -0.990053 0.000000
vn -0.140698 -0.990053 0.000000
vn 0.000000 -1.000000 0.000000
vn 1.000000 0.000000 0.000000
vn 1.000000 0.000000 0.000000
vn 1.000000 0.000000 0.000000
vn 1.000000 0.000000 0.000000
s off
g pCube1
usemtl comble_mat_4SG
f 5/1/1 6/2/2 18/3/3 19/4/4
f 3/5/5 4/6/6 5/1/7 19/4/8 20/7/9 2/8/10 1/9/11
f 7/10/12 8/11/13 9/12/14 10/13/15 11/14/16
f 12/15/17 11/14/18 10/13/19 13/16/20 14/17/21
f 15/18/22 16/19/23 17/20/24
f 21/21/25 22/22/26 15/18/27 17/20/28 25/23/29 24/24/30 23/25/31
f 21/21/32 2/8/33 20/7/34 22/22/35
f 27/26/36 28/27/37 29/28/38 26/29/39 30/30/40 31/31/41
f 24/24/42 25/23/43 4/6/44 3/5/45
f 1/9/46 2/8/47 28/27/48 27/26/49 31/31/50 3/5/51
f 2/8/52 21/21/53 29/28/54 28/27/55
f 26/29/56 29/28/57 21/21/58 23/25/59 24/24/60 30/30/61
f 24/24/62 3/5/63 31/31/64 30/30/65
f 5/33/66 4/38/67 25/41/68 17/42/69 39/43/70 32/44/71 6/45/72
f 33/46/73 34/47/74 8/48/75 7/49/76
f 35/34/77 33/36/78 7/37/79 11/61/80
f 36/62/81 35/34/82 11/61/83 12/63/84
f 37/50/85 38/51/86 15/52/87 22/53/88 20/54/89 19/55/90 18/56/91 6/45/92 32/44/93
f 17/20/94 9/12/95 8/11/96 34/35/97 39/32/98
f 17/20/99 16/19/100 10/13/101 9/12/102
f 16/19/103 15/18/104 13/16/105 10/13/106
f 40/40/107 14/17/108 13/16/109 15/18/110 38/39/111
f 36/57/112 12/58/113 14/59/114 40/60/115
