# This file uses centimeters as units for non-parametric coordinates.

mtllib streetLamp_2.mtl
g default
v -0.163390 2.429674 0.163390
v 0.163390 2.429674 0.163390
v 0.000000 2.851249 0.000000
v -0.163390 2.823407 0.163390
v 0.163390 2.823407 0.163390
v -0.163390 2.823407 -0.163390
v 0.163390 2.823407 -0.163390
v -0.163390 2.429674 -0.163390
v 0.163390 2.429674 -0.163390
v -0.025399 2.402174 0.025399
v -0.025399 2.402174 -0.025399
v 0.025399 2.402174 0.025399
v 0.025399 2.402174 -0.025399
v -0.046622 0.000000 -0.046622
v 0.046622 0.000000 -0.046622
v 0.046622 0.000000 0.046622
v -0.046622 0.000000 0.046622
vt -0.000000 0.818536
vt 0.390459 0.772938
vt 0.609541 0.772938
vt 1.000000 0.818536
vt -0.000000 0.818536
vt 0.390459 0.772938
vt 0.609541 0.772938
vt 1.000000 0.818536
vt -0.000000 0.939520
vt 0.500000 1.000000
vt 1.000000 0.939520
vt 0.500000 1.000000
vt -0.000000 0.939520
vt 1.000000 0.939520
vt -0.000000 0.939520
vt 1.000000 0.939520
vt -0.000000 0.939520
vt 1.000000 0.939520
vt 1.000000 0.818536
vt -0.000000 0.818536
vt 1.000000 0.818536
vt -0.000000 0.818536
vt 0.609541 0.772938
vt 0.390459 0.772938
vt 0.609541 0.772938
vt 0.390459 0.772938
vt 0.666969 0.000000
vt 0.333031 0.000000
vt 0.333031 0.000000
vt 0.666969 0.000000
vt 0.333031 0.000000
vt 0.666969 0.000000
vt 0.666969 0.000000
vt 0.333031 0.000000
vn 0.000000 -0.980714 0.195450
vn 0.000000 -0.980714 0.195450
vn 0.000000 -0.980714 0.195450
vn 0.000000 -0.980714 0.195450
vn 0.195448 -0.980714 0.000000
vn 0.195448 -0.980714 0.000000
vn 0.195448 -0.980714 0.000000
vn 0.195448 -0.980714 0.000000
vn -0.167980 0.985790 0.000000
vn -0.167980 0.985790 0.000000
vn -0.167980 0.985790 0.000000
vn 0.000000 0.985790 0.167983
vn 0.000000 0.985790 0.167983
vn 0.000000 0.985790 0.167983
vn 0.167980 0.985790 0.000000
vn 0.167980 0.985790 0.000000
vn 0.167980 0.985790 0.000000
vn 0.000000 0.985790 -0.167983
vn 0.000000 0.985790 -0.167983
vn 0.000000 0.985790 -0.167983
vn -0.195448 -0.980714 0.000000
vn -0.195448 -0.980714 0.000000
vn -0.195448 -0.980714 0.000000
vn -0.195448 -0.980714 0.000000
vn 0.000000 -0.980714 -0.195450
vn 0.000000 -0.980714 -0.195450
vn 0.000000 -0.980714 -0.195450
vn 0.000000 -0.980714 -0.195450
vn 0.000000 0.008835 -0.999961
vn 0.000000 0.008835 -0.999961
vn 0.000000 0.008835 -0.999961
vn 0.000000 0.008835 -0.999961
vn 0.999961 0.008835 0.000000
vn 0.999961 0.008835 0.000000
vn 0.999961 0.008835 0.000000
vn 0.999961 0.008835 0.000000
vn 0.000000 0.008835 0.999961
vn 0.000000 0.008835 0.999961
vn 0.000000 0.008835 0.999961
vn 0.000000 0.008835 0.999961
vn -0.999961 0.008835 0.000000
vn -0.999961 0.008835 0.000000
vn -0.999961 0.008835 0.000000
vn -0.999961 0.008835 0.000000
vn -1.000000 0.000000 0.000000
vn -1.000000 0.000000 0.000000
vn -1.000000 0.000000 0.000000
vn -1.000000 0.000000 0.000000
vn 0.000000 0.000000 1.000000
vn 0.000000 0.000000 1.000000
vn 0.000000 0.000000 1.000000
vn 0.000000 0.000000 1.000000
vn 1.000000 0.000000 0.000000
vn 1.000000 0.000000 0.000000
vn 1.000000 0.000000 0.000000
vn 1.000000 0.000000 0.000000
vn 0.000000 0.000000 -1.000000
vn 0.000000 0.000000 -1.000000
vn 0.000000 0.000000 -1.000000
vn 0.000000 0.000000 -1.000000
s off
g pCube2
usemtl lambert2SG
f 1/1/1 10/2/2 12/3/3 2/4/4
f 2/5/5 12/6/6 13/7/7 9/8/8
f 4/9/9 3/10/10 6/11/11
f 3/12/12 4/13/13 5/14/14
f 3/10/15 5/15/16 7/16/17
f 6/17/18 3/12/19 7/18/20
f 11/23/21 10/24/22 1/22/23 8/21/24
f 13/25/25 11/26/26 8/20/27 9/19/28
f 11/26/29 13/25/30 15/27/31 14/28/32
f 13/7/33 12/6/34 16/29/35 15/30/36
f 12/3/37 10/2/38 17/31/39 16/32/40
f 10/24/41 11/23/42 14/33/43 17/34/44
f 4/9/45 6/11/46 8/21/47 1/22/48
f 1/1/49 2/4/50 5/14/51 4/13/52
f 2/5/53 9/8/54 7/16/55 5/15/56
f 6/17/57 7/18/58 9/19/59 8/20/60
