# This file uses centimeters as units for non-parametric coordinates.

mtllib win1.mtl
g default
v -1.400588 0.687487 0.500000
v -1.055646 0.687487 0.500000
v -1.400588 0.297832 0.500000
v -1.055647 0.297832 0.500000
v -1.400588 0.193665 0.520236
v -1.055647 0.193665 0.520236
v -1.055647 0.297832 0.520236
v -1.400588 0.297832 0.520236
v -1.400588 0.297832 0.500000
v -1.055647 0.297832 0.500000
v -1.400588 0.687487 0.500000
v -1.055646 0.545191 0.500000
v -1.055646 0.545191 0.500000
v -1.400588 0.545191 0.500000
v -1.400588 0.545191 0.500000
v -1.304019 0.545191 0.500000
v -1.304019 0.297832 0.500000
v -1.304019 0.297832 0.500000
v -1.304019 0.297832 0.520236
v -1.304019 0.193665 0.520236
v -1.153489 0.545191 0.500000
v -1.153489 0.297832 0.500000
v -1.153489 0.297832 0.500000
v -1.153489 0.297832 0.520236
v -1.153489 0.193665 0.520236
v -1.304019 0.297832 0.475747
v -1.153489 0.297832 0.475747
v -1.153489 0.545191 0.475747
v -1.304019 0.545191 0.475747
v -1.371450 0.658480 0.519929
v -1.379301 0.681332 0.519929
v -1.379301 0.681332 0.497339
v -1.371450 0.658480 0.497339
v -1.320269 0.658480 0.497339
v -1.320269 0.658480 0.519929
v -1.352617 0.640839 0.497339
v -1.329082 0.640839 0.497339
v -1.329082 0.640839 0.511643
v -1.352617 0.640839 0.511643
v -1.352617 0.541321 0.500300
v -1.329082 0.541321 0.500300
v -1.086575 0.658480 0.519929
v -1.136845 0.658480 0.519929
v -1.079034 0.681332 0.519929
v -1.092159 0.658480 0.497339
v -1.079034 0.681332 0.497339
v -1.136845 0.658480 0.497339
v -1.128032 0.640839 0.511643
v -1.128032 0.640839 0.497339
v -1.104497 0.640839 0.511643
v -1.104497 0.640839 0.497339
v -1.128032 0.541321 0.500300
v -1.104497 0.541321 0.500300
vt 0.809235 1.000000
vt 0.464353 1.000000
vt 0.464425 0.610403
vt 0.809221 0.610403
vt 0.464353 0.506177
vt 0.809294 0.506177
vt 0.809221 0.610403
vt 0.464425 0.610403
vt 0.792568 0.606175
vt 0.484680 0.606175
vt 0.484680 0.588113
vt 0.792568 0.588113
vt 0.464425 0.610403
vt 0.809221 0.610403
vt 0.464353 1.000000
vt 0.809267 0.857725
vt 0.809267 0.857725
vt 0.464379 0.857725
vt 0.464379 0.857725
vt 0.560933 0.857725
vt 0.560953 0.610403
vt 0.560953 0.610403
vt 0.570875 0.606175
vt 0.570875 0.588113
vt 0.560953 0.610403
vt 0.560922 0.506177
vt 0.711440 0.857725
vt 0.711420 0.610403
vt 0.711420 0.610403
vt 0.705235 0.606175
vt 0.705235 0.588113
vt 0.711420 0.610403
vt 0.711451 0.506177
vt 0.560953 0.610403
vt 0.711420 0.610403
vt 0.711440 0.857725
vt 0.560933 0.857725
vt 0.604334 0.518607
vt 0.604334 0.425209
vt 0.641051 0.425209
vt 0.641051 0.518607
vt 0.563188 0.425209
vt 0.563188 0.578686
vt 0.526471 0.578686
vt 0.526471 0.425209
vt 0.679948 0.425209
vt 0.679948 0.518607
vt 0.643231 0.518607
vt 0.643231 0.425209
vt 0.565436 0.578686
vt 0.565436 0.425209
vt 0.602153 0.425209
vt 0.602153 0.578686
vt 0.120255 0.905953
vt 0.167225 0.905953
vt 0.110827 0.927593
vt 0.572020 0.583064
vt 0.572020 0.607419
vt 0.585984 0.607419
vt 0.585984 0.583064
vt 0.487318 0.585510
vt 0.487318 0.605038
vt 0.601799 0.583597
vt 0.601799 0.606951
vt 0.572020 0.583064
vt 0.572020 0.607419
vt 0.561240 0.602356
vt 0.561241 0.583064
vt 0.133223 0.888896
vt 0.157961 0.888896
vt 0.561241 0.583064
vt 0.561240 0.602356
vt 0.500430 0.595425
vt 0.133223 0.792670
vt 0.157961 0.792670
vt 0.500430 0.595425
vt 0.119925 0.905954
vt 0.111052 0.927592
vt 0.167225 0.905953
vt 0.572020 0.583064
vt 0.585992 0.583065
vt 0.585992 0.607418
vt 0.572021 0.607418
vt 0.490309 0.585510
vt 0.490309 0.605038
vt 0.601799 0.583597
vt 0.601799 0.606951
vt 0.572020 0.583064
vt 0.561241 0.583064
vt 0.561240 0.602356
vt 0.572020 0.607419
vt 0.157961 0.888896
vt 0.133223 0.888896
vt 0.561240 0.602356
vt 0.561241 0.583064
vt 0.500430 0.595425
vt 0.157961 0.792670
vt 0.133223 0.792670
vt 0.500430 0.595425
vn 0.000000 0.000000 1.000000
vn 0.000000 0.000000 1.000000
vn 0.000000 0.000000 1.000000
vn 0.000000 0.000000 1.000000
vn 0.000000 0.000000 1.000000
vn 0.000000 0.000000 1.000000
vn 0.000000 0.000000 1.000000
vn 0.000000 0.000000 1.000000
vn 0.000000 0.000000 1.000000
vn 0.000000 1.000000 0.000000
vn 0.000000 1.000000 0.000000
vn 0.000000 1.000000 0.000000
vn 0.000000 1.000000 0.000000
vn 0.000000 0.000000 0.000000
vn 0.000000 0.000000 0.000000
vn 0.000000 0.000000 0.000000
vn 0.000000 0.000000 0.000000
vn 0.000000 0.000000 0.000000
vn 0.000000 0.000000 0.000000
vn 0.000000 0.000000 0.000000
vn 0.000000 0.000000 0.000000
vn 0.000000 0.000000 0.000000
vn 0.000000 0.000000 0.000000
vn 0.000000 0.000000 0.000000
vn 0.000000 0.000000 0.000000
vn 0.000000 0.000000 0.000000
vn 0.000000 0.000000 0.000000
vn 0.000000 0.000000 0.000000
vn 0.000000 0.000000 0.000000
vn 0.000000 0.000000 0.000000
vn 0.000000 0.000000 0.000000
vn 0.000000 0.000000 0.000000
vn 0.000000 0.000000 1.000000
vn 0.000000 0.000000 1.000000
vn 0.000000 0.000000 1.000000
vn 0.000000 0.000000 1.000000
vn 0.000000 0.000000 1.000000
vn 0.000000 0.000000 0.000000
vn 0.000000 0.000000 0.000000
vn 0.000000 0.000000 0.000000
vn 0.000000 0.000000 0.000000
vn 0.000000 1.000000 0.000000
vn 0.000000 1.000000 0.000000
vn 0.000000 1.000000 0.000000
vn 0.000000 1.000000 0.000000
vn 0.000000 0.000000 1.000000
vn 0.000000 0.000000 1.000000
vn 0.000000 0.000000 1.000000
vn 0.000000 0.000000 1.000000
vn 0.000000 0.000000 1.000000
vn 0.000000 0.000000 1.000000
vn 0.000000 0.000000 1.000000
vn 0.000000 0.000000 1.000000
vn 0.000000 0.000000 1.000000
vn 0.000000 0.000000 0.000000
vn 0.000000 0.000000 0.000000
vn 0.000000 0.000000 0.000000
vn 0.000000 0.000000 0.000000
vn 0.000000 1.000000 0.000000
vn 0.000000 1.000000 0.000000
vn 0.000000 1.000000 0.000000
vn 0.000000 1.000000 0.000000
vn -1.000000 0.000000 0.000000
vn -1.000000 0.000000 0.000000
vn -1.000000 0.000000 0.000000
vn -1.000000 0.000000 0.000000
vn 0.000000 -1.000000 0.000000
vn 0.000000 -1.000000 0.000000
vn 0.000000 -1.000000 0.000000
vn 0.000000 -1.000000 0.000000
vn 1.000000 0.000000 0.000000
vn 1.000000 0.000000 0.000000
vn 1.000000 0.000000 0.000000
vn 1.000000 0.000000 0.000000
vn 0.000000 -0.217806 0.975992
vn 0.000000 -0.144804 0.989460
vn 0.000000 0.000000 1.000000
vn -0.839466 -0.543413 0.000000
vn -0.839466 -0.543413 0.000000
vn -0.945746 -0.324906 0.000000
vn -0.945746 -0.324906 0.000000
vn 0.000000 1.000000 0.000000
vn 0.000000 1.000000 0.000000
vn 0.000000 1.000000 0.000000
vn 0.000000 1.000000 0.000000
vn 0.000000 -1.000000 0.000000
vn 0.000000 -1.000000 0.000000
vn 0.000000 -1.000000 0.000000
vn 0.000000 -1.000000 0.000000
vn 0.000000 -0.144803 0.989461
vn 0.000000 0.000000 1.000000
vn 0.894581 -0.446905 0.000000
vn 0.894581 -0.446905 0.000000
vn 0.973289 -0.229585 0.000000
vn 0.973289 -0.229585 0.000000
vn 0.000000 -0.272805 0.962069
vn 0.000000 -0.272805 0.962069
vn -0.683622 -0.729836 0.000000
vn -0.683622 -0.729836 0.000000
vn 1.000000 0.000000 0.000000
vn 0.000000 -0.113241 0.993568
vn 0.000000 -0.113241 0.993568
vn -1.000000 0.000000 0.000000
vn -1.000000 0.000000 0.000000
vn -1.000000 0.000000 0.000000
vn 0.000000 -0.217804 0.975993
vn 0.843563 -0.524571 -0.115009
vn 0.905455 -0.409421 -0.111919
vn 0.905455 -0.409421 -0.111919
vn 0.843563 -0.524571 -0.115009
vn -0.894580 -0.446908 0.000000
vn -0.973288 -0.229588 0.000000
vn -0.973288 -0.229588 0.000000
vn -0.894580 -0.446908 0.000000
vn 0.000000 -0.272804 0.962070
vn 0.000000 -0.272804 0.962070
vn 0.767246 -0.630751 -0.116134
vn 0.767246 -0.630751 -0.116134
vn -1.000000 -0.000003 0.000000
vn 0.000000 -0.113241 0.993568
vn 0.000000 -0.113241 0.993568
vn 1.000000 0.000000 0.000000
vn 1.000000 0.000000 0.000000
vn 1.000000 0.000000 0.000000
s 1
g polySurface105
usemtl lambert2SG
f 21/27/1 22/28/2 10/14/3 13/17/4 2/1/5
s 2
f 25/33/6 6/6/7 7/7/8 24/32/9
s 3
f 4/9/10 23/30/11 24/31/12 7/12/13
s off
f 23/29/14 4/4/15 10/14/16 22/28/17
f 4/4/18 12/16/19 13/17/20 10/14/21
f 15/19/22 3/3/23 9/13/24 14/18/25
f 12/16/26 2/1/27 13/17/28
f 1/2/29 15/19/30 14/18/31 11/15/32
s 1
f 14/18/33 9/13/34 17/21/35 16/20/36 11/15/37
s off
f 3/3/38 18/22/39 17/21/40 9/13/41
s 3
f 19/24/42 18/23/43 3/10/44 8/11/45
s 2
f 5/5/46 20/26/47 19/25/48 8/8/49
s 1
f 2/1/5 1/2/50 11/15/37 16/20/36 21/27/1
s off
f 26/34/51 27/35/52 28/36/53 29/37/54
f 18/22/55 23/29/56 22/28/57 17/21/58
s 3
f 24/31/12 23/30/11 18/23/43 19/24/42
s 2
f 20/26/47 25/33/6 24/32/9 19/25/48
s off
f 17/38/59 22/39/60 27/40/61 26/41/62
f 22/42/63 21/43/64 28/44/65 27/45/66
f 21/46/67 16/47/68 29/48/69 28/49/70
f 16/50/71 17/51/72 26/52/73 29/53/74
s 16
f 30/54/75 35/55/76 31/56/77
s 17
f 33/57/78 30/58/79 31/59/80 32/60/81
s off
f 46/85/82 32/62/83 31/61/84 44/84/85
f 35/63/86 34/64/87 47/87/88 43/86/89
s 16
f 31/56/77 35/55/76 43/79/90 44/78/91
s 20
f 34/65/92 35/66/93 38/67/94 37/68/95
s 16
f 35/55/76 30/54/75 39/69/96 38/70/97
s 17
f 30/58/79 33/57/78 36/71/98 39/72/99
s 20
f 37/68/95 38/67/94 41/73/100
s 16
f 38/70/97 39/69/96 40/74/101 41/75/102
s off
f 39/72/103 36/71/104 40/76/105
s 16
f 42/77/106 44/78/91 43/79/90
s 22
f 45/80/107 46/81/108 44/82/109 42/83/110
s 23
f 47/88/111 49/89/112 48/90/113 43/91/114
s 16
f 43/79/90 48/92/115 50/93/116 42/77/106
s 22
f 42/83/110 50/94/117 51/95/118 45/80/107
s 23
f 49/89/112 52/96/119 48/90/113
s 16
f 48/92/115 52/97/120 53/98/121 50/93/116
s off
f 50/94/122 53/99/123 51/95/124
