# This file uses centimeters as units for non-parametric coordinates.

mtllib win2.mtl
g default
v -1.816404 0.189497 0.500000
v -1.574790 0.189497 0.500000
v -1.574790 0.534438 0.500000
v -1.816404 0.534438 0.500000
v -1.478924 0.189497 0.500000
v -1.478924 0.534438 0.500000
v -1.816404 0.488065 0.500000
v -1.574790 0.488065 0.500000
v -1.478924 0.488065 0.500000
v -1.719824 0.189497 0.500000
v -1.719824 0.488065 0.500000
v -1.719824 0.534438 0.500000
v -1.816404 0.251247 0.500000
v -1.719824 0.251247 0.500000
v -1.574790 0.251247 0.500000
v -1.478924 0.251247 0.500000
v -1.719824 0.251247 0.485481
v -1.719824 0.488065 0.485481
v -1.574790 0.251247 0.485481
v -1.574790 0.488065 0.485481
vt 0.464353 0.168697
vt 0.809294 0.168697
vt 0.809221 0.410281
vt 0.464425 0.410281
vt 0.809294 0.506177
vt 0.464353 0.506177
vt 0.510725 0.168697
vt 0.510778 0.410281
vt 0.510725 0.506177
vt 0.809265 0.265265
vt 0.510747 0.265265
vt 0.464382 0.265265
vt 0.747544 0.168697
vt 0.747525 0.265265
vt 0.747497 0.410281
vt 0.747544 0.506177
vt 0.510747 0.265265
vt 0.747525 0.265265
vt 0.747497 0.410281
vt 0.510778 0.410281
vn 0.000000 0.000000 1.000000
vn 0.000000 0.000000 1.000000
vn 0.000000 0.000000 1.000000
vn 0.000000 0.000000 1.000000
vn 0.000000 0.000000 1.000000
vn 0.000000 0.000000 1.000000
vn 0.000000 0.000000 1.000000
vn 0.000000 0.000000 1.000000
vn 0.000000 0.000000 1.000000
vn 0.000000 0.000000 1.000000
vn 0.000000 0.000000 1.000000
vn 0.000000 0.000000 1.000000
vn 0.000000 0.000000 1.000000
vn 0.000000 0.000000 1.000000
vn 0.000000 0.000000 1.000000
vn 0.000000 0.000000 1.000000
vn 0.000000 0.000000 1.000000
vn 0.000000 0.000000 1.000000
vn 0.000000 0.000000 1.000000
vn 0.000000 0.000000 1.000000
vn 1.000000 0.000000 0.000000
vn 1.000000 0.000000 0.000000
vn 1.000000 0.000000 0.000000
vn 1.000000 0.000000 0.000000
vn 0.000000 1.000000 0.000000
vn 0.000000 1.000000 0.000000
vn 0.000000 1.000000 0.000000
vn 0.000000 1.000000 0.000000
vn -1.000000 0.000000 0.000000
vn -1.000000 0.000000 0.000000
vn -1.000000 0.000000 0.000000
vn -1.000000 0.000000 0.000000
vn 0.000001 -1.000000 0.000000
vn 0.000001 -1.000000 0.000000
vn 0.000001 -1.000000 0.000000
vn 0.000001 -1.000000 0.000000
s 1
g polySurface99 polySurface98 pCube46
usemtl lambert2SG
f 4/1/1 7/7/2 11/11/3 12/12/4
f 3/4/5 8/8/6 9/9/7 6/6/8
f 7/7/2 13/13/9 14/14/10 11/11/3
f 9/9/7 8/8/6 15/15/11 16/16/12
s off
f 18/17/13 17/18/14 19/19/15 20/20/16
s 1
f 12/12/4 11/11/3 8/8/6 3/4/5
f 13/13/9 1/2/17 10/10/18 14/14/10
f 15/15/11 14/14/10 10/10/18 2/3/19
f 16/16/12 15/15/11 2/3/19 5/5/20
s off
f 11/11/21 14/14/22 17/18/23 18/17/24
f 14/14/25 15/15/26 19/19/27 17/18/28
f 15/15/29 8/8/30 20/20/31 19/19/32
f 8/8/33 11/11/34 18/17/35 20/20/36
