# This file uses centimeters as units for non-parametric coordinates.

mtllib chimneyType_4.mtl
v -0.300000 1.655244 -0.300000
v 0.300000 1.655244 -0.300000
v 0.300000 1.655244 0.300000
v -0.300000 1.655244 0.300000
v -0.226065 0.000000 0.226065
v 0.226065 0.000000 0.226065
v -0.226065 0.000000 -0.226065
v 0.226065 0.000000 -0.226065
v 0.102878 1.655244 0.300000
v 0.102878 1.655244 -0.300000
v -0.111461 1.655244 0.300000
v -0.111461 1.655244 -0.300000
v -0.300000 1.655244 -0.112671
v 0.300000 1.655244 -0.112671
v 0.102878 1.655244 -0.112671
v -0.111461 1.655244 -0.112671
v -0.300000 1.655244 0.104624
v 0.300000 1.655244 0.104624
v 0.102878 1.655244 0.104624
v -0.111461 1.655244 0.104624
v -0.275077 1.809050 0.275077
v -0.102201 1.809050 0.275077
v -0.102201 1.809050 0.095933
v -0.275077 1.809050 0.095933
v 0.094331 1.809050 -0.103310
v 0.094331 1.809050 -0.275077
v 0.275077 1.809050 -0.103310
v 0.275077 1.809050 -0.275077
v -0.102201 1.809050 -0.103310
v -0.275077 1.809050 -0.103310
v -0.102201 1.809050 -0.275077
v -0.275077 1.809050 -0.275077
v 0.094331 1.809050 0.095933
v 0.275077 1.809050 0.095933
v 0.094331 1.809050 0.275077
v 0.275077 1.809050 0.275077
vt 0.289218 0.658689
vt 0.710782 0.658689
vt 0.710782 0.341311
vt 0.289218 0.341311
vt 0.123225 -0.000000
vt 0.876775 -0.000000
vt 1.000000 0.914980
vt 0.687785 0.914980
vt 0.325627 0.914980
vt 0.000000 0.914980
vt 0.306729 0.354495
vt 0.428193 0.354495
vt 0.428193 0.449255
vt 0.306729 0.449255
vt 0.876775 -0.000000
vt 0.123225 -0.000000
vt 0.000000 0.914980
vt 0.325627 0.914980
vt 0.123225 -0.000000
vt 0.876775 -0.000000
vt 0.687785 0.914980
vt 1.000000 0.914980
vt 0.000000 0.914980
vt 0.325627 0.914980
vt 0.340112 1.000000
vt 0.041538 1.000000
vt 0.041538 1.000000
vt 0.340112 1.000000
vt 0.566278 0.645505
vt 0.566278 0.554647
vt 0.693271 0.554647
vt 0.693271 0.645505
vt 0.306729 0.554647
vt 0.428193 0.554647
vt 0.428193 0.645505
vt 0.306729 0.645505
vt 0.693271 0.449255
vt 0.566278 0.449255
vt 0.566278 0.354495
vt 0.693271 0.354495
vt 1.000000 0.914980
vt 0.687785 0.914980
vt 0.672183 1.000000
vt 0.958462 1.000000
vt 0.958462 1.000000
vt 0.672183 1.000000
vt 0.687785 0.914980
vt 1.000000 0.914980
vt 1.000000 0.914980
vt 0.671463 0.914980
vt 0.314232 0.914980
vt 0.000000 0.914980
vt 0.000000 0.914980
vt 0.314232 0.914980
vt 0.671463 0.914980
vt 1.000000 0.914980
vt 0.876775 -0.000000
vt 0.123225 -0.000000
vt 0.329665 1.000000
vt 0.041538 1.000000
vt 0.314232 0.914980
vt 0.000000 0.914980
vt 0.041538 1.000000
vt 0.329665 1.000000
vt 0.671463 0.914980
vt 1.000000 0.914980
vt 0.958462 1.000000
vt 0.657218 1.000000
vt 0.657218 1.000000
vt 0.958462 1.000000
vt 0.000000 0.914980
vt 0.314232 0.914980
vt 0.329665 1.000000
vt 0.041538 1.000000
vt 0.041538 1.000000
vt 0.329665 1.000000
vt 1.000000 0.914980
vt 0.671463 0.914980
vt 0.657218 1.000000
vt 0.958462 1.000000
vt 0.958462 1.000000
vt 0.657218 1.000000
vt 0.958462 1.000000
vt 0.672183 1.000000
vt 0.672183 1.000000
vt 0.958462 1.000000
vt 0.325627 0.914980
vt 0.000000 0.914980
vt 0.041538 1.000000
vt 0.340112 1.000000
vt 0.340112 1.000000
vt 0.041538 1.000000
vn 0.000000 -1.000000 0.000000
vn 0.000000 -1.000000 0.000000
vn 0.000000 -1.000000 0.000000
vn 0.000000 -1.000000 0.000000
vn 0.000000 -0.189452 0.981890
vn 0.000000 -0.189452 0.981890
vn 0.000000 -0.189452 0.981890
vn 0.000000 -0.189452 0.981890
vn 0.000000 -0.189452 0.981890
vn 0.000000 -0.189452 0.981890
vn 0.000000 1.000000 0.000000
vn 0.000000 1.000000 0.000000
vn 0.000000 1.000000 0.000000
vn 0.000000 1.000000 0.000000
vn 0.000000 -0.189452 -0.981890
vn 0.000000 -0.189452 -0.981890
vn 0.000000 -0.189452 -0.981890
vn 0.000000 -0.189452 -0.981890
vn 0.000000 -0.189452 -0.981890
vn 0.000000 -0.189452 -0.981890
vn 0.981890 -0.189452 0.000000
vn 0.981890 -0.189452 0.000000
vn 0.981890 -0.189452 0.000000
vn 0.981890 -0.189452 0.000000
vn 0.981890 -0.189452 0.000000
vn 0.981890 -0.189452 0.000000
vn -0.981890 -0.189452 0.000000
vn -0.981890 -0.189452 0.000000
vn -0.981890 -0.189452 0.000000
vn -0.981890 -0.189452 0.000000
vn -0.981890 -0.189452 0.000000
vn -0.981890 -0.189452 0.000000
vn 0.000000 1.000000 0.000000
vn 0.000000 1.000000 0.000000
vn 0.000000 1.000000 0.000000
vn 0.000000 1.000000 0.000000
vn 0.000000 1.000000 0.000000
vn 0.000000 1.000000 0.000000
vn 0.000000 1.000000 0.000000
vn 0.000000 1.000000 0.000000
vn 0.000000 1.000000 0.000000
vn 0.000000 1.000000 0.000000
vn 0.000000 1.000000 0.000000
vn 0.000000 1.000000 0.000000
vn 0.000000 0.159956 0.987124
vn 0.000000 0.159956 0.987124
vn 0.000000 0.159956 0.987124
vn 0.000000 0.159956 0.987124
vn 0.998193 -0.060096 0.000000
vn 0.998193 -0.060096 0.000000
vn 0.998193 -0.060096 0.000000
vn 0.998193 -0.060096 0.000000
vn 0.000000 -0.056422 -0.998407
vn 0.000000 -0.056422 -0.998407
vn 0.000000 -0.056422 -0.998407
vn 0.000000 -0.056422 -0.998407
vn -0.987124 0.159956 0.000000
vn -0.987124 0.159956 0.000000
vn -0.987124 0.159956 0.000000
vn -0.987124 0.159956 0.000000
vn -0.998460 -0.055483 0.000000
vn -0.998460 -0.055483 0.000000
vn -0.998460 -0.055483 0.000000
vn -0.998460 -0.055483 0.000000
vn 0.000000 -0.060746 0.998153
vn 0.000000 -0.060746 0.998153
vn 0.000000 -0.060746 0.998153
vn 0.000000 -0.060746 0.998153
vn 0.987124 0.159956 0.000000
vn 0.987124 0.159956 0.000000
vn 0.987124 0.159956 0.000000
vn 0.987124 0.159956 0.000000
vn 0.000000 0.159956 -0.987124
vn 0.000000 0.159956 -0.987124
vn 0.000000 0.159956 -0.987124
vn 0.000000 0.159956 -0.987124
vn 0.000000 -0.060746 0.998153
vn 0.000000 -0.060746 0.998153
vn 0.000000 -0.060746 0.998153
vn 0.000000 -0.060746 0.998153
vn 0.998193 -0.060096 0.000000
vn 0.998193 -0.060096 0.000000
vn 0.998193 -0.060096 0.000000
vn 0.998193 -0.060096 0.000000
vn 0.000000 0.159956 -0.987124
vn 0.000000 0.159956 -0.987124
vn 0.000000 0.159956 -0.987124
vn 0.000000 0.159956 -0.987124
vn -0.987124 0.159956 0.000000
vn -0.987124 0.159956 0.000000
vn -0.987124 0.159956 0.000000
vn -0.987124 0.159956 0.000000
vn 0.000000 -0.056422 -0.998407
vn 0.000000 -0.056422 -0.998407
vn 0.000000 -0.056422 -0.998407
vn 0.000000 -0.056422 -0.998407
vn -0.998460 -0.055483 0.000000
vn -0.998460 -0.055483 0.000000
vn -0.998460 -0.055483 0.000000
vn -0.998460 -0.055483 0.000000
vn 0.000000 0.159956 0.987124
vn 0.000000 0.159956 0.987124
vn 0.000000 0.159956 0.987124
vn 0.000000 0.159956 0.987124
vn 0.987124 0.159956 0.000000
vn 0.987124 0.159956 0.000000
vn 0.987124 0.159956 0.000000
vn 0.987124 0.159956 0.000000
s off
g polySurface4
usemtl initialShadingGroup1
f 1/1/1 2/2/2 3/3/3 4/4/4
f 5/19/5 6/20/6 3/49/7 9/50/8 11/51/9 4/52/10
f 21/11/11 22/12/12 23/13/13 24/14/14
f 1/53/15 12/54/16 10/55/17 2/56/18 8/57/19 7/58/20
f 6/5/21 8/6/22 2/7/23 14/8/24 18/9/25 3/10/26
f 7/15/27 5/16/28 4/17/29 17/18/30 13/21/31 1/22/32
f 26/29/33 25/30/34 27/31/35 28/32/36
f 30/33/37 29/34/38 31/35/39 32/36/40
f 34/37/41 33/38/42 35/39/43 36/40/44
f 4/52/45 11/51/46 22/59/47 21/60/48
f 11/23/49 20/24/50 23/25/51 22/26/52
f 20/61/53 17/62/54 24/63/55 23/64/56
f 17/18/57 4/17/58 21/27/59 24/28/60
f 10/41/61 15/42/62 25/43/63 26/44/64
f 15/65/65 14/66/66 27/67/67 25/68/68
f 14/8/69 2/7/70 28/45/71 27/46/72
f 2/56/73 10/55/74 26/69/75 28/70/76
f 13/71/77 16/72/78 29/73/79 30/74/80
f 16/47/81 12/48/82 31/83/83 29/84/84
f 12/54/85 1/53/86 32/75/87 31/76/88
f 1/22/89 13/21/90 30/85/91 32/86/92
f 18/77/93 19/78/94 33/79/95 34/80/96
f 19/87/97 9/88/98 35/89/99 33/90/100
f 9/50/101 3/49/102 36/81/103 35/82/104
f 3/10/105 18/9/106 34/91/107 36/92/108
