# This file uses centimeters as units for non-parametric coordinates.

mtllib lamp2.mtl
v 0.082630 -0.001600 -0.154333
v -0.093943 -0.001600 -0.154333
v -0.182230 -0.001600 -0.001416
v -0.093943 -0.001600 0.151501
v 0.082630 -0.001600 0.151501
v 0.170916 -0.001600 -0.001416
v 0.082630 1.222202 -0.154333
v -0.093943 1.222202 -0.154333
v -0.182230 1.222202 -0.001416
v -0.093943 1.222202 0.151501
v 0.082630 1.222202 0.151501
v 0.170916 1.222202 -0.001416
v 0.048852 1.505719 -0.095828
v -0.060166 1.505719 -0.095828
v -0.114674 1.505719 -0.001416
v -0.060166 1.505719 0.092997
v 0.048852 1.505719 0.092997
v 0.103361 1.505719 -0.001416
v 0.513744 5.855841 -0.163475
v 0.430103 5.876083 -0.163473
v 0.388288 5.886230 -0.088941
v 0.430103 5.876084 -0.014412
v 0.513743 5.855841 -0.014414
v 0.555568 5.845745 -0.088945
v 0.403478 5.948403 -0.088940
v 0.454803 5.976906 -0.014550
v 0.538378 5.956405 -0.014552
v 0.435791 5.899426 -0.163335
v 0.570679 5.907599 -0.088944
v 0.519417 5.879123 -0.163337
v 0.418169 6.008027 -0.124469
v 0.476486 6.064272 -0.075462
v 0.560006 6.043545 -0.075463
v 0.443543 5.931118 -0.173479
v 0.585295 5.966917 -0.124471
v 0.527148 5.910732 -0.173480
v 0.433182 6.067872 -0.200212
v 0.494688 6.136495 -0.179386
v 0.578011 6.115622 -0.179386
v 0.455241 5.978416 -0.221047
v 0.599958 6.026523 -0.200213
v 0.538694 5.957939 -0.221047
v 0.616316 6.091807 -0.330349
v 0.449625 6.133491 -0.330349
v 0.554299 6.020909 -0.333425
v 0.470886 6.041547 -0.333425
v 0.511899 6.204430 -0.327274
v 0.595176 6.183382 -0.327274
v 0.648229 6.217520 -0.816705
v 0.481704 6.259849 -0.816705
v 0.585936 6.146919 -0.819780
v 0.502605 6.167878 -0.819780
v 0.544254 6.330489 -0.813631
v 0.627448 6.309119 -0.813631
v 0.297184 6.160842 -0.628276
v 0.766380 6.043686 -0.628276
v 0.429321 6.339778 -0.580445
v 0.735316 6.261385 -0.580445
v 0.467412 6.485890 -1.469236
v 0.773047 6.406127 -1.469236
v 0.334467 6.307700 -1.506445
v 0.803126 6.188444 -1.506445
v 0.393134 6.109630 -0.512308
v 0.657641 6.043803 -0.512308
v 0.650168 6.206906 -0.464814
v 0.477600 6.250711 -0.464814
v -0.007573 3.806804 -0.129651
v 0.088495 3.789829 -0.129652
v 0.136531 3.781375 -0.045180
v 0.088494 3.789829 0.039291
v -0.007573 3.806804 0.039292
v -0.055603 3.815325 -0.045178
vt 3.397637 0.074058
vt 3.397637 0.252503
vt 2.160856 0.252503
vt 2.160856 0.074058
vt 1.874333 0.218367
vt 1.874333 0.108193
vt -0.451154 0.165216
vt -0.434000 0.068130
vt -2.542377 -0.277101
vt -2.521920 -0.361629
vt -2.565967 -0.282850
vt -2.545448 -0.367362
vt -2.597996 -0.290685
vt -2.577394 -0.375175
vt -2.645796 -0.302505
vt -2.625101 -0.386844
vt -2.697420 1.031421
vt -2.697420 0.876882
vt -1.460640 0.876883
vt -1.460640 1.031421
vt -2.697420 0.722344
vt -1.460640 0.722344
vt -1.174116 0.876883
vt -1.174116 0.972296
vt -1.174116 0.781468
vt 1.159983 0.921108
vt 1.151370 1.006476
vt 1.151371 0.835742
vt 3.252849 0.965335
vt 3.242595 1.040658
vt 3.242595 0.890016
vt 3.315681 0.965335
vt 3.266186 1.040518
vt 3.344488 0.890156
vt 3.375937 1.001241
vt 3.298213 1.050770
vt 3.432779 0.951713
vt 3.436418 1.077787
vt 3.346014 1.098842
vt 3.505768 1.056740
vt 3.502731 1.209303
vt 3.409812 1.212412
vt 3.574425 1.206197
vt 3.630430 1.700817
vt 3.537483 1.703925
vt 3.701818 1.697710
vt -2.645795 0.950168
vt -2.645796 0.771723
vt -1.409016 0.771723
vt -1.409016 0.950168
vt -1.122492 0.805859
vt -1.122492 0.916033
vt 1.185841 0.765796
vt 1.202995 0.862883
vt 3.273761 0.336038
vt 3.294219 0.420565
vt 3.375393 0.311141
vt 3.396111 0.395603
vt 3.463458 0.289284
vt 3.484403 0.373689
vt -2.697420 0.679519
vt -2.697420 0.524980
vt -1.460640 0.524980
vt -1.460640 0.679520
vt -2.697420 0.370442
vt -1.460640 0.370442
vt -1.174116 0.524980
vt -1.174116 0.620394
vt -1.174116 0.429567
vt 1.125673 0.480752
vt 1.134216 0.566119
vt 1.134216 0.395385
vt 3.211935 0.436524
vt 3.222137 0.511845
vt 3.222137 0.361202
vt 3.274444 0.436524
vt 3.323768 0.511705
vt 3.245665 0.361342
vt 3.334391 0.400620
vt 3.411832 0.450148
vt 3.277611 0.351091
vt 3.394629 0.324075
vt 3.484674 0.345124
vt 3.325318 0.303020
vt 3.460607 0.192559
vt 3.553153 0.195666
vt 3.388955 0.189451
vt 3.587652 -0.298954
vt 3.680222 -0.295848
vt 3.516303 -0.302062
vt -1.510277 -1.745541
vt -1.510277 -1.798630
vt -1.444219 -1.810075
vt -1.444219 -1.757112
vt -1.350214 -1.820986
vt -1.350215 -1.768051
vt -1.041065 -1.841499
vt -1.041065 -1.788618
vt -1.069817 -1.945551
vt -1.042910 -2.051402
vt -0.998033 -2.011806
vt -1.011355 -1.958836
vt -1.114718 -1.985311
vt -1.101134 -2.038193
vt -1.129696 -1.922918
vt -1.129696 -1.869872
vt -1.201128 -1.879817
vt -1.201128 -1.932838
vt -1.510277 -1.899979
vt -1.510278 -1.952948
vt -1.029268 -2.116267
vt -1.197400 -2.074425
vt -1.192649 -2.178100
vt -1.082957 -2.205945
vt -1.436778 -1.145830
vt -1.436778 -1.340334
vt -0.871823 -1.364318
vt -0.871823 -1.170042
vt -1.510277 -1.176519
vt -1.510278 -1.286210
vt -1.296884 -1.979576
vt -1.491159 -2.030277
vt -1.510278 -2.168646
vt -1.212378 -2.092842
vt -1.510277 -1.418190
vt -1.510277 -1.716090
vt -0.952075 -1.692733
vt -0.952075 -1.394491
vt -0.878359 -1.623613
vt -0.878359 -1.455481
vt -0.952074 -0.626567
vt -1.510277 -0.718581
vt -1.486625 -0.856951
vt -0.921671 -0.764946
vt -0.848171 -0.730317
vt -0.878359 -0.626642
vt -0.848171 -1.008444
vt -1.406374 -0.915094
vt -1.436777 -1.028834
vt -0.871823 -1.121709
vt -1.480088 -0.882542
vt -1.510277 -0.972219
vn 0.000000 0.000000 -1.000000
vn 0.000000 0.000000 -1.000000
vn 0.000000 0.101573 -0.994828
vn 0.000000 0.101573 -0.994828
vn -0.866026 0.000000 -0.500000
vn -0.866026 0.000000 -0.500000
vn -0.861547 0.101573 -0.497414
vn -0.861547 0.101573 -0.497414
vn -0.866025 0.000000 0.500001
vn -0.866025 0.000000 0.500001
vn -0.861546 0.101574 0.497415
vn -0.861546 0.101574 0.497415
vn 0.000000 0.000000 1.000000
vn 0.000000 0.000000 1.000000
vn 0.000000 0.101573 0.994828
vn 0.000000 0.101573 0.994828
vn 0.866025 0.000000 0.500000
vn 0.866025 0.000000 0.500000
vn 0.861546 0.101574 0.497414
vn 0.861546 0.101574 0.497414
vn 0.866026 0.000000 -0.499999
vn 0.866026 0.000000 -0.499999
vn 0.861547 0.101573 -0.497413
vn 0.861547 0.101573 -0.497413
vn 0.000000 0.101573 -0.994828
vn 0.000000 0.101573 -0.994828
vn -0.000616 0.094245 -0.995549
vn -0.000616 0.094245 -0.995549
vn -0.861547 0.101573 -0.497414
vn -0.861547 0.101573 -0.497414
vn -0.861622 0.107853 -0.495958
vn -0.861622 0.107853 -0.495958
vn -0.861546 0.101574 0.497415
vn -0.861546 0.101574 0.497415
vn -0.860504 0.117240 0.495770
vn -0.860504 0.117240 0.495770
vn 0.000000 0.101573 0.994828
vn 0.000000 0.101573 0.994828
vn 0.000973 0.113197 0.993572
vn 0.000973 0.113197 0.993572
vn 0.861546 0.101574 0.497414
vn 0.861546 0.101574 0.497414
vn 0.862426 0.099972 0.496212
vn 0.862426 0.099972 0.496212
vn 0.861547 0.101573 -0.497413
vn 0.861547 0.101573 -0.497413
vn 0.863019 0.090465 -0.497006
vn 0.863019 0.090465 -0.497006
vn -0.000616 0.094245 -0.995549
vn -0.000616 0.094245 -0.995549
vn -0.002246 -0.015201 -0.999882
vn -0.002246 -0.015201 -0.999882
vn -0.861622 0.107853 -0.495958
vn -0.861622 0.107853 -0.495958
vn -0.860869 0.092313 -0.500383
vn -0.860869 0.092313 -0.500383
vn -0.860504 0.117240 0.495770
vn -0.860504 0.117240 0.495770
vn -0.858393 0.111936 0.500631
vn -0.858393 0.111936 0.500631
vn 0.000973 0.113197 0.993572
vn 0.000973 0.113197 0.993572
vn 0.003554 0.024133 0.999702
vn 0.003554 0.024133 0.999702
vn 0.862426 0.099972 0.496212
vn 0.862426 0.099972 0.496212
vn 0.861923 -0.082937 0.500210
vn 0.861923 -0.082937 0.500210
vn 0.863019 0.090465 -0.497006
vn 0.863019 0.090465 -0.497006
vn 0.859601 -0.102725 -0.500534
vn 0.859601 -0.102725 -0.500534
vn -0.840836 0.206205 0.500473
vn -0.840836 0.206205 0.500473
vn -0.826924 0.334495 0.452006
vn -0.826924 0.334495 0.452006
vn 0.000336 0.001291 0.999999
vn 0.000336 0.001291 0.999999
vn 0.070445 0.285439 0.955804
vn 0.070445 0.285439 0.955804
vn -0.840907 0.206117 -0.500390
vn -0.840907 0.206117 -0.500390
vn -0.877320 0.107286 -0.467760
vn -0.877320 0.107286 -0.467760
vn 0.841297 -0.205455 0.500007
vn 0.841297 -0.205455 0.500007
vn 0.887915 -0.087080 0.451690
vn 0.887915 -0.087080 0.451690
vn 0.841193 -0.204541 -0.500557
vn 0.841193 -0.204541 -0.500557
vn 0.827480 -0.310681 -0.467712
vn 0.827480 -0.310681 -0.467712
vn 0.001329 0.005613 -0.999983
vn 0.001329 0.005613 -0.999983
vn -0.034894 -0.143296 -0.989065
vn -0.034894 -0.143296 -0.989065
vn -0.826924 0.334495 0.452006
vn -0.826924 0.334495 0.452006
vn -0.784501 0.518624 0.339981
vn -0.784501 0.518624 0.339981
vn 0.070445 0.285439 0.955804
vn 0.070445 0.285439 0.955804
vn 0.168185 0.677378 0.716152
vn 0.168185 0.677378 0.716152
vn -0.877320 0.107286 -0.467760
vn -0.877320 0.107286 -0.467760
vn -0.924490 -0.063433 -0.375891
vn -0.924490 -0.063433 -0.375891
vn 0.887915 -0.087080 0.451690
vn 0.887915 -0.087080 0.451690
vn 0.935875 0.092179 0.340060
vn 0.935875 0.092179 0.340060
vn 0.827480 -0.310681 -0.467712
vn 0.827480 -0.310681 -0.467712
vn 0.788823 -0.486635 -0.375427
vn 0.788823 -0.486635 -0.375427
vn -0.034894 -0.143296 -0.989065
vn -0.034894 -0.143296 -0.989065
vn -0.070293 -0.288822 -0.954799
vn -0.070293 -0.288822 -0.954799
vn -0.784501 0.518624 0.339981
vn -0.784501 0.518624 0.339981
vn -0.758319 0.603242 0.247088
vn -0.758319 0.603242 0.247088
vn 0.168185 0.677378 0.716152
vn 0.168185 0.677378 0.716152
vn 0.209487 0.836135 0.506946
vn 0.209487 0.836135 0.506946
vn -0.924490 -0.063433 -0.375891
vn -0.924490 -0.063433 -0.375891
vn -0.946968 -0.165563 -0.275392
vn -0.946968 -0.165563 -0.275392
vn 0.935875 0.092179 0.340060
vn 0.935875 0.092179 0.340060
vn 0.952901 0.175686 0.247214
vn 0.952901 0.175686 0.247214
vn 0.788823 -0.486635 -0.375427
vn 0.788823 -0.486635 -0.375427
vn 0.759149 -0.590016 -0.274906
vn 0.759149 -0.590016 -0.274906
vn -0.166087 -0.679010 -0.715095
vn -0.166087 -0.679010 -0.715095
vn -0.188355 -0.766935 -0.613460
vn -0.188355 -0.766935 -0.613460
vn 0.009002 0.035523 -0.999328
vn 0.009002 0.035523 -0.999328
vn 0.009002 0.035523 -0.999328
vn 0.009002 0.035523 -0.999328
vn 0.009065 0.035535 -0.999327
vn 0.009065 0.035535 -0.999327
vn 0.009065 0.035535 -0.999327
vn 0.009065 0.035535 -0.999327
vn 0.759149 -0.590016 -0.274906
vn 0.759149 -0.590016 -0.274906
vn 0.749637 -0.638187 -0.175392
vn 0.749637 -0.638187 -0.175392
vn -0.188355 -0.766935 -0.613460
vn -0.188355 -0.766935 -0.613460
vn -0.222394 -0.896700 -0.382714
vn -0.222394 -0.896700 -0.382714
vn -0.946968 -0.165563 -0.275392
vn -0.946968 -0.165563 -0.275392
vn -0.962233 -0.207911 -0.175731
vn -0.962233 -0.207911 -0.175731
vn 0.209487 0.836135 0.506946
vn 0.209487 0.836135 0.506946
vn 0.230494 0.910092 0.344391
vn 0.230494 0.910092 0.344391
vn 0.952901 0.175686 0.247214
vn 0.952901 0.175686 0.247214
vn 0.963715 0.209156 0.165854
vn 0.963715 0.209156 0.165854
vn -0.758319 0.603242 0.247088
vn -0.758319 0.603242 0.247088
vn -0.748934 0.641574 0.165773
vn -0.748934 0.641574 0.165773
vn 0.749637 -0.638187 -0.175392
vn 0.749637 -0.638187 -0.175392
vn 0.748422 -0.652293 -0.119907
vn 0.748422 -0.652293 -0.119907
vn -0.222394 -0.896700 -0.382714
vn -0.222394 -0.896700 -0.382714
vn -0.233826 -0.937316 -0.258388
vn -0.233826 -0.937316 -0.258388
vn -0.962233 -0.207911 -0.175731
vn -0.962233 -0.207911 -0.175731
vn -0.968520 -0.218014 -0.120158
vn -0.968520 -0.218014 -0.120158
vn 0.230494 0.910092 0.344391
vn 0.230494 0.910092 0.344391
vn 0.238540 0.936183 0.258187
vn 0.238540 0.936183 0.258187
vn 0.963715 0.209156 0.165854
vn 0.963715 0.209156 0.165854
vn 0.968603 0.217639 0.120174
vn 0.968603 0.217639 0.120174
vn -0.748934 0.641574 0.165773
vn -0.748934 0.641574 0.165773
vn -0.747247 0.653601 0.120111
vn -0.747247 0.653601 0.120111
vn -0.070492 -0.281031 0.957106
vn -0.070492 -0.281031 0.957106
vn -0.070492 -0.281031 0.957106
vn -0.070492 -0.281031 0.957106
vn 0.232258 0.903414 0.360416
vn 0.232258 0.903414 0.360416
vn 0.246843 0.954605 0.166725
vn 0.246843 0.954605 0.166725
vn 0.044562 0.173368 -0.983849
vn 0.044562 0.173368 -0.983849
vn 0.044562 0.173368 -0.983849
vn 0.044562 0.173368 -0.983849
vn -0.240922 -0.955745 -0.168843
vn -0.240922 -0.955745 -0.168843
vn -0.238534 -0.951310 -0.195219
vn -0.238534 -0.951310 -0.195219
vn 0.930698 0.025150 0.364924
vn 0.989955 0.126814 0.062503
vn 0.989955 0.126814 0.062503
vn 0.930698 0.025150 0.364924
vn -0.808471 0.585204 0.062542
vn -0.805773 0.466652 0.364644
vn -0.805773 0.466652 0.364644
vn -0.808471 0.585204 0.062542
vn -0.238534 -0.951310 -0.195219
vn -0.238534 -0.951310 -0.195219
vn -0.235975 -0.946189 -0.221455
vn -0.235975 -0.946189 -0.221455
vn 0.930698 0.025150 0.364924
vn 0.930698 0.025150 0.364924
vn 0.773433 -0.079162 0.628916
vn 0.773433 -0.079162 0.628916
vn 0.232258 0.903414 0.360416
vn 0.232258 0.903414 0.360416
vn 0.208301 0.815770 0.539564
vn 0.208301 0.815770 0.539564
vn -0.805773 0.466652 0.364644
vn -0.805773 0.466652 0.364644
vn -0.718206 0.298950 0.628339
vn -0.718206 0.298950 0.628339
vn -0.002246 -0.015201 -0.999882
vn -0.002246 -0.015201 -0.999882
vn -0.003266 -0.015674 -0.999872
vn -0.003266 -0.015674 -0.999872
vn 0.859601 -0.102725 -0.500534
vn 0.859601 -0.102725 -0.500534
vn 0.846703 -0.182462 -0.499802
vn 0.846703 -0.182462 -0.499802
vn 0.861923 -0.082937 0.500210
vn 0.861923 -0.082937 0.500210
vn 0.850846 -0.162126 0.499777
vn 0.850846 -0.162126 0.499777
vn 0.003554 0.024133 0.999702
vn 0.003554 0.024133 0.999702
vn 0.005170 0.024886 0.999677
vn 0.005170 0.024886 0.999677
vn -0.858393 0.111936 0.500631
vn -0.858393 0.111936 0.500631
vn -0.844680 0.191623 0.499797
vn -0.844680 0.191623 0.499797
vn -0.860869 0.092313 -0.500383
vn -0.860869 0.092313 -0.500383
vn -0.848984 0.171407 -0.499846
vn -0.848984 0.171407 -0.499846
g Misc lamp_new_ok1 polySurface1
usemtl phong1SG
f 1/1/1 2/2/2 8/3/3 7/4/4
f 2/17/5 3/18/6 9/19/7 8/20/8
f 3/18/9 4/21/10 10/22/11 9/19/12
f 4/47/13 5/48/14 11/49/15 10/50/16
f 5/61/17 6/62/18 12/63/19 11/64/20
f 6/62/21 1/65/22 7/66/23 12/63/24
f 7/4/25 8/3/26 14/5/27 13/6/28
f 8/20/29 9/19/30 15/23/31 14/24/32
f 9/19/33 10/22/34 16/25/35 15/23/36
f 10/50/37 11/49/38 17/51/39 16/52/40
f 11/64/41 12/63/42 18/67/43 17/68/44
f 12/63/45 7/66/46 13/69/47 18/67/48
f 13/6/49 14/5/50 67/7/51 68/8/52
f 14/24/53 15/23/54 72/26/55 67/27/56
f 15/23/57 16/25/58 71/28/59 72/26/60
f 16/52/61 17/51/62 70/53/63 71/54/64
f 17/68/65 18/67/66 69/70/67 70/71/68
f 18/67/69 13/69/70 68/72/71 69/70/72
f 21/29/73 22/31/74 26/34/75 25/32/76
f 22/56/77 23/55/78 27/57/79 26/58/80
f 20/30/81 21/29/82 25/32/83 28/33/84
f 23/74/85 24/73/86 29/76/87 27/77/88
f 24/73/89 19/75/90 30/78/91 29/76/92
f 19/10/93 20/9/94 28/11/95 30/12/96
f 25/32/97 26/34/98 32/37/99 31/35/100
f 26/58/101 27/57/102 33/59/103 32/60/104
f 28/33/105 25/32/106 31/35/107 34/36/108
f 27/77/109 29/76/110 35/79/111 33/80/112
f 29/76/113 30/78/114 36/81/115 35/79/116
f 30/12/117 28/11/118 34/13/119 36/14/120
f 31/35/121 32/37/122 38/40/123 37/38/124
f 32/91/125 33/92/126 39/93/127 38/94/128
f 34/36/129 31/35/130 37/38/131 40/39/132
f 33/80/133 35/79/134 41/82/135 39/83/136
f 35/79/137 36/81/138 42/84/139 41/82/140
f 36/14/141 34/13/142 40/15/143 42/16/144
f 50/99/145 49/100/146 51/101/147 52/102/148
f 53/103/149 54/104/150 49/100/151 50/99/152
f 41/82/153 42/84/154 45/87/155 43/85/156
f 42/105/157 40/106/158 46/107/159 45/108/160
f 40/39/161 37/38/162 44/41/163 46/42/164
f 38/94/165 39/93/166 48/95/167 47/96/168
f 39/83/169 41/82/170 43/85/171 48/86/172
f 37/38/173 38/40/174 47/43/175 44/41/176
f 43/85/177 45/87/178 51/90/179 49/88/180
f 45/108/181 46/107/182 52/109/183 51/110/184
f 46/42/185 44/41/186 50/44/187 52/45/188
f 47/96/189 48/95/190 54/97/191 53/98/192
f 48/86/193 43/85/194 49/88/195 54/89/196
f 44/41/197 47/43/198 53/46/199 50/44/200
f 63/111/201 64/112/202 65/113/203 66/114/204
f 57/115/205 58/116/206 60/117/207 59/118/208
f 59/121/209 60/122/210 62/123/211 61/124/212
f 61/125/213 62/126/214 56/127/215 55/128/216
f 56/131/217 62/132/218 60/133/219 58/134/220
f 61/137/221 55/138/222 57/139/223 59/140/224
f 55/128/225 56/127/226 64/129/227 63/130/228
f 56/131/229 58/134/230 65/135/231 64/136/232
f 58/116/233 57/115/234 66/119/235 65/120/236
f 57/139/237 55/138/238 63/141/239 66/142/240
f 68/8/241 67/7/242 20/9/243 19/10/244
f 69/70/245 68/72/246 19/75/247 24/73/248
f 70/71/249 69/70/250 24/73/251 23/74/252
f 71/54/253 70/53/254 23/55/255 22/56/256
f 72/26/257 71/28/258 22/31/259 21/29/260
f 67/27/261 72/26/262 21/29/263 20/30/264
