# This file uses centimeters as units for non-parametric coordinates.

mtllib lamp3.mtl
v 0.034126 -0.009441 -0.153287
v -0.141315 -0.009441 -0.153287
v -0.178553 1.238194 -0.153287
v -0.010727 1.187068 -0.153287
v -0.229036 -0.009441 -0.001351
v -0.262467 1.263757 -0.001351
v -0.141315 -0.009441 0.150586
v -0.178553 1.238194 0.150586
v 0.034126 -0.009441 0.150586
v -0.010727 1.187068 0.150586
v 0.121847 -0.009441 -0.001351
v 0.073187 1.161505 -0.001351
v -0.064357 1.497887 -0.095158
v 0.039260 1.466321 -0.095157
v -0.116166 1.513670 -0.001351
v -0.064357 1.497887 0.092457
v 0.039260 1.466321 0.092457
v 0.091069 1.450538 -0.001351
v 0.159837 3.117947 -0.128763
v 0.255288 3.101081 -0.128764
v 0.112114 3.126413 -0.044832
v 0.159837 3.117947 0.039097
v 0.255288 3.101081 0.039095
v 0.303017 3.092681 -0.044834
v 1.361009 0.261937 -0.917394
v 1.377505 0.219186 -0.845204
v 1.477885 0.217973 -0.868864
v 1.422920 0.261228 -0.931900
v 1.376757 0.133685 -0.845030
v 1.476880 0.132477 -0.868631
v 1.343716 0.219185 -0.989402
v 1.366988 0.218934 -0.994715
v 1.359515 0.090937 -0.917048
v 1.421108 0.090233 -0.931480
v 1.342970 0.133685 -0.989230
v 1.366182 0.133435 -0.994528
v 1.551149 0.216650 -0.948191
v 1.474266 0.260429 -0.980189
v 1.549920 0.131158 -0.947904
v 1.396249 0.218564 -1.011923
v 1.472150 0.089439 -0.979695
v 1.395360 0.133066 -1.011717
v 1.599632 0.215289 -1.065607
v 1.516773 0.259368 -1.067441
v 1.598224 0.129954 -1.065276
v 1.432595 0.217887 -1.068979
v 1.514358 0.088663 -1.066879
v 1.431589 0.132517 -1.068746
v 1.568557 0.255617 -1.708709
v 1.565161 0.084933 -1.707914
v 1.484291 0.129329 -1.692103
v 1.485779 0.214691 -1.692452
v 1.649519 0.210981 -1.724542
v 1.647614 0.125659 -1.724096
v 1.468868 0.131587 -1.192164
v 1.549959 0.087525 -1.208024
v 1.470036 0.216954 -1.192433
v 1.552708 0.258223 -1.208666
v 1.632309 0.128593 -1.224183
v 1.633893 0.213923 -1.224554
v -0.689237 0.080257 -0.478544
v -0.694293 0.177048 -0.477358
v -0.667529 0.031866 -0.397426
v -0.650943 0.080257 -0.315110
v -0.655999 0.177048 -0.313925
v -0.677641 0.225448 -0.395055
v 1.476602 0.307523 -1.376526
v 1.472537 0.036728 -1.375574
v 1.635348 0.080668 -1.365255
v 1.638809 0.257531 -1.366065
v 1.685943 0.324300 -1.495110
v 1.679128 0.010525 -1.493514
v 1.622317 0.006585 -2.387213
v 1.630501 0.320321 -2.389131
v 1.415361 -0.071514 -2.376695
v 1.425036 0.408877 -2.378962
v 1.469967 -0.068532 -1.493318
v 1.477545 0.411907 -1.495092
vt -0.226615 1.972968
vt -0.376440 1.972968
vt -0.408242 0.907495
vt -0.264919 0.951156
vt -0.685335 -0.697804
vt -0.555582 -0.697804
vt -0.555582 0.389500
vt -0.685335 0.367669
vt -0.425829 -0.697804
vt -0.425829 0.367669
vt 0.009869 -0.697804
vt 0.159695 -0.697804
vt 0.121390 0.324008
vt -0.021932 0.367669
vt 0.364377 -0.697804
vt 0.494130 -0.697804
vt 0.494130 0.302177
vt 0.364377 0.324008
vt 0.623883 -0.697804
vt 0.623883 0.324008
vt -0.310719 0.685719
vt -0.222230 0.712675
vt -0.555582 0.602924
vt -0.635693 0.589445
vt -0.475471 0.589445
vt 0.164079 0.562488
vt 0.075590 0.589445
vt 0.494130 0.549010
vt 0.414019 0.562488
vt 0.574241 0.562488
vt -0.119258 -0.697805
vt -0.037743 -0.683401
vt -0.592716 1.980199
vt -0.664392 1.972968
vt -0.521041 1.972968
vt 0.348566 1.958565
vt 0.267051 1.972968
vt 0.531265 1.951391
vt 0.459590 1.958565
vt 0.602941 1.958565
vt -0.239798 -0.486541
vt -0.292768 -0.498645
vt -0.275407 -0.572300
vt -0.229154 -0.531968
vt 1.526417 -0.624582
vt 1.463681 -0.624034
vt 1.462794 -0.697499
vt 1.525527 -0.698237
vt -0.186961 -0.473852
vt -0.183063 -0.490928
vt 1.016222 -0.499495
vt 0.963378 -0.486843
vt 0.952789 -0.532037
vt 0.998904 -0.572961
vt 0.910414 -0.474703
vt 0.906527 -0.491734
vt 1.607739 -0.659143
vt 1.545002 -0.659691
vt 1.545187 -0.676767
vt 1.607922 -0.676175
vt -0.217201 -0.626057
vt -0.193722 -0.569643
vt 1.206222 1.655031
vt 1.143489 1.655202
vt 1.142521 1.597034
vt 1.205251 1.596824
vt -0.170437 -0.512398
vt 0.917410 -0.569490
vt 0.940737 -0.626554
vt 0.893914 -0.513145
vt 1.545457 -0.698238
vt 1.608192 -0.697585
vt -0.131046 -0.661632
vt -0.129700 -0.600834
vt 1.141638 1.510912
vt 1.204253 1.510669
vt -0.128572 -0.539067
vt 0.853438 -0.600460
vt 0.854615 -0.661997
vt 0.852068 -0.539728
vt 1.059255 1.027171
vt 1.121990 1.027324
vt 1.121493 1.069189
vt 1.058852 1.069018
vt 0.667756 1.027171
vt 0.665265 1.152412
vt 0.605925 1.119837
vt 0.607018 1.057201
vt 0.727162 1.059923
vt 0.725764 1.122529
vt 0.761510 -0.567082
vt 0.749872 -0.626582
vt 1.120808 1.159774
vt 1.058169 1.159576
vt -0.026076 -0.627201
vt -0.037986 -0.566540
vt 1.140639 1.394313
vt 1.203250 1.394041
vt 0.738016 -0.687008
vt -0.014418 -0.686771
vt 0.394677 -0.578398
vt 0.383076 -0.637738
vt 1.119148 1.526665
vt 1.056513 1.526410
vt 0.340834 -0.638830
vt 0.328905 -0.578092
vt 1.138486 1.027499
vt 1.201092 1.027172
vt 0.371202 -0.698237
vt 0.352452 -0.698237
vt 1.646942 0.832000
vt 1.575921 0.835710
vt 1.344653 1.000512
vt 1.285133 1.016440
vt 1.405054 0.988342
vt 1.495498 0.867512
vt 1.424478 0.863803
vt -0.623067 1.009330
vt -0.682598 0.993450
vt -0.562677 1.021549
vt 0.746641 1.225869
vt 0.743658 1.027171
vt 0.863121 1.059413
vt 0.865661 1.189187
vt 1.898650 -0.042244
vt 1.668416 -0.041072
vt 1.665526 -0.696830
vt 1.895730 -0.698237
vt 1.040017 1.092149
vt 1.034011 1.322355
vt 0.882157 1.379661
vt 0.889256 1.027171
vt 1.575208 1.763413
vt 1.222718 1.761750
vt 1.224906 1.113567
vt 1.577431 1.114869
vt 1.633994 1.502343
vt 1.593927 0.854160
vt 1.745781 0.846442
vt 1.787467 1.502199
vt 1.803964 0.806988
vt 1.842492 0.158444
vt 1.995405 0.158457
vt 1.954725 0.814451
vt 1.302142 1.027172
vt 1.500839 1.027870
vt 1.755344 1.596310
vt 1.635880 1.588739
vt 1.849658 0.052444
vt 1.719884 0.053038
vt 1.841801 0.071446
vt 1.960820 0.063770
vn 0.000002 0.000000 -1.000000
vn 0.000002 0.000000 -1.000000
vn 0.029602 0.097164 -0.994828
vn 0.029602 0.097164 -0.994828
vn -0.871329 -0.024427 -0.490090
vn -0.871329 -0.024427 -0.490090
vn -0.836320 0.214291 -0.504628
vn -0.836320 0.214291 -0.504628
vn -0.871329 -0.024427 0.490091
vn -0.871329 -0.024427 0.490091
vn -0.836319 0.214291 0.504628
vn -0.836319 0.214291 0.504628
vn 0.000000 0.000000 1.000000
vn 0.000000 0.000000 1.000000
vn 0.029600 0.097165 0.994828
vn 0.029600 0.097165 0.994828
vn 0.871432 0.034421 0.489307
vn 0.871432 0.034421 0.489307
vn 0.871684 -0.009720 0.489972
vn 0.871684 -0.009720 0.489972
vn 0.871432 0.034421 -0.489307
vn 0.871432 0.034421 -0.489307
vn 0.871684 -0.009720 -0.489973
vn 0.871684 -0.009720 -0.489973
vn 0.029602 0.097164 -0.994828
vn 0.029602 0.097164 -0.994828
vn 0.027184 0.087214 -0.995819
vn 0.027184 0.087214 -0.995819
vn -0.836320 0.214291 -0.504628
vn -0.836320 0.214291 -0.504628
vn -0.819286 0.278854 -0.501011
vn -0.819286 0.278854 -0.501011
vn -0.836319 0.214291 0.504628
vn -0.836319 0.214291 0.504628
vn -0.815223 0.291478 0.500451
vn -0.815223 0.291478 0.500451
vn 0.029600 0.097165 0.994828
vn 0.029600 0.097165 0.994828
vn 0.033431 0.112937 0.993040
vn 0.033431 0.112937 0.993040
vn 0.871684 -0.009720 0.489972
vn 0.871684 -0.009720 0.489972
vn 0.866618 -0.075932 0.493161
vn 0.866618 -0.075932 0.493161
vn 0.871684 -0.009720 -0.489973
vn 0.871684 -0.009720 -0.489973
vn 0.864921 -0.088893 -0.493973
vn 0.864921 -0.088893 -0.493973
vn 0.027184 0.087214 -0.995819
vn 0.027184 0.087214 -0.995819
vn -0.004868 -0.019988 -0.999788
vn -0.004868 -0.019988 -0.999788
vn -0.819286 0.278854 -0.501011
vn -0.819286 0.278854 -0.501011
vn -0.860952 0.108652 -0.496946
vn -0.860952 0.108652 -0.496946
vn -0.815223 0.291478 0.500451
vn -0.815223 0.291478 0.500451
vn -0.856589 0.134812 0.498077
vn -0.856589 0.134812 0.498077
vn 0.033431 0.112937 0.993040
vn 0.033431 0.112937 0.993040
vn 0.007724 0.031726 0.999467
vn 0.007724 0.031726 0.999467
vn 0.866618 -0.075932 0.493161
vn 0.866618 -0.075932 0.493161
vn 0.862554 -0.097983 0.496387
vn 0.862554 -0.097983 0.496387
vn 0.864921 -0.088893 -0.493973
vn 0.864921 -0.088893 -0.493973
vn 0.858503 -0.123831 -0.497633
vn 0.858503 -0.123831 -0.497633
vn 0.124287 0.865688 0.484910
vn 0.124287 0.865688 0.484910
vn 0.237960 0.881198 0.408491
vn 0.237960 0.881198 0.408491
vn 0.229423 -0.000037 0.973327
vn 0.229423 -0.000037 0.973327
vn 0.504274 -0.003962 0.863534
vn 0.504274 -0.003962 0.863534
vn -0.104145 0.865738 -0.489542
vn -0.104145 0.865738 -0.489542
vn -0.198451 0.878817 -0.433933
vn -0.198451 0.878817 -0.433933
vn 0.104767 -0.865966 0.489007
vn 0.104767 -0.865966 0.489007
vn 0.216282 -0.884560 0.413250
vn 0.216282 -0.884560 0.413250
vn -0.122654 -0.865662 -0.485371
vn -0.122654 -0.865662 -0.485371
vn -0.218838 -0.876346 -0.429101
vn -0.218838 -0.876346 -0.429101
vn -0.222526 -0.000026 -0.974927
vn -0.222526 -0.000026 -0.974927
vn -0.369231 0.001527 -0.929336
vn -0.369231 0.001527 -0.929336
vn 0.237960 0.881198 0.408491
vn 0.237960 0.881198 0.408491
vn 0.396374 0.881586 0.256308
vn 0.396374 0.881586 0.256308
vn 0.504274 -0.003962 0.863534
vn 0.504274 -0.003962 0.863534
vn 0.842845 -0.010381 0.538056
vn 0.842845 -0.010381 0.538056
vn -0.198451 0.878817 -0.433933
vn -0.198451 0.878817 -0.433933
vn -0.349787 0.886092 -0.304121
vn -0.349787 0.886092 -0.304121
vn 0.216282 -0.884560 0.413250
vn 0.216282 -0.884560 0.413250
vn 0.371389 -0.890671 0.262250
vn 0.371389 -0.890671 0.262250
vn -0.218838 -0.876346 -0.429101
vn -0.218838 -0.876346 -0.429101
vn -0.373170 -0.878548 -0.298158
vn -0.373170 -0.878548 -0.298158
vn -0.369231 0.001527 -0.929336
vn -0.369231 0.001527 -0.929336
vn -0.507220 0.003044 -0.861811
vn -0.507220 0.003044 -0.861811
vn 0.396374 0.881586 0.256308
vn 0.396374 0.881586 0.256308
vn 0.461194 0.875253 0.145711
vn 0.461194 0.875253 0.145711
vn 0.842845 -0.010381 0.538056
vn 0.842845 -0.010381 0.538056
vn 0.954778 -0.014645 0.296958
vn 0.954778 -0.014645 0.296958
vn -0.349787 0.886092 -0.304121
vn -0.349787 0.886092 -0.304121
vn -0.428671 0.884853 -0.182415
vn -0.428671 0.884853 -0.182415
vn 0.371389 -0.890671 0.262250
vn 0.371389 -0.890671 0.262250
vn 0.433157 -0.888338 0.152416
vn 0.433157 -0.888338 0.152416
vn -0.373170 -0.878548 -0.298158
vn -0.373170 -0.878548 -0.298158
vn -0.454822 -0.873062 -0.175784
vn -0.454822 -0.873062 -0.175784
vn -0.843683 0.007976 -0.536783
vn -0.843683 0.007976 -0.536783
vn -0.908791 0.009745 -0.417138
vn -0.908791 0.009745 -0.417138
vn -0.192312 -0.000716 -0.981334
vn -0.192312 -0.000716 -0.981334
vn -0.192312 -0.000716 -0.981334
vn -0.192312 -0.000716 -0.981334
vn -0.192279 -0.000780 -0.981340
vn -0.192279 -0.000780 -0.981340
vn -0.192279 -0.000780 -0.981340
vn -0.192279 -0.000780 -0.981340
vn -0.454822 -0.873062 -0.175784
vn -0.454822 -0.873062 -0.175784
vn -0.479901 -0.874707 -0.067697
vn -0.479901 -0.874707 -0.067697
vn -0.908791 0.009745 -0.417138
vn -0.908791 0.009745 -0.417138
vn -0.986718 0.013499 -0.161880
vn -0.986718 0.013499 -0.161880
vn -0.428671 0.884853 -0.182415
vn -0.428671 0.884853 -0.182415
vn -0.449464 0.890130 -0.075176
vn -0.449464 0.890130 -0.075176
vn 0.954778 -0.014645 0.296958
vn 0.954778 -0.014645 0.296958
vn 0.992462 -0.018353 0.121173
vn 0.992462 -0.018353 0.121173
vn 0.433157 -0.888338 0.152416
vn 0.433157 -0.888338 0.152416
vn 0.448720 -0.891290 0.065206
vn 0.448720 -0.891290 0.065206
vn 0.461194 0.875253 0.145711
vn 0.461194 0.875253 0.145711
vn 0.481063 0.874796 0.057543
vn 0.481063 0.874796 0.057543
vn -0.479901 -0.874707 -0.067697
vn -0.479901 -0.874707 -0.067697
vn -0.480889 -0.876719 -0.010477
vn -0.480889 -0.876719 -0.010477
vn -0.986718 0.013499 -0.161880
vn -0.986718 0.013499 -0.161880
vn -0.999393 0.015432 -0.031218
vn -0.999393 0.015432 -0.031218
vn -0.449464 0.890130 -0.075176
vn -0.449464 0.890130 -0.075176
vn -0.447755 0.893965 -0.018497
vn -0.447755 0.893965 -0.018497
vn 0.992462 -0.018353 0.121173
vn 0.992462 -0.018353 0.121173
vn 0.999313 -0.020281 0.031031
vn 0.999313 -0.020281 0.031031
vn 0.448720 -0.891290 0.065206
vn 0.448720 -0.891290 0.065206
vn 0.447421 -0.894130 0.018594
vn 0.447421 -0.894130 0.018594
vn 0.481063 0.874796 0.057543
vn 0.481063 0.874796 0.057543
vn 0.482427 0.875875 0.010325
vn 0.482427 0.875875 0.010325
vn -0.243688 -0.000368 -0.969854
vn -0.243688 -0.000368 -0.969854
vn -0.243688 -0.000368 -0.969854
vn -0.243688 -0.000368 -0.969854
vn -0.100326 -0.866026 -0.489830
vn -0.100326 -0.866026 -0.489830
vn -0.100326 -0.866026 -0.489830
vn -0.100326 -0.866026 -0.489830
vn 0.147910 -0.865453 0.478658
vn 0.147910 -0.865453 0.478658
vn 0.147910 -0.865453 0.478658
vn 0.147910 -0.865453 0.478658
vn 0.252800 0.000606 0.967518
vn 0.252800 0.000606 0.967518
vn 0.252800 0.000606 0.967518
vn 0.252800 0.000606 0.967518
vn 0.109460 0.866127 0.487691
vn 0.109460 0.866127 0.487691
vn 0.109460 0.866127 0.487691
vn 0.109460 0.866127 0.487691
vn -0.138713 0.865744 -0.480881
vn -0.138713 0.865744 -0.480881
vn -0.138713 0.865744 -0.480881
vn -0.138713 0.865744 -0.480881
vn -0.063710 0.005001 0.997956
vn -0.063710 0.005001 0.997956
vn -0.063710 0.005001 0.997956
vn -0.063710 0.005001 0.997956
vn 0.990173 -0.021588 0.138169
vn 0.990173 -0.021588 0.138169
vn 0.997749 -0.024199 -0.062542
vn 0.997749 -0.024199 -0.062542
vn -0.050201 -0.004135 -0.998731
vn -0.050201 -0.004135 -0.998731
vn -0.050201 -0.004135 -0.998731
vn -0.050201 -0.004135 -0.998731
vn -0.998007 0.018175 0.060428
vn -0.998007 0.018175 0.060428
vn -0.999292 0.016854 0.033641
vn -0.999292 0.016854 0.033641
vn 0.312354 -0.900811 0.301619
vn 0.352840 -0.935501 -0.018478
vn 0.352840 -0.935501 -0.018478
vn 0.312354 -0.900811 0.301619
vn 0.390935 0.920011 -0.027364
vn 0.348023 0.890530 0.292977
vn 0.348023 0.890530 0.292977
vn 0.390935 0.920011 -0.027364
vn -0.999292 0.016854 0.033641
vn -0.999292 0.016854 0.033641
vn -0.999856 0.015522 0.006830
vn -0.999856 0.015522 0.006830
vn 0.312354 -0.900811 0.301619
vn 0.312354 -0.900811 0.301619
vn 0.238974 -0.771263 0.589954
vn 0.238974 -0.771263 0.589954
vn 0.990173 -0.021588 0.138169
vn 0.990173 -0.021588 0.138169
vn 0.942645 -0.018105 0.333306
vn 0.942645 -0.018105 0.333306
vn 0.348023 0.890530 0.292977
vn 0.348023 0.890530 0.292977
vn 0.268454 0.767250 0.582460
vn 0.268454 0.767250 0.582460
g polySurface10
usemtl phong1SG
f 1/1/1 2/2/2 3/3/3 4/4/4
f 2/5/5 5/6/6 6/7/7 3/8/8
f 5/6/9 7/9/10 8/10/11 6/7/12
f 7/11/13 9/12/14 10/13/15 8/14/16
f 9/15/17 11/16/18 12/17/19 10/18/20
f 11/16/21 1/19/22 4/20/23 12/17/24
f 4/4/25 3/3/26 13/21/27 14/22/28
f 3/8/29 6/7/30 15/23/31 13/24/32
f 6/7/33 8/10/34 16/25/35 15/23/36
f 8/14/37 10/13/38 17/26/39 16/27/40
f 10/18/41 12/17/42 18/28/43 17/29/44
f 12/17/45 4/20/46 14/30/47 18/28/48
f 14/22/49 13/21/50 19/31/51 20/32/52
f 13/24/53 15/23/54 21/33/55 19/34/56
f 15/23/57 16/25/58 22/35/59 21/33/60
f 16/27/61 17/26/62 23/36/63 22/37/64
f 17/29/65 18/28/66 24/38/67 23/39/68
f 18/28/69 14/30/70 20/40/71 24/38/72
f 25/41/73 26/42/74 27/43/75 28/44/76
f 26/45/77 29/46/78 30/47/79 27/48/80
f 31/49/81 25/41/82 28/44/83 32/50/84
f 29/51/85 33/52/86 34/53/87 30/54/88
f 33/52/89 35/55/90 36/56/91 34/53/92
f 35/57/93 31/58/94 32/59/95 36/60/96
f 28/44/97 27/43/98 37/61/99 38/62/100
f 27/63/101 30/64/102 39/65/103 37/66/104
f 32/50/105 28/44/106 38/62/107 40/67/108
f 30/54/109 34/53/110 41/68/111 39/69/112
f 34/53/113 36/56/114 42/70/115 41/68/116
f 36/60/117 32/59/118 40/71/119 42/72/120
f 38/62/121 37/61/122 43/73/123 44/74/124
f 37/66/125 39/65/126 45/75/127 43/76/128
f 40/67/129 38/62/130 44/74/131 46/77/132
f 39/69/133 41/68/134 47/78/135 45/79/136
f 41/68/137 42/70/138 48/80/139 47/78/140
f 42/81/141 40/82/142 46/83/143 48/84/144
f 49/85/145 50/86/146 51/87/147 52/88/148
f 53/89/149 54/90/150 50/86/151 49/85/152
f 47/78/153 48/80/154 55/91/155 56/92/156
f 48/84/157 46/83/158 57/93/159 55/94/160
f 46/77/161 44/74/162 58/95/163 57/96/164
f 43/76/165 45/75/166 59/97/167 60/98/168
f 45/79/169 47/78/170 56/92/171 59/99/172
f 44/74/173 43/73/174 60/100/175 58/95/176
f 56/92/177 55/91/178 51/101/179 50/102/180
f 55/94/181 57/93/182 52/103/183 51/104/184
f 57/96/185 58/95/186 49/105/187 52/106/188
f 60/98/189 59/97/190 54/107/191 53/108/192
f 59/99/193 56/92/194 50/102/195 54/109/196
f 58/95/197 60/100/198 53/110/199 49/105/200
f 61/111/201 62/112/202 31/58/203 35/57/204
f 63/113/205 61/114/206 35/55/207 33/52/208
f 64/115/209 63/113/210 33/52/211 29/51/212
f 65/116/213 64/117/214 29/46/215 26/45/216
f 66/118/217 65/119/218 26/42/219 25/41/220
f 62/120/221 66/118/222 25/41/223 31/49/224
f 67/121/225 68/122/226 69/123/227 70/124/228
f 71/125/229 72/126/230 73/127/231 74/128/232
f 74/129/233 73/130/234 75/131/235 76/132/236
f 76/133/237 75/134/238 77/135/239 78/136/240
f 77/137/241 75/138/242 73/139/243 72/140/244
f 76/141/245 78/142/246 71/143/247 74/144/248
f 78/136/249 77/135/250 68/145/251 67/146/252
f 77/137/253 72/140/254 69/147/255 68/148/256
f 72/126/257 71/125/258 70/149/259 69/150/260
f 71/143/261 78/142/262 67/151/263 70/152/264
