# This file uses centimeters as units for non-parametric coordinates.

mtllib tonne1.mtl
v -0.449713 -0.000199 -0.088728
v -0.531098 -0.000199 -0.135716
v -0.527622 0.411269 -0.156307
v -0.433598 0.411269 -0.102022
v -0.623646 -0.000199 -0.119397
v -0.634543 0.411269 -0.137454
v -0.684052 -0.000199 -0.047408
v -0.704331 0.411269 -0.054284
v -0.695365 -0.000199 0.046568
v -0.715644 0.411269 0.054286
v -0.623646 -0.000199 0.118557
v -0.634543 0.411269 0.137456
v -0.528978 -0.000199 0.149431
v -0.527622 0.411269 0.156309
v -0.438837 -0.000199 0.097388
v -0.433598 0.411269 0.102024
v -0.403238 -0.000199 -0.000420
v -0.396465 0.411269 0.000001
v -0.555183 0.469345 0.000001
v -0.421084 0.428822 -0.112283
v -0.524565 0.428823 -0.172028
v -0.642240 0.428823 -0.151279
v -0.719047 0.428823 -0.059744
v -0.719047 0.428823 0.059746
v -0.642240 0.428823 0.151281
v -0.524565 0.428823 0.172030
v -0.421084 0.428822 0.112285
v -0.380216 0.428822 0.000001
v -0.421084 0.411730 -0.112283
v -0.524565 0.411730 -0.172028
v -0.642240 0.411731 -0.151279
v -0.719047 0.411731 -0.059744
v -0.719047 0.411731 0.059746
v -0.642240 0.411731 0.151281
v -0.524565 0.411730 0.172030
v -0.421084 0.411730 0.112285
v -0.380216 0.411730 0.000001
v -0.509973 0.486940 0.007301
v -0.596741 0.485109 0.007301
v -0.596741 0.475914 0.007301
v -0.509973 0.477744 0.007301
v -0.509973 0.486940 -0.007299
v -0.596741 0.485109 -0.007299
v -0.509973 0.477744 -0.007299
v -0.596741 0.475914 -0.007299
v -0.603589 0.470787 -0.007299
v -0.596741 0.455980 -0.007299
v -0.603589 0.450853 -0.007299
v -0.603589 0.470787 0.007301
v -0.603589 0.450853 0.007301
v -0.596741 0.455980 0.007301
v -0.503124 0.472044 -0.007299
v -0.503124 0.450280 -0.007299
v -0.509973 0.455980 -0.007299
v -0.503124 0.472044 0.007301
v -0.503124 0.450280 0.007301
v -0.509973 0.455980 0.007301
vt 0.032088 0.011130
vt 0.225350 0.011130
vt 0.225301 0.638033
vt 0.031896 0.638227
vt 0.418613 0.011130
vt 0.418622 0.637982
vt 0.611874 0.011130
vt 0.611943 0.638024
vt 0.805136 0.011130
vt 0.805267 0.638033
vt 0.032807 0.008424
vt 0.226333 0.008496
vt 0.226221 0.635276
vt 0.032938 0.635327
vt 0.419669 0.008494
vt 0.419617 0.635361
vt 0.612936 0.008481
vt 0.612872 0.635301
vt 0.806175 0.008469
vt 0.806213 0.635318
vt 0.999458 0.008465
vt 0.999118 0.635082
vt 0.161512 0.840347
vt 0.281206 0.947032
vt 0.188644 1.000473
vt 0.083387 0.981913
vt 0.014685 0.900037
vt 0.014685 0.793156
vt 0.083387 0.711280
vt 0.188644 0.692720
vt 0.281206 0.746161
vt 0.317762 0.846597
vt 0.558914 0.890985
vt 0.495750 0.927456
vt 0.491506 0.920106
vt 0.554673 0.883639
vt 0.488206 0.928794
vt 0.416304 0.916116
vt 0.417777 0.907767
vt 0.489678 0.920446
vt 0.409663 0.912271
vt 0.362800 0.856413
vt 0.369299 0.850961
vt 0.416170 0.906811
vt 0.360159 0.849169
vt 0.360159 0.776238
vt 0.368645 0.776238
vt 0.368645 0.849169
vt 0.362780 0.769021
vt 0.409689 0.713114
vt 0.416188 0.718566
vt 0.369275 0.774471
vt 0.416350 0.709279
vt 0.488159 0.696615
vt 0.489634 0.704976
vt 0.417823 0.717636
vt 0.495760 0.697953
vt 0.558905 0.734418
vt 0.554664 0.741762
vt 0.491513 0.705310
vt 0.563860 0.740323
vt 0.588811 0.808849
vt 0.580828 0.811755
vt 0.555893 0.743221
vt 0.588809 0.816550
vt 0.563862 0.885092
vt 0.555887 0.882190
vt 0.580835 0.813648
vt 0.573884 0.986798
vt 0.362079 0.982330
vt 0.362079 0.959884
vt 0.573884 0.964352
vt 0.664450 0.767473
vt 0.664450 0.977519
vt 0.629108 0.977519
vt 0.629108 0.767473
vt 0.573884 0.964292
vt 0.362079 0.959823
vt 0.362079 0.982269
vt 0.573884 0.986737
vt 0.345362 0.947307
vt 0.362079 0.911164
vt 0.345362 0.898648
vt 0.345362 0.947368
vt 0.345362 0.898708
vt 0.362079 0.911224
vt 0.664930 0.943416
vt 0.629587 0.943416
vt 0.629587 0.895161
vt 0.664930 0.895161
vt 0.590601 0.950376
vt 0.590601 0.897249
vt 0.573884 0.911164
vt 0.663629 0.934347
vt 0.628287 0.934347
vt 0.628287 0.881660
vt 0.663629 0.881660
vt 0.590601 0.950437
vt 0.573884 0.911224
vt 0.590601 0.897309
vt 0.663629 0.970406
vt 0.628287 0.970406
vt 0.629587 0.978088
vt 0.664930 0.978088
vn 0.744228 -0.041695 -0.666623
vn 0.173428 -0.050685 -0.983541
vn 0.173428 -0.050685 -0.983541
vn 0.744228 -0.041695 -0.666623
vn 0.173428 -0.050685 -0.983541
vn -0.499339 -0.051179 -0.864894
vn -0.499339 -0.051179 -0.864894
vn 0.173428 -0.050685 -0.983541
vn -0.499339 -0.051179 -0.864894
vn -0.918038 -0.050788 -0.393227
vn -0.918038 -0.050788 -0.393227
vn -0.499339 -0.051179 -0.864894
vn -0.918038 -0.050788 -0.393227
vn -0.943574 -0.054499 0.326648
vn -0.943574 -0.054499 0.326648
vn -0.918038 -0.050788 -0.393227
vn -0.943574 -0.054499 0.326648
vn -0.494097 -0.043019 0.868342
vn -0.494097 -0.043019 0.868342
vn -0.943574 -0.054499 0.326648
vn -0.494097 -0.043019 0.868342
vn 0.140446 -0.026567 0.989732
vn 0.140446 -0.026567 0.989732
vn -0.494097 -0.043019 0.868342
vn 0.140446 -0.026567 0.989732
vn 0.765934 -0.016993 0.642694
vn 0.765934 -0.016993 0.642694
vn 0.140446 -0.026567 0.989732
vn 0.765934 -0.016993 0.642694
vn 0.999149 -0.025620 -0.032327
vn 0.999149 -0.025620 -0.032327
vn 0.765934 -0.016993 0.642694
vn 0.999149 -0.025620 -0.032327
vn 0.744228 -0.041695 -0.666623
vn 0.744228 -0.041695 -0.666623
vn 0.999149 -0.025620 -0.032327
vn -0.000201 1.000000 0.000000
vn 0.172885 0.974195 -0.145105
vn 0.039186 0.974147 -0.222491
vn -0.000201 1.000000 0.000000
vn 0.039186 0.974147 -0.222491
vn -0.113109 0.974092 -0.195833
vn -0.000201 1.000000 0.000000
vn -0.113109 0.974092 -0.195833
vn -0.212662 0.974057 -0.077386
vn -0.000201 1.000000 0.000000
vn -0.212662 0.974057 -0.077386
vn -0.212662 0.974057 0.077386
vn -0.000201 1.000000 0.000000
vn -0.212662 0.974057 0.077386
vn -0.113109 0.974092 0.195832
vn -0.000201 1.000000 0.000000
vn -0.113109 0.974092 0.195832
vn 0.039186 0.974147 0.222491
vn -0.000201 1.000000 0.000000
vn 0.039186 0.974147 0.222491
vn 0.172885 0.974195 0.145105
vn -0.000201 1.000000 0.000000
vn 0.172885 0.974195 0.145105
vn 0.225628 0.974213 0.000000
vn -0.000201 1.000000 0.000000
vn 0.225628 0.974213 0.000000
vn 0.172885 0.974195 -0.145105
vn 0.500001 -0.000003 -0.866025
vn 0.500001 -0.000003 -0.866025
vn 0.500001 -0.000003 -0.866025
vn 0.500001 -0.000003 -0.866025
vn -0.173648 0.000001 -0.984808
vn -0.173648 0.000001 -0.984808
vn -0.173648 0.000001 -0.984808
vn -0.173648 0.000001 -0.984808
vn -0.766046 -0.000001 -0.642786
vn -0.766046 -0.000001 -0.642786
vn -0.766046 -0.000001 -0.642786
vn -0.766046 -0.000001 -0.642786
vn -1.000000 0.000020 -0.000001
vn -1.000000 0.000020 -0.000001
vn -1.000000 0.000020 -0.000001
vn -1.000000 0.000020 -0.000001
vn -0.766046 0.000012 0.642786
vn -0.766046 0.000012 0.642786
vn -0.766046 0.000012 0.642786
vn -0.766046 0.000012 0.642786
vn -0.173649 0.000000 0.984808
vn -0.173649 0.000000 0.984808
vn -0.173649 0.000000 0.984808
vn -0.173649 0.000000 0.984808
vn 0.500000 -0.000003 0.866025
vn 0.500000 -0.000003 0.866025
vn 0.500000 -0.000003 0.866025
vn 0.500000 -0.000003 0.866025
vn 0.939693 -0.000005 0.342019
vn 0.939693 -0.000005 0.342019
vn 0.939693 -0.000005 0.342019
vn 0.939693 -0.000005 0.342019
vn 0.939693 0.000003 -0.342020
vn 0.939693 0.000003 -0.342020
vn 0.939693 0.000003 -0.342020
vn 0.939693 0.000003 -0.342020
vn 0.000000 0.000000 1.000000
vn 0.000000 0.000000 1.000000
vn 0.000000 0.000000 1.000000
vn 0.000000 0.000000 1.000000
vn 0.530660 0.847585 0.000000
vn -0.542100 0.840314 0.000000
vn -0.542100 0.840314 0.000000
vn 0.530660 0.847585 0.000000
vn 0.000000 0.000000 -1.000000
vn 0.000000 0.000000 -1.000000
vn 0.000000 0.000000 -1.000000
vn 0.000000 0.000000 -1.000000
vn 0.000000 0.000000 -1.000000
vn 0.000000 0.000000 -1.000000
vn 0.000000 0.000000 -1.000000
vn 0.000000 0.000000 -1.000000
vn 0.000000 0.000000 1.000000
vn 0.000000 0.000000 1.000000
vn 0.000000 0.000000 1.000000
vn 0.000000 0.000000 1.000000
vn -0.975236 0.221167 0.000000
vn -0.975236 0.221167 0.000000
vn -1.000000 0.000000 0.000000
vn -1.000000 0.000000 0.000000
vn 0.000000 0.000000 -1.000000
vn 0.000000 0.000000 -1.000000
vn 0.000000 0.000000 -1.000000
vn 0.000000 0.000000 -1.000000
vn 0.976875 0.213812 0.000000
vn 0.976875 0.213812 0.000000
vn 1.000000 0.000005 0.000000
vn 1.000000 0.000005 0.000000
vn 0.000000 0.000000 1.000000
vn 0.000000 0.000000 1.000000
vn 0.000000 0.000000 1.000000
vn 0.000000 0.000000 1.000000
vn 0.000000 0.000000 1.000000
vn 0.000000 0.000000 1.000000
vn 0.000000 0.000000 1.000000
vn 0.530660 0.847585 0.000000
vn 0.530660 0.847585 0.000000
vn 0.976875 0.213812 0.000000
vn 0.976875 0.213812 0.000000
vn 0.000000 0.000000 -1.000000
vn 0.000000 0.000000 -1.000000
vn 0.000000 0.000000 -1.000000
vn 0.000000 0.000000 1.000000
vn 0.000000 0.000000 1.000000
vn 0.000000 0.000000 1.000000
vn 0.000000 0.000000 -1.000000
vn 0.000000 0.000000 -1.000000
vn 0.000000 0.000000 -1.000000
vn -0.542100 0.840314 0.000000
vn -0.975236 0.221167 0.000000
vn -0.975236 0.221167 0.000000
vn -0.542100 0.840314 0.000000
s off
g polySurface16
usemtl lambert3SG
f 1/1/1 2/2/2 3/3/3 4/4/4
f 2/2/5 5/5/6 6/6/7 3/3/8
f 5/5/9 7/7/10 8/8/11 6/6/12
f 7/7/13 9/9/14 10/10/15 8/8/16
f 9/11/17 11/12/18 12/13/19 10/14/20
f 11/12/21 13/15/22 14/16/23 12/13/24
f 13/15/25 15/17/26 16/18/27 14/16/28
f 15/17/29 17/19/30 18/20/31 16/18/32
f 17/19/33 1/21/34 4/22/35 18/20/36
f 19/23/37 20/24/38 21/25/39
f 19/23/40 21/25/41 22/26/42
f 19/23/43 22/26/44 23/27/45
f 19/23/46 23/27/47 24/28/48
f 19/23/49 24/28/50 25/29/51
f 19/23/52 25/29/53 26/30/54
f 19/23/55 26/30/56 27/31/57
f 19/23/58 27/31/59 28/32/60
f 19/23/61 28/32/62 20/24/63
f 29/33/64 30/34/65 21/35/66 20/36/67
f 30/37/68 31/38/69 22/39/70 21/40/71
f 31/41/72 32/42/73 23/43/74 22/44/75
f 32/45/76 33/46/77 24/47/78 23/48/79
f 33/49/80 34/50/81 25/51/82 24/52/83
f 34/53/84 35/54/85 26/55/86 25/56/87
f 35/57/88 36/58/89 27/59/90 26/60/91
f 36/61/92 37/62/93 28/63/94 27/64/95
f 37/65/96 29/66/97 20/67/98 28/68/99
f 38/69/100 39/70/101 40/71/102 41/72/103
f 42/73/104 43/74/105 39/75/106 38/76/107
f 44/77/108 45/78/109 43/79/110 42/80/111
f 46/81/112 45/78/113 47/82/114 48/83/115
f 40/71/116 49/84/117 50/85/118 51/86/119
f 49/87/120 46/88/121 48/89/122 50/90/123
f 44/77/124 52/91/125 53/92/126 54/93/127
f 52/94/128 55/95/129 56/96/130 53/97/131
f 55/98/132 41/72/133 57/99/134 56/100/135
f 38/69/136 41/72/137 55/98/138
f 42/101/139 38/102/140 55/95/141 52/94/142
f 44/77/143 42/80/144 52/91/145
f 40/71/146 39/70/147 49/84/148
f 43/79/149 45/78/150 46/81/151
f 43/103/152 46/88/153 49/87/154 39/104/155
