# This file uses centimeters as units for non-parametric coordinates.

mtllib fenster1.mtl
g default
v 0.500000 0.519309 0.500000
v 0.000000 0.519309 0.500000
v 0.500000 0.171949 0.500000
v 0.000000 0.171949 0.500000
v 0.346745 0.171949 0.500000
v 0.161033 0.171949 0.500000
v 0.161033 0.455911 0.500000
v 0.346745 0.455911 0.500000
v 0.185536 0.432862 0.484163
v 0.322457 0.432862 0.484163
v 0.322457 0.203888 0.484163
v 0.185536 0.203888 0.484163
v 0.346745 0.171949 0.517288
v 0.500000 0.019309 0.517288
v 0.500000 0.171949 0.517288
v 0.161033 0.171949 0.517288
v 0.000000 0.019309 0.517288
v 0.000000 0.171949 0.517288
v 0.148194 0.199902 0.515802
v 0.359584 0.199902 0.515802
v 0.161033 0.183133 0.515802
v 0.346745 0.183133 0.515802
v 0.161033 0.183133 0.482359
v 0.346745 0.183133 0.482359
v 0.148194 0.199902 0.482359
v 0.359584 0.199902 0.482359
vt 0.881115 0.558581
vt 0.440452 0.558581
vt 0.881115 0.253736
vt 0.440452 0.253736
vt 0.746048 0.253736
vt 0.582375 0.253736
vt 0.582375 0.502943
vt 0.746048 0.502943
vt 0.603970 0.482714
vt 0.724642 0.482714
vt 0.724642 0.281766
vt 0.603970 0.281766
vt 0.881115 0.119779
vt 0.881115 0.253736
vt 0.746048 0.253736
vt 0.440452 0.119779
vt 0.582375 0.253736
vt 0.440452 0.253736
vt 0.886071 0.261832
vt 0.725985 0.261832
vt 0.725985 0.243773
vt 0.886071 0.243773
vt 0.531995 0.261832
vt 0.531995 0.243773
vt 0.363785 0.261832
vt 0.363785 0.243773
vt 0.580802 0.262859
vt 0.744726 0.262859
vt 0.754617 0.279514
vt 0.570911 0.279514
vt 0.750269 0.727681
vt 0.750269 0.885230
vt 0.718332 0.885230
vt 0.718332 0.727681
vt 0.718642 0.884149
vt 0.718642 0.731228
vt 0.748395 0.731228
vt 0.748394 0.884149
vt 0.655605 0.262625
vt 0.672598 0.262625
vt 0.672598 0.279617
vt 0.655605 0.279617
vt 0.655603 0.262545
vt 0.672596 0.262545
vt 0.672596 0.279538
vt 0.655603 0.279538
vn -0.000000 0.000000 1.000000
vn -0.000000 0.000000 1.000000
vn 0.000000 0.000000 1.000000
vn 0.000000 0.000000 1.000000
vn 0.000000 0.000000 1.000000
vn 0.000000 0.000000 1.000000
vn 0.000000 0.000000 1.000000
vn -0.000000 0.000000 1.000000
vn -0.000000 0.000000 1.000000
vn 0.000000 -0.566309 0.824193
vn 0.000000 -0.566309 0.824193
vn 0.000000 -0.566309 0.824193
vn 0.000000 -0.566309 0.824193
vn 0.000000 0.228143 0.973628
vn 0.000000 0.228143 0.973628
vn 0.000000 0.444253 0.895901
vn 0.000000 0.444253 0.895901
vn 0.000000 0.000000 1.000000
vn 0.000000 0.000000 1.000000
vn -0.546208 0.000000 0.837650
vn -0.546208 0.000000 0.837650
vn -0.546208 0.000000 0.837650
vn -0.546208 0.000000 0.837650
vn 0.000000 0.000000 1.000000
vn 0.000000 0.000000 1.000000
vn 0.542821 0.000000 0.839848
vn 0.542821 0.000000 0.839848
vn 0.542821 0.000000 0.839848
vn 0.542821 0.000000 0.839848
vn 0.000000 0.000000 1.000000
vn 0.000000 0.000000 1.000000
vn 0.000000 0.000000 1.000000
vn 0.000000 1.000000 0.000000
vn 0.000000 1.000000 0.000000
vn 0.000000 1.000000 0.000000
vn 0.000000 1.000000 0.000000
vn 0.000000 1.000000 0.000000
vn 0.000000 1.000000 0.000000
vn 0.000000 1.000000 0.000000
vn 0.000000 1.000000 0.000000
vn 0.000000 0.000000 -1.000000
vn 0.000000 0.000000 -1.000000
vn 0.000000 0.000000 -1.000000
vn 0.000000 0.000000 -1.000000
vn 0.000000 1.000000 0.000000
vn 0.000000 1.000000 0.000000
vn 0.000000 1.000000 0.000000
vn 0.000000 1.000000 0.000000
vn 0.000000 -1.000000 0.000000
vn 0.000000 -1.000000 0.000000
vn 0.000000 -1.000000 0.000000
vn 0.000000 -1.000000 0.000000
vn -0.794000 0.607918 0.000000
vn -0.794000 0.607918 0.000000
vn -0.794000 0.607918 0.000000
vn -0.794000 0.607918 0.000000
vn 0.794000 0.607918 0.000000
vn 0.794000 0.607918 0.000000
vn 0.794000 0.607918 0.000000
vn 0.794000 0.607918 0.000000
s 1
g polySurface9
usemtl lambert2SG
f 13/15/1 14/13/2 15/14/3
s 2
f 1/1/4 2/2/5 7/7/6 8/8/7
s 1
f 16/17/8 17/16/9 14/13/2 13/15/1
s off
f 7/7/10 9/9/11 10/10/12 8/8/13
s 4
f 11/11/14 12/12/15 6/6/16 5/5/17
s 2
f 5/5/18 3/3/19 1/1/4 8/8/7
s off
f 11/11/20 5/5/21 8/8/22 10/10/23
s 4
f 9/9/24 12/12/15 11/11/14 10/10/25
s off
f 7/7/26 6/6/27 12/12/28 9/9/29
s 1
f 17/16/9 16/17/8 18/18/30
s 2
f 2/2/5 4/4/31 6/6/32 7/7/6
s 7
f 3/19/33 5/20/34 13/21/35 15/22/36
f 5/20/34 6/23/37 16/24/38 13/21/35
f 6/23/37 4/25/39 18/26/40 16/24/38
s off
f 19/27/41 20/28/42 22/29/43 21/30/44
f 21/31/45 22/32/46 24/33/47 23/34/48
f 25/35/49 26/36/50 20/37/51 19/38/52
f 20/39/53 26/40/54 24/41/55 22/42/56
f 25/43/57 19/44/58 21/45/59 23/46/60
