# This file uses centimeters as units for non-parametric coordinates.

mtllib loch.mtl
g default
v 1.000276 1.019309 0.500000
v 0.500276 0.519309 0.500000
v 1.000276 0.519309 0.500000
v 0.500276 1.019309 0.500000
v 0.663182 1.019309 0.500000
v 0.663182 0.960919 0.500000
v 0.850207 0.960919 0.500000
v 0.930788 0.905126 0.500000
v 0.850207 0.905126 0.500000
v 0.663182 0.905126 0.500000
v 0.581485 0.905126 0.500000
v 0.663182 0.849581 0.500000
v 0.581485 0.849581 0.500000
v 0.930788 0.795280 0.500000
v 0.850207 0.795280 0.500000
v 0.930788 0.741119 0.500000
v 0.850207 0.741119 0.500000
v 0.663182 0.741119 0.500000
v 0.581485 0.741119 0.500000
v 0.930788 0.685824 0.500000
v 0.850207 0.685824 0.500000
v 0.663182 0.628202 0.500000
v 0.850207 0.628202 0.500000
v 0.581485 0.571742 0.500000
v 0.663182 0.571742 0.500000
v 0.663182 0.960919 0.450939
v 0.663182 0.905126 0.450939
v 0.850207 0.960919 0.450939
v 0.850207 0.905126 0.450939
v 0.930788 0.905126 0.450939
v 0.581485 0.905126 0.450939
v 0.663182 0.849581 0.450939
v 0.581485 0.849581 0.450939
v 0.930788 0.795280 0.450939
v 0.850207 0.795280 0.450939
v 0.850207 0.741119 0.450939
v 0.663182 0.741119 0.450939
v 0.930788 0.741119 0.450939
v 0.581485 0.741119 0.450939
v 0.930788 0.685824 0.450939
v 0.850207 0.685824 0.450939
v 0.850207 0.628202 0.450939
v 0.663182 0.628202 0.450939
v 0.663182 0.571742 0.450939
v 0.581485 0.571742 0.450939
vt 0.440452 0.558581
vt 0.881115 0.558581
vt 0.881115 0.997383
vt 0.440452 0.997383
vt 0.584026 0.997383
vt 0.584026 0.946140
vt 0.748856 0.946140
vt 0.819874 0.897176
vt 0.748856 0.897176
vt 0.584026 0.897176
vt 0.512024 0.897176
vt 0.584026 0.848429
vt 0.512024 0.848429
vt 0.819874 0.800774
vt 0.748856 0.800774
vt 0.819874 0.753242
vt 0.748856 0.753242
vt 0.584026 0.753242
vt 0.512024 0.753242
vt 0.819874 0.704715
vt 0.748856 0.704715
vt 0.584026 0.654146
vt 0.748856 0.654146
vt 0.512024 0.604596
vt 0.584026 0.604596
vt 0.917878 0.507405
vt 0.917879 0.349060
vt 0.991172 0.349061
vt 0.991172 0.507405
vt 0.917878 0.908770
vt 0.917879 0.750425
vt 0.991172 0.750425
vt 0.991172 0.908770
vt 0.998506 0.586439
vt 0.998506 0.744784
vt 0.925213 0.744784
vt 0.925213 0.586439
vt 0.994758 0.563455
vt 0.994758 0.721800
vt 0.921465 0.721800
vt 0.921465 0.563455
vt 0.907246 0.528670
vt 0.907246 0.370325
vt 0.980540 0.370325
vt 0.980539 0.528670
vt 0.917879 0.582968
vt 0.991172 0.582968
vt 0.975223 0.689290
vt 0.901930 0.689290
vt 0.920537 0.611069
vt 0.920537 0.452724
vt 0.993830 0.452724
vt 0.993830 0.611069
vt 0.917878 0.741313
vt 0.917879 0.582968
vt 0.991172 0.582968
vt 0.991172 0.741313
vt 0.917878 0.741313
vt 0.991172 0.741313
vt 0.917878 0.741313
vt 0.917879 0.582968
vt 0.991172 0.582968
vt 0.991172 0.741313
vt 0.917878 0.741313
vt 0.917879 0.582968
vt 0.991172 0.582968
vt 0.991172 0.741313
vt 0.975223 0.847635
vt 0.901930 0.847634
vt 0.917878 0.741313
vt 0.917879 0.582968
vt 0.991172 0.582968
vt 0.991172 0.741313
vt 0.917878 0.741313
vt 0.917879 0.582968
vt 0.991172 0.582968
vt 0.991172 0.741313
vt 0.917878 0.741313
vt 0.917879 0.582968
vt 0.991172 0.582968
vt 0.991172 0.741313
vt 0.917878 0.741313
vt 0.917879 0.582968
vt 0.991172 0.582968
vt 0.991172 0.741313
vt 0.917878 0.741313
vt 0.917879 0.582968
vt 0.991172 0.582968
vt 0.991172 0.741313
vt 0.917878 0.741313
vt 0.991172 0.741313
vt 0.917878 0.741313
vt 0.917879 0.582968
vt 0.991172 0.582968
vt 0.991172 0.741313
vt 0.917878 0.741313
vt 0.917879 0.582968
vt 0.991172 0.582968
vt 0.991172 0.741313
vt 0.917879 0.582968
vt 0.991172 0.582968
vt 0.917878 0.741313
vt 0.917879 0.582968
vt 0.991172 0.582968
vt 0.991172 0.741313
vn 0.000000 0.000000 1.000000
vn 0.000000 0.000000 1.000000
vn 0.000000 0.000000 1.000000
vn 0.000000 0.000000 1.000000
vn 0.000000 0.000000 1.000000
vn 0.000000 0.000000 1.000000
vn 0.000000 0.000000 1.000000
vn 0.000000 0.000000 1.000000
vn 0.000000 0.000000 1.000000
vn 0.000000 0.000000 1.000000
vn 0.000000 0.000000 1.000000
vn 0.000000 0.000000 1.000000
vn 1.000000 0.000000 0.000000
vn 1.000000 0.000000 0.000000
vn 1.000000 0.000000 0.000000
vn 1.000000 0.000000 0.000000
vn -1.000000 0.000000 0.000000
vn -1.000000 0.000000 0.000000
vn -1.000000 0.000000 0.000000
vn -1.000000 0.000000 0.000000
vn 0.000000 -1.000000 0.000000
vn 0.000000 -1.000000 0.000000
vn 0.000000 -1.000000 0.000000
vn 0.000000 -1.000000 0.000000
vn 0.000000 -1.000000 0.000000
vn 0.000000 -1.000000 0.000000
vn 0.000000 -1.000000 0.000000
vn 0.000000 -1.000000 0.000000
vn 0.000000 -1.000000 0.000000
vn 0.000000 -1.000000 0.000000
vn 0.000000 -1.000000 0.000000
vn 0.000000 -1.000000 0.000000
vn 1.000000 -0.000001 0.000000
vn 1.000000 -0.000001 0.000000
vn 1.000000 -0.000001 0.000000
vn 1.000000 -0.000001 0.000000
vn 1.000000 0.000000 0.000000
vn 1.000000 0.000000 0.000000
vn 1.000000 0.000000 0.000000
vn 1.000000 0.000000 0.000000
vn 0.000000 1.000000 0.000000
vn 0.000000 1.000000 0.000000
vn 0.000000 1.000000 0.000000
vn 0.000000 1.000000 0.000000
vn -1.000000 0.000000 0.000000
vn -1.000000 0.000000 0.000000
vn -1.000000 0.000000 0.000000
vn -1.000000 0.000000 0.000000
vn -1.000000 0.000000 0.000000
vn -1.000000 0.000000 0.000000
vn -1.000000 0.000000 0.000000
vn -1.000000 0.000000 0.000000
vn 0.000000 1.000000 0.000000
vn 0.000000 1.000000 0.000000
vn 0.000000 1.000000 0.000000
vn 0.000000 1.000000 0.000000
vn 0.000000 -1.000000 0.000000
vn 0.000000 -1.000000 0.000000
vn 0.000000 -1.000000 0.000000
vn 0.000000 -1.000000 0.000000
vn 0.000000 -1.000000 0.000000
vn 0.000000 -1.000000 0.000000
vn 0.000000 -1.000000 0.000000
vn 0.000000 -1.000000 0.000000
vn -1.000000 0.000000 0.000000
vn -1.000000 0.000000 0.000000
vn -1.000000 0.000000 0.000000
vn -1.000000 0.000000 0.000000
vn -1.000000 -0.000001 0.000000
vn -1.000000 -0.000001 0.000000
vn -1.000000 -0.000001 0.000000
vn -1.000000 -0.000001 0.000000
vn 0.000000 1.000000 0.000000
vn 0.000000 1.000000 0.000000
vn 0.000000 1.000000 0.000000
vn 0.000000 1.000000 0.000000
vn 1.000000 0.000000 0.000000
vn 1.000000 0.000000 0.000000
vn 1.000000 0.000000 0.000000
vn 1.000000 0.000000 0.000000
vn -1.000000 0.000000 0.000000
vn -1.000000 0.000000 0.000000
vn -1.000000 0.000000 0.000000
vn -1.000000 0.000000 0.000000
vn 0.000000 1.000000 0.000000
vn 0.000000 1.000000 0.000000
vn 0.000000 1.000000 0.000000
vn 0.000000 1.000000 0.000000
vn 0.000000 1.000000 0.000000
vn 0.000000 1.000000 0.000000
vn 0.000000 1.000000 0.000000
vn 0.000000 1.000000 0.000000
vn 0.000000 0.000000 1.000000
vn 0.000000 0.000000 1.000000
vn 0.000000 0.000000 1.000000
vn 0.000000 0.000000 1.000000
vn 0.000000 0.000000 1.000000
vn 0.000000 0.000000 1.000000
vn 0.000000 0.000000 1.000000
vn 0.000000 0.000000 1.000000
vn 0.000000 0.000000 1.000000
vn 0.000000 0.000000 1.000000
vn 0.000000 0.000000 1.000000
vn 0.000000 0.000000 1.000000
vn 0.000000 0.000000 1.000000
s 1
g polySurface7 pCube1
usemtl lambert2SG
f 7/7/1 1/3/2 5/5/3 6/6/4
f 17/17/5 16/16/6 14/14/7 15/15/8
f 4/4/9 19/19/10 13/13/11 11/11/12
s off
f 6/26/13 10/27/14 27/28/15 26/29/16
f 9/30/17 7/31/18 28/32/19 29/33/20
f 7/34/21 6/35/22 26/36/23 28/37/24
f 8/38/25 9/39/26 29/40/27 30/41/28
f 10/42/29 11/43/30 31/44/31 27/45/32
f 37/69/33 32/49/34 12/48/35 18/68/36
f 11/50/37 13/51/38 33/52/39 31/53/40
f 13/54/41 12/55/42 32/56/43 33/57/44
f 30/47/45 34/59/46 14/58/47 8/46/48
f 17/60/49 15/61/50 35/62/51 36/63/52
f 15/64/53 14/65/54 34/66/55 35/67/56
f 16/70/57 17/71/58 36/72/59 38/73/60
f 18/74/61 19/75/62 39/76/63 37/77/64
f 20/78/65 16/79/66 38/80/67 40/81/68
f 23/82/69 21/83/70 41/84/71 42/85/72
f 21/86/73 20/87/74 40/88/75 41/89/76
f 45/101/77 39/91/78 19/90/79 24/100/80
f 25/92/81 22/93/82 43/94/83 44/95/84
f 22/96/85 23/97/86 42/98/87 43/99/88
f 24/102/89 25/103/90 44/104/91 45/105/92
s 1
f 5/5/3 4/4/9 6/6/4
f 6/6/4 4/4/9 11/11/12 10/10/93
f 13/13/11 19/19/10 18/18/94 12/12/95
f 8/8/96 1/3/2 7/7/1 9/9/97
f 16/16/6 1/3/2 8/8/96 14/14/7
f 20/20/98 3/2/99 1/3/2 16/16/6
f 20/20/98 21/21/100 23/23/101 3/2/99
f 3/2/99 23/23/101 22/22/102 25/25/103
f 3/2/99 25/25/103 24/24/104 2/1/105
f 2/1/105 24/24/104 19/19/10 4/4/9
