# This file uses centimeters as units for non-parametric coordinates.

mtllib qbalken2.mtl
g default
v 12.315760 1.602885 0.541771
v 12.315760 1.683614 0.541771
v 12.315760 1.602885 0.499936
v 12.315760 1.683614 0.499936
v 12.815760 1.683614 0.499936
v 12.815760 1.683614 0.541771
v 12.815760 1.602885 0.541771
v 12.815760 1.602885 0.499936
vt 0.338083 0.070173
vt 0.338083 0.115344
vt 0.338083 0.070280
vt 0.338083 0.115451
vt 0.671633 0.070173
vt 0.671633 0.115344
vt 0.000592 0.112654
vt 0.000592 0.000789
vt 0.448616 0.000789
vt 0.448616 0.112654
vt 0.671633 0.070280
vt 0.671633 0.115451
vn 0.000000 1.000000 0.000000
vn 0.000000 1.000000 0.000000
vn 0.000000 1.000000 0.000000
vn 0.000000 1.000000 0.000000
vn 0.000000 0.000000 1.000000
vn 0.000000 0.000000 1.000000
vn 0.000000 0.000000 1.000000
vn 0.000000 0.000000 1.000000
vn 0.000000 -1.000000 0.000000
vn 0.000000 -1.000000 0.000000
vn 0.000000 -1.000000 0.000000
vn 0.000000 -1.000000 0.000000
s off
g polySurface79 polySurface64
usemtl lambert2SG
f 6/2/1 5/1/2 4/5/3 2/6/4
f 7/7/5 6/8/6 2/9/7 1/10/8
f 8/4/9 7/3/10 1/11/11 3/12/12
