# This file uses centimeters as units for non-parametric coordinates.

mtllib qbalken1.mtl
g default
v 12.301408 1.025503 0.515288
v 12.301408 1.106232 0.541771
v 12.301408 1.025503 0.499936
v 12.301408 1.106232 0.499936
v 12.801408 1.106232 0.499936
v 12.801408 1.106232 0.541771
v 12.801408 1.025503 0.515288
v 12.801408 1.025503 0.499936
v 12.301408 1.065867 0.516203
v 12.801408 1.065867 0.516203
vt 0.338083 0.070173
vt 0.338083 0.115344
vt 0.338083 0.070280
vt 0.338083 0.115451
vt 0.671633 0.070173
vt 0.671633 0.115344
vt 0.676029 0.058355
vt 0.676029 0.114941
vt 1.000137 0.114941
vt 1.000137 0.058355
vt 0.671633 0.070280
vt 0.671633 0.115451
vt 0.676029 0.001770
vt 1.000137 0.001770
vn 0.000000 1.000000 0.000000
vn 0.000000 1.000000 0.000000
vn 0.000000 1.000000 0.000000
vn 0.000000 1.000000 0.000000
vn 0.000000 -0.289454 0.957192
vn 0.000000 -0.535108 0.844784
vn 0.000000 -0.535108 0.844784
vn 0.000000 -0.289454 0.957192
vn 0.000000 -1.000000 0.000000
vn 0.000000 -1.000000 0.000000
vn 0.000000 -1.000000 0.000000
vn 0.000000 -1.000000 0.000000
vn 0.000000 -0.022676 0.999743
vn 0.000000 -0.022676 0.999743
s off
g polySurface82 polySurface64
usemtl lambert2SG
f 6/2/1 5/1/2 4/5/3 2/6/4
s 2
f 10/7/5 6/8/6 2/9/7 9/10/8
s off
f 8/4/9 7/3/10 1/11/11 3/12/12
s 2
f 7/13/13 10/7/5 9/10/8 1/14/14
