# This file uses centimeters as units for non-parametric coordinates.

mtllib tuer.mtl
g default
v -0.500000 0.519309 0.500000
v 0.000000 0.519309 0.500000
v -0.394365 0.019309 0.500000
v -0.394365 0.451808 0.500000
v -0.098502 0.019309 0.500000
v -0.098502 0.451808 0.500000
v -0.382491 0.434345 0.479004
v -0.382491 0.019309 0.479004
v -0.113926 0.434345 0.479004
v -0.113926 0.019309 0.479004
v -0.098502 0.172224 0.500000
v -0.394365 0.172224 0.500000
v 0.000000 0.171782 0.500000
v -0.500000 0.172113 0.500000
v -0.500000 0.019309 0.516921
v -0.500000 0.172113 0.516921
v -0.394365 0.019309 0.516921
v -0.394365 0.172224 0.516921
v -0.098502 0.172224 0.516921
v 0.000000 0.171782 0.516921
v -0.098502 0.019309 0.516921
v 0.000000 0.019309 0.516921
vt 0.440452 0.558581
vt -0.000211 0.558581
vt 0.510773 0.119481
vt 0.092888 0.499342
vt 0.353640 0.119779
vt 0.353640 0.499342
vt 0.103353 0.484017
vt 0.103353 0.119779
vt 0.340047 0.484017
vt 0.340047 0.119779
vt 0.340047 0.484017
vt 0.340047 0.484017
vt 0.340047 0.119779
vt 0.778533 0.119481
vt 0.103353 0.484017
vt 0.103353 0.484017
vt 0.353640 0.499342
vt 0.103353 0.119779
vt 0.092888 0.499342
vt 0.092888 0.119779
vt 0.353640 0.253977
vt 0.353640 0.253977
vt 0.092888 0.253977
vt 0.092888 0.253977
vt 0.440452 0.253590
vt -0.000211 0.253881
vt 0.000314 0.253881
vt 0.000314 0.119779
vt 0.085833 0.119779
vt 0.085833 0.253977
vt 0.443538 0.253590
vt 0.361438 0.253977
vt 0.361438 0.119779
vt 0.443538 0.119779
vt 0.670850 0.215938
vt 0.867226 0.215938
vt 0.867226 0.247395
vt 0.670850 0.247395
vt 0.487253 0.215938
vt 0.670369 0.215938
vt 0.670369 0.247395
vt 0.487253 0.247395
vt 0.778533 0.149110
vt 0.510773 0.149110
vt 0.778533 0.119481
vt 0.510773 0.119481
vt 0.510773 0.149110
vt 0.778533 0.149110
vn -0.000000 0.000000 1.000000
vn -0.000000 0.000000 1.000000
vn -0.000000 0.000000 1.000000
vn -0.000000 0.000000 1.000000
vn -0.805921 0.000000 0.592024
vn -0.805921 0.000000 0.592024
vn -0.805921 0.000000 0.592024
vn 0.000000 0.000000 1.000000
vn 0.000000 0.000000 1.000000
vn 0.000000 0.000000 1.000000
vn 0.000000 0.000000 1.000000
vn 0.000000 0.000000 1.000000
vn 0.000000 0.000000 1.000000
vn 0.000000 -0.768838 0.639443
vn 0.000000 -0.768838 0.639443
vn 0.000000 -0.768838 0.639443
vn 0.000000 -0.768838 0.639443
vn 0.870440 0.000000 0.492275
vn 0.941124 0.000000 0.338061
vn 0.870440 0.000000 0.492275
vn 0.870440 0.000000 0.492275
vn 0.000000 0.000000 1.000000
vn 0.000000 0.000000 1.000000
vn 0.000000 0.000000 1.000000
vn 0.000000 0.000000 1.000000
vn 0.000000 0.000000 1.000000
vn 0.000000 0.000000 1.000000
vn 0.000000 0.000000 1.000000
vn 0.000000 0.000000 1.000000
vn 0.000000 0.000000 1.000000
vn 0.000000 0.000000 1.000000
vn 0.967068 0.000000 0.254520
vn 1.000000 0.000000 0.000000
vn 1.000000 0.000000 0.000000
vn -0.001046 0.999999 0.000000
vn -0.001046 0.999999 0.000000
vn -0.001046 0.999999 0.000000
vn -0.001046 0.999999 0.000000
vn 0.004488 0.999990 0.000000
vn 0.004488 0.999990 0.000000
vn 0.004488 0.999990 0.000000
vn 0.004488 0.999990 0.000000
vn -1.000000 0.000000 0.000000
vn -1.000000 0.000000 0.000000
vn -1.000000 0.000000 0.000000
vn -1.000000 0.000000 0.000000
vn -0.805921 0.000000 0.592023
vn -0.805921 0.000000 0.592023
s off
g polySurface6 polySurface3 polySurface1 pCube1
usemtl lambert2SG
f 16/27/1 15/28/2 17/29/3 18/30/4
s 2
f 10/13/5 5/5/6 11/21/7
s 3
f 6/6/8 2/1/9 1/2/10 4/4/11
f 6/6/8 11/22/12 13/25/13 2/1/9
s off
f 9/11/14 6/17/15 4/19/16 7/16/17
s 5
f 4/19/18 12/24/19 8/8/20 7/15/21
s off
f 8/18/22 10/10/23 9/9/24 7/7/25
f 20/31/26 19/32/27 21/33/28 22/34/29
s 3
f 1/2/10 14/26/30 12/23/31 4/4/11
s 5
f 3/3/32 12/14/19 18/43/33 17/44/34
s off
f 12/35/35 14/36/36 16/37/37 18/38/38
f 13/39/39 11/40/40 19/41/41 20/42/42
f 11/45/43 5/46/44 21/47/45 19/48/46
s 5
f 12/24/19 3/20/32 8/8/20
s 2
f 9/12/47 10/13/5 11/21/7 6/17/48
