# This file uses centimeters as units for non-parametric coordinates.

mtllib bruch_kl3_2.mtl
v -3.529955 0.220250 -3.007007
v -3.779955 0.220250 -3.007007
v -4.029955 0.220250 -3.007007
v -4.279955 0.220250 -3.007007
v -4.523470 0.220250 -3.007007
v -3.529955 0.335672 -3.007008
v -3.709673 0.531657 -3.007008
v -4.029955 0.470250 -3.007007
v -4.284396 0.339871 -3.007006
v -4.523333 0.335672 -3.007006
v -3.529955 0.220250 -3.191457
v -3.779955 0.220250 -3.191457
v -4.029955 0.220250 -3.191457
v -4.279955 0.220250 -3.191457
v -4.523470 0.220250 -3.191457
v -3.709673 0.531657 -3.191457
v -3.529955 0.335672 -3.191457
v -4.029955 0.470250 -3.191457
v -4.284396 0.339871 -3.191457
v -4.523333 0.335672 -3.191457
vt 0.328689 0.642535
vt 0.491036 0.642535
vt 0.445396 0.844759
vt 0.328689 0.717488
vt 0.653383 0.642535
vt 0.653383 0.804882
vt 0.815730 0.642535
vt 0.818613 0.720215
vt 0.973866 0.642535
vt 0.973777 0.717488
vt 0.328689 0.642535
vt 0.491036 0.642535
vt 0.445396 0.844759
vt 0.328689 0.717488
vt 0.653383 0.642535
vt 0.653383 0.804882
vt 0.815730 0.642535
vt 0.818613 0.720215
vt 0.973866 0.642535
vt 0.973777 0.717488
vt 0.034854 0.856274
vt 0.163456 0.856274
vt 0.163456 0.988262
vt 0.034854 0.988262
vt 0.392643 0.856274
vt 0.574715 0.856273
vt 0.574715 0.988262
vt 0.392643 0.988262
vt 0.745694 0.856273
vt 0.745694 0.988262
vn 0.000004 0.000005 1.000000
vn 0.000004 0.000005 1.000000
vn 0.000004 0.000005 1.000000
vn 0.000004 0.000005 1.000000
vn 0.000002 0.000002 1.000000
vn 0.000002 0.000002 1.000000
vn 0.000002 0.000002 1.000000
vn 0.000002 0.000002 1.000000
vn 0.000001 -0.000003 1.000000
vn 0.000001 -0.000003 1.000000
vn 0.000001 -0.000003 1.000000
vn 0.000001 -0.000003 1.000000
vn 0.000000 -0.000008 1.000000
vn 0.000000 -0.000008 1.000000
vn 0.000000 -0.000008 1.000000
vn 0.000000 -0.000008 1.000000
vn -0.000001 0.000000 -1.000000
vn -0.000001 0.000000 -1.000000
vn -0.000001 0.000000 -1.000000
vn -0.000001 0.000000 -1.000000
vn 0.000000 0.000000 -1.000000
vn 0.000000 0.000000 -1.000000
vn 0.000000 0.000000 -1.000000
vn 0.000000 0.000000 -1.000000
vn 0.000001 0.000000 -1.000000
vn 0.000001 0.000000 -1.000000
vn 0.000001 0.000000 -1.000000
vn 0.000001 0.000000 -1.000000
vn -0.000001 0.000000 -1.000000
vn -0.000001 0.000000 -1.000000
vn -0.000001 0.000000 -1.000000
vn -0.000001 0.000000 -1.000000
vn 0.737032 0.675858 0.000000
vn 0.737032 0.675858 0.000000
vn 0.737032 0.675858 0.000000
vn 0.737032 0.675858 0.000000
vn -0.456029 0.889965 0.000000
vn -0.456029 0.889965 0.000000
vn -0.456029 0.889965 0.000000
vn -0.456029 0.889965 0.000000
vn -0.017571 0.999846 0.000000
vn -0.017571 0.999846 0.000000
vn -0.017571 0.999846 0.000000
vn -0.017571 0.999846 0.000000
vn -0.188298 0.982112 0.000000
vn -0.188298 0.982112 0.000000
vn -0.188298 0.982112 0.000000
vn -0.188298 0.982112 0.000000
s off
g polySurface138 polySurface175 polySurface177 polySurface179 polySurface186 polySurface187 polySurface1
usemtl texturedFacets24
f 1/1/1 6/4/2 7/3/3 2/2/4
f 2/2/5 7/3/6 8/6/7 3/5/8
f 3/5/9 8/6/10 9/8/11 4/7/12
f 4/7/13 9/8/14 10/10/15 5/9/16
f 11/11/17 12/12/18 16/13/19 17/14/20
f 12/12/21 13/15/22 18/16/23 16/13/24
f 13/15/25 14/17/26 19/18/27 18/16/28
f 14/17/29 15/19/30 20/20/31 19/18/32
f 6/21/33 17/24/34 16/23/35 7/22/36
f 8/25/37 18/28/38 19/27/39 9/26/40
f 9/26/41 19/27/42 20/30/43 10/29/44
f 16/23/45 18/28/46 8/25/47 7/22/48
