# This file uses centimeters as units for non-parametric coordinates.

mtllib bruch_gr.mtl
g default
v -7.635010 0.220250 -3.986941
v -7.387207 0.220250 -3.986941
v -7.137207 0.220250 -3.986941
v -6.887207 0.220250 -3.986941
v -6.618057 0.220250 -3.986941
v -7.635010 0.470250 -3.986941
v -7.387207 0.470250 -3.986941
v -7.181610 0.379902 -3.986938
v -6.878006 0.396082 -3.986939
v -6.618164 0.335672 -3.986940
v -7.635010 0.720250 -3.986941
v -7.460495 0.669461 -3.986939
v -7.167435 0.606944 -3.986940
v -7.013702 0.509366 -3.986934
v -7.635010 0.970250 -3.986941
v -7.350693 0.919461 -3.986939
v -7.210495 0.820947 -3.986939
v -7.635010 1.220250 -3.986941
v -7.385086 1.220250 -3.986941
v -7.635010 0.220250 -4.171391
v -7.387207 0.220250 -4.171391
v -7.137207 0.220250 -4.171391
v -6.887207 0.220250 -4.171391
v -6.618057 0.220250 -4.171391
v -7.635010 0.470250 -4.171391
v -7.387207 0.470250 -4.171390
v -7.181610 0.379902 -4.171390
v -7.635010 0.720250 -4.171391
v -7.460495 0.669461 -4.171391
v -7.635010 0.970250 -4.171391
v -7.635010 1.220250 -4.171391
v -6.878006 0.396082 -4.171391
v -6.618164 0.335672 -4.171391
v -7.167435 0.606944 -4.171391
v -7.013702 0.509366 -4.171391
v -7.350693 0.919461 -4.171390
v -7.210495 0.820947 -4.171390
v -7.385086 1.220250 -4.171391
v -7.271953 0.532274 -3.948143
v -7.053379 0.532307 -3.948143
v -7.282157 0.591224 -3.913910
v -7.063951 0.591191 -3.913910
v -7.282157 0.591224 -4.013439
v -7.005621 0.591191 -4.013439
v -7.271953 0.532274 -4.013439
v -6.995049 0.532307 -4.013439
v -7.244761 0.499236 -3.962090
v -7.214528 0.499236 -3.962090
v -7.244761 0.548934 -3.962090
v -7.214528 0.548934 -3.962090
v -7.244761 0.548934 -4.011789
v -7.214529 0.548934 -4.011789
v -7.244761 0.499236 -4.011789
v -7.214528 0.499236 -4.011789
v -7.269321 0.548801 -3.960440
v -7.237080 0.548801 -3.960440
v -7.267928 0.851698 -3.960440
v -7.238474 0.838584 -3.960440
v -7.267928 0.851698 -4.013439
v -7.238473 0.838584 -4.013439
v -7.269321 0.548801 -4.013439
v -7.237080 0.548801 -4.013439
vt 0.012243 0.009576
vt 0.214691 0.009576
vt 0.214691 0.213819
vt 0.012243 0.213819
vt 0.418934 0.009576
vt 0.382658 0.140007
vt 0.623177 0.009576
vt 0.630694 0.153226
vt 0.843064 0.009576
vt 0.842977 0.103872
vt 0.154817 0.376568
vt 0.012243 0.418061
vt 0.394239 0.325494
vt 0.519834 0.245776
vt 0.244522 0.580811
vt 0.012243 0.622304
vt 0.359060 0.500328
vt 0.216424 0.826547
vt 0.012243 0.826547
vt 0.012243 0.009576
vt 0.012243 0.213819
vt 0.214691 0.213819
vt 0.214691 0.009576
vt 0.382658 0.140007
vt 0.418934 0.009576
vt 0.630694 0.153226
vt 0.623177 0.009576
vt 0.842977 0.103872
vt 0.843064 0.009576
vt 0.012243 0.418061
vt 0.154817 0.376568
vt 0.394239 0.325494
vt 0.519834 0.245776
vt 0.012243 0.622304
vt 0.244522 0.580811
vt 0.359060 0.500328
vt 0.012243 0.826547
vt 0.216424 0.826547
vt 0.704093 0.850035
vt 0.877323 0.849985
vt 0.877358 0.969759
vt 0.704128 0.969810
vt 0.589308 0.850065
vt 0.589342 0.969843
vt 0.471070 0.850103
vt 0.471104 0.969877
vt 0.329320 0.850143
vt 0.329355 0.969917
vt 0.218054 0.850175
vt 0.218089 0.969949
vt 0.021461 0.850233
vt 0.021496 0.970007
vt 0.235000 0.198378
vt 0.485733 0.197600
vt 0.473608 0.150022
vt 0.223284 0.149219
vt 0.507152 0.102754
vt 0.240757 0.102095
vt 0.169772 0.015200
vt 0.507152 0.014432
vt 0.494685 0.014432
vt 0.156914 0.015578
vt 0.227888 0.071387
vt 0.494685 0.072376
vt 0.723224 0.097808
vt 0.662172 0.112519
vt 0.662769 0.065963
vt 0.755750 0.049697
vt 0.516952 0.076054
vt 0.579987 0.076054
vt 0.613035 0.019146
vt 0.516952 0.019146
vt 0.461158 0.050916
vt 0.495866 0.050916
vt 0.495866 0.092361
vt 0.461158 0.092361
vt 0.507117 0.090785
vt 0.478613 0.067297
vt 0.450567 0.101333
vt 0.479071 0.124821
vt 0.301923 0.042544
vt 0.271412 0.079572
vt 0.308439 0.110082
vt 0.338950 0.073054
vt 0.271412 0.079572
vt 0.301923 0.042544
vt 0.338950 0.073054
vt 0.308439 0.110082
vt 0.285307 0.110136
vt 0.285307 0.073122
vt 0.526759 0.076131
vt 0.537682 0.107132
vt 0.320278 0.107562
vt 0.320279 0.158726
vt 0.599789 0.157217
vt 0.599790 0.109071
vt 0.320279 0.158726
vt 0.320278 0.107562
vt 0.612441 0.109071
vt 0.612441 0.157217
vn 0.000000 0.000000 1.000000
vn 0.000000 0.000000 1.000000
vn 0.000000 0.000000 1.000000
vn 0.000000 0.000000 1.000000
vn -0.000008 -0.000008 1.000000
vn -0.000008 -0.000008 1.000000
vn -0.000008 -0.000008 1.000000
vn -0.000008 -0.000008 1.000000
vn 0.000003 -0.000015 1.000000
vn 0.000003 -0.000015 1.000000
vn 0.000003 -0.000015 1.000000
vn 0.000003 -0.000015 1.000000
vn 0.000000 -0.000011 1.000000
vn 0.000000 -0.000011 1.000000
vn 0.000000 -0.000011 1.000000
vn 0.000000 -0.000011 1.000000
vn -0.000006 -0.000006 1.000000
vn -0.000006 -0.000006 1.000000
vn -0.000006 -0.000006 1.000000
vn -0.000006 -0.000006 1.000000
vn -0.000004 -0.000001 1.000000
vn -0.000004 -0.000001 1.000000
vn -0.000004 -0.000001 1.000000
vn -0.000004 -0.000001 1.000000
vn -0.000013 -0.000014 1.000000
vn -0.000013 -0.000014 1.000000
vn -0.000013 -0.000014 1.000000
vn -0.000013 -0.000014 1.000000
vn -0.000009 0.000002 1.000000
vn -0.000009 0.000002 1.000000
vn -0.000009 0.000002 1.000000
vn -0.000009 0.000002 1.000000
vn 0.000002 -0.000002 1.000000
vn 0.000002 -0.000002 1.000000
vn 0.000002 -0.000002 1.000000
vn 0.000002 -0.000002 1.000000
vn -0.000004 0.000004 1.000000
vn -0.000004 0.000004 1.000000
vn -0.000004 0.000004 1.000000
vn -0.000004 0.000004 1.000000
vn 0.000002 0.000002 -1.000000
vn 0.000002 0.000002 -1.000000
vn 0.000002 0.000002 -1.000000
vn 0.000002 0.000002 -1.000000
vn 0.000000 0.000005 -1.000000
vn 0.000000 0.000005 -1.000000
vn 0.000000 0.000005 -1.000000
vn 0.000000 0.000005 -1.000000
vn -0.000003 0.000003 -1.000000
vn -0.000003 0.000003 -1.000000
vn -0.000003 0.000003 -1.000000
vn -0.000003 0.000003 -1.000000
vn 0.000000 0.000000 -1.000000
vn 0.000000 0.000000 -1.000000
vn 0.000000 0.000000 -1.000000
vn 0.000000 0.000000 -1.000000
vn 0.000003 -0.000002 -1.000000
vn 0.000003 -0.000002 -1.000000
vn 0.000003 -0.000002 -1.000000
vn 0.000003 -0.000002 -1.000000
vn -0.000002 -0.000005 -1.000000
vn -0.000002 -0.000005 -1.000000
vn -0.000002 -0.000005 -1.000000
vn -0.000002 -0.000005 -1.000000
vn -0.000003 -0.000004 -1.000000
vn -0.000003 -0.000004 -1.000000
vn -0.000003 -0.000004 -1.000000
vn -0.000003 -0.000004 -1.000000
vn 0.000002 0.000001 -1.000000
vn 0.000002 0.000001 -1.000000
vn 0.000002 0.000001 -1.000000
vn 0.000002 0.000001 -1.000000
vn 0.000002 0.000004 -1.000000
vn 0.000002 0.000004 -1.000000
vn 0.000002 0.000004 -1.000000
vn 0.000002 0.000004 -1.000000
vn 0.000001 -0.000002 -1.000000
vn 0.000001 -0.000002 -1.000000
vn 0.000001 -0.000002 -1.000000
vn 0.000001 -0.000002 -1.000000
vn 0.226449 0.974023 0.000000
vn 0.226449 0.974023 0.000000
vn 0.226449 0.974023 0.000000
vn 0.226449 0.974023 0.000000
vn 0.640866 0.767653 0.000000
vn 0.640866 0.767653 0.000000
vn 0.640866 0.767653 0.000000
vn 0.640866 0.767653 0.000000
vn 0.535888 0.844289 0.000000
vn 0.535888 0.844289 0.000000
vn 0.535888 0.844289 0.000000
vn 0.535888 0.844289 0.000000
vn 0.980352 0.197258 0.000000
vn 0.980352 0.197258 0.000000
vn 0.980352 0.197258 0.000000
vn 0.980352 0.197258 0.000000
vn 0.574931 0.818202 0.000000
vn 0.574931 0.818202 0.000000
vn 0.574931 0.818202 0.000000
vn 0.574931 0.818202 0.000000
vn 0.993526 0.113603 0.000000
vn 0.993526 0.113603 0.000000
vn 0.993526 0.113603 0.000000
vn 0.993526 0.113603 0.000000
vn 0.000000 -0.502390 0.864641
vn 0.000000 -0.502390 0.864641
vn 0.000000 -0.502390 0.864641
vn 0.000000 -0.502390 0.864641
vn 0.000133 1.000000 0.000039
vn 0.000133 1.000000 0.000039
vn 0.000133 1.000000 0.000039
vn 0.000133 1.000000 0.000039
vn 0.000133 -1.000000 0.000059
vn 0.000133 -1.000000 0.000059
vn 0.000133 -1.000000 0.000059
vn 0.000133 -1.000000 0.000059
vn 0.816051 -0.021374 0.577584
vn 0.816051 -0.021374 0.577584
vn 0.816051 -0.021374 0.577584
vn 0.816051 -0.021374 0.577584
vn -0.985349 -0.170552 0.000000
vn -0.985349 -0.170552 0.000000
vn -0.985349 -0.170552 0.000000
vn -0.985349 -0.170552 0.000000
vn 0.000000 0.000000 1.000000
vn 0.000000 0.000000 1.000000
vn 0.000000 0.000000 1.000000
vn 0.000000 0.000000 1.000000
vn 0.000000 -1.000000 0.000000
vn 0.000000 -1.000000 0.000000
vn 0.000000 -1.000000 0.000000
vn 0.000000 -1.000000 0.000000
vn 1.000000 0.000012 -0.000010
vn 1.000000 0.000012 -0.000010
vn 1.000000 0.000012 -0.000010
vn 1.000000 0.000012 -0.000010
vn -1.000000 0.000000 0.000000
vn -1.000000 0.000000 0.000000
vn -1.000000 0.000000 0.000000
vn -1.000000 0.000000 0.000000
vn 0.000000 0.000000 1.000000
vn 0.000000 0.000000 1.000000
vn 0.000000 0.000000 1.000000
vn 0.000000 0.000000 1.000000
vn 0.999988 0.004808 0.000009
vn 0.999988 0.004808 0.000009
vn 0.999988 0.004808 0.000009
vn 0.999988 0.004808 0.000009
vn -0.999989 0.004598 0.000000
vn -0.999989 0.004598 0.000000
vn -0.999989 0.004598 0.000000
vn -0.999989 0.004598 0.000000
s off
g polySurface182
usemtl texturedFacets24
f 1/1/1 2/2/2 7/3/3 6/4/4
f 2/2/5 3/5/6 8/6/7 7/3/8
f 3/5/9 4/7/10 9/8/11 8/6/12
f 4/7/13 5/9/14 10/10/15 9/8/16
f 6/4/17 7/3/18 12/11/19 11/12/20
f 7/3/21 8/6/22 13/13/23 12/11/24
f 8/6/25 9/8/26 14/14/27 13/13/28
f 11/12/29 12/11/30 16/15/31 15/16/32
f 12/11/33 13/13/34 17/17/35 16/15/36
f 15/16/37 16/15/38 19/18/39 18/19/40
f 20/20/41 25/21/42 26/22/43 21/23/44
f 21/23/45 26/22/46 27/24/47 22/25/48
f 22/25/49 27/24/50 32/26/51 23/27/52
f 23/27/53 32/26/54 33/28/55 24/29/56
f 25/21/57 28/30/58 29/31/59 26/22/60
f 26/22/61 29/31/62 34/32/63 27/24/64
f 27/24/65 34/32/66 35/33/67 32/26/68
f 28/30/69 30/34/70 36/35/71 29/31/72
f 29/31/73 36/35/74 37/36/75 34/32/76
f 30/34/77 31/37/78 38/38/79 36/35/80
f 9/39/81 10/40/82 33/41/83 32/42/84
f 14/43/85 9/39/86 32/42/87 35/44/88
f 13/45/89 14/43/90 35/44/91 34/46/92
f 17/47/93 13/45/94 34/46/95 37/48/96
f 16/49/97 17/47/98 37/48/99 36/50/100
f 19/51/101 16/49/102 36/50/103 38/52/104
f 39/53/105 40/54/106 42/55/107 41/56/108
f 41/57/109 42/58/110 44/59/111 43/60/112
f 45/61/113 46/62/114 40/63/115 39/64/116
f 40/65/117 46/66/118 44/67/119 42/68/120
f 45/69/121 39/70/122 41/71/123 43/72/124
f 47/73/125 48/74/126 50/75/127 49/76/128
f 53/77/129 54/78/130 48/79/131 47/80/132
f 48/81/133 54/82/134 52/83/135 50/84/136
f 53/85/137 47/86/138 49/87/139 51/88/140
f 55/89/141 56/90/142 58/91/143 57/92/144
f 56/93/145 62/94/146 60/95/147 58/96/148
f 61/97/149 55/98/150 57/99/151 59/100/152
