# This file uses centimeters as units for non-parametric coordinates.

mtllib bruch_kl1_2.mtl
v -5.606844 0.220250 -3.007008
v -5.856844 0.220250 -3.007007
v -6.106844 0.220250 -3.007007
v -6.356844 0.220250 -3.007008
v -6.600359 0.220250 -3.007007
v -5.606844 0.335672 -3.007008
v -5.786562 0.531657 -3.007008
v -6.106844 0.470250 -3.007007
v -6.361285 0.339871 -3.007006
v -6.600222 0.335672 -3.007007
v -5.856844 0.720250 -3.007007
v -6.036913 0.611021 -3.007005
v -5.606844 0.220250 -3.191457
v -5.856844 0.220250 -3.191457
v -6.106844 0.220250 -3.191457
v -6.356844 0.220250 -3.191457
v -6.600359 0.220250 -3.191457
v -5.786562 0.531657 -3.191457
v -5.606844 0.335672 -3.191457
v -6.106844 0.470250 -3.191457
v -6.361285 0.339871 -3.191457
v -6.600222 0.335672 -3.191457
v -6.036913 0.611021 -3.191457
v -5.856844 0.720250 -3.191457
vt 0.984297 0.596478
vt 0.984297 0.449753
vt 0.801532 0.491002
vt 0.916556 0.596478
vt 0.984297 0.303029
vt 0.837572 0.303029
vt 0.984297 0.156304
vt 0.914092 0.153698
vt 0.984297 0.013385
vt 0.916556 0.013466
vt 0.754954 0.344071
vt 0.690847 0.449753
vt 0.984297 0.596478
vt 0.984297 0.449753
vt 0.801532 0.491002
vt 0.916556 0.596478
vt 0.984297 0.303029
vt 0.837572 0.303029
vt 0.984297 0.156304
vt 0.914092 0.153698
vt 0.984297 0.013385
vt 0.916556 0.013466
vt 0.754954 0.344071
vt 0.690847 0.449753
vt 0.028238 0.853434
vt 0.199582 0.853405
vt 0.199602 0.972258
vt 0.028259 0.972287
vt 0.329269 0.853383
vt 0.329289 0.972236
vt 0.566262 0.853344
vt 0.750486 0.853313
vt 0.750505 0.972167
vt 0.566281 0.972197
vt 0.464978 0.853359
vt 0.464997 0.972213
vt 0.904472 0.853289
vt 0.904491 0.972142
vn 0.000005 0.000002 1.000000
vn 0.000005 0.000002 1.000000
vn 0.000005 0.000002 1.000000
vn 0.000005 0.000002 1.000000
vn 0.000002 0.000002 1.000000
vn 0.000002 0.000002 1.000000
vn 0.000002 0.000002 1.000000
vn 0.000002 0.000002 1.000000
vn -0.000001 -0.000006 1.000000
vn -0.000001 -0.000006 1.000000
vn -0.000001 -0.000006 1.000000
vn -0.000001 -0.000006 1.000000
vn 0.000001 -0.000009 1.000000
vn 0.000001 -0.000009 1.000000
vn 0.000001 -0.000009 1.000000
vn 0.000001 -0.000009 1.000000
vn 0.000011 -0.000009 1.000000
vn 0.000011 -0.000009 1.000000
vn 0.000011 -0.000009 1.000000
vn 0.000011 -0.000009 1.000000
vn -0.000001 0.000000 -1.000000
vn -0.000001 0.000000 -1.000000
vn -0.000001 0.000000 -1.000000
vn -0.000001 0.000000 -1.000000
vn 0.000000 0.000000 -1.000000
vn 0.000000 0.000000 -1.000000
vn 0.000000 0.000000 -1.000000
vn 0.000000 0.000000 -1.000000
vn 0.000001 0.000000 -1.000000
vn 0.000001 0.000000 -1.000000
vn 0.000001 0.000000 -1.000000
vn 0.000001 0.000000 -1.000000
vn -0.000001 0.000000 -1.000000
vn -0.000001 0.000000 -1.000000
vn -0.000001 0.000000 -1.000000
vn -0.000001 0.000000 -1.000000
vn -0.000001 0.000000 -1.000000
vn -0.000001 0.000000 -1.000000
vn -0.000001 0.000000 -1.000000
vn -0.000001 0.000000 -1.000000
vn 0.737031 0.675859 0.000000
vn 0.737031 0.675859 0.000000
vn 0.737031 0.675859 0.000000
vn 0.737031 0.675859 0.000000
vn 0.937046 0.349205 0.000000
vn 0.937046 0.349205 0.000000
vn 0.937046 0.349205 0.000000
vn 0.937046 0.349205 0.000000
vn -0.456030 0.889964 0.000000
vn -0.456030 0.889964 0.000000
vn -0.456030 0.889964 0.000000
vn -0.456030 0.889964 0.000000
vn -0.895580 0.444901 0.000000
vn -0.895580 0.444901 0.000000
vn -0.895580 0.444901 0.000000
vn -0.895580 0.444901 0.000000
vn -0.017571 0.999846 0.000000
vn -0.017571 0.999846 0.000000
vn -0.017571 0.999846 0.000000
vn -0.017571 0.999846 0.000000
vn -0.518637 0.854995 0.000000
vn -0.518637 0.854995 0.000000
vn -0.518637 0.854995 0.000000
vn -0.518637 0.854995 0.000000
s off
g polySurface138 polySurface175 polySurface183 polySurface184 polySurface185 polySurface1
usemtl texturedFacets24
f 1/1/1 6/4/2 7/3/3 2/2/4
f 2/2/5 7/3/6 8/6/7 3/5/8
f 3/5/9 8/6/10 9/8/11 4/7/12
f 4/7/13 9/8/14 10/10/15 5/9/16
f 7/3/17 11/12/18 12/11/19 8/6/20
f 13/13/21 14/14/22 18/15/23 19/16/24
f 14/14/25 15/17/26 20/18/27 18/15/28
f 15/17/29 16/19/30 21/20/31 20/18/32
f 16/19/33 17/21/34 22/22/35 21/20/36
f 18/15/37 20/18/38 23/23/39 24/24/40
f 6/25/41 19/28/42 18/27/43 7/26/44
f 7/26/45 18/27/46 24/30/47 11/29/48
f 8/31/49 20/34/50 21/33/51 9/32/52
f 12/35/53 23/36/54 20/34/55 8/31/56
f 9/32/57 21/33/58 22/38/59 10/37/60
f 11/29/61 24/30/62 23/36/63 12/35/64
