# This file uses centimeters as units for non-parametric coordinates.

mtllib hole2.mtl
g default
v 2.466293 1.924999 21.651356
v 2.466293 0.728000 21.651356
v 3.432877 1.924999 21.651356
v 3.432877 0.728000 21.651356
v 2.709930 1.837537 21.651356
v 3.238018 1.627208 21.651356
v 2.890621 0.915309 21.651356
v 3.129623 1.075197 21.651356
v 2.665092 1.233173 21.651356
v 3.295025 1.082153 21.651356
v 2.754341 1.761735 21.567717
v 2.716869 1.256722 21.567717
v 2.905323 0.991111 21.567715
v 3.105034 1.124715 21.567715
v 3.195614 1.585982 21.567715
v 3.243244 1.130528 21.567715
vt 0.993786 1.000000
vt 0.003977 1.000000
vt 0.253469 0.926932
vt 0.775549 0.791259
vt 0.003977 0.000000
vt 0.438501 0.156482
vt 0.207552 0.422033
vt 0.683247 0.290056
vt 0.993786 0.000000
vt 0.852623 0.295868
vt 0.260576 0.441706
vt 0.298946 0.863605
vt 0.658069 0.331425
vt 0.453555 0.219809
vt 0.732127 0.756817
vt 0.799599 0.336281
vn -0.000005 0.000000 1.000000
vn 0.000002 0.000000 1.000000
vn 0.000002 0.000000 1.000000
vn -0.000005 0.000000 1.000000
vn 0.000002 0.000000 1.000000
vn 0.000002 0.000000 1.000000
vn 0.000002 0.000000 1.000000
vn -0.000006 0.000000 1.000000
vn -0.000008 0.000000 1.000000
vn -0.000013 0.000000 1.000000
vn 0.856446 -0.063543 0.512311
vn 0.801145 0.218036 0.557339
vn 0.801145 0.218036 0.557339
vn 0.856446 -0.063543 0.512311
vn -0.465028 0.695116 0.548236
vn -0.465028 0.695116 0.548236
vn -0.465028 0.695116 0.548236
vn -0.465028 0.695116 0.548236
vn -0.869422 -0.090929 0.485631
vn -0.869422 -0.090929 0.485631
vn -0.869422 -0.090929 0.485631
vn -0.869422 -0.090929 0.485631
vn -0.310878 -0.780535 0.542328
vn -0.310878 -0.780535 0.542328
vn -0.310878 -0.780535 0.542328
vn -0.310878 -0.780535 0.542328
vn 0.678249 0.481218 0.555344
vn 0.678249 0.481218 0.555344
vn -0.035958 0.855275 0.516925
vn -0.035958 0.855275 0.516925
vn -0.035958 0.855275 0.516925
vn -0.035958 0.855275 0.516925
s 1
g polySurface154
usemtl lambert20SG
f 3/1/1 1/2/2 5/3/3 6/4/4
f 2/5/5 7/6/6 9/7/7
f 8/8/8 7/6/6 2/5/5 4/9/9
f 4/9/9 3/1/1 6/4/4 10/10/10
f 1/2/2 2/5/5 9/7/7 5/3/3
f 4/9/9 10/10/10 8/8/8
s 2
f 5/3/11 9/7/12 12/11/13 11/12/14
s off
f 7/6/15 8/8/16 14/13/17 13/14/18
f 10/10/19 6/4/20 15/15/21 16/16/22
f 6/4/23 5/3/24 11/12/25 15/15/26
s 2
f 9/7/12 7/6/27 13/14/28 12/11/13
s off
f 8/8/29 10/10/30 16/16/31 14/13/32
