# This file uses centimeters as units for non-parametric coordinates.

mtllib wall_hole1.mtl
g default
v 2.669592 0.500000 2.608860
v 2.669592 -0.500000 2.608860
v 3.669592 0.500000 2.608860
v 3.669592 -0.500000 2.608860
v 2.896195 0.382854 2.618502
v 3.059741 -0.219888 2.618502
v 3.285376 -0.311421 2.618502
v 3.421549 0.181947 2.618502
v 3.204001 0.352750 2.618502
v 3.336258 0.500000 2.608860
v 3.002925 0.500000 2.608860
v 3.336258 -0.500000 2.608860
v 3.124729 -0.452662 2.618502
v 3.002925 -0.500000 2.608860
v 3.669592 -0.166667 2.608860
v 3.669592 0.166667 2.608860
v 2.933851 -0.158939 2.618502
v 2.669592 -0.166667 2.608860
v 2.827410 0.140653 2.618502
v 2.669592 0.166667 2.608860
v 2.969200 0.076974 2.591277
v 2.990776 -0.027463 2.565713
v 3.151316 -0.113962 2.525154
v 3.222349 -0.187323 2.499604
v 3.093257 0.129175 2.585732
v 3.210549 0.110343 2.565713
v 3.256012 -0.101585 2.513610
v 3.090945 -0.117186 2.532659
vt 0.046584 0.385421
vt 0.046584 0.082300
vt 0.401371 0.337024
vt 0.286891 0.392449
vt 0.652826 0.082300
vt 0.955948 0.082300
vt 0.606556 0.253787
vt 0.955948 0.688543
vt 0.955948 0.991664
vt 0.730387 0.702439
vt 0.349705 0.991664
vt 0.046584 0.991664
vt 0.252648 0.885136
vt 0.532556 0.857760
vt 0.652826 0.991664
vt 0.349705 0.082300
vt 0.460469 0.125347
vt 0.955948 0.385421
vt 0.046584 0.688543
vt 0.190098 0.664887
vt 0.338657 0.512008
vt 0.319036 0.606979
vt 0.549241 0.366637
vt 0.484646 0.433349
vt 0.431849 0.654449
vt 0.538511 0.637324
vt 0.579853 0.444604
vt 0.429747 0.430418
vn -0.035906 -0.007990 0.999323
vn -0.021904 -0.019504 0.999570
vn -0.021904 -0.019504 0.999570
vn -0.035906 -0.007990 0.999323
vn 0.012735 -0.070077 0.997460
vn 0.013378 -0.027747 0.999525
vn 0.017415 -0.048207 0.998686
vn 0.038846 0.000000 0.999245
vn 0.024552 0.016528 0.999562
vn 0.028677 0.007162 0.999563
vn 0.001847 0.072019 0.997402
vn -0.022161 0.042254 0.998861
vn -0.022161 0.042254 0.998861
vn 0.004648 0.059039 0.998245
vn 0.005124 0.049203 0.998776
vn 0.003747 -0.059943 0.998195
vn 0.003747 -0.059943 0.998195
vn 0.032797 -0.002203 0.999460
vn -0.046976 -0.000999 0.998896
vn -0.046976 -0.000999 0.998896
vn 0.147437 -0.092701 0.984718
vn 0.302320 0.034974 0.952565
vn 0.302320 0.034974 0.952565
vn 0.147437 -0.092701 0.984718
vn 0.556913 0.179769 0.810883
vn 0.556913 0.179769 0.810883
vn 0.556913 0.179769 0.810883
vn 0.556913 0.179769 0.810883
vn -0.022210 -0.164282 0.986163
vn 0.018584 -0.113882 0.993320
vn 0.018584 -0.113882 0.993320
vn -0.022210 -0.164282 0.986163
vn -0.062909 -0.213983 0.974810
vn -0.062909 -0.213983 0.974810
vn -0.543353 0.420305 0.726712
vn -0.557117 0.219304 0.800953
vn -0.557117 0.219304 0.800953
vn -0.543353 0.420305 0.726712
vn -0.545196 0.008193 0.838268
vn -0.545196 0.008193 0.838268
vn 0.213530 0.587525 0.780525
vn 0.213530 0.587525 0.780525
vn 0.213530 0.587525 0.780525
vn 0.213530 0.587525 0.780525
vn 0.444710 0.161203 0.881048
vn 0.444710 0.161203 0.881048
vn 0.131645 -0.209945 0.968810
vn 0.131645 -0.209945 0.968810
vn 0.131645 -0.209945 0.968810
vn 0.131645 -0.209945 0.968810
vn 0.131645 -0.209947 0.968809
vn 0.131645 -0.209947 0.968809
vn 0.131645 -0.209947 0.968809
vn 0.131645 -0.209947 0.968809
vn 0.131644 -0.209945 0.968810
vn 0.131644 -0.209945 0.968810
vn 0.131644 -0.209945 0.968810
vn 0.131644 -0.209945 0.968810
s 1
g pPlane5
usemtl lambert5SG
f 18/1/1 2/2/2 6/3/3 17/4/4
f 12/5/5 4/6/6 7/7/7
f 16/8/8 3/9/9 8/10/10
f 11/11/11 1/12/12 5/13/13 9/14/14
f 3/9/9 10/15/15 9/14/14 8/10/10
f 10/15/15 11/11/11 9/14/14
f 14/16/16 12/5/5 7/7/7 13/17/17
f 2/2/2 14/16/16 13/17/17 6/3/3
f 4/6/6 15/18/18 8/10/10 7/7/7
f 15/18/18 16/8/8 8/10/10
f 20/19/19 18/1/1 17/4/4 19/20/20
f 1/12/12 20/19/19 19/20/20 5/13/13
s 2
f 5/13/21 19/20/22 22/21/23 21/22/24
s off
f 6/3/25 13/17/26 24/23/27 23/24/28
s 4
f 9/14/29 5/13/30 21/22/31 25/25/32
f 8/10/33 9/14/29 25/25/32 26/26/34
s 5
f 13/17/35 7/7/36 27/27/37 24/23/38
f 7/7/36 8/10/39 26/26/40 27/27/37
s off
f 17/4/41 6/3/42 23/24/43 28/28/44
s 2
f 19/20/22 17/4/45 28/28/46 22/21/23
s off
f 26/26/47 23/24/48 24/23/49 27/27/50
f 22/21/51 28/28/52 25/25/53 21/22/54
f 25/25/55 28/28/56 23/24/57 26/26/58
