# This file uses centimeters as units for non-parametric coordinates.

mtllib window2.mtl
g default
v -0.501143 0.498407 2.009614
v -0.501143 -0.501593 2.009614
v 0.498857 0.498407 2.009614
v 0.498857 -0.501593 2.009614
v -0.183555 0.408773 2.009614
v -0.183555 -0.158424 2.009614
v 0.181270 -0.158424 2.009614
v 0.181270 0.408773 2.009614
v -0.396260 0.432310 1.714452
v -0.396260 -0.181962 1.714452
v 0.393975 -0.181962 1.714452
v 0.393975 0.432310 1.714452
v -0.180662 0.404275 2.028653
v -0.180662 -0.153927 2.028653
v -0.153920 -0.135658 2.028653
v -0.153920 0.386006 2.028653
v 0.178377 -0.153927 2.028653
v 0.151634 -0.135658 2.028653
v 0.178377 0.404275 2.028653
v 0.151634 0.386006 2.028653
v -0.144281 0.388876 2.009614
v -0.099599 0.267912 2.009614
v -0.090056 0.321196 2.009614
v -0.076824 0.296778 2.009614
v -0.073618 0.365185 2.009614
v -0.051456 0.387375 2.009614
v 0.161474 -0.142562 2.009614
v 0.081311 0.077175 2.009614
v 0.063594 -0.019455 2.009614
v 0.039768 0.024927 2.009614
v 0.033435 -0.099179 2.009614
v -0.006943 -0.139317 2.009614
v 0.172570 0.127902 2.009614
v 0.102765 0.299988 2.009614
v 0.091561 0.223165 2.009614
v 0.038789 0.257757 2.009614
v 0.086189 0.157678 2.009614
v 0.074009 0.085294 2.009614
v -0.169525 0.160097 2.028043
v -0.180138 0.128594 2.008827
v -0.170083 0.161944 2.023900
v -0.180696 0.130440 2.004684
v 0.099148 0.121754 1.957339
v 0.088535 0.090251 1.938123
v 0.099706 0.119908 1.961482
v 0.089093 0.088405 1.942266
v -0.036620 0.092129 2.083693
v -0.074623 0.092387 2.064477
v -0.034713 0.093094 2.079550
v -0.072716 0.093352 2.060334
v -0.006367 -0.141506 2.012989
v -0.044370 -0.141248 1.993773
v -0.008274 -0.142472 2.017132
v -0.046277 -0.142213 1.997916
v -0.233657 -0.165532 2.077259
v 0.233657 -0.165532 2.077259
v -0.233657 -0.145679 2.077259
v 0.233657 -0.145679 2.077259
v -0.233657 -0.133725 1.998785
v 0.233657 -0.133725 1.998785
v -0.233657 -0.176763 1.998785
v 0.233657 -0.176763 1.998785
vt 0.799201 0.920664
vt 0.812560 0.921079
vt 0.812188 0.927083
vt 0.799121 0.926587
vt 0.010478 0.990215
vt 0.010468 0.332870
vt 0.218769 0.554149
vt 0.218772 0.931603
vt 0.010468 0.332870
vt 0.667831 0.332911
vt 0.459600 0.554224
vt 0.218769 0.554149
vt 0.667831 0.332911
vt 0.667923 0.990372
vt 0.459457 0.931477
vt 0.459600 0.554224
vt 0.667923 0.990372
vt 0.010478 0.990215
vt 0.218772 0.931603
vt 0.459457 0.931477
vt 0.522564 0.017631
vt 0.957327 0.026682
vt 0.941952 0.047300
vt 0.536940 0.038502
vt 0.947536 0.320224
vt 0.933743 0.298677
vt 0.512259 0.298984
vt 0.528177 0.279223
vt 0.844708 0.121280
vt 0.630167 0.114616
vt 0.838723 0.217694
vt 0.510258 0.005559
vt 0.961953 0.011792
vt 0.950578 0.335324
vt 0.499665 0.310537
vt 0.628887 0.209742
vt 0.229089 0.909310
vt 0.258460 0.829796
vt 0.264733 0.864822
vt 0.275539 0.893737
vt 0.290106 0.908323
vt 0.273431 0.848770
vt 0.316005 0.594490
vt 0.275665 0.705068
vt 0.266749 0.656441
vt 0.251572 0.616321
vt 0.231252 0.596123
vt 0.254759 0.678775
vt 0.452749 0.601511
vt 0.406864 0.714629
vt 0.399499 0.664131
vt 0.395968 0.621084
vt 0.387962 0.573504
vt 0.364810 0.686869
vt 0.795098 0.422062
vt 0.791934 0.420530
vt 0.851689 0.410417
vt 0.854853 0.411949
vt 0.787421 0.916776
vt 0.790586 0.918308
vt 0.850341 0.908195
vt 0.847176 0.906663
vt 0.942149 0.873684
vt 0.946356 0.875024
vt 0.868945 0.888074
vt 0.864739 0.886735
vt 0.926847 0.387287
vt 0.922641 0.385947
vt 0.845231 0.398997
vt 0.849436 0.400337
vt 0.104320 0.267733
vt 0.350535 0.270709
vt 0.354415 0.286425
vt 0.101094 0.284027
vt 0.392025 0.298738
vt 0.063393 0.299019
vt 0.062887 0.253995
vt 0.391938 0.253397
vn 0.000000 0.000000 1.000000
vn 0.000000 0.000000 1.000000
vn 0.000000 0.000000 1.000000
vn 0.000000 0.000000 1.000000
vn -0.000000 0.000000 1.000000
vn -0.000000 0.000000 1.000000
vn -0.000000 0.000000 1.000000
vn -0.000000 0.000000 1.000000
vn 0.000000 0.000000 1.000000
vn 0.000000 0.000000 1.000000
vn 0.000000 0.000000 1.000000
vn 0.000000 0.000000 1.000000
vn -0.000000 0.000000 1.000000
vn -0.000000 0.000000 1.000000
vn -0.000000 0.000000 1.000000
vn -0.000000 0.000000 1.000000
vn 0.000002 0.000000 1.000000
vn 0.000002 0.000000 1.000000
vn 0.000002 0.000000 1.000000
vn 0.000002 0.000000 1.000000
vn 0.791834 0.000000 -0.610736
vn 0.791834 0.000000 -0.610736
vn 0.791834 0.000000 -0.610736
vn 0.791834 0.000000 -0.610736
vn 0.000000 0.989315 -0.145796
vn 0.000000 0.989315 -0.145796
vn 0.000000 0.989315 -0.145796
vn 0.000000 0.989315 -0.145796
vn -0.988652 0.000000 0.150223
vn -0.988652 0.000000 0.150223
vn -0.988652 0.000000 0.150223
vn -0.988652 0.000000 0.150223
vn 0.988652 0.000000 0.150222
vn 0.988652 0.000000 0.150222
vn 0.988652 0.000000 0.150222
vn 0.988652 0.000000 0.150222
vn -0.791834 0.000000 -0.610736
vn -0.791834 0.000000 -0.610736
vn -0.791834 0.000000 -0.610736
vn -0.791834 0.000000 -0.610736
vn 0.000000 0.973215 0.229898
vn 0.000000 0.973215 0.229898
vn 0.000000 0.973215 0.229898
vn 0.000000 0.973215 0.229898
vn 0.000000 -0.989315 -0.145796
vn 0.000000 -0.989315 -0.145796
vn 0.000000 -0.989315 -0.145796
vn 0.000000 -0.989315 -0.145796
vn 0.000000 0.000000 1.000000
vn 0.000000 0.000000 1.000000
vn 0.000000 0.000000 1.000000
vn 0.000000 0.000000 1.000000
vn 0.000000 0.000000 1.000000
vn 0.000000 0.000000 1.000000
vn 0.000030 0.000000 1.000000
vn 0.000030 0.000000 1.000000
vn 0.000030 0.000000 1.000000
vn 0.000004 0.000000 1.000000
vn 0.000004 0.000000 1.000000
vn 0.000004 0.000000 1.000000
vn 0.000003 0.000000 1.000000
vn 0.000003 0.000000 1.000000
vn 0.000003 0.000000 1.000000
vn -0.000001 0.000000 1.000000
vn -0.000001 0.000000 1.000000
vn -0.000001 0.000000 1.000000
vn 0.000000 0.000000 1.000000
vn 0.000000 0.000000 1.000000
vn 0.000000 0.000000 1.000000
vn -0.000001 0.000000 1.000000
vn -0.000001 0.000000 1.000000
vn -0.000001 0.000000 1.000000
vn 0.000000 0.000000 1.000000
vn 0.000000 0.000000 1.000000
vn 0.000000 0.000000 1.000000
vn 0.000002 0.000000 1.000000
vn 0.000002 0.000000 1.000000
vn 0.000002 0.000000 1.000000
vn 0.000000 0.000000 1.000000
vn 0.000000 0.000000 1.000000
vn 0.000000 0.000000 1.000000
vn 0.000001 0.000000 1.000000
vn 0.000001 0.000000 1.000000
vn 0.000001 0.000000 1.000000
vn -0.957714 0.191819 0.214451
vn -0.957714 0.191819 0.214451
vn -0.957714 0.191819 0.214451
vn -0.957714 0.191819 0.214451
vn 0.957715 -0.191829 -0.214439
vn 0.957715 -0.191829 -0.214439
vn 0.957715 -0.191829 -0.214439
vn 0.957715 -0.191829 -0.214439
vn 0.123158 -0.546681 0.828235
vn 0.123158 -0.546681 0.828235
vn 0.123158 -0.546681 0.828235
vn 0.123158 -0.546681 0.828235
vn -0.226145 -0.900728 -0.370873
vn -0.226145 -0.900728 -0.370873
vn -0.226145 -0.900728 -0.370873
vn -0.226145 -0.900728 -0.370873
vn -0.088097 0.978330 0.187377
vn -0.088097 0.978330 0.187377
vn -0.088097 0.978330 0.187377
vn -0.088097 0.978330 0.187377
vn 0.088094 -0.978332 -0.187368
vn 0.088094 -0.978332 -0.187368
vn 0.088094 -0.978332 -0.187368
vn 0.088094 -0.978332 -0.187368
vn -0.432875 -0.294073 0.852139
vn -0.432875 -0.294073 0.852139
vn -0.432875 -0.294073 0.852139
vn -0.432875 -0.294073 0.852139
vn -0.909145 0.008293 -0.416396
vn -0.909145 0.008293 -0.416396
vn -0.909145 0.008293 -0.416396
vn -0.909145 0.008293 -0.416396
vn 0.909141 -0.008293 0.416406
vn 0.909141 -0.008293 0.416406
vn 0.909141 -0.008293 0.416406
vn 0.909141 -0.008293 0.416406
vn 0.000000 0.000000 1.000000
vn 0.000000 0.000000 1.000000
vn 0.000000 0.000000 1.000000
vn 0.000000 0.000000 1.000000
vn 0.000000 0.988595 0.150598
vn 0.000000 0.988595 0.150598
vn 0.000000 0.988595 0.150598
vn 0.000000 0.988595 0.150598
vn 0.000000 -0.989913 0.141680
vn 0.000000 -0.989913 0.141680
vn 0.000000 -0.989913 0.141680
vn 0.000000 -0.989913 0.141680
vn 1.000000 0.000000 0.000000
vn 1.000000 0.000000 0.000000
vn 1.000000 0.000000 0.000000
vn 1.000000 0.000000 0.000000
vn -1.000000 0.000000 0.000000
vn -1.000000 0.000000 0.000000
vn -1.000000 0.000000 0.000000
vn -1.000000 0.000000 0.000000
s off
g polySurface42
usemtl lambert6SG
f 9/1/1 10/2/2 11/3/3 12/4/4
s 2
f 1/5/5 2/6/6 6/7/7 5/8/8
f 2/9/6 4/10/9 7/11/10 6/12/7
f 4/13/9 3/14/11 8/15/12 7/16/10
f 3/17/11 1/18/5 5/19/8 8/20/12
s 3
f 13/21/13 14/22/14 15/23/15 16/24/16
f 14/22/14 17/25/17 18/26/18 15/23/15
f 17/25/17 19/27/19 20/28/20 18/26/18
f 19/27/19 13/21/13 16/24/16 20/28/20
s off
f 10/29/21 9/30/22 16/24/23 15/23/24
f 11/31/25 10/29/26 15/23/27 18/26/28
f 5/32/29 6/33/30 14/22/31 13/21/32
f 7/34/33 8/35/34 19/27/35 17/25/36
f 11/31/37 18/26/38 20/28/39 12/36/40
f 8/35/41 5/32/42 13/21/43 19/27/44
f 12/36/45 20/28/46 16/24/47 9/30/48
f 21/37/49 22/38/50 23/39/51
f 21/37/52 25/40/53 26/41/54
f 25/40/55 23/39/56 24/42/57
f 21/37/58 23/39/59 25/40/60
f 27/43/61 28/44/62 29/45/63
f 27/43/64 31/46/65 32/47/66
f 31/46/67 29/45/68 30/48/69
f 27/43/70 29/45/71 31/46/72
f 33/49/73 34/50/74 35/51/75
f 33/49/76 37/52/77 38/53/78
f 37/52/79 35/51/80 36/54/81
f 33/49/82 35/51/83 37/52/84
f 39/55/85 41/56/86 42/57/87 40/58/88
f 43/59/89 45/60/90 46/61/91 44/62/92
f 45/60/93 39/55/94 40/58/95 46/61/96
f 40/58/97 42/57/98 44/62/99 46/61/100
f 47/63/101 49/64/102 50/65/103 48/66/104
f 51/67/105 53/68/106 54/69/107 52/70/108
f 53/68/109 47/63/110 48/66/111 54/69/112
f 48/66/113 50/65/114 52/70/115 54/69/116
f 53/68/117 51/67/118 49/64/119 47/63/120
f 55/71/121 56/72/122 58/73/123 57/74/124
f 57/74/125 58/73/126 60/75/127 59/76/128
f 61/77/129 62/78/130 56/72/131 55/71/132
f 56/72/133 62/78/134 60/75/135 58/73/136
f 61/77/137 55/71/138 57/74/139 59/76/140
