# This file uses centimeters as units for non-parametric coordinates.

mtllib column_4.mtl
g default
v -0.090566 2.000000 0.090565
v 0.090566 2.000000 0.090565
v -0.090566 2.000000 -0.090565
v 0.090566 2.000000 -0.090565
v 0.000000 2.000000 -0.130304
v 0.130304 2.000000 0.000000
v 0.000000 2.000000 0.130304
v -0.130304 2.000000 0.000000
v -0.090566 -0.000000 -0.090565
v -0.130304 -0.000000 0.000000
v 0.000000 -0.000000 -0.130304
v 0.090566 -0.000000 -0.090565
v 0.130304 -0.000000 0.000000
v 0.090566 -0.000000 0.090565
v 0.000000 -0.000000 0.130304
v -0.090566 -0.000000 0.090565
vt 0.000032 1.000000
vt -0.249968 1.000000
vt -0.249968 -0.000000
vt 0.000032 -0.000000
vt -0.499968 1.000000
vt -0.499968 -0.000000
vt 1.250032 1.000000
vt 1.000032 1.000000
vt 1.000032 -0.000000
vt 0.750032 1.000000
vt 0.750032 -0.000000
vt 0.500032 1.000000
vt 0.500032 -0.000000
vt 0.250032 1.000000
vt 0.250032 -0.000000
vt 1.500032 1.000000
vt 1.250032 -0.000000
vt 1.500032 -0.000000
vn -1.000000 0.000000 0.000000
vn -0.707107 0.000000 -0.707107
vn -0.707107 0.000000 -0.707107
vn -1.000000 0.000000 0.000000
vn 0.000000 0.000000 -1.000000
vn 0.000000 0.000000 -1.000000
vn 0.707107 0.000000 -0.707106
vn 0.707107 0.000000 -0.707106
vn 1.000000 0.000000 0.000000
vn 1.000000 0.000000 0.000000
vn 0.707107 0.000000 0.707106
vn 0.707107 0.000000 0.707106
vn 0.000000 0.000000 1.000000
vn 0.000000 0.000000 1.000000
vn -0.707107 0.000000 0.707107
vn -0.707107 0.000000 0.707107
g column_4
usemtl lambert2SG
f 8/1/1 3/2/2 9/3/3 10/4/4
f 3/2/2 5/5/5 11/6/6 9/3/3
f 5/16/5 4/7/7 12/17/8 11/18/6
f 4/7/7 6/8/9 13/9/10 12/17/8
f 6/8/9 2/10/11 14/11/12 13/9/10
f 2/10/11 7/12/13 15/13/14 14/11/12
f 7/12/13 1/14/15 16/15/16 15/13/14
f 1/14/15 8/1/1 10/4/4 16/15/16
