# This file uses centimeters as units for non-parametric coordinates.

mtllib column_6.mtl
g default
v -0.165649 1.991616 0.165649
v -0.234263 1.991616 -0.000000
v -0.165649 1.991616 -0.165649
v -0.000000 1.991616 -0.234263
v 0.165649 1.991616 -0.165649
v 0.234263 1.991616 -0.000000
v 0.165649 1.991616 0.165649
v 0.000000 1.991616 0.234263
v -0.157454 1.951895 0.157454
v -0.222674 1.951895 -0.000000
v -0.157454 1.951895 -0.157454
v -0.000000 1.951895 -0.222674
v 0.157454 1.951895 -0.157454
v 0.222674 1.951895 -0.000000
v 0.157454 1.951895 0.157454
v 0.000000 1.951895 0.222674
v -0.097801 1.908306 0.097801
v -0.138311 1.908306 -0.000000
v -0.097801 1.908306 -0.097801
v -0.000000 1.908306 -0.138311
v 0.097801 1.908306 -0.097801
v 0.138311 1.908306 -0.000000
v 0.097801 1.908306 0.097801
v 0.000000 1.908306 0.138311
v -0.106668 1.882567 0.106668
v -0.150852 1.882567 -0.000000
v -0.106668 1.882567 -0.106668
v -0.000000 1.882567 -0.150852
v 0.106668 1.882567 -0.106668
v 0.150852 1.882567 -0.000000
v 0.106668 1.882567 0.106668
v 0.000000 1.882567 0.150852
v -0.060924 1.855979 0.060924
v -0.086159 1.855979 -0.000000
v -0.060924 1.855979 -0.060924
v -0.000000 1.855979 -0.086159
v 0.060924 1.855979 -0.060924
v 0.086159 1.855979 -0.000000
v 0.060924 1.855979 0.060924
v 0.000000 1.855979 0.086159
v -0.091569 0.147771 0.091569
v -0.129499 0.147771 -0.000000
v -0.091569 0.147771 -0.091569
v -0.000000 0.147771 -0.129499
v 0.091569 0.147771 -0.091569
v 0.129499 0.147771 -0.000000
v 0.091569 0.147771 0.091569
v 0.000000 0.147771 0.129499
v -0.134031 0.128409 0.134031
v -0.189549 0.128409 -0.000000
v -0.134031 0.128409 -0.134031
v -0.000000 0.128409 -0.189549
v 0.134031 0.128409 -0.134031
v 0.189549 0.128409 -0.000000
v 0.134031 0.128409 0.134031
v 0.000000 0.128409 0.189549
v -0.117778 0.095222 0.117778
v -0.166563 0.095222 -0.000000
v -0.117778 0.095222 -0.117778
v -0.000000 0.095222 -0.166563
v 0.117778 0.095222 -0.117778
v 0.166563 0.095222 -0.000000
v 0.117778 0.095222 0.117778
v 0.000000 0.095222 0.166563
v -0.162553 0.078530 0.162553
v -0.229885 0.078530 -0.000000
v -0.162553 0.078530 -0.162553
v -0.000000 0.078530 -0.229885
v 0.162553 0.078530 -0.162553
v 0.229885 0.078530 -0.000000
v 0.162553 0.078530 0.162553
v 0.000000 0.078530 0.229885
v -0.185582 0.000000 0.185582
v -0.262453 0.000000 -0.000000
v -0.185582 0.000000 -0.185582
v -0.000000 0.000000 -0.262453
v 0.185582 0.000000 -0.185582
v 0.262453 0.000000 -0.000000
v 0.185582 0.000000 0.185582
v 0.000000 0.000000 0.262453
vt 0.250032 1.000000
vt 0.000032 1.000000
vt 0.000032 0.980056
vt 0.250032 0.980056
vt -0.249968 1.000000
vt -0.249968 0.980056
vt -0.499968 1.000000
vt -0.499968 0.980056
vt 1.250032 1.000000
vt 1.000032 1.000000
vt 1.000032 0.980056
vt 0.750032 1.000000
vt 0.750032 0.980056
vt 0.500032 1.000000
vt 0.500032 0.980056
vt 0.000032 0.958169
vt 0.250032 0.958169
vt -0.249968 0.958169
vt -0.499968 0.958169
vt 1.000032 0.958169
vt 0.750032 0.958169
vt 0.500032 0.958169
vt 0.000032 0.945246
vt 0.250032 0.945246
vt -0.249968 0.945246
vt -0.499968 0.945246
vt 1.000032 0.945246
vt 0.750032 0.945246
vt 0.500032 0.945246
vt 0.000032 0.931896
vt 0.250032 0.931896
vt -0.249968 0.931896
vt -0.499968 0.931896
vt 1.000032 0.931896
vt 0.750032 0.931896
vt 0.500032 0.931896
vt 0.000032 0.074196
vt 0.250032 0.074196
vt -0.249968 0.074196
vt -0.499968 0.074196
vt 1.000032 0.074196
vt 0.750032 0.074196
vt 0.500032 0.074196
vt 0.250032 1.354216
vt 0.000032 1.354216
vt 0.000032 1.404155
vt 0.250032 1.404155
vt -0.249968 1.354216
vt -0.249968 1.404155
vt -0.499968 1.354216
vt -0.499968 1.404155
vt 1.000032 1.354216
vt 1.000032 1.404155
vt 0.750032 1.354216
vt 0.750032 1.404155
vt 0.000032 0.039430
vt 0.250032 0.039430
vt -0.249968 0.039430
vt -0.499968 0.039430
vt 1.000032 0.039430
vt 0.750032 0.039430
vt 0.500032 0.039430
vt 0.000032 0.000000
vt 0.250032 0.000000
vt -0.249968 0.000000
vt -0.499968 0.000000
vt 1.000032 0.000000
vt 0.750032 0.000000
vt 0.500032 0.000000
vt 1.500032 1.000000
vt 1.500032 0.980056
vt 1.250032 0.980056
vt 1.500032 0.958169
vt 1.250032 0.958169
vt 1.500032 0.945246
vt 1.250032 0.945246
vt 1.500032 0.931896
vt 1.250032 0.931896
vt 1.500032 0.074196
vt 1.250032 0.074196
vt 0.500032 1.354216
vt 0.500032 1.404155
vt 0.250032 1.392638
vt 0.000032 1.392638
vt 1.500032 0.039430
vt 1.250032 0.039430
vt 1.250032 0.000000
vt 1.500032 0.000000
vt 0.000032 1.436389
vt 0.250032 1.436389
vt -0.249968 1.392638
vt -0.249968 1.436389
vt -0.499968 1.392638
vt -0.499968 1.436389
vt 1.000032 1.392638
vt 1.000032 1.436389
vt 0.750032 1.392638
vt 0.750032 1.436389
vt 0.500032 1.392638
vt 0.500032 1.436389
vt 0.250032 -0.403616
vt 0.000032 -0.403616
vt 0.000032 -0.363151
vt 0.250032 -0.363151
vt -0.249968 -0.403616
vt -0.249968 -0.363151
vt -0.499968 -0.403616
vt -0.499968 -0.363151
vt 1.000032 -0.403616
vt 1.000032 -0.363151
vt 0.750032 -0.403616
vt 0.750032 -0.363151
vt 0.500032 -0.403616
vt 0.500032 -0.363151
vt 0.000032 -0.383669
vt 0.250032 -0.383669
vt -0.249968 -0.383669
vt -0.499968 -0.383669
vt 1.000032 -0.383669
vt 0.750032 -0.383669
vt 0.500032 -0.383669
vt 0.000032 -0.343797
vt 0.250032 -0.343797
vt -0.249968 -0.343797
vt -0.499968 -0.343797
vt 1.000032 -0.343797
vt 0.750032 -0.343797
vt 0.500032 -0.343797
vt 1.500032 1.354216
vt 1.250032 1.354216
vt 1.250032 1.404155
vt 1.500032 1.404155
vt 1.500032 1.392638
vt 1.250032 1.392638
vt 1.250032 1.436389
vt 1.500032 1.436389
vt 1.500032 -0.403616
vt 1.250032 -0.403616
vt 1.500032 -0.363151
vt 1.250032 -0.363151
vt 1.500032 -0.383669
vt 1.250032 -0.383669
vt 1.250032 -0.343797
vt 1.500032 -0.343797
vn -0.678804 -0.280088 0.678805
vn -0.959974 -0.280089 0.000000
vn -0.764322 -0.644835 -0.000000
vn -0.540457 -0.644834 0.540458
vn -0.678804 -0.280088 -0.678805
vn -0.540457 -0.644834 -0.540458
vn 0.000000 -0.280088 -0.959974
vn 0.000000 -0.644834 -0.764322
vn 0.678804 -0.280088 -0.678805
vn 0.540457 -0.644834 -0.540458
vn 0.959974 -0.280089 -0.000000
vn 0.764322 -0.644835 0.000000
vn 0.678804 -0.280088 0.678805
vn 0.540457 -0.644834 0.540458
vn -0.000000 -0.280088 0.959974
vn -0.000000 -0.644834 0.764322
vn -0.941658 -0.336570 -0.000000
vn -0.665853 -0.336571 0.665853
vn -0.665853 -0.336570 -0.665853
vn -0.000000 -0.336571 -0.941658
vn 0.665853 -0.336571 -0.665853
vn 0.941658 -0.336570 0.000000
vn 0.665853 -0.336570 0.665853
vn 0.000000 -0.336571 0.941658
vn -0.924231 -0.381835 -0.000000
vn -0.653530 -0.381835 0.653530
vn -0.653530 -0.381834 -0.653530
vn -0.000000 -0.381834 -0.924231
vn 0.653530 -0.381835 -0.653530
vn 0.924231 -0.381835 0.000000
vn 0.653530 -0.381834 0.653530
vn 0.000000 -0.381834 0.924231
vn -0.824907 -0.565269 0.000000
vn -0.583297 -0.565269 0.583297
vn -0.583297 -0.565269 -0.583297
vn 0.000000 -0.565268 -0.824907
vn 0.583297 -0.565269 -0.583297
vn 0.824907 -0.565269 -0.000000
vn 0.583297 -0.565269 0.583297
vn 0.000000 -0.565268 0.824907
vn -0.785478 0.618890 0.000000
vn -0.555417 0.618890 0.555417
vn -0.555417 0.618890 -0.555417
vn 0.000000 0.618890 -0.785478
vn 0.555417 0.618890 -0.555417
vn 0.785478 0.618890 -0.000000
vn 0.555417 0.618890 0.555417
vn 0.000000 0.618890 0.785478
vn -0.936561 0.350506 0.000000
vn -0.662248 0.350506 0.662248
vn -0.662248 0.350506 -0.662248
vn 0.000000 0.350506 -0.936561
vn 0.662248 0.350506 -0.662248
vn 0.936561 0.350506 -0.000000
vn 0.662248 0.350506 0.662248
vn 0.000000 0.350506 0.936561
vn -0.925366 0.379074 0.000000
vn -0.654333 0.379074 0.654333
vn -0.654333 0.379074 -0.654333
vn 0.000000 0.379074 -0.925366
vn 0.654333 0.379074 -0.654333
vn 0.925366 0.379074 -0.000000
vn 0.654333 0.379074 0.654333
vn 0.000000 0.379074 0.925366
vn -0.645871 0.763446 0.000000
vn -0.456700 0.763446 0.456700
vn -0.456700 0.763446 -0.456700
vn 0.000000 0.763446 -0.645871
vn 0.456700 0.763446 -0.456700
vn 0.645871 0.763446 0.000000
vn 0.456700 0.763446 0.456700
vn 0.000000 0.763446 0.645871
vn -0.923713 0.383084 0.000000
vn -0.653164 0.383084 0.653164
vn -0.653164 0.383084 -0.653164
vn 0.000000 0.383084 -0.923713
vn 0.653164 0.383084 -0.653164
vn 0.923713 0.383084 0.000000
vn 0.653164 0.383084 0.653164
vn 0.000000 0.383084 0.923713
g column_6
usemtl lambert2SG
f 1/1/1 2/2/2 10/3/3 9/4/4
f 2/2/2 3/5/5 11/6/6 10/3/3
f 3/5/5 4/7/7 12/8/8 11/6/6
f 4/70/7 5/9/9 13/72/10 12/71/8
f 5/9/9 6/10/11 14/11/12 13/72/10
f 6/10/11 7/12/13 15/13/14 14/11/12
f 7/12/13 8/14/15 16/15/16 15/13/14
f 8/14/15 1/1/1 9/4/4 16/15/16
f 9/44/4 10/45/3 18/46/17 17/47/18
f 10/45/3 11/48/6 19/49/19 18/46/17
f 11/48/6 12/50/8 20/51/20 19/49/19
f 12/129/8 13/130/10 21/131/21 20/132/20
f 13/130/10 14/52/12 22/53/22 21/131/21
f 14/52/12 15/54/14 23/55/23 22/53/22
f 15/54/14 16/81/16 24/82/24 23/55/23
f 16/81/16 9/44/4 17/47/18 24/82/24
f 17/17/18 18/16/17 26/23/25 25/24/26
f 18/16/17 19/18/19 27/25/27 26/23/25
f 19/18/19 20/19/20 28/26/28 27/25/27
f 20/73/20 21/74/21 29/76/29 28/75/28
f 21/74/21 22/20/22 30/27/30 29/76/29
f 22/20/22 23/21/23 31/28/31 30/27/30
f 23/21/23 24/22/24 32/29/32 31/28/31
f 24/22/24 17/17/18 25/24/26 32/29/32
f 25/83/26 26/84/25 34/89/33 33/90/34
f 26/84/25 27/91/27 35/92/35 34/89/33
f 27/91/27 28/93/28 36/94/36 35/92/35
f 28/133/28 29/134/29 37/135/37 36/136/36
f 29/134/29 30/95/30 38/96/38 37/135/37
f 30/95/30 31/97/31 39/98/39 38/96/38
f 31/97/31 32/99/32 40/100/40 39/98/39
f 32/99/32 25/83/26 33/90/34 40/100/40
f 33/31/34 34/30/33 42/37/41 41/38/42
f 34/30/33 35/32/35 43/39/43 42/37/41
f 35/32/35 36/33/36 44/40/44 43/39/43
f 36/77/36 37/78/37 45/80/45 44/79/44
f 37/78/37 38/34/38 46/41/46 45/80/45
f 38/34/38 39/35/39 47/42/47 46/41/46
f 39/35/39 40/36/40 48/43/48 47/42/47
f 40/36/40 33/31/34 41/38/42 48/43/48
f 41/101/42 42/102/41 50/103/49 49/104/50
f 42/102/41 43/105/43 51/106/51 50/103/49
f 43/105/43 44/107/44 52/108/52 51/106/51
f 44/137/44 45/138/45 53/140/53 52/139/52
f 45/138/45 46/109/46 54/110/54 53/140/53
f 46/109/46 47/111/47 55/112/55 54/110/54
f 47/111/47 48/113/48 56/114/56 55/112/55
f 48/113/48 41/101/42 49/104/50 56/114/56
f 49/104/50 50/103/49 58/115/57 57/116/58
f 50/103/49 51/106/51 59/117/59 58/115/57
f 51/106/51 52/108/52 60/118/60 59/117/59
f 52/139/52 53/140/53 61/142/61 60/141/60
f 53/140/53 54/110/54 62/119/62 61/142/61
f 54/110/54 55/112/55 63/120/63 62/119/62
f 55/112/55 56/114/56 64/121/64 63/120/63
f 56/114/56 49/104/50 57/116/58 64/121/64
f 57/116/58 58/115/57 66/122/65 65/123/66
f 58/115/57 59/117/59 67/124/67 66/122/65
f 59/117/59 60/118/60 68/125/68 67/124/67
f 60/141/60 61/142/61 69/143/69 68/144/68
f 61/142/61 62/119/62 70/126/70 69/143/69
f 62/119/62 63/120/63 71/127/71 70/126/70
f 63/120/63 64/121/64 72/128/72 71/127/71
f 64/121/64 57/116/58 65/123/66 72/128/72
f 65/57/66 66/56/65 74/63/73 73/64/74
f 66/56/65 67/58/67 75/65/75 74/63/73
f 67/58/67 68/59/68 76/66/76 75/65/75
f 68/85/68 69/86/69 77/87/77 76/88/76
f 69/86/69 70/60/70 78/67/78 77/87/77
f 70/60/70 71/61/71 79/68/79 78/67/78
f 71/61/71 72/62/72 80/69/80 79/68/79
f 72/62/72 65/57/66 73/64/74 80/69/80
