# This file uses centimeters as units for non-parametric coordinates.

mtllib column_9.mtl
g default
v -0.195054 0.000000 0.195054
v 0.195054 0.000000 0.195054
v -0.150000 0.499518 0.150000
v 0.150000 0.499518 0.150000
v -0.150000 0.499518 -0.150000
v 0.150000 0.499518 -0.150000
v -0.195054 0.000000 -0.195054
v 0.195054 0.000000 -0.195054
v -0.208081 0.477263 0.208081
v 0.208081 0.477263 0.208081
v -0.208081 0.477263 -0.208081
v 0.208081 0.477263 -0.208081
v -0.208081 0.022285 0.208081
v 0.208081 0.022285 0.208081
v -0.208081 0.022285 -0.208081
v 0.208081 0.022285 -0.208081
v -0.150000 2.138636 0.150000
v 0.150000 2.138636 0.150000
v 0.150000 2.138636 -0.150000
v -0.150000 2.138636 -0.150000
vt 0.557260 0.796747
vt 0.742515 0.796747
vt 0.742515 0.941514
vt 0.557260 0.941514
vt 0.221121 0.971973
vt 0.221121 0.827205
vt 0.256987 0.799178
vt 0.256987 1.000000
vt 0.000000 0.799178
vt 0.035866 0.827205
vt 0.000000 1.000000
vt 0.035866 0.971973
vt 0.743013 0.715683
vt 1.000000 0.715683
vt 1.000000 0.935237
vt 0.743013 0.935237
vt 0.991956 0.945991
vt 0.751057 0.945991
vt 0.743013 0.012754
vt 1.000000 0.012754
vt 1.000000 0.232308
vt 0.743013 0.232308
vt 0.751057 0.002000
vt 0.991956 0.002000
vt 0.743013 0.251098
vt 1.000000 0.251098
vt 1.000000 0.470652
vt 0.743013 0.470652
vt 0.751057 0.240344
vt 0.991956 0.240344
vt 0.743013 0.489441
vt 1.000000 0.489441
vt 1.000000 0.708995
vt 0.743013 0.708995
vt 0.751058 0.478688
vt 0.991956 0.478688
vt 0.000000 0.001102
vt 0.185255 0.001102
vt 0.185255 0.792072
vt 0.000000 0.792072
vt 0.185753 0.001102
vt 0.371009 0.001102
vt 0.371009 0.792072
vt 0.185753 0.792072
vt 0.556762 0.790970
vt 0.371506 0.790970
vt 0.371506 0.000000
vt 0.556762 0.000000
vt 0.557260 0.001102
vt 0.742515 0.001102
vt 0.742515 0.792072
vt 0.557260 0.792072
vn -0.544986 -0.637166 0.544986
vn 0.544986 -0.637166 0.544986
vn 0.660325 -0.357691 0.660325
vn -0.660325 -0.357690 0.660325
vn 0.000000 1.000000 0.000000
vn 0.000000 1.000000 0.000000
vn 0.000000 1.000000 0.000000
vn 0.000000 1.000000 0.000000
vn -0.184919 0.965199 -0.184919
vn 0.184919 0.965199 -0.184919
vn 0.506899 0.697214 -0.506899
vn -0.506899 0.697214 -0.506899
vn 0.544986 -0.637166 -0.544986
vn 0.660325 -0.357691 -0.660325
vn -0.544986 -0.637166 -0.544986
vn -0.660325 -0.357690 -0.660325
vn -0.506899 0.697214 0.506899
vn 0.506899 0.697214 0.506899
vn 0.184919 0.965199 0.184919
vn -0.184919 0.965199 0.184919
vn 0.000000 0.000000 1.000000
vn 0.000000 0.000000 1.000000
vn 0.000000 0.000000 1.000000
vn 0.000000 0.000000 1.000000
vn 1.000000 0.000000 0.000000
vn 1.000000 0.000000 0.000000
vn 1.000000 0.000000 0.000000
vn 1.000000 0.000000 0.000000
vn 0.000000 0.000000 -1.000000
vn 0.000000 0.000000 -1.000000
vn 0.000000 0.000000 -1.000000
vn 0.000000 0.000000 -1.000000
vn -1.000000 0.000000 0.000000
vn -1.000000 0.000000 0.000000
vn -1.000000 0.000000 0.000000
vn -1.000000 0.000000 0.000000
g column_9
usemtl lambert2SG
f 1/23/1 2/24/2 14/20/3 13/19/4
f 17/1/5 18/2/6 19/3/7 20/4/8
f 5/5/9 6/6/10 12/7/11 11/8/12
f 2/29/2 8/30/13 16/26/14 14/25/3
f 7/35/15 1/36/1 13/32/4 15/31/16
f 9/11/17 10/9/18 4/10/19 3/12/20
f 11/13/12 12/14/11 16/15/14 15/16/16
f 10/9/18 12/7/11 6/6/10 4/10/19
f 11/8/12 9/11/17 3/12/20 5/5/9
f 13/19/4 14/20/3 10/21/18 9/22/17
f 14/25/3 16/26/14 12/27/11 10/28/18
f 15/31/16 13/32/4 9/33/17 11/34/12
f 15/16/16 16/15/14 8/17/13 7/18/15
f 3/37/21 4/38/22 18/39/23 17/40/24
f 4/41/25 6/42/26 19/43/27 18/44/28
f 6/45/29 5/46/30 20/47/31 19/48/32
f 5/49/33 3/50/34 17/51/35 20/52/36
