# This file uses centimeters as units for non-parametric coordinates.

mtllib column_8.mtl
g default
v 0.188031 0.000000 -0.188030
v 0.000000 0.000000 -0.265916
v -0.188031 0.000000 -0.188030
v -0.265915 0.000000 0.000000
v -0.188031 0.000000 0.188031
v 0.000000 0.000000 0.265915
v 0.188031 0.000000 0.188031
v 0.265915 0.000000 0.000000
v 0.165361 1.995638 -0.165360
v 0.000000 1.995638 -0.233855
v -0.165361 1.995638 -0.165360
v -0.233856 1.995638 0.000000
v -0.165361 1.995638 0.165361
v 0.000000 1.995638 0.233856
v 0.165361 1.995638 0.165361
v 0.233856 1.995638 0.000000
v 0.111693 1.829728 -0.111693
v 0.000000 1.829728 -0.157957
v -0.111693 1.829728 -0.111693
v -0.157957 1.829728 0.000000
v -0.111693 1.829728 0.111693
v 0.000000 1.829728 0.157957
v 0.111693 1.829728 0.111693
v 0.157957 1.829728 0.000000
v 0.111693 0.172833 -0.111693
v 0.000000 0.172833 -0.157957
v -0.111693 0.172833 -0.111693
v -0.157957 0.172833 0.000000
v -0.111693 0.172833 0.111693
v 0.000000 0.172833 0.157957
v 0.111693 0.172833 0.111693
v 0.157957 0.172833 0.000000
v 0.184073 1.912619 -0.184073
v 0.000000 1.912619 -0.260318
v -0.184073 1.912619 -0.184073
v -0.260318 1.912619 0.000000
v -0.184073 1.912619 0.184073
v 0.000000 1.912619 0.260318
v 0.184073 1.912619 0.184073
v 0.260319 1.912619 0.000000
v 0.199821 0.067699 -0.199821
v 0.000000 0.067699 -0.282590
v -0.199821 0.067699 -0.199821
v -0.282590 0.067699 0.000000
v -0.199821 0.067699 0.199821
v 0.000000 0.067699 0.282590
v 0.199821 0.067699 0.199821
v 0.282590 0.067699 0.000000
vt -0.499968 0.000000
vt -0.499968 0.033923
vt 1.250032 0.033923
vt -0.249968 0.000000
vt -0.249969 0.033923
vt 0.000032 0.000000
vt 0.000032 0.033923
vt 0.250032 0.000000
vt 0.250032 0.033923
vt 0.500032 0.000000
vt 0.500032 0.033923
vt 0.750032 0.000000
vt 0.750032 0.033923
vt 1.000032 0.000000
vt 1.000032 0.033923
vt -0.499968 0.916864
vt -0.499968 0.958400
vt 1.250031 0.958400
vt -0.249968 0.916864
vt -0.249968 0.958400
vt 0.000032 0.916864
vt 0.000032 0.958400
vt 0.250032 0.916864
vt 0.250032 0.958400
vt 0.500032 0.916864
vt 0.500032 0.958400
vt 0.750032 0.916864
vt 0.750032 0.958400
vt 1.000032 0.916864
vt 1.000032 0.958400
vt -0.499968 0.086605
vt -0.249968 0.086605
vt 0.000032 0.086605
vt 0.250032 0.086605
vt 0.500032 0.086605
vt 0.750032 0.086605
vt 1.000032 0.086605
vt -0.499968 1.000000
vt 1.250031 1.000000
vt -0.249968 1.000000
vt 0.000032 1.000000
vt 0.250032 1.000000
vt 0.500032 1.000000
vt 0.750032 1.000000
vt 1.000032 1.000000
vt 1.250031 0.000000
vt 1.500032 0.000000
vt 1.500032 0.916864
vt 1.500032 0.086605
vt 1.250032 0.916864
vt 1.500032 0.958400
vt 1.500032 1.000000
vt 1.500032 0.033923
vt 1.250032 0.086605
vn 0.686588 -0.239156 -0.686587
vn 0.000000 -0.239157 -0.970981
vn 0.000000 0.357059 -0.934082
vn 0.660496 0.357059 -0.660496
vn -0.686588 -0.239156 -0.686587
vn -0.660496 0.357059 -0.660495
vn -0.970981 -0.239154 0.000000
vn -0.934081 0.357060 0.000000
vn -0.686588 -0.239153 0.686588
vn -0.660495 0.357060 0.660495
vn -0.000000 -0.239153 0.970982
vn -0.000000 0.357060 0.934081
vn 0.686588 -0.239153 0.686588
vn 0.660495 0.357060 0.660496
vn 0.970981 -0.239154 0.000000
vn 0.934082 0.357059 0.000000
vn 0.624109 -0.470077 -0.624112
vn -0.000000 -0.470076 -0.882626
vn -0.000000 -0.339118 -0.940744
vn 0.665205 -0.339119 -0.665208
vn -0.624110 -0.470077 -0.624111
vn -0.665205 -0.339120 -0.665206
vn -0.882625 -0.470077 0.000000
vn -0.940743 -0.339120 -0.000000
vn -0.624110 -0.470077 0.624110
vn -0.665206 -0.339121 0.665206
vn -0.000000 -0.470077 0.882625
vn -0.000000 -0.339121 0.940743
vn 0.624109 -0.470078 0.624111
vn 0.665205 -0.339120 0.665206
vn 0.882625 -0.470078 -0.000000
vn 0.940743 -0.339120 -0.000000
vn 0.628329 0.458696 -0.628331
vn 0.000000 0.458696 -0.888593
vn -0.628330 0.458697 -0.628330
vn -0.888593 0.458696 0.000000
vn -0.628330 0.458696 0.628330
vn 0.000000 0.458696 0.888593
vn 0.628329 0.458696 0.628331
vn 0.888593 0.458696 0.000000
vn -0.000000 0.303699 -0.952768
vn 0.673707 0.303700 -0.673710
vn -0.673708 0.303698 -0.673710
vn -0.952769 0.303696 -0.000000
vn -0.673709 0.303696 0.673709
vn -0.000000 0.303696 0.952769
vn 0.673708 0.303698 0.673710
vn 0.952768 0.303699 -0.000000
g column_8
usemtl lambert2SG
f 1/46/1 2/47/2 42/53/3 41/3/4
f 2/1/2 3/4/5 43/5/6 42/2/3
f 3/4/5 4/6/7 44/7/8 43/5/6
f 4/6/7 5/8/9 45/9/10 44/7/8
f 5/8/9 6/10/11 46/11/12 45/9/10
f 6/10/11 7/12/13 47/13/14 46/11/12
f 7/12/13 8/14/15 48/15/16 47/13/14
f 8/14/15 1/46/1 41/3/4 48/15/16
f 17/50/17 18/48/18 34/51/19 33/18/20
f 18/16/18 19/19/21 35/20/22 34/17/19
f 19/19/21 20/21/23 36/22/24 35/20/22
f 20/21/23 21/23/25 37/24/26 36/22/24
f 21/23/25 22/25/27 38/26/28 37/24/26
f 22/25/27 23/27/29 39/28/30 38/26/28
f 23/27/29 24/29/31 40/30/32 39/28/30
f 24/29/31 17/50/17 33/18/20 40/30/32
f 25/54/33 26/49/34 18/48/18 17/50/17
f 26/31/34 27/32/35 19/19/21 18/16/18
f 27/32/35 28/33/36 20/21/23 19/19/21
f 28/33/36 29/34/37 21/23/25 20/21/23
f 29/34/37 30/35/38 22/25/27 21/23/25
f 30/35/38 31/36/39 23/27/29 22/25/27
f 31/36/39 32/37/40 24/29/31 23/27/29
f 32/37/40 25/54/33 17/50/17 24/29/31
f 33/18/20 34/51/19 10/52/41 9/39/42
f 34/17/19 35/20/22 11/40/43 10/38/41
f 35/20/22 36/22/24 12/41/44 11/40/43
f 36/22/24 37/24/26 13/42/45 12/41/44
f 37/24/26 38/26/28 14/43/46 13/42/45
f 38/26/28 39/28/30 15/44/47 14/43/46
f 39/28/30 40/30/32 16/45/48 15/44/47
f 40/30/32 33/18/20 9/39/42 16/45/48
f 41/3/4 42/53/3 26/49/34 25/54/33
f 42/2/3 43/5/6 27/32/35 26/31/34
f 43/5/6 44/7/8 28/33/36 27/32/35
f 44/7/8 45/9/10 29/34/37 28/33/36
f 45/9/10 46/11/12 30/35/38 29/34/37
f 46/11/12 47/13/14 31/36/39 30/35/38
f 47/13/14 48/15/16 32/37/40 31/36/39
f 48/15/16 41/3/4 25/54/33 32/37/40
