# This file uses centimeters as units for non-parametric coordinates.

mtllib doppelfenster_r.mtl
g default
v 1.210818 0.704613 29.448238
v 1.210818 -0.125127 29.448238
v 1.100794 -0.125127 29.448238
v 0.972675 -0.125127 29.448238
v 0.848820 -0.125127 29.448238
v 0.729645 -0.125127 29.448238
v 0.729645 0.704613 29.448238
v 1.471186 0.795802 29.495415
v 1.471186 -0.401196 29.495415
v 0.472031 0.795802 29.495415
v 0.472031 -0.401196 29.495415
v 1.145875 0.610203 29.495415
v 0.794588 0.610203 29.495415
v 1.186032 -0.125127 29.495415
v 0.754431 -0.125127 29.495415
v 1.145875 0.610203 29.448238
v 1.186032 -0.125127 29.448238
v 0.754431 -0.125127 29.448238
v 0.794588 0.610203 29.448238
v 0.972137 0.700685 29.448238
v 0.972137 0.700685 29.495415
v 0.976265 0.795802 29.495415
v 1.072065 0.683829 29.448238
v 1.072065 0.683829 29.495415
v 0.875536 0.683829 29.448238
v 0.875536 0.683829 29.495415
v 1.267347 -0.134795 29.526037
v 0.667811 -0.134795 29.526037
v 1.267347 -0.074876 29.526037
v 0.667811 -0.074876 29.526037
v 1.267347 -0.074876 29.449688
v 0.667811 -0.074876 29.449688
v 1.267347 -0.134795 29.449688
v 0.667811 -0.134795 29.449688
v 0.766773 0.532297 29.448238
v 0.766773 0.532297 29.495415
v 1.173610 0.536531 29.495415
v 1.173610 0.536531 29.448238
v -0.266755 0.704613 29.448238
v -0.266755 -0.125127 29.448238
v -0.156732 -0.125127 29.448238
v -0.028613 -0.125127 29.448238
v 0.095242 -0.125127 29.448238
v 0.214417 -0.125127 29.448238
v 0.214417 0.704613 29.448238
v -0.527124 0.795802 29.495415
v -0.527124 -0.401196 29.495415
v -0.201812 0.610203 29.495415
v 0.149474 0.610203 29.495415
v -0.241970 -0.125127 29.495415
v 0.189632 -0.125127 29.495415
v -0.201812 0.610203 29.448238
v -0.241970 -0.125127 29.448238
v 0.189632 -0.125127 29.448238
v 0.149474 0.610203 29.448238
v -0.028075 0.700685 29.448238
v -0.028075 0.700685 29.495415
v -0.032203 0.795802 29.495415
v -0.128003 0.683829 29.448238
v -0.128003 0.683829 29.495415
v 0.068527 0.683829 29.448238
v 0.068527 0.683829 29.495415
v -0.323285 -0.134795 29.526037
v 0.276252 -0.134795 29.526037
v -0.323285 -0.074876 29.526037
v 0.276252 -0.074876 29.526037
v -0.323285 -0.074876 29.449688
v 0.276252 -0.074876 29.449688
v -0.323285 -0.134795 29.449688
v 0.276252 -0.134795 29.449688
v 0.177289 0.532297 29.448238
v 0.177289 0.532297 29.495415
v -0.229548 0.536531 29.495415
v -0.229548 0.536531 29.448238
vt 0.721129 0.923818
vt 0.319147 0.923818
vt 0.319147 0.230635
vt 0.411063 0.230635
vt 0.518097 0.230635
vt 0.621568 0.230635
vt 0.721129 0.230635
vt 0.098303 0.999483
vt 0.373402 0.844946
vt 0.435064 0.906455
vt 0.350231 0.783399
vt 0.339853 0.230635
vt 0.101629 0.000000
vt 0.937052 0.000000
vt 0.700423 0.230635
vt 0.935082 0.999497
vt 0.666875 0.844946
vt 0.690111 0.779862
vt 0.113850 0.090686
vt 0.202029 0.090686
vt 0.202029 0.147151
vt 0.113850 0.147151
vt 0.207097 0.090686
vt 0.599249 0.906455
vt 0.351956 0.255428
vt 0.690087 0.255428
vt 0.690087 0.297946
vt 0.351956 0.297946
vt 0.113850 0.090686
vt 0.113850 0.147151
vt 0.207097 0.147151
vt 0.025726 0.090686
vt 0.267731 0.221952
vt 0.765447 0.221952
vt 0.765447 0.275418
vt 0.267731 0.275418
vt 0.267731 0.275418
vt 0.765447 0.275418
vt 0.765447 0.221952
vt 0.267731 0.221952
vt 0.518546 0.920537
vt 0.025726 0.147151
vt 0.025726 0.090686
vt 0.515097 1.000000
vt 0.005550 0.090686
vt 0.005550 0.147151
vt 0.025726 0.147151
vt 1.005550 0.054035
vt 1.005550 0.145420
vt 0.933833 0.145420
vt 0.933833 0.054035
vt 1.005550 0.145420
vt 1.005550 0.054035
vt 0.933833 0.054035
vt 0.933833 0.145420
vt 0.993979 0.090686
vt 0.993979 0.147151
vt 0.993979 0.090686
vt 0.993979 0.147151
vt 0.721129 0.923818
vt 0.319147 0.923818
vt 0.319147 0.230635
vt 0.411063 0.230635
vt 0.518097 0.230635
vt 0.621568 0.230635
vt 0.721129 0.230635
vt 0.000087 0.999483
vt 0.373402 0.844946
vt 0.435064 0.906455
vt 0.350231 0.783399
vt 0.339853 0.230635
vt 0.004054 0.000000
vt 1.000454 0.000000
vt 0.700423 0.230635
vt 0.998105 0.999497
vt 0.666875 0.844946
vt 0.690111 0.779862
vt 0.113850 0.090686
vt 0.202029 0.090686
vt 0.202029 0.147151
vt 0.113850 0.147151
vt 0.207097 0.090686
vt 0.113850 0.090686
vt 0.113850 0.147151
vt 0.207097 0.147151
vt 0.025726 0.090686
vt 0.025726 0.147151
vt 0.025726 0.090686
vt 0.005550 0.090686
vt 0.005550 0.147151
vt 0.025726 0.147151
vt 0.515097 1.000000
vt 0.518546 0.920537
vt 0.599249 0.906455
vt 0.351956 0.255428
vt 0.690087 0.255428
vt 0.690087 0.297946
vt 0.351956 0.297946
vt 0.267731 0.221952
vt 0.765447 0.221952
vt 0.765447 0.275418
vt 0.267731 0.275418
vt 0.267731 0.275418
vt 0.765447 0.275418
vt 0.765447 0.221952
vt 0.267731 0.221952
vt 1.005550 0.054035
vt 1.005550 0.145420
vt 0.933833 0.145420
vt 0.933833 0.054035
vt 1.005550 0.145420
vt 1.005550 0.054035
vt 0.933833 0.054035
vt 0.933833 0.145420
vt 0.993979 0.090686
vt 0.993979 0.147151
vt 0.993979 0.090686
vt 0.993979 0.147151
vn 0.000000 0.000000 1.000000
vn 0.000000 0.000000 1.000000
vn 0.000000 0.000000 1.000000
vn 0.000000 0.000000 1.000000
vn 0.000000 0.000000 1.000000
vn 0.000000 0.000000 1.000000
vn 0.000000 0.000000 1.000000
vn -0.000008 0.000000 1.000000
vn 0.000000 0.000000 1.000000
vn -0.000016 0.000000 1.000000
vn -0.000016 0.000000 1.000000
vn 0.000000 0.000000 1.000000
vn 0.000000 0.000000 1.000000
vn 0.000000 0.000000 1.000000
vn 0.000000 0.000000 1.000000
vn 0.000000 0.000000 1.000000
vn 0.000000 0.000000 1.000000
vn 0.000000 0.000000 1.000000
vn -0.935872 -0.352341 0.000000
vn -0.935872 -0.352341 0.000000
vn -0.982113 -0.188291 0.000000
vn -0.982113 -0.188291 0.000000
vn 0.983693 -0.179858 0.000000
vn 0.983693 -0.179858 0.000000
vn 0.941780 -0.336229 0.000000
vn 0.941780 -0.336229 0.000000
vn -0.457892 -0.889008 0.000000
vn -0.457892 -0.889008 0.000000
vn -0.706213 -0.708000 0.000000
vn -0.706213 -0.708000 0.000000
vn 0.439822 -0.898085 0.000000
vn 0.439822 -0.898085 0.000000
vn 0.002821 -0.999996 0.000000
vn 0.002821 -0.999996 0.000000
vn 0.000000 0.000000 1.000000
vn 0.000000 0.000000 1.000000
vn 0.000000 0.000000 1.000000
vn 0.672846 -0.739783 0.000000
vn 0.672846 -0.739783 0.000000
vn 0.000000 0.000000 1.000000
vn 0.000000 0.000000 1.000000
vn 0.000000 0.000000 1.000000
vn 0.000000 0.000000 1.000000
vn 0.000000 1.000000 0.000000
vn 0.000000 1.000000 0.000000
vn 0.000000 1.000000 0.000000
vn 0.000000 1.000000 0.000000
vn 0.000000 -1.000000 0.000000
vn 0.000000 -1.000000 0.000000
vn 0.000000 -1.000000 0.000000
vn 0.000000 -1.000000 0.000000
vn -1.000000 0.000000 0.000000
vn -1.000000 0.000000 0.000000
vn -1.000000 0.000000 0.000000
vn -1.000000 0.000000 0.000000
vn 1.000000 0.000000 0.000000
vn 1.000000 0.000000 0.000000
vn 1.000000 0.000000 0.000000
vn 1.000000 0.000000 0.000000
vn 0.999824 -0.018772 0.000000
vn 0.999824 -0.018772 0.000000
vn -0.999824 -0.018771 0.000000
vn -0.999824 -0.018771 0.000000
vn 0.000000 0.000000 1.000000
vn 0.000000 0.000000 1.000000
vn 0.000000 0.000000 1.000000
vn 0.000000 0.000000 1.000000
vn 0.000000 0.000000 1.000000
vn 0.000000 0.000000 1.000000
vn 0.000000 0.000000 1.000000
vn 0.000007 0.000000 1.000000
vn 0.000016 0.000000 1.000000
vn 0.000000 0.000000 1.000000
vn 0.000015 0.000000 1.000000
vn -0.000002 0.000000 1.000000
vn -0.000002 0.000000 1.000000
vn -0.000004 0.000000 1.000000
vn -0.000004 0.000000 1.000000
vn -0.000002 0.000000 1.000000
vn 0.000000 0.000000 1.000000
vn -0.000004 0.000000 1.000000
vn 0.935871 -0.352342 0.000000
vn 0.982113 -0.188291 0.000000
vn 0.982113 -0.188291 0.000000
vn 0.935871 -0.352342 0.000000
vn -0.983693 -0.179858 0.000000
vn -0.941780 -0.336229 0.000000
vn -0.941780 -0.336229 0.000000
vn -0.983693 -0.179858 0.000000
vn 0.457892 -0.889008 0.000000
vn 0.706213 -0.708000 0.000000
vn 0.706213 -0.708000 0.000000
vn 0.457892 -0.889008 0.000000
vn -0.439822 -0.898085 0.000000
vn -0.002821 -0.999996 0.000000
vn -0.002821 -0.999996 0.000000
vn -0.439822 -0.898085 0.000000
vn 0.000000 0.000000 1.000000
vn 0.000000 0.000000 1.000000
vn 0.000000 0.000000 1.000000
vn -0.672846 -0.739783 0.000000
vn -0.672846 -0.739783 0.000000
vn 0.000000 0.000000 1.000000
vn 0.000000 0.000000 1.000000
vn 0.000000 0.000000 1.000000
vn 0.000000 0.000000 1.000000
vn 0.000000 1.000000 0.000000
vn 0.000000 1.000000 0.000000
vn 0.000000 1.000000 0.000000
vn 0.000000 1.000000 0.000000
vn 0.000000 -1.000000 0.000000
vn 0.000000 -1.000000 0.000000
vn 0.000000 -1.000000 0.000000
vn 0.000000 -1.000000 0.000000
vn 1.000000 0.000000 0.000000
vn 1.000000 0.000000 0.000000
vn 1.000000 0.000000 0.000000
vn 1.000000 0.000000 0.000000
vn -1.000000 0.000000 0.000000
vn -1.000000 0.000000 0.000000
vn -1.000000 0.000000 0.000000
vn -1.000000 0.000000 0.000000
vn -0.999824 -0.018772 0.000000
vn -0.999824 -0.018772 0.000000
vn 0.999824 -0.018771 0.000000
vn 0.999824 -0.018771 0.000000
s off
g polySurface164
usemtl lambert16SG
f 7/1/1 6/7/2 5/6/3 4/5/4 3/4/5 2/3/6 1/2/7
s 1
f 8/8/8 24/10/9 12/9/10
f 8/8/8 12/9/10 37/11/11
f 15/15/12 11/14/13 9/13/14 14/12/15
f 10/16/16 36/18/17 13/17/18
s 2
f 12/19/19 16/22/20 38/21/21 37/20/22
s 3
f 36/23/23 35/31/24 19/30/25 13/29/26
s 4
f 24/32/27 23/42/28 16/22/29 12/19/30
f 26/43/31 25/47/32 20/46/33 21/45/34
s 1
f 10/16/16 26/24/35 21/41/36 22/44/37
s 4
f 21/45/34 20/46/33 23/42/28 24/32/27
s 1
f 22/44/37 21/41/36 24/10/9 8/8/8
s 4
f 13/29/38 19/30/39 25/47/32 26/43/31
s 1
f 10/16/16 13/17/18 26/24/35
s off
f 27/25/40 29/28/41 30/27/42 28/26/43
f 29/40/44 31/37/45 32/38/46 30/39/47
f 33/36/48 27/33/49 28/34/50 34/35/51
f 28/48/52 30/51/53 32/50/54 34/49/55
f 33/52/56 31/55/57 29/54/58 27/53/59
s 3
f 15/56/60 18/57/61 35/31/24 36/23/23
s 1
f 11/14/13 15/15/12 36/18/17 10/16/16
f 8/8/8 37/11/11 14/12/15 9/13/14
s 2
f 38/21/21 17/59/62 14/58/63 37/20/22
s off
f 45/60/64 39/61/65 40/62/66 41/63/67 42/64/68 43/65/69 44/66/70
s 10
f 46/67/71 48/68/72 60/69/73
f 46/67/71 73/70/74 48/68/72
f 50/71/75 47/72/76 11/73/77 51/74/78
f 10/75/79 49/76/80 72/77/81
s 11
f 48/78/82 73/79/83 74/80/84 52/81/85
s 12
f 72/82/86 49/83/87 55/84/88 71/85/89
s 13
f 60/86/90 48/78/91 52/81/92 59/87/93
f 62/88/94 57/89/95 56/90/96 61/91/97
s 10
f 10/75/79 58/92/98 57/93/99 62/94/100
s 13
f 57/89/95 60/86/90 59/87/93 56/90/96
s 10
f 58/92/98 46/67/71 60/69/73 57/93/99
s 13
f 49/83/101 62/88/94 61/91/97 55/84/102
s 10
f 10/75/79 62/94/100 49/76/80
s off
f 63/95/103 64/96/104 66/97/105 65/98/106
f 65/99/107 66/100/108 68/101/109 67/102/110
f 69/103/111 70/104/112 64/105/113 63/106/114
f 64/107/115 70/108/116 68/109/117 66/110/118
f 69/111/119 63/112/120 65/113/121 67/114/122
s 12
f 51/115/123 72/82/86 71/85/89 54/116/124
s 10
f 11/73/77 10/75/79 72/77/81 51/74/78
f 46/67/71 47/72/76 50/71/75 73/70/74
s 11
f 74/80/84 73/79/83 50/117/125 53/118/126
