# This file uses centimeters as units for non-parametric coordinates.

mtllib fenster_durch.mtl
g default
v 1.471186 2.131058 29.495415
v 1.471186 0.934060 29.495415
v 0.472031 2.131058 29.495415
v 0.472031 0.934060 29.495415
v 1.145875 1.945459 29.495415
v 0.794588 1.945459 29.495415
v 1.186032 1.210129 29.495415
v 0.754431 1.210129 29.495415
v 0.972137 2.035941 29.495415
v 0.976265 2.131058 29.495415
v 1.072065 2.019085 29.495415
v 0.875536 2.019085 29.495415
v 1.267347 1.200462 29.526037
v 0.667811 1.200462 29.526037
v 1.267347 1.260380 29.526037
v 0.667811 1.260380 29.526037
v 1.267347 1.260380 29.448238
v 0.667811 1.260380 29.448238
v 1.267347 1.200462 29.448238
v 0.667811 1.200462 29.448238
v 0.766773 1.867554 29.495415
v 1.173610 1.871787 29.495415
v -0.527124 2.131058 29.495415
v -0.527124 0.934060 29.495415
v -0.201812 1.945459 29.495415
v 0.149474 1.945459 29.495415
v -0.241970 1.210129 29.495415
v 0.189632 1.210129 29.495415
v -0.028075 2.035941 29.495415
v -0.032203 2.131058 29.495415
v -0.128003 2.019085 29.495415
v 0.068527 2.019085 29.495415
v -0.323285 1.200462 29.526037
v 0.276252 1.200462 29.526037
v -0.323285 1.260380 29.526037
v 0.276252 1.260380 29.526037
v -0.323285 1.260380 29.448238
v 0.276252 1.260380 29.448238
v -0.323285 1.200462 29.448238
v 0.276252 1.200462 29.448238
v 0.177289 1.867554 29.495415
v -0.229548 1.871787 29.495415
v 1.471186 2.131058 29.401062
v 1.072065 2.019085 29.401062
v 1.145875 1.945459 29.401062
v 1.173610 1.871787 29.401062
v 0.754431 1.210129 29.401062
v 0.472031 0.934060 29.401062
v 1.471187 0.934060 29.401062
v 1.186032 1.210129 29.401062
v 0.472031 2.131058 29.401062
v 0.766773 1.867554 29.401062
v 0.794588 1.945459 29.401064
v 0.875536 2.019085 29.401062
v 0.972137 2.035941 29.401062
v 0.976265 2.131058 29.401062
v 1.267347 1.200462 29.370441
v 1.267347 1.260380 29.370441
v 0.667811 1.260380 29.370441
v 0.667811 1.200462 29.370441
v -0.527124 2.131058 29.401062
v -0.201812 1.945459 29.401062
v -0.128003 2.019085 29.401062
v -0.229548 1.871788 29.401062
v -0.241970 1.210129 29.401064
v -0.527124 0.934060 29.401062
v 0.189632 1.210129 29.401064
v 0.149474 1.945459 29.401062
v 0.177289 1.867554 29.401064
v 0.068527 2.019085 29.401062
v -0.028075 2.035941 29.401062
v -0.032203 2.131058 29.401062
v -0.323285 1.200462 29.370441
v 0.276252 1.200462 29.370441
v 0.276252 1.260380 29.370441
v -0.323285 1.260380 29.370441
vt 0.098303 0.999483
vt 0.373402 0.844946
vt 0.435064 0.906455
vt 0.350231 0.783399
vt 0.339853 0.230635
vt 0.101629 0.000000
vt 0.937052 0.000000
vt 0.700423 0.230635
vt 0.935082 0.999497
vt 0.666875 0.844946
vt 0.690111 0.779862
vt 0.116001 0.803521
vt 0.116001 0.891700
vt 0.228935 0.891700
vt 0.599249 0.906455
vt 0.351956 0.255428
vt 0.690087 0.255428
vt 0.690087 0.297946
vt 0.351956 0.297946
vt 0.228935 0.803521
vt 0.079349 0.071717
vt 0.172466 0.071717
vt 0.172466 0.071717
vt 0.079349 0.071717
vt 0.172466 0.000000
vt 0.079349 0.000000
vt 0.079349 0.000000
vt 0.172466 0.000000
vt 0.228935 0.011571
vt 0.518546 0.920537
vt 0.116001 0.011571
vt 0.515097 1.000000
vt 0.116001 0.798454
vt 0.116001 0.891700
vt 0.228935 0.891700
vt 0.228931 0.798454
vt 0.116001 0.979824
vt 0.116001 0.891700
vt 0.228935 0.891700
vt 0.228935 0.979824
vt 0.116001 0.979824
vt 0.116001 1.000000
vt 0.228935 1.000000
vt 0.000087 0.999483
vt 0.373402 0.844946
vt 0.435064 0.906455
vt 0.350231 0.783399
vt 0.339853 0.230635
vt 0.004054 0.000000
vt 1.000454 0.000000
vt 0.700423 0.230635
vt 0.998105 0.999497
vt 0.666875 0.844946
vt 0.690111 0.779862
vt 0.228935 0.979824
vt 0.079349 0.071717
vt 0.079349 0.071717
vt 0.172466 0.071717
vt 0.172466 0.071717
vt 0.079349 0.000000
vt 0.172466 0.000000
vt 0.515097 1.000000
vt 0.518546 0.920537
vt 0.599249 0.906455
vt 0.351956 0.255428
vt 0.690087 0.255428
vt 0.690087 0.297946
vt 0.351956 0.297946
vt 0.228931 0.011571
vt 0.116001 0.011571
vt 0.116001 0.798454
vt 0.228935 0.798454
vt 0.267731 0.275418
vt 0.765447 0.275418
vt 0.765447 0.221952
vt 0.267731 0.221952
vt 0.228931 0.891700
vt 0.116001 0.891700
vt 0.116001 0.979824
vt 0.228935 0.979824
vt 1.005550 0.145420
vt 1.005550 0.054035
vt 0.933833 0.054035
vt 0.933833 0.145420
vt 0.116001 0.979824
vt 0.228935 0.979824
vt 0.098303 0.999483
vt 0.435064 0.906455
vt 0.373402 0.844946
vt 0.350231 0.783399
vt 0.700423 0.230635
vt 0.937052 0.000000
vt 0.101629 0.000000
vt 0.339853 0.230635
vt 0.935082 0.999497
vt 0.690111 0.779862
vt 0.666875 0.844946
vt 0.228935 1.000000
vt 0.116001 1.000000
vt 0.265582 0.071717
vt 0.265582 0.071717
vt 0.265582 0.000000
vt 0.265582 0.000000
vt 0.116001 0.011571
vt 0.599249 0.906455
vt 0.518546 0.920537
vt 0.515097 1.000000
vt 0.351956 0.255428
vt 0.351956 0.297946
vt 0.690087 0.297946
vt 0.690087 0.255428
vt 0.228935 0.011571
vt 0.116001 0.803521
vt 0.228935 0.803521
vt 0.265582 0.071717
vt 0.265582 0.071717
vt 0.265582 0.000000
vt 0.116001 0.011571
vt 0.228931 0.011571
vt 0.933833 0.145420
vt 0.933833 0.054035
vt 1.005550 0.054035
vt 1.005550 0.145420
vt 0.267731 0.221952
vt 0.765447 0.221952
vt 0.765447 0.275418
vt 0.267731 0.275418
vt 0.351956 0.297946
vt 0.690087 0.297946
vt 0.000087 0.999483
vt 0.373402 0.844946
vt 0.435064 0.906455
vt 0.350231 0.783399
vt 0.339853 0.230635
vt 0.004054 0.000000
vt 1.000454 0.000000
vt 0.700423 0.230635
vt 0.998105 0.999497
vt 0.666875 0.844946
vt 0.690111 0.779862
vt 0.690087 0.255428
vt 0.351956 0.255428
vt 0.599249 0.906455
vt 0.518546 0.920537
vt 0.515097 1.000000
vn -0.000004 0.000000 1.000000
vn 0.000000 0.000000 1.000000
vn 0.000000 0.000000 1.000000
vn -0.000007 0.000000 1.000000
vn 0.000007 0.000000 1.000000
vn 0.000007 0.000000 1.000000
vn -0.000007 0.000000 1.000000
vn -0.000007 0.000000 1.000000
vn 0.000004 0.000000 1.000000
vn 0.000007 0.000000 1.000000
vn 0.000000 0.000000 1.000000
vn -0.982114 -0.188286 0.000000
vn -0.935876 -0.352331 0.000002
vn -0.935876 -0.352331 0.000002
vn -0.982114 -0.188286 0.000000
vn 0.000000 0.000000 1.000000
vn 0.000000 0.000000 1.000000
vn 0.000000 0.000000 1.000000
vn 0.000000 0.000000 1.000000
vn 0.000000 0.000000 1.000000
vn 0.000000 0.000000 1.000000
vn 0.000000 0.000000 1.000000
vn 0.000000 1.000000 0.000000
vn 0.000000 1.000000 0.000000
vn 0.000000 1.000000 0.000000
vn 0.000000 1.000000 0.000000
vn 0.000000 -1.000000 0.000000
vn 0.000000 -1.000000 0.000000
vn 0.000000 -1.000000 0.000000
vn 0.000000 -1.000000 0.000000
vn -1.000000 0.000000 0.000000
vn -1.000000 0.000000 0.000000
vn -1.000000 0.000000 0.000000
vn -1.000000 0.000000 0.000000
vn 1.000000 0.000000 0.000000
vn 1.000000 0.000000 0.000000
vn 1.000000 0.000000 0.000000
vn 1.000000 0.000000 0.000000
vn -0.999824 -0.018771 -0.000001
vn -0.999824 -0.018771 -0.000001
vn 0.000001 0.000000 1.000000
vn 0.000000 0.000000 1.000000
vn 0.000000 0.000000 1.000000
vn 0.000003 0.000000 1.000000
vn 0.000003 0.000000 1.000000
vn 0.000003 0.000000 1.000000
vn -0.000004 0.000000 1.000000
vn -0.000004 0.000000 1.000000
vn -0.000002 0.000000 1.000000
vn 0.000000 0.000000 1.000000
vn -0.000004 0.000000 1.000000
vn -0.983692 -0.179861 -0.000000
vn -0.941778 -0.336236 -0.000000
vn -0.941778 -0.336236 -0.000000
vn -0.983692 -0.179861 -0.000000
vn 0.457903 -0.889002 -0.000000
vn 0.706225 -0.707988 -0.000000
vn 0.706225 -0.707988 -0.000000
vn 0.457903 -0.889002 -0.000000
vn -0.439833 -0.898080 0.000000
vn -0.002821 -0.999996 0.000000
vn -0.002821 -0.999996 0.000000
vn -0.439833 -0.898080 0.000000
vn 0.000000 0.000000 1.000000
vn 0.000000 0.000000 1.000000
vn 0.000000 0.000000 1.000000
vn -0.672858 -0.739771 0.000000
vn -0.672858 -0.739771 0.000000
vn 0.000000 0.000000 1.000000
vn 0.000000 0.000000 1.000000
vn 0.000000 0.000000 1.000000
vn 0.000000 0.000000 1.000000
vn 0.000000 1.000000 0.000000
vn 0.000000 1.000000 0.000000
vn 0.000000 1.000000 0.000000
vn 0.000000 1.000000 0.000000
vn 0.000000 -1.000000 0.000000
vn 0.000000 -1.000000 0.000000
vn 0.000000 -1.000000 0.000000
vn 0.000000 -1.000000 0.000000
vn 1.000000 0.000000 0.000000
vn 1.000000 0.000000 0.000000
vn 1.000000 0.000000 0.000000
vn 1.000000 0.000000 0.000000
vn -1.000000 0.000000 0.000000
vn -1.000000 0.000000 0.000000
vn -1.000000 0.000000 0.000000
vn -1.000000 0.000000 0.000000
vn -0.999824 -0.018772 -0.000000
vn -0.999824 -0.018772 -0.000000
vn 0.000004 0.000000 -1.000000
vn 0.000006 0.000000 -1.000000
vn 0.000006 0.000000 -1.000000
vn 0.000001 0.000000 -1.000000
vn -0.000002 0.000000 -1.000000
vn 0.000001 0.000000 -1.000000
vn 0.000001 0.000000 -1.000000
vn -0.000002 0.000000 -1.000000
vn -0.000007 -0.000000 -1.000000
vn -0.000012 -0.000001 -1.000000
vn -0.000002 0.000009 -1.000000
vn 0.983692 -0.179861 -0.000000
vn 0.983692 -0.179861 -0.000000
vn 0.941778 -0.336236 -0.000000
vn 0.941778 -0.336236 -0.000000
vn -0.457903 -0.889002 0.000001
vn -0.457903 -0.889002 0.000001
vn -0.706225 -0.707988 0.000003
vn -0.706225 -0.707988 0.000003
vn 0.439835 -0.898078 0.000000
vn 0.439835 -0.898078 0.000000
vn 0.002821 -0.999996 0.000000
vn 0.002821 -0.999996 0.000000
vn 0.000000 0.000000 -1.000000
vn 0.000000 0.000000 -1.000000
vn -0.000012 -0.000010 -1.000000
vn 0.672863 -0.739768 0.000000
vn 0.672863 -0.739768 0.000000
vn 0.000000 0.000000 -1.000000
vn 0.000000 0.000000 -1.000000
vn 0.000000 0.000000 -1.000000
vn 0.000000 0.000000 -1.000000
vn 0.000000 1.000000 0.000000
vn 0.000000 1.000000 0.000000
vn 0.000000 1.000000 0.000000
vn 0.000000 1.000000 0.000000
vn 0.000000 -1.000000 -0.000000
vn 0.000000 -1.000000 -0.000000
vn 0.000000 -1.000000 -0.000000
vn 0.000000 -1.000000 -0.000000
vn -1.000000 0.000000 0.000001
vn -1.000000 0.000000 0.000001
vn -1.000000 0.000000 0.000001
vn -1.000000 0.000000 0.000001
vn 1.000000 0.000000 0.000000
vn 1.000000 0.000000 0.000000
vn 1.000000 0.000000 0.000000
vn 1.000000 0.000000 0.000000
vn 0.999824 -0.018772 -0.000000
vn 0.999824 -0.018772 -0.000000
vn 0.000000 -0.000000 -1.000000
vn 0.000000 0.000000 -1.000000
vn 0.000000 0.000000 -1.000000
vn 0.000000 -0.000001 -1.000000
vn 0.000002 0.000003 -1.000000
vn 0.000002 0.000003 -1.000000
vn 0.000002 0.000003 -1.000000
vn 0.000002 0.000003 -1.000000
vn 0.000008 -0.000005 -1.000000
vn 0.000016 -0.000010 -1.000000
vn 0.000016 -0.000010 -1.000000
vn 0.982114 -0.188286 -0.000000
vn 0.982114 -0.188286 -0.000000
vn 0.935876 -0.352331 -0.000001
vn 0.935876 -0.352331 -0.000001
vn 0.000000 0.000000 -1.000000
vn 0.000000 0.000000 -1.000000
vn 0.000000 0.000000 -1.000000
vn -0.000003 0.000000 -1.000000
vn -0.000003 0.000000 -1.000000
vn -0.000003 0.000000 -1.000000
vn -0.000003 0.000000 -1.000000
vn 0.000000 1.000000 -0.000001
vn 0.000000 1.000000 -0.000001
vn 0.000000 1.000000 -0.000001
vn 0.000000 1.000000 -0.000001
vn 0.000000 -1.000000 0.000000
vn 0.000000 -1.000000 0.000000
vn 0.000000 -1.000000 0.000000
vn 0.000000 -1.000000 0.000000
vn 1.000000 0.000000 0.000000
vn 1.000000 0.000000 0.000000
vn 1.000000 0.000000 0.000000
vn 1.000000 0.000000 0.000000
vn -1.000000 0.000000 0.000000
vn -1.000000 0.000000 0.000000
vn -1.000000 0.000000 0.000000
vn -1.000000 0.000000 0.000000
vn 0.999824 -0.018771 -0.000000
vn 0.999824 -0.018771 -0.000000
s 1
g polySurface148
usemtl lambert16SG
f 1/1/1 11/3/2 5/2/3
f 1/1/1 5/2/3 22/4/4
f 8/8/5 4/7/6 2/6/7 7/5/8
f 3/9/9 21/11/10 6/10/11
s 2
f 22/12/12 5/13/13 45/14/14 46/20/15
s 1
f 3/9/9 12/15/16 9/30/17 10/32/18
f 10/32/18 9/30/17 11/3/2 1/1/1
f 3/9/9 6/10/11 12/15/16
s off
f 13/16/19 15/19/20 16/18/21 14/17/22
f 15/21/23 17/22/24 18/23/25 16/24/26
f 19/25/27 13/26/28 14/27/29 20/28/30
f 14/27/31 16/24/32 18/23/33 20/28/34
f 19/25/35 17/22/36 15/21/37 13/26/38
s 1
f 4/7/6 8/8/5 21/11/10 3/9/9
f 1/1/1 22/4/4 7/5/8 2/6/7
s 2
f 50/29/39 7/31/40 22/12/12 46/20/15
s 8
f 23/44/41 25/45/42 31/46/43
f 23/44/41 42/47/44 25/45/42
f 27/48/45 24/49/46 4/50/47 28/51/48
f 3/52/49 26/53/50 41/54/51
s 9
f 41/33/52 26/34/53 68/35/54 69/36/55
s 10
f 31/37/56 25/38/57 62/39/58 63/40/59
f 32/41/60 29/42/61 71/43/62 70/55/63
s 8
f 3/52/49 30/62/64 29/63/65 32/64/66
s 10
f 29/42/61 31/37/56 63/40/59 71/43/62
s 8
f 30/62/64 23/44/41 31/46/43 29/63/65
s 10
f 26/34/67 32/41/60 70/55/63 68/35/68
s 8
f 3/52/49 32/64/66 26/53/50
s off
f 33/65/69 34/66/70 36/67/71 35/68/72
f 35/56/73 36/57/74 38/58/75 37/59/76
f 39/73/77 40/74/78 34/75/79 33/76/80
f 34/60/81 40/61/82 38/58/83 36/57/84
f 39/81/85 33/82/86 35/83/87 37/84/88
s 9
f 67/69/89 28/70/90 41/33/52 69/36/55
s 8
f 4/50/47 3/52/49 41/54/51 28/51/48
f 23/44/41 24/49/46 27/48/45 42/47/44
s 16
f 43/87/91 45/89/92 44/88/93
f 43/87/91 46/90/94 45/89/92
f 47/91/95 50/94/96 49/93/97 48/92/98
f 51/95/99 53/97/100 52/96/101
s 17
f 21/71/102 52/72/103 53/77/104 6/78/105
s 18
f 11/79/106 44/80/107 45/14/108 5/13/109
f 12/85/110 54/86/111 55/98/112 9/99/113
s 16
f 51/95/99 56/107/114 55/106/115 54/105/116
s 18
f 9/99/113 55/98/112 44/80/107 11/79/106
s 16
f 56/107/114 43/87/91 44/88/93 55/106/115
s 18
f 6/78/117 53/77/118 54/86/111 12/85/110
s 16
f 51/95/99 54/105/116 53/97/100
s off
f 57/108/119 60/111/120 59/110/121 58/109/122
f 58/100/123 59/101/124 18/23/125 17/22/126
f 19/25/127 20/28/128 60/102/129 57/103/130
f 60/102/131 20/28/132 18/23/133 59/101/134
f 19/25/135 57/103/136 58/100/137 17/22/138
s 17
f 8/104/139 47/112/140 52/72/103 21/71/102
s 16
f 48/92/98 51/95/99 52/96/101 47/91/95
f 43/87/91 49/93/97 50/94/96 46/90/94
s 24
f 61/130/141 63/132/142 62/131/143
f 61/130/141 62/131/143 64/133/144
f 65/134/145 67/137/146 48/136/147 66/135/148
f 51/138/149 69/140/150 68/139/151
s 25
f 42/113/152 64/114/153 62/39/154 25/38/155
s 24
f 51/138/149 70/143/156 71/144/157 72/145/158
f 72/145/158 71/144/157 63/132/142 61/130/141
f 51/138/149 68/139/151 70/143/156
s off
f 73/142/159 76/128/160 75/129/161 74/141/162
f 76/115/163 37/59/164 38/58/165 75/116/166
f 39/127/167 73/124/168 74/125/169 40/126/170
f 74/117/171 75/116/172 38/58/173 40/61/174
f 39/123/175 37/120/176 76/121/177 73/122/178
s 24
f 48/136/147 67/137/146 69/140/150 51/138/149
f 61/130/141 64/133/144 65/134/145 66/135/148
s 25
f 27/118/179 65/119/180 64/114/153 42/113/152
