# This file uses centimeters as units for non-parametric coordinates.

v -0.065408 -0.063183 0.025330
v 0.065408 -0.063183 0.025330
v 0.065408 0.063183 0.194799
v -0.065408 0.063183 0.194799
v 0.065408 0.063183 -0.194799
v -0.065408 0.063183 -0.194799
v 0.065408 -0.063183 -0.194799
v -0.065408 -0.063183 -0.194799
vt 0.325025 0.217248
vt 0.674975 0.217248
vt 0.674975 0.782752
vt 0.325025 0.782752
vt 0.375000 0.250000
vt 0.625000 0.250000
vt 0.625000 0.500000
vt 0.375000 0.500000
vt 0.625000 0.750000
vt 0.375000 0.750000
vt 0.421966 0.631310
vt 0.578034 0.631310
vt 0.578034 0.368690
vt 0.421966 0.368690
vt 0.434983 0.292438
vt 1.000000 0.292438
vt 1.000000 0.616787
vt 0.000000 0.616787
vt 1.000000 0.292438
vt 0.434983 0.292438
vt 0.000000 0.616787
vt 1.000000 0.616787
vn 0.000000 -0.801667 0.597770
vn 0.000000 -0.801667 0.597770
vn 0.000000 -0.801667 0.597770
vn 0.000000 -0.801667 0.597770
vn -0.000000 1.000000 0.000000
vn -0.000000 1.000000 0.000000
vn -0.000000 1.000000 0.000000
vn -0.000000 1.000000 0.000000
vn -0.000000 0.000000 -1.000000
vn -0.000000 0.000000 -1.000000
vn -0.000000 0.000000 -1.000000
vn -0.000000 0.000000 -1.000000
vn 0.000000 -1.000000 0.000000
vn 0.000000 -1.000000 0.000000
vn 0.000000 -1.000000 0.000000
vn 0.000000 -1.000000 0.000000
vn 1.000000 0.000000 -0.000000
vn 1.000000 0.000000 -0.000000
vn 1.000000 0.000000 -0.000000
vn 1.000000 0.000000 -0.000000
vn -1.000000 0.000000 0.000000
vn -1.000000 0.000000 0.000000
vn -1.000000 0.000000 0.000000
vn -1.000000 0.000000 0.000000
s off
g gazeboBeam_3
f 1/1/1 2/2/2 3/3/3 4/4/4
f 4/5/5 3/6/6 5/7/7 6/8/8
f 6/8/9 5/7/10 7/9/11 8/10/12
f 8/11/13 7/12/14 2/13/15 1/14/16
f 2/15/17 7/16/18 5/17/19 3/18/20
f 8/19/21 1/20/22 4/21/23 6/22/24
