# This file uses centimeters as units for non-parametric coordinates.

v -0.030504 -0.063183 0.116018
v 0.030504 -0.063183 0.116018
v 0.065408 0.063183 0.194799
v -0.065408 0.063183 0.194799
v 0.065408 0.063183 -0.194799
v -0.065408 0.063183 -0.194799
v 0.030504 -0.063183 -0.194799
v -0.030504 -0.063183 -0.194799
vt 0.449366 0.395121
vt 0.550634 0.395121
vt 0.608574 0.604879
vt 0.391426 0.604879
vt 0.404099 0.214388
vt 0.595901 0.214388
vt 0.595901 0.785612
vt 0.404099 0.785612
vt 0.375000 0.500000
vt 0.625000 0.500000
vt 0.625000 0.750000
vt 0.375000 0.750000
vt 0.455276 0.785612
vt 0.544724 0.785612
vt 0.544724 0.329895
vt 0.455276 0.329895
vt 0.329761 0.407289
vt 0.785838 0.407289
vt 0.785838 0.592711
vt 0.214162 0.592711
vt 0.785838 0.407289
vt 0.329761 0.407289
vt 0.214162 0.592711
vt 0.785838 0.592711
vn 0.000000 -0.529043 0.848595
vn 0.000000 -0.529043 0.848595
vn 0.000000 -0.529043 0.848595
vn 0.000000 -0.529043 0.848595
vn -0.000000 1.000000 0.000000
vn -0.000000 1.000000 0.000000
vn -0.000000 1.000000 0.000000
vn -0.000000 1.000000 0.000000
vn -0.000000 0.000000 -1.000000
vn -0.000000 0.000000 -1.000000
vn -0.000000 0.000000 -1.000000
vn -0.000000 0.000000 -1.000000
vn 0.000000 -1.000000 0.000000
vn 0.000000 -1.000000 0.000000
vn 0.000000 -1.000000 0.000000
vn 0.000000 -1.000000 0.000000
vn 0.963904 -0.266251 -0.000000
vn 0.963904 -0.266251 -0.000000
vn 0.963904 -0.266251 -0.000000
vn 0.963904 -0.266251 -0.000000
vn -0.963904 -0.266251 0.000000
vn -0.963904 -0.266251 0.000000
vn -0.963904 -0.266251 0.000000
vn -0.963904 -0.266251 0.000000
s off
g gazeboBeam_1
f 1/1/1 2/2/2 3/3/3 4/4/4
f 4/5/5 3/6/6 5/7/7 6/8/8
f 6/9/9 5/10/10 7/11/11 8/12/12
f 8/13/13 7/14/14 2/15/15 1/16/16
f 2/17/17 7/18/18 5/19/19 3/20/20
f 8/21/21 1/22/22 4/23/23 6/24/24
