# This file uses centimeters as units for non-parametric coordinates.

mtllib rubblePiece_1.mtl
g jiggle1Set tweakSet1
v 0.025981 0.000000 -0.045000
v -0.025981 0.000000 -0.045000
v -0.051962 0.000000 -0.000000
v -0.025981 0.000000 0.045000
v 0.025981 0.000000 0.045000
v 0.083751 0.000000 0.000000
v 0.022765 0.014449 -0.068125
v -0.031151 0.011047 -0.053654
v -0.061151 0.011047 -0.001692
v -0.030000 0.030000 0.051962
v 0.025011 0.010961 0.050908
v 0.096098 0.015676 0.004682
v 0.018541 0.046100 -0.076557
v -0.043635 0.023913 -0.078538
v -0.053112 0.041047 -0.001692
v -0.024434 0.039462 0.061274
v 0.027527 0.039462 0.061274
v 0.069990 0.053694 0.016603
v 0.005686 0.071810 -0.054292
v -0.030781 0.049622 -0.056273
v -0.048341 0.049622 -0.025858
v -0.008465 0.080462 0.043308
v 0.016546 0.061423 0.042254
v 0.044281 0.079403 0.016603
vt 0.683589 0.900913
vt 0.433370 0.900913
vt 0.414015 0.756449
vt 0.702944 0.756449
vt 0.433370 0.611984
vt 0.683589 0.611984
vt 0.486247 0.506229
vt 0.630712 0.506229
vt 0.001992 0.468714
vt 0.001992 0.252018
vt 0.146456 0.252018
vt 0.146456 0.502237
vt 0.001992 0.035321
vt 0.146456 0.001798
vt 0.290921 0.252018
vt 0.290921 0.468714
vt 0.290921 0.035321
vt 0.396676 0.252018
vt 0.396676 0.377128
vt 0.396676 0.126908
vt 0.728434 0.506229
vt 0.978653 0.506229
vt 0.998008 0.650693
vt 0.709079 0.650693
vt 0.978653 0.795158
vt 0.728434 0.795158
vt 0.925776 0.900913
vt 0.781311 0.900913
vt 0.403671 0.468715
vt 0.403671 0.252018
vt 0.548135 0.252018
vt 0.548135 0.502238
vt 0.403671 0.035321
vt 0.548135 0.001798
vt 0.692600 0.252018
vt 0.692600 0.468715
vt 0.692600 0.035321
vt 0.798355 0.252018
vt 0.798355 0.377128
vt 0.798355 0.126908
vt 0.282770 0.506229
vt 0.407880 0.578461
vt 0.407880 0.722925
vt 0.282770 0.795158
vt 0.157660 0.722926
vt 0.157660 0.578461
vn 0.266405 -0.707810 -0.654243
vn -0.391175 -0.749021 -0.534742
vn -0.471065 -0.648442 -0.598014
vn 0.387920 -0.474887 -0.789937
vn -0.838743 -0.539518 0.073691
vn -0.954376 -0.285861 0.086312
vn -0.463380 -0.346809 0.815477
vn -0.522891 -0.253643 0.813788
vn 0.247362 -0.423268 0.871583
vn 0.276929 -0.347192 0.895973
vn 0.715443 -0.696622 0.053478
vn 0.951934 -0.285789 0.110213
vn -0.692782 0.077946 -0.716923
vn 0.391580 0.353476 -0.849541
vn -0.963333 0.264443 0.045395
vn -0.525942 0.268035 0.807181
vn 0.320646 0.174885 0.930914
vn 0.828675 0.534969 0.164639
vn -0.505675 0.763296 -0.402084
vn 0.058495 0.882477 -0.466703
vn -0.689685 0.723776 -0.021980
vn -0.355555 0.824304 0.440573
vn 0.124549 0.803469 0.582173
vn 0.345346 0.933728 0.094276
s 1
g pSphere1
usemtl initialShadingGroup
f 1/1/1 2/2/2 8/3/3 7/4/4
f 2/9/2 3/10/5 9/11/6 8/12/3
f 3/10/5 4/13/7 10/14/8 9/11/6
f 4/21/7 5/22/9 11/23/10 10/24/8
f 5/29/9 6/30/11 12/31/12 11/32/10
f 6/30/11 1/33/1 7/34/4 12/31/12
f 7/4/4 8/3/3 14/5/13 13/6/14
f 8/12/3 9/11/6 15/15/15 14/16/13
f 9/11/6 10/14/8 16/17/16 15/15/15
f 10/24/8 11/23/10 17/25/17 16/26/16
f 11/32/10 12/31/12 18/35/18 17/36/17
f 12/31/12 7/34/4 13/37/14 18/35/18
f 13/6/14 14/5/13 20/7/19 19/8/20
f 14/16/13 15/15/15 21/18/21 20/19/19
f 15/15/15 16/17/16 22/20/22 21/18/21
f 16/26/16 17/25/17 23/27/23 22/28/22
f 17/36/17 18/35/18 24/38/24 23/39/23
f 18/35/18 13/37/14 19/40/20 24/38/24
f 24/41/24 19/42/20 20/43/19 21/44/21 22/45/22 23/46/23
