# This file uses meters as units for non-parametric coordinates.

mtllib balconindi3.mtl
g default
v -2.907559 0.490225 1.000000
v -2.907559 0.156226 1.000000
v 2.907559 0.156226 1.000000
v 2.907559 0.490225 1.000000
v -3.000000 0.490225 0.000000
v 3.000000 0.490225 0.000000
v 3.000000 0.156226 0.000000
v 2.843774 0.000000 0.000020
v -2.843774 0.000000 0.000742
v -3.000000 0.156226 0.000519
v 3.000000 0.490225 0.907559
v 3.000000 0.156226 0.907559
v -3.000000 0.156226 0.908078
v -3.000000 0.490225 0.907559
v -2.907559 1.000000 1.000000
v -3.073908 0.775939 1.128425
v 3.073908 0.775939 1.128425
v 2.907559 1.000000 1.000000
v -3.166349 0.775939 -0.027725
v -3.166349 0.775939 1.035984
v -3.000000 1.000000 0.907559
v -3.000000 1.000000 0.000000
v 3.000000 1.000000 0.000000
v 3.166349 0.775939 -0.027725
v 3.000000 1.000000 0.907559
v 3.166349 0.775939 1.035984
v -2.895333 0.627793 1.000000
v 2.895333 0.627793 1.000000
v -3.000000 0.627793 0.000000
v -3.000000 0.627793 0.900830
v 3.000000 0.627793 0.000000
v 3.000000 0.627793 0.900830
v 2.843774 0.000000 0.842848
v 2.842848 0.000000 0.843773
v -2.843226 0.000000 0.843773
v -2.843774 0.000000 0.843231
v -1.934148 1.340167 0.443567
v 1.934148 1.340167 0.443567
v 0.000000 2.616597 0.443567
v 0.000000 3.000000 0.018001
v 3.000000 1.020167 0.018001
v -3.000000 1.020167 0.018001
v 3.000000 1.020167 0.811701
v -3.000000 1.020167 0.811701
v 0.000000 3.000000 0.811701
v 1.934148 1.340167 0.811701
v -1.934148 1.340167 0.811701
v 0.000000 2.616597 0.811701
vt 0.378852 0.122556
vt 0.378852 0.039058
vt 0.621148 0.039057
vt 0.621148 0.122556
vt 0.375000 0.500000
vt 0.625000 0.500000
vt 0.625000 0.500000
vt 0.618491 0.500000
vt 0.381509 0.500000
vt 0.375000 0.500000
vt 0.648110 0.122556
vt 0.648110 0.039057
vt 0.875000 0.039057
vt 0.875000 0.122556
vt 0.125000 0.039057
vt 0.351890 0.039057
vt 0.351890 0.122556
vt 0.125000 0.122556
vt 0.378852 0.250000
vt 0.378649 0.193985
vt 0.621351 0.193985
vt 0.621148 0.250000
vt 0.125000 0.193985
vt 0.355011 0.193985
vt 0.351890 0.250000
vt 0.125000 0.250000
vt 0.375000 0.500000
vt 0.625000 0.500000
vt 0.625000 0.556015
vt 0.375000 0.556015
vt 0.648110 0.250000
vt 0.644989 0.193985
vt 0.875000 0.193985
vt 0.875000 0.250000
vt 0.379361 0.156948
vt 0.620638 0.156948
vt 0.125000 0.156948
vt 0.350207 0.156948
vt 0.625000 0.593052
vt 0.375000 0.593052
vt 0.649792 0.156948
vt 0.875000 0.156948
vt 0.625000 0.627444
vt 0.375000 0.627444
vt 0.375000 0.273110
vt 0.625000 0.273110
vt 0.375000 0.039057
vt 0.375000 0.122556
vt 0.375000 0.156948
vt 0.625000 0.039057
vt 0.625000 0.122556
vt 0.625000 0.156948
vt 0.625000 0.250000
vt 0.625000 0.204181
vt 0.625000 0.182639
vt 0.375000 0.250000
vt 0.375000 0.203909
vt 0.375000 0.182329
vt 0.618492 0.750001
vt 0.618491 0.960708
vt 0.618453 0.960940
vt 0.381532 0.960914
vt 0.381509 0.960778
vt 0.381509 0.750000
vt 0.375000 0.750000
vt 0.375000 0.976829
vt 0.378852 1.000000
vt 0.625000 0.750000
vt 0.625000 0.976890
vt 0.621148 1.000000
vt 0.381532 0.000000
vt 0.618452 0.000000
vt 0.375000 0.000000
vt 0.625000 0.000000
vt 0.500000 0.250000
vt 0.500000 0.500000
vt 0.625000 0.750000
vt 0.375000 0.750000
vt 0.625000 1.000000
vt 0.375000 1.000000
vt 0.625000 0.000000
vt 0.875000 0.000000
vt 0.875000 0.250000
vt 0.500000 0.250000
vt 0.125000 0.000000
vt 0.375000 0.000000
vt 0.125000 0.250000
vt 0.625000 0.000000
vt 0.375000 0.000000
vt 0.500000 0.250000
vn 0.000000 0.000000 1.000000
vn 0.000000 0.000000 1.000000
vn 0.000000 0.000000 1.000000
vn 0.000000 0.000000 1.000000
vn -0.000031 -0.000389 -1.000000
vn -0.000031 -0.000389 -1.000000
vn -0.000063 -0.000777 -1.000000
vn -0.000063 -0.000777 -1.000000
vn -0.000063 -0.000777 -1.000000
vn -0.000063 -0.000777 -1.000000
vn 1.000000 0.000000 0.000000
vn 1.000000 0.000000 0.000000
vn 1.000000 0.000000 0.000000
vn 1.000000 0.000000 0.000000
vn -1.000000 -0.000001 0.000000
vn -1.000000 -0.000001 0.000000
vn -1.000000 0.000000 0.000000
vn -1.000000 0.000000 0.000000
vn 0.000000 0.497276 0.867592
vn 0.000000 0.497276 0.867592
vn 0.000000 0.497276 0.867592
vn 0.000000 0.497276 0.867592
vn -0.802909 0.596101 0.000000
vn -0.802909 0.596101 0.000000
vn -0.802909 0.596101 0.000000
vn -0.802909 0.596101 0.000000
vn 0.000000 0.122801 -0.992431
vn 0.000000 0.122801 -0.992431
vn 0.000000 0.122801 -0.992431
vn 0.000000 0.122801 -0.992431
vn 0.802910 0.596101 0.000000
vn 0.802910 0.596101 0.000000
vn 0.802910 0.596101 0.000000
vn 0.802910 0.596101 0.000000
vn 0.000000 -0.655023 0.755609
vn 0.000000 -0.655023 0.755609
vn 0.000000 -0.655023 0.755609
vn 0.000000 -0.655023 0.755609
vn -0.665066 -0.746785 0.000000
vn -0.665066 -0.746785 0.000000
vn -0.665066 -0.746785 0.000000
vn -0.665066 -0.746785 0.000000
vn 0.000000 -0.183952 -0.982935
vn 0.000000 -0.183952 -0.982935
vn 0.000000 -0.092371 -0.995725
vn 0.000000 -0.092371 -0.995725
vn 0.665066 -0.746784 0.000000
vn 0.665066 -0.746784 0.000000
vn 0.665066 -0.746784 0.000000
vn 0.665066 -0.746784 0.000000
vn 0.000000 0.000000 1.000000
vn 0.000000 0.000000 1.000000
vn 0.000000 0.000000 1.000000
vn 0.000000 0.000000 1.000000
vn -1.000000 0.000000 0.000000
vn -1.000000 0.000000 0.000000
vn -1.000000 0.000000 0.000000
vn -1.000000 0.000000 0.000000
vn 0.000000 -0.092371 -0.995725
vn 0.000000 -0.092371 -0.995725
vn -0.000031 -0.000389 -1.000000
vn -0.000031 -0.000389 -1.000000
vn 1.000000 0.000000 0.000000
vn 1.000000 0.000000 0.000000
vn 1.000000 0.000000 0.000000
vn 1.000000 0.000000 0.000000
vn 0.000000 1.000000 0.000000
vn 0.000000 1.000000 0.000000
vn 0.000000 1.000000 0.000000
vn 0.000000 1.000000 0.000000
vn 0.000000 1.000000 0.000000
vn 0.000000 1.000000 0.000000
vn -0.706112 0.000550 0.708100
vn -0.706112 0.000550 0.708100
vn -0.701381 0.024510 0.712365
vn -0.701381 0.024510 0.712365
vn -0.701381 0.024510 0.712365
vn -0.701381 0.024510 0.712365
vn -0.696220 0.048454 0.716192
vn -0.696220 0.048454 0.716192
vn 0.707107 0.000000 0.707107
vn 0.707107 0.000000 0.707107
vn 0.701887 0.024235 0.711876
vn 0.701887 0.024235 0.711876
vn 0.701887 0.024235 0.711876
vn 0.701887 0.024235 0.711876
vn 0.696220 0.048454 0.716192
vn 0.696220 0.048454 0.716192
vn 0.517725 0.681118 0.517726
vn 0.517725 0.681118 0.517726
vn 0.517725 0.681118 0.517726
vn 0.517725 0.681118 0.517726
vn 0.395858 -0.823088 0.407214
vn 0.395858 -0.823088 0.407214
vn 0.395858 -0.823088 0.407214
vn 0.395858 -0.823088 0.407214
vn -0.517725 0.681117 0.517726
vn -0.517725 0.681117 0.517726
vn -0.517725 0.681117 0.517726
vn -0.517725 0.681117 0.517726
vn -0.395858 -0.823088 0.407214
vn -0.395858 -0.823088 0.407214
vn -0.395858 -0.823088 0.407214
vn -0.395858 -0.823088 0.407214
vn 0.000000 -1.000000 0.000000
vn 0.000000 -1.000000 0.000000
vn 0.000000 -1.000000 0.000000
vn 0.000000 -1.000000 0.000000
vn 0.000000 -1.000000 0.000000
vn 0.000000 -1.000000 0.000000
vn -0.707107 -0.707107 0.000000
vn -0.707107 -0.707107 0.000000
vn -0.707107 -0.707107 0.000000
vn -0.707107 -0.707107 0.000000
vn -0.498722 -0.706914 0.501548
vn -0.498722 -0.706914 0.501548
vn -0.498722 -0.706914 0.501548
vn -0.498722 -0.706914 0.501548
vn 0.707107 -0.707107 0.000000
vn 0.707107 -0.707107 0.000000
vn 0.707107 -0.707107 0.000000
vn 0.707107 -0.707107 0.000000
vn 0.499999 -0.707108 0.500000
vn 0.499999 -0.707108 0.500000
vn 0.499999 -0.707108 0.500000
vn 0.499999 -0.707108 0.500000
vn 0.000000 -0.707107 0.707107
vn 0.000000 -0.707107 0.707107
vn 0.000000 -0.707107 0.707107
vn 0.000000 -0.707107 0.707107
vn 0.000000 0.000000 1.000000
vn 0.000000 0.000000 1.000000
vn 0.000000 0.000000 1.000000
vn 0.000000 0.000000 -1.000000
vn 0.000000 0.000000 -1.000000
vn 0.000000 0.000000 -1.000000
vn 0.000000 -1.000000 0.000000
vn 0.000000 -1.000000 0.000000
vn 0.000000 -1.000000 0.000000
vn 0.000000 -1.000000 0.000000
vn 0.550810 0.834631 0.000000
vn 0.550810 0.834631 0.000000
vn 0.550810 0.834631 0.000000
vn 0.550810 0.834631 0.000000
vn -0.550810 0.834631 0.000000
vn -0.550810 0.834631 0.000000
vn -0.550810 0.834631 0.000000
vn -0.550810 0.834631 0.000000
vn 0.000000 0.000000 1.000000
vn 0.000000 0.000000 1.000000
vn 0.000000 0.000000 1.000000
vn 0.000000 0.000000 1.000000
vn 0.000000 0.000000 1.000000
vn 0.000000 0.000000 1.000000
vn 0.000000 0.000000 1.000000
vn 0.000000 0.000000 1.000000
vn 0.000000 0.000000 1.000000
vn 0.000000 0.000000 1.000000
vn 0.000000 0.000000 1.000000
vn 0.000000 0.000000 1.000000
vn 0.000000 1.000000 0.000000
vn 0.000000 1.000000 0.000000
vn 0.000000 1.000000 0.000000
vn 0.000000 1.000000 0.000000
vn -0.550810 -0.834631 0.000000
vn -0.550810 -0.834631 0.000000
vn -0.550810 -0.834631 0.000000
vn -0.550810 -0.834631 0.000000
vn 0.550810 -0.834631 0.000000
vn 0.550810 -0.834631 0.000000
vn 0.550810 -0.834631 0.000000
vn 0.550810 -0.834631 0.000000
s off
g polySurface1
usemtl initialShadingGroup1
f 1/1/1 2/2/2 3/3/3 4/4/4
f 5/5/5 6/6/6 7/7/7 8/8/8 9/9/9 10/10/10
f 11/11/11 12/12/12 7/13/13 6/14/14
f 10/15/15 13/16/16 14/17/17 5/18/18
f 15/19/19 16/20/20 17/21/21 18/22/22
f 19/23/23 20/24/24 21/25/25 22/26/26
f 22/27/27 23/28/28 24/29/29 19/30/30
f 25/31/31 26/32/32 24/33/33 23/34/34
f 16/20/35 27/35/36 28/36/37 17/21/38
f 29/37/39 30/38/40 20/24/41 19/23/42
f 19/30/43 24/29/44 31/39/45 29/40/46
f 26/32/47 32/41/48 31/42/49 24/33/50
f 27/35/51 1/1/52 4/4/53 28/36/54
f 5/18/55 14/17/56 30/38/57 29/37/58
f 29/40/59 31/39/60 6/43/61 5/44/62
f 32/41/63 11/11/64 6/14/65 31/42/66
f 21/45/67 15/19/68 18/22/69 25/46/70 23/28/71 22/27/72
f 13/47/73 2/2/74 1/1/75 14/48/76
f 14/48/77 1/1/78 27/35/79 30/49/80
f 3/3/81 12/50/82 11/51/83 4/4/84
f 4/4/85 11/51/86 32/52/87 28/36/88
f 25/53/89 18/22/90 17/21/91 26/54/92
f 26/55/93 17/21/94 28/36/95 32/52/96
f 15/19/97 21/56/98 20/57/99 16/20/100
f 16/20/101 20/58/102 30/49/103 27/35/104
f 8/59/105 33/60/106 34/61/107 35/62/108 36/63/109 9/64/110
f 10/65/111 9/64/112 36/63/113 13/66/114
f 13/66/115 36/63/116 35/62/117 2/67/118
f 8/59/119 7/68/120 12/69/121 33/60/122
f 33/60/123 12/69/124 3/70/125 34/61/126
f 2/2/127 35/71/128 34/72/129 3/3/130
f 37/73/131 38/74/132 39/75/133
f 40/76/134 41/77/135 42/78/136
f 42/78/137 41/77/138 43/79/139 44/80/140
f 43/81/141 41/82/142 40/83/143 45/84/144
f 42/85/145 44/86/146 45/84/147 40/87/148
f 44/86/149 43/81/150 46/88/151 47/89/152
f 43/81/153 45/84/154 48/90/155 46/88/156
f 45/84/157 44/86/158 47/89/159 48/90/160
f 47/89/161 46/88/162 38/74/163 37/73/164
f 46/88/165 48/90/166 39/75/167 38/74/168
f 48/90/169 47/89/170 37/73/171 39/75/172
