# This file uses centimeters as units for non-parametric coordinates.

mtllib scifi_building.mtl
v -18.176414 30.486698 -43.077637
v -18.176414 -0.012372 -43.077637
v -43.861580 -0.012355 -68.762756
v -43.861580 30.486698 -68.762756
v -52.397728 -0.012372 -8.856384
v -52.397728 30.486698 -8.856384
v -78.082802 30.486698 -34.541565
v -78.082802 -0.012372 -34.541565
v -43.861580 43.869320 -68.762756
v -4.995903 43.869320 -29.897156
v -78.082802 43.869320 -34.541565
v -39.217186 43.869320 4.324158
v -43.861580 72.546364 -68.762756
v -4.995903 72.546364 -29.897156
v -78.082802 72.546364 -34.541565
v -39.217186 72.546364 4.324158
v 35.063637 16.148178 9.397400
v 35.047615 16.148178 18.976379
v 37.580086 30.486698 19.381836
v 37.597450 30.486698 9.000549
v 9.555183 16.148178 44.383667
v -0.023674 16.148178 44.367615
v -0.429131 30.486698 46.900085
v 9.952187 30.486698 46.917419
v 34.405952 30.486698 -0.878052
v 28.318062 30.486698 -9.286865
v 26.501472 16.148178 -7.476440
v 32.118843 16.148178 0.282471
v 59.442726 30.486698 -43.077698
v 19.929604 30.486698 -15.402893
v 18.761421 16.148178 -13.119629
v 10.061775 30.486698 -18.627441
v 9.656319 16.148178 -16.094971
v 59.442726 30.486698 68.762756
v 59.442726 -0.012372 68.762756
v 59.442726 -0.012372 -43.077698
v 34.355568 30.486698 29.249634
v 32.072365 16.148178 28.081482
v 28.239571 30.486698 37.638062
v 26.429054 16.148178 35.821472
v 18.670204 16.148178 41.438843
v 19.830696 30.486698 43.725952
v -9.128777 16.148178 41.392334
v -10.296959 30.486698 43.675598
v -52.397728 -0.012372 68.762756
v -52.397728 30.486698 68.762756
v -16.868858 16.148178 35.749084
v -18.685356 30.486698 37.559570
v -24.773277 30.486698 29.150696
v -22.486198 16.148178 27.990173
v -27.964806 30.486698 19.272156
v -25.430992 16.148178 18.875244
v -25.414970 16.148178 9.296326
v -27.947380 30.486698 8.890869
v -24.722923 30.486698 -0.976929
v -22.439690 16.148178 0.191223
v -16.796410 16.148178 -7.548828
v -18.606895 30.486698 -9.365417
v -9.037529 16.148178 -13.166199
v -10.198082 30.486698 -15.453247
v -0.319511 30.486698 -18.644775
v 0.077461 16.148178 -16.111023
v 53.467415 37.851105 0.655640
v 53.467415 37.851105 55.140198
v 53.467415 27.815767 55.140198
v 53.467415 27.815767 0.655640
v 43.432259 37.851105 55.140198
v 43.432259 27.815767 55.140198
v 43.432259 37.851105 0.655640
v 43.432259 27.815767 0.655640
v 45.793068 42.125370 40.830688
v 45.793068 42.125370 59.414490
v 45.793068 23.541454 59.414490
v 45.793068 23.541454 40.830688
v 27.209175 42.125370 59.414490
v 27.209175 23.541454 59.414490
v 27.209145 42.125370 40.830750
v 27.209145 23.541454 40.830750
v 78.082802 56.730976 -37.342285
v 78.082802 56.730976 10.452759
v 78.082802 -0.012372 10.452759
v 78.082802 -0.012372 -37.342285
v 49.405769 56.730976 10.452820
v 49.405769 -0.012372 10.452820
v 49.405769 56.730976 -37.342285
v 49.405769 -0.012372 -37.342285
v 4.816322 16.148178 14.136353
v -16.079247 13.476433 32.205383
v 23.124367 13.476433 -6.998230
v 23.124367 90.426498 -6.998230
v -16.079247 90.426498 32.205383
v -16.079247 11.903975 -6.998230
v 23.124367 11.903975 32.205383
v 23.124367 71.925026 32.205383
v -16.079247 71.925026 -6.998230
v -24.198601 13.944825 12.603577
v 31.243690 13.944825 12.603577
v 31.243690 63.192867 12.603577
v -24.198601 63.192867 12.603577
v 3.522560 13.476433 -15.117615
v 3.522530 13.476433 40.324707
v 3.522530 90.426498 40.324707
v 3.522560 90.426498 -15.117615
vt 0.209141 0.895240
vt 0.208969 0.853240
vt 0.259491 0.853033
vt 0.259663 0.895033
vt 0.240118 0.853193
vt 0.240125 0.895618
vt 0.189089 0.895597
vt 0.189104 0.853177
vt 0.121099 0.895556
vt 0.121121 0.853137
vt 0.259739 0.913646
vt 0.183292 0.913960
vt 0.121099 0.895556
vt 0.189080 0.914396
vt 0.121089 0.914357
vt 0.266300 0.914432
vt 0.259903 0.953531
vt 0.183456 0.953845
vt 0.121089 0.914357
vt 0.189059 0.954682
vt 0.121068 0.954644
vt 0.266279 0.954720
vt 0.666465 0.594965
vt 0.704841 0.594965
vt 0.704841 0.617705
vt 0.666465 0.617705
vt 0.856112 0.299658
vt 0.954755 0.299658
vt 0.954755 0.411688
vt 0.856112 0.411688
vt 0.672743 0.497324
vt 0.672743 0.483979
vt 0.692551 0.483979
vt 0.692551 0.497324
vt 0.672743 0.484160
vt 0.672743 0.470388
vt 0.692551 0.470388
vt 0.692551 0.484160
vt 0.692551 0.451113
vt 0.692551 0.464359
vt 0.672743 0.464359
vt 0.672743 0.451113
vt 0.692551 0.437824
vt 0.672743 0.437824
vt 0.927409 0.769400
vt 0.917516 0.766203
vt 0.969674 0.744324
vt 0.692551 0.477565
vt 0.672743 0.477565
vt 0.927409 0.769400
vt 0.935831 0.775497
vt 0.692551 0.490724
vt 0.672743 0.490724
vt 0.941957 0.783898
vt 0.935831 0.775497
vt 0.941957 0.783898
vt 0.945186 0.793781
vt 0.120995 0.436820
vt 0.011987 0.436820
vt 0.011987 0.407388
vt 0.120995 0.407388
vt 0.692551 0.470553
vt 0.672743 0.470553
vt 0.857662 0.744325
vt 0.917516 0.766203
vt 0.907118 0.766221
vt 0.692551 0.457009
vt 0.672743 0.457009
vt 0.897236 0.769450
vt 0.857662 0.744325
vt 0.907118 0.766221
vt 0.672743 0.443362
vt 0.692551 0.443362
vt 0.888834 0.775576
vt 0.857662 0.744325
vt 0.897236 0.769450
vt 0.692551 0.497862
vt 0.672743 0.497862
vt 0.882737 0.783998
vt 0.879541 0.793891
vt 0.857662 0.744325
vt 0.882737 0.783998
vt 0.857662 0.744325
vt 0.888834 0.775576
vt 0.672743 0.456539
vt 0.692551 0.456539
vt 0.012337 0.377514
vt 0.121350 0.377514
vt 0.121350 0.406946
vt 0.012338 0.406946
vt 0.857662 0.856337
vt 0.857662 0.744325
vt 0.879541 0.793891
vt 0.879558 0.804289
vt 0.672743 0.442620
vt 0.692551 0.442620
vt 0.882787 0.814171
vt 0.857662 0.856337
vt 0.879558 0.804289
vt 0.692551 0.454147
vt 0.692551 0.468120
vt 0.672743 0.468120
vt 0.672743 0.454147
vt 0.888913 0.822573
vt 0.857662 0.856337
vt 0.882787 0.814171
vt 0.692551 0.440149
vt 0.672743 0.440149
vt 0.857662 0.856337
vt 0.888913 0.822573
vt 0.897335 0.828670
vt 0.897335 0.828670
vt 0.907229 0.831867
vt 0.857662 0.856337
vt 0.692551 0.485149
vt 0.672743 0.485149
vt 0.672743 0.471165
vt 0.692551 0.471165
vt 0.349158 0.853137
vt 0.349174 0.895557
vt 0.935401 0.856338
vt 0.857662 0.856337
vt 0.907229 0.831867
vt 0.917626 0.831850
vt 0.692551 0.457244
vt 0.672743 0.457244
vt 0.917626 0.831850
vt 0.927508 0.828621
vt 0.935401 0.856338
vt 0.672743 0.443450
vt 0.692551 0.443450
vt 0.927508 0.828621
vt 0.935910 0.822495
vt 0.935401 0.856338
vt 0.692551 0.494673
vt 0.672743 0.494673
vt 0.672743 0.481814
vt 0.692551 0.481814
vt 0.704841 0.594965
vt 0.666465 0.594965
vt 0.666465 0.576770
vt 0.704841 0.576770
vt 0.969674 0.822063
vt 0.935401 0.856338
vt 0.935910 0.822495
vt 0.942007 0.814073
vt 0.692551 0.468817
vt 0.672743 0.468817
vt 0.942007 0.814073
vt 0.945203 0.804179
vt 0.969674 0.822063
vt 0.692551 0.455724
vt 0.672743 0.455724
vt 0.474543 0.464121
vt 0.474543 0.434968
vt 0.549478 0.434968
vt 0.549478 0.464121
vt 0.945203 0.804179
vt 0.945186 0.793781
vt 0.969674 0.822063
vt 0.969674 0.822063
vt 0.945186 0.793781
vt 0.375733 0.763320
vt 0.375733 0.707794
vt 0.385963 0.707794
vt 0.385963 0.763321
vt 0.973509 0.192683
vt 0.962678 0.192683
vt 0.962678 0.181851
vt 0.973509 0.181851
vt 0.375645 0.763003
vt 0.375645 0.707472
vt 0.385875 0.707471
vt 0.385875 0.763004
vt 0.973509 0.204598
vt 0.962678 0.204598
vt 0.962678 0.193766
vt 0.973509 0.193766
vt 0.386038 0.762767
vt 0.375808 0.762768
vt 0.375808 0.707244
vt 0.386038 0.707245
vt 0.963578 0.124623
vt 0.946822 0.124623
vt 0.946822 0.107868
vt 0.963578 0.107868
vt 0.963578 0.142495
vt 0.946822 0.142495
vt 0.946822 0.125740
vt 0.963578 0.125740
vt 0.963578 0.160368
vt 0.946822 0.160368
vt 0.946822 0.143613
vt 0.963578 0.143613
vt 0.970556 0.198538
vt 0.953801 0.198538
vt 0.953801 0.181783
vt 0.970556 0.181783
vt 0.970556 0.199655
vt 0.970556 0.216411
vt 0.953801 0.216411
vt 0.953801 0.199655
vt 0.309007 0.564468
vt 0.261033 0.564468
vt 0.261033 0.507859
vt 0.309007 0.507859
vt 0.336072 0.576899
vt 0.306907 0.576899
vt 0.306907 0.519541
vt 0.336072 0.519541
vt 0.587431 0.564447
vt 0.539457 0.564445
vt 0.539457 0.507834
vt 0.587431 0.507836
vt 0.935575 0.214185
vt 0.906410 0.214185
vt 0.906410 0.156826
vt 0.935575 0.156826
vt 0.415295 0.801242
vt 0.415295 0.829509
vt 0.368183 0.829509
vt 0.368183 0.801242
vt 0.963781 0.620108
vt 0.967953 0.632950
vt 0.925328 0.639701
vt 0.967953 0.632950
vt 0.967953 0.646452
vt 0.967953 0.646452
vt 0.963780 0.659294
vt 0.963780 0.659294
vt 0.955844 0.670217
vt 0.955844 0.670217
vt 0.944919 0.678154
vt 0.944919 0.678154
vt 0.932078 0.682326
vt 0.932078 0.682326
vt 0.918576 0.682326
vt 0.918576 0.682326
vt 0.905735 0.678154
vt 0.905735 0.678154
vt 0.894811 0.670218
vt 0.894811 0.670218
vt 0.886875 0.659294
vt 0.886875 0.659294
vt 0.882702 0.646452
vt 0.882702 0.646452
vt 0.882702 0.632950
vt 0.882702 0.632950
vt 0.886875 0.620108
vt 0.886875 0.620108
vt 0.894811 0.609184
vt 0.894811 0.609184
vt 0.905736 0.601248
vt 0.905736 0.601248
vt 0.918577 0.597075
vt 0.918577 0.597075
vt 0.932079 0.597075
vt 0.932079 0.597075
vt 0.944921 0.601248
vt 0.944921 0.601248
vt 0.955844 0.609184
vt 0.955844 0.609184
vt 0.963781 0.620108
vt 0.694256 0.296992
vt 0.664744 0.296992
vt 0.664744 0.253008
vt 0.694256 0.253008
vt 0.659282 0.306043
vt 0.614718 0.306043
vt 0.614718 0.243957
vt 0.659282 0.243957
vt 0.822756 0.308873
vt 0.793244 0.308873
vt 0.793244 0.245127
vt 0.822756 0.245127
vt 0.748256 0.305373
vt 0.718744 0.305373
vt 0.718744 0.241627
vt 0.748256 0.241627
vn 0.707107 0.000000 -0.707107
vn 0.707107 0.000000 -0.707107
vn 0.707107 0.000000 -0.707107
vn 0.707107 0.000000 -0.707107
vn -0.707109 0.000000 0.707105
vn -0.707109 0.000000 0.707105
vn -0.707109 0.000000 0.707105
vn -0.707109 0.000000 0.707105
vn -0.707107 0.000000 -0.707107
vn -0.707107 0.000000 -0.707107
vn -0.707107 0.000000 -0.707107
vn -0.707107 0.000000 -0.707107
vn 0.707106 -0.000001 -0.707108
vn 0.707106 -0.000001 -0.707108
vn 0.707106 -0.000001 -0.707108
vn 0.707106 -0.000001 -0.707108
vn -0.707106 0.000000 -0.707107
vn -0.707106 0.000000 -0.707107
vn -0.707106 0.000000 -0.707107
vn -0.707106 0.000000 -0.707107
vn -0.707108 0.000002 0.707105
vn -0.707108 0.000002 0.707105
vn -0.707108 0.000002 0.707105
vn -0.707108 0.000002 0.707105
vn 0.707106 0.000000 -0.707107
vn 0.707106 0.000000 -0.707107
vn 0.707106 0.000000 -0.707107
vn 0.707106 0.000000 -0.707107
vn -0.707107 0.000000 -0.707107
vn -0.707107 0.000000 -0.707107
vn -0.707107 0.000000 -0.707107
vn -0.707107 0.000000 -0.707107
vn -0.707108 0.000000 0.707106
vn -0.707108 0.000000 0.707106
vn -0.707108 0.000000 0.707106
vn -0.707108 0.000000 0.707106
vn 0.707107 0.000000 0.707106
vn 0.707107 0.000000 0.707106
vn 0.707107 0.000000 0.707106
vn 0.707107 0.000000 0.707106
vn 0.000000 1.000000 0.000000
vn 0.000000 1.000000 0.000000
vn 0.000000 1.000000 0.000000
vn 0.000000 1.000000 0.000000
vn -0.984749 0.173972 -0.001647
vn -0.984749 0.173972 -0.001647
vn -0.984749 0.173972 -0.001647
vn -0.984749 0.173972 -0.001647
vn 0.001640 0.173972 -0.984749
vn 0.001640 0.173972 -0.984749
vn 0.001640 0.173972 -0.984749
vn 0.001640 0.173972 -0.984749
vn -0.797649 0.173971 0.577487
vn -0.797649 0.173971 0.577487
vn -0.797649 0.173971 0.577487
vn -0.797649 0.173971 0.577487
vn -0.937060 0.173972 0.302740
vn -0.937060 0.173972 0.302740
vn -0.937060 0.173972 0.302740
vn -0.937060 0.173972 0.302740
vn 0.000000 1.000000 0.000000
vn 0.000000 1.000000 0.000000
vn 0.000000 1.000000 0.000000
vn -0.580145 0.173974 0.795717
vn -0.580145 0.173974 0.795717
vn -0.580145 0.173974 0.795717
vn -0.580145 0.173974 0.795717
vn 0.000000 1.000000 -0.000000
vn 0.000000 1.000000 -0.000000
vn 0.000000 1.000000 -0.000000
vn -0.305879 0.173974 0.936040
vn -0.305879 0.173974 0.936040
vn -0.305879 0.173974 0.936040
vn -0.305879 0.173974 0.936040
vn 0.000000 1.000000 0.000000
vn 0.000000 1.000000 0.000000
vn 0.000000 1.000000 0.000000
vn 0.000000 1.000000 0.000000
vn 0.000000 1.000000 0.000000
vn 0.000000 1.000000 0.000000
vn 1.000000 0.000000 0.000000
vn 1.000000 0.000000 0.000000
vn 1.000000 0.000000 0.000000
vn 1.000000 0.000000 0.000000
vn -0.936043 0.173973 -0.305871
vn -0.936043 0.173973 -0.305871
vn -0.936043 0.173973 -0.305871
vn -0.936043 0.173973 -0.305871
vn 0.000000 1.000000 0.000000
vn 0.000000 1.000000 0.000000
vn 0.000000 1.000000 0.000000
vn 0.000000 1.000000 0.000000
vn -0.795709 0.173973 -0.580155
vn -0.795709 0.173973 -0.580155
vn -0.795709 0.173973 -0.580155
vn -0.795709 0.173973 -0.580155
vn 0.000000 1.000000 -0.000000
vn 0.000000 1.000000 -0.000000
vn 0.000000 1.000000 -0.000000
vn -0.577488 0.173973 -0.797647
vn -0.577488 0.173973 -0.797647
vn -0.577488 0.173973 -0.797647
vn -0.577488 0.173973 -0.797647
vn 0.000000 1.000000 0.000000
vn 0.000000 1.000000 0.000000
vn 0.000000 1.000000 0.000000
vn -0.302736 0.173971 -0.937062
vn -0.302736 0.173971 -0.937062
vn -0.302736 0.173971 -0.937062
vn -0.302736 0.173971 -0.937062
vn 0.000000 1.000000 0.000001
vn 0.000000 1.000000 0.000001
vn 0.000000 1.000000 0.000001
vn 0.000000 1.000000 0.000000
vn 0.000000 1.000000 0.000000
vn 0.000000 1.000000 0.000000
vn 0.305873 0.173975 -0.936042
vn 0.305873 0.173975 -0.936042
vn 0.305873 0.173975 -0.936042
vn 0.305873 0.173975 -0.936042
vn 0.000000 0.000000 1.000000
vn 0.000000 0.000000 1.000000
vn 0.000000 0.000000 1.000000
vn 0.000000 0.000000 1.000000
vn 0.000000 1.000000 -0.000000
vn 0.000000 1.000000 -0.000000
vn 0.000000 1.000000 -0.000000
vn 0.000000 1.000000 -0.000000
vn 0.580154 0.173974 -0.795710
vn 0.580154 0.173974 -0.795710
vn 0.580154 0.173974 -0.795710
vn 0.580154 0.173974 -0.795710
vn 0.000000 1.000000 -0.000000
vn 0.000000 1.000000 -0.000000
vn 0.000000 1.000000 -0.000000
vn 0.797646 0.173971 -0.577490
vn 0.797646 0.173971 -0.577490
vn 0.797646 0.173971 -0.577490
vn 0.797646 0.173971 -0.577490
vn 0.000000 1.000000 0.000000
vn 0.000000 1.000000 0.000000
vn 0.000000 1.000000 0.000000
vn 0.937060 0.173972 -0.302741
vn 0.937060 0.173972 -0.302741
vn 0.937060 0.173972 -0.302741
vn 0.937060 0.173972 -0.302741
vn 0.000000 1.000000 -0.000000
vn 0.000000 1.000000 -0.000000
vn 0.000000 1.000000 -0.000000
vn 0.000000 1.000000 0.000000
vn 0.000000 1.000000 0.000000
vn 0.000000 1.000000 0.000000
vn 0.984750 0.173970 0.001650
vn 0.984750 0.173970 0.001650
vn 0.984750 0.173970 0.001650
vn 0.984750 0.173970 0.001650
vn -1.000000 0.000000 0.000000
vn -1.000000 0.000000 0.000000
vn -1.000000 0.000000 0.000000
vn -1.000000 0.000000 0.000000
vn 0.000000 1.000000 0.000000
vn 0.000000 1.000000 0.000000
vn 0.000000 1.000000 0.000000
vn 0.000000 1.000000 0.000000
vn 0.936045 0.173969 0.305868
vn 0.936045 0.173969 0.305868
vn 0.936045 0.173969 0.305868
vn 0.936045 0.173969 0.305868
vn 0.000000 1.000000 0.000000
vn 0.000000 1.000000 0.000000
vn 0.000000 1.000000 0.000000
vn 0.795712 0.173972 0.580152
vn 0.795712 0.173972 0.580152
vn 0.795712 0.173972 0.580152
vn 0.795712 0.173972 0.580152
vn 0.000000 1.000000 -0.000000
vn 0.000000 1.000000 -0.000000
vn 0.000000 1.000000 -0.000000
vn 0.577484 0.173972 0.797650
vn 0.577484 0.173972 0.797650
vn 0.577484 0.173972 0.797650
vn 0.577484 0.173972 0.797650
vn 0.412390 -0.812324 0.412390
vn 0.412390 -0.812324 0.412390
vn 0.412390 -0.812324 0.412390
vn 0.412390 -0.812324 0.412390
vn 0.000000 1.000000 -0.000000
vn 0.000000 1.000000 -0.000000
vn 0.000000 1.000000 -0.000000
vn 0.000000 1.000000 -0.000000
vn 0.302748 0.173969 0.937059
vn 0.302748 0.173969 0.937059
vn 0.302748 0.173969 0.937059
vn 0.302748 0.173969 0.937059
vn 0.000000 1.000000 -0.000000
vn 0.000000 1.000000 -0.000000
vn 0.000000 1.000000 -0.000000
vn -0.001653 0.173971 0.984749
vn -0.001653 0.173971 0.984749
vn -0.001653 0.173971 0.984749
vn -0.001653 0.173971 0.984749
vn -0.000001 0.000000 -1.000000
vn -0.000001 0.000000 -1.000000
vn -0.000001 0.000000 -1.000000
vn -0.000001 0.000000 -1.000000
vn 0.000000 1.000000 0.000000
vn 0.000000 1.000000 0.000000
vn 0.000000 1.000000 0.000000
vn 0.000000 1.000000 0.000000
vn 0.000000 1.000000 0.000000
vn 0.000000 1.000000 0.000000
vn 1.000000 0.000000 0.000000
vn 1.000000 0.000000 0.000000
vn 1.000000 0.000000 0.000000
vn 1.000000 0.000000 0.000000
vn 0.000000 0.000000 1.000000
vn 0.000000 0.000000 1.000000
vn 0.000000 0.000000 1.000000
vn 0.000000 0.000000 1.000000
vn -1.000000 0.000000 0.000000
vn -1.000000 0.000000 0.000000
vn -1.000000 0.000000 0.000000
vn -1.000000 0.000000 0.000000
vn 0.000000 0.000000 -1.000000
vn 0.000000 0.000000 -1.000000
vn 0.000000 0.000000 -1.000000
vn 0.000000 0.000000 -1.000000
vn 0.000000 1.000000 0.000000
vn 0.000000 1.000000 0.000000
vn 0.000000 1.000000 0.000000
vn 0.000000 1.000000 0.000000
vn 1.000000 0.000000 0.000000
vn 1.000000 0.000000 0.000000
vn 1.000000 0.000000 0.000000
vn 1.000000 0.000000 0.000000
vn 0.000000 0.000000 1.000000
vn 0.000000 0.000000 1.000000
vn 0.000000 0.000000 1.000000
vn 0.000000 0.000000 1.000000
vn -1.000000 0.000000 0.000002
vn -1.000000 0.000000 0.000002
vn -1.000000 0.000000 0.000002
vn -1.000000 0.000000 0.000002
vn -0.000003 0.000000 -1.000000
vn -0.000003 0.000000 -1.000000
vn -0.000003 0.000000 -1.000000
vn -0.000003 0.000000 -1.000000
vn 0.000000 1.000000 0.000000
vn 0.000000 1.000000 0.000000
vn 0.000000 1.000000 0.000000
vn 0.000000 1.000000 0.000000
vn 1.000000 0.000000 0.000000
vn 1.000000 0.000000 0.000000
vn 1.000000 0.000000 0.000000
vn 1.000000 0.000000 0.000000
vn 0.000002 0.000000 1.000000
vn 0.000002 0.000000 1.000000
vn 0.000002 0.000000 1.000000
vn 0.000002 0.000000 1.000000
vn -1.000000 0.000000 0.000000
vn -1.000000 0.000000 0.000000
vn -1.000000 0.000000 0.000000
vn -1.000000 0.000000 0.000000
vn 0.000000 0.000000 -1.000000
vn 0.000000 0.000000 -1.000000
vn 0.000000 0.000000 -1.000000
vn 0.000000 0.000000 -1.000000
vn 0.000000 1.000000 0.000000
vn 0.000000 1.000000 0.000000
vn 0.000000 1.000000 0.000000
vn 0.000000 1.000000 0.000000
vn 0.000000 1.000000 0.000000
vn 0.000000 1.000000 0.000000
vn 0.000000 1.000000 0.000000
vn 0.000000 1.000000 0.000000
vn 0.000000 1.000000 0.000000
vn 0.000000 1.000000 0.000000
vn 0.000000 1.000000 0.000000
vn 0.000000 1.000000 0.000000
vn 0.000000 1.000000 0.000000
vn 0.000000 1.000000 0.000000
vn 0.000000 1.000000 0.000000
vn 0.000000 1.000000 0.000000
vn 0.000000 1.000000 -0.000000
vn 0.000000 1.000000 -0.000000
vn 0.000000 1.000000 -0.000000
vn 0.000000 1.000000 0.000000
vn 0.000000 1.000000 0.000000
vn 0.000000 1.000000 0.000000
vn 0.000000 1.000000 0.000000
vn 0.000000 1.000000 0.000000
vn 0.000000 1.000000 0.000000
vn 0.000000 1.000000 0.000000
vn 0.000000 1.000000 0.000000
vn 0.000000 1.000000 0.000000
vn 0.000000 1.000000 0.000000
vn 0.000000 1.000000 0.000000
vn 0.000000 1.000000 0.000000
vn 0.000000 1.000000 0.000000
vn 0.000000 1.000000 0.000000
vn 0.000000 1.000000 0.000000
vn 0.000000 1.000000 0.000000
vn 0.000000 1.000000 0.000000
vn 0.000000 1.000000 0.000000
vn 0.000000 1.000000 0.000000
vn 0.000000 1.000000 0.000000
vn 0.000000 1.000000 0.000000
vn 0.000000 1.000000 0.000000
vn 0.000000 1.000000 0.000000
vn 0.000000 1.000000 0.000000
vn 0.000000 1.000000 0.000000
vn 0.000000 1.000000 0.000000
vn 0.000000 1.000000 0.000000
vn 0.000000 1.000000 0.000000
vn 0.000000 1.000000 0.000000
vn 0.000000 1.000000 0.000000
vn 0.000000 1.000000 0.000000
vn 0.000000 1.000000 0.000000
vn 0.000000 1.000000 0.000000
vn 0.000000 1.000000 0.000000
vn 0.000000 1.000000 0.000000
vn 0.000000 1.000000 0.000000
vn 0.000000 1.000000 0.000000
vn 0.000000 1.000000 0.000000
vn 0.000000 1.000000 0.000000
vn 0.000000 1.000000 0.000000
vn 0.000000 1.000000 0.000000
vn 0.000000 1.000000 0.000000
vn 0.000000 1.000000 0.000000
vn 0.000000 1.000000 0.000000
vn 0.000000 1.000000 0.000000
vn 0.707107 0.000000 0.707107
vn 0.707107 0.000000 0.707107
vn 0.707107 0.000000 0.707107
vn 0.707107 0.000000 0.707107
vn -0.707107 0.000000 0.707107
vn -0.707107 0.000000 0.707107
vn -0.707107 0.000000 0.707107
vn -0.707107 0.000000 0.707107
vn 0.000000 0.000000 1.000000
vn 0.000000 0.000000 1.000000
vn 0.000000 0.000000 1.000000
vn 0.000000 0.000000 1.000000
vn -1.000000 0.000000 -0.000001
vn -1.000000 0.000000 -0.000001
vn -1.000000 0.000000 -0.000001
vn -1.000000 0.000000 -0.000001
g building_54
usemtl lambert2SG
f 1/1/1 2/2/2 3/3/3 4/4/4
f 5/5/5 6/6/6 7/7/7 8/8/8
f 4/9/9 3/10/10 8/8/11 7/7/12
f 1/1/13 4/4/14 9/11/15 10/12/16
f 4/13/17 7/7/18 11/14/19 9/15/20
f 7/7/21 6/6/22 12/16/23 11/14/24
f 10/12/25 9/11/26 13/17/27 14/18/28
f 9/19/29 11/14/30 15/20/31 13/21/32
f 11/14/33 12/16/34 16/22/35 15/20/36
f 12/23/37 10/24/38 14/25/39 16/26/40
f 16/27/41 14/28/42 13/29/43 15/30/44
f 17/31/45 18/32/46 19/33/47 20/34/48
f 21/35/49 22/36/50 23/37/51 24/38/52
f 25/39/53 26/40/54 27/41/55 28/42/56
f 20/43/57 25/39/58 28/42/59 17/44/60
f 25/45/61 20/46/62 29/47/63
f 30/48/64 31/49/65 27/41/66 26/40/67
f 25/50/68 29/47/69 26/51/70
f 30/48/71 32/52/72 33/53/73 31/49/74
f 29/47/75 30/54/76 26/55/77
f 30/56/78 29/47/79 32/57/80
f 29/58/81 34/59/82 35/60/83 36/61/84
f 37/62/85 19/33/86 18/32/87 38/63/88
f 34/64/89 29/47/90 20/65/91 19/66/92
f 39/67/93 37/62/94 38/63/95 40/68/96
f 37/69/97 34/70/98 19/71/99
f 39/67/100 40/68/101 41/72/102 42/73/103
f 39/74/104 34/75/105 37/76/106
f 42/77/107 41/78/108 21/35/109 24/38/110
f 42/79/111 24/80/112 34/81/113
f 42/82/114 34/83/115 39/84/116
f 23/37/117 22/36/118 43/85/119 44/86/120
f 45/87/121 35/88/122 34/89/123 46/90/124
f 46/91/125 34/92/126 24/93/127 23/94/128
f 44/86/129 43/85/130 47/95/131 48/96/132
f 44/97/133 46/98/134 23/99/135
f 49/100/136 48/101/137 47/102/138 50/103/139
f 48/104/140 46/105/141 44/106/142
f 51/107/143 49/100/144 50/103/145 52/108/146
f 46/109/147 48/110/148 49/111/149
f 49/112/150 51/113/151 46/114/152
f 51/115/153 52/116/154 53/117/155 54/118/156
f 45/119/157 46/120/158 6/6/159 5/5/160
f 6/121/161 46/122/162 51/123/163 54/124/164
f 55/125/165 54/118/166 53/117/167 56/126/168
f 54/127/169 55/128/170 6/129/171
f 55/125/172 56/126/173 57/130/174 58/131/175
f 55/132/176 58/133/177 6/134/178
f 58/135/179 57/136/180 59/137/181 60/138/182
f 10/139/183 12/140/184 6/141/185 1/142/186
f 1/143/187 6/144/188 58/145/189 60/146/190
f 61/147/191 60/138/192 59/137/193 62/148/194
f 60/149/195 61/150/196 1/151/197
f 32/152/198 61/147/199 62/148/200 33/153/201
f 29/154/202 36/155/203 2/156/204 1/157/205
f 61/158/206 32/159/207 1/160/208
f 29/47/209 1/161/210 32/162/211
f 63/163/212 64/164/213 65/165/214 66/166/215
f 64/167/216 67/168/217 68/169/218 65/170/219
f 67/171/220 69/172/221 70/173/222 68/174/223
f 69/175/224 63/176/225 66/177/226 70/178/227
f 63/179/228 69/180/229 67/181/230 64/182/231
f 71/183/232 72/184/233 73/185/234 74/186/235
f 72/187/236 75/188/237 76/189/238 73/190/239
f 75/191/240 77/192/241 78/193/242 76/194/243
f 77/195/244 71/196/245 74/197/246 78/198/247
f 71/199/248 77/200/249 75/201/250 72/202/251
f 79/203/252 80/204/253 81/205/254 82/206/255
f 80/207/256 83/208/257 84/209/258 81/210/259
f 83/211/260 85/212/261 86/213/262 84/214/263
f 85/215/264 79/216/265 82/217/266 86/218/267
f 79/219/268 85/220/269 83/221/270 80/222/271
f 27/223/272 31/224/273 87/225/274
f 31/226/275 33/227/276 87/225/277
f 33/228/278 62/229/279 87/225/280
f 62/230/281 59/231/282 87/225/283
f 59/232/284 57/233/285 87/225/286
f 57/234/287 56/235/288 87/225/289
f 56/236/290 53/237/291 87/225/292
f 53/238/293 52/239/294 87/225/295
f 52/240/296 50/241/297 87/225/298
f 50/242/299 47/243/300 87/225/301
f 47/244/302 43/245/303 87/225/304
f 43/246/305 22/247/306 87/225/307
f 22/248/308 21/249/309 87/225/310
f 21/250/311 41/251/312 87/225/313
f 41/252/314 40/253/315 87/225/316
f 40/254/317 38/255/318 87/225/319
f 38/256/320 18/257/321 87/225/322
f 18/258/323 17/259/324 87/225/325
f 17/260/326 28/261/327 87/225/328
f 28/262/329 27/263/330 87/225/331
f 88/264/332 89/265/333 90/266/334 91/267/335
f 92/268/336 93/269/337 94/270/338 95/271/339
f 96/272/340 97/273/341 98/274/342 99/275/343
f 100/276/344 101/277/345 102/278/346 103/279/347
