# This file uses centimeters as units for non-parametric coordinates.

mtllib scifi_building.mtl
v -19.456604 47.984798 18.889923
v -19.456604 47.984798 -18.889923
v -19.456604 -0.012373 -18.889923
v -19.456604 -0.012373 18.889923
v 19.456604 5.973653 -12.920685
v 19.456604 5.973653 12.920685
v 12.353989 -0.012373 18.889923
v 12.353989 -0.012373 -18.889923
v 12.353989 47.984798 18.889923
v 19.456604 42.015587 12.920685
v 12.353989 47.984798 -18.889923
v 19.456604 42.015587 -12.920685
vt 0.846952 0.498663
vt 0.791608 0.498663
vt 0.791608 0.428377
vt 0.846952 0.428377
vt 0.886111 0.171415
vt 0.886112 0.209163
vt 0.872559 0.217883
vt 0.872559 0.162695
vt 0.972224 0.188479
vt 0.972224 0.120546
vt 0.985360 0.128998
vt 0.985360 0.180027
vt 0.875538 0.124340
vt 0.943471 0.124340
vt 0.935019 0.137476
vt 0.883990 0.137476
vt 0.913948 0.171473
vt 0.969136 0.171472
vt 0.960416 0.185025
vt 0.922668 0.185025
vt 0.969559 0.210695
vt 0.969559 0.265883
vt 0.923091 0.265883
vt 0.923091 0.210695
vt 0.705024 0.436854
vt 0.705024 0.504787
vt 0.659985 0.504787
vt 0.659985 0.436854
vt 0.722474 0.510526
vt 0.722474 0.424034
vt 0.784486 0.424034
vt 0.784486 0.510526
vt 0.596185 0.506479
vt 0.596185 0.438546
vt 0.641224 0.438546
vt 0.641224 0.506479
vt 0.223165 0.636149
vt 0.281919 0.636149
vt 0.281919 0.705928
vt 0.223165 0.705928
vn -1.000000 0.000000 0.000000
vn -1.000000 0.000000 0.000000
vn -1.000000 0.000000 0.000000
vn -1.000000 0.000000 0.000000
vn 0.644442 -0.764653 0.000000
vn 0.644442 -0.764653 0.000000
vn 0.644442 -0.764653 0.000000
vn 0.644442 -0.764653 0.000000
vn 0.643387 0.000000 0.765541
vn 0.643387 0.000000 0.765541
vn 0.643387 0.000000 0.765541
vn 0.643387 0.000000 0.765541
vn 0.643390 0.000000 -0.765539
vn 0.643390 0.000000 -0.765539
vn 0.643390 0.000000 -0.765539
vn 0.643390 0.000000 -0.765539
vn 0.643382 0.765545 0.000000
vn 0.643382 0.765545 0.000000
vn 0.643382 0.765545 0.000000
vn 0.643382 0.765545 0.000000
vn 0.000000 -1.000000 0.000000
vn 0.000000 -1.000000 0.000000
vn 0.000000 -1.000000 0.000000
vn 0.000000 -1.000000 0.000000
vn 0.000000 0.000000 -1.000000
vn 0.000000 0.000000 -1.000000
vn 0.000000 0.000000 -1.000000
vn 0.000000 0.000000 -1.000000
vn 1.000000 0.000000 0.000000
vn 1.000000 0.000000 0.000000
vn 1.000000 0.000000 0.000000
vn 1.000000 0.000000 0.000000
vn 0.000000 0.000000 1.000000
vn 0.000000 0.000000 1.000000
vn 0.000000 0.000000 1.000000
vn 0.000000 0.000000 1.000000
vn 0.000000 1.000000 0.000000
vn 0.000000 1.000000 0.000000
vn 0.000000 1.000000 0.000000
vn 0.000000 1.000000 0.000000
g building_11
usemtl lambert2SG
f 1/1/1 2/2/2 3/3/3 4/4/4
f 5/5/5 6/6/6 7/7/7 8/8/8
f 9/9/9 7/10/10 6/11/11 10/12/12
f 8/13/13 11/14/14 12/15/15 5/16/16
f 11/17/17 9/18/18 10/19/19 12/20/20
f 8/21/21 7/22/22 4/23/23 3/24/24
f 11/25/25 8/26/26 3/27/27 2/28/28
f 10/29/29 6/30/30 5/31/31 12/32/32
f 1/33/33 4/34/34 7/35/35 9/36/36
f 1/37/37 9/38/38 11/39/39 2/40/40
