# This file uses centimeters as units for non-parametric coordinates.

mtllib scifi_building.mtl
v 23.117428 47.034439 -16.344452
v 38.215483 47.034439 -1.246429
v 38.215483 31.936386 -16.344452
v 38.215483 47.034439 15.591888
v 23.117428 47.034439 30.689972
v 38.215483 31.936386 30.689972
v 0.377552 74.314415 0.809784
v -0.918370 74.314415 6.775604
v 0.072668 74.314415 12.799713
v 3.374839 74.314415 17.934540
v 8.335304 74.314415 21.493439
v 14.301152 74.314415 22.789337
v 20.325228 74.314415 21.798309
v 25.460071 74.314415 18.496124
v 29.018980 74.314415 13.535736
v 30.314921 74.314415 7.569855
v 29.323857 74.314415 1.545746
v 26.021663 74.314415 -3.589081
v 21.061224 74.314415 -7.147980
v 15.095376 74.314415 -8.443878
v 9.071298 74.314415 -7.452850
v 3.936435 74.314415 -4.150665
v 20.325228 83.015785 21.798309
v 25.460071 83.015785 18.496124
v 9.071298 83.015785 -7.452850
v 3.936435 83.015785 -4.150665
v 8.335304 83.015785 21.493439
v 14.301152 83.015785 22.789337
v 15.095376 83.015785 -8.443878
v 0.072668 83.015785 12.799713
v 3.374839 83.015785 17.934540
v 29.018980 83.015785 13.535736
v 30.314921 83.015785 7.569855
v 29.323857 83.015785 1.545746
v 26.021663 83.015785 -3.589081
v 0.377552 83.015785 0.809784
v -0.918370 83.015785 6.775604
v 6.279098 83.015785 -16.344452
v 23.117428 83.015785 -16.344452
v 21.061224 83.015785 -7.147980
v 38.215483 83.015785 -1.246429
v 38.215483 83.015785 15.591888
v 23.117428 83.015785 30.689972
v -8.818957 83.015785 15.591888
v 6.279098 83.015785 30.689972
v -8.818957 83.015785 -1.246429
v -8.818957 47.034439 -1.246429
v 6.279098 47.034439 -16.344452
v -8.818957 31.936386 -16.344452
v -8.818957 47.034439 15.591888
v -8.818957 31.936386 30.689972
v 6.279098 47.034439 30.689972
v -8.818957 -0.012372 -16.344452
v 38.215483 -0.012372 -16.344452
v 38.215483 -0.012372 30.689972
v -8.818957 -0.012372 30.689972
v -38.215483 31.936386 30.689972
v -38.215483 -0.012372 30.689972
v -38.215483 31.936386 -16.344452
v -38.215483 -0.012372 -16.344452
v -8.818957 31.936386 -30.689972
v -38.215483 31.936386 -30.689972
v -8.818957 -0.012372 -30.689972
v -38.215483 -0.012372 -30.689972
v 38.215483 70.904419 -1.246429
v 38.215483 70.904419 15.591888
v 23.117428 70.904419 -16.344452
v -8.818957 70.904419 -1.246429
v 6.279098 70.904419 -16.344452
v -8.818957 70.904419 15.591888
v 6.279098 70.904419 30.689972
v 23.117428 70.904419 30.689972
v -16.109293 47.034439 15.591888
v -16.109293 47.034439 -1.246429
v -25.986529 70.904419 15.591888
v -25.986529 70.904419 -1.246429
v -25.986529 56.911671 -1.246429
v -25.986529 56.911671 15.591888
v 29.939443 63.261322 1.582611
v -0.778109 63.261322 12.762909
v -0.778109 119.467476 12.762909
v 29.939443 119.467476 1.582611
v 8.990541 46.328922 -8.186066
v 20.170814 46.328922 22.531525
v 20.170814 102.535080 22.531525
v 8.990541 102.535080 -8.186066
v 21.488156 49.621330 -7.640350
v 7.673198 49.621330 21.985870
v 7.673198 105.827492 21.985870
v 21.488156 105.827492 -7.640350
v -0.232440 49.621330 0.265289
v 29.393798 49.621330 14.080231
v 29.393798 105.827492 14.080231
v -0.232440 105.827492 0.265289
v 26.137934 63.261322 -4.384491
v 3.023397 63.261322 18.729950
v 3.023397 119.467476 18.729950
v 26.137934 119.467476 -4.384491
v 3.023397 35.981346 -4.384491
v 26.137934 35.981346 18.729950
v 26.137934 92.187500 18.729950
v 3.023397 92.187500 -4.384491
v 14.580678 73.138550 -9.171722
v 14.580678 73.138550 23.517242
v 14.580678 129.344711 23.517242
v 14.580678 129.344711 -9.171722
v -1.763810 45.858578 7.172760
v 30.925147 45.858578 7.172760
v 30.925147 102.064735 7.172760
v -1.763810 102.064735 7.172760
vt 0.876882 0.246042
vt 0.915519 0.246040
vt 0.896205 0.279503
vt 0.981982 0.068042
vt 0.943354 0.068042
vt 0.962668 0.034589
vt 0.381760 0.619963
vt 0.381760 0.628542
vt 0.378602 0.636518
vt 0.372537 0.642584
vt 0.364664 0.645991
vt 0.356085 0.645991
vt 0.348109 0.642834
vt 0.342044 0.636768
vt 0.338637 0.628895
vt 0.338637 0.620317
vt 0.341794 0.612341
vt 0.347860 0.606275
vt 0.355732 0.602869
vt 0.364311 0.602868
vt 0.372287 0.606026
vt 0.378353 0.612091
vt 0.495817 0.501676
vt 0.487486 0.501674
vt 0.487489 0.489800
vt 0.495819 0.489803
vt 0.571199 0.486786
vt 0.562868 0.486787
vt 0.562867 0.474913
vt 0.571198 0.474912
vt 0.512481 0.501676
vt 0.504149 0.501678
vt 0.504149 0.489803
vt 0.512479 0.489802
vt 0.571198 0.474912
vt 0.579529 0.474912
vt 0.579529 0.486785
vt 0.571184 0.456359
vt 0.562853 0.456362
vt 0.562849 0.444488
vt 0.571181 0.444485
vt 0.587604 0.471617
vt 0.579273 0.471616
vt 0.579273 0.459743
vt 0.587603 0.459743
vt 0.570943 0.471616
vt 0.562613 0.471616
vt 0.562612 0.459742
vt 0.570943 0.459742
vt 0.587842 0.456359
vt 0.579513 0.456357
vt 0.579513 0.444484
vt 0.587846 0.444484
vt 0.957997 0.624872
vt 0.946308 0.630974
vt 0.941273 0.623956
vt 0.941151 0.608027
vt 0.587861 0.474912
vt 0.587859 0.486786
vt 0.579529 0.474912
vt 0.910943 0.608027
vt 0.925485 0.617882
vt 0.917045 0.619715
vt 0.934008 0.619284
vt 0.925485 0.617882
vt 0.587861 0.474912
vt 0.596191 0.474913
vt 0.596190 0.486787
vt 0.934008 0.619284
vt 0.941273 0.623956
vt 0.917045 0.619715
vt 0.910026 0.624751
vt 0.894097 0.624872
vt 0.570943 0.459742
vt 0.579273 0.459743
vt 0.587603 0.459743
vt 0.595934 0.459742
vt 0.595935 0.471616
vt 0.894097 0.655081
vt 0.903953 0.640538
vt 0.905786 0.648979
vt 0.905355 0.632015
vt 0.903953 0.640538
vt 0.905355 0.632015
vt 0.910026 0.624751
vt 0.941151 0.671926
vt 0.910943 0.671926
vt 0.926609 0.662071
vt 0.935049 0.660237
vt 0.918086 0.660669
vt 0.926609 0.662071
vt 0.910821 0.655997
vt 0.918086 0.660669
vt 0.905786 0.648979
vt 0.910821 0.655997
vt 0.512479 0.489802
vt 0.520809 0.489800
vt 0.520812 0.501674
vt 0.495819 0.489803
vt 0.504149 0.489803
vt 0.942068 0.655202
vt 0.946739 0.647938
vt 0.957997 0.655081
vt 0.935049 0.660237
vt 0.942068 0.655202
vt 0.948141 0.639415
vt 0.946308 0.630974
vt 0.946739 0.647938
vt 0.948141 0.639415
vt 0.587846 0.444484
vt 0.596177 0.444489
vt 0.596173 0.456362
vt 0.571181 0.444485
vt 0.579513 0.444484
vt 0.915273 0.142316
vt 0.876653 0.142315
vt 0.895965 0.108869
vt 0.974761 0.256947
vt 0.955359 0.290552
vt 0.935958 0.256948
vt 0.258343 0.498675
vt 0.258138 0.545581
vt 0.189678 0.545722
vt 0.189378 0.498675
vt 0.189678 0.545722
vt 0.258138 0.545581
vt 0.236714 0.568941
vt 0.211202 0.569123
vt 0.218218 0.499511
vt 0.218219 0.550228
vt 0.143529 0.550224
vt 0.143529 0.499511
vt 0.143529 0.550224
vt 0.218219 0.550228
vt 0.194241 0.574205
vt 0.167503 0.574197
vt 0.260330 0.500335
vt 0.259848 0.547362
vt 0.191196 0.547067
vt 0.191188 0.499928
vt 0.191196 0.547067
vt 0.259848 0.547362
vt 0.238202 0.570627
vt 0.212619 0.570669
vt 0.863015 0.166882
vt 0.929401 0.166882
vt 0.908092 0.188191
vt 0.884324 0.188191
vt 0.191188 0.499928
vt 0.191196 0.547067
vt 0.147838 0.547057
vt 0.147838 0.499951
vt 0.928297 0.857750
vt 0.928298 0.962147
vt 0.863051 0.962147
vt 0.863050 0.857750
vt 0.519825 0.520869
vt 0.519825 0.581969
vt 0.429839 0.581969
vt 0.429839 0.520870
vt 0.928298 0.962147
vt 0.928298 0.993988
vt 0.863051 0.993988
vt 0.673317 0.445500
vt 0.627746 0.445500
vt 0.627746 0.425029
vt 0.673317 0.425029
vt 0.429839 0.520870
vt 0.429839 0.581969
vt 0.402394 0.581969
vt 0.402394 0.520869
vt 0.503712 0.553736
vt 0.503712 0.625092
vt 0.438029 0.625091
vt 0.438029 0.553733
vt 0.194241 0.574205
vt 0.194203 0.612120
vt 0.167463 0.612094
vt 0.167503 0.574197
vt 0.194184 0.631353
vt 0.167445 0.631327
vt 0.876880 0.202847
vt 0.915517 0.202847
vt 0.876881 0.180931
vt 0.915517 0.180931
vt 0.915517 0.202847
vt 0.915271 0.185490
vt 0.876651 0.185489
vt 0.915271 0.207396
vt 0.876651 0.207396
vt 0.777415 0.429718
vt 0.777415 0.447746
vt 0.752350 0.447746
vt 0.752350 0.429718
vt 0.935957 0.213568
vt 0.974760 0.213568
vt 0.935957 0.191558
vt 0.974761 0.191558
vt 0.974760 0.213568
vt 0.238202 0.570627
vt 0.237726 0.606503
vt 0.213279 0.606651
vt 0.212619 0.570669
vt 0.237507 0.624419
vt 0.213663 0.624599
vt 0.213279 0.606651
vt 0.981982 0.111226
vt 0.943354 0.111226
vt 0.981982 0.111226
vt 0.981982 0.133138
vt 0.943353 0.133137
vt 0.943354 0.111226
vt 0.236714 0.568941
vt 0.236325 0.604818
vt 0.211938 0.604960
vt 0.211202 0.569123
vt 0.236325 0.604818
vt 0.236061 0.622698
vt 0.212271 0.622855
vt 0.211938 0.604960
vt 0.990099 0.111973
vt 0.981908 0.111973
vt 0.981908 0.093054
vt 0.990099 0.093054
vt 0.836594 0.446689
vt 0.813275 0.446689
vt 0.813275 0.427311
vt 0.836594 0.427311
vt 0.934052 0.007882
vt 0.934052 0.038846
vt 0.908815 0.007882
vt 0.934052 0.038846
vt 0.891000 0.038846
vt 0.891000 0.025697
vt 0.908815 0.007882
vt 0.889749 0.078270
vt 0.914871 0.046944
vt 0.932642 0.065030
vt 0.932494 0.078270
vt 0.889435 0.047091
vt 0.914871 0.046944
vt 0.889749 0.078270
vt 0.873299 0.345174
vt 0.873299 0.303805
vt 0.915476 0.303805
vt 0.915476 0.345174
vt 0.966214 0.111973
vt 0.966214 0.093054
vt 0.746877 0.321437
vt 0.703388 0.321437
vt 0.703388 0.246661
vt 0.746877 0.246661
vt 0.650334 0.241881
vt 0.693823 0.241880
vt 0.693823 0.316654
vt 0.650334 0.316656
vt 0.603058 0.245266
vt 0.668943 0.245266
vt 0.668943 0.358550
vt 0.603058 0.358551
vt 0.668591 0.319496
vt 0.625102 0.319496
vt 0.625103 0.244721
vt 0.668591 0.244721
vt 0.755819 0.250682
vt 0.795391 0.250682
vt 0.795391 0.318724
vt 0.755819 0.318724
vt 0.728940 0.248700
vt 0.768512 0.248700
vt 0.768512 0.316741
vt 0.728940 0.316741
vt 0.823226 0.321437
vt 0.779737 0.321437
vt 0.779737 0.246661
vt 0.823226 0.246661
vt 0.714905 0.317740
vt 0.671415 0.317738
vt 0.671415 0.242965
vt 0.714904 0.242966
vn 0.577351 0.577350 -0.577351
vn 0.577351 0.577350 -0.577351
vn 0.577351 0.577350 -0.577351
vn 0.577353 0.577349 0.577348
vn 0.577353 0.577349 0.577348
vn 0.577353 0.577349 0.577348
vn 0.000000 1.000000 0.000000
vn 0.000000 1.000000 0.000000
vn 0.000000 1.000000 0.000000
vn 0.000000 1.000000 0.000000
vn 0.000000 1.000000 0.000000
vn 0.000000 1.000000 0.000000
vn 0.000000 1.000000 0.000000
vn 0.000000 1.000000 0.000000
vn 0.000000 1.000000 0.000000
vn 0.000000 1.000000 0.000000
vn 0.000000 1.000000 0.000000
vn 0.000000 1.000000 0.000000
vn 0.000000 1.000000 0.000000
vn 0.000000 1.000000 0.000000
vn 0.000000 1.000000 0.000000
vn 0.000000 1.000000 0.000000
vn -0.540896 0.000000 -0.841089
vn -0.540896 0.000000 -0.841089
vn -0.540896 0.000000 -0.841089
vn -0.540896 0.000000 -0.841089
vn 0.540901 0.000000 0.841086
vn 0.540901 0.000000 0.841086
vn 0.540901 0.000000 0.841086
vn 0.540901 0.000000 0.841086
vn 0.212266 0.000000 -0.977212
vn 0.212266 0.000000 -0.977212
vn 0.212266 0.000000 -0.977212
vn 0.212266 0.000000 -0.977212
vn 0.162325 0.000000 0.986737
vn 0.162325 0.000000 0.986737
vn 0.162325 0.000000 0.986737
vn 0.162325 0.000000 0.986737
vn 0.841089 0.000000 -0.540897
vn 0.841089 0.000000 -0.540897
vn 0.841089 0.000000 -0.540897
vn 0.841089 0.000000 -0.540897
vn -0.977210 0.000000 -0.212274
vn -0.977210 0.000000 -0.212274
vn -0.977210 0.000000 -0.212274
vn -0.977210 0.000000 -0.212274
vn -0.841087 0.000000 0.540899
vn -0.841087 0.000000 0.540899
vn -0.841087 0.000000 0.540899
vn -0.841087 0.000000 0.540899
vn 0.977210 0.000000 0.212274
vn 0.977210 0.000000 0.212274
vn 0.977210 0.000000 0.212274
vn 0.977210 0.000000 0.212274
vn 0.000000 1.000000 0.000000
vn 0.000000 1.000000 0.000000
vn 0.000000 1.000000 0.000000
vn 0.000000 1.000000 0.000000
vn -0.212266 0.000000 0.977212
vn -0.212266 0.000000 0.977212
vn -0.212266 0.000000 0.977212
vn -0.212266 0.000000 0.977212
vn 0.000000 1.000000 -0.000001
vn 0.000000 1.000000 -0.000001
vn 0.000000 1.000000 -0.000001
vn 0.000000 1.000000 -0.000001
vn 0.000000 1.000000 -0.000001
vn 0.000000 1.000000 -0.000001
vn 0.000000 1.000000 -0.000001
vn -0.582943 0.000000 0.812513
vn -0.582943 0.000000 0.812513
vn -0.582943 0.000000 0.812513
vn -0.582943 0.000000 0.812513
vn 0.000000 1.000000 0.000002
vn 0.000000 1.000000 0.000002
vn 0.000000 1.000000 0.000002
vn 0.000000 1.000000 0.000000
vn 0.000000 1.000000 0.000000
vn 0.000000 1.000000 0.000000
vn 0.000000 1.000000 0.000000
vn -0.986736 0.000000 0.162334
vn -0.986736 0.000000 0.162334
vn -0.986736 0.000000 0.162334
vn -0.986736 0.000000 0.162334
vn -0.812509 0.000000 -0.582948
vn -0.812509 0.000000 -0.582948
vn -0.812509 0.000000 -0.582948
vn -0.812509 0.000000 -0.582948
vn 0.000000 1.000000 0.000000
vn 0.000000 1.000000 0.000000
vn 0.000000 1.000000 0.000000
vn 0.000000 1.000000 0.000000
vn 0.000000 1.000000 0.000000
vn 0.000000 1.000000 0.000000
vn 0.000000 1.000000 0.000000
vn 0.000000 1.000000 -0.000000
vn 0.000000 1.000000 -0.000000
vn 0.000000 1.000000 -0.000000
vn 0.000000 1.000000 0.000001
vn 0.000000 1.000000 0.000001
vn 0.000000 1.000000 0.000001
vn 0.000000 1.000000 0.000001
vn 0.000000 1.000000 -0.000001
vn 0.000000 1.000000 -0.000001
vn 0.000000 1.000000 -0.000001
vn 0.000000 1.000000 0.000000
vn 0.000000 1.000000 0.000000
vn 0.000000 1.000000 0.000000
vn 0.000000 1.000000 0.000000
vn 0.000000 1.000000 0.000000
vn 0.000000 1.000000 0.000000
vn 0.000000 1.000000 0.000000
vn 0.582941 0.000000 -0.812515
vn 0.582941 0.000000 -0.812515
vn 0.582941 0.000000 -0.812515
vn 0.582941 0.000000 -0.812515
vn -0.162325 0.000000 -0.986737
vn -0.162325 0.000000 -0.986737
vn -0.162325 0.000000 -0.986737
vn -0.162325 0.000000 -0.986737
vn 0.000000 1.000000 0.000002
vn 0.000000 1.000000 0.000002
vn 0.000000 1.000000 0.000002
vn 0.000000 1.000000 -0.000001
vn 0.000000 1.000000 -0.000001
vn 0.000000 1.000000 -0.000001
vn 0.000000 1.000000 -0.000001
vn 0.000000 1.000000 -0.000001
vn 0.000000 1.000000 -0.000001
vn 0.000000 1.000000 -0.000001
vn 0.000000 1.000000 -0.000001
vn 0.000000 1.000000 0.000002
vn 0.000000 1.000000 0.000002
vn 0.000000 1.000000 0.000002
vn 0.812514 0.000000 0.582941
vn 0.812514 0.000000 0.582941
vn 0.812514 0.000000 0.582941
vn 0.812514 0.000000 0.582941
vn 0.986737 0.000000 -0.162330
vn 0.986737 0.000000 -0.162330
vn 0.986737 0.000000 -0.162330
vn 0.986737 0.000000 -0.162330
vn -0.577351 0.577350 -0.577351
vn -0.577351 0.577350 -0.577351
vn -0.577351 0.577350 -0.577351
vn -0.577353 0.577349 0.577348
vn -0.577353 0.577349 0.577348
vn -0.577353 0.577349 0.577348
vn 0.000000 0.000000 -1.000000
vn 0.000000 0.000000 -1.000000
vn 0.000000 0.000000 -1.000000
vn 0.000000 0.000000 -1.000000
vn 0.000000 0.000000 -1.000000
vn 0.000000 0.000000 -1.000000
vn 0.000000 0.000000 -1.000000
vn 0.000000 0.000000 -1.000000
vn 1.000000 0.000000 0.000000
vn 1.000000 0.000000 0.000000
vn 1.000000 0.000000 0.000000
vn 1.000000 0.000000 0.000000
vn 1.000000 0.000000 0.000000
vn 1.000000 0.000000 0.000000
vn 1.000000 0.000000 0.000000
vn 1.000000 0.000000 0.000000
vn 0.000000 0.000000 1.000000
vn 0.000000 0.000000 1.000000
vn 0.000000 0.000000 1.000000
vn 0.000000 0.000000 1.000000
vn 0.000000 0.000000 1.000000
vn 0.000000 0.000000 1.000000
vn 0.000000 0.000000 1.000000
vn 0.000000 0.000000 1.000000
vn -1.000000 0.000000 0.000000
vn -1.000000 0.000000 0.000000
vn -1.000000 0.000000 0.000000
vn -1.000000 0.000000 0.000000
vn 0.000000 0.000000 1.000000
vn 0.000000 0.000000 1.000000
vn 0.000000 0.000000 1.000000
vn 0.000000 0.000000 1.000000
vn 0.000000 1.000000 0.000000
vn 0.000000 1.000000 0.000000
vn 0.000000 1.000000 0.000000
vn 0.000000 1.000000 0.000000
vn -1.000000 0.000000 0.000000
vn -1.000000 0.000000 0.000000
vn -1.000000 0.000000 0.000000
vn -1.000000 0.000000 0.000000
vn 0.000000 1.000000 0.000000
vn 0.000000 1.000000 0.000000
vn 0.000000 1.000000 0.000000
vn 0.000000 1.000000 0.000000
vn 1.000000 0.000000 0.000000
vn 1.000000 0.000000 0.000000
vn 1.000000 0.000000 0.000000
vn 1.000000 0.000000 0.000000
vn -1.000000 0.000000 0.000000
vn -1.000000 0.000000 0.000000
vn -1.000000 0.000000 0.000000
vn -1.000000 0.000000 0.000000
vn 0.000000 0.000000 -1.000000
vn 0.000000 0.000000 -1.000000
vn 0.000000 0.000000 -1.000000
vn 0.000000 0.000000 -1.000000
vn 1.000000 0.000000 0.000000
vn 1.000000 0.000000 0.000000
vn 1.000000 0.000000 0.000000
vn 1.000000 0.000000 0.000000
vn 1.000000 0.000000 0.000000
vn 1.000000 0.000000 0.000000
vn 1.000000 0.000000 0.000000
vn 1.000000 0.000000 0.000000
vn 0.707105 0.000000 -0.707108
vn 0.707105 0.000000 -0.707108
vn 0.707105 0.000000 -0.707108
vn 0.707105 0.000000 -0.707108
vn 0.707106 0.000000 -0.707108
vn 0.707106 0.000000 -0.707108
vn 0.707106 0.000000 -0.707108
vn 0.707106 0.000000 -0.707108
vn -0.707105 0.000000 -0.707108
vn -0.707105 0.000000 -0.707108
vn -0.707105 0.000000 -0.707108
vn -0.707105 0.000000 -0.707108
vn -0.707106 0.000000 -0.707108
vn -0.707106 0.000000 -0.707108
vn -0.707106 0.000000 -0.707108
vn -0.707106 0.000000 -0.707108
vn -1.000000 0.000000 0.000000
vn -1.000000 0.000000 0.000000
vn -1.000000 0.000000 0.000000
vn -1.000000 0.000000 0.000000
vn -0.707107 0.000000 0.707106
vn -0.707107 0.000000 0.707106
vn -0.707107 0.000000 0.707106
vn -0.707107 0.000000 0.707106
vn -0.707108 0.000000 0.707106
vn -0.707108 0.000000 0.707106
vn -0.707108 0.000000 0.707106
vn -0.707108 0.000000 0.707106
vn 0.000000 0.000000 1.000000
vn 0.000000 0.000000 1.000000
vn 0.000000 0.000000 1.000000
vn 0.000000 0.000000 1.000000
vn 0.000000 0.000000 1.000000
vn 0.000000 0.000000 1.000000
vn 0.000000 0.000000 1.000000
vn 0.000000 0.000000 1.000000
vn 0.707107 0.000000 0.707106
vn 0.707107 0.000000 0.707106
vn 0.707107 0.000000 0.707106
vn 0.707107 0.000000 0.707106
vn 0.707108 0.000000 0.707106
vn 0.707108 0.000000 0.707106
vn 0.707108 0.000000 0.707106
vn 0.707108 0.000000 0.707106
vn 0.000000 0.000000 -1.000000
vn 0.000000 0.000000 -1.000000
vn 0.000000 0.000000 -1.000000
vn 0.000000 0.000000 -1.000000
vn 0.000000 0.000000 -1.000000
vn 0.000000 0.000000 -1.000000
vn 0.000000 0.000000 -1.000000
vn 0.000000 0.000000 -1.000000
vn 0.000000 -1.000000 0.000000
vn 0.000000 -1.000000 0.000000
vn 0.000000 -1.000000 0.000000
vn 0.000000 -1.000000 0.000000
vn -1.000000 0.000000 0.000000
vn -1.000000 0.000000 0.000000
vn -1.000000 0.000000 0.000000
vn -1.000000 0.000000 0.000000
vn 0.000000 0.000000 -1.000000
vn 0.000000 0.000000 -1.000000
vn 0.000000 0.000000 -1.000000
vn 0.000000 0.000000 -1.000000
vn 0.000000 0.000000 -1.000000
vn 0.000000 0.000000 -1.000000
vn 0.000000 0.000000 -1.000000
vn 0.000000 0.000000 1.000000
vn 0.000000 0.000000 1.000000
vn 0.000000 0.000000 1.000000
vn 0.000000 0.000000 1.000000
vn 0.000000 0.000000 1.000000
vn 0.000000 0.000000 1.000000
vn 0.000000 0.000000 1.000000
vn 0.000000 1.000000 0.000000
vn 0.000000 1.000000 0.000000
vn 0.000000 1.000000 0.000000
vn 0.000000 1.000000 0.000000
vn -0.707108 -0.707106 0.000000
vn -0.707108 -0.707106 0.000000
vn -0.707108 -0.707106 0.000000
vn -0.707108 -0.707106 0.000000
vn -0.342019 0.000000 -0.939693
vn -0.342019 0.000000 -0.939693
vn -0.342019 0.000000 -0.939693
vn -0.342019 0.000000 -0.939693
vn -0.939693 0.000000 0.342019
vn -0.939693 0.000000 0.342019
vn -0.939693 0.000000 0.342019
vn -0.939693 0.000000 0.342019
vn -0.906308 0.000000 -0.422619
vn -0.906308 0.000000 -0.422619
vn -0.906308 0.000000 -0.422619
vn -0.906308 0.000000 -0.422619
vn -0.422618 0.000000 0.906308
vn -0.422618 0.000000 0.906308
vn -0.422618 0.000000 0.906308
vn -0.422618 0.000000 0.906308
vn -0.707106 0.000000 -0.707108
vn -0.707106 0.000000 -0.707108
vn -0.707106 0.000000 -0.707108
vn -0.707106 0.000000 -0.707108
vn -0.707106 0.000000 0.707108
vn -0.707106 0.000000 0.707108
vn -0.707106 0.000000 0.707108
vn -0.707106 0.000000 0.707108
vn -1.000000 0.000000 0.000000
vn -1.000000 0.000000 0.000000
vn -1.000000 0.000000 0.000000
vn -1.000000 0.000000 0.000000
vn 0.000000 0.000000 1.000000
vn 0.000000 0.000000 1.000000
vn 0.000000 0.000000 1.000000
vn 0.000000 0.000000 1.000000
g building_25
usemtl lambert2SG
f 1/1/1 2/2/2 3/3/3
f 4/4/4 5/5/5 6/6/6
f 7/7/7 8/8/8 9/9/9 10/10/10 11/11/11 12/12/12 13/13/13 14/14/14 15/15/15 16/16/16 17/17/17 18/18/18 19/19/19 20/20/20 21/21/21 22/22/22
f 23/23/23 24/24/24 14/25/25 13/26/26
f 25/27/27 26/28/28 22/29/29 21/30/30
f 27/31/31 28/32/32 12/33/33 11/34/34
f 25/27/35 21/35/36 20/36/37 29/37/38
f 30/38/39 31/39/40 10/40/41 9/41/42
f 32/42/43 33/43/44 16/44/45 15/45/46
f 34/46/47 35/47/48 18/48/49 17/49/50
f 36/50/51 37/51/52 8/52/53 7/53/54
f 38/54/55 25/55/56 29/56/57 39/57/58
f 19/58/59 40/59/60 29/37/61 20/60/62
f 41/61/63 39/57/64 35/62/65 34/63/66
f 40/64/67 35/65/68 39/57/69
f 40/59/70 19/66/71 18/67/72 35/68/73
f 40/69/74 39/57/75 29/70/76
f 41/61/77 34/71/78 33/72/79 42/73/80
f 34/46/81 17/74/82 16/75/83 33/43/84
f 32/42/85 15/76/86 14/77/87 24/78/88
f 43/79/89 42/73/90 24/80/91 23/81/92
f 32/82/93 24/83/94 42/73/95
f 32/84/96 42/73/97 33/85/98
f 44/86/99 45/87/100 31/88/101 30/89/102
f 27/90/103 31/91/104 45/87/105
f 28/92/106 27/93/107 45/87/108
f 43/79/109 23/94/110 28/95/111 45/87/112
f 27/31/113 11/96/114 10/97/115 31/98/116
f 23/23/117 13/99/118 12/100/119 28/32/120
f 37/101/121 36/102/122 46/103/123
f 44/86/124 30/104/125 37/105/126 46/103/127
f 38/54/128 46/103/129 26/106/130 25/107/131
f 36/108/132 26/109/133 46/103/134
f 36/50/135 7/110/136 22/111/137 26/112/138
f 30/38/139 9/113/140 8/114/141 37/51/142
f 47/115/143 48/116/144 49/117/145
f 50/118/146 51/119/147 52/120/148
f 53/121/149 49/122/150 3/123/151 54/124/152
f 3/125/153 49/126/154 48/127/155 1/128/156
f 54/129/157 3/130/158 6/131/159 55/132/160
f 6/133/161 3/134/162 2/135/163 4/136/164
f 55/137/165 6/138/166 51/139/167 56/140/168
f 51/141/169 6/142/170 5/143/171 52/144/172
f 49/145/173 51/146/174 50/147/175 47/148/176
f 56/149/177 51/150/178 57/151/179 58/152/180
f 51/153/181 49/154/182 59/155/183 57/156/184
f 58/157/185 57/158/186 59/159/187 60/160/188
f 59/155/189 49/161/190 61/162/191 62/163/192
f 49/164/193 53/165/194 63/166/195 61/167/196
f 60/168/197 59/169/198 62/170/199 64/171/200
f 61/172/201 63/173/202 64/174/203 62/175/204
f 2/176/205 65/177/206 66/178/207 4/179/208
f 65/177/209 41/180/210 42/181/211 66/178/212
f 1/1/213 67/182/214 65/183/215 2/2/216
f 67/182/217 39/184/218 41/185/219 65/186/220
f 47/115/221 68/187/222 69/188/223 48/116/224
f 68/187/225 46/189/226 38/190/227 69/188/228
f 70/191/229 44/192/230 46/193/231 68/194/232
f 52/120/233 71/195/234 70/196/235 50/118/236
f 71/195/237 45/197/238 44/198/239 70/199/240
f 5/200/241 72/201/242 71/202/243 52/203/244
f 72/201/245 43/204/246 45/205/247 71/206/248
f 4/4/249 66/207/250 72/208/251 5/5/252
f 66/209/253 42/210/254 43/211/255 72/212/256
f 48/213/257 69/214/258 67/215/259 1/216/260
f 69/217/261 38/218/262 39/219/263 67/220/264
f 50/221/265 73/222/266 74/223/267 47/224/268
f 75/225/269 76/226/270 77/227/271 78/228/272
f 76/229/273 68/230/274 77/231/275
f 68/232/276 47/233/277 74/234/278 77/235/279
f 70/236/280 78/237/281 73/238/282 50/239/283
f 75/240/284 78/241/285 70/242/286
f 70/243/287 68/244/288 76/245/289 75/246/290
f 78/247/291 77/248/292 74/223/293 73/222/294
f 79/249/295 80/250/296 81/251/297 82/252/298
f 83/253/299 84/254/300 85/255/301 86/256/302
f 87/257/303 88/258/304 89/259/305 90/260/306
f 91/261/307 92/262/308 93/263/309 94/264/310
f 95/265/311 96/266/312 97/267/313 98/268/314
f 99/269/315 100/270/316 101/271/317 102/272/318
f 103/273/319 104/274/320 105/275/321 106/276/322
f 107/277/323 108/278/324 109/279/325 110/280/326
