# This file uses centimeters as units for non-parametric coordinates.

mtllib scifi_building.mtl
v -76.178276 32.681473 -57.986526
v -9.095909 32.681473 -57.986465
v -9.095909 -0.002065 -57.986465
v -76.178276 -0.002065 -57.986526
v -76.178276 -0.002065 76.178299
v -9.095909 -0.002065 76.178268
v -9.095909 32.681473 76.178268
v -76.178276 32.681473 76.178299
v 57.986458 -0.002065 76.178268
v 57.986458 32.681473 76.178268
v -76.178291 32.681473 9.095871
v -76.178291 -0.002065 9.095871
v 57.986458 -0.002065 9.095932
v 57.986458 -0.002065 -57.986465
v 57.986458 32.681473 -57.986465
v 57.986458 32.681473 9.095932
v -9.095909 -0.002065 9.095932
v 49.004250 32.681473 -49.004227
v 49.004250 32.681473 0.113693
v -0.113701 32.681473 -49.004288
v -9.095909 32.681473 9.095932
v -0.113701 32.681473 0.113693
v 49.004250 13.352652 0.113693
v -0.113701 13.352652 0.113693
v 49.004250 13.352652 -49.004227
v -0.113701 13.352652 -49.004288
v -18.532921 32.681473 9.095932
v -18.532921 32.681473 66.741287
v -18.532921 32.681473 -48.549454
v -66.741264 32.681473 -48.549454
v -66.741280 32.681473 9.095871
v -66.741264 32.681473 66.741257
v -18.532921 49.167816 66.741287
v -66.741264 49.167816 66.741257
v -18.532921 49.167816 9.095932
v -18.532921 49.167816 -48.549454
v -66.741264 49.167816 -48.549454
v -66.741280 49.167816 9.095871
v -18.532921 73.613091 66.741287
v -66.741264 73.613091 66.741257
v -66.741280 73.613091 9.095871
v -18.532921 73.613091 9.095932
v 51.960426 32.783802 69.015244
v 20.806923 32.783802 69.015244
v 51.960426 32.783802 37.861679
v 20.806923 32.783802 37.861679
v 51.960426 82.242844 69.015244
v 20.806923 82.242844 69.015244
v 51.960426 82.242844 37.861679
v 20.806923 82.242844 37.861679
v -9.095909 17.900610 -76.178299
v -9.095909 -0.002065 -76.178299
v 57.986458 17.900610 -76.178299
v 57.986458 -0.002065 -76.178299
v 76.178291 32.681473 9.095932
v 76.178291 -0.002065 9.095932
v 76.178291 32.681473 76.178268
v 76.178291 -0.002065 76.178268
v -7.219872 49.167816 9.095871
v -7.219902 49.167816 66.741257
v 1.364388 57.752087 9.095871
v 1.364388 57.752087 66.741257
v 1.364388 73.613091 9.095871
v 1.364388 73.613091 66.741257
vt 0.339821 0.620495
vt 0.235359 0.620495
vt 0.235359 0.570354
vt 0.339821 0.570354
vt 0.870548 0.142736
vt 0.972683 0.142736
vt 0.972683 0.191761
vt 0.870548 0.191761
vt 0.856683 0.054736
vt 0.958817 0.054736
vt 0.958817 0.103761
vt 0.856683 0.103761
vt 0.651109 0.487346
vt 0.550825 0.487346
vt 0.550825 0.439210
vt 0.651109 0.439210
vt 0.450541 0.487346
vt 0.450541 0.439210
vt 0.012433 0.345805
vt 0.108872 0.345805
vt 0.108872 0.392096
vt 0.012433 0.392096
vt 0.234069 0.274404
vt 0.336625 0.274404
vt 0.336625 0.376960
vt 0.234069 0.376960
vt 0.336625 0.274404
vt 0.439181 0.274404
vt 0.439181 0.376960
vt 0.234069 0.376960
vt 0.336625 0.479516
vt 0.234069 0.479516
vt 0.439181 0.376960
vt 0.439181 0.479516
vt 0.336625 0.479516
vt 0.128553 0.822471
vt 0.041216 0.822487
vt 0.052908 0.810791
vt 0.116857 0.810779
vt 0.041216 0.822487
vt 0.041201 0.735148
vt 0.052897 0.746841
vt 0.041201 0.735148
vt 0.128542 0.735135
vt 0.116849 0.746831
vt 0.128553 0.822471
vt 0.963486 0.206777
vt 0.888224 0.206777
vt 0.888224 0.177160
vt 0.963486 0.177161
vt 0.965044 0.236571
vt 0.889783 0.236571
vt 0.889783 0.206955
vt 0.965044 0.206955
vt 0.965044 0.268042
vt 0.889783 0.268042
vt 0.889783 0.238425
vt 0.965044 0.238425
vt 0.963162 0.175777
vt 0.887900 0.175777
vt 0.887900 0.146160
vt 0.963162 0.146160
vt 0.584915 0.782397
vt 0.509265 0.782397
vt 0.509265 0.706747
vt 0.584915 0.706747
vt 0.215879 0.735131
vt 0.128541 0.722849
vt 0.203593 0.722845
vt 0.041201 0.735148
vt 0.053487 0.722859
vt 0.041201 0.735148
vt 0.041196 0.647802
vt 0.053485 0.660089
vt 0.041196 0.647802
vt 0.128546 0.647797
vt 0.128546 0.660084
vt 0.128546 0.647797
vt 0.215887 0.647797
vt 0.203600 0.660083
vt 0.215887 0.647797
vt 0.215879 0.735131
vt 0.132643 0.389948
vt 0.207101 0.389948
vt 0.207101 0.415411
vt 0.132643 0.415411
vt 0.018823 0.404415
vt 0.104149 0.404415
vt 0.104149 0.428817
vt 0.018823 0.428817
vt 0.262149 0.404415
vt 0.347475 0.404415
vt 0.347475 0.428817
vt 0.262149 0.428817
vt 0.156943 0.361619
vt 0.233472 0.361619
vt 0.233472 0.387790
vt 0.156943 0.387790
vt 0.234126 0.365197
vt 0.319060 0.365197
vt 0.319060 0.389488
vt 0.234126 0.389488
vt 0.319060 0.365197
vt 0.403995 0.365197
vt 0.403995 0.389488
vt 0.960121 0.885267
vt 0.960121 0.999465
vt 0.864618 0.999465
vt 0.864618 0.885267
vt 0.207101 0.453167
vt 0.132643 0.453167
vt 0.162460 0.451044
vt 0.238894 0.451044
vt 0.238894 0.489802
vt 0.162460 0.489802
vt 0.403995 0.389488
vt 0.403995 0.425505
vt 0.319061 0.425506
vt 0.100430 0.810992
vt 0.009486 0.810992
vt 0.009486 0.734937
vt 0.100430 0.734937
vt 0.215879 0.735131
vt 0.215881 0.822460
vt 0.206556 0.814615
vt 0.206555 0.774060
vt 0.215881 0.822460
vt 0.128553 0.822471
vt 0.166000 0.814621
vt 0.128553 0.822471
vt 0.165997 0.774063
vt 0.215879 0.735131
vt 0.730822 0.431904
vt 0.777534 0.431904
vt 0.777534 0.506063
vt 0.730823 0.506063
vt 0.796822 0.431257
vt 0.843534 0.431257
vt 0.843534 0.505416
vt 0.796822 0.505416
vt 0.730822 0.432581
vt 0.777534 0.432581
vt 0.777534 0.506740
vt 0.730823 0.506740
vt 0.796558 0.431404
vt 0.843269 0.431404
vt 0.843269 0.505563
vt 0.796558 0.505563
vt 0.292476 0.778135
vt 0.223880 0.778135
vt 0.223880 0.709539
vt 0.292476 0.709539
vt 0.987271 0.181690
vt 0.987271 0.227571
vt 0.961350 0.206510
vt 0.961350 0.181690
vt 0.119201 0.735148
vt 0.119216 0.822487
vt 0.088698 0.822493
vt 0.088683 0.735154
vt 0.135025 0.345805
vt 0.135026 0.370846
vt 0.439181 0.479516
vt 0.439181 0.376960
vt 0.466993 0.376960
vt 0.466993 0.479516
vt 0.451380 0.617221
vt 0.344094 0.617221
vt 0.344094 0.589363
vt 0.451380 0.589363
vt 0.951007 0.032484
vt 0.951007 0.078366
vt 0.925085 0.078366
vt 0.925085 0.032484
vt 0.128553 0.822471
vt 0.215881 0.822460
vt 0.215884 0.846141
vt 0.128556 0.846153
vt 0.986515 0.054736
vt 0.986515 0.103761
vt 0.234069 0.479516
vt 0.336625 0.479516
vt 0.336625 0.507328
vt 0.234069 0.507328
vt 0.013359 0.421560
vt 0.117821 0.421560
vt 0.117821 0.471701
vt 0.013359 0.471701
vt 0.965285 0.104191
vt 0.965285 0.122629
vt 0.871336 0.122629
vt 0.871336 0.104191
vt 0.105528 0.463683
vt 0.014211 0.463683
vt 0.014211 0.444452
vt 0.105528 0.444452
vt 0.130913 0.464655
vt 0.144524 0.451044
vt 0.162460 0.451044
vt 0.130914 0.489802
vt 0.130913 0.464655
vt 0.237831 0.453166
vt 0.237831 0.428670
vt 0.224573 0.415412
vt 0.237831 0.428670
vt 0.014211 0.488809
vt 0.105528 0.488809
vt 0.009486 0.810992
vt 0.100430 0.810992
vt 0.100429 0.842383
vt 0.009486 0.842383
vn 0.000001 0.000000 -1.000000
vn 0.000001 0.000000 -1.000000
vn 0.000001 0.000000 -1.000000
vn 0.000001 0.000000 -1.000000
vn 0.000000 0.000000 1.000000
vn 0.000000 0.000000 1.000000
vn 0.000000 0.000000 1.000000
vn 0.000000 0.000000 1.000000
vn 0.000000 0.000000 1.000000
vn 0.000000 0.000000 1.000000
vn 0.000000 0.000000 1.000000
vn 0.000000 0.000000 1.000000
vn -1.000000 0.000000 0.000000
vn -1.000000 0.000000 0.000000
vn -1.000000 0.000000 0.000000
vn -1.000000 0.000000 0.000000
vn -1.000000 0.000000 -0.000000
vn -1.000000 0.000000 -0.000000
vn -1.000000 0.000000 -0.000000
vn -1.000000 0.000000 -0.000000
vn 1.000000 0.000000 0.000000
vn 1.000000 0.000000 0.000000
vn 1.000000 0.000000 0.000000
vn 1.000000 0.000000 0.000000
vn 0.000000 -1.000000 0.000000
vn 0.000000 -1.000000 0.000000
vn 0.000000 -1.000000 0.000000
vn 0.000000 -1.000000 0.000000
vn 0.000000 -1.000000 0.000000
vn 0.000000 -1.000000 0.000000
vn 0.000000 -1.000000 0.000000
vn 0.000000 -1.000000 0.000000
vn 0.000000 -1.000000 0.000000
vn 0.000000 -1.000000 0.000000
vn 0.000000 -1.000000 0.000000
vn 0.000000 -1.000000 0.000000
vn 0.000000 -1.000000 0.000000
vn 0.000000 -1.000000 0.000000
vn 0.000000 -1.000000 0.000000
vn 0.000000 -1.000000 0.000000
vn 0.000000 1.000000 0.000000
vn 0.000000 1.000000 0.000000
vn 0.000000 1.000000 0.000000
vn 0.000000 1.000000 0.000000
vn 0.000000 1.000000 0.000000
vn 0.000000 1.000000 0.000000
vn 0.000000 1.000000 0.000000
vn 0.000000 1.000000 0.000000
vn 0.000000 1.000000 0.000000
vn 0.000000 1.000000 0.000000
vn 0.000000 1.000000 0.000000
vn 0.000000 1.000000 0.000000
vn 0.000000 1.000000 -0.000000
vn 0.000000 1.000000 -0.000000
vn 0.000000 1.000000 -0.000000
vn 0.000000 1.000000 -0.000000
vn 0.000000 0.000000 -1.000000
vn 0.000000 0.000000 -1.000000
vn 0.000000 0.000000 -1.000000
vn 0.000000 0.000000 -1.000000
vn -1.000000 0.000000 0.000000
vn -1.000000 0.000000 0.000000
vn -1.000000 0.000000 0.000000
vn -1.000000 0.000000 0.000000
vn -0.000001 0.000000 1.000000
vn -0.000001 0.000000 1.000000
vn -0.000001 0.000000 1.000000
vn -0.000001 0.000000 1.000000
vn 1.000000 0.000000 0.000000
vn 1.000000 0.000000 0.000000
vn 1.000000 0.000000 0.000000
vn 1.000000 0.000000 0.000000
vn 0.000000 1.000000 0.000000
vn 0.000000 1.000000 0.000000
vn 0.000000 1.000000 0.000000
vn 0.000000 1.000000 0.000000
vn 0.000000 1.000000 0.000000
vn 0.000000 1.000000 0.000000
vn 0.000000 1.000000 0.000000
vn 0.000000 1.000000 0.000000
vn 0.000000 1.000000 0.000000
vn 0.000000 1.000000 0.000000
vn 0.000000 1.000000 0.000000
vn 0.000000 1.000000 0.000000
vn 0.000000 1.000000 0.000000
vn 0.000000 1.000000 0.000000
vn 0.000000 1.000000 0.000000
vn 0.000000 1.000000 0.000000
vn 0.000000 1.000000 0.000000
vn 0.000000 1.000000 0.000000
vn 0.000000 1.000000 0.000000
vn 0.000000 1.000000 0.000000
vn 0.000000 1.000000 0.000000
vn 0.000000 1.000000 0.000000
vn 0.000000 1.000000 0.000000
vn 0.000000 1.000000 0.000000
vn 0.000000 1.000000 -0.000000
vn 0.000000 1.000000 -0.000000
vn 0.000000 1.000000 -0.000000
vn 0.000000 1.000000 -0.000000
vn -0.000001 0.000000 1.000000
vn -0.000001 0.000000 1.000000
vn -0.000001 0.000000 1.000000
vn -0.000001 0.000000 1.000000
vn 1.000000 0.000000 0.000000
vn 1.000000 0.000000 0.000000
vn 1.000000 0.000000 0.000000
vn 1.000000 0.000000 0.000000
vn 1.000000 0.000000 0.000000
vn 1.000000 0.000000 0.000000
vn 1.000000 0.000000 0.000000
vn 1.000000 0.000000 0.000000
vn 0.000000 0.000000 -1.000000
vn 0.000000 0.000000 -1.000000
vn 0.000000 0.000000 -1.000000
vn 0.000000 0.000000 -1.000000
vn -1.000000 0.000000 -0.000000
vn -1.000000 0.000000 -0.000000
vn -1.000000 0.000000 -0.000000
vn -1.000000 0.000000 -0.000000
vn -1.000000 0.000000 0.000000
vn -1.000000 0.000000 0.000000
vn -1.000000 0.000000 0.000000
vn -1.000000 0.000000 0.000000
vn 0.000000 1.000000 0.000000
vn 0.000000 1.000000 0.000000
vn 0.000000 1.000000 0.000000
vn 0.000000 1.000000 0.000000
vn -0.000001 0.000000 1.000000
vn -0.000001 0.000000 1.000000
vn -0.000001 0.000000 1.000000
vn -0.000001 0.000000 1.000000
vn 0.000002 0.000000 -1.000000
vn 0.000002 0.000000 -1.000000
vn 0.000002 0.000000 -1.000000
vn 0.000002 0.000000 -1.000000
vn -1.000000 0.000000 0.000000
vn -1.000000 0.000000 0.000000
vn -1.000000 0.000000 0.000000
vn -1.000000 0.000000 0.000000
vn 0.000000 1.000000 0.000000
vn 0.000000 1.000000 0.000000
vn 0.000000 1.000000 0.000000
vn 0.000000 1.000000 0.000000
vn 0.000000 0.999898 0.014284
vn 0.000000 0.999898 0.014284
vn 0.000000 0.999898 0.014284
vn 0.000000 0.999898 0.014284
vn 0.016979 0.999856 0.000000
vn 0.016979 0.999856 0.000000
vn 0.016979 0.999856 0.000000
vn 0.016979 0.999856 0.000000
vn 0.000000 0.999994 -0.003557
vn 0.000000 0.999994 -0.003557
vn 0.000000 0.999994 -0.003557
vn 0.000000 0.999994 -0.003557
vn -0.003422 0.999994 0.000000
vn -0.003422 0.999994 0.000000
vn -0.003422 0.999994 0.000000
vn -0.003422 0.999994 0.000000
vn 0.000000 0.000000 1.000000
vn 0.000000 0.000000 1.000000
vn 0.000000 0.000000 1.000000
vn 0.000000 0.000000 1.000000
vn 1.000000 0.000000 0.000000
vn 1.000000 0.000000 0.000000
vn 1.000000 0.000000 0.000000
vn 1.000000 0.000000 0.000000
vn 0.000000 0.000000 -1.000000
vn 0.000000 0.000000 -1.000000
vn 0.000000 0.000000 -1.000000
vn 0.000000 0.000000 -1.000000
vn -1.000000 0.000000 0.000000
vn -1.000000 0.000000 0.000000
vn -1.000000 0.000000 0.000000
vn -1.000000 0.000000 0.000000
vn 0.000000 1.000000 0.000000
vn 0.000000 1.000000 0.000000
vn 0.000000 1.000000 0.000000
vn 0.000000 1.000000 0.000000
vn -1.000000 0.000000 0.000000
vn -1.000000 0.000000 0.000000
vn -1.000000 0.000000 0.000000
vn -1.000000 0.000000 0.000000
vn 0.000000 0.776114 -0.630593
vn 0.000000 0.776114 -0.630593
vn 0.000000 0.776114 -0.630593
vn 0.000000 0.776114 -0.630593
vn 1.000000 0.000000 0.000000
vn 1.000000 0.000000 0.000000
vn 1.000000 0.000000 0.000000
vn 1.000000 0.000000 0.000000
vn 0.000000 -1.000000 0.000000
vn 0.000000 -1.000000 0.000000
vn 0.000000 -1.000000 0.000000
vn 0.000000 -1.000000 0.000000
vn 0.000000 0.000000 -1.000000
vn 0.000000 0.000000 -1.000000
vn 0.000000 0.000000 -1.000000
vn 0.000000 0.000000 -1.000000
vn 0.000000 0.000000 -1.000000
vn 0.000000 0.000000 -1.000000
vn 0.000000 0.000000 -1.000000
vn 0.000000 0.000000 -1.000000
vn 0.000000 1.000000 0.000000
vn 0.000000 1.000000 0.000000
vn 0.000000 1.000000 0.000000
vn 0.000000 1.000000 0.000000
vn 0.000000 0.000000 1.000000
vn 0.000000 0.000000 1.000000
vn 0.000000 0.000000 1.000000
vn 0.000000 0.000000 1.000000
vn 0.000000 -1.000000 0.000000
vn 0.000000 -1.000000 0.000000
vn 0.000000 -1.000000 0.000000
vn 0.000000 -1.000000 0.000000
vn 1.000000 0.000000 0.000000
vn 1.000000 0.000000 0.000000
vn 1.000000 0.000000 0.000000
vn 1.000000 0.000000 0.000000
vn 0.000000 -1.000000 0.000000
vn 0.000000 -1.000000 0.000000
vn 0.000000 -1.000000 0.000000
vn 0.000000 -1.000000 0.000000
vn 0.707108 -0.707106 0.000000
vn 0.707108 -0.707106 0.000000
vn 0.707108 -0.707106 0.000000
vn 0.707108 -0.707106 0.000000
vn -0.000007 0.000001 -1.000000
vn -0.000007 0.000001 -1.000000
vn -0.000007 0.000001 -1.000000
vn -0.000007 0.000001 -1.000000
vn 0.000000 0.000000 -1.000000
vn 0.000000 0.000000 -1.000000
vn 0.000000 0.000000 -1.000000
vn 0.000000 0.000000 1.000000
vn 0.000000 0.000000 1.000000
vn 0.000000 0.000000 1.000000
vn 0.000002 -0.000000 1.000000
vn 0.000002 -0.000000 1.000000
vn 0.000002 -0.000000 1.000000
vn 0.000002 -0.000000 1.000000
vn 1.000000 0.000000 0.000000
vn 1.000000 0.000000 0.000000
vn 1.000000 0.000000 0.000000
vn 1.000000 0.000000 0.000000
vn 0.000000 1.000000 0.000000
vn 0.000000 1.000000 0.000000
vn 0.000000 1.000000 0.000000
vn 0.000000 1.000000 0.000000
g building_53
usemtl lambert2SG
f 1/1/1 2/2/2 3/3/3 4/4/4
f 5/5/5 6/6/6 7/7/7 8/8/8
f 6/9/9 9/10/10 10/11/11 7/12/12
f 8/13/13 11/14/14 12/15/15 5/16/16
f 11/14/17 1/17/18 4/18/19 12/15/20
f 13/19/21 14/20/22 15/21/23 16/22/24
f 5/23/25 12/24/26 17/25/27 6/26/28
f 12/27/29 4/28/30 3/29/31 17/25/32
f 6/30/33 17/25/34 13/31/35 9/32/36
f 17/25/37 3/33/38 14/34/39 13/35/40
f 16/36/41 15/37/42 18/38/43 19/39/44
f 15/40/45 2/41/46 20/42/47 18/38/48
f 2/43/49 21/44/50 22/45/51 20/42/52
f 21/44/53 16/46/54 19/39/55 22/45/56
f 22/47/57 19/48/58 23/49/59 24/50/60
f 19/51/61 18/52/62 25/53/63 23/54/64
f 18/55/65 20/56/66 26/57/67 25/58/68
f 20/59/69 22/60/70 24/61/71 26/62/72
f 23/63/73 25/64/74 26/65/75 24/66/76
f 7/67/77 21/44/78 27/68/79 28/69/80
f 21/44/81 2/70/82 29/71/83 27/68/84
f 2/72/85 1/73/86 30/74/87 29/71/88
f 1/75/89 11/76/90 31/77/91 30/74/92
f 11/78/93 8/79/94 32/80/95 31/77/96
f 8/81/97 7/82/98 28/69/99 32/80/100
f 32/83/101 28/84/102 33/85/103 34/86/104
f 28/87/105 27/88/106 35/89/107 33/90/108
f 27/91/109 29/92/110 36/93/111 35/94/112
f 29/95/113 30/96/114 37/97/115 36/98/116
f 30/99/117 31/100/118 38/101/119 37/102/120
f 31/103/121 32/104/122 34/105/123 38/101/124
f 35/106/125 36/107/126 37/108/127 38/109/128
f 34/86/129 33/85/130 39/110/131 40/111/132
f 35/112/133 38/113/134 41/114/135 42/115/136
f 38/101/137 34/116/138 40/117/139 41/118/140
f 39/119/141 42/120/142 41/121/143 40/122/144
f 7/123/145 10/124/146 43/125/147 44/126/148
f 10/127/149 16/128/150 45/129/151 43/125/152
f 16/130/153 21/44/154 46/131/155 45/129/156
f 21/44/157 7/132/158 44/126/159 46/131/160
f 44/133/161 43/134/162 47/135/163 48/136/164
f 43/137/165 45/138/166 49/139/167 47/140/168
f 45/141/169 46/142/170 50/143/171 49/144/172
f 46/145/173 44/146/174 48/147/175 50/148/176
f 47/149/177 49/150/178 50/151/179 48/152/180
f 3/153/181 2/154/182 51/155/183 52/156/184
f 2/157/185 15/158/186 53/159/187 51/160/188
f 15/21/189 14/20/190 54/161/191 53/162/192
f 14/163/193 3/164/194 52/165/195 54/166/196
f 51/167/197 53/168/198 54/169/199 52/170/200
f 13/171/201 16/172/202 55/173/203 56/174/204
f 16/175/205 10/176/206 57/177/207 55/178/208
f 10/11/209 9/10/210 58/179/211 57/180/212
f 9/181/213 13/182/214 56/183/215 58/184/216
f 58/185/217 56/186/218 55/187/219 57/188/220
f 35/189/221 59/190/222 60/191/223 33/192/224
f 61/193/225 62/194/226 60/195/227 59/196/228
f 42/115/229 61/197/230 59/198/231 35/199/232
f 63/200/233 61/201/234 42/115/235
f 64/202/236 39/110/237 62/203/238
f 39/110/239 33/85/240 60/204/241 62/205/242
f 64/206/243 62/194/244 61/193/245 63/207/246
f 42/208/247 39/209/248 64/210/249 63/211/250
