# This file uses centimeters as units for non-parametric coordinates.

mtllib scifi_building.mtl
v -27.288857 54.586643 27.288849
v -27.288857 54.586643 -27.288849
v -27.288857 -0.012371 -27.288849
v -27.288857 -0.012374 27.288849
v 10.533485 -0.012371 -27.288849
v 10.533485 -0.012374 27.288849
v 27.288857 54.586643 -21.612762
v 27.288857 16.764280 -21.612762
v 23.275276 12.750690 -27.288849
v 21.612770 54.586643 -27.288849
v 27.288857 16.764280 21.612762
v 27.288857 54.586643 21.612762
v 23.275276 12.750690 27.288849
v 21.612770 54.586643 27.288849
vt 0.116447 0.558687
vt 0.058113 0.558687
vt 0.058113 0.500353
vt 0.116447 0.500353
vt 0.929153 0.215112
vt 0.929153 0.269508
vt 0.891457 0.269508
vt 0.891457 0.215113
vt 0.933803 0.148322
vt 0.894280 0.148790
vt 0.889981 0.141587
vt 0.933704 0.139934
vt 0.263279 0.528760
vt 0.307138 0.528760
vt 0.307138 0.567137
vt 0.263279 0.567137
vt 0.947112 0.269508
vt 0.947112 0.215112
vt 0.952769 0.220769
vt 0.952769 0.263851
vt 0.858326 0.838710
vt 0.963265 0.838711
vt 0.952351 0.849624
vt 0.869239 0.849624
vt 0.926694 0.086943
vt 0.928347 0.043220
vt 0.935550 0.047520
vt 0.935082 0.087043
vt 0.080347 0.517220
vt 0.078694 0.560943
vt 0.027590 0.561043
vt 0.027590 0.561043
vt 0.027479 0.504007
vt 0.067005 0.503930
vt 0.080347 0.517220
vt 0.947112 0.215112
vt 0.030924 0.560597
vt 0.083680 0.604419
vt 0.070339 0.617709
vt 0.030813 0.617633
vt 0.082028 0.560696
vt 0.083680 0.604419
vt 0.030924 0.560597
vt 0.858326 0.838710
vt 0.858326 0.744686
vt 0.963265 0.744686
vn -1.000000 0.000000 0.000000
vn -1.000000 0.000000 0.000000
vn -1.000000 0.000000 0.000000
vn -1.000000 0.000000 0.000000
vn 0.000000 -1.000000 -0.000000
vn 0.000000 -1.000000 -0.000000
vn 0.000000 -1.000000 -0.000000
vn 0.000000 -1.000000 -0.000000
vn 0.757742 0.015814 -0.652362
vn 0.757742 0.015814 -0.652362
vn 0.757742 0.015814 -0.652362
vn 0.757742 0.015814 -0.652362
vn 1.000000 0.000000 0.000000
vn 1.000000 0.000000 0.000000
vn 1.000000 0.000000 0.000000
vn 1.000000 0.000000 0.000000
vn 0.707107 -0.707106 0.000000
vn 0.707107 -0.707106 0.000000
vn 0.707107 -0.707106 0.000000
vn 0.707107 -0.707106 0.000000
vn 0.000000 1.000000 0.000000
vn 0.000000 1.000000 0.000000
vn 0.000000 1.000000 0.000000
vn 0.000000 1.000000 0.000000
vn 0.757745 0.015814 0.652359
vn 0.757745 0.015814 0.652359
vn 0.757745 0.015814 0.652359
vn 0.757745 0.015814 0.652359
vn 0.000000 0.000000 1.000000
vn 0.000000 0.000000 1.000000
vn 0.000000 0.000000 1.000000
vn -0.000002 0.000000 1.000000
vn -0.000002 0.000000 1.000000
vn -0.000002 0.000000 1.000000
vn -0.000002 0.000000 1.000000
vn 0.707697 -0.706517 -0.000000
vn 0.707697 -0.706517 -0.000000
vn 0.707697 -0.706517 -0.000000
vn 0.707697 -0.706517 -0.000000
vn 0.000000 0.000000 -1.000000
vn 0.000000 0.000000 -1.000000
vn 0.000000 0.000000 -1.000000
vn 0.000000 0.000000 -1.000000
vn 0.000000 0.000000 -1.000000
vn 0.000000 0.000000 -1.000000
vn 0.000000 0.000000 -1.000000
vn 0.000000 1.000000 0.000000
vn 0.000000 1.000000 0.000000
vn 0.000000 1.000000 0.000000
vn 0.000000 1.000000 0.000000
g building_12
usemtl lambert2SG
f 1/1/1 2/2/2 3/3/3 4/4/4
f 5/5/5 6/6/6 4/7/7 3/8/8
f 7/9/9 8/10/10 9/11/11 10/12/12
f 11/13/13 8/14/14 7/15/15 12/16/16
f 13/17/17 9/18/18 8/19/19 11/20/20
f 10/21/21 14/22/22 12/23/23 7/24/24
f 14/25/25 13/26/26 11/27/27 12/28/28
f 13/29/29 14/30/30 1/31/31
f 1/32/32 4/33/33 6/34/34 13/35/35
f 13/17/36 6/6/37 5/5/38 9/36/39
f 2/37/40 9/38/41 5/39/42 3/40/43
f 10/41/44 9/42/45 2/43/46
f 10/44/47 2/45/48 1/46/49 14/22/50
