# This file uses centimeters as units for non-parametric coordinates.

mtllib scifi_building.mtl
v 20.434944 16.222296 -26.532471
v 20.434944 16.222296 26.532471
v 20.434944 -0.003644 26.532471
v 20.434944 -0.003644 -26.532471
v -12.524643 16.222296 26.532471
v -12.524643 -0.003644 26.532471
v 14.172623 16.222296 18.742462
v -6.262321 16.222296 18.742462
v 14.172623 16.222296 -1.933090
v -6.262321 16.222296 -1.933090
v -6.262321 10.783965 -1.933090
v 14.172623 10.783965 -1.933090
v 14.172623 10.783965 18.742462
v -6.262321 10.783965 18.742462
v -12.524643 -0.003644 -26.532471
v -12.524643 -0.003644 -9.817001
v -12.524643 16.222296 -10.082336
v -12.524643 16.222296 -26.532471
v -20.434944 9.465581 26.532471
v -20.434944 -0.003644 26.532471
v -20.434944 9.465581 -10.082336
v -20.434944 -0.003644 -9.817001
vt 0.868649 0.141576
vt 0.985586 0.141576
vt 0.985586 0.177892
vt 0.868649 0.177892
vt 0.702896 0.431691
vt 0.702896 0.503803
vt 0.666840 0.503803
vt 0.666840 0.431691
vt 0.992463 0.764218
vt 0.992463 0.848523
vt 0.972538 0.832505
vt 0.972538 0.780236
vt 0.992463 0.848523
vt 0.856733 0.848523
vt 0.919653 0.832505
vt 0.307051 0.417126
vt 0.261519 0.417126
vt 0.261519 0.405009
vt 0.307051 0.405009
vt 0.263019 0.459175
vt 0.308551 0.459175
vt 0.308551 0.471293
vt 0.263019 0.471293
vt 0.307568 0.435727
vt 0.262001 0.435727
vt 0.262001 0.423741
vt 0.307568 0.423741
vt 0.223597 0.710696
vt 0.292305 0.710696
vt 0.292305 0.778605
vt 0.223597 0.778605
vt 0.664074 0.433940
vt 0.698995 0.433940
vt 0.698441 0.468369
vt 0.664074 0.468369
vt 0.307401 0.452727
vt 0.261835 0.452727
vt 0.261835 0.440741
vt 0.307401 0.440741
vt 0.663400 0.505171
vt 0.663400 0.433964
vt 0.699003 0.433964
vt 0.699003 0.505171
vt 0.919653 0.780236
vt 0.856733 0.848523
vt 0.856733 0.848523
vt 0.856733 0.764218
vt 0.898809 0.764218
vt 0.919653 0.780236
vt 0.898809 0.764218
vt 0.992463 0.764218
vt 0.919653 0.780236
vt 0.688113 0.521110
vt 0.666840 0.521110
vt 0.992463 0.764218
vt 0.898809 0.764218
vt 0.898809 0.737608
vt 0.992464 0.737609
vt 0.928311 0.205605
vt 0.893427 0.205605
vt 0.893426 0.188863
vt 0.914012 0.188862
vt 0.761000 0.441806
vt 0.761000 0.522512
vt 0.739569 0.521927
vt 0.739569 0.441806
vn 1.000000 0.000000 0.000000
vn 1.000000 0.000000 0.000000
vn 1.000000 0.000000 0.000000
vn 1.000000 0.000000 0.000000
vn 0.000000 0.000000 1.000000
vn 0.000000 0.000000 1.000000
vn 0.000000 0.000000 1.000000
vn 0.000000 0.000000 1.000000
vn 0.000000 1.000000 0.000000
vn 0.000000 1.000000 0.000000
vn 0.000000 1.000000 0.000000
vn 0.000000 1.000000 0.000000
vn 0.000000 1.000000 0.000000
vn 0.000000 1.000000 0.000000
vn 0.000000 1.000000 0.000000
vn 0.000000 1.000000 0.000000
vn 0.000000 0.000000 1.000000
vn 0.000000 0.000000 1.000000
vn 0.000000 0.000000 1.000000
vn 0.000000 0.000000 1.000000
vn 0.000000 0.000000 -1.000000
vn 0.000000 0.000000 -1.000000
vn 0.000000 0.000000 -1.000000
vn 0.000000 0.000000 -1.000000
vn -1.000000 0.000000 0.000000
vn -1.000000 0.000000 0.000000
vn -1.000000 0.000000 0.000000
vn -1.000000 0.000000 0.000000
vn 0.000000 1.000000 0.000000
vn 0.000000 1.000000 0.000000
vn 0.000000 1.000000 0.000000
vn 0.000000 1.000000 0.000000
vn -1.000000 0.000000 0.000000
vn -1.000000 0.000000 0.000000
vn -1.000000 0.000000 0.000000
vn -1.000000 0.000000 0.000000
vn 1.000000 0.000000 0.000000
vn 1.000000 0.000000 0.000000
vn 1.000000 0.000000 0.000000
vn 1.000000 0.000000 0.000000
vn 0.000000 0.000000 -1.000000
vn 0.000000 0.000000 -1.000000
vn 0.000000 0.000000 -1.000000
vn 0.000000 0.000000 -1.000000
vn 0.000000 1.000000 0.000000
vn 0.000000 1.000000 0.000000
vn 0.000000 1.000000 0.000000
vn 0.000000 1.000000 0.000000
vn 0.000000 1.000000 0.000000
vn 0.000000 1.000000 0.000000
vn 0.000000 1.000000 0.000000
vn 0.000000 1.000000 0.000000
vn 0.000000 1.000000 0.000000
vn 0.000000 1.000000 0.000000
vn 0.000000 1.000000 0.000000
vn 0.000000 0.000000 1.000000
vn 0.000000 0.000000 1.000000
vn 0.000000 0.000000 1.000000
vn 0.000000 0.000000 1.000000
vn -0.649486 0.760374 0.000000
vn -0.649486 0.760374 0.000000
vn -0.649486 0.760374 0.000000
vn -0.649486 0.760374 0.000000
vn 0.008820 -0.020647 -0.999748
vn 0.008820 -0.020647 -0.999748
vn 0.008820 -0.020647 -0.999748
vn 0.008820 -0.020647 -0.999748
vn -1.000000 0.000000 0.000000
vn -1.000000 0.000000 0.000000
vn -1.000000 0.000000 0.000000
vn -1.000000 0.000000 0.000000
g building_17
usemtl lambert2SG
f 1/1/1 2/2/2 3/3/3 4/4/4
f 2/5/5 5/6/6 6/7/7 3/8/8
f 5/9/9 2/10/10 7/11/11 8/12/12
f 2/13/13 1/14/14 9/15/15 7/11/16
f 9/16/17 10/17/18 11/18/19 12/19/20
f 8/20/21 7/21/22 13/22/23 14/23/24
f 7/24/25 9/25/26 12/26/27 13/27/28
f 11/28/29 14/29/30 13/30/31 12/31/32
f 15/32/33 16/33/34 17/34/35 18/35/36
f 14/36/37 11/37/38 10/38/39 8/39/40
f 4/40/41 15/41/42 18/42/43 1/43/44
f 10/44/45 9/15/46 1/45/47
f 1/46/48 18/47/49 17/48/50 10/49/51
f 17/50/52 5/51/53 8/12/54 10/52/55
f 6/7/56 5/6/57 19/53/58 20/54/59
f 5/55/60 17/56/61 21/57/62 19/58/63
f 17/59/64 16/60/65 22/61/66 21/62/67
f 19/63/68 21/64/69 22/65/70 20/66/71
