# This file uses centimeters as units for non-parametric coordinates.

mtllib scifi_building.mtl
v -36.792370 28.698046 -36.792358
v 36.792370 28.698046 -36.792358
v 36.792370 0.000364 -36.792358
v -36.792370 0.000364 -36.792358
v 36.792370 28.698046 36.792358
v 36.792370 0.000364 36.792358
v -36.792370 28.698046 36.792358
v -36.792370 0.000364 36.792358
v -27.226353 25.754658 33.113129
v -27.226353 106.697868 33.113129
v -34.584827 106.697868 25.754639
v -34.584827 25.754658 25.754639
v 21.339573 25.754658 25.754639
v 21.339573 106.697868 25.754639
v 13.981098 106.697868 33.113129
v 13.981098 25.754658 33.113129
v 21.339573 106.697868 -15.452789
v 21.339573 25.754658 -15.452789
v 13.981098 25.754658 -22.811279
v 13.981098 106.697868 -22.811279
v -34.584827 25.754658 -15.452789
v -34.584827 106.697868 -15.452789
v -27.226353 106.697868 -22.811279
v -27.226353 25.754658 -22.811279
v -22.443348 106.697868 -10.423676
v -22.443348 106.697868 20.725494
v 8.951954 106.697868 20.971649
v 9.198093 106.697868 -10.423676
v -22.443348 125.094055 20.725494
v -22.443348 125.094055 -10.423676
v 8.951954 125.094055 20.971649
v 9.198093 125.094055 -10.423676
vt 0.110224 0.587376
vt 0.011768 0.587376
vt 0.011768 0.548978
vt 0.110224 0.548978
vt 0.111407 0.547661
vt 0.012951 0.547661
vt 0.012951 0.509263
vt 0.111407 0.509263
vt 0.011493 0.592739
vt 0.109949 0.592739
vt 0.109949 0.631137
vt 0.011493 0.631137
vt 0.012085 0.554291
vt 0.110541 0.554291
vt 0.110541 0.592689
vt 0.012085 0.592689
vt 0.862847 0.859047
vt 0.997153 0.859047
vt 0.997153 0.993353
vt 0.862847 0.993353
vt 0.984556 0.032231
vt 0.984556 0.236589
vt 0.958283 0.236589
vt 0.958283 0.032231
vt 0.897367 0.030056
vt 0.897367 0.234415
vt 0.871094 0.234415
vt 0.871094 0.030056
vt 0.926394 0.032133
vt 0.926394 0.236687
vt 0.900096 0.236687
vt 0.900096 0.032133
vt 0.954321 0.032133
vt 0.954321 0.236688
vt 0.928023 0.236687
vt 0.928023 0.032133
vt 0.842046 0.425825
vt 0.842046 0.519873
vt 0.794167 0.519873
vt 0.794167 0.425825
vt 0.841886 0.425825
vt 0.841886 0.519873
vt 0.794007 0.519873
vt 0.794007 0.425825
vt 0.868594 0.202395
vt 0.879596 0.191393
vt 0.887115 0.209546
vt 0.879596 0.191393
vt 0.941205 0.191393
vt 0.933686 0.209546
vt 0.941205 0.191393
vt 0.952207 0.202395
vt 0.952207 0.202395
vt 0.952207 0.264005
vt 0.934054 0.256485
vt 0.952207 0.264005
vt 0.941204 0.275007
vt 0.941204 0.275007
vt 0.879595 0.275005
vt 0.887115 0.256852
vt 0.879595 0.275005
vt 0.868594 0.264003
vt 0.868594 0.264003
vt 0.868594 0.202395
vt 0.590528 0.489166
vt 0.643472 0.489166
vt 0.643472 0.520434
vt 0.590528 0.520434
vt 0.590777 0.473035
vt 0.643223 0.473035
vt 0.643223 0.503765
vt 0.590777 0.503765
vt 0.642294 0.485855
vt 0.590906 0.485855
vt 0.590906 0.455745
vt 0.642294 0.455745
vt 0.643274 0.455276
vt 0.590726 0.455276
vt 0.590726 0.424724
vt 0.643274 0.424724
vt 0.151746 0.708654
vt 0.293937 0.708654
vt 0.293937 0.850845
vt 0.150640 0.849722
vt 0.495605 0.625406
vt 0.495605 0.541794
vt 0.506606 0.552795
vt 0.506606 0.614405
vt 0.433995 0.541794
vt 0.433995 0.625406
vt 0.422994 0.614405
vt 0.422994 0.552795
vt 0.495605 0.625406
vt 0.433995 0.625406
vt 0.433995 0.541794
vt 0.495605 0.541794
vt 0.777507 0.426476
vt 0.777507 0.520652
vt 0.729563 0.520652
vt 0.729563 0.426476
vt 0.777742 0.426870
vt 0.777742 0.520828
vt 0.729908 0.520828
vt 0.729908 0.426870
vn 0.000000 0.000000 -1.000000
vn 0.000000 0.000000 -1.000000
vn 0.000000 0.000000 -1.000000
vn 0.000000 0.000000 -1.000000
vn 1.000000 0.000000 0.000000
vn 1.000000 0.000000 0.000000
vn 1.000000 0.000000 0.000000
vn 1.000000 0.000000 0.000000
vn 0.000000 0.000000 1.000000
vn 0.000000 0.000000 1.000000
vn 0.000000 0.000000 1.000000
vn 0.000000 0.000000 1.000000
vn -1.000000 0.000000 0.000000
vn -1.000000 0.000000 0.000000
vn -1.000000 0.000000 0.000000
vn -1.000000 0.000000 0.000000
vn 0.000000 1.000000 0.000000
vn 0.000000 1.000000 0.000000
vn 0.000000 1.000000 0.000000
vn 0.000000 1.000000 0.000000
vn -0.707106 0.000000 0.707108
vn -0.707106 0.000000 0.707108
vn -0.707106 0.000000 0.707108
vn -0.707106 0.000000 0.707108
vn 0.707106 0.000000 0.707108
vn 0.707106 0.000000 0.707108
vn 0.707106 0.000000 0.707108
vn 0.707106 0.000000 0.707108
vn 0.707106 0.000000 -0.707108
vn 0.707106 0.000000 -0.707108
vn 0.707106 0.000000 -0.707108
vn 0.707106 0.000000 -0.707108
vn -0.707106 0.000000 -0.707108
vn -0.707106 0.000000 -0.707108
vn -0.707106 0.000000 -0.707108
vn -0.707106 0.000000 -0.707108
vn 1.000000 0.000000 0.000000
vn 1.000000 0.000000 0.000000
vn 1.000000 0.000000 0.000000
vn 1.000000 0.000000 0.000000
vn -1.000000 0.000000 0.000000
vn -1.000000 0.000000 0.000000
vn -1.000000 0.000000 0.000000
vn -1.000000 0.000000 0.000000
vn 0.000000 1.000000 0.000000
vn 0.000000 1.000000 0.000000
vn 0.000000 1.000000 0.000000
vn 0.000000 1.000000 0.000000
vn 0.000000 1.000000 0.000000
vn 0.000000 1.000000 0.000000
vn 0.000000 1.000000 0.000000
vn 0.000000 1.000000 0.000000
vn 0.000000 1.000000 0.000000
vn 0.000000 1.000000 0.000000
vn 0.000000 1.000000 0.000001
vn 0.000000 1.000000 0.000001
vn 0.000000 1.000000 0.000001
vn 0.000000 1.000000 0.000001
vn 0.000000 1.000000 0.000000
vn 0.000000 1.000000 0.000000
vn 0.000000 1.000000 0.000000
vn 0.000000 1.000000 0.000000
vn 0.000000 1.000000 0.000000
vn 0.000000 1.000000 0.000000
vn 0.000000 1.000000 0.000000
vn 0.000000 1.000000 0.000000
vn 0.000000 1.000000 0.000000
vn 0.000000 1.000000 0.000000
vn 0.000000 1.000000 -0.000001
vn 0.000000 1.000000 -0.000001
vn 0.000000 1.000000 -0.000001
vn 0.000000 1.000000 -0.000001
vn -1.000000 0.000000 0.000000
vn -1.000000 0.000000 0.000000
vn -1.000000 0.000000 0.000000
vn -1.000000 0.000000 0.000000
vn -0.007840 0.000000 0.999969
vn -0.007840 0.000000 0.999969
vn -0.007840 0.000000 0.999969
vn -0.007840 0.000000 0.999969
vn 0.999969 0.000000 0.007840
vn 0.999969 0.000000 0.007840
vn 0.999969 0.000000 0.007840
vn 0.999969 0.000000 0.007840
vn 0.000000 0.000000 -1.000000
vn 0.000000 0.000000 -1.000000
vn 0.000000 0.000000 -1.000000
vn 0.000000 0.000000 -1.000000
vn 0.000000 1.000000 0.000000
vn 0.000000 1.000000 0.000000
vn 0.000000 1.000000 0.000000
vn 0.000000 1.000000 0.000000
vn 0.000000 -1.000000 0.000000
vn 0.000000 -1.000000 0.000000
vn 0.000000 -1.000000 0.000000
vn 0.000000 -1.000000 0.000000
vn 0.000000 -1.000000 0.000000
vn 0.000000 -1.000000 0.000000
vn 0.000000 -1.000000 0.000000
vn 0.000000 -1.000000 0.000000
vn 0.000000 -1.000000 0.000000
vn 0.000000 -1.000000 0.000000
vn 0.000000 -1.000000 0.000000
vn 0.000000 -1.000000 0.000000
vn 0.000000 0.000000 -1.000000
vn 0.000000 0.000000 -1.000000
vn 0.000000 0.000000 -1.000000
vn 0.000000 0.000000 -1.000000
vn 0.000000 0.000000 1.000000
vn 0.000000 0.000000 1.000000
vn 0.000000 0.000000 1.000000
vn 0.000000 0.000000 1.000000
g building_36
usemtl lambert2SG
f 1/1/1 2/2/2 3/3/3 4/4/4
f 2/5/5 5/6/6 6/7/7 3/8/8
f 5/9/9 7/10/10 8/11/11 6/12/12
f 7/13/13 1/14/14 4/15/15 8/16/16
f 1/17/17 7/18/18 5/19/19 2/20/20
f 9/21/21 10/22/22 11/23/23 12/24/24
f 13/25/25 14/26/26 15/27/27 16/28/28
f 17/29/29 18/30/30 19/31/31 20/32/32
f 21/33/33 22/34/34 23/35/35 24/36/36
f 14/37/37 13/38/38 18/39/39 17/40/40
f 22/41/41 21/42/42 12/43/43 11/44/44
f 23/45/45 22/46/46 25/47/47
f 22/48/48 11/49/49 26/50/50 25/47/51
f 11/51/52 10/52/53 26/50/54
f 10/53/55 15/54/56 27/55/57 26/50/58
f 15/56/59 14/57/60 27/55/61
f 14/58/62 17/59/63 28/60/64 27/55/65
f 17/61/66 20/62/67 28/60/68
f 20/63/69 23/64/70 25/47/71 28/60/72
f 25/65/73 26/66/74 29/67/75 30/68/76
f 26/69/77 27/70/78 31/71/79 29/72/80
f 27/73/81 28/74/82 32/75/83 31/76/84
f 28/77/85 25/78/86 30/79/87 32/80/88
f 29/81/89 31/82/90 32/83/91 30/84/92
f 16/85/93 19/86/94 18/87/95 13/88/96
f 24/89/97 9/90/98 12/91/99 21/92/100
f 16/93/101 9/94/102 24/95/103 19/96/104
f 20/97/105 19/98/106 24/99/107 23/100/108
f 10/101/109 9/102/110 16/103/111 15/104/112
