# This file uses centimeters as units for non-parametric coordinates.

mtllib scifi_building.mtl
v 17.315897 31.143700 -31.143692
v 17.315897 31.143700 31.143692
v 31.143700 17.315897 31.143692
v 31.143700 17.315897 -31.143692
v -31.143700 17.315897 -31.143692
v -31.143700 17.315897 31.143692
v -17.315895 31.143700 31.143692
v -17.315895 31.143700 -31.143692
v -31.143700 -0.003469 -31.143692
v 31.143700 -0.003469 -31.143692
v 31.143700 -0.003469 31.143692
v -31.143700 -0.003469 31.143692
vt 0.852732 0.679078
vt 0.995908 0.679078
vt 0.995908 0.724028
vt 0.852732 0.724028
vt 0.852732 0.554522
vt 0.995908 0.554522
vt 0.995908 0.599472
vt 0.852732 0.599472
vt 0.509707 0.373584
vt 0.509707 0.398635
vt 0.419596 0.398635
vt 0.419596 0.373584
vt 0.419596 0.398635
vt 0.509707 0.398635
vt 0.489703 0.418639
vt 0.439601 0.418640
vt 0.535443 0.395189
vt 0.535443 0.420240
vt 0.445331 0.420240
vt 0.445331 0.395189
vt 0.445331 0.420240
vt 0.535443 0.420240
vt 0.515438 0.440245
vt 0.465336 0.440245
vt 0.574128 0.441790
vt 0.574128 0.467260
vt 0.482512 0.467260
vt 0.482512 0.441790
vt 0.418512 0.467260
vt 0.418512 0.441790
vt 0.510128 0.441790
vt 0.510128 0.467260
vn 0.707107 0.707107 0.000000
vn 0.707107 0.707107 0.000000
vn 0.707107 0.707107 0.000000
vn 0.707107 0.707107 0.000000
vn -0.707107 0.707107 0.000000
vn -0.707107 0.707107 0.000000
vn -0.707107 0.707107 0.000000
vn -0.707107 0.707107 0.000000
vn 0.000000 1.000000 0.000000
vn 0.000000 1.000000 0.000000
vn 0.000000 1.000000 0.000000
vn 0.000000 1.000000 0.000000
vn 0.000000 0.000000 -1.000000
vn 0.000000 0.000000 -1.000000
vn 0.000000 0.000000 -1.000000
vn 0.000000 0.000000 -1.000000
vn 0.000000 0.000000 -1.000000
vn 0.000000 0.000000 -1.000000
vn 0.000000 0.000000 -1.000000
vn 0.000000 0.000000 -1.000000
vn 0.000000 0.000000 1.000000
vn 0.000000 0.000000 1.000000
vn 0.000000 0.000000 1.000000
vn 0.000000 0.000000 1.000000
vn 0.000000 0.000000 1.000000
vn 0.000000 0.000000 1.000000
vn 0.000000 0.000000 1.000000
vn 0.000000 0.000000 1.000000
vn 1.000000 0.000000 0.000000
vn 1.000000 0.000000 0.000000
vn 1.000000 0.000000 0.000000
vn 1.000000 0.000000 0.000000
vn -1.000000 0.000000 0.000000
vn -1.000000 0.000000 0.000000
vn -1.000000 0.000000 0.000000
vn -1.000000 0.000000 0.000000
g building_21
usemtl lambert2SG
f 1/1/1 2/2/2 3/3/3 4/4/4
f 5/5/5 6/6/6 7/7/7 8/8/8
f 7/7/9 2/2/10 1/1/11 8/8/12
f 9/9/13 5/10/14 4/11/15 10/12/16
f 4/13/17 5/14/18 8/15/19 1/16/20
f 11/17/21 3/18/22 6/19/23 12/20/24
f 6/21/25 3/22/26 2/23/27 7/24/28
f 3/25/29 11/26/30 10/27/31 4/28/32
f 5/29/33 9/30/34 12/31/35 6/32/36
