# This file uses centimeters as units for non-parametric coordinates.

mtllib scifi_building.mtl
v -18.797551 81.526459 -10.771637
v -18.797551 81.526459 24.500183
v 12.672508 81.526459 24.500183
v 12.672508 81.526459 -10.771637
v -21.120846 27.245890 -24.500183
v 21.120846 27.245890 -24.500183
v 21.120846 -0.003469 -24.500183
v -21.120846 -0.003469 -24.500183
v 21.120846 27.245890 17.741486
v 21.120846 -0.003469 17.741486
v -21.120846 27.245890 17.741486
v -21.120846 -0.003469 17.741486
v -18.797551 -0.003469 -10.771637
v -18.797551 50.174683 -10.771637
v 7.392295 50.174683 -10.771637
v 7.392295 -0.003469 -10.771637
v -18.797551 55.218338 -10.771637
v 12.672508 55.218338 -10.771637
v 7.392295 50.174683 24.500183
v 7.392295 -0.003469 24.500183
v 12.672508 55.218338 24.500183
v -18.797551 50.174683 24.500183
v -18.797551 -0.003469 24.500183
v -18.797551 55.218338 24.500183
vt 0.987258 0.281843
vt 0.987258 0.419285
vt 0.864630 0.419285
vt 0.864630 0.281843
vt 0.222649 0.586002
vt 0.143970 0.586002
vt 0.143970 0.535254
vt 0.222649 0.535254
vt 0.143920 0.545190
vt 0.222599 0.545190
vt 0.222599 0.595938
vt 0.143920 0.595938
vt 0.972283 0.143412
vt 0.893605 0.143412
vt 0.893605 0.092664
vt 0.972283 0.092664
vt 0.222467 0.549912
vt 0.143789 0.549912
vt 0.143789 0.499164
vt 0.222467 0.499164
vt 0.856213 0.854307
vt 0.995359 0.854307
vt 0.995359 0.993453
vt 0.856213 0.993453
vt 0.078928 0.504907
vt 0.078928 0.580028
vt 0.039717 0.580028
vt 0.039717 0.504907
vt 0.078928 0.587579
vt 0.031812 0.587579
vt 0.078928 0.626968
vt 0.031812 0.626968
vt 0.961286 0.085571
vt 0.961286 0.174141
vt 0.899023 0.174141
vt 0.899023 0.085571
vt 0.961286 0.174141
vt 0.961286 0.187031
vt 0.899023 0.187031
vt 0.305744 0.603463
vt 0.305744 0.541455
vt 0.388880 0.541455
vt 0.388880 0.603463
vt 0.062830 0.504907
vt 0.062830 0.580028
vt 0.023619 0.580028
vt 0.023619 0.504907
vt 0.062830 0.580028
vt 0.070735 0.587579
vt 0.023619 0.587579
vt 0.070735 0.587579
vt 0.070735 0.626968
vt 0.023619 0.626968
vt 0.213831 0.498103
vt 0.213831 0.576994
vt 0.158372 0.576994
vt 0.158372 0.498103
vt 0.213831 0.576994
vt 0.213831 0.584924
vt 0.158372 0.584924
vt 0.158372 0.576994
vt 0.213831 0.584924
vt 0.213831 0.626289
vt 0.158372 0.626289
vt 0.158372 0.584924
vt 0.923118 0.106392
vt 0.923119 0.164420
vt 0.880032 0.164420
vt 0.880032 0.106392
vn 0.000000 1.000000 0.000000
vn 0.000000 1.000000 0.000000
vn 0.000000 1.000000 0.000000
vn 0.000000 1.000000 0.000000
vn 0.000000 0.000000 -1.000000
vn 0.000000 0.000000 -1.000000
vn 0.000000 0.000000 -1.000000
vn 0.000000 0.000000 -1.000000
vn 1.000000 0.000000 0.000000
vn 1.000000 0.000000 0.000000
vn 1.000000 0.000000 0.000000
vn 1.000000 0.000000 0.000000
vn 0.000000 0.000000 1.000000
vn 0.000000 0.000000 1.000000
vn 0.000000 0.000000 1.000000
vn 0.000000 0.000000 1.000000
vn -1.000000 0.000000 0.000000
vn -1.000000 0.000000 0.000000
vn -1.000000 0.000000 0.000000
vn -1.000000 0.000000 0.000000
vn 0.000000 1.000000 0.000000
vn 0.000000 1.000000 0.000000
vn 0.000000 1.000000 0.000000
vn 0.000000 1.000000 0.000000
vn 0.000000 0.000000 -1.000000
vn 0.000000 0.000000 -1.000000
vn 0.000000 0.000000 -1.000000
vn 0.000000 0.000000 -1.000000
vn 0.000000 0.000000 -1.000000
vn 0.000000 0.000000 -1.000000
vn 0.000000 0.000000 -1.000000
vn 0.000000 0.000000 -1.000000
vn 0.000000 0.000000 -1.000000
vn 0.000000 0.000000 -1.000000
vn 0.000000 0.000000 -1.000000
vn 0.000000 0.000000 -1.000000
vn 1.000000 0.000000 0.000000
vn 1.000000 0.000000 0.000000
vn 1.000000 0.000000 0.000000
vn 1.000000 0.000000 0.000000
vn 0.690723 -0.723120 0.000000
vn 0.690723 -0.723120 0.000000
vn 0.690723 -0.723120 0.000000
vn 0.690723 -0.723120 0.000000
vn 1.000000 0.000000 0.000000
vn 1.000000 0.000000 0.000000
vn 1.000000 0.000000 0.000000
vn 1.000000 0.000000 0.000000
vn 0.000000 0.000000 1.000000
vn 0.000000 0.000000 1.000000
vn 0.000000 0.000000 1.000000
vn 0.000000 0.000000 1.000000
vn 0.000000 0.000000 1.000000
vn 0.000000 0.000000 1.000000
vn 0.000000 0.000000 1.000000
vn 0.000000 0.000000 1.000000
vn 0.000000 0.000000 1.000000
vn 0.000000 0.000000 1.000000
vn 0.000000 0.000000 1.000000
vn 0.000000 0.000000 1.000000
vn -1.000000 0.000000 0.000000
vn -1.000000 0.000000 0.000000
vn -1.000000 0.000000 0.000000
vn -1.000000 0.000000 0.000000
vn -1.000000 0.000000 0.000000
vn -1.000000 0.000000 0.000000
vn -1.000000 0.000000 0.000000
vn -1.000000 0.000000 0.000000
vn -1.000000 0.000000 0.000000
vn -1.000000 0.000000 0.000000
vn -1.000000 0.000000 0.000000
vn -1.000000 0.000000 0.000000
vn 0.000000 -1.000000 0.000000
vn 0.000000 -1.000000 0.000000
vn 0.000000 -1.000000 0.000000
vn 0.000000 -1.000000 0.000000
g building_19
usemtl lambert2SG
f 1/1/1 2/2/2 3/3/3 4/4/4
f 5/5/5 6/6/6 7/7/7 8/8/8
f 6/9/9 9/10/10 10/11/11 7/12/12
f 9/13/13 11/14/14 12/15/15 10/16/16
f 11/17/17 5/18/18 8/19/19 12/20/20
f 5/21/21 11/22/22 9/23/23 6/24/24
f 13/25/25 14/26/26 15/27/27 16/28/28
f 14/26/29 17/29/30 18/30/31 15/27/32
f 17/29/33 1/31/34 4/32/35 18/30/36
f 16/33/37 15/34/38 19/35/39 20/36/40
f 15/37/41 18/38/42 21/39/43 19/35/44
f 18/40/45 4/41/46 3/42/47 21/43/48
f 20/44/49 19/45/50 22/46/51 23/47/52
f 19/48/53 21/49/54 24/50/55 22/46/56
f 21/51/57 3/52/58 2/53/59 24/50/60
f 23/54/61 22/55/62 14/56/63 13/57/64
f 22/58/65 24/59/66 17/60/67 14/61/68
f 24/62/69 2/63/70 1/64/71 17/65/72
f 16/66/73 20/67/74 23/68/75 13/69/76
