# This file uses centimeters as units for non-parametric coordinates.

mtllib scifi_building.mtl
v 45.458955 37.383942 -45.458984
v 45.458955 37.383942 45.458984
v 45.458955 -0.012366 45.458984
v 45.458955 -0.012366 -45.458984
v -45.458955 84.661255 45.458984
v -45.458955 84.661255 -45.458984
v -45.458955 -0.012366 -45.458984
v -45.458955 -0.012366 45.458984
v 14.092277 -0.012366 45.458984
v 14.092277 -0.012366 -45.458984
v 14.092277 37.383942 -45.458984
v 14.092277 37.383942 45.458984
vt 0.334958 0.396599
vt 0.334958 0.458442
vt 0.309602 0.458442
vt 0.309602 0.396599
vt 0.966153 0.162302
vt 0.906407 0.162302
vt 0.906407 0.106738
vt 0.966153 0.106738
vt 0.942126 0.226366
vt 0.922222 0.226366
vt 0.922222 0.168674
vt 0.942126 0.168674
vt 0.884434 0.226366
vt 0.884434 0.168674
vt 0.478561 0.403042
vt 0.511669 0.403041
vt 0.511669 0.442387
vt 0.478562 0.442387
vt 0.511669 0.403041
vt 0.574526 0.403041
vt 0.574526 0.492289
vt 0.547845 0.391165
vt 0.514738 0.391165
vt 0.514738 0.351819
vt 0.547846 0.351819
vt 0.451881 0.441067
vt 0.451881 0.351819
vt 0.514738 0.351819
vt 0.151538 0.793333
vt 0.151538 0.768326
vt 0.224022 0.768326
vt 0.224022 0.793333
vt 0.151538 0.768326
vt 0.151538 0.707707
vt 0.224021 0.707707
vt 0.224022 0.768326
vn 1.000000 0.000000 0.000000
vn 1.000000 0.000000 0.000000
vn 1.000000 0.000000 0.000000
vn 1.000000 0.000000 0.000000
vn -1.000000 0.000000 0.000000
vn -1.000000 0.000000 0.000000
vn -1.000000 0.000000 0.000000
vn -1.000000 0.000000 0.000000
vn 0.000000 -1.000000 0.000000
vn 0.000000 -1.000000 0.000000
vn 0.000000 -1.000000 0.000000
vn 0.000000 -1.000000 0.000000
vn 0.000000 -1.000000 0.000000
vn 0.000000 -1.000000 0.000000
vn 0.000000 -1.000000 0.000000
vn 0.000000 -1.000000 0.000000
vn 0.000000 0.000000 -1.000000
vn 0.000000 0.000000 -1.000000
vn 0.000000 0.000000 -1.000000
vn 0.000000 0.000000 -1.000000
vn 0.000000 0.000000 -1.000000
vn 0.000000 0.000000 -1.000000
vn 0.000000 0.000000 -1.000000
vn 0.000000 0.000000 -1.000000
vn 0.000000 0.000000 1.000000
vn 0.000000 0.000000 1.000000
vn 0.000000 0.000000 1.000000
vn 0.000000 0.000000 1.000000
vn 0.000000 0.000000 1.000000
vn 0.000000 0.000000 1.000000
vn 0.000000 0.000000 1.000000
vn 0.000000 0.000000 1.000000
vn 0.000000 1.000000 0.000000
vn 0.000000 1.000000 0.000000
vn 0.000000 1.000000 0.000000
vn 0.000000 1.000000 0.000000
vn 0.621774 0.783197 0.000000
vn 0.621774 0.783197 0.000000
vn 0.621774 0.783197 0.000000
vn 0.621774 0.783197 0.000000
g building_31
usemtl lambert2SG
f 1/1/1 2/2/2 3/3/3 4/4/4
f 5/5/5 6/6/6 7/7/7 8/8/8
f 3/9/9 9/10/10 10/11/11 4/12/12
f 9/10/13 8/13/14 7/14/15 10/11/16
f 4/15/17 10/16/18 11/17/19 1/18/20
f 10/19/21 7/20/22 6/21/23 11/17/24
f 2/22/25 12/23/26 9/24/27 3/25/28
f 12/23/29 5/26/30 8/27/31 9/28/32
f 1/29/33 11/30/34 12/31/35 2/32/36
f 11/33/37 6/34/38 5/35/39 12/36/40
