# This file uses centimeters as units for non-parametric coordinates.

mtllib scifi_building.mtl
v -17.499998 -0.012369 27.107483
v -17.499998 35.052498 27.107483
v -59.220003 13.002500 27.107483
v -59.220003 -0.012369 27.107483
v -17.499998 35.052498 -7.892517
v -59.220003 13.002500 -7.892517
v -17.499998 -0.012369 -7.892517
v -59.220003 -0.012369 -7.892517
v -17.499998 13.002500 -32.392517
v -17.499998 -0.012369 -32.392517
v 17.500002 35.052498 -7.892517
v 17.500002 13.002500 -32.392517
v 17.500002 -0.012369 -7.892517
v 17.500002 -0.012369 -32.392517
v 59.220003 13.002500 -7.892395
v 59.220003 -0.012369 -7.892395
v 17.500002 35.052498 27.107483
v 59.220003 13.002500 27.107605
v 17.500002 -0.012369 27.107483
v 59.220003 -0.012369 27.107605
v 17.500002 13.002500 51.607483
v 17.500002 -0.012369 51.607483
v -17.499998 13.002500 51.607483
v -17.499998 -0.012369 51.607483
v -17.499998 13.002500 -51.117493
v -17.499998 -0.012369 -51.117493
v 17.500002 -0.012369 -51.117493
v 17.500002 13.002500 -51.117493
v -13.369993 13.002500 -36.522400
v -13.370001 13.002500 -46.987366
v 13.370005 13.002500 -36.522522
v 13.369997 13.002500 -46.987488
v -13.369993 43.452503 -36.522400
v -13.370001 43.452503 -46.987366
v 13.370005 43.452503 -36.522522
v 13.369997 43.452503 -46.987488
v -17.989996 44.222500 -51.607483
v 17.990000 44.222500 -51.607483
v -17.989996 64.872498 -51.607483
v 17.990000 64.872498 -51.607483
v 17.990007 64.872498 -12.652405
v -17.989996 64.872498 -12.652527
v -11.094999 57.977501 -12.617493
v 11.094995 57.977501 -12.617493
v -11.339994 35.052498 7.466248
v -11.339994 35.052498 0.548889
v 11.340006 35.052498 7.466248
v 11.340006 35.052498 0.548767
v -11.217505 58.249802 7.704651
v -11.217497 51.308250 0.705139
v 11.217493 58.249802 7.704773
v 11.217501 51.308250 0.705261
v -11.094999 51.117500 -12.617493
v 11.094995 51.117500 -12.617493
v -13.334997 69.597504 -46.952454
v 13.335001 69.597504 -46.952454
v 13.335001 69.597504 -17.307434
v -13.334997 69.597504 -17.307434
v -17.989996 44.222500 -12.652527
v 17.990007 44.222500 -12.652405
vt 0.949150 0.065885
vt 0.949150 0.117969
vt 0.886247 0.085156
vt 0.886247 0.065885
vt 0.300931 0.778590
vt 0.354543 0.778590
vt 0.354543 0.850873
vt 0.300931 0.850873
vt 0.955150 0.250969
vt 0.955150 0.198885
vt 0.892247 0.198885
vt 0.892247 0.218156
vt 0.791740 0.445859
vt 0.843824 0.445859
vt 0.843824 0.426162
vt 0.791740 0.426162
vt 0.023247 0.497552
vt 0.023247 0.549635
vt 0.058901 0.516823
vt 0.058901 0.497552
vt 0.921711 0.213382
vt 0.921711 0.263972
vt 0.957374 0.263972
vt 0.957374 0.213382
vt 0.037247 0.547635
vt 0.037247 0.495552
vt 0.072901 0.495552
vt 0.072901 0.514823
vt 0.878247 0.146719
vt 0.878247 0.198802
vt 0.941150 0.165989
vt 0.941150 0.146719
vt 0.340642 0.779266
vt 0.393832 0.779266
vt 0.393832 0.850979
vt 0.340642 0.850979
vt 0.886247 0.063802
vt 0.886247 0.011719
vt 0.949150 0.011719
vt 0.949150 0.030989
vt 0.776990 0.447859
vt 0.724907 0.447859
vt 0.724907 0.428162
vt 0.776990 0.428162
vt 0.984500 0.083719
vt 0.984500 0.135802
vt 0.943230 0.102989
vt 0.943230 0.083719
vt 0.869785 0.995745
vt 0.869785 0.912609
vt 0.948078 0.912610
vt 0.948078 0.995745
vt 0.984500 0.081635
vt 0.984500 0.029552
vt 0.943230 0.029552
vt 0.943230 0.048823
vt 0.709490 0.494025
vt 0.657407 0.494025
vt 0.657407 0.474329
vt 0.709490 0.474329
vt 0.086150 0.516823
vt 0.086150 0.497552
vt 0.072901 0.514823
vt 0.100150 0.495552
vt 0.100150 0.514823
vt 0.793574 0.445859
vt 0.845657 0.445859
vt 0.845657 0.426162
vt 0.793574 0.426162
vt 0.984631 0.213382
vt 0.957374 0.213382
vt 0.963385 0.219352
vt 0.978619 0.219352
vt 0.957374 0.213382
vt 0.963385 0.258002
vt 0.984631 0.263972
vt 0.978619 0.258002
vt 0.984631 0.263972
vt 0.984631 0.213382
vt 0.642880 0.360885
vt 0.623183 0.360885
vt 0.623183 0.412969
vt 0.642880 0.412969
vt 0.661397 0.361052
vt 0.702667 0.361052
vt 0.702667 0.413135
vt 0.661397 0.413135
vt 0.644850 0.360885
vt 0.664547 0.360885
vt 0.664547 0.412969
vt 0.644850 0.412969
vt 0.778334 0.362219
vt 0.737064 0.362219
vt 0.737064 0.414302
vt 0.778334 0.414302
vt 0.210690 0.761448
vt 0.210690 0.722740
vt 0.218150 0.716052
vt 0.218150 0.768135
vt 0.106277 0.582516
vt 0.050287 0.582516
vt 0.050287 0.618620
vt 0.106277 0.618620
vt 0.300657 0.708461
vt 0.248574 0.708461
vt 0.258555 0.697246
vt 0.290676 0.697246
vt 0.921711 0.213382
vt 0.870763 0.213382
vt 0.899354 0.222286
vt 0.909423 0.222286
vt 0.870763 0.213382
vt 0.870763 0.263972
vt 0.899354 0.255068
vt 0.870763 0.263972
vt 0.909423 0.255068
vt 0.921711 0.213382
vt 0.953443 0.130875
vt 0.943072 0.130875
vt 0.942714 0.172145
vt 0.953209 0.159796
vt 0.713014 0.933848
vt 0.757550 0.933848
vt 0.757310 0.994172
vt 0.713254 0.994172
vt 0.903905 0.133875
vt 0.914276 0.133875
vt 0.914042 0.162796
vt 0.903548 0.175145
vt 0.756305 0.966509
vt 0.714259 0.966509
vt 0.714485 0.936371
vt 0.756078 0.936370
vt 0.973183 0.171661
vt 0.973183 0.159456
vt 0.714576 0.934105
vt 0.753321 0.934105
vt 0.753109 0.969204
vt 0.714788 0.969204
vt 0.903548 0.175145
vt 0.934016 0.162456
vt 0.934016 0.174661
vt 0.755993 0.964882
vt 0.713337 0.964882
vt 0.713570 0.937306
vt 0.755760 0.937306
vt 0.959600 0.045961
vt 0.874964 0.045961
vt 0.885914 0.030359
vt 0.948650 0.030359
vt 0.910298 0.108460
vt 0.994933 0.108460
vt 0.983983 0.124062
vt 0.921248 0.124062
vt 0.962141 0.090113
vt 0.949926 0.107518
vt 0.872138 0.107518
vt 0.859923 0.090113
vt 0.965807 0.062974
vt 0.863590 0.062974
vt 0.875804 0.045570
vt 0.953593 0.045570
vt 0.962699 0.844510
vt 0.962699 0.744844
vt 0.863032 0.744844
vt 0.863032 0.844510
vt 0.210690 0.722740
vt 0.193791 0.722740
vt 0.155247 0.716052
vt 0.248574 0.674875
vt 0.258555 0.686089
vt 0.107237 0.582934
vt 0.040560 0.582934
vt 0.040560 0.618535
vt 0.107237 0.618535
vt 0.193791 0.761448
vt 0.210690 0.761448
vt 0.155247 0.768135
vt 0.300657 0.674875
vt 0.290676 0.686089
vt 0.107328 0.582784
vt 0.107328 0.618552
vt 0.040336 0.618552
vt 0.040336 0.582784
vt 0.248574 0.674875
vt 0.300657 0.674875
vt 0.290676 0.686089
vt 0.258555 0.686089
vt 0.193791 0.722740
vt 0.193791 0.761448
vn -0.000004 0.000000 1.000000
vn -0.000004 0.000000 1.000000
vn -0.000004 0.000000 1.000000
vn -0.000004 0.000000 1.000000
vn -0.467274 0.884112 0.000000
vn -0.467274 0.884112 0.000000
vn -0.467274 0.884112 0.000000
vn -0.467274 0.884112 0.000000
vn 0.000006 0.000000 -1.000000
vn 0.000006 0.000000 -1.000000
vn 0.000006 0.000000 -1.000000
vn 0.000006 0.000000 -1.000000
vn -1.000000 0.000000 0.000000
vn -1.000000 0.000000 0.000000
vn -1.000000 0.000000 0.000000
vn -1.000000 0.000000 0.000000
vn -1.000000 0.000000 0.000000
vn -1.000000 0.000000 0.000000
vn -1.000000 0.000000 0.000000
vn -1.000000 0.000000 0.000000
vn 0.000000 0.743294 -0.668965
vn 0.000000 0.743294 -0.668965
vn 0.000000 0.743294 -0.668965
vn 0.000000 0.743294 -0.668965
vn 1.000000 0.000000 0.000000
vn 1.000000 0.000000 0.000000
vn 1.000000 0.000000 0.000000
vn 1.000000 0.000000 0.000000
vn -0.000003 0.000000 -1.000000
vn -0.000003 0.000000 -1.000000
vn -0.000003 0.000000 -1.000000
vn -0.000003 0.000000 -1.000000
vn 0.467274 0.884112 0.000000
vn 0.467274 0.884112 0.000000
vn 0.467274 0.884112 0.000000
vn 0.467274 0.884112 0.000000
vn 0.000002 0.000000 1.000000
vn 0.000002 0.000000 1.000000
vn 0.000002 0.000000 1.000000
vn 0.000002 0.000000 1.000000
vn 1.000000 0.000000 0.000000
vn 1.000000 0.000000 0.000000
vn 1.000000 0.000000 0.000000
vn 1.000000 0.000000 0.000000
vn 1.000000 0.000000 0.000000
vn 1.000000 0.000000 0.000000
vn 1.000000 0.000000 0.000000
vn 1.000000 0.000000 0.000000
vn 0.000000 0.743294 0.668965
vn 0.000000 0.743294 0.668965
vn 0.000000 0.743294 0.668965
vn 0.000000 0.743294 0.668965
vn -1.000000 0.000000 0.000000
vn -1.000000 0.000000 0.000000
vn -1.000000 0.000000 0.000000
vn -1.000000 0.000000 0.000000
vn 0.000000 0.000000 1.000000
vn 0.000000 0.000000 1.000000
vn 0.000000 0.000000 1.000000
vn 0.000000 0.000000 1.000000
vn -1.000000 0.000000 0.000000
vn -1.000000 0.000000 0.000000
vn -1.000000 0.000000 0.000000
vn -1.000000 0.000000 0.000000
vn 1.000000 0.000000 0.000000
vn 1.000000 0.000000 0.000000
vn 1.000000 0.000000 0.000000
vn 1.000000 0.000000 0.000000
vn 0.000000 0.000000 -1.000000
vn 0.000000 0.000000 -1.000000
vn 0.000000 0.000000 -1.000000
vn 0.000000 0.000000 -1.000000
vn 0.000000 1.000000 0.000000
vn 0.000000 1.000000 0.000000
vn 0.000000 1.000000 0.000000
vn 0.000000 1.000000 0.000000
vn 0.000000 1.000000 -0.000000
vn 0.000000 1.000000 -0.000000
vn 0.000000 1.000000 -0.000000
vn 0.000000 1.000000 -0.000000
vn 0.000000 1.000000 0.000000
vn 0.000000 1.000000 0.000000
vn 0.000000 1.000000 0.000000
vn 0.000000 1.000000 0.000000
vn 0.000000 1.000000 0.000000
vn 0.000000 1.000000 0.000000
vn 0.000000 1.000000 0.000000
vn 0.000000 1.000000 0.000000
vn -1.000000 0.000000 0.000001
vn -1.000000 0.000000 0.000001
vn -1.000000 0.000000 0.000001
vn -1.000000 0.000000 0.000001
vn 0.000005 0.000000 1.000000
vn 0.000005 0.000000 1.000000
vn 0.000005 0.000000 1.000000
vn 0.000005 0.000000 1.000000
vn 1.000000 0.000000 -0.000001
vn 1.000000 0.000000 -0.000001
vn 1.000000 0.000000 -0.000001
vn 1.000000 0.000000 -0.000001
vn -0.000005 0.000000 -1.000000
vn -0.000005 0.000000 -1.000000
vn -0.000005 0.000000 -1.000000
vn -0.000005 0.000000 -1.000000
vn -0.000000 -0.986394 -0.164397
vn -0.000000 -0.986394 -0.164397
vn -0.000000 -0.986394 -0.164397
vn -0.000000 -0.986394 -0.164397
vn 0.000000 0.000000 -1.000000
vn 0.000000 0.000000 -1.000000
vn 0.000000 0.000000 -1.000000
vn 0.000000 0.000000 -1.000000
vn 0.000000 0.005072 0.999987
vn 0.000000 0.005072 0.999987
vn 0.000000 0.005072 0.999987
vn 0.000000 0.005072 0.999987
vn 0.000000 1.000000 0.000000
vn 0.000000 1.000000 0.000000
vn 0.000000 1.000000 0.000000
vn 0.000000 1.000000 0.000000
vn 0.000000 1.000000 -0.000000
vn 0.000000 1.000000 -0.000000
vn 0.000000 1.000000 -0.000000
vn 0.000000 1.000000 -0.000000
vn 0.000000 1.000000 0.000000
vn 0.000000 1.000000 0.000000
vn 0.000000 1.000000 0.000000
vn 0.000000 1.000000 0.000000
vn 0.000000 1.000000 -0.000000
vn 0.000000 1.000000 -0.000000
vn 0.000000 1.000000 -0.000000
vn 0.000000 1.000000 -0.000000
vn -0.999976 0.006241 -0.003113
vn -0.999976 0.006241 -0.003113
vn -0.999976 0.006241 -0.003113
vn -0.999976 0.006241 -0.003113
vn 0.000000 -0.010279 0.999947
vn 0.000000 -0.010279 0.999947
vn 0.000000 -0.010279 0.999947
vn 0.000000 -0.010279 0.999947
vn 0.999976 0.006241 -0.003113
vn 0.999976 0.006241 -0.003113
vn 0.999976 0.006241 -0.003113
vn 0.999976 0.006241 -0.003113
vn 0.000000 0.009619 -0.999954
vn 0.000000 0.009619 -0.999954
vn 0.000000 0.009619 -0.999954
vn 0.000000 0.009619 -0.999954
vn -0.999966 0.003719 -0.007333
vn -0.999966 0.003719 -0.007333
vn -0.999966 0.003719 -0.007333
vn -0.999966 0.003719 -0.007333
vn 0.000000 0.999910 -0.013398
vn 0.000000 0.999910 -0.013398
vn 0.000000 0.999910 -0.013398
vn 0.000000 0.999910 -0.013398
vn 0.999966 0.003719 -0.007333
vn 0.999966 0.003719 -0.007333
vn 0.999966 0.003719 -0.007333
vn 0.999966 0.003719 -0.007333
vn -0.000000 -0.999898 0.014316
vn -0.000000 -0.999898 0.014316
vn -0.000000 -0.999898 0.014316
vn -0.000000 -0.999898 0.014316
vn 0.000000 0.701812 -0.712362
vn 0.000000 0.701812 -0.712362
vn 0.000000 0.701812 -0.712362
vn 0.000000 0.701812 -0.712362
vn 0.000000 0.701808 0.712366
vn 0.000000 0.701808 0.712366
vn 0.000000 0.701808 0.712366
vn 0.000000 0.701808 0.712366
vn 0.712364 0.701811 -0.000000
vn 0.712364 0.701811 -0.000000
vn 0.712364 0.701811 -0.000000
vn 0.712364 0.701811 -0.000000
vn -0.712365 0.701809 0.000000
vn -0.712365 0.701809 0.000000
vn -0.712365 0.701809 0.000000
vn -0.712365 0.701809 0.000000
vn 0.000000 1.000000 0.000000
vn 0.000000 1.000000 0.000000
vn 0.000000 1.000000 0.000000
vn 0.000000 1.000000 0.000000
vn -0.164399 -0.986394 0.000000
vn -0.164399 -0.986394 0.000000
vn -0.164399 -0.986394 0.000000
vn -0.164399 -0.986394 0.000000
vn -0.005102 0.000000 0.999987
vn -0.005102 0.000000 0.999987
vn -0.005102 0.000000 0.999987
vn -0.005102 0.000000 0.999987
vn -1.000000 0.000000 0.000000
vn -1.000000 0.000000 0.000000
vn -1.000000 0.000000 0.000000
vn -1.000000 0.000000 0.000000
vn 0.164398 -0.986394 0.000000
vn 0.164398 -0.986394 0.000000
vn 0.164398 -0.986394 0.000000
vn 0.164398 -0.986394 0.000000
vn 0.005056 0.000000 0.999987
vn 0.005056 0.000000 0.999987
vn 0.005056 0.000000 0.999987
vn 0.005056 0.000000 0.999987
vn 1.000000 0.000000 -0.000000
vn 1.000000 0.000000 -0.000000
vn 1.000000 0.000000 -0.000000
vn 1.000000 0.000000 -0.000000
vn 0.000000 -0.005072 0.999987
vn 0.000000 -0.005072 0.999987
vn 0.000000 -0.005072 0.999987
vn 0.000000 -0.005072 0.999987
vn 0.000000 -0.999480 0.032241
vn 0.000000 -0.999480 0.032241
vn 0.000000 -0.999480 0.032241
vn 0.000000 -0.999480 0.032241
g building_41
usemtl lambert2SG
f 1/1/1 2/2/2 3/3/3 4/4/4
f 2/5/5 5/6/6 6/7/7 3/8/8
f 5/9/9 7/10/10 8/11/11 6/12/12
f 3/13/13 6/14/14 8/15/15 4/16/16
f 7/17/17 5/18/18 9/19/19 10/20/20
f 5/21/21 11/22/22 12/23/23 9/24/24
f 11/25/25 13/26/26 14/27/27 12/28/28
f 13/29/29 11/30/30 15/31/31 16/32/32
f 11/33/33 17/34/34 18/35/35 15/36/36
f 17/37/37 19/38/38 20/39/39 18/40/40
f 15/41/41 18/42/42 20/43/43 16/44/44
f 19/45/45 17/46/46 21/47/47 22/48/48
f 17/49/49 2/50/50 23/51/51 21/52/52
f 2/53/53 1/54/54 24/55/55 23/56/56
f 21/57/57 23/58/58 24/59/59 22/60/60
f 10/20/61 9/19/62 25/61/63 26/62/64
f 12/63/65 14/27/66 27/64/67 28/65/68
f 25/66/69 28/67/70 27/68/71 26/69/72
f 25/70/73 9/71/74 29/72/75 30/73/76
f 9/74/77 12/23/78 31/75/79 29/72/80
f 12/23/81 28/76/82 32/77/83 31/75/84
f 28/78/85 25/79/86 30/73/87 32/77/88
f 30/80/89 29/81/90 33/82/91 34/83/92
f 29/84/93 31/85/94 35/86/95 33/87/96
f 31/88/97 32/89/98 36/90/99 35/91/100
f 32/92/101 30/93/102 34/94/103 36/95/104
f 36/96/105 34/97/106 37/98/107 38/99/108
f 38/100/109 37/101/110 39/102/111 40/103/112
f 41/104/113 42/105/114 43/106/115 44/107/116
f 5/108/117 2/109/118 45/110/119 46/111/120
f 2/112/121 17/113/122 47/114/123 45/110/124
f 17/115/125 11/22/126 48/116/127 47/114/128
f 11/22/129 5/117/130 46/111/131 48/116/132
f 46/118/133 45/119/134 49/120/135 50/121/136
f 45/122/137 47/123/138 51/124/139 49/125/140
f 47/126/141 48/127/142 52/128/143 51/129/144
f 48/130/145 46/131/146 50/132/147 52/133/148
f 50/121/149 49/120/150 43/134/151 53/135/152
f 49/136/153 51/137/154 44/138/155 43/139/156
f 51/140/157 52/128/158 54/141/159 44/142/160
f 52/143/161 50/144/162 53/145/163 54/146/164
f 40/147/165 39/148/166 55/149/167 56/150/168
f 42/151/169 41/152/170 57/153/171 58/154/172
f 40/155/173 56/156/174 57/157/175 41/158/176
f 39/159/177 42/160/178 58/161/179 55/162/180
f 56/163/181 55/164/182 58/165/183 57/166/184
f 34/167/185 33/168/186 59/169/187 37/98/188
f 42/105/189 59/170/190 53/171/191 43/106/192
f 37/172/193 59/173/194 42/174/195 39/175/196
f 35/176/197 36/177/198 38/99/199 60/178/200
f 60/179/201 41/104/202 44/107/203 54/180/204
f 38/181/205 40/182/206 41/183/207 60/184/208
f 59/185/209 60/186/210 54/187/211 53/188/212
f 59/169/213 33/189/214 35/190/215 60/178/216
