# This file uses centimeters as units for non-parametric coordinates.

mtllib scifi_building.mtl
v 1.727880 28.798061 -0.431976
v 40.317282 28.798061 -0.431976
v 40.317282 0.000364 -0.431976
v 1.727880 0.000364 -0.431976
v 40.317282 28.798061 39.309357
v 40.317282 0.000364 39.309357
v 1.727880 28.798061 39.309357
v 1.727880 0.000364 39.309357
v -30.525942 10.367303 -39.309357
v 27.070181 10.367303 -39.309357
v 27.070181 0.000364 -39.309357
v -30.525942 0.000364 -39.309357
v 27.070181 10.367303 18.286774
v 27.070181 0.000364 18.286774
v -30.525942 10.367303 18.286774
v -30.525942 0.000364 18.286774
v -40.317282 19.582682 -30.381927
v -4.319704 19.582682 -30.381927
v -4.319704 0.000364 -30.381927
v -40.317282 0.000364 -30.381927
v -4.319704 19.582682 9.359344
v -4.319704 0.000364 9.359344
v -40.317282 19.582682 9.359344
v -40.317282 0.000364 9.359344
vt 0.781941 0.437066
vt 0.781941 0.517259
vt 0.722096 0.517259
vt 0.722096 0.437066
vt 0.780888 0.436863
vt 0.780888 0.517887
vt 0.722174 0.517887
vt 0.722174 0.436863
vt 0.848704 0.437404
vt 0.848704 0.517596
vt 0.788859 0.517596
vt 0.788859 0.437404
vt 0.847982 0.437331
vt 0.847982 0.518356
vt 0.789268 0.518356
vt 0.789268 0.437331
vt 0.148821 0.635945
vt 0.222117 0.635945
vt 0.222117 0.707117
vt 0.148821 0.707117
vt 0.898697 0.124577
vt 0.898697 0.011486
vt 0.919053 0.011485
vt 0.919053 0.124577
vt 0.898697 0.238765
vt 0.898697 0.125673
vt 0.919053 0.125673
vt 0.919053 0.238765
vt 0.951678 0.011486
vt 0.951678 0.124577
vt 0.931322 0.124577
vt 0.931322 0.011485
vt 0.951678 0.125673
vt 0.951678 0.238765
vt 0.931322 0.238765
vt 0.931322 0.125673
vt 0.871586 0.880336
vt 0.982602 0.880336
vt 0.982602 0.991352
vt 0.871586 0.991352
vt 0.390137 0.707140
vt 0.390137 0.779711
vt 0.350659 0.779711
vt 0.350659 0.707140
vt 0.348671 0.707123
vt 0.348671 0.780067
vt 0.312727 0.780067
vt 0.312727 0.707123
vt 0.301755 0.779912
vt 0.301755 0.707341
vt 0.341234 0.707341
vt 0.341234 0.779912
vt 0.409867 0.706855
vt 0.409867 0.779799
vt 0.373924 0.779799
vt 0.373924 0.706855
vt 0.215849 0.780363
vt 0.292976 0.780363
vt 0.292976 0.850225
vt 0.215849 0.850225
vn 0.000000 0.000000 -1.000000
vn 0.000000 0.000000 -1.000000
vn 0.000000 0.000000 -1.000000
vn 0.000000 0.000000 -1.000000
vn 1.000000 0.000000 0.000000
vn 1.000000 0.000000 0.000000
vn 1.000000 0.000000 0.000000
vn 1.000000 0.000000 0.000000
vn 0.000000 0.000000 1.000000
vn 0.000000 0.000000 1.000000
vn 0.000000 0.000000 1.000000
vn 0.000000 0.000000 1.000000
vn -1.000000 0.000000 0.000000
vn -1.000000 0.000000 0.000000
vn -1.000000 0.000000 0.000000
vn -1.000000 0.000000 0.000000
vn 0.000000 1.000000 0.000000
vn 0.000000 1.000000 0.000000
vn 0.000000 1.000000 0.000000
vn 0.000000 1.000000 0.000000
vn 0.000000 0.000000 -1.000000
vn 0.000000 0.000000 -1.000000
vn 0.000000 0.000000 -1.000000
vn 0.000000 0.000000 -1.000000
vn 1.000000 0.000000 0.000000
vn 1.000000 0.000000 0.000000
vn 1.000000 0.000000 0.000000
vn 1.000000 0.000000 0.000000
vn 0.000000 0.000000 1.000000
vn 0.000000 0.000000 1.000000
vn 0.000000 0.000000 1.000000
vn 0.000000 0.000000 1.000000
vn -1.000000 0.000000 0.000000
vn -1.000000 0.000000 0.000000
vn -1.000000 0.000000 0.000000
vn -1.000000 0.000000 0.000000
vn 0.000000 1.000000 0.000000
vn 0.000000 1.000000 0.000000
vn 0.000000 1.000000 0.000000
vn 0.000000 1.000000 0.000000
vn 0.000000 0.000000 -1.000000
vn 0.000000 0.000000 -1.000000
vn 0.000000 0.000000 -1.000000
vn 0.000000 0.000000 -1.000000
vn 1.000000 0.000000 0.000000
vn 1.000000 0.000000 0.000000
vn 1.000000 0.000000 0.000000
vn 1.000000 0.000000 0.000000
vn 0.000000 0.000000 1.000000
vn 0.000000 0.000000 1.000000
vn 0.000000 0.000000 1.000000
vn 0.000000 0.000000 1.000000
vn -1.000000 0.000000 0.000000
vn -1.000000 0.000000 0.000000
vn -1.000000 0.000000 0.000000
vn -1.000000 0.000000 0.000000
vn 0.000000 1.000000 0.000000
vn 0.000000 1.000000 0.000000
vn 0.000000 1.000000 0.000000
vn 0.000000 1.000000 0.000000
g building_37
usemtl lambert2SG
f 1/1/1 2/2/2 3/3/3 4/4/4
f 2/5/5 5/6/6 6/7/7 3/8/8
f 5/9/9 7/10/10 8/11/11 6/12/12
f 7/13/13 1/14/14 4/15/15 8/16/16
f 1/17/17 7/18/18 5/19/19 2/20/20
f 9/21/21 10/22/22 11/23/23 12/24/24
f 10/25/25 13/26/26 14/27/27 11/28/28
f 13/29/29 15/30/30 16/31/31 14/32/32
f 15/33/33 9/34/34 12/35/35 16/36/36
f 9/37/37 15/38/38 13/39/39 10/40/40
f 17/41/41 18/42/42 19/43/43 20/44/44
f 18/45/45 21/46/46 22/47/47 19/48/48
f 21/49/49 23/50/50 24/51/51 22/52/52
f 23/53/53 17/54/54 20/55/55 24/56/56
f 17/57/57 23/58/58 21/59/59 18/60/60
