# This file uses centimeters as units for non-parametric coordinates.

mtllib scifi_building.mtl
v 34.831747 11.516929 -22.724548
v 34.831747 0.000521 -22.724548
v 14.434126 0.000521 -43.122284
v 14.434126 11.516929 -43.122284
v -46.999308 11.516929 -22.724548
v -46.999308 0.000521 -22.724548
v -46.999308 0.000521 18.311279
v -46.999308 11.516929 18.311279
v -26.601725 0.000521 -43.122284
v -26.601725 11.516929 -43.122284
v -26.601725 11.516929 38.708862
v -26.601725 0.000521 38.708862
v 14.434134 0.000521 38.708862
v 14.434134 11.516929 38.708862
v 34.831762 11.516929 18.311249
v 61.306463 11.516929 -22.724548
v 61.306463 0.000521 -22.724548
v 33.154638 0.000521 57.429443
v 33.154638 11.516929 57.429443
v 61.306463 0.000521 29.277496
v 61.306463 11.516929 29.277496
v 61.306463 28.665342 -22.724548
v 61.306463 28.665342 29.277496
v 34.831747 28.665342 -22.724548
v 34.831762 28.665342 18.311249
v 14.434134 28.665342 38.708862
v 33.154638 28.665342 57.429443
v -26.570559 16.330435 -43.091187
v -46.968184 16.330435 -22.693481
v -46.968187 26.258463 18.280182
v -26.570559 26.258463 38.677765
v -41.209684 33.153557 12.436798
v -20.727274 33.153557 32.919281
v -20.727274 23.225527 -37.332520
v -41.209681 23.225527 -16.850159
v -20.699305 30.746681 -37.304596
v -41.181711 30.746681 -16.822144
v -41.181711 46.390968 12.408905
v -20.699312 46.390968 32.891357
v -40.738447 30.831457 -57.429443
v -61.306459 30.831457 -36.861298
v -61.306463 46.475624 32.448029
v -40.738447 46.475624 53.015900
v -40.812227 0.000365 -57.417847
v -40.786581 17.092642 -57.420715
v -61.297743 17.092642 -36.909454
v -61.294840 0.000365 -36.935150
v -61.294840 0.000365 32.521820
v -61.297747 23.711327 32.496185
v -40.786581 23.711327 53.007172
v -40.812223 0.000365 53.004669
v 27.463766 10.794226 17.162048
v 22.969252 24.158617 14.567139
v 10.689985 24.158617 26.846375
v 13.284925 10.794226 31.340912
v 10.689985 33.942032 -11.890991
v 3.600576 33.942032 -18.980408
v -6.083757 37.523010 -2.206665
v -6.083757 10.794226 36.530701
v -6.083750 24.158617 31.340912
v -22.857538 24.158617 26.846375
v -25.452433 10.794226 31.340912
v -22.857538 33.942032 7.477692
v -25.452433 33.942032 -2.206665
v -39.631319 10.794226 -21.575348
v -35.136797 24.158617 -18.980408
v -22.857538 24.158617 -31.259674
v -25.452440 10.794226 -35.754181
v 27.463774 24.158617 -2.206665
v 13.284925 33.942032 -2.206635
v 10.689985 33.942032 7.477692
v -39.631319 24.158617 -2.206665
v -22.857538 33.942032 -11.890991
v -6.083757 10.794226 -40.944031
v -6.083757 24.158617 -35.754181
v 3.600576 33.942032 14.567108
v -15.768114 33.942032 -18.980377
v -44.821157 10.794226 -2.206635
v 10.689985 24.158617 -31.259674
v 13.284925 10.794226 -35.754181
v -6.083757 33.942032 17.162079
v -6.083750 33.942032 -21.575348
v 27.463774 10.794226 -21.575348
v 22.969244 24.158617 -18.980408
v -15.768114 33.942032 14.567139
v 32.653601 10.794226 -2.206665
v -35.136797 24.158617 14.567139
v -39.631319 10.794226 17.162079
vt 0.893583 0.064882
vt 0.893583 0.038911
vt 0.931804 0.038911
vt 0.931804 0.064882
vt 0.023974 0.770495
vt 0.023974 0.751282
vt 0.111804 0.751282
vt 0.111804 0.770495
vt 0.013800 0.768022
vt 0.013800 0.743927
vt 0.096133 0.743927
vt 0.096133 0.768022
vt 0.023974 0.826051
vt 0.023974 0.806838
vt 0.111804 0.806838
vt 0.111804 0.826051
vt 0.294897 0.726103
vt 0.294897 0.804786
vt 0.255786 0.843897
vt 0.177103 0.843897
vt 0.137992 0.804786
vt 0.137992 0.726103
vt 0.177103 0.686992
vt 0.255786 0.686992
vt 0.059583 0.400911
vt 0.059583 0.426882
vt 0.009974 0.426882
vt 0.009974 0.400911
vt 0.325215 0.742832
vt 0.299245 0.742832
vt 0.299245 0.711800
vt 0.325215 0.711800
vt 0.339540 0.638020
vt 0.367462 0.638020
vt 0.367463 0.730203
vt 0.339541 0.730203
vt 0.367463 0.850611
vt 0.339540 0.850611
vt 0.339540 0.850611
vt 0.297744 0.850611
vt 0.297745 0.730203
vt 0.059583 0.426882
vt 0.059583 0.465755
vt 0.009974 0.465755
vt 0.430458 0.707436
vt 0.430458 0.779897
vt 0.395875 0.779897
vt 0.395875 0.707436
vt 0.325215 0.776644
vt 0.325215 0.742832
vt 0.364089 0.742832
vt 0.364089 0.776644
vt 0.325215 0.742832
vt 0.364089 0.711800
vt 0.339540 0.638020
vt 0.297744 0.638020
vt 0.007329 0.659274
vt 0.114570 0.659274
vt 0.143228 0.725503
vt 0.007329 0.725503
vt 0.220807 0.704841
vt 0.220807 0.639617
vt 0.280611 0.637002
vt 0.280611 0.727021
vt 0.052919 0.543355
vt 0.097038 0.543355
vt 0.097105 0.553479
vt 0.052986 0.553479
vt 0.256558 0.828699
vt 0.256558 0.758060
vt 0.301133 0.758168
vt 0.301133 0.828806
vt 0.321982 0.778110
vt 0.321982 0.849042
vt 0.109744 0.567981
vt 0.065442 0.567981
vt 0.109804 0.583799
vt 0.065502 0.583799
vt 0.389499 0.708610
vt 0.389499 0.638612
vt 0.429025 0.638517
vt 0.429025 0.708514
vt 0.992872 0.414765
vt 0.862554 0.414765
vt 0.862282 0.286995
vt 0.993144 0.286995
vt 0.996200 0.994124
vt 0.853929 0.994124
vt 0.853632 0.854635
vt 0.996498 0.854635
vt 0.071133 0.591022
vt 0.071133 0.566927
vt 0.099644 0.566800
vt 0.099593 0.602749
vt 0.071133 0.591022
vt 0.071070 0.601146
vt 0.071070 0.601146
vt 0.059347 0.615647
vt 0.059347 0.615647
vt 0.099496 0.631644
vt 0.059290 0.631466
vt 0.052919 0.519260
vt 0.052919 0.543355
vt 0.021993 0.555082
vt 0.021999 0.519134
vt 0.052919 0.543355
vt 0.021974 0.583978
vt 0.039503 0.557526
vt 0.039508 0.521578
vt 0.081254 0.521578
vt 0.081306 0.557526
vt 0.039503 0.557526
vt 0.081306 0.557526
vt 0.081404 0.586422
vt 0.039485 0.586422
vt 0.256558 0.758060
vt 0.221917 0.758060
vt 0.221735 0.708553
vt 0.293431 0.708544
vt 0.256558 0.758060
vt 0.362265 0.708513
vt 0.362008 0.778207
vt 0.290686 0.728396
vt 0.324894 0.728396
vt 0.361306 0.777260
vt 0.290506 0.777250
vt 0.324894 0.728396
vt 0.368911 0.728289
vt 0.368911 0.728289
vt 0.389499 0.708610
vt 0.389499 0.708610
vt 0.429278 0.777290
vt 0.787769 0.472811
vt 0.787848 0.421056
vt 0.851011 0.421056
vt 0.851019 0.472811
vt 0.787769 0.472811
vt 0.851019 0.472811
vt 0.851046 0.522500
vt 0.787620 0.522500
vt 0.896235 0.193710
vt 0.894530 0.211545
vt 0.872487 0.211545
vt 0.870782 0.193710
vt 0.619406 0.221513
vt 0.610016 0.212123
vt 0.632233 0.199297
vt 0.975702 0.173844
vt 0.973997 0.191679
vt 0.951954 0.191679
vt 0.950249 0.173844
vt 0.645059 0.177080
vt 0.632233 0.173643
vt 0.897271 0.211545
vt 0.898976 0.193710
vt 0.921019 0.193710
vt 0.922724 0.211545
vt 0.912603 0.233217
vt 0.908018 0.254248
vt 0.895490 0.254248
vt 0.890905 0.233217
vt 0.950491 0.234381
vt 0.955149 0.213351
vt 0.967875 0.213351
vt 0.972533 0.234381
vt 0.896235 0.171812
vt 0.870782 0.171812
vt 0.872487 0.153977
vt 0.894530 0.153977
vt 0.632233 0.224950
vt 0.897271 0.153977
vt 0.922724 0.153977
vt 0.921019 0.171812
vt 0.898976 0.171812
vt 0.950505 0.233217
vt 0.972203 0.233217
vt 0.967618 0.254248
vt 0.955090 0.254248
vt 0.619406 0.177080
vt 0.645059 0.221513
vt 0.632233 0.224950
vt 0.892736 0.274114
vt 0.871038 0.274114
vt 0.875624 0.253084
vt 0.888151 0.253084
vt 0.949213 0.171812
vt 0.923760 0.171812
vt 0.925465 0.153977
vt 0.947508 0.153977
vt 0.923760 0.191679
vt 0.925465 0.173844
vt 0.947508 0.173844
vt 0.949213 0.191679
vt 0.970372 0.233217
vt 0.992070 0.233217
vt 0.987485 0.254248
vt 0.974957 0.254248
vt 0.654449 0.212123
vt 0.645059 0.221513
vt 0.946044 0.234381
vt 0.924002 0.234381
vt 0.928660 0.213351
vt 0.941386 0.213351
vt 0.610016 0.186470
vt 0.619406 0.177080
vt 0.950249 0.193710
vt 0.975701 0.193710
vt 0.973997 0.211545
vt 0.951954 0.211545
vt 0.892736 0.233217
vt 0.888151 0.254248
vt 0.875624 0.254248
vt 0.871038 0.233217
vt 0.654449 0.212123
vt 0.657886 0.199297
vt 0.897513 0.234381
vt 0.902171 0.213351
vt 0.914897 0.213351
vt 0.919555 0.234381
vt 0.610016 0.186470
vt 0.606579 0.199297
vt 0.975702 0.171812
vt 0.950249 0.171812
vt 0.951954 0.153977
vt 0.973997 0.153977
vt 0.871024 0.213351
vt 0.893066 0.213351
vt 0.888408 0.234381
vt 0.875682 0.234381
vt 0.870782 0.173844
vt 0.896235 0.173844
vt 0.894530 0.191679
vt 0.872487 0.191679
vt 0.654449 0.186470
vt 0.657886 0.199297
vt 0.930638 0.233217
vt 0.952337 0.233217
vt 0.947751 0.254248
vt 0.935224 0.254248
vt 0.606579 0.199297
vt 0.922724 0.173844
vt 0.921019 0.191679
vt 0.898976 0.191679
vt 0.897271 0.173844
vt 0.890905 0.253084
vt 0.912603 0.253084
vt 0.908018 0.274114
vt 0.895490 0.274114
vt 0.923760 0.193710
vt 0.949213 0.193710
vt 0.947508 0.211545
vt 0.925465 0.211545
vt 0.654449 0.186470
vt 0.932470 0.254248
vt 0.910772 0.254248
vt 0.915357 0.233217
vt 0.927885 0.233217
vn 0.707108 0.000000 -0.707106
vn 0.707108 0.000000 -0.707106
vn 0.707108 0.000000 -0.707106
vn 0.707108 0.000000 -0.707106
vn -1.000000 0.000000 0.000000
vn -1.000000 0.000000 0.000000
vn -1.000000 0.000000 0.000000
vn -1.000000 0.000000 0.000000
vn 0.000000 0.000000 -1.000000
vn 0.000000 0.000000 -1.000000
vn 0.000000 0.000000 -1.000000
vn 0.000000 0.000000 -1.000000
vn 0.000000 0.000000 1.000000
vn 0.000000 0.000000 1.000000
vn 0.000000 0.000000 1.000000
vn 0.000000 0.000000 1.000000
vn 0.000000 1.000000 0.000000
vn 0.000000 1.000000 0.000000
vn 0.000000 1.000000 0.000000
vn 0.000000 1.000000 0.000000
vn 0.000000 1.000000 0.000000
vn 0.000000 1.000000 0.000000
vn 0.000000 1.000000 0.000000
vn 0.000000 1.000000 0.000000
vn 0.000000 0.000000 -1.000000
vn 0.000000 0.000000 -1.000000
vn 0.000000 0.000000 -1.000000
vn 0.000000 0.000000 -1.000000
vn -0.707108 0.000000 0.707106
vn -0.707108 0.000000 0.707106
vn -0.707108 0.000000 0.707106
vn -0.707108 0.000000 0.707106
vn 0.707108 0.000000 0.707105
vn 0.707108 0.000000 0.707105
vn 0.707108 0.000000 0.707105
vn 0.707108 0.000000 0.707105
vn 1.000000 0.000000 0.000000
vn 1.000000 0.000000 0.000000
vn 1.000000 0.000000 0.000000
vn 1.000000 0.000000 0.000000
vn 1.000000 0.000000 0.000000
vn 1.000000 0.000000 0.000000
vn 1.000000 0.000000 0.000000
vn 1.000000 0.000000 0.000000
vn 0.000000 0.000000 -1.000000
vn 0.000000 0.000000 -1.000000
vn 0.000000 0.000000 -1.000000
vn 0.000000 0.000000 -1.000000
vn -1.000000 0.000000 0.000000
vn -1.000000 0.000000 0.000000
vn -1.000000 0.000000 0.000000
vn -1.000000 0.000000 0.000000
vn -0.707107 0.000000 -0.707107
vn -0.707107 0.000000 -0.707107
vn -0.707107 0.000000 -0.707107
vn -0.707107 0.000000 -0.707107
vn -0.707108 0.000000 0.707105
vn -0.707108 0.000000 0.707105
vn -0.707108 0.000000 0.707105
vn -0.707108 0.000000 0.707105
vn 0.707108 0.000000 0.707105
vn 0.707108 0.000000 0.707105
vn 0.707108 0.000000 0.707105
vn 0.707108 0.000000 0.707105
vn 0.000000 1.000000 0.000000
vn 0.000000 1.000000 0.000000
vn 0.000000 1.000000 0.000000
vn 0.000000 1.000000 0.000000
vn 0.000000 1.000000 0.000000
vn 0.000000 1.000000 0.000000
vn 0.000000 1.000000 0.000000
vn 0.000000 1.000000 0.000000
vn 0.707079 -0.009140 0.707076
vn 0.707079 -0.009140 0.707076
vn 0.707079 -0.009140 0.707076
vn 0.707079 -0.009140 0.707076
vn 0.707104 -0.002985 -0.707104
vn 0.707104 -0.002985 -0.707104
vn 0.707104 -0.002985 -0.707104
vn 0.707104 -0.002985 -0.707104
vn 0.454958 -0.765523 -0.454959
vn 0.454958 -0.765523 -0.454959
vn 0.454958 -0.765523 -0.454959
vn 0.454958 -0.765523 -0.454959
vn 0.454958 -0.765525 0.454957
vn 0.454958 -0.765525 0.454957
vn 0.454958 -0.765525 0.454957
vn 0.454958 -0.765525 0.454957
vn 0.707097 -0.005259 0.707097
vn 0.707097 -0.005259 0.707097
vn 0.707097 -0.005259 0.707097
vn 0.707097 -0.005259 0.707097
vn 0.707104 -0.002985 -0.707103
vn 0.707104 -0.002985 -0.707103
vn 0.707104 -0.002985 -0.707103
vn 0.707104 -0.002985 -0.707103
vn 0.002111 0.999996 0.002111
vn 0.002111 0.999996 0.002111
vn 0.002111 0.999996 0.002111
vn 0.002111 0.999996 0.002111
vn 0.002108 0.999996 -0.002108
vn 0.002108 0.999996 -0.002108
vn 0.002108 0.999996 -0.002108
vn 0.002108 0.999996 -0.002108
vn 0.709499 -0.000707 -0.704706
vn 0.709499 -0.000707 -0.704706
vn 0.709499 -0.000707 -0.704706
vn 0.709499 -0.000707 -0.704706
vn 0.709913 -0.000048 -0.704289
vn 0.709913 -0.000048 -0.704289
vn 0.709913 -0.000048 -0.704289
vn 0.709512 -0.012829 -0.704577
vn 0.709512 -0.012829 -0.704577
vn 0.709512 -0.012829 -0.704577
vn 0.708256 -0.001898 -0.705953
vn 0.708256 -0.001898 -0.705953
vn 0.708256 -0.001898 -0.705953
vn 0.708256 -0.001898 -0.705953
vn -0.704709 -0.000709 0.709496
vn -0.704709 -0.000709 0.709496
vn -0.704709 -0.000709 0.709496
vn -0.704709 -0.000709 0.709496
vn -0.704287 -0.000029 0.709915
vn -0.704287 -0.000029 0.709915
vn -0.704287 -0.000029 0.709915
vn -0.704574 -0.012854 0.709514
vn -0.704574 -0.012854 0.709514
vn -0.704574 -0.012854 0.709514
vn -0.705955 -0.001898 0.708255
vn -0.705955 -0.001898 0.708255
vn -0.705955 -0.001898 0.708255
vn -0.705955 -0.001898 0.708255
vn -0.707108 0.000943 -0.707105
vn -0.707108 0.000943 -0.707105
vn -0.707108 0.000943 -0.707105
vn -0.707108 0.000943 -0.707105
vn -0.707107 0.002029 -0.707104
vn -0.707107 0.002029 -0.707104
vn -0.707107 0.002029 -0.707104
vn -0.707107 0.002029 -0.707104
vn -0.704762 -0.000574 -0.709443
vn -0.704762 -0.000574 -0.709443
vn -0.704762 -0.000574 -0.709443
vn -0.704762 -0.000574 -0.709443
vn -0.704285 -0.000011 -0.709917
vn -0.704285 -0.000011 -0.709917
vn -0.704285 -0.000011 -0.709917
vn -0.702782 -0.015810 -0.711229
vn -0.702782 -0.015810 -0.711229
vn -0.702782 -0.015810 -0.711229
vn -0.705968 -0.001119 -0.708242
vn -0.705968 -0.001119 -0.708242
vn -0.705968 -0.001119 -0.708242
vn -0.705968 -0.001119 -0.708242
vn 0.709448 -0.000566 0.704758
vn 0.709448 -0.000566 0.704758
vn 0.709448 -0.000566 0.704758
vn 0.709448 -0.000566 0.704758
vn 0.709909 -0.000016 0.704294
vn 0.709909 -0.000016 0.704294
vn 0.709909 -0.000016 0.704294
vn 0.711224 -0.015790 0.702788
vn 0.711224 -0.015790 0.702788
vn 0.711224 -0.015790 0.702788
vn 0.708240 -0.001121 0.705971
vn 0.708240 -0.001121 0.705971
vn 0.708240 -0.001121 0.705971
vn 0.708240 -0.001121 0.705971
vn -0.707107 0.000684 0.707106
vn -0.707107 0.000684 0.707106
vn -0.707107 0.000684 0.707106
vn -0.707107 0.000684 0.707106
vn -0.707103 0.001225 0.707109
vn -0.707103 0.001225 0.707109
vn -0.707103 0.001225 0.707109
vn -0.707103 0.001225 0.707109
vn 0.662063 0.351207 0.662062
vn 0.662063 0.351207 0.662062
vn 0.662063 0.351207 0.662062
vn 0.662063 0.351207 0.662062
vn 0.132932 0.982170 -0.132932
vn 0.132932 0.982170 -0.132932
vn 0.132932 0.982170 -0.132932
vn -0.242331 0.351205 0.904395
vn -0.242331 0.351205 0.904395
vn -0.242331 0.351205 0.904395
vn -0.242331 0.351205 0.904395
vn -0.181590 0.982170 0.048656
vn -0.181590 0.982170 0.048656
vn -0.181590 0.982170 0.048656
vn -0.662063 0.351205 -0.662063
vn -0.662063 0.351205 -0.662063
vn -0.662063 0.351205 -0.662063
vn -0.662063 0.351205 -0.662063
vn 0.561462 0.813712 0.150444
vn 0.561462 0.813712 0.150444
vn 0.561462 0.813712 0.150444
vn 0.561462 0.813712 0.150444
vn -0.561461 0.813713 -0.150443
vn -0.561461 0.813713 -0.150443
vn -0.561461 0.813713 -0.150443
vn -0.561461 0.813713 -0.150443
vn 0.242331 0.351205 0.904395
vn 0.242331 0.351205 0.904395
vn 0.242331 0.351205 0.904395
vn 0.242331 0.351205 0.904395
vn 0.181590 0.982170 -0.048657
vn 0.181590 0.982170 -0.048657
vn 0.181590 0.982170 -0.048657
vn -0.242333 0.351206 -0.904394
vn -0.242333 0.351206 -0.904394
vn -0.242333 0.351206 -0.904394
vn -0.242333 0.351206 -0.904394
vn 0.411018 0.813712 0.411019
vn 0.411018 0.813712 0.411019
vn 0.411018 0.813712 0.411019
vn 0.411018 0.813712 0.411019
vn -0.181589 0.982170 -0.048656
vn -0.181589 0.982170 -0.048656
vn -0.181589 0.982170 -0.048656
vn 0.181589 0.982170 0.048657
vn 0.181589 0.982170 0.048657
vn 0.181589 0.982170 0.048657
vn -0.411018 0.813713 -0.411018
vn -0.411018 0.813713 -0.411018
vn -0.411018 0.813713 -0.411018
vn -0.411018 0.813713 -0.411018
vn -0.904394 0.351206 -0.242332
vn -0.904394 0.351206 -0.242332
vn -0.904394 0.351206 -0.242332
vn -0.904394 0.351206 -0.242332
vn 0.242333 0.351206 -0.904394
vn 0.242333 0.351206 -0.904394
vn 0.242333 0.351206 -0.904394
vn 0.242333 0.351206 -0.904394
vn 0.150445 0.813712 0.561461
vn 0.150445 0.813712 0.561461
vn 0.150445 0.813712 0.561461
vn 0.150445 0.813712 0.561461
vn 0.132930 0.982170 0.132932
vn 0.132930 0.982170 0.132932
vn 0.132930 0.982170 0.132932
vn -0.150444 0.813713 -0.561461
vn -0.150444 0.813713 -0.561461
vn -0.150444 0.813713 -0.561461
vn -0.150444 0.813713 -0.561461
vn -0.132932 0.982170 -0.132933
vn -0.132932 0.982170 -0.132933
vn -0.132932 0.982170 -0.132933
vn 0.662063 0.351207 -0.662062
vn 0.662063 0.351207 -0.662062
vn 0.662063 0.351207 -0.662062
vn 0.662063 0.351207 -0.662062
vn -0.150444 0.813712 0.561462
vn -0.150444 0.813712 0.561462
vn -0.150444 0.813712 0.561462
vn -0.150444 0.813712 0.561462
vn 0.048657 0.982170 0.181588
vn 0.048657 0.982170 0.181588
vn 0.048657 0.982170 0.181588
vn 0.150445 0.813712 -0.561461
vn 0.150445 0.813712 -0.561461
vn 0.150445 0.813712 -0.561461
vn 0.150445 0.813712 -0.561461
vn -0.048657 0.982170 -0.181588
vn -0.048657 0.982170 -0.181588
vn -0.048657 0.982170 -0.181588
vn 0.904394 0.351207 -0.242333
vn 0.904394 0.351207 -0.242333
vn 0.904394 0.351207 -0.242333
vn 0.904394 0.351207 -0.242333
vn -0.411017 0.813713 0.411019
vn -0.411017 0.813713 0.411019
vn -0.411017 0.813713 0.411019
vn -0.411017 0.813713 0.411019
vn -0.904394 0.351207 0.242332
vn -0.904394 0.351207 0.242332
vn -0.904394 0.351207 0.242332
vn -0.904394 0.351207 0.242332
vn -0.048656 0.982170 0.181588
vn -0.048656 0.982170 0.181588
vn -0.048656 0.982170 0.181588
vn 0.411019 0.813712 -0.411019
vn 0.411019 0.813712 -0.411019
vn 0.411019 0.813712 -0.411019
vn 0.411019 0.813712 -0.411019
vn 0.048657 0.982170 -0.181588
vn 0.048657 0.982170 -0.181588
vn 0.048657 0.982170 -0.181588
vn 0.904395 0.351205 0.242332
vn 0.904395 0.351205 0.242332
vn 0.904395 0.351205 0.242332
vn 0.904395 0.351205 0.242332
vn -0.561462 0.813712 0.150443
vn -0.561462 0.813712 0.150443
vn -0.561462 0.813712 0.150443
vn -0.561462 0.813712 0.150443
vn -0.662063 0.351206 0.662063
vn -0.662063 0.351206 0.662063
vn -0.662063 0.351206 0.662063
vn -0.662063 0.351206 0.662063
vn -0.132931 0.982170 0.132932
vn -0.132931 0.982170 0.132932
vn -0.132931 0.982170 0.132932
vn 0.561461 0.813712 -0.150444
vn 0.561461 0.813712 -0.150444
vn 0.561461 0.813712 -0.150444
vn 0.561461 0.813712 -0.150444
g building_35
usemtl lambert2SG
f 1/1/1 2/2/2 3/3/3 4/4/4
f 5/5/5 6/6/6 7/7/7 8/8/8
f 4/9/9 3/10/10 9/11/11 10/12/12
f 11/13/13 12/14/14 13/15/15 14/16/16
f 11/17/17 14/18/18 15/19/19 1/20/20 4/21/21 10/22/22 5/23/23 8/24/24
f 2/25/25 1/26/26 16/27/27 17/28/28
f 14/29/29 13/30/30 18/31/31 19/32/32
f 19/33/33 18/34/34 20/35/35 21/36/36
f 21/36/37 20/35/38 17/37/39 16/38/40
f 21/36/41 16/39/42 22/40/43 23/41/44
f 16/27/45 1/42/46 24/43/47 22/44/48
f 1/45/49 15/46/50 25/47/51 24/48/52
f 15/49/53 14/50/54 26/51/55 25/52/56
f 14/53/57 19/32/58 27/54/59 26/51/60
f 19/55/61 21/36/62 23/41/63 27/56/64
f 24/57/65 25/58/66 23/59/67 22/60/68
f 25/61/69 26/62/70 27/63/71 23/64/72
f 5/65/73 10/66/74 28/67/75 29/68/76
f 11/69/77 8/70/78 30/71/79 31/72/80
f 31/72/81 30/71/82 32/73/83 33/74/84
f 29/68/85 28/67/86 34/75/87 35/76/88
f 35/76/89 34/75/90 36/77/91 37/78/92
f 33/79/93 32/80/94 38/81/95 39/82/96
f 37/83/97 36/84/98 40/85/99 41/86/100
f 39/87/101 38/88/102 42/89/103 43/90/104
f 10/91/105 9/92/106 44/93/107 45/94/108
f 10/95/109 45/94/110 28/96/111
f 28/97/112 45/94/113 34/98/114
f 34/99/115 45/94/116 40/100/117 36/101/118
f 6/102/119 5/103/120 46/104/121 47/105/122
f 5/106/123 29/68/124 46/104/125
f 29/68/126 35/76/127 46/104/128
f 46/104/129 35/76/130 37/78/131 41/107/132
f 45/108/133 44/109/134 47/110/135 46/111/136
f 45/112/137 46/113/138 41/114/139 40/115/140
f 8/116/141 7/117/142 48/118/143 49/119/144
f 8/120/145 49/119/146 30/71/147
f 30/71/148 49/119/149 32/73/150
f 32/73/151 49/119/152 42/121/153 38/122/154
f 12/123/155 11/124/156 50/125/157 51/126/158
f 11/127/159 31/128/160 50/125/161
f 31/129/162 33/130/163 50/125/164
f 50/125/165 33/131/166 39/82/167 43/132/168
f 49/133/169 48/134/170 51/135/171 50/136/172
f 49/137/173 50/138/174 43/139/175 42/140/176
f 52/141/177 53/142/178 54/143/179 55/144/180
f 56/145/181 57/146/182 58/147/183
f 59/148/184 60/149/185 61/150/186 62/151/187
f 63/152/188 58/147/189 64/153/190
f 65/154/191 66/155/192 67/156/193 68/157/194
f 69/158/195 70/159/196 71/160/197 53/161/198
f 72/162/199 64/163/200 73/164/201 66/165/202
f 59/166/203 55/167/204 54/168/205 60/169/206
f 56/145/207 58/147/208 70/170/209
f 74/171/210 68/172/211 67/173/212 75/174/213
f 54/175/214 53/176/215 71/177/216 76/178/217
f 73/179/218 64/153/219 58/147/220
f 71/180/221 70/181/222 58/147/223
f 67/182/224 66/183/225 73/184/226 77/185/227
f 65/186/228 78/187/229 72/188/230 66/189/231
f 74/190/232 75/191/233 79/192/234 80/193/235
f 60/194/236 54/195/237 76/196/238 81/197/239
f 76/198/240 71/199/241 58/147/242
f 75/200/243 67/201/244 77/202/245 82/203/246
f 77/204/247 73/205/248 58/147/249
f 83/206/250 80/207/251 79/208/252 84/209/253
f 60/210/254 81/211/255 85/212/256 61/213/257
f 76/214/258 58/147/259 81/215/260
f 75/216/261 82/217/262 57/218/263 79/219/264
f 77/220/265 58/147/266 82/221/267
f 86/222/268 83/223/269 84/224/270 69/225/271
f 87/226/272 61/227/273 85/228/274 63/229/275
f 78/230/276 88/231/277 87/232/278 72/233/279
f 85/234/280 81/235/281 58/147/282
f 84/236/283 79/237/284 57/238/285 56/239/286
f 57/146/287 82/240/288 58/147/289
f 86/241/290 69/242/291 53/243/292 52/244/293
f 72/245/294 87/246/295 63/247/296 64/248/297
f 88/249/298 62/250/299 61/251/300 87/252/301
f 63/152/302 85/253/303 58/147/304
f 69/254/305 84/255/306 56/256/307 70/257/308
