# This file uses centimeters as units for non-parametric coordinates.

mtllib scifi_building.mtl
v 24.599701 97.466980 15.777374
v 24.599701 169.402466 15.777374
v 24.599701 169.402466 29.843903
v 24.599701 97.466980 29.843903
v -49.944836 169.402466 15.777374
v -49.944836 97.466980 15.777374
v -49.944836 97.466980 29.843903
v -49.944836 169.402466 29.843903
v -25.096687 97.466980 41.819489
v -25.096687 169.402466 41.819489
v -0.248482 97.466980 41.819489
v -0.248482 169.402466 41.819489
v -25.096687 97.466980 3.801788
v -0.248482 97.466980 3.801788
v -25.096687 169.402466 3.801788
v -0.248482 169.402466 3.801788
v -5.839317 97.466980 36.228668
v -5.839317 97.466980 9.392609
v -19.505844 97.466980 36.228668
v -19.505844 97.466980 9.392609
v -5.839317 22.922445 9.392609
v -19.505844 22.922445 9.392609
v -5.839317 22.922445 36.228668
v -19.505844 22.922445 36.228668
v -46.403973 22.177000 16.445526
v -46.403973 22.177000 29.175751
v -46.403973 99.330589 29.175751
v -46.403973 99.330589 16.445526
v -23.916344 22.177000 40.013702
v -23.916344 99.330589 40.013702
v -23.916344 22.177000 5.607574
v -23.916344 99.330589 5.607574
v -1.428772 22.177000 40.013702
v -1.428772 99.330589 40.013702
v -1.428772 22.177000 5.607574
v -1.428772 99.330589 5.607574
v 21.058838 22.177000 29.175751
v 21.058838 99.330589 29.175751
v 21.058838 22.177000 16.445526
v 21.058838 99.330589 16.445526
v 19.356758 22.922445 -41.148529
v -54.392685 22.922445 -41.148529
v 19.356758 22.922445 55.461151
v -54.392685 22.922445 55.461151
v -54.392685 -0.012383 55.461151
v -54.392685 -0.012383 -41.148529
v 29.047546 -0.012383 -41.148529
v 29.047546 -0.012383 55.461151
v 54.392685 22.922445 -41.148529
v 54.392685 -0.012383 -41.148529
v 54.392685 -0.012383 55.461151
v 54.392685 22.922445 55.461151
v 19.356758 67.649170 55.461151
v 19.356758 67.649170 -41.148529
v 54.392685 67.649170 55.461151
v 54.392685 67.649170 -41.148529
v -30.935982 49.013035 -55.461151
v 5.590843 49.013035 -55.461151
v 5.590843 -0.012383 -55.461151
v -30.935982 -0.012383 -55.461151
v 5.590843 49.013035 -18.934357
v 5.590843 -0.012383 -18.934357
v -30.935982 49.013035 -18.934357
v -30.935982 -0.012383 -18.934357
vt 0.751445 0.530538
vt 0.751445 0.420616
vt 0.772940 0.420616
vt 0.772940 0.530538
vt 0.749702 0.420616
vt 0.749702 0.530538
vt 0.728208 0.530538
vt 0.728208 0.420616
vt 0.583816 0.420082
vt 0.630631 0.420082
vt 0.630631 0.531072
vt 0.583816 0.531072
vt 0.672803 0.420082
vt 0.672803 0.531072
vt 0.719617 0.420082
vt 0.719617 0.531072
vt 0.482129 0.526334
vt 0.513816 0.508816
vt 0.513816 0.564427
vt 0.482129 0.546910
vt 0.545503 0.508816
vt 0.577190 0.526334
vt 0.577190 0.546910
vt 0.545503 0.564427
vt 0.941813 0.717419
vt 0.970401 0.665706
vt 0.879644 0.665706
vt 0.908233 0.717419
vt 0.970401 0.665706
vt 0.970401 0.613992
vt 0.879644 0.613992
vt 0.970401 0.613992
vt 0.941813 0.562279
vt 0.908233 0.562279
vt 0.718226 0.530464
vt 0.671925 0.530464
vt 0.671925 0.420690
vt 0.718226 0.420690
vt 0.671925 0.530464
vt 0.630215 0.530464
vt 0.630215 0.420690
vt 0.671925 0.420690
vt 0.630215 0.530464
vt 0.583913 0.530464
vt 0.583913 0.420690
vt 0.630215 0.420690
vt 0.545503 0.564427
vt 0.538373 0.556249
vt 0.538373 0.516994
vt 0.545503 0.564427
vt 0.513816 0.564427
vt 0.520945 0.556249
vt 0.513816 0.564427
vt 0.520945 0.516994
vt 0.666966 0.627061
vt 0.683443 0.627061
vt 0.683443 0.532000
vt 0.666966 0.532000
vt 0.664752 0.628880
vt 0.700702 0.628880
vt 0.700702 0.533818
vt 0.664752 0.533818
vt 0.701625 0.626698
vt 0.685148 0.626698
vt 0.685148 0.531637
vt 0.701625 0.531637
vt 0.700702 0.628016
vt 0.664752 0.628016
vt 0.664752 0.532955
vt 0.700702 0.532955
vt 0.118839 0.004279
vt 0.134182 0.004279
vt 0.134182 0.092794
vt 0.118839 0.092794
vt 0.008989 0.003517
vt 0.038494 0.003517
vt 0.038494 0.092032
vt 0.008989 0.092032
vt 0.165087 0.004660
vt 0.135582 0.004660
vt 0.135582 0.093175
vt 0.165087 0.093175
vt 0.067999 0.003517
vt 0.067999 0.092032
vt 0.194592 0.004660
vt 0.194592 0.093175
vt 0.097504 0.003517
vt 0.097504 0.092032
vt 0.115771 0.004279
vt 0.100428 0.004279
vt 0.100428 0.092794
vt 0.115771 0.092794
vt 0.224097 0.004660
vt 0.224097 0.093175
vt 0.907960 0.785029
vt 0.925576 0.785029
vt 0.958053 0.724967
vt 0.862992 0.724967
vt 0.925576 0.785029
vt 0.925576 0.816921
vt 0.958053 0.839776
vt 0.925576 0.816921
vt 0.907960 0.816921
vt 0.862992 0.839776
vt 0.907960 0.816921
vt 0.907960 0.785029
vt 0.577177 0.370351
vt 0.577177 0.406302
vt 0.462368 0.406302
vt 0.462368 0.370351
vt 0.973235 0.054840
vt 0.940852 0.054840
vt 0.940852 0.146066
vt 0.973235 0.158053
vt 0.134545 0.518091
vt 0.122557 0.550475
vt 0.031331 0.550475
vt 0.031331 0.518091
vt 0.940852 0.146066
vt 0.940852 0.189404
vt 0.973235 0.189404
vt 0.122557 0.550475
vt 0.165896 0.518091
vt 0.165896 0.550475
vt 0.008232 0.522591
vt 0.008232 0.554975
vt 0.123041 0.554975
vt 0.123041 0.522591
vt 0.007413 0.563407
vt 0.122223 0.563407
vt 0.122223 0.619018
vt 0.007413 0.619018
vt 0.122557 0.550475
vt 0.165896 0.613152
vt 0.122557 0.613152
vt 0.123041 0.554975
vt 0.008232 0.554975
vt 0.008232 0.617652
vt 0.123041 0.617652
vt 0.940852 0.146066
vt 0.878174 0.146066
vt 0.878174 0.189404
vt 0.869014 0.008452
vt 0.869014 0.255292
vt 0.988577 0.255292
vt 0.988577 0.008452
vt 0.261372 0.547877
vt 0.308919 0.547877
vt 0.308919 0.500330
vt 0.261372 0.500330
vt 0.260249 0.548689
vt 0.307796 0.548689
vt 0.307796 0.501141
vt 0.260249 0.501141
vt 0.309362 0.619294
vt 0.261815 0.619294
vt 0.261815 0.571747
vt 0.309362 0.571747
vt 0.308282 0.565189
vt 0.260734 0.565189
vt 0.260734 0.517641
vt 0.308282 0.517641
vt 0.150378 0.708523
vt 0.150378 0.779994
vt 0.221849 0.779994
vt 0.221849 0.708523
vn 1.000000 0.000000 0.000000
vn 1.000000 0.000000 0.000000
vn 1.000000 0.000000 0.000000
vn 1.000000 0.000000 0.000000
vn -1.000000 0.000000 0.000000
vn -1.000000 0.000000 0.000000
vn -1.000000 0.000000 0.000000
vn -1.000000 0.000000 0.000000
vn -0.434159 0.000000 0.900836
vn -0.434159 0.000000 0.900836
vn -0.434159 0.000000 0.900836
vn -0.434159 0.000000 0.900836
vn 0.000000 0.000000 1.000000
vn 0.000000 0.000000 1.000000
vn 0.000000 0.000000 1.000000
vn 0.000000 0.000000 1.000000
vn 0.434158 0.000000 0.900837
vn 0.434158 0.000000 0.900837
vn 0.434158 0.000000 0.900837
vn 0.434158 0.000000 0.900837
vn 0.000000 -1.000000 0.000000
vn 0.000000 -1.000000 0.000000
vn 0.000000 -1.000000 0.000000
vn 0.000000 -1.000000 0.000000
vn 0.000000 -1.000000 0.000000
vn 0.000000 -1.000000 0.000000
vn 0.000000 -1.000000 0.000000
vn 0.000000 -1.000000 0.000000
vn 0.000000 1.000000 0.000000
vn 0.000000 1.000000 0.000000
vn 0.000000 1.000000 0.000000
vn 0.000000 1.000000 0.000000
vn 0.000000 1.000000 0.000000
vn 0.000000 1.000000 0.000000
vn 0.000000 1.000000 0.000000
vn 0.000000 1.000000 0.000000
vn 0.000000 1.000000 0.000000
vn 0.000000 1.000000 0.000000
vn 0.000000 1.000000 0.000000
vn 0.000000 1.000000 0.000000
vn -0.434159 0.000000 -0.900836
vn -0.434159 0.000000 -0.900836
vn -0.434159 0.000000 -0.900836
vn -0.434159 0.000000 -0.900836
vn 0.000000 0.000000 -1.000000
vn 0.000000 0.000000 -1.000000
vn 0.000000 0.000000 -1.000000
vn 0.000000 0.000000 -1.000000
vn 0.434158 0.000000 -0.900837
vn 0.434158 0.000000 -0.900837
vn 0.434158 0.000000 -0.900837
vn 0.434158 0.000000 -0.900837
vn 0.000000 -1.000000 0.000000
vn 0.000000 -1.000000 0.000000
vn 0.000000 -1.000000 0.000000
vn 0.000000 -1.000000 0.000000
vn 0.000000 -1.000000 0.000001
vn 0.000000 -1.000000 0.000001
vn 0.000000 -1.000000 0.000001
vn 0.000000 -1.000000 0.000001
vn 0.000000 -1.000000 0.000000
vn 0.000000 -1.000000 0.000000
vn 0.000000 -1.000000 0.000000
vn 0.000000 -1.000000 0.000000
vn 0.000000 -1.000000 -0.000001
vn 0.000000 -1.000000 -0.000001
vn 0.000000 -1.000000 -0.000001
vn 0.000000 -1.000000 -0.000001
vn 0.000000 0.000000 -1.000000
vn 0.000000 0.000000 -1.000000
vn 0.000000 0.000000 -1.000000
vn 0.000000 0.000000 -1.000000
vn 1.000000 0.000000 0.000000
vn 1.000000 0.000000 0.000000
vn 1.000000 0.000000 0.000000
vn 1.000000 0.000000 0.000000
vn 0.000000 0.000000 1.000000
vn 0.000000 0.000000 1.000000
vn 0.000000 0.000000 1.000000
vn 0.000000 0.000000 1.000000
vn -1.000000 0.000000 0.000000
vn -1.000000 0.000000 0.000000
vn -1.000000 0.000000 0.000000
vn -1.000000 0.000000 0.000000
vn -1.000000 0.000000 0.000000
vn -1.000000 0.000000 0.000000
vn -1.000000 0.000000 0.000000
vn -1.000000 0.000000 0.000000
vn -0.434160 0.000000 0.900836
vn -0.434160 0.000000 0.900836
vn -0.434160 0.000000 0.900836
vn -0.434160 0.000000 0.900836
vn -0.434160 0.000000 -0.900836
vn -0.434160 0.000000 -0.900836
vn -0.434160 0.000000 -0.900836
vn -0.434160 0.000000 -0.900836
vn 0.000000 0.000000 1.000000
vn 0.000000 0.000000 1.000000
vn 0.000000 0.000000 1.000000
vn 0.000000 0.000000 1.000000
vn 0.000000 0.000000 -1.000000
vn 0.000000 0.000000 -1.000000
vn 0.000000 0.000000 -1.000000
vn 0.000000 0.000000 -1.000000
vn 0.434160 0.000000 0.900836
vn 0.434160 0.000000 0.900836
vn 0.434160 0.000000 0.900836
vn 0.434160 0.000000 0.900836
vn 1.000000 0.000000 0.000000
vn 1.000000 0.000000 0.000000
vn 1.000000 0.000000 0.000000
vn 1.000000 0.000000 0.000000
vn 0.434160 0.000000 -0.900836
vn 0.434160 0.000000 -0.900836
vn 0.434160 0.000000 -0.900836
vn 0.434160 0.000000 -0.900836
vn 0.000000 1.000000 0.000000
vn 0.000000 1.000000 0.000000
vn 0.000000 1.000000 0.000000
vn 0.000000 1.000000 0.000000
vn 0.000000 1.000000 0.000000
vn 0.000000 1.000000 0.000000
vn 0.000000 1.000000 0.000000
vn 0.000000 1.000000 0.000000
vn 0.000000 1.000000 0.000000
vn 0.000000 1.000000 0.000000
vn 0.000000 1.000000 0.000000
vn 0.000000 1.000000 0.000000
vn 0.000000 1.000000 0.000000
vn 0.000000 1.000000 0.000000
vn 0.000000 1.000000 0.000000
vn 0.000000 1.000000 0.000000
vn -1.000000 0.000000 0.000000
vn -1.000000 0.000000 0.000000
vn -1.000000 0.000000 0.000000
vn -1.000000 0.000000 0.000000
vn 0.000000 0.000000 -1.000000
vn 0.000000 0.000000 -1.000000
vn 0.000000 0.000000 -1.000000
vn 0.000000 0.000000 -1.000000
vn 0.000000 0.000000 1.000000
vn 0.000000 0.000000 1.000000
vn 0.000000 0.000000 1.000000
vn 0.000000 0.000000 1.000000
vn 0.000000 0.000000 -1.000000
vn 0.000000 0.000000 -1.000000
vn 0.000000 0.000000 -1.000000
vn 0.000000 0.000000 -1.000000
vn 0.000000 0.000000 1.000000
vn 0.000000 0.000000 1.000000
vn 0.000000 0.000000 1.000000
vn 0.000000 0.000000 1.000000
vn 1.000000 0.000000 0.000000
vn 1.000000 0.000000 0.000000
vn 1.000000 0.000000 0.000000
vn 1.000000 0.000000 0.000000
vn -1.000000 0.000000 0.000000
vn -1.000000 0.000000 0.000000
vn -1.000000 0.000000 0.000000
vn -1.000000 0.000000 0.000000
vn 0.000000 0.000000 1.000000
vn 0.000000 0.000000 1.000000
vn 0.000000 0.000000 1.000000
vn 0.000000 0.000000 1.000000
vn 1.000000 0.000000 0.000000
vn 1.000000 0.000000 0.000000
vn 1.000000 0.000000 0.000000
vn 1.000000 0.000000 0.000000
vn 0.000000 0.000000 -1.000000
vn 0.000000 0.000000 -1.000000
vn 0.000000 0.000000 -1.000000
vn 0.000000 0.000000 -1.000000
vn 0.000000 1.000000 0.000000
vn 0.000000 1.000000 0.000000
vn 0.000000 1.000000 0.000000
vn 0.000000 1.000000 0.000000
vn 0.000000 0.000000 -1.000000
vn 0.000000 0.000000 -1.000000
vn 0.000000 0.000000 -1.000000
vn 0.000000 0.000000 -1.000000
vn 1.000000 0.000000 0.000000
vn 1.000000 0.000000 0.000000
vn 1.000000 0.000000 0.000000
vn 1.000000 0.000000 0.000000
vn 0.000000 0.000000 1.000000
vn 0.000000 0.000000 1.000000
vn 0.000000 0.000000 1.000000
vn 0.000000 0.000000 1.000000
vn -1.000000 0.000000 0.000000
vn -1.000000 0.000000 0.000000
vn -1.000000 0.000000 0.000000
vn -1.000000 0.000000 0.000000
vn 0.000000 1.000000 0.000000
vn 0.000000 1.000000 0.000000
vn 0.000000 1.000000 0.000000
vn 0.000000 1.000000 0.000000
g building_40
usemtl lambert2SG
f 1/1/1 2/2/2 3/3/3 4/4/4
f 5/5/5 6/6/6 7/7/7 8/8/8
f 7/9/9 9/10/10 10/11/11 8/12/12
f 9/10/13 11/13/14 12/14/15 10/11/16
f 11/13/17 4/15/18 3/16/19 12/14/20
f 6/17/21 13/18/22 9/19/23 7/20/24
f 14/21/25 1/22/26 4/23/27 11/24/28
f 8/25/29 10/26/30 15/27/31 5/28/32
f 10/29/33 12/30/34 16/31/35 15/27/36
f 12/32/37 3/33/38 2/34/39 16/31/40
f 5/35/41 15/36/42 13/37/43 6/38/44
f 15/39/45 16/40/46 14/41/47 13/42/48
f 16/43/49 2/44/50 1/45/51 14/46/52
f 14/21/53 11/47/54 17/48/55 18/49/56
f 11/50/57 9/51/58 19/52/59 17/48/60
f 9/53/61 13/18/62 20/54/63 19/52/64
f 13/18/65 14/21/66 18/49/67 20/54/68
f 20/55/69 18/56/70 21/57/71 22/58/72
f 18/59/73 17/60/74 23/61/75 21/62/76
f 17/63/77 19/64/78 24/65/79 23/66/80
f 19/67/81 20/68/82 22/69/83 24/70/84
f 25/71/85 26/72/86 27/73/87 28/74/88
f 26/75/89 29/76/90 30/77/91 27/78/92
f 31/79/93 25/80/94 28/81/95 32/82/96
f 29/76/97 33/83/98 34/84/99 30/77/100
f 35/85/101 31/79/102 32/82/103 36/86/104
f 33/83/105 37/87/106 38/88/107 34/84/108
f 37/89/109 39/90/110 40/91/111 38/92/112
f 39/93/113 35/85/114 36/86/115 40/94/116
f 22/95/117 21/96/118 41/97/119 42/98/120
f 21/99/121 23/100/122 43/101/123 41/97/124
f 23/102/125 24/103/126 44/104/127 43/101/128
f 24/105/129 22/106/130 42/98/131 44/104/132
f 45/107/133 44/108/134 42/109/135 46/110/136
f 46/111/137 42/112/138 41/113/139 47/114/140
f 48/115/141 43/116/142 44/117/143 45/118/144
f 47/114/145 41/119/146 49/120/147 50/121/148
f 43/122/149 48/115/150 51/123/151 52/124/152
f 50/125/153 49/126/154 52/127/155 51/128/156
f 41/129/157 43/130/158 53/131/159 54/132/160
f 43/133/161 52/124/162 55/134/163 53/135/164
f 52/136/165 49/137/166 56/138/167 55/139/168
f 49/120/169 41/140/170 54/141/171 56/142/172
f 54/143/173 53/144/174 55/145/175 56/146/176
f 57/147/177 58/148/178 59/149/179 60/150/180
f 58/151/181 61/152/182 62/153/183 59/154/184
f 61/155/185 63/156/186 64/157/187 62/158/188
f 63/159/189 57/160/190 60/161/191 64/162/192
f 57/163/193 63/164/194 61/165/195 58/166/196
