# This file uses centimeters as units for non-parametric coordinates.

mtllib scifi_building.mtl
v 31.620463 22.450527 31.620453
v -31.620463 22.450527 31.620453
v -31.620463 -0.003469 31.620453
v 31.620463 -0.003469 31.620453
v -31.620463 -0.003469 -14.608673
v -31.620463 22.450527 -14.608673
v -14.608652 22.450527 -31.620453
v -14.608652 -0.003469 -31.620453
v 31.620463 22.450527 -14.608673
v 31.620463 -0.003469 -14.608673
v 14.608656 -0.003469 -31.620453
v 14.608656 22.450527 -31.620453
vt 0.226052 0.598949
vt 0.140909 0.598949
vt 0.140909 0.568723
vt 0.226052 0.568723
vt 0.865598 0.275738
vt 0.865598 0.250550
vt 0.892590 0.250550
vt 0.892590 0.275738
vt 0.952364 0.250550
vt 0.952364 0.275738
vt 0.925371 0.275738
vt 0.925371 0.250550
vt 0.365333 0.530525
vt 0.365333 0.560378
vt 0.303859 0.560378
vt 0.303859 0.530525
vt 0.365733 0.537617
vt 0.365733 0.567471
vt 0.304259 0.567471
vt 0.304259 0.537617
vt 0.946583 0.992733
vt 0.946583 0.887525
vt 0.974884 0.915826
vt 0.974884 0.964432
vt 0.869675 0.887525
vt 0.946583 0.887525
vt 0.946583 0.992733
vt 0.869675 0.992733
vn 0.000000 0.000000 1.000000
vn 0.000000 0.000000 1.000000
vn 0.000000 0.000000 1.000000
vn 0.000000 0.000000 1.000000
vn -0.707106 0.000000 -0.707107
vn -0.707106 0.000000 -0.707107
vn -0.707106 0.000000 -0.707107
vn -0.707106 0.000000 -0.707107
vn 0.707106 0.000000 -0.707107
vn 0.707106 0.000000 -0.707107
vn 0.707106 0.000000 -0.707107
vn 0.707106 0.000000 -0.707107
vn 0.000000 0.000000 -1.000000
vn 0.000000 0.000000 -1.000000
vn 0.000000 0.000000 -1.000000
vn 0.000000 0.000000 -1.000000
vn 1.000000 0.000000 0.000000
vn 1.000000 0.000000 0.000000
vn 1.000000 0.000000 0.000000
vn 1.000000 0.000000 0.000000
vn -1.000000 0.000000 0.000000
vn -1.000000 0.000000 0.000000
vn -1.000000 0.000000 0.000000
vn -1.000000 0.000000 0.000000
vn 0.000000 1.000000 -0.000000
vn 0.000000 1.000000 -0.000000
vn 0.000000 1.000000 -0.000000
vn 0.000000 1.000000 -0.000000
vn 0.000000 1.000000 0.000000
vn 0.000000 1.000000 0.000000
vn 0.000000 1.000000 0.000000
vn 0.000000 1.000000 0.000000
g building_22
usemtl lambert2SG
f 1/1/1 2/2/2 3/3/3 4/4/4
f 5/5/5 6/6/6 7/7/7 8/8/8
f 9/9/9 10/10/10 11/11/11 12/12/12
f 12/12/13 11/11/14 8/8/15 7/7/16
f 10/13/17 9/14/18 1/15/19 4/16/20
f 3/17/21 2/18/22 6/19/23 5/20/24
f 6/21/25 9/22/26 12/23/27 7/24/28
f 1/25/29 9/26/30 6/27/31 2/28/32
