# This file uses centimeters as units for non-parametric coordinates.

mtllib scifi_building.mtl
v -78.435295 11.888000 -80.614059
v 76.467400 11.888000 -80.614059
v 76.467400 -0.002053 -80.614059
v -78.435295 -0.002053 -80.614059
v 76.467400 11.888000 74.288635
v 76.467400 -0.002053 74.288635
v -78.435295 11.888000 74.288635
v -78.435295 -0.002053 74.288635
v 77.620049 37.258808 -16.938095
v 77.620049 37.258808 -5.692886
v 86.447502 28.431326 -5.692886
v 86.447502 28.431326 -16.938095
v -77.620033 37.258808 -5.692886
v -77.620033 37.258808 -16.938095
v -86.447502 28.431326 -16.938095
v -86.447502 28.431326 -5.692886
v -86.447502 -0.002283 -16.938095
v 86.447502 -0.002283 -16.938095
v 86.447502 -0.002283 -5.692886
v -86.447502 -0.002283 -5.692886
v 77.620049 37.258808 14.829620
v 77.620049 37.258808 26.074814
v 86.447502 28.431326 26.074814
v 86.447502 28.431326 14.829620
v -77.620033 37.258808 26.074814
v -77.620033 37.258808 14.829620
v -86.447502 28.431326 14.829620
v -86.447502 28.431326 26.074814
v -86.447502 -0.002283 14.829620
v 86.447502 -0.002283 14.829620
v 86.447502 -0.002283 26.074814
v -86.447502 -0.002283 26.074814
v 77.620049 37.258808 46.597305
v 77.620049 37.258808 57.842529
v 86.447502 28.431326 57.842529
v 86.447502 28.431326 46.597305
v -77.620033 37.258808 57.842529
v -77.620033 37.258808 46.597305
v -86.447502 28.431326 46.597305
v -86.447502 28.431326 57.842529
v -86.447502 -0.002283 46.597305
v 86.447502 -0.002283 46.597305
v 86.447502 -0.002283 57.842529
v -86.447502 -0.002283 57.842529
v -38.655403 30.511690 -25.653122
v -38.655403 30.511690 80.614059
v -38.655403 66.496346 80.614059
v -38.655403 66.496346 -25.653122
v -0.983955 30.511690 -25.653122
v -0.983955 30.511690 80.614059
v -0.983955 66.496346 80.614059
v -0.983955 66.496346 -25.653122
v -0.983955 10.832582 -45.894485
v -0.983955 46.817234 -45.894485
v -38.655403 10.832582 -45.894485
v -38.655403 46.817234 -45.894485
v -0.983955 46.817234 -74.569748
v -38.655403 46.817234 -74.569748
v -38.655403 10.832582 -74.569748
v -0.983955 10.832582 -74.569748
v 49.619469 46.817234 -74.569748
v 49.619469 10.832582 -74.569748
v 49.619469 46.817234 -45.894485
v 49.619469 10.832582 -45.894485
vt 0.032632 0.340748
vt 0.378808 0.340748
vt 0.378804 0.315325
vt 0.032628 0.315325
vt 0.032849 0.338922
vt 0.378825 0.338922
vt 0.378829 0.313510
vt 0.032852 0.313510
vt 0.379002 0.341905
vt 0.032398 0.341905
vt 0.032398 0.316455
vt 0.378997 0.316455
vt 0.378797 0.339033
vt 0.032646 0.339033
vt 0.032649 0.313610
vt 0.378796 0.313611
vt 0.010185 0.641671
vt 0.010185 0.850040
vt 0.218554 0.850040
vt 0.218554 0.641671
vt 0.979096 0.087632
vt 0.979098 0.071941
vt 0.961677 0.071937
vt 0.961675 0.087632
vt 0.954790 0.053180
vt 0.954790 0.068854
vt 0.937389 0.068854
vt 0.937388 0.053180
vt 0.975114 0.272432
vt 0.975114 0.033821
vt 0.957857 0.033825
vt 0.957857 0.272436
vt 0.896952 0.272707
vt 0.940039 0.272722
vt 0.940042 0.009013
vt 0.896952 0.009024
vt 0.940042 0.009013
vt 0.940039 0.272722
vt 0.953488 0.259256
vt 0.953492 0.022476
vt 0.920312 0.008317
vt 0.963492 0.008297
vt 0.963492 0.272718
vt 0.920312 0.272696
vt 0.963492 0.272718
vt 0.963492 0.008297
vt 0.976972 0.021800
vt 0.976975 0.259221
vt 0.922195 0.071938
vt 0.922191 0.087632
vt 0.897966 0.068854
vt 0.897966 0.053180
vt 0.930268 0.068945
vt 0.930268 0.053265
vt 0.912861 0.053265
vt 0.912861 0.068946
vt 0.930374 0.071535
vt 0.930376 0.087218
vt 0.912964 0.087220
vt 0.912963 0.071535
vt 0.982223 0.263202
vt 0.982223 0.025761
vt 0.965035 0.025763
vt 0.965035 0.263204
vt 0.871450 0.272651
vt 0.914638 0.272672
vt 0.914637 0.008222
vt 0.871450 0.008232
vt 0.914637 0.008222
vt 0.914638 0.272672
vt 0.928120 0.259180
vt 0.928118 0.021718
vt 0.895960 0.008137
vt 0.939169 0.008126
vt 0.939173 0.272742
vt 0.895960 0.272719
vt 0.939173 0.272742
vt 0.939169 0.008126
vt 0.952656 0.021638
vt 0.952664 0.259235
vt 0.873413 0.053264
vt 0.873415 0.068947
vt 0.873506 0.087220
vt 0.873507 0.071535
vt 0.954643 0.087256
vt 0.954642 0.071578
vt 0.937236 0.071578
vt 0.937236 0.087257
vt 0.954323 0.061213
vt 0.954322 0.076879
vt 0.936931 0.076878
vt 0.936932 0.061213
vt 0.973413 0.263578
vt 0.973413 0.025359
vt 0.956179 0.025363
vt 0.956179 0.263581
vt 0.921373 0.272805
vt 0.964480 0.272820
vt 0.964481 0.008972
vt 0.921373 0.008980
vt 0.964481 0.008972
vt 0.964480 0.272820
vt 0.977935 0.259347
vt 0.977936 0.022445
vt 0.872530 0.009138
vt 0.915610 0.009125
vt 0.915610 0.272774
vt 0.872530 0.272766
vt 0.915610 0.272774
vt 0.915610 0.009125
vt 0.929057 0.022583
vt 0.929056 0.259312
vt 0.897796 0.071578
vt 0.897797 0.087257
vt 0.897536 0.076878
vt 0.897536 0.061213
vt 0.147718 0.564593
vt 0.305584 0.564586
vt 0.305586 0.618044
vt 0.147720 0.618051
vt 0.471378 0.624633
vt 0.471378 0.898276
vt 0.374372 0.898276
vt 0.374372 0.624633
vt 0.783295 0.425841
vt 0.783295 0.486305
vt 0.719998 0.486303
vt 0.719998 0.425841
vt 0.969476 0.695337
vt 0.969310 0.441281
vt 0.879241 0.441333
vt 0.879407 0.695399
vt 0.148809 0.564896
vt 0.148663 0.617787
vt 0.304843 0.618211
vt 0.304986 0.565321
vt 0.148663 0.617787
vt 0.148809 0.564896
vt 0.119134 0.535885
vt 0.118989 0.588781
vt 0.374372 0.624633
vt 0.374372 0.551938
vt 0.471377 0.551937
vt 0.117649 0.588817
vt 0.117648 0.535358
vt 0.879241 0.441333
vt 0.969279 0.373796
vt 0.879208 0.373828
vt 0.879208 0.373828
vt 0.969279 0.373796
vt 0.969272 0.305233
vt 0.879188 0.305257
vt 0.117648 0.535358
vt 0.075049 0.588817
vt 0.075048 0.535358
vt 0.179723 0.618007
vt 0.179723 0.561595
vt 0.120666 0.561595
vt 0.120667 0.618007
vt 0.179723 0.618007
vt 0.259052 0.618007
vt 0.259052 0.561596
vt 0.869489 0.992020
vt 0.938052 0.992012
vt 0.938058 0.871017
vt 0.869489 0.871016
vt 0.586115 0.516116
vt 0.586110 0.427495
vt 0.710736 0.427495
vt 0.710740 0.516116
vt 0.720070 0.515628
vt 0.720069 0.425662
vt 0.648370 0.425658
vt 0.648370 0.515633
vn 0.000000 0.000000 -1.000000
vn 0.000000 0.000000 -1.000000
vn 0.000000 0.000000 -1.000000
vn 0.000000 0.000000 -1.000000
vn 1.000000 0.000000 0.000000
vn 1.000000 0.000000 0.000000
vn 1.000000 0.000000 0.000000
vn 1.000000 0.000000 0.000000
vn 0.000000 0.000000 1.000000
vn 0.000000 0.000000 1.000000
vn 0.000000 0.000000 1.000000
vn 0.000000 0.000000 1.000000
vn -1.000000 0.000000 0.000000
vn -1.000000 0.000000 0.000000
vn -1.000000 0.000000 0.000000
vn -1.000000 0.000000 0.000000
vn 0.000000 1.000000 0.000000
vn 0.000000 1.000000 0.000000
vn 0.000000 1.000000 0.000000
vn 0.000000 1.000000 0.000000
vn 0.707108 0.707106 0.000000
vn 0.707108 0.707106 0.000000
vn 0.707108 0.707106 0.000000
vn 0.707108 0.707106 0.000000
vn -0.707107 0.707106 0.000000
vn -0.707107 0.707106 0.000000
vn -0.707107 0.707106 0.000000
vn -0.707107 0.707106 0.000000
vn 0.000000 1.000000 0.000000
vn 0.000000 1.000000 0.000000
vn 0.000000 1.000000 0.000000
vn 0.000000 1.000000 0.000000
vn 0.000000 0.000000 -1.000000
vn 0.000000 0.000000 -1.000000
vn 0.000000 0.000000 -1.000000
vn 0.000000 0.000000 -1.000000
vn 0.000000 0.000000 -1.000000
vn 0.000000 0.000000 -1.000000
vn 0.000000 0.000000 -1.000000
vn 0.000000 0.000000 -1.000000
vn 0.000000 0.000000 1.000000
vn 0.000000 0.000000 1.000000
vn 0.000000 0.000000 1.000000
vn 0.000000 0.000000 1.000000
vn 0.000000 0.000000 1.000000
vn 0.000000 0.000000 1.000000
vn 0.000000 0.000000 1.000000
vn 0.000000 0.000000 1.000000
vn 1.000000 0.000000 0.000000
vn 1.000000 0.000000 0.000000
vn 1.000000 0.000000 0.000000
vn 1.000000 0.000000 0.000000
vn -1.000000 0.000000 0.000000
vn -1.000000 0.000000 0.000000
vn -1.000000 0.000000 0.000000
vn -1.000000 0.000000 0.000000
vn 0.707108 0.707106 0.000000
vn 0.707108 0.707106 0.000000
vn 0.707108 0.707106 0.000000
vn 0.707108 0.707106 0.000000
vn -0.707108 0.707106 0.000000
vn -0.707108 0.707106 0.000000
vn -0.707108 0.707106 0.000000
vn -0.707108 0.707106 0.000000
vn 0.000000 1.000000 0.000000
vn 0.000000 1.000000 0.000000
vn 0.000000 1.000000 0.000000
vn 0.000000 1.000000 0.000000
vn 0.000000 0.000000 -1.000000
vn 0.000000 0.000000 -1.000000
vn 0.000000 0.000000 -1.000000
vn 0.000000 0.000000 -1.000000
vn 0.000000 0.000000 -1.000000
vn 0.000000 0.000000 -1.000000
vn 0.000000 0.000000 -1.000000
vn 0.000000 0.000000 -1.000000
vn 0.000000 0.000000 1.000000
vn 0.000000 0.000000 1.000000
vn 0.000000 0.000000 1.000000
vn 0.000000 0.000000 1.000000
vn 0.000000 0.000000 1.000000
vn 0.000000 0.000000 1.000000
vn 0.000000 0.000000 1.000000
vn 0.000000 0.000000 1.000000
vn 1.000000 0.000000 0.000000
vn 1.000000 0.000000 0.000000
vn 1.000000 0.000000 0.000000
vn 1.000000 0.000000 0.000000
vn -1.000000 0.000000 0.000000
vn -1.000000 0.000000 0.000000
vn -1.000000 0.000000 0.000000
vn -1.000000 0.000000 0.000000
vn 0.707108 0.707106 0.000000
vn 0.707108 0.707106 0.000000
vn 0.707108 0.707106 0.000000
vn 0.707108 0.707106 0.000000
vn -0.707107 0.707106 0.000000
vn -0.707107 0.707106 0.000000
vn -0.707107 0.707106 0.000000
vn -0.707107 0.707106 0.000000
vn 0.000000 1.000000 0.000000
vn 0.000000 1.000000 0.000000
vn 0.000000 1.000000 0.000000
vn 0.000000 1.000000 0.000000
vn 0.000000 0.000000 -1.000000
vn 0.000000 0.000000 -1.000000
vn 0.000000 0.000000 -1.000000
vn 0.000000 0.000000 -1.000000
vn 0.000000 0.000000 -1.000000
vn 0.000000 0.000000 -1.000000
vn 0.000000 0.000000 -1.000000
vn 0.000000 0.000000 -1.000000
vn 0.000000 0.000000 1.000000
vn 0.000000 0.000000 1.000000
vn 0.000000 0.000000 1.000000
vn 0.000000 0.000000 1.000000
vn 0.000000 0.000000 1.000000
vn 0.000000 0.000000 1.000000
vn 0.000000 0.000000 1.000000
vn 0.000000 0.000000 1.000000
vn 1.000000 0.000000 0.000000
vn 1.000000 0.000000 0.000000
vn 1.000000 0.000000 0.000000
vn 1.000000 0.000000 0.000000
vn -1.000000 0.000000 0.000000
vn -1.000000 0.000000 0.000000
vn -1.000000 0.000000 0.000000
vn -1.000000 0.000000 0.000000
vn -1.000000 0.000000 0.000000
vn -1.000000 0.000000 0.000000
vn -1.000000 0.000000 0.000000
vn -1.000000 0.000000 0.000000
vn 0.000000 -1.000000 0.000000
vn 0.000000 -1.000000 0.000000
vn 0.000000 -1.000000 0.000000
vn 0.000000 -1.000000 0.000000
vn 0.000000 0.000000 1.000000
vn 0.000000 0.000000 1.000000
vn 0.000000 0.000000 1.000000
vn 0.000000 0.000000 1.000000
vn 0.000000 1.000000 0.000000
vn 0.000000 1.000000 0.000000
vn 0.000000 1.000000 0.000000
vn 0.000000 1.000000 0.000000
vn 1.000000 0.000000 0.000000
vn 1.000000 0.000000 0.000000
vn 1.000000 0.000000 0.000000
vn 1.000000 0.000000 0.000000
vn 1.000000 0.000000 0.000000
vn 1.000000 0.000000 0.000000
vn 1.000000 0.000000 0.000000
vn 1.000000 0.000000 0.000000
vn 0.000000 -0.716995 0.697078
vn 0.000000 -0.716995 0.697078
vn 0.000000 -0.716995 0.697078
vn 0.000000 -0.716995 0.697078
vn -1.000000 0.000000 0.000000
vn -1.000000 0.000000 0.000000
vn -1.000000 0.000000 0.000000
vn -1.000000 0.000000 0.000000
vn 0.000000 0.716995 -0.697079
vn 0.000000 0.716995 -0.697079
vn 0.000000 0.716995 -0.697079
vn 0.000000 0.716995 -0.697079
vn 0.000000 1.000000 0.000000
vn 0.000000 1.000000 0.000000
vn 0.000000 1.000000 0.000000
vn 0.000000 1.000000 0.000000
vn -1.000000 0.000000 0.000000
vn -1.000000 0.000000 0.000000
vn -1.000000 0.000000 0.000000
vn -1.000000 0.000000 0.000000
vn 0.000000 0.000000 -1.000000
vn 0.000000 0.000000 -1.000000
vn 0.000000 0.000000 -1.000000
vn 0.000000 0.000000 -1.000000
vn 0.000000 0.000000 -1.000000
vn 0.000000 0.000000 -1.000000
vn 0.000000 0.000000 -1.000000
vn 0.000000 0.000000 -1.000000
vn 0.000000 1.000000 0.000000
vn 0.000000 1.000000 0.000000
vn 0.000000 1.000000 0.000000
vn 0.000000 1.000000 0.000000
vn 0.000000 0.000000 1.000000
vn 0.000000 0.000000 1.000000
vn 0.000000 0.000000 1.000000
vn 0.000000 0.000000 1.000000
vn 1.000000 0.000000 0.000000
vn 1.000000 0.000000 0.000000
vn 1.000000 0.000000 0.000000
vn 1.000000 0.000000 0.000000
g building_51
usemtl lambert2SG
f 1/1/1 2/2/2 3/3/3 4/4/4
f 2/5/5 5/6/6 6/7/7 3/8/8
f 5/9/9 7/10/10 8/11/11 6/12/12
f 7/13/13 1/14/14 4/15/15 8/16/16
f 1/17/17 7/18/18 5/19/19 2/20/20
f 9/21/21 10/22/22 11/23/23 12/24/24
f 13/25/25 14/26/26 15/27/27 16/28/28
f 13/29/29 10/30/30 9/31/31 14/32/32
f 17/33/33 15/34/34 12/35/35 18/36/36
f 12/37/37 15/38/38 14/39/39 9/40/40
f 19/41/41 11/42/42 16/43/43 20/44/44
f 16/45/45 11/46/46 10/47/47 13/48/48
f 11/23/49 19/49/50 18/50/51 12/24/52
f 15/27/53 17/51/54 20/52/55 16/28/56
f 21/53/57 22/54/58 23/55/59 24/56/60
f 25/57/61 26/58/62 27/59/63 28/60/64
f 25/61/65 22/62/66 21/63/67 26/64/68
f 29/65/69 27/66/70 24/67/71 30/68/72
f 24/69/73 27/70/74 26/71/75 21/72/76
f 31/73/77 23/74/78 28/75/79 32/76/80
f 28/77/81 23/78/82 22/79/83 25/80/84
f 23/55/85 31/81/86 30/82/87 24/56/88
f 27/59/89 29/83/90 32/84/91 28/60/92
f 33/85/93 34/86/94 35/87/95 36/88/96
f 37/89/97 38/90/98 39/91/99 40/92/100
f 37/93/101 34/94/102 33/95/103 38/96/104
f 41/97/105 39/98/106 36/99/107 42/100/108
f 36/101/109 39/102/110 38/103/111 33/104/112
f 43/105/113 35/106/114 40/107/115 44/108/116
f 40/109/117 35/110/118 34/111/119 37/112/120
f 35/87/121 43/113/122 42/114/123 36/88/124
f 39/91/125 41/115/126 44/116/127 40/92/128
f 45/117/129 46/118/130 47/119/131 48/120/132
f 49/121/133 50/122/134 46/123/135 45/124/136
f 50/125/137 51/126/138 47/127/139 46/128/140
f 51/129/141 52/130/142 48/131/143 47/132/144
f 49/133/145 52/134/146 51/135/147 50/136/148
f 52/137/149 49/138/150 53/139/151 54/140/152
f 49/121/153 45/141/154 55/142/155 53/143/156
f 45/117/157 48/120/158 56/144/159 55/145/160
f 48/146/161 52/130/162 54/147/163 56/148/164
f 56/149/165 54/150/166 57/151/167 58/152/168
f 55/153/169 56/144/170 58/154/171 59/155/172
f 57/156/173 60/157/174 59/158/175 58/159/176
f 60/157/177 57/160/178 61/161/179 62/162/180
f 57/163/181 54/164/182 63/165/183 61/166/184
f 54/167/185 53/168/186 64/169/187 63/170/188
f 63/171/189 64/172/190 62/173/191 61/174/192
