# This file uses centimeters as units for non-parametric coordinates.

g default
v -2.773977 0.383189 -0.300000
v -2.173977 0.383189 -0.300000
v -2.173977 0.383189 0.300000
v -2.773977 0.383189 0.300000
v -2.773977 0.000000 0.300000
v -2.173977 0.000000 0.300000
v -2.773977 0.000000 -0.300000
v -2.173977 0.000000 -0.300000
v -2.371099 0.383189 0.300000
v -2.371099 0.383189 -0.300000
v -2.585438 0.383189 0.300000
v -2.585438 0.383189 -0.300000
v -2.773977 0.383189 -0.112671
v -2.173977 0.383189 -0.112671
v -2.371099 0.383189 -0.112671
v -2.585438 0.383189 -0.112671
v -2.773977 0.383189 0.104624
v -2.173977 0.383189 0.104624
v -2.371099 0.383189 0.104624
v -2.585438 0.383189 0.104624
v -2.773977 0.536995 0.300000
v -2.585438 0.536995 0.300000
v -2.585438 0.536995 0.104624
v -2.773977 0.536995 0.104624
v -2.371099 0.536995 -0.112671
v -2.371099 0.536995 -0.300000
v -2.173977 0.536995 -0.112671
v -2.173977 0.536995 -0.300000
v -2.585438 0.536995 -0.112671
v -2.773977 0.536995 -0.112671
v -2.585438 0.536995 -0.300000
v -2.773977 0.536995 -0.300000
v -2.371099 0.536995 0.104624
v -2.173977 0.536995 0.104624
v -2.371099 0.536995 0.300000
v -2.173977 0.536995 0.300000
vt 0.375000 0.750000
vt 0.625000 0.750000
vt 0.625000 1.000000
vt 0.375000 1.000000
vt 0.375000 0.000000
vt 0.625000 0.000000
vt 0.625000 0.250000
vt 0.552104 0.250000
vt 0.446783 0.250000
vt 0.375000 0.250000
vt 0.375000 0.250000
vt 0.446783 0.250000
vt 0.446783 0.325863
vt 0.375000 0.325863
vt 0.375000 0.500000
vt 0.446783 0.500000
vt 0.552104 0.500000
vt 0.625000 0.500000
vt 0.625000 0.750000
vt 0.375000 0.750000
vt 0.875000 0.000000
vt 0.875000 0.250000
vt 0.803721 0.250000
vt 0.700863 0.250000
vt 0.125000 0.000000
vt 0.299137 0.250000
vt 0.196279 0.250000
vt 0.125000 0.250000
vt 0.552104 0.500000
vt 0.552104 0.428721
vt 0.625000 0.428721
vt 0.625000 0.500000
vt 0.375000 0.428721
vt 0.446783 0.428721
vt 0.446783 0.500000
vt 0.375000 0.500000
vt 0.625000 0.325863
vt 0.552104 0.325863
vt 0.552104 0.250000
vt 0.625000 0.250000
vt 0.446783 0.325863
vt 0.375000 0.325863
vt 0.552104 0.428721
vt 0.625000 0.428721
vt 0.375000 0.428721
vt 0.446783 0.428721
vt 0.625000 0.325863
vt 0.552104 0.325863
vn 0.000000 -1.000000 0.000000
vn 0.000000 -1.000000 0.000000
vn 0.000000 -1.000000 0.000000
vn 0.000000 -1.000000 0.000000
vn 0.000000 0.000000 1.000000
vn 0.000000 0.000000 1.000000
vn 0.000000 0.000000 1.000000
vn 0.000000 0.000000 1.000000
vn 0.000000 0.000000 1.000000
vn 0.000000 0.000000 1.000000
vn 0.000000 1.000000 0.000000
vn 0.000000 1.000000 0.000000
vn 0.000000 1.000000 0.000000
vn 0.000000 1.000000 0.000000
vn 0.000000 0.000000 -1.000000
vn 0.000000 0.000000 -1.000000
vn 0.000000 0.000000 -1.000000
vn 0.000000 0.000000 -1.000000
vn 0.000000 0.000000 -1.000000
vn 0.000000 0.000000 -1.000000
vn 1.000000 -0.000000 0.000000
vn 1.000000 -0.000000 0.000000
vn 1.000000 -0.000000 0.000000
vn 1.000000 -0.000000 0.000000
vn 1.000000 -0.000000 0.000000
vn 1.000000 -0.000000 0.000000
vn -1.000000 -0.000000 0.000000
vn -1.000000 -0.000000 0.000000
vn -1.000000 -0.000000 0.000000
vn -1.000000 -0.000000 0.000000
vn -1.000000 -0.000000 0.000000
vn -1.000000 -0.000000 0.000000
vn 0.000000 1.000000 0.000000
vn 0.000000 1.000000 0.000000
vn 0.000000 1.000000 0.000000
vn 0.000000 1.000000 0.000000
vn 0.000000 1.000000 0.000000
vn 0.000000 1.000000 0.000000
vn 0.000000 1.000000 0.000000
vn 0.000000 1.000000 0.000000
vn 0.000000 1.000000 0.000000
vn 0.000000 1.000000 0.000000
vn 0.000000 1.000000 0.000000
vn 0.000000 1.000000 0.000000
vn 0.000000 0.000000 1.000000
vn 0.000000 0.000000 1.000000
vn 0.000000 0.000000 1.000000
vn 0.000000 0.000000 1.000000
vn 1.000000 0.000000 0.000000
vn 1.000000 0.000000 0.000000
vn 1.000000 0.000000 0.000000
vn 1.000000 0.000000 0.000000
vn 0.000000 0.000000 -1.000000
vn 0.000000 0.000000 -1.000000
vn 0.000000 0.000000 -1.000000
vn 0.000000 0.000000 -1.000000
vn -1.000000 0.000000 0.000000
vn -1.000000 0.000000 0.000000
vn -1.000000 0.000000 0.000000
vn -1.000000 0.000000 0.000000
vn -1.000000 0.000000 0.000000
vn -1.000000 0.000000 0.000000
vn -1.000000 0.000000 0.000000
vn -1.000000 0.000000 0.000000
vn 0.000000 0.000000 1.000000
vn 0.000000 0.000000 1.000000
vn 0.000000 0.000000 1.000000
vn 0.000000 0.000000 1.000000
vn 1.000000 0.000000 0.000000
vn 1.000000 0.000000 0.000000
vn 1.000000 0.000000 0.000000
vn 1.000000 0.000000 0.000000
vn 0.000000 0.000000 -1.000000
vn 0.000000 0.000000 -1.000000
vn 0.000000 0.000000 -1.000000
vn 0.000000 0.000000 -1.000000
vn 0.000000 0.000000 1.000000
vn 0.000000 0.000000 1.000000
vn 0.000000 0.000000 1.000000
vn 0.000000 0.000000 1.000000
vn 1.000000 0.000000 0.000000
vn 1.000000 0.000000 0.000000
vn 1.000000 0.000000 0.000000
vn 1.000000 0.000000 0.000000
vn 0.000000 0.000000 -1.000000
vn 0.000000 0.000000 -1.000000
vn 0.000000 0.000000 -1.000000
vn 0.000000 0.000000 -1.000000
vn -1.000000 0.000000 0.000000
vn -1.000000 0.000000 0.000000
vn -1.000000 0.000000 0.000000
vn -1.000000 0.000000 0.000000
vn 0.000000 0.000000 -1.000000
vn 0.000000 0.000000 -1.000000
vn 0.000000 0.000000 -1.000000
vn 0.000000 0.000000 -1.000000
vn -1.000000 0.000000 0.000000
vn -1.000000 0.000000 0.000000
vn -1.000000 0.000000 0.000000
vn -1.000000 0.000000 0.000000
vn 0.000000 0.000000 1.000000
vn 0.000000 0.000000 1.000000
vn 0.000000 0.000000 1.000000
vn 0.000000 0.000000 1.000000
vn 1.000000 0.000000 0.000000
vn 1.000000 0.000000 0.000000
vn 1.000000 0.000000 0.000000
vn 1.000000 0.000000 0.000000
g polySurface6
f 1/1/1 2/2/2 3/3/3 4/4/4
f 5/5/5 6/6/6 3/7/7 9/8/8 11/9/9 4/10/10
f 21/11/11 22/12/12 23/13/13 24/14/14
f 1/15/15 12/16/16 10/17/17 2/18/18 8/19/19 7/20/20
f 6/6/21 8/21/22 2/22/23 14/23/24 18/24/25 3/7/26
f 7/25/27 5/5/28 4/10/29 17/26/30 13/27/31 1/28/32
f 26/29/33 25/30/34 27/31/35 28/32/36
f 30/33/37 29/34/38 31/35/39 32/36/40
f 34/37/41 33/38/42 35/39/43 36/40/44
f 4/10/45 11/9/46 22/12/47 21/11/48
f 11/9/49 20/41/50 23/13/51 22/12/52
f 20/41/53 17/42/54 24/14/55 23/13/56
f 17/42/57 4/10/58 21/11/59 24/14/60
f 10/17/61 15/43/62 25/30/63 26/29/64
f 15/43/65 14/44/66 27/31/67 25/30/68
f 14/44/69 2/18/70 28/32/71 27/31/72
f 2/18/73 10/17/74 26/29/75 28/32/76
f 13/45/77 16/46/78 29/34/79 30/33/80
f 16/46/81 12/16/82 31/35/83 29/34/84
f 12/16/85 1/15/86 32/36/87 31/35/88
f 1/15/89 13/45/90 30/33/91 32/36/92
f 18/47/93 19/48/94 33/38/95 34/37/96
f 19/48/97 9/8/98 35/39/99 33/38/100
f 9/8/101 3/7/102 36/40/103 35/39/104
f 3/7/105 18/47/106 34/37/107 36/40/108
