# This file uses centimeters as units for non-parametric coordinates.

g default
v -3.900882 0.000000 0.300000
v -3.300882 0.000000 0.300000
v -3.224556 0.383189 0.376326
v -3.224556 0.383189 -0.376326
v -3.900882 0.000000 -0.300000
v -3.300882 0.000000 -0.300000
v -3.900882 0.312036 0.300000
v -3.300882 0.312036 0.300000
v -3.900882 0.312036 -0.300000
v -3.300882 0.312036 -0.300000
v -3.977208 0.383189 -0.376326
v -3.224556 0.312036 -0.376326
v -3.977208 0.312036 -0.376326
v -3.224556 0.312036 0.376326
v -3.977208 0.312036 0.376326
v -3.977208 0.383189 0.376326
vt 0.375000 0.000000
vt 0.625000 0.000000
vt 0.375000 0.250000
vt 0.625000 0.750000
vt 0.375000 0.750000
vt 0.875000 0.000000
vt 0.125000 0.000000
vt 0.125000 0.250000
vt 0.375000 0.203578
vt 0.625000 0.203578
vt 0.125000 0.203578
vt 0.375000 0.546422
vt 0.625000 0.546422
vt 0.875000 0.203578
vt 0.375000 0.500000
vt 0.625000 0.500000
vt 0.625000 0.546422
vt 0.375000 0.546422
vt 0.375000 0.203578
vt 0.625000 0.203578
vt 0.625000 0.250000
vt 0.375000 0.250000
vt 0.875000 0.203578
vt 0.875000 0.250000
vt 0.125000 0.203578
vt 0.125000 0.250000
vn 0.000000 0.000000 1.000000
vn 0.000000 0.000000 1.000000
vn 0.000000 0.000000 1.000000
vn 0.000000 0.000000 1.000000
vn 0.000000 0.000000 -1.000000
vn 0.000000 0.000000 -1.000000
vn 0.000000 0.000000 -1.000000
vn 0.000000 0.000000 -1.000000
vn 1.000000 0.000000 0.000000
vn 1.000000 0.000000 0.000000
vn 1.000000 0.000000 0.000000
vn 1.000000 0.000000 0.000000
vn -1.000000 0.000000 0.000000
vn -1.000000 0.000000 0.000000
vn -1.000000 0.000000 0.000000
vn -1.000000 0.000000 0.000000
vn 0.000000 0.000000 1.000000
vn 0.000000 0.000000 1.000000
vn 0.000000 0.000000 1.000000
vn 0.000000 0.000000 1.000000
vn 0.000000 0.000000 -1.000000
vn 0.000000 0.000000 -1.000000
vn 0.000000 0.000000 -1.000000
vn 0.000000 0.000000 -1.000000
vn 1.000000 -0.000001 0.000000
vn 1.000000 -0.000001 0.000000
vn 1.000000 -0.000001 0.000000
vn 1.000000 -0.000001 0.000000
vn -1.000000 0.000000 0.000000
vn -1.000000 0.000000 0.000000
vn -1.000000 0.000000 0.000000
vn -1.000000 0.000000 0.000000
vn 0.000000 -1.000000 -0.000000
vn 0.000000 -1.000000 -0.000000
vn 0.000000 -1.000000 -0.000000
vn 0.000000 -1.000000 -0.000000
vn 0.000000 -1.000000 0.000000
vn 0.000000 -1.000000 0.000000
vn 0.000000 -1.000000 0.000000
vn 0.000000 -1.000000 0.000000
vn 0.000000 -1.000000 0.000000
vn 0.000000 -1.000000 0.000000
vn 0.000000 -1.000000 0.000000
vn 0.000000 -1.000000 0.000000
vn 0.000000 -1.000000 0.000000
vn 0.000000 -1.000000 0.000000
vn 0.000000 -1.000000 0.000000
vn 0.000000 -1.000000 0.000000
vn 0.000000 1.000000 0.000000
vn 0.000000 1.000000 0.000000
vn 0.000000 1.000000 0.000000
vn 0.000000 1.000000 0.000000
g polySurface5
f 1/1/1 2/2/2 8/10/3 7/9/4
f 11/15/5 4/16/6 12/17/7 13/18/8
f 2/2/9 6/6/10 10/14/11 8/10/12
f 5/7/13 1/1/14 7/9/15 9/11/16
f 15/19/17 14/20/18 3/21/19 16/22/20
f 9/12/21 10/13/22 6/4/23 5/5/24
f 14/20/25 12/23/26 4/24/27 3/21/28
f 13/25/29 15/19/30 16/22/31 11/26/32
f 10/13/33 9/12/34 13/18/35 12/17/36
f 7/9/37 8/10/38 14/20/39 15/19/40
f 8/10/41 10/14/42 12/23/43 14/20/44
f 9/11/45 7/9/46 15/19/47 13/25/48
f 3/3/49 4/8/50 11/26/51 16/22/52
