# This file uses centimeters as units for non-parametric coordinates.

g default
v -0.100000 -0.160000 0.000000
v 0.100000 -0.160000 -0.000000
v -0.090762 0.160000 0.000000
v 0.090762 0.160000 0.000000
v -0.094176 -0.141706 0.021149
v 0.094176 -0.141706 0.021149
v 0.085476 0.154604 0.007675
v -0.085476 0.154604 0.007675
v -0.054687 -0.115079 0.008509
v 0.054687 -0.115079 0.008509
v 0.047522 0.036146 0.002462
v -0.047522 0.036146 0.002462
v 0.098612 -0.155175 0.012089
v -0.098612 -0.155175 0.012089
v -0.089503 0.159048 0.003822
v 0.089503 0.159048 0.003822
vt 0.000000 0.000000
vt 0.625000 0.000000
vt 0.000000 1.000000
vt 0.625000 1.000000
vt 0.000000 0.000000
vt 0.625000 0.000000
vt 0.625000 1.000000
vt 0.000000 1.000000
vt 0.000000 0.000000
vt 0.625000 0.000000
vt 0.625000 1.000000
vt 0.000000 1.000000
vt 0.625000 0.000000
vt 0.000000 0.000000
vt 0.000000 1.000000
vt 0.625000 1.000000
vn 0.089406 0.171628 0.981097
vn -0.089406 0.171628 0.981097
vn -0.087842 0.009686 0.996087
vn 0.087842 0.009686 0.996087
vn -0.687889 -0.625867 0.367559
vn 0.687889 -0.625867 0.367559
vn 0.615021 -0.473152 0.630775
vn -0.615021 -0.473152 0.630775
vn 0.675568 0.684995 0.272744
vn 0.609288 0.563868 0.557513
vn -0.675568 0.684995 0.272745
vn -0.609288 0.563868 0.557513
vn -0.179379 -0.016170 0.983647
vn 0.179379 -0.016170 0.983647
vn 0.174503 0.204029 0.963287
vn -0.174503 0.204029 0.963287
g pPlane1
f 9/9/1 10/10/2 11/11/3 12/12/4
f 1/1/5 2/2/6 13/13/7 14/14/8
f 2/2/6 4/4/9 16/16/10 13/13/7
f 4/4/9 3/3/11 15/15/12 16/16/10
f 3/3/11 1/1/5 14/14/8 15/15/12
f 5/5/13 6/6/14 10/10/2 9/9/1
f 6/6/14 7/7/15 11/11/3 10/10/2
f 7/7/15 8/8/16 12/12/4 11/11/3
f 8/8/16 5/5/13 9/9/1 12/12/4
f 14/14/8 13/13/7 6/6/14 5/5/13
f 15/15/12 14/14/8 5/5/13 8/8/16
f 16/16/10 15/15/12 8/8/16 7/7/15
f 13/13/7 16/16/10 7/7/15 6/6/14
