# This file uses centimeters as units for non-parametric coordinates.

mtllib door.mtl
g default
v 36.439945 1.022256 20.619419
v 34.913490 1.022256 20.619419
v 34.913490 -1.025230 20.619419
v 36.439945 -1.025230 20.619419
v 35.295105 -1.025230 20.619419
v 36.058331 -1.025230 20.619419
v 35.295105 0.426684 20.619419
v 36.058331 0.426684 20.619419
v 35.295105 -0.980338 20.447594
v 36.058331 -0.980338 20.447594
v 35.295105 0.426684 20.447594
v 36.058331 0.426684 20.447594
v 35.246849 0.494279 20.678461
v 36.148872 0.494279 20.678461
v 35.180893 0.566810 20.700567
v 36.214828 0.566810 20.700567
v 35.180893 0.566810 20.609945
v 36.214828 0.566810 20.609945
v 35.246849 0.494279 20.609945
v 36.148872 0.494279 20.609945
v 35.246849 0.428686 20.609945
v 36.148872 0.428686 20.609945
v 36.148872 0.428686 20.678461
v 35.246849 0.428686 20.678461
v 35.333054 0.564139 20.670223
v 35.585567 0.665540 20.670223
v 35.198769 0.565491 20.699993
v 35.585495 0.730520 20.699993
v 35.198769 0.565491 20.643970
v 35.585495 0.730520 20.643970
v 35.333054 0.564139 20.643970
v 35.585567 0.665540 20.643970
v 36.065018 0.564139 20.670223
v 35.812508 0.665540 20.670223
v 36.199303 0.565491 20.699993
v 35.812576 0.730519 20.699993
v 36.199303 0.565491 20.643969
v 35.812576 0.730519 20.643969
v 36.065018 0.564139 20.643969
v 35.812508 0.665540 20.643969
vt 0.708266 0.989812
vt 0.011912 0.990550
vt 0.008938 0.137145
vt 0.711271 0.137349
vt 0.168602 0.121579
vt 0.552010 0.123142
vt 0.177049 0.744583
vt 0.543270 0.744245
vt 0.219758 0.174317
vt 0.499911 0.170924
vt 0.227822 0.704203
vt 0.492131 0.706829
vt 0.825510 0.136641
vt 0.552978 0.072199
vt 0.592533 0.037594
vt 0.952038 0.084097
vt 0.546229 0.007090
vt 0.964735 0.028944
vt 0.809861 0.156429
vt 0.531682 0.085665
vt 0.823687 0.136021
vt 0.948519 0.084017
vt 0.594039 0.038229
vt 0.554901 0.072330
vt 0.961060 0.029574
vt 0.548285 0.008117
vt 0.808226 0.155540
vt 0.533872 0.085613
vt 0.034088 0.083706
vt 0.034088 0.017704
vt 0.167146 0.017704
vt 0.167146 0.105002
vt 0.097275 0.083706
vt 0.097275 0.017704
vt 0.038171 0.018950
vt 0.038171 0.084952
vt 0.831732 0.937012
vt 0.772090 0.219516
vt 0.825422 0.162257
vt 0.893785 0.984679
vt 0.779557 0.941349
vt 0.719915 0.223853
vt 0.893073 0.984739
vt 0.824709 0.162316
vt 0.896792 0.156324
vt 0.965156 0.978747
vt 0.781384 0.941080
vt 0.721742 0.223585
vt 0.776241 0.219054
vt 0.835883 0.936550
vt 0.101359 0.084952
vt 0.101359 0.018950
vt 0.171230 0.018951
vt 0.171230 0.106249
vn -0.000001 0.000000 1.000000
vn -0.000001 0.000000 1.000000
vn -0.000003 0.000000 1.000000
vn -0.000003 0.000000 1.000000
vn 0.000000 0.000000 1.000000
vn 0.000000 0.000000 1.000000
vn 0.000000 0.000000 1.000000
vn 0.000000 0.000000 1.000000
vn 0.000000 0.967525 0.252777
vn 0.000000 0.967525 0.252777
vn 0.000000 0.967525 0.252777
vn 0.000000 0.967525 0.252777
vn -1.000000 0.000000 0.000000
vn -1.000000 0.000000 0.000000
vn -1.000000 0.000000 0.000000
vn -1.000000 0.000000 0.000000
vn 1.000000 0.000000 0.000000
vn 1.000000 0.000000 0.000000
vn 1.000000 0.000000 0.000000
vn 1.000000 0.000000 0.000000
vn 0.000000 -1.000000 0.000000
vn 0.000000 -1.000000 0.000000
vn 0.000000 -1.000000 0.000000
vn 0.000000 -1.000000 0.000000
vn 0.000001 0.000000 1.000000
vn 0.000001 0.000000 1.000000
vn 0.000003 0.000000 1.000000
vn 0.000003 0.000000 1.000000
vn 0.000000 -0.147381 0.989080
vn 0.000000 -0.147381 0.989080
vn 0.000000 -0.291544 0.956557
vn 0.000000 -0.291544 0.956557
vn 0.000000 1.000000 0.000000
vn 0.000000 1.000000 0.000000
vn 0.000000 1.000000 0.000000
vn 0.000000 1.000000 0.000000
vn 0.000000 -1.000000 0.000000
vn 0.000000 -1.000000 0.000000
vn 0.000000 -1.000000 0.000000
vn 0.000000 -1.000000 0.000000
vn 0.739844 -0.672778 0.000000
vn 0.739844 -0.672778 0.000000
vn 0.739844 -0.672778 0.000000
vn 0.739844 -0.672778 0.000000
vn -0.739856 -0.672766 0.000000
vn -0.739856 -0.672766 0.000000
vn -0.739856 -0.672766 0.000000
vn -0.739856 -0.672766 0.000000
vn 1.000000 0.000000 0.000000
vn 1.000000 0.000000 0.000000
vn 1.000000 0.000000 0.000000
vn 1.000000 0.000000 0.000000
vn 0.000000 0.000000 1.000000
vn 0.000000 0.000000 1.000000
vn -1.000000 0.000000 0.000000
vn -1.000000 0.000000 0.000000
vn -1.000000 0.000000 0.000000
vn -1.000000 0.000000 0.000000
vn 0.179438 -0.430533 0.884558
vn 0.179438 -0.430533 0.884558
vn 0.179438 -0.430533 0.884558
vn 0.179438 -0.430533 0.884558
vn -0.392491 0.919756 0.000000
vn -0.392491 0.919756 0.000000
vn -0.392491 0.919756 0.000000
vn -0.392491 0.919756 0.000000
vn 0.372630 -0.927980 0.000000
vn 0.372630 -0.927980 0.000000
vn 0.372630 -0.927980 0.000000
vn 0.372630 -0.927980 0.000000
vn 0.999999 0.001115 0.000000
vn 0.999999 0.001115 0.000000
vn 0.999999 0.001115 0.000000
vn 0.999999 0.001115 0.000000
vn -0.179446 -0.430536 0.884555
vn -0.179446 -0.430536 0.884555
vn -0.179446 -0.430536 0.884555
vn -0.179446 -0.430536 0.884555
vn 0.392487 0.919758 0.000000
vn 0.392487 0.919758 0.000000
vn 0.392487 0.919758 0.000000
vn 0.392487 0.919758 0.000000
vn -0.372639 -0.927976 0.000000
vn -0.372639 -0.927976 0.000000
vn -0.372639 -0.927976 0.000000
vn -0.372639 -0.927976 0.000000
vn -0.999999 0.001048 0.000000
vn -0.999999 0.001048 0.000000
vn -0.999999 0.001048 0.000000
vn -0.999999 0.001048 0.000000
s 1
g polySurface68
usemtl lambert10SG
f 7/7/1 2/2/2 3/3/3 5/5/4
s off
f 10/10/5 12/12/6 11/11/7 9/9/8
f 9/9/9 5/5/10 6/6/11 10/10/12
f 10/10/13 6/6/14 8/8/15 12/12/16
f 9/9/17 11/11/18 7/7/19 5/5/20
f 11/11/21 12/12/22 8/8/23 7/7/24
s 1
f 8/8/25 1/1/26 2/2/2 7/7/1
f 4/4/27 1/1/26 8/8/25 6/6/28
s 7
f 13/37/29 14/38/30 16/39/31 15/40/32
s off
f 15/43/33 16/44/34 18/45/35 17/46/36
f 21/47/37 22/48/38 23/49/39 24/50/40
f 14/51/41 20/52/42 18/53/43 16/54/44
f 19/34/45 13/33/46 15/32/47 17/31/48
f 20/52/49 14/51/50 23/36/51 22/35/52
s 7
f 14/38/30 13/37/29 24/41/53 23/42/54
s off
f 13/33/55 19/34/56 21/30/57 24/29/58
f 25/13/59 26/14/60 28/15/61 27/16/62
f 27/16/63 28/15/64 30/17/65 29/18/66
f 31/19/67 32/20/68 26/14/69 25/13/70
f 26/14/71 32/20/72 30/17/73 28/15/74
f 33/21/75 35/22/76 36/23/77 34/24/78
f 35/22/79 37/25/80 38/26/81 36/23/82
f 39/27/83 33/21/84 34/24/85 40/28/86
f 34/24/87 36/23/88 38/26/89 40/28/90
