# This file uses centimeters as units for non-parametric coordinates.

mtllib double.mtl
g default
v 28.808231 1.894869 19.978598
v 28.808231 0.697870 19.978598
v 29.807981 1.894869 19.978598
v 29.807981 0.697870 19.978598
v 29.136009 1.621974 19.978598
v 29.480387 1.621974 19.978598
v 29.136009 1.052921 19.978598
v 29.480387 1.052921 19.978598
v 29.999138 1.894869 19.978596
v 29.999138 0.697870 19.978596
v 28.610390 1.894869 19.978598
v 28.610390 0.697871 19.978598
v 28.808231 1.894869 20.060684
v 28.808231 0.697870 20.060684
v 29.807981 1.894869 20.060684
v 29.807981 0.697870 20.060684
v 29.136009 1.621974 20.060684
v 29.480387 1.621974 20.060684
v 29.136009 1.052921 20.060684
v 29.480387 1.052921 20.060684
v 29.110195 1.009895 20.099482
v 29.505859 1.009895 20.099482
v 29.096146 1.068844 20.133715
v 29.519907 1.068844 20.133715
v 29.096146 1.050576 19.979435
v 29.519907 1.050576 19.979435
v 29.110195 1.009895 19.979435
v 29.505859 1.009895 19.979435
v 29.147629 0.976856 20.085535
v 29.189249 0.976856 20.085535
v 29.147629 1.026555 20.085535
v 29.189249 1.026555 20.085535
v 29.147629 1.026555 19.981085
v 29.189249 1.026555 19.981085
v 29.147629 0.976856 19.981085
v 29.189249 0.976856 19.981085
v 29.425644 0.976856 20.085535
v 29.467266 0.976856 20.085535
v 29.425644 1.026555 20.085535
v 29.467266 1.026555 20.085535
v 29.425644 1.026555 19.981085
v 29.467266 1.026555 19.981085
v 29.425644 0.976856 19.981085
v 29.467266 0.976856 19.981085
v 29.108995 1.646447 20.089870
v 29.507057 1.646447 20.089870
v 29.079887 1.705397 20.107838
v 29.536163 1.705397 20.107838
v 29.079887 1.705397 20.034185
v 29.536163 1.705397 20.034185
v 29.108995 1.646447 20.034185
v 29.507057 1.646447 20.034185
v 29.108995 1.626271 19.977428
v 29.507057 1.626271 19.977428
v 29.507057 1.593136 20.089870
v 29.108995 1.593136 20.089870
v 29.147038 1.703226 20.083176
v 29.258471 1.785640 20.083176
v 29.087778 1.704324 20.107372
v 29.258438 1.838452 20.107372
v 29.087778 1.704324 20.061838
v 29.258438 1.838452 20.061838
v 29.147038 1.703226 20.061838
v 29.258471 1.785640 20.061838
v 29.470053 1.703226 20.083176
v 29.358620 1.785640 20.083176
v 29.529312 1.704324 20.107372
v 29.358650 1.838451 20.107372
v 29.529312 1.704324 20.061838
v 29.358650 1.838451 20.061838
v 29.470053 1.703226 20.061838
v 29.358620 1.785640 20.061838
v 29.458193 1.026421 20.087185
v 29.502579 1.026421 20.087185
v 29.458193 1.595175 20.087185
v 29.502579 1.595175 20.087185
v 29.482302 1.622222 19.979435
v 29.502579 1.595175 19.979435
v 29.482302 1.026421 19.979435
v 29.502579 1.026421 19.979435
v 29.113815 1.026421 20.087185
v 29.158201 1.026421 20.087185
v 29.113815 1.593768 20.087185
v 29.158201 1.593768 20.087185
v 29.113815 1.593768 19.979435
v 29.134094 1.620815 19.979435
v 29.113815 1.026421 19.979435
v 29.134094 1.026421 19.979435
v 29.999138 1.894869 20.060682
v 29.999138 0.697870 20.060682
v 28.610390 1.894869 20.060684
v 28.610390 0.697871 20.060684
vt 0.273774 0.773291
vt 0.273774 0.298748
vt 0.560956 0.298748
vt 0.560956 0.773291
vt 0.834081 1.000808
vt 0.000435 1.000862
vt 0.000435 0.002665
vt 0.834081 0.002720
vt 0.712641 0.998859
vt 0.712641 -0.001036
vt 0.830041 -0.001011
vt 0.830040 0.998833
vt 0.014066 0.000239
vt 0.014066 0.999761
vt 0.124700 0.999760
vt 0.124700 0.000239
vt 0.834081 1.000808
vt 0.000435 1.000862
vt 0.273774 0.773291
vt 0.560956 0.773291
vt 0.000435 0.002665
vt 0.273774 0.298748
vt 0.560956 0.298748
vt 0.834081 0.002720
vt 0.252247 0.262867
vt 0.582198 0.262867
vt 0.593914 0.312026
vt 0.240532 0.312026
vt 0.906108 0.382960
vt 0.906108 0.006912
vt 0.994430 0.006912
vt 0.994430 0.382960
vt 0.994430 0.370493
vt 0.994430 0.019378
vt 0.936486 0.019378
vt 0.936486 0.370493
vt 0.932808 0.455795
vt 0.932808 0.392760
vt 0.989716 0.392760
vt 0.989716 0.488843
vt 0.932808 0.392760
vt 0.932808 0.455795
vt 0.989716 0.488843
vt 0.989716 0.392760
vt 0.283464 0.235316
vt 0.318172 0.235316
vt 0.318172 0.276760
vt 0.283464 0.276760
vt 0.992966 0.337274
vt 0.992966 0.300339
vt 0.948863 0.300339
vt 0.948863 0.337274
vt 0.899707 0.148238
vt 0.851728 0.148238
vt 0.851728 0.196216
vt 0.899707 0.196216
vt 0.851728 0.148238
vt 0.899707 0.148238
vt 0.899707 0.196216
vt 0.851728 0.196216
vt 0.515307 0.235316
vt 0.550015 0.235316
vt 0.550015 0.276760
vt 0.515307 0.276760
vt 0.992966 0.090560
vt 0.992966 0.053626
vt 0.948863 0.053626
vt 0.948863 0.090560
vt 0.899707 0.148238
vt 0.851728 0.148238
vt 0.851728 0.196216
vt 0.899707 0.196216
vt 0.851728 0.148238
vt 0.899707 0.148238
vt 0.899707 0.196216
vt 0.851728 0.196216
vt 0.251247 0.793699
vt 0.583198 0.793699
vt 0.607471 0.842858
vt 0.226974 0.842858
vt 0.929843 0.999789
vt 0.929843 0.583182
vt 0.997091 0.583182
vt 0.997091 0.999789
vt 0.997091 0.973213
vt 0.997091 0.609758
vt 0.946247 0.609758
vt 0.946247 0.973213
vt 0.903893 0.794639
vt 0.850136 0.794639
vt 0.850136 0.851547
vt 0.921237 0.851547
vt 0.850136 0.794639
vt 0.903893 0.794639
vt 0.921237 0.851547
vt 0.850136 0.851547
vt 0.903893 0.743174
vt 0.850136 0.743174
vt 0.251247 0.749242
vt 0.583198 0.749242
vt 0.850136 0.743174
vt 0.903893 0.743174
vt 0.282971 0.841048
vt 0.375897 0.909774
vt 0.375871 0.953815
vt 0.233554 0.841964
vt 0.861165 0.869910
vt 0.861165 0.999392
vt 0.905123 0.999392
vt 0.905123 0.869910
vt 0.905123 0.868849
vt 0.905123 0.948409
vt 0.884524 0.948409
vt 0.884524 0.868849
vt 0.552339 0.841048
vt 0.601757 0.841964
vt 0.459440 0.953814
vt 0.459414 0.909774
vt 0.861165 0.869909
vt 0.905123 0.869909
vt 0.905123 0.999391
vt 0.861165 0.999391
vt 0.905123 0.868849
vt 0.884524 0.868849
vt 0.884524 0.948409
vt 0.905123 0.948409
vt 0.542450 0.276649
vt 0.579464 0.276649
vt 0.579464 0.750942
vt 0.542450 0.750942
vt 0.901300 0.196086
vt 0.850136 0.196086
vt 0.850136 0.745143
vt 0.901300 0.745143
vt 0.850136 0.196086
vt 0.901300 0.196086
vt 0.901300 0.745143
vt 0.850136 0.745143
vt 0.255268 0.276649
vt 0.292281 0.276649
vt 0.292281 0.749769
vt 0.255268 0.749769
vt 0.901300 0.196086
vt 0.850136 0.196086
vt 0.850136 0.743785
vt 0.901300 0.743785
vt 0.850136 0.196086
vt 0.901300 0.196086
vt 0.901300 0.743785
vt 0.850136 0.743785
vt 0.712641 0.998859
vt 0.712641 -0.001036
vt 0.830041 -0.001011
vt 0.830040 0.998833
vt 0.014066 0.000239
vt 0.014066 0.999761
vt 0.124700 0.999760
vt 0.124700 0.000239
vn 0.000002 0.000000 1.000000
vn 0.000000 0.000000 1.000000
vn -0.000002 0.000000 1.000000
vn 0.000000 0.000000 1.000000
vn 0.000000 0.000000 1.000000
vn -0.000002 0.000000 1.000000
vn 0.000000 0.000000 1.000000
vn 0.000002 0.000000 1.000000
vn 0.000006 0.000000 1.000000
vn 0.000006 0.000000 1.000000
vn 0.000005 0.000000 1.000000
vn 0.000005 0.000000 1.000000
vn 0.000002 0.000000 1.000000
vn 0.000002 0.000000 1.000000
vn 0.000000 0.000000 1.000000
vn -0.000001 0.000000 1.000000
vn 0.000002 0.000000 1.000000
vn 0.000000 0.000000 1.000000
vn -0.000001 0.000000 1.000000
vn 0.000002 0.000000 1.000000
vn 0.000000 -0.502184 0.864761
vn 0.000000 -0.502184 0.864761
vn 0.000000 -0.502184 0.864761
vn 0.000000 -0.502184 0.864761
vn 0.000000 0.993063 -0.117587
vn 0.000000 0.993063 -0.117587
vn 0.000000 0.993063 -0.117587
vn 0.000000 0.993063 -0.117587
vn 0.000000 -1.000000 0.000000
vn 0.000000 -1.000000 0.000000
vn 0.000000 -1.000000 0.000000
vn 0.000000 -1.000000 0.000000
vn 0.960617 -0.277263 0.018461
vn 0.960617 -0.277263 0.018461
vn 0.960617 -0.277263 0.018461
vn 0.960617 -0.277263 0.018461
vn -0.960621 -0.277247 0.018464
vn -0.960621 -0.277247 0.018464
vn -0.960621 -0.277247 0.018464
vn -0.960621 -0.277247 0.018464
vn 0.000000 0.000000 1.000000
vn 0.000000 0.000000 1.000000
vn 0.000000 0.000000 1.000000
vn 0.000000 0.000000 1.000000
vn 0.000000 -1.000000 0.000000
vn 0.000000 -1.000000 0.000000
vn 0.000000 -1.000000 0.000000
vn 0.000000 -1.000000 0.000000
vn 1.000000 0.000000 0.000000
vn 1.000000 0.000000 0.000000
vn 1.000000 0.000000 0.000000
vn 1.000000 0.000000 0.000000
vn -1.000000 0.000000 0.000000
vn -1.000000 0.000000 0.000000
vn -1.000000 0.000000 0.000000
vn -1.000000 0.000000 0.000000
vn 0.000000 0.000000 1.000000
vn 0.000000 0.000000 1.000000
vn 0.000000 0.000000 1.000000
vn 0.000000 0.000000 1.000000
vn 0.000000 -1.000000 0.000000
vn 0.000000 -1.000000 0.000000
vn 0.000000 -1.000000 0.000000
vn 0.000000 -1.000000 0.000000
vn 1.000000 0.000000 0.000000
vn 1.000000 0.000000 0.000000
vn 1.000000 0.000000 0.000000
vn 1.000000 0.000000 0.000000
vn -1.000000 0.000000 0.000000
vn -1.000000 0.000000 0.000000
vn -1.000000 0.000000 0.000000
vn -1.000000 0.000000 0.000000
vn 0.000000 -0.147384 0.989079
vn 0.000000 -0.147384 0.989079
vn 0.000000 -0.291549 0.956556
vn 0.000000 -0.291549 0.956556
vn 0.000000 1.000000 0.000000
vn 0.000000 1.000000 0.000000
vn 0.000000 1.000000 0.000000
vn 0.000000 1.000000 0.000000
vn 0.000000 -0.959218 -0.282667
vn 0.000000 -0.959218 -0.282667
vn 0.000000 -0.959218 -0.282667
vn 0.000000 -0.959218 -0.282667
vn 0.973817 -0.227334 0.000000
vn 0.973817 -0.227334 0.000000
vn 0.896653 -0.442733 0.000000
vn 0.896653 -0.442733 0.000000
vn -0.973821 -0.227318 0.000000
vn -0.973821 -0.227318 0.000000
vn -0.896653 -0.442733 0.000000
vn -0.896653 -0.442733 0.000000
vn 1.000000 -0.000033 0.000000
vn 1.000000 -0.000033 0.000000
vn 0.000000 0.000000 1.000000
vn 0.000000 0.000000 1.000000
vn -1.000000 0.000000 0.000000
vn -1.000000 0.000000 0.000000
vn 0.318450 -0.414860 0.852338
vn 0.318450 -0.414860 0.852338
vn 0.318450 -0.414860 0.852338
vn 0.318450 -0.414860 0.852338
vn -0.617923 0.786238 0.000000
vn -0.617923 0.786238 0.000000
vn -0.617923 0.786238 0.000000
vn -0.617923 0.786238 0.000000
vn 0.594617 -0.804009 0.000000
vn 0.594617 -0.804009 0.000000
vn 0.594617 -0.804009 0.000000
vn 0.594617 -0.804009 0.000000
vn 1.000000 0.000608 0.000000
vn 1.000000 0.000608 0.000000
vn 1.000000 0.000608 0.000000
vn 1.000000 0.000608 0.000000
vn -0.318456 -0.414865 0.852333
vn -0.318456 -0.414865 0.852333
vn -0.318456 -0.414865 0.852333
vn -0.318456 -0.414865 0.852333
vn 0.617923 0.786238 0.000000
vn 0.617923 0.786238 0.000000
vn 0.617923 0.786238 0.000000
vn 0.617923 0.786238 0.000000
vn -0.594617 -0.804009 0.000000
vn -0.594617 -0.804009 0.000000
vn -0.594617 -0.804009 0.000000
vn -0.594617 -0.804009 0.000000
vn -1.000000 0.000574 0.000000
vn -1.000000 0.000574 0.000000
vn -1.000000 0.000574 0.000000
vn -1.000000 0.000574 0.000000
vn 0.000000 0.000000 1.000000
vn 0.000000 0.000000 1.000000
vn 0.000000 0.000000 1.000000
vn 0.000000 0.000000 1.000000
vn 1.000000 0.000000 0.000000
vn 1.000000 0.000000 0.000000
vn 1.000000 0.000000 0.000000
vn 1.000000 0.000000 0.000000
vn -0.975871 0.000000 -0.218350
vn -0.975871 0.000000 -0.218350
vn -0.975871 0.000000 -0.218350
vn -0.975871 0.000000 -0.218350
vn 0.000000 0.000000 1.000000
vn 0.000000 0.000000 1.000000
vn 0.000000 0.000000 1.000000
vn 0.000000 0.000000 1.000000
vn 0.975874 0.000000 -0.218333
vn 0.975874 0.000000 -0.218333
vn 0.975874 0.000000 -0.218333
vn 0.975874 0.000000 -0.218333
vn -1.000000 0.000000 0.000000
vn -1.000000 0.000000 0.000000
vn -1.000000 0.000000 0.000000
vn -1.000000 0.000000 0.000000
vn 0.000006 0.000000 1.000000
vn 0.000006 0.000000 1.000000
vn 0.000005 0.000000 1.000000
vn 0.000005 0.000000 1.000000
s 1
g polySurface196
usemtl lambert7SG
f 3/5/1 1/6/2 5/1/3 6/4/4
f 1/6/2 2/7/5 7/2/6 5/1/3
f 8/3/7 7/2/6 2/7/5 4/8/8
f 4/8/8 3/5/1 6/4/4 8/3/7
f 3/9/1 4/10/8 10/11/9 9/12/10
f 2/13/5 1/14/2 11/15/11 12/16/12
s 2
f 15/17/13 13/18/14 17/19/15 18/20/16
f 13/18/14 14/21/17 19/22/18 17/19/15
f 20/23/19 19/22/18 14/21/17 16/24/20
f 16/24/20 15/17/13 18/20/16 20/23/19
s off
f 21/25/21 22/26/22 24/27/23 23/28/24
f 23/29/25 24/30/26 26/31/27 25/32/28
f 27/33/29 28/34/30 22/35/31 21/36/32
f 22/37/33 28/38/34 26/39/35 24/40/36
f 27/41/37 21/42/38 23/43/39 25/44/40
f 29/45/41 30/46/42 32/47/43 31/48/44
f 35/49/45 36/50/46 30/51/47 29/52/48
f 30/53/49 36/54/50 34/55/51 32/56/52
f 35/57/53 29/58/54 31/59/55 33/60/56
f 37/61/57 38/62/58 40/63/59 39/64/60
f 43/65/61 44/66/62 38/67/63 37/68/64
f 38/69/65 44/70/66 42/71/67 40/72/68
f 43/73/69 37/74/70 39/75/71 41/76/72
s 16
f 45/77/73 46/78/74 48/79/75 47/80/76
s off
f 47/81/77 48/82/78 50/83/79 49/84/80
f 53/85/81 54/86/82 55/87/83 56/88/84
s 19
f 46/89/85 52/90/86 50/91/87 48/92/88
s 20
f 51/93/89 45/94/90 47/95/91 49/96/92
s 19
f 52/90/86 46/89/85 55/97/93 54/98/94
s 16
f 46/78/74 45/77/73 56/99/95 55/100/96
s 20
f 45/94/90 51/93/89 53/101/97 56/102/98
s off
f 57/103/99 58/104/100 60/105/101 59/106/102
f 59/107/103 60/108/104 62/109/105 61/110/106
f 63/111/107 64/112/108 58/113/109 57/114/110
f 58/113/111 64/112/112 62/109/113 60/108/114
f 65/115/115 67/116/116 68/117/117 66/118/118
f 67/119/119 69/120/120 70/121/121 68/122/122
f 71/123/123 65/124/124 66/125/125 72/126/126
f 66/125/127 68/122/128 70/121/129 72/126/130
f 73/127/131 74/128/132 76/129/133 75/130/134
f 74/131/135 80/132/136 78/133/137 76/134/138
f 79/135/139 73/136/140 75/137/141 77/138/142
f 81/139/143 82/140/144 84/141/145 83/142/146
f 82/143/147 88/144/148 86/145/149 84/146/150
f 87/147/151 81/148/152 83/149/153 85/150/154
s 2
f 15/151/13 16/152/20 90/153/155 89/154/156
f 14/155/17 13/156/14 91/157/157 92/158/158
