# This file uses centimeters as units for non-parametric coordinates.

mtllib shop_rec1.mtl
v 39.213551 7.109075 20.821114
v 39.213551 5.064562 20.821114
v 37.174732 7.109075 20.821114
v 37.174732 5.064562 20.821114
v 37.429585 7.109075 20.821114
v 37.429585 5.064562 20.821114
v 38.958698 7.109075 20.821114
v 38.958698 5.064562 20.821114
v 37.429585 7.109075 20.619419
v 38.958698 7.109075 20.619419
v 39.213551 5.320126 20.821114
v 38.958698 5.320126 20.821114
v 38.958698 5.320126 20.619419
v 37.429585 5.320126 20.619419
v 37.429585 5.320126 20.821114
v 37.174732 5.320126 20.821114
vt 1.001078 0.081338
vt 1.001078 1.000000
vt 0.909982 1.000000
vt 0.909982 0.081338
vt 0.830311 1.000000
vt 0.183039 1.000000
vt 0.183039 0.155850
vt 0.830311 0.155850
vt 0.096378 1.000000
vt 0.005598 1.000000
vt 0.005598 0.081338
vt 0.096378 0.081338
vt 0.910001 1.000000
vt 0.830709 1.000000
vt 0.830709 0.081338
vt 0.910001 0.081338
vt 0.179300 0.081338
vt 0.179300 1.000000
vt 0.099991 1.000000
vt 0.099991 0.081338
vt 0.005598 0.000000
vt 0.096378 0.000000
vt 0.909982 0.000000
vt 1.001078 0.000000
vt 0.099808 0.154640
vt 0.099808 0.081338
vt 0.913821 0.081338
vt 0.913821 0.154640
vn 0.000000 0.000000 1.000000
vn 0.000000 0.000000 1.000000
vn 0.000000 0.000000 1.000000
vn 0.000000 0.000000 1.000000
vn 0.000000 0.000000 1.000000
vn 0.000000 0.000000 1.000000
vn 0.000000 0.000000 1.000000
vn 0.000000 0.000000 1.000000
vn 0.000000 0.000000 1.000000
vn 0.000000 0.000000 1.000000
vn 0.000000 0.000000 1.000000
vn 0.000000 0.000000 1.000000
vn 1.000000 0.000000 0.000000
vn 1.000000 0.000000 0.000000
vn 1.000000 0.000000 0.000000
vn 1.000000 0.000000 0.000000
vn -1.000000 0.000000 0.000000
vn -1.000000 0.000000 0.000000
vn -1.000000 0.000000 0.000000
vn -1.000000 0.000000 0.000000
vn 0.000000 0.000000 1.000000
vn 0.000000 0.000000 1.000000
vn 0.000000 0.000000 1.000000
vn 0.000000 0.000000 1.000000
vn 0.000000 0.000000 1.000000
vn 0.000000 0.000000 1.000000
vn 0.000000 0.000000 1.000000
vn 0.000000 0.000000 1.000000
vn 0.000000 1.000000 0.000000
vn 0.000000 1.000000 0.000000
vn 0.000000 1.000000 0.000000
vn 0.000000 1.000000 0.000000
vn 0.000000 0.000000 1.000000
vn 0.000000 0.000000 1.000000
vn 0.000000 0.000000 1.000000
vn 0.000000 0.000000 1.000000
s off
g polySurface139 group
usemtl lambert13SG
f 16/1/1 15/4/2 5/3/3 3/2/4
f 9/5/5 14/8/6 13/7/7 10/6/8
f 7/9/9 12/12/10 11/11/11 1/10/12
f 5/13/13 15/16/14 14/15/15 9/14/16
f 13/17/17 12/20/18 7/19/19 10/18/20
f 12/12/21 8/22/22 2/21/23 11/11/24
f 16/1/25 4/24/26 6/23/27 15/4/28
f 13/25/29 14/28/30 15/27/31 12/26/32
f 12/12/33 15/4/34 6/23/35 8/22/36
