# This file uses centimeters as units for non-parametric coordinates.

mtllib win_small.mtl
v 5.462867 3.082505 21.670155
v 5.462867 1.885506 21.670155
v 6.462867 3.082505 21.670155
v 6.462867 1.885506 21.670155
v 5.790645 2.846247 21.670155
v 6.135023 2.846247 21.670155
v 5.790645 2.063305 21.670155
v 6.135023 2.063305 21.670155
v 5.764831 2.020278 21.708952
v 6.160495 2.020278 21.708952
v 5.750782 2.079228 21.743185
v 6.174543 2.079228 21.743185
v 5.750782 2.079228 21.643656
v 6.174543 2.079228 21.643656
v 5.764831 2.020278 21.643656
v 6.160495 2.020278 21.643656
v 5.802264 1.987240 21.695005
v 5.843885 1.987240 21.695005
v 5.802264 2.036938 21.695005
v 5.843885 2.036938 21.695005
v 5.802264 2.036938 21.645306
v 5.843885 2.036938 21.645306
v 5.802264 1.987240 21.645306
v 5.843885 1.987240 21.645306
v 6.080281 1.987240 21.695005
v 6.121902 1.987240 21.695005
v 6.080281 2.036938 21.695005
v 6.121902 2.036938 21.695005
v 6.080281 2.036938 21.645306
v 6.121902 2.036938 21.645306
v 6.080281 1.987240 21.645306
v 6.121902 1.987240 21.645306
v 5.763631 2.870720 21.699341
v 6.161694 2.870720 21.699341
v 5.734525 2.929669 21.717308
v 6.190801 2.929669 21.717308
v 5.734525 2.929669 21.643656
v 6.190801 2.929669 21.643656
v 5.763631 2.870720 21.643656
v 6.161694 2.870720 21.643656
v 5.763631 2.817408 21.643656
v 6.161694 2.817408 21.643656
v 6.161694 2.817408 21.699341
v 5.763631 2.817408 21.699341
v 6.112830 2.036804 21.696655
v 6.157216 2.036804 21.696655
v 6.112830 2.819447 21.696655
v 6.157216 2.819447 21.696655
v 6.112830 2.819447 21.643656
v 6.157216 2.819447 21.643656
v 6.112830 2.036804 21.643656
v 6.157216 2.036804 21.643656
v 5.768453 2.036804 21.696655
v 5.812838 2.036804 21.696655
v 5.768453 2.818041 21.696655
v 5.812838 2.818041 21.696655
v 5.768453 2.818041 21.643656
v 5.812838 2.818041 21.643656
v 5.768453 2.036804 21.643656
v 5.812838 2.036804 21.643656
vt 0.273774 0.773291
vt 0.273774 0.298748
vt 0.560956 0.298748
vt 0.560956 0.773291
vt 0.834352 1.000862
vt 0.000435 1.000862
vt 0.000435 0.002665
vt 0.834352 0.002665
vt 0.252247 0.262867
vt 0.582198 0.262867
vt 0.593914 0.312026
vt 0.240532 0.312026
vt 0.906108 0.382960
vt 0.906108 0.006912
vt 0.994430 0.006912
vt 0.994430 0.382960
vt 0.994430 0.370493
vt 0.994430 0.019378
vt 0.936486 0.019378
vt 0.936486 0.370493
vt 0.932808 0.455795
vt 0.932808 0.392760
vt 0.989716 0.392760
vt 0.989716 0.488843
vt 0.932808 0.392760
vt 0.932808 0.455795
vt 0.989716 0.488843
vt 0.989716 0.392760
vt 0.283464 0.235316
vt 0.318172 0.235316
vt 0.318172 0.276760
vt 0.283464 0.276760
vt 0.992966 0.337274
vt 0.992966 0.300339
vt 0.948863 0.300339
vt 0.948863 0.337274
vt 0.899707 0.148238
vt 0.851728 0.148238
vt 0.851728 0.196216
vt 0.899707 0.196216
vt 0.851728 0.148238
vt 0.899707 0.148238
vt 0.899707 0.196216
vt 0.851728 0.196216
vt 0.515307 0.235316
vt 0.550015 0.235316
vt 0.550015 0.276760
vt 0.515307 0.276760
vt 0.992966 0.090560
vt 0.992966 0.053626
vt 0.948863 0.053626
vt 0.948863 0.090560
vt 0.899707 0.148238
vt 0.851728 0.148238
vt 0.851728 0.196216
vt 0.899707 0.196216
vt 0.851728 0.148238
vt 0.899707 0.148238
vt 0.899707 0.196216
vt 0.851728 0.196216
vt 0.251247 0.793699
vt 0.583198 0.793699
vt 0.607471 0.842858
vt 0.226974 0.842858
vt 0.929843 0.999789
vt 0.929843 0.583182
vt 0.997091 0.583182
vt 0.997091 0.999789
vt 0.997091 0.973213
vt 0.997091 0.609758
vt 0.946247 0.609758
vt 0.946247 0.973213
vt 0.903893 0.794639
vt 0.850136 0.794639
vt 0.850136 0.851547
vt 0.921237 0.851547
vt 0.850136 0.794639
vt 0.903893 0.794639
vt 0.921237 0.851547
vt 0.850136 0.851547
vt 0.903893 0.743174
vt 0.850136 0.743174
vt 0.251247 0.749242
vt 0.583198 0.749242
vt 0.850136 0.743174
vt 0.903893 0.743174
vt 0.542450 0.276649
vt 0.579464 0.276649
vt 0.579464 0.750942
vt 0.542450 0.750942
vt 0.901300 0.196086
vt 0.850136 0.196086
vt 0.850136 0.745143
vt 0.901300 0.745143
vt 0.850136 0.196086
vt 0.901300 0.196086
vt 0.901300 0.745143
vt 0.850136 0.745143
vt 0.255268 0.276649
vt 0.292281 0.276649
vt 0.292281 0.749769
vt 0.255268 0.749769
vt 0.901300 0.196086
vt 0.850136 0.196086
vt 0.850136 0.743785
vt 0.901300 0.743785
vt 0.850136 0.196086
vt 0.901300 0.196086
vt 0.901300 0.743785
vt 0.850136 0.743785
vn -0.000001 0.000000 1.000000
vn -0.000001 0.000000 1.000000
vn 0.000002 0.000000 1.000000
vn 0.000002 0.000000 1.000000
vn 0.000003 0.000000 1.000000
vn -0.000002 0.000000 1.000000
vn -0.000001 0.000000 1.000000
vn 0.000002 0.000000 1.000000
vn -0.000002 0.000000 1.000000
vn -0.000002 0.000000 1.000000
vn -0.000001 0.000000 1.000000
vn -0.000001 0.000000 1.000000
vn 0.000002 0.000000 1.000000
vn -0.000001 0.000000 1.000000
vn -0.000002 0.000000 1.000000
vn 0.000003 0.000000 1.000000
vn 0.000003 0.000000 1.000000
vn 0.000003 0.000000 1.000000
vn 0.000002 0.000000 1.000000
vn 0.000002 0.000000 1.000000
vn 0.000000 -0.502185 0.864760
vn 0.000000 -0.502185 0.864760
vn 0.000000 -0.502185 0.864760
vn 0.000000 -0.502185 0.864760
vn 0.000000 1.000000 0.000000
vn 0.000000 1.000000 0.000000
vn 0.000000 1.000000 0.000000
vn 0.000000 1.000000 0.000000
vn 0.000000 -1.000000 0.000000
vn 0.000000 -1.000000 0.000000
vn 0.000000 -1.000000 0.000000
vn 0.000000 -1.000000 0.000000
vn 0.972756 -0.231830 0.000000
vn 0.972756 -0.231830 0.000000
vn 0.972756 -0.231830 0.000000
vn 0.972756 -0.231830 0.000000
vn -0.972758 -0.231822 0.000000
vn -0.972758 -0.231822 0.000000
vn -0.972758 -0.231822 0.000000
vn -0.972758 -0.231822 0.000000
vn 0.000000 0.000000 1.000000
vn 0.000000 0.000000 1.000000
vn 0.000000 0.000000 1.000000
vn 0.000000 0.000000 1.000000
vn 0.000000 -1.000000 0.000000
vn 0.000000 -1.000000 0.000000
vn 0.000000 -1.000000 0.000000
vn 0.000000 -1.000000 0.000000
vn 1.000000 0.000000 0.000000
vn 1.000000 0.000000 0.000000
vn 1.000000 0.000000 0.000000
vn 1.000000 0.000000 0.000000
vn -1.000000 0.000000 0.000000
vn -1.000000 0.000000 0.000000
vn -1.000000 0.000000 0.000000
vn -1.000000 0.000000 0.000000
vn 0.000000 0.000000 1.000000
vn 0.000000 0.000000 1.000000
vn 0.000000 0.000000 1.000000
vn 0.000000 0.000000 1.000000
vn 0.000000 -1.000000 0.000000
vn 0.000000 -1.000000 0.000000
vn 0.000000 -1.000000 0.000000
vn 0.000000 -1.000000 0.000000
vn 1.000000 0.000000 0.000000
vn 1.000000 0.000000 0.000000
vn 1.000000 0.000000 0.000000
vn 1.000000 0.000000 0.000000
vn -1.000000 0.000000 0.000000
vn -1.000000 0.000000 0.000000
vn -1.000000 0.000000 0.000000
vn -1.000000 0.000000 0.000000
vn 0.000000 -0.147385 0.989079
vn 0.000000 -0.147385 0.989079
vn 0.000000 -0.291550 0.956556
vn 0.000000 -0.291550 0.956556
vn 0.000000 1.000000 0.000000
vn 0.000000 1.000000 0.000000
vn 0.000000 1.000000 0.000000
vn 0.000000 1.000000 0.000000
vn 0.000000 -1.000000 0.000000
vn 0.000000 -1.000000 0.000000
vn 0.000000 -1.000000 0.000000
vn 0.000000 -1.000000 0.000000
vn 0.973822 -0.227314 0.000000
vn 0.973822 -0.227314 0.000000
vn 0.896657 -0.442726 0.000000
vn 0.896657 -0.442726 0.000000
vn -0.973821 -0.227314 0.000000
vn -0.973821 -0.227314 0.000000
vn -0.896656 -0.442727 0.000000
vn -0.896656 -0.442727 0.000000
vn 0.973822 -0.227314 0.000000
vn 0.973822 -0.227314 0.000000
vn 1.000000 0.000000 0.000000
vn 1.000000 0.000000 0.000000
vn 0.000000 -0.147385 0.989079
vn 0.000000 -0.147385 0.989079
vn 0.000000 0.000000 1.000000
vn 0.000000 0.000000 1.000000
vn -0.973821 -0.227314 0.000000
vn -0.973821 -0.227314 0.000000
vn -1.000000 0.000000 0.000000
vn -1.000000 0.000000 0.000000
vn 0.000000 0.000000 1.000000
vn 0.000000 0.000000 1.000000
vn 0.000000 0.000000 1.000000
vn 0.000000 0.000000 1.000000
vn 1.000000 0.000000 0.000000
vn 1.000000 0.000000 0.000000
vn 1.000000 0.000000 0.000000
vn 1.000000 0.000000 0.000000
vn -1.000000 0.000000 0.000000
vn -1.000000 0.000000 0.000000
vn -1.000000 0.000000 0.000000
vn -1.000000 0.000000 0.000000
vn 0.000000 0.000000 1.000000
vn 0.000000 0.000000 1.000000
vn 0.000000 0.000000 1.000000
vn 0.000000 0.000000 1.000000
vn 1.000000 0.000000 0.000000
vn 1.000000 0.000000 0.000000
vn 1.000000 0.000000 0.000000
vn 1.000000 0.000000 0.000000
vn -1.000000 0.000000 0.000000
vn -1.000000 0.000000 0.000000
vn -1.000000 0.000000 0.000000
vn -1.000000 0.000000 0.000000
s off
g polySurface136
usemtl lambert9SG
f 5/1/1 7/2/2 8/3/3 6/4/4
f 3/5/5 1/6/6 5/1/7 6/4/8
f 1/6/9 2/7/10 7/2/11 5/1/12
f 8/3/13 7/2/14 2/7/15 4/8/16
f 4/8/17 3/5/18 6/4/19 8/3/20
f 9/9/21 10/10/22 12/11/23 11/12/24
f 11/13/25 12/14/26 14/15/27 13/16/28
f 15/17/29 16/18/30 10/19/31 9/20/32
f 10/21/33 16/22/34 14/23/35 12/24/36
f 15/25/37 9/26/38 11/27/39 13/28/40
f 17/29/41 18/30/42 20/31/43 19/32/44
f 23/33/45 24/34/46 18/35/47 17/36/48
f 18/37/49 24/38/50 22/39/51 20/40/52
f 23/41/53 17/42/54 19/43/55 21/44/56
f 25/45/57 26/46/58 28/47/59 27/48/60
f 31/49/61 32/50/62 26/51/63 25/52/64
f 26/53/65 32/54/66 30/55/67 28/56/68
f 31/57/69 25/58/70 27/59/71 29/60/72
f 33/61/73 34/62/74 36/63/75 35/64/76
f 35/65/77 36/66/78 38/67/79 37/68/80
f 41/69/81 42/70/82 43/71/83 44/72/84
f 34/73/85 40/74/86 38/75/87 36/76/88
f 39/77/89 33/78/90 35/79/91 37/80/92
f 40/74/93 34/73/94 43/81/95 42/82/96
f 34/62/97 33/61/98 44/83/99 43/84/100
f 33/78/101 39/77/102 41/85/103 44/86/104
f 45/87/105 46/88/106 48/89/107 47/90/108
f 46/91/109 52/92/110 50/93/111 48/94/112
f 51/95/113 45/96/114 47/97/115 49/98/116
f 53/99/117 54/100/118 56/101/119 55/102/120
f 54/103/121 60/104/122 58/105/123 56/106/124
f 59/107/125 53/108/126 55/109/127 57/110/128
