# This file uses centimeters as units for non-parametric coordinates.

mtllib win_breit.mtl
g default
v 6.772693 1.894869 21.670155
v 6.772693 0.697870 21.670155
v 7.772444 1.894869 21.670155
v 7.772444 0.697870 21.670155
v 7.100471 1.621974 21.670155
v 7.444849 1.621974 21.670155
v 7.100471 1.052921 21.670155
v 7.444849 1.052921 21.670155
v 7.074657 1.009895 21.708952
v 7.470321 1.009895 21.708952
v 7.060608 1.068844 21.743185
v 7.484370 1.068844 21.743185
v 7.060608 1.068844 21.643656
v 7.484370 1.068844 21.643656
v 7.074657 1.009895 21.643656
v 7.470321 1.009895 21.643656
v 7.112090 0.976856 21.695005
v 7.153711 0.976856 21.695005
v 7.112090 1.026555 21.695005
v 7.153711 1.026555 21.695005
v 7.112090 1.026555 21.645306
v 7.153711 1.026555 21.645306
v 7.112090 0.976856 21.645306
v 7.153711 0.976856 21.645306
v 7.390107 0.976856 21.695005
v 7.431728 0.976856 21.695005
v 7.390107 1.026555 21.695005
v 7.431728 1.026555 21.695005
v 7.390107 1.026555 21.645306
v 7.431728 1.026555 21.645306
v 7.390107 0.976856 21.645306
v 7.431728 0.976856 21.645306
v 7.073458 1.646447 21.699341
v 7.471520 1.646447 21.699341
v 7.044351 1.705397 21.717308
v 7.500627 1.705397 21.717308
v 7.044351 1.705397 21.643656
v 7.500627 1.705397 21.643656
v 7.073458 1.646447 21.643656
v 7.471520 1.646447 21.643656
v 7.073458 1.593136 21.643656
v 7.471520 1.593136 21.643656
v 7.471520 1.593136 21.699341
v 7.073458 1.593136 21.699341
v 7.111500 1.703226 21.692646
v 7.222933 1.785640 21.692646
v 7.052240 1.704324 21.716843
v 7.222902 1.838452 21.716843
v 7.052240 1.704324 21.671309
v 7.222902 1.838452 21.671309
v 7.111500 1.703226 21.671309
v 7.222933 1.785640 21.671309
v 7.434515 1.703226 21.692646
v 7.323083 1.785640 21.692646
v 7.493775 1.704324 21.716843
v 7.323113 1.838451 21.716843
v 7.493775 1.704324 21.671309
v 7.323113 1.838451 21.671309
v 7.434515 1.703226 21.671309
v 7.323083 1.785640 21.671309
v 7.422656 1.026421 21.696655
v 7.467042 1.026421 21.696655
v 7.422656 1.595175 21.696655
v 7.467042 1.595175 21.696655
v 7.422656 1.595175 21.643656
v 7.467042 1.595175 21.643656
v 7.422656 1.026421 21.643656
v 7.467042 1.026421 21.643656
v 7.078279 1.026421 21.696655
v 7.122664 1.026421 21.696655
v 7.078279 1.593768 21.696655
v 7.122664 1.593768 21.696655
v 7.078279 1.593768 21.643656
v 7.122664 1.593768 21.643656
v 7.078279 1.026421 21.643656
v 7.122664 1.026421 21.643656
v 7.963600 1.894869 21.670153
v 7.963600 0.697870 21.670153
v 6.574851 1.894869 21.670155
v 6.574851 0.697871 21.670155
vt 0.273774 0.773291
vt 0.273774 0.298748
vt 0.560956 0.298748
vt 0.560956 0.773291
vt 0.834081 1.000808
vt 0.000435 1.000862
vt 0.000435 0.002665
vt 0.834081 0.002720
vt 0.252247 0.262867
vt 0.582198 0.262867
vt 0.593914 0.312026
vt 0.240532 0.312026
vt 0.932808 0.455795
vt 0.932808 0.392760
vt 0.989716 0.392760
vt 0.989716 0.488843
vt 0.283464 0.235316
vt 0.318172 0.235316
vt 0.318172 0.276760
vt 0.283464 0.276760
vt 0.932808 0.392760
vt 0.932808 0.455795
vt 0.989716 0.488843
vt 0.989716 0.392760
vt 0.515307 0.235316
vt 0.550015 0.235316
vt 0.550015 0.276760
vt 0.515307 0.276760
vt 0.899707 0.148238
vt 0.851728 0.148238
vt 0.851728 0.196216
vt 0.899707 0.196216
vt 0.251247 0.793699
vt 0.583198 0.793699
vt 0.607471 0.842858
vt 0.226974 0.842858
vt 0.851728 0.148238
vt 0.899707 0.148238
vt 0.899707 0.196216
vt 0.851728 0.196216
vt 0.583198 0.749242
vt 0.251247 0.749242
vt 0.899707 0.148238
vt 0.851728 0.148238
vt 0.282971 0.841048
vt 0.375897 0.909774
vt 0.375871 0.953815
vt 0.233554 0.841964
vt 0.851728 0.196216
vt 0.899707 0.196216
vt 0.851728 0.148238
vt 0.899707 0.148238
vt 0.552339 0.841048
vt 0.601757 0.841964
vt 0.459440 0.953814
vt 0.459414 0.909774
vt 0.899707 0.196216
vt 0.851728 0.196216
vt 0.903893 0.794639
vt 0.850136 0.794639
vt 0.542450 0.276649
vt 0.579464 0.276649
vt 0.579464 0.750942
vt 0.542450 0.750942
vt 0.850136 0.851547
vt 0.921237 0.851547
vt 0.850136 0.794639
vt 0.903893 0.794639
vt 0.255268 0.276649
vt 0.292281 0.276649
vt 0.292281 0.749769
vt 0.255268 0.749769
vt 0.921237 0.851547
vt 0.850136 0.851547
vt 0.903893 0.743174
vt 0.850136 0.743174
vt 0.906108 0.382960
vt 0.906108 0.006912
vt 0.994430 0.006912
vt 0.994430 0.382960
vt 0.850136 0.743174
vt 0.903893 0.743174
vt 0.861165 0.869910
vt 0.861165 0.999392
vt 0.905123 0.999392
vt 0.905123 0.869910
vt 0.905123 0.868849
vt 0.905123 0.948409
vt 0.884524 0.948409
vt 0.884524 0.868849
vt 0.861165 0.869909
vt 0.905123 0.869909
vt 0.929843 0.999789
vt 0.929843 0.583182
vt 0.997091 0.583182
vt 0.997091 0.999789
vt 0.997091 0.973213
vt 0.997091 0.609758
vt 0.946247 0.609758
vt 0.946247 0.973213
vt 0.994430 0.370493
vt 0.994430 0.019378
vt 0.936486 0.019378
vt 0.936486 0.370493
vt 0.992966 0.337274
vt 0.992966 0.300339
vt 0.948863 0.300339
vt 0.948863 0.337274
vt 0.992966 0.090560
vt 0.992966 0.053626
vt 0.948863 0.053626
vt 0.948863 0.090560
vt 0.905123 0.999391
vt 0.861165 0.999391
vt 0.905123 0.868849
vt 0.884524 0.868849
vt 0.884524 0.948409
vt 0.905123 0.948409
vt 0.901300 0.196086
vt 0.850136 0.196086
vt 0.850136 0.745143
vt 0.901300 0.745143
vt 0.850136 0.196086
vt 0.901300 0.196086
vt 0.901300 0.745143
vt 0.850136 0.745143
vt 0.901300 0.196086
vt 0.850136 0.196086
vt 0.850136 0.743785
vt 0.901300 0.743785
vt 0.850136 0.196086
vt 0.901300 0.196086
vt 0.901300 0.743785
vt 0.850136 0.743785
vt 0.712641 0.998859
vt 0.712641 -0.001036
vt 0.830041 -0.001011
vt 0.830040 0.998833
vt 0.014066 0.000239
vt 0.014066 0.999761
vt 0.124700 0.999760
vt 0.124700 0.000239
vn -0.000001 0.000000 1.000000
vn -0.000001 0.000000 1.000000
vn 0.000002 0.000000 1.000000
vn 0.000002 0.000000 1.000000
vn 0.000004 0.000000 1.000000
vn 0.000001 0.000000 1.000000
vn 0.000001 0.000000 1.000000
vn 0.000004 0.000000 1.000000
vn 0.000000 -0.502185 0.864760
vn 0.000000 -0.502185 0.864760
vn 0.000000 -0.502185 0.864760
vn 0.000000 -0.502185 0.864760
vn 0.000000 1.000000 0.000000
vn 0.000000 1.000000 0.000000
vn 0.000000 1.000000 0.000000
vn 0.000000 1.000000 0.000000
vn 0.000000 -1.000000 0.000000
vn 0.000000 -1.000000 0.000000
vn 0.000000 -1.000000 0.000000
vn 0.000000 -1.000000 0.000000
vn 0.972756 -0.231830 0.000000
vn 0.972756 -0.231830 0.000000
vn 0.972756 -0.231830 0.000000
vn 0.972756 -0.231830 0.000000
vn -0.972758 -0.231822 0.000000
vn -0.972758 -0.231822 0.000000
vn -0.972758 -0.231822 0.000000
vn -0.972758 -0.231822 0.000000
vn 0.000000 0.000000 1.000000
vn 0.000000 0.000000 1.000000
vn 0.000000 0.000000 1.000000
vn 0.000000 0.000000 1.000000
vn 0.000000 -1.000000 0.000000
vn 0.000000 -1.000000 0.000000
vn 0.000000 -1.000000 0.000000
vn 0.000000 -1.000000 0.000000
vn 1.000000 0.000000 0.000000
vn 1.000000 0.000000 0.000000
vn 1.000000 0.000000 0.000000
vn 1.000000 0.000000 0.000000
vn -1.000000 0.000000 0.000000
vn -1.000000 0.000000 0.000000
vn -1.000000 0.000000 0.000000
vn -1.000000 0.000000 0.000000
vn 0.000000 0.000000 1.000000
vn 0.000000 0.000000 1.000000
vn 0.000000 0.000000 1.000000
vn 0.000000 0.000000 1.000000
vn 0.000000 -1.000000 0.000000
vn 0.000000 -1.000000 0.000000
vn 0.000000 -1.000000 0.000000
vn 0.000000 -1.000000 0.000000
vn 1.000000 0.000000 0.000000
vn 1.000000 0.000000 0.000000
vn 1.000000 0.000000 0.000000
vn 1.000000 0.000000 0.000000
vn -1.000000 0.000000 0.000000
vn -1.000000 0.000000 0.000000
vn -1.000000 0.000000 0.000000
vn -1.000000 0.000000 0.000000
vn 0.000000 -0.147384 0.989079
vn 0.000000 -0.147384 0.989079
vn 0.000000 -0.291550 0.956556
vn 0.000000 -0.291550 0.956556
vn 0.000000 1.000000 0.000000
vn 0.000000 1.000000 0.000000
vn 0.000000 1.000000 0.000000
vn 0.000000 1.000000 0.000000
vn 0.000000 -1.000000 0.000000
vn 0.000000 -1.000000 0.000000
vn 0.000000 -1.000000 0.000000
vn 0.000000 -1.000000 0.000000
vn 0.973822 -0.227314 0.000000
vn 0.973822 -0.227314 0.000000
vn 0.896657 -0.442726 0.000000
vn 0.896657 -0.442726 0.000000
vn -0.973821 -0.227314 0.000000
vn -0.973821 -0.227314 0.000000
vn -0.896656 -0.442727 0.000000
vn -0.896656 -0.442727 0.000000
vn 1.000000 0.000000 0.000000
vn 1.000000 0.000000 0.000000
vn 0.000000 0.000000 1.000000
vn 0.000000 0.000000 1.000000
vn -1.000000 0.000000 0.000000
vn -1.000000 0.000000 0.000000
vn 0.318472 -0.414861 0.852329
vn 0.318472 -0.414861 0.852329
vn 0.318472 -0.414861 0.852329
vn 0.318472 -0.414861 0.852329
vn -0.617923 0.786238 0.000000
vn -0.617923 0.786238 0.000000
vn -0.617923 0.786238 0.000000
vn -0.617923 0.786238 0.000000
vn 0.594612 -0.804013 0.000000
vn 0.594612 -0.804013 0.000000
vn 0.594612 -0.804013 0.000000
vn 0.594612 -0.804013 0.000000
vn 1.000000 0.000608 0.000000
vn 1.000000 0.000608 0.000000
vn 1.000000 0.000608 0.000000
vn 1.000000 0.000608 0.000000
vn -0.318469 -0.414865 0.852329
vn -0.318469 -0.414865 0.852329
vn -0.318469 -0.414865 0.852329
vn -0.318469 -0.414865 0.852329
vn 0.617922 0.786240 0.000000
vn 0.617922 0.786240 0.000000
vn 0.617922 0.786240 0.000000
vn 0.617922 0.786240 0.000000
vn -0.594620 -0.804007 0.000000
vn -0.594620 -0.804007 0.000000
vn -0.594620 -0.804007 0.000000
vn -0.594620 -0.804007 0.000000
vn -1.000000 0.000574 0.000000
vn -1.000000 0.000574 0.000000
vn -1.000000 0.000574 0.000000
vn -1.000000 0.000574 0.000000
vn 0.000000 0.000000 1.000000
vn 0.000000 0.000000 1.000000
vn 0.000000 0.000000 1.000000
vn 0.000000 0.000000 1.000000
vn 1.000000 0.000000 0.000000
vn 1.000000 0.000000 0.000000
vn 1.000000 0.000000 0.000000
vn 1.000000 0.000000 0.000000
vn -1.000000 0.000000 0.000000
vn -1.000000 0.000000 0.000000
vn -1.000000 0.000000 0.000000
vn -1.000000 0.000000 0.000000
vn 0.000000 0.000000 1.000000
vn 0.000000 0.000000 1.000000
vn 0.000000 0.000000 1.000000
vn 0.000000 0.000000 1.000000
vn 1.000000 0.000000 0.000000
vn 1.000000 0.000000 0.000000
vn 1.000000 0.000000 0.000000
vn 1.000000 0.000000 0.000000
vn -1.000000 0.000000 0.000000
vn -1.000000 0.000000 0.000000
vn -1.000000 0.000000 0.000000
vn -1.000000 0.000000 0.000000
vn 0.000005 0.000000 1.000000
vn 0.000005 0.000000 1.000000
vn 0.000005 0.000000 1.000000
vn 0.000005 0.000000 1.000000
s 1
g polySurface166
usemtl lambert7SG
f 5/1/1 7/2/2 8/3/3 6/4/4
f 3/5/5 1/6/6 5/1/1 6/4/4
f 1/6/6 2/7/7 7/2/2 5/1/1
f 8/3/3 7/2/2 2/7/7 4/8/8
f 4/8/8 3/5/5 6/4/4 8/3/3
s off
f 9/9/9 10/10/10 12/11/11 11/12/12
f 11/77/13 12/78/14 14/79/15 13/80/16
f 15/101/17 16/102/18 10/103/19 9/104/20
f 10/13/21 16/14/22 14/15/23 12/16/24
f 15/21/25 9/22/26 11/23/27 13/24/28
f 17/17/29 18/18/30 20/19/31 19/20/32
f 23/105/33 24/106/34 18/107/35 17/108/36
f 18/29/37 24/30/38 22/31/39 20/32/40
f 23/37/41 17/38/42 19/39/43 21/40/44
f 25/25/45 26/26/46 28/27/47 27/28/48
f 31/109/49 32/110/50 26/111/51 25/112/52
f 26/43/53 32/44/54 30/49/55 28/50/56
f 31/51/57 25/52/58 27/57/59 29/58/60
s 15
f 33/33/61 34/34/62 36/35/63 35/36/64
s off
f 35/93/65 36/94/66 38/95/67 37/96/68
f 41/97/69 42/98/70 43/99/71 44/100/72
s 18
f 34/59/73 40/60/74 38/65/75 36/66/76
s 19
f 39/67/77 33/68/78 35/73/79 37/74/80
s 18
f 40/60/74 34/59/73 43/75/81 42/76/82
s 15
f 34/34/62 33/33/61 44/42/83 43/41/84
s 19
f 33/68/78 39/67/77 41/81/85 44/82/86
s off
f 45/45/87 46/46/88 48/47/89 47/48/90
f 47/83/91 48/84/92 50/85/93 49/86/94
f 51/87/95 52/88/96 46/89/97 45/90/98
f 46/89/99 52/88/100 50/85/101 48/84/102
f 53/53/103 55/54/104 56/55/105 54/56/106
f 55/91/107 57/92/108 58/113/109 56/114/110
f 59/115/111 53/116/112 54/117/113 60/118/114
f 54/117/115 56/114/116 58/113/117 60/118/118
f 61/61/119 62/62/120 64/63/121 63/64/122
f 62/119/123 68/120/124 66/121/125 64/122/126
f 67/123/127 61/124/128 63/125/129 65/126/130
f 69/69/131 70/70/132 72/71/133 71/72/134
f 70/127/135 76/128/136 74/129/137 72/130/138
f 75/131/139 69/132/140 71/133/141 73/134/142
s 1
f 3/135/5 4/136/8 78/137/143 77/138/144
f 2/139/7 1/140/6 79/141/145 80/142/146
