# This file uses centimeters as units for non-parametric coordinates.

mtllib brackBruch.mtl
v 48.207764 -1.611092 47.811897
v 48.199940 2.035125 47.811897
v 48.199940 1.356750 47.811897
v 48.199936 0.089921 47.811897
v 48.199936 0.000000 47.811897
v 47.551277 -0.499768 47.708595
v 47.887844 1.517329 47.708599
v 47.638622 0.822699 47.708595
v 47.863014 1.866038 47.708599
v 48.206673 -1.607054 47.707310
v 48.203728 2.033088 47.708599
v 47.973595 1.517329 47.811897
v 47.724373 0.822699 47.811897
v 47.551277 -0.499768 47.811897
v 47.863014 1.927295 47.811897
v 48.203655 0.350843 47.708595
v 47.158409 -1.611092 47.811897
v 47.158409 -0.722062 47.811897
v 47.551277 -0.499768 47.811897
v 47.973595 1.517329 47.811897
v 47.863014 1.927295 47.811897
v 47.724373 0.822699 47.811897
v 47.159496 1.912194 47.811897
v 47.159870 2.035125 47.811897
v 47.300583 -0.598838 47.734325
v 47.266197 1.855031 47.708599
v 47.300579 -1.607557 47.734325
v 47.266197 2.033050 47.708595
v 47.941086 -0.754011 47.825535
v 47.658794 -0.754011 47.825535
v 47.941086 -1.322317 47.825535
v 47.658794 -1.322317 47.825535
v 47.964737 -1.336704 47.859688
v 47.643398 -1.380646 47.859684
v 47.968174 -1.276814 47.889816
v 47.624004 -1.323877 47.889816
v 47.968170 -1.276814 47.802208
v 47.624001 -1.323877 47.802208
v 47.964733 -1.336704 47.802208
v 47.643394 -1.380646 47.802208
v 47.703674 -1.398283 47.847408
v 47.669556 -1.398283 47.847408
v 47.703678 -1.348650 47.847408
v 47.669559 -1.348650 47.847408
v 47.703682 -1.348650 47.803665
v 47.669563 -1.348650 47.803665
v 47.703671 -1.398283 47.803665
v 47.669552 -1.398283 47.803665
v 47.962627 -0.770647 47.856186
v 47.636490 -0.768658 47.846184
v 47.986332 -0.712091 47.873360
v 47.612495 -0.709811 47.861889
v 47.988323 -0.711408 47.808559
v 47.614487 -0.709129 47.797092
v 47.964134 -0.770131 47.807198
v 47.638000 -0.768142 47.797195
v 47.963837 -0.823369 47.806625
v 47.637691 -0.821379 47.796623
v 47.636185 -0.821895 47.845612
v 47.962334 -0.823885 47.855614
v 47.959278 -1.348783 47.848862
v 47.922890 -1.348784 47.848862
v 47.959278 -0.782179 47.848862
v 47.922890 -0.782179 47.848862
v 47.959286 -0.782179 47.802208
v 47.922894 -0.782179 47.802212
v 47.959286 -1.348783 47.802208
v 47.922894 -1.348784 47.802212
vt 0.016156 -0.015831
vt 0.125937 0.170011
vt 0.191626 0.132833
vt 0.191635 -0.015831
vt 0.014151 0.483781
vt 0.014151 0.597223
vt 0.070494 0.579191
vt 0.052002 0.510634
vt 0.014151 0.271935
vt 0.014151 0.483781
vt 0.052002 0.510634
vt 0.093678 0.394474
vt 0.014151 0.256898
vt 0.014151 0.271935
vt 0.093678 0.394474
vt 0.122624 0.173324
vt 0.016156 -0.015831
vt 0.017465 0.253585
vt 0.125937 0.170011
vt 0.021782 0.547417
vt 0.021782 0.824434
vt 0.054524 0.824534
vt 0.050502 0.637155
vt 0.244120 0.107991
vt 0.244120 0.107991
vt 0.269947 0.098010
vt 0.284571 0.085397
vt 0.200207 0.317729
vt 0.209123 0.317729
vt 0.235037 0.245501
vt 0.226121 0.245501
vt 0.226121 0.245501
vt 0.235037 0.245501
vt 0.244120 0.107991
vt 0.244120 0.107991
vt 0.209645 0.360358
vt 0.209645 0.353988
vt 0.207063 0.317729
vt 0.198147 0.317729
vt 0.284857 0.358787
vt 0.273762 0.352844
vt 0.211705 0.353988
vt 0.211705 0.360358
vt 0.803861 0.595490
vt 0.767718 0.480665
vt 0.817687 0.480613
vt 0.817688 0.585213
vt 0.819583 0.839681
vt 0.819583 0.858141
vt 0.767880 0.858145
vt 0.786670 0.840822
vt 0.200207 0.317729
vt 0.226121 0.245501
vt 0.226121 0.245501
vt 0.200207 0.317729
vt 0.244120 0.107991
vt 0.244120 0.107991
vt 0.211705 0.360358
vt 0.211705 0.360358
vt 0.785300 0.804661
vt 0.767884 0.683697
vt 0.799044 0.732629
vt 0.158148 0.362483
vt 0.275787 0.362483
vt 0.275787 0.168095
vt 0.158148 0.168095
vt 0.139201 0.395026
vt 0.127363 0.428284
vt 0.366441 0.428284
vt 0.362428 0.395026
vt 0.127363 0.428507
vt 0.131276 0.484660
vt 0.370354 0.484660
vt 0.366441 0.428507
vt 0.135356 0.438338
vt 0.139269 0.475178
vt 0.362496 0.475178
vt 0.358583 0.438338
vt 0.399897 0.448996
vt 0.366639 0.429683
vt 0.370552 0.485836
vt 0.403810 0.485836
vt 0.097656 0.484698
vt 0.130914 0.484698
vt 0.127001 0.428545
vt 0.097656 0.447859
vt 0.265037 1.613207
vt 0.265037 1.914597
vt 0.517437 1.914597
vt 0.517437 1.613207
vt 0.264266 1.612297
vt 0.264266 1.913689
vt 0.516666 1.913689
vt 0.516666 1.612297
vt 0.235117 1.911514
vt 0.536506 1.911514
vt 0.536506 1.610122
vt 0.235117 1.610122
vt 0.234239 1.911514
vt 0.535629 1.911514
vt 0.535629 1.610122
vt 0.234239 1.610122
vt 0.134176 0.896379
vt 0.122425 0.920181
vt 0.306649 0.920181
vt 0.294897 0.896379
vt 0.122425 0.920023
vt 0.122424 0.949761
vt 0.306649 0.949761
vt 0.306649 0.920023
vt 0.133917 0.852771
vt 0.133917 0.875254
vt 0.294638 0.875254
vt 0.294637 0.852771
vt 0.333169 0.878426
vt 0.309367 0.871172
vt 0.309367 0.900910
vt 0.333169 0.900910
vt 0.333169 0.900471
vt 0.309367 0.900471
vt 0.309367 0.870733
vt 0.333169 0.877987
vt 0.354694 0.900910
vt 0.354694 0.878426
vt 0.294897 0.874855
vt 0.134176 0.874855
vt 0.354694 0.877987
vt 0.354694 0.900471
vt -0.692093 1.024441
vt -0.692200 2.019320
vt -0.614501 2.019700
vt -0.614363 1.024441
vt -0.595414 1.024986
vt -0.595369 2.019844
vt -0.502541 2.019772
vt -0.502547 1.024986
vt -0.595968 1.024986
vt -0.595494 2.019844
vt -0.502544 2.019772
vt -0.502611 1.024986
vn -0.000003 0.000000 1.000000
vn -0.000004 0.000000 1.000000
vn -0.000005 0.000000 1.000000
vn -0.000005 0.000000 1.000000
vn -0.000010 0.000000 1.000000
vn 0.000000 0.000000 1.000000
vn 0.000000 0.000000 1.000000
vn -0.000010 0.000000 1.000000
vn -0.000014 0.000000 1.000000
vn -0.000010 0.000000 1.000000
vn -0.000010 0.000000 1.000000
vn -0.000014 0.000000 1.000000
vn -0.000004 0.000000 1.000000
vn -0.000014 0.000000 1.000000
vn -0.000014 0.000000 1.000000
vn -0.000004 0.000000 1.000000
vn -0.000003 0.000000 1.000000
vn -0.000004 0.000000 1.000000
vn -0.000004 0.000000 1.000000
vn 0.000000 0.000000 1.000000
vn 0.000000 0.000000 1.000000
vn 0.000000 0.000000 1.000000
vn 0.000000 0.000000 1.000000
vn -0.423236 0.868255 0.258853
vn -0.423236 0.868255 0.258853
vn -0.423236 0.868255 0.258853
vn -0.423236 0.868255 0.258853
vn -0.843985 0.054958 0.533544
vn -0.843985 0.054958 0.533544
vn -0.843205 0.181010 0.506202
vn -0.843205 0.181010 0.506202
vn -0.843205 0.181010 0.506202
vn -0.843205 0.181010 0.506202
vn -0.919810 0.090570 0.381769
vn -0.919810 0.090570 0.381769
vn -0.894118 -0.159584 0.418434
vn -0.894118 -0.159584 0.418434
vn -0.843985 0.054958 0.533544
vn -0.843985 0.054958 0.533544
vn 0.017339 -0.863562 0.503944
vn 0.017339 -0.863562 0.503944
vn 0.017339 -0.863562 0.503944
vn 0.017339 -0.863562 0.503944
vn -0.022475 -0.006374 -0.999727
vn -0.022475 -0.006374 -0.999727
vn -0.044423 -0.013150 -0.998926
vn -0.044423 -0.013150 -0.998926
vn 0.000007 -0.000014 -1.000000
vn 0.000007 -0.000014 -1.000000
vn 0.000001 -0.000003 -1.000000
vn 0.000000 -0.000007 -1.000000
vn -1.000000 0.000000 0.000000
vn -1.000000 0.000000 0.000000
vn -1.000000 0.000000 0.000000
vn -1.000000 0.000000 0.000000
vn 0.999998 0.000000 -0.001961
vn 0.999998 0.000000 -0.001961
vn 0.999998 0.000000 -0.001961
vn 0.999998 0.000000 -0.001961
vn 0.000000 0.000000 0.000000
vn 0.000000 0.000000 0.000000
vn 0.000000 0.000000 0.000000
vn 0.000000 0.000000 0.000000
vn -0.000002 0.000002 -1.000000
vn 0.000001 -0.000003 -1.000000
vn -0.000256 0.000204 -1.000000
vn -0.000256 0.000204 -1.000000
vn -0.000256 0.000204 -1.000000
vn -0.000256 0.000204 -1.000000
vn -0.022475 -0.006374 -0.999727
vn -0.022475 -0.006374 -0.999727
vn 0.000000 -0.000007 -1.000000
vn 0.000001 -0.000003 -1.000000
vn -0.000002 0.000002 -1.000000
vn 0.000000 0.000000 1.000000
vn 0.000000 0.000000 1.000000
vn 0.000000 0.000000 1.000000
vn 0.000000 0.000000 1.000000
vn 0.061710 -0.451392 0.890189
vn 0.061710 -0.451392 0.890189
vn 0.061710 -0.451392 0.890189
vn 0.061710 -0.451392 0.890189
vn -0.135476 0.990781 0.000008
vn -0.135476 0.990781 0.000008
vn -0.135476 0.990781 0.000008
vn -0.135476 0.990781 0.000008
vn 0.135489 -0.990779 -0.000014
vn 0.135489 -0.990779 -0.000014
vn 0.135489 -0.990779 -0.000014
vn 0.135489 -0.990779 -0.000014
vn -0.946293 -0.323311 0.000049
vn -0.946293 -0.323311 0.000049
vn -0.946293 -0.323311 0.000049
vn -0.946293 -0.323311 0.000049
vn 0.998363 -0.057196 -0.000053
vn 0.998363 -0.057196 -0.000053
vn 0.998363 -0.057196 -0.000053
vn 0.998363 -0.057196 -0.000053
vn 0.000000 0.000000 1.000000
vn 0.000000 0.000000 1.000000
vn 0.000000 0.000000 1.000000
vn 0.000000 0.000000 1.000000
vn 0.000000 -1.000000 0.000000
vn 0.000000 -1.000000 0.000000
vn 0.000000 -1.000000 0.000000
vn 0.000000 -1.000000 0.000000
vn -1.000000 0.000110 0.000000
vn -1.000000 0.000110 0.000000
vn -1.000000 0.000110 0.000000
vn -1.000000 0.000110 0.000000
vn 1.000000 -0.000110 0.000000
vn 1.000000 -0.000110 0.000000
vn 1.000000 -0.000110 0.000000
vn 1.000000 -0.000110 0.000000
vn -0.031213 -0.141308 0.989474
vn -0.031163 -0.269617 0.962463
vn -0.031163 -0.269617 0.962463
vn -0.031213 -0.141308 0.989474
vn 0.005769 0.999926 0.010709
vn 0.005769 0.999926 0.010709
vn 0.005769 0.999926 0.010709
vn 0.005769 0.999926 0.010709
vn -0.005771 -0.999926 -0.010711
vn -0.005771 -0.999926 -0.010711
vn -0.005771 -0.999926 -0.010711
vn -0.005771 -0.999926 -0.010711
vn -0.982143 -0.185364 -0.032190
vn -0.928471 -0.369984 -0.032469
vn -0.928471 -0.369984 -0.032469
vn -0.982143 -0.185364 -0.032190
vn 0.979959 -0.197218 0.028035
vn 0.924136 -0.381285 0.024392
vn 0.924136 -0.381285 0.024392
vn 0.979959 -0.197218 0.028035
vn -0.982143 -0.185364 -0.032190
vn -0.999509 0.006107 -0.030721
vn -0.999509 0.006107 -0.030721
vn -0.982143 -0.185364 -0.032190
vn -0.031213 -0.141308 0.989474
vn -0.030727 -0.010569 0.999472
vn -0.030727 -0.010569 0.999472
vn -0.031213 -0.141308 0.989474
vn 0.979959 -0.197218 0.028035
vn 0.999513 -0.005852 0.030640
vn 0.999513 -0.005852 0.030640
vn 0.979959 -0.197218 0.028035
vn -0.000093 0.000000 1.000000
vn -0.000093 0.000000 1.000000
vn -0.000093 0.000000 1.000000
vn -0.000093 0.000000 1.000000
vn -1.000000 0.000000 -0.000082
vn -1.000000 0.000000 -0.000082
vn -1.000000 0.000000 -0.000082
vn -1.000000 0.000000 -0.000082
vn 1.000000 0.000000 0.000164
vn 1.000000 0.000000 0.000164
vn 1.000000 0.000000 0.000164
vn 1.000000 0.000000 0.000164
s off
g polySurface188
usemtl lambert30SG
f 1/1/1 19/2/2 18/3/3 17/4/4
f 3/5/5 2/6/6 21/7/7 20/8/8
f 4/9/9 3/10/10 20/11/11 22/12/12
f 5/13/13 4/14/14 22/15/15 19/16/16
f 1/17/17 5/18/18 19/19/19
f 2/20/20 24/21/21 23/22/22 21/23/23
f 19/24/24 6/25/25 25/26/26 18/27/27
f 20/28/28 7/29/29 8/30/30 22/31/31
f 22/32/32 8/33/33 6/34/34 19/35/35
f 21/36/36 9/37/37 7/38/38 20/39/39
f 23/40/40 26/41/41 9/42/42 21/43/43
f 6/44/44 10/45/45 27/46/46 25/47/47
f 26/48/48 28/49/49 11/50/50 9/51/51
f 20/52/52 22/53/53 13/54/54 12/55/55
f 22/53/56 13/54/57 14/56/58 19/57/59
f 21/58/60 15/59/61 12/55/62 20/52/63
f 7/60/64 11/50/65 16/61/66 8/62/67
f 8/62/68 16/61/69 10/45/70 6/44/71
f 9/51/72 11/50/73 7/60/74
f 29/63/75 30/64/76 32/65/77 31/66/78
f 33/67/79 35/68/80 36/69/81 34/70/82
f 35/71/83 37/72/84 38/73/85 36/74/86
f 39/75/87 33/76/88 34/77/89 40/78/90
f 34/79/91 36/80/92 38/81/93 40/82/94
f 39/83/95 37/84/96 35/85/97 33/86/98
f 41/87/99 43/88/100 44/89/101 42/90/102
f 47/91/103 41/92/104 42/93/105 48/94/106
f 42/95/107 44/96/108 46/97/109 48/98/110
f 47/99/111 45/100/112 43/101/113 41/102/114
f 49/103/115 51/104/116 52/105/117 50/106/118
f 51/107/119 53/108/120 54/109/121 52/110/122
f 57/111/123 60/112/124 59/113/125 58/114/126
f 50/115/127 52/116/128 54/117/129 56/118/130
f 55/119/131 53/120/132 51/121/133 49/122/134
f 56/118/135 58/123/136 59/124/137 50/115/138
f 50/106/139 59/125/140 60/126/141 49/103/142
f 49/122/143 60/127/144 57/128/145 55/119/146
f 61/129/147 63/130/148 64/131/149 62/132/150
f 62/133/151 64/134/152 66/135/153 68/136/154
f 67/137/155 65/138/156 63/139/157 61/140/158
