# This file uses centimeters as units for non-parametric coordinates.

mtllib dachgeschoss.mtl
v 0.500000 0.500000 -0.124009
v -32.141548 0.500000 -0.124009
v 0.500000 0.500000 1.692822
v -32.141548 0.500000 1.550635
v 0.500000 -0.500000 1.692822
v -32.141548 -0.500000 1.550635
v 0.500000 -0.500000 -0.124009
v -32.141548 -0.500000 -0.124009
v -0.107984 -0.007082 2.542763
v -0.527136 -0.500000 2.542763
v -0.527136 -0.500000 -0.124009
v -0.107984 -0.007082 -0.124009
v -31.706957 -0.007082 2.137947
v -31.368507 -0.500000 1.550635
v -31.358242 -0.500000 -0.124009
v -31.696692 -0.007082 -0.124009
v 0.500000 16.270916 -0.124009
v -0.544441 16.270916 -0.124009
v -0.527136 16.270916 2.314864
v 0.500000 16.270916 2.314864
v -31.368507 16.270916 -0.124009
v -31.368507 16.270916 0.070509
v -32.141548 16.270916 -0.124009
v -32.141548 16.270916 0.070509
v -0.107984 15.735298 2.765348
v -0.125288 15.737144 -0.124009
v 0.500000 15.276142 -0.124009
v 0.500000 15.276142 2.314864
v -31.706957 15.789140 -0.124009
v -31.706957 15.789140 0.500000
v -32.141548 15.329984 0.500000
v -32.141548 15.329984 -0.124009
v -26.112404 15.779963 -0.124009
v -26.112404 15.779963 1.189484
v -26.112404 16.270916 0.759993
v -26.112404 16.270916 -0.124009
v -15.932448 15.755024 -0.124009
v -18.483992 15.771382 2.154099
v -18.483992 16.270916 1.724608
v -15.932448 16.270916 -0.124009
v -15.333745 16.270916 3.494309
v -15.333745 15.761147 3.923800
v -11.339769 15.754173 2.645786
v -11.339769 16.270916 2.216294
v -10.771864 15.744637 0.500000
v -10.174107 16.270916 0.500000
v -4.341161 15.738991 1.389837
v -4.341161 16.270916 1.389837
v 0.500000 7.724908 -0.124009
v 0.500000 4.673810 0.296650
v -0.107984 4.673810 1.022294
v -0.107984 7.724908 -0.124009
v 0.500000 4.003253 -0.124009
v 0.500000 3.388562 1.979452
v -0.107984 4.003253 2.829393
v -0.107984 4.003253 -0.124009
v -11.582797 -0.007082 -0.124009
v -6.580012 -0.007082 1.300607
v -6.580012 -0.500000 1.300607
v -11.582797 -0.500000 -0.124009
v -11.303719 -0.007082 1.856077
v -11.303719 -0.500000 1.659421
v -25.274555 -0.007082 1.646916
v -25.274555 -0.500000 1.646916
v -14.292818 -0.007082 1.156637
v -14.292818 -0.500000 1.156637
v 0.500000 10.924614 -0.124009
v 0.500000 9.166366 0.535667
v -0.107984 9.166366 0.535667
v -0.107984 10.924614 -0.124009
vt 0.125410 0.001992
vt 0.125410 0.033862
vt 0.050991 0.033334
vt 0.050991 0.001992
vt 0.079217 0.149714
vt 0.125410 0.503408
vt 0.106369 0.327699
vt 0.053999 0.363268
vt 0.015002 0.485139
vt 0.069002 0.581265
vt 0.001896 0.485139
vt 0.040893 0.363268
vt 0.125410 0.814036
vt 0.098436 0.814036
vt 0.055897 0.581265
vt 0.125410 0.974419
vt 0.119475 0.974419
vt 0.085331 0.814036
vt 0.125410 0.998008
vt 0.119475 0.998008
vt 0.106369 0.984747
vt 0.106369 0.998008
vt 0.187396 0.001992
vt 0.213330 0.033334
vt 0.131957 0.033334
vt 0.131957 0.001992
vt 0.175428 0.218030
vt 0.131957 0.370683
vt 0.186376 0.362168
vt 0.171035 0.453376
vt 0.185995 0.788470
vt 0.131957 0.974106
vt 0.183057 0.974420
vt 0.183057 0.998008
vt 0.131957 0.998008
vt 0.573533 0.032506
vt 0.573533 0.001992
vt 0.624633 0.001992
vt 0.624633 0.032506
vt 0.592574 0.485024
vt 0.573533 0.485024
vt 0.642554 0.017033
vt 0.592574 0.499035
vt 0.579469 0.513736
vt 0.573533 0.513736
vt 0.567174 0.001992
vt 0.567174 0.032506
vt 0.511736 0.032506
vt 0.511736 0.001992
vt 0.567174 0.139403
vt 0.502990 0.120647
vt 0.485801 0.017033
vt 0.485801 0.001992
vt 0.567174 0.252965
vt 0.554338 0.159864
vt 0.477055 0.139403
vt 0.567174 0.350600
vt 0.547045 0.296949
vt 0.532196 0.159864
vt 0.567174 0.483381
vt 0.492755 0.483381
vt 0.547045 0.296949
vt 0.567174 0.513736
vt 0.492755 0.513736
vt 0.236055 0.001992
vt 0.236055 0.199478
vt 0.221015 0.199478
vt 0.221015 0.014782
vt 0.236055 0.343616
vt 0.221015 0.343616
vt 0.236055 0.434824
vt 0.221015 0.434824
vt 0.236055 0.769918
vt 0.221015 0.769918
vt 0.236055 0.966195
vt 0.221015 0.955868
vt 0.251528 0.979456
vt 0.221015 0.979456
vt 0.258122 0.001992
vt 0.339495 0.001992
vt 0.339495 0.352132
vt 0.296025 0.199478
vt 0.279075 0.343616
vt 0.300418 0.434824
vt 0.339495 0.965882
vt 0.285457 0.769918
vt 0.270474 0.966195
vt 0.725673 0.001992
vt 0.807046 0.001992
vt 0.815793 0.124362
vt 0.725673 0.124362
vt 0.760651 0.144824
vt 0.725673 0.237924
vt 0.745802 0.281908
vt 0.725673 0.335559
vt 0.813838 0.482351
vt 0.725673 0.482407
vt 0.649603 0.001992
vt 0.718624 0.001992
vt 0.718624 0.483994
vt 0.699583 0.483994
vt 0.933739 0.504759
vt 0.919729 0.486207
vt 0.950083 0.486207
vt 0.950083 0.517549
vt 0.733296 0.504759
vt 0.733296 0.486207
vt 0.950083 0.633929
vt 0.933852 0.633929
vt 0.950083 0.811914
vt 0.934024 0.830154
vt 0.366220 0.966195
vt 0.347179 0.966195
vt 0.347179 0.795484
vt 0.387259 0.795484
vt 0.347179 0.484856
vt 0.416693 0.562713
vt 0.470693 0.466587
vt 0.431696 0.344716
vt 0.366220 0.327387
vt 0.347179 0.002520
vt 0.393372 0.131162
vt 0.435344 0.001992
vt 0.727456 0.540164
vt 0.711688 0.553270
vt 0.711397 0.487794
vt 0.727456 0.487794
vn 0.000000 1.000000 0.000000
vn 0.000000 1.000000 0.000000
vn 0.000000 1.000000 0.000000
vn 0.000000 1.000000 0.000000
vn 0.776436 -0.127993 0.617061
vn 0.521401 -0.066488 0.850718
vn 0.315538 -0.072268 0.946157
vn 0.735220 -0.206421 0.645633
vn 0.000000 -1.000000 0.000000
vn 0.000000 -1.000000 0.000000
vn 0.000000 -1.000000 0.000000
vn 0.000000 -1.000000 0.000000
vn -1.000000 0.000000 0.000000
vn -1.000000 0.000000 0.000000
vn -1.000000 0.000000 0.000000
vn -1.000000 0.000000 0.000000
vn 1.000000 0.000000 0.000000
vn 1.000000 0.000000 0.000000
vn 1.000000 0.000000 0.000000
vn 1.000000 0.000000 0.000000
vn 0.521401 -0.066488 0.850718
vn -0.050733 -0.057314 0.997066
vn -0.050733 -0.057314 0.997066
vn 0.315538 -0.072268 0.946157
vn 0.000000 -1.000000 0.000000
vn 0.000000 -1.000000 0.000000
vn 0.000000 -1.000000 0.000000
vn 0.000000 -1.000000 0.000000
vn -0.000000 1.000000 -0.000000
vn -0.000000 1.000000 -0.000000
vn -0.000000 1.000000 -0.000000
vn 0.000000 1.000000 0.000000
vn -0.381224 -0.303143 0.873369
vn -0.561405 -0.174874 0.808853
vn -0.532529 -0.411667 0.739556
vn -0.264041 -0.478813 0.837270
vn 0.000000 -1.000000 0.000000
vn 0.000000 -1.000000 0.000000
vn 0.000000 -1.000000 0.000000
vn 0.000000 -1.000000 0.000000
vn 0.000000 1.000000 0.000000
vn 0.000000 1.000000 0.000000
vn 0.000000 1.000000 0.000000
vn 0.000000 1.000000 0.000000
vn -1.000000 0.000000 0.000000
vn -1.000000 0.000000 0.000000
vn -1.000000 0.000000 0.000000
vn -1.000000 0.000000 0.000000
vn 0.521401 -0.066488 0.850718
vn 0.776436 -0.127993 0.617061
vn 0.822614 0.291028 0.488476
vn 0.822614 0.291028 0.488476
vn 1.000000 0.000000 0.000000
vn 1.000000 0.000000 0.000000
vn 1.000000 0.000000 0.000000
vn 1.000000 0.000000 0.000000
vn 0.999994 0.000509 0.003557
vn 0.999994 0.000509 0.003557
vn 0.706702 -0.707507 0.002518
vn 0.706702 -0.707507 0.002518
vn -1.000000 0.000000 0.000000
vn -1.000000 0.000000 0.000000
vn -1.000000 0.000000 0.000000
vn -1.000000 0.000000 0.000000
vn -0.561405 -0.174874 0.808853
vn -0.381224 -0.303143 0.873369
vn -0.398110 0.320992 0.859344
vn -0.398110 0.320992 0.859344
vn 1.000000 0.000000 0.000000
vn 1.000000 0.000000 0.000000
vn 1.000000 0.000000 0.000000
vn 1.000000 0.000000 0.000000
vn 0.302470 0.029997 0.952687
vn 0.302470 0.029997 0.952687
vn 0.338866 0.349890 0.873354
vn 0.338866 0.349890 0.873354
vn -0.398110 0.320992 0.859344
vn -0.398110 0.320992 0.859344
vn -0.205775 0.541212 0.815320
vn -0.205775 0.541212 0.815320
vn -1.000000 0.000000 0.000000
vn -1.000000 0.000000 0.000000
vn -1.000000 0.000000 0.000000
vn -1.000000 0.000000 0.000000
vn 0.000000 1.000000 0.000000
vn 0.000000 1.000000 0.000000
vn 0.000000 1.000000 0.000000
vn 0.000000 1.000000 0.000000
vn -0.092231 0.676938 0.730238
vn -0.092231 0.676938 0.730238
vn -0.093495 0.664674 0.741260
vn -0.093495 0.664674 0.741260
vn 0.706702 -0.707507 0.002518
vn 0.706702 -0.707507 0.002518
vn -0.001845 -0.999997 0.001549
vn -0.001845 -0.999997 0.001549
vn -0.001845 -0.999997 0.001549
vn -0.001845 -0.999997 0.001549
vn -0.002222 -0.999996 0.001432
vn -0.003260 -0.999991 0.002636
vn -0.093495 0.664674 0.741260
vn -0.093495 0.664674 0.741260
vn -0.246550 0.631673 0.734985
vn -0.246550 0.631673 0.734985
vn 0.000000 1.000000 0.000000
vn 0.000000 1.000000 0.000000
vn 0.000000 1.000000 0.000000
vn 0.000000 1.000000 0.000000
vn -0.002837 -0.999994 0.001932
vn -0.002222 -0.999996 0.001432
vn -0.001838 -0.999995 0.002741
vn -0.081003 0.642735 0.761794
vn -0.081003 0.642735 0.761794
vn 0.685152 0.180667 0.705639
vn 0.685152 0.180667 0.705639
vn 0.000000 1.000000 0.000000
vn 0.000000 1.000000 0.000000
vn -0.000000 1.000000 -0.000000
vn 0.000000 1.000000 0.000000
vn 0.000000 1.000000 0.000000
vn 0.000000 1.000000 0.000000
vn -0.246550 0.631673 0.734985
vn -0.246550 0.631673 0.734985
vn -0.081003 0.642735 0.761794
vn -0.081003 0.642735 0.761794
vn -0.003260 -0.999991 0.002636
vn -0.002222 -0.999996 0.001432
vn -0.002837 -0.999994 0.001932
vn -0.001838 -0.999995 0.002741
vn -0.002222 -0.999996 0.001432
vn -0.001693 -0.999999 0.000100
vn 0.685152 0.180667 0.705639
vn 0.685152 0.180667 0.705639
vn 0.456654 -0.160983 0.874958
vn 0.456654 -0.160983 0.874958
vn 0.000000 1.000000 0.000000
vn -0.000000 1.000000 -0.000000
vn -0.000000 1.000000 -0.000000
vn -0.001693 -0.999999 0.000100
vn -0.002222 -0.999996 0.001432
vn -0.447373 -0.894348 -0.000210
vn -0.000790 -0.999997 -0.002113
vn 0.456654 -0.160983 0.874958
vn 0.456654 -0.160983 0.874958
vn -0.204764 0.184559 0.961254
vn -0.204764 0.184559 0.961254
vn 0.000000 1.000000 0.000000
vn -0.000000 1.000000 -0.000000
vn 0.000000 1.000000 0.000000
vn 0.000000 1.000000 0.000000
vn -0.000790 -0.999997 -0.002113
vn -0.447373 -0.894348 -0.000210
vn -0.706540 -0.707670 0.002204
vn -0.204764 0.184559 0.961254
vn -0.204764 0.184559 0.961254
vn -0.263310 0.285475 0.921505
vn -0.263310 0.285475 0.921505
vn 0.000000 1.000000 0.000000
vn 0.000000 1.000000 0.000000
vn 0.000000 1.000000 0.000000
vn 1.000000 0.000000 0.000000
vn 1.000000 0.000000 0.000000
vn 1.000000 0.000000 0.000000
vn 1.000000 0.000000 0.000000
vn 0.679844 0.337638 0.651009
vn 0.679844 0.337638 0.651009
vn 0.381401 -0.137965 0.914056
vn 0.381401 -0.137965 0.914056
vn -1.000000 0.000000 0.000000
vn -1.000000 0.000000 0.000000
vn -0.999998 -0.001128 0.001878
vn -0.999998 -0.001128 0.001878
vn 1.000000 0.000000 0.000000
vn 1.000000 0.000000 0.000000
vn 1.000000 0.000000 0.000000
vn 1.000000 0.000000 0.000000
vn 0.822614 0.291028 0.488476
vn 0.822614 0.291028 0.488476
vn 0.679844 0.337638 0.651009
vn 0.679844 0.337638 0.651009
vn -1.000000 0.000000 0.000000
vn -1.000000 0.000000 0.000000
vn -1.000000 0.000000 0.000000
vn -1.000000 0.000000 0.000000
vn 0.000000 1.000000 0.000000
vn -0.000000 1.000000 -0.000000
vn -0.000000 1.000000 -0.000000
vn -0.050733 -0.057314 0.997066
vn -0.050733 -0.057314 0.997066
vn -0.050026 -0.195382 0.979450
vn -0.050026 -0.195382 0.979450
vn 0.000000 -1.000000 0.000000
vn 0.000000 -1.000000 0.000000
vn 0.000000 -1.000000 0.000000
vn -0.000000 1.000000 -0.000000
vn -0.000000 1.000000 -0.000000
vn -0.000000 1.000000 -0.000000
vn -0.050026 -0.195382 0.979450
vn -0.050026 -0.195382 0.979450
vn -0.075343 -0.097124 0.992417
vn -0.075343 -0.097124 0.992417
vn 0.000000 -1.000000 0.000000
vn 0.000000 -1.000000 0.000000
vn 0.000000 -1.000000 0.000000
vn 0.000000 1.000000 0.000000
vn 0.000000 1.000000 0.000000
vn 0.000000 1.000000 0.000000
vn 0.037190 -0.261456 0.964499
vn 0.037190 -0.261456 0.964499
vn -0.381224 -0.303143 0.873369
vn -0.264041 -0.478813 0.837270
vn 0.000000 -1.000000 0.000000
vn 0.000000 -1.000000 0.000000
vn 0.000000 -1.000000 0.000000
vn -0.000000 1.000000 -0.000000
vn -0.000000 1.000000 -0.000000
vn 0.000000 1.000000 0.000000
vn 0.000000 1.000000 0.000000
vn -0.075343 -0.097124 0.992417
vn -0.075343 -0.097124 0.992417
vn 0.037190 -0.261456 0.964499
vn 0.037190 -0.261456 0.964499
vn 0.000000 -1.000000 0.000000
vn 0.000000 -1.000000 0.000000
vn 0.000000 -1.000000 0.000000
vn 0.000000 -1.000000 0.000000
vn 1.000000 0.000000 0.000000
vn 1.000000 0.000000 0.000000
vn 1.000000 0.000000 0.000000
vn 1.000000 0.000000 0.000000
vn 0.381401 -0.137965 0.914056
vn 0.381401 -0.137965 0.914056
vn 0.302470 0.029997 0.952687
vn 0.302470 0.029997 0.952687
vn -0.999998 -0.001128 0.001878
vn -0.999998 -0.001128 0.001878
vn -0.706540 -0.707670 0.002204
vn -0.447373 -0.894348 -0.000210
s off
g pCube1
usemtl initialShadingGroup1
f 17/1/1 18/2/2 19/3/3 20/4/4
f 3/48/5 9/52/6 10/53/7 5/49/8
f 5/23/9 10/24/10 11/25/11 7/26/12
f 2/36/13 8/37/14 6/38/15 4/39/16
f 7/46/17 1/47/18 3/48/19 5/49/20
f 9/65/21 58/66/22 59/67/23 10/68/24
f 11/25/25 10/24/26 59/27/27 60/28/28
f 9/79/29 12/80/30 57/81/31 58/82/32
f 13/75/33 4/77/34 6/78/35 14/76/36
f 15/32/37 14/33/38 6/34/39 8/35/40
f 22/17/41 21/16/42 23/19/43 24/20/44
f 12/88/45 9/89/46 55/90/47 56/91/48
f 9/52/49 3/48/50 54/51/51 55/56/52
f 3/48/53 1/47/54 53/50/55 54/51/56
f 13/98/57 16/99/58 29/100/59 30/101/60
f 2/36/61 4/39/62 31/40/63 32/41/64
f 4/39/65 13/42/66 30/43/67 31/40/68
f 28/61/69 27/60/70 17/63/71 20/64/72
f 25/102/73 28/103/74 20/104/75 19/105/76
f 31/22/77 30/21/78 22/17/79 24/20/80
f 32/41/81 31/40/82 24/44/83 23/45/84
f 21/16/85 22/17/86 35/14/87 36/13/88
f 22/17/89 30/21/90 34/18/91 35/14/92
f 30/112/93 29/113/94 33/114/95 34/115/96
f 34/115/97 33/114/98 37/116/99 38/117/100
f 35/14/101 34/18/102 38/15/103 39/10/104
f 36/13/105 35/14/106 39/10/107 40/6/108
f 42/118/109 37/116/110 43/119/111
f 41/9/112 42/11/113 43/12/114 44/8/115
f 40/6/116 41/9/117 44/8/118
f 40/6/119 39/10/120 41/9/121
f 39/10/122 38/15/123 42/11/124 41/9/125
f 38/117/126 37/116/127 42/118/128
f 43/119/129 37/116/130 45/120/131
f 44/124/132 43/125/133 45/126/134 46/127/135
f 40/6/136 44/8/137 46/7/138
f 45/120/139 37/116/140 26/121/141 47/122/142
f 46/110/143 45/111/144 47/109/145 48/108/146
f 40/6/147 46/7/148 48/5/149 18/2/150
f 47/122/151 26/121/152 25/123/153
f 48/108/154 47/109/155 25/102/156 19/105/157
f 18/2/158 48/5/159 19/3/160
f 50/55/161 49/54/162 67/57/163 68/58/164
f 51/59/165 50/55/166 68/58/167 69/62/168
f 52/93/169 51/92/170 69/94/171 70/95/172
f 54/51/173 53/50/174 49/54/175 50/55/176
f 55/56/177 54/51/178 50/55/179 51/59/180
f 56/91/181 55/90/182 51/92/183 52/93/184
f 58/82/185 57/81/186 61/83/187
f 59/67/188 58/66/189 61/69/190 62/70/191
f 60/28/192 59/27/193 62/29/194
f 61/83/195 57/81/196 65/84/197
f 62/70/198 61/69/199 65/71/200 66/72/201
f 60/28/202 62/29/203 66/30/204
f 63/86/205 16/85/206 13/87/207
f 64/74/208 63/73/209 13/75/210 14/76/211
f 15/32/212 64/31/213 14/33/214
f 65/84/215 57/81/216 16/85/217 63/86/218
f 66/72/219 65/71/220 63/73/221 64/74/222
f 60/28/223 66/30/224 64/31/225 15/32/226
f 68/58/227 67/57/228 27/60/229 28/61/230
f 69/106/231 68/107/232 28/103/233 25/102/234
f 70/95/235 69/94/236 25/96/237 26/97/238
