# This file uses centimeters as units for non-parametric coordinates.

mtllib fenster1.mtl
g default
v 35.598953 -0.118244 47.034096
v 36.598953 -0.118244 47.034096
v 35.926727 -0.391139 47.034096
v 36.271103 -0.391139 47.034096
v 35.926727 -0.960192 47.034096
v 36.271103 -0.960192 47.034096
v 35.900917 -1.003218 47.072891
v 36.296577 -1.003218 47.072891
v 35.886864 -0.944269 47.107124
v 36.310631 -0.944269 47.107124
v 35.886864 -0.944269 47.007599
v 36.310631 -0.944269 47.007599
v 35.900917 -1.003218 47.007599
v 36.296577 -1.003218 47.007599
v 35.938347 -1.036257 47.058945
v 35.979965 -1.036257 47.058945
v 35.938347 -0.986558 47.058945
v 35.979965 -0.986558 47.058945
v 35.938347 -0.986558 47.009247
v 35.979965 -0.986558 47.009247
v 35.938347 -1.036257 47.009247
v 35.979965 -1.036257 47.009247
v 36.216362 -1.036257 47.058945
v 36.257988 -1.036257 47.058945
v 36.216362 -0.986558 47.058945
v 36.257988 -0.986558 47.058945
v 36.216362 -0.986558 47.009247
v 36.257988 -0.986558 47.009247
v 36.216362 -1.036257 47.009247
v 36.257988 -1.036257 47.009247
v 35.899712 -0.366666 47.063282
v 36.297775 -0.366666 47.063282
v 35.870605 -0.307716 47.081249
v 36.326881 -0.307716 47.081249
v 35.870605 -0.307716 47.007599
v 36.326881 -0.307716 47.007599
v 35.899712 -0.366666 47.007599
v 36.297775 -0.366666 47.007599
v 35.899712 -0.419977 47.007599
v 36.297775 -0.419977 47.007599
v 36.297775 -0.419977 47.063282
v 35.899712 -0.419977 47.063282
v 35.937759 -0.309887 47.056587
v 36.049194 -0.227474 47.056587
v 35.878494 -0.308789 47.080784
v 36.049156 -0.174662 47.080784
v 35.878494 -0.308789 47.035248
v 36.049156 -0.174662 47.035248
v 35.937759 -0.309887 47.035248
v 36.049194 -0.227474 47.035248
v 36.260773 -0.309887 47.056587
v 36.149338 -0.227474 47.056587
v 36.320030 -0.308789 47.080784
v 36.149368 -0.174662 47.080784
v 36.320030 -0.308789 47.035248
v 36.149368 -0.174662 47.035248
v 36.260773 -0.309887 47.035248
v 36.149338 -0.227474 47.035248
v 36.248917 -0.986692 47.060596
v 36.293297 -0.986692 47.060596
v 36.248917 -0.417938 47.060596
v 36.293297 -0.417938 47.060596
v 36.248917 -0.417938 47.007599
v 36.293297 -0.417938 47.007599
v 36.248917 -0.986692 47.007599
v 36.293297 -0.986692 47.007599
v 35.904533 -0.986692 47.060596
v 35.948921 -0.986692 47.060596
v 35.904533 -0.419345 47.060596
v 35.948921 -0.419345 47.060596
v 35.904533 -0.419345 47.007599
v 35.948921 -0.419345 47.007599
v 35.904533 -0.986692 47.007599
v 35.948921 -0.986692 47.007599
v 35.926727 -0.391139 46.936668
v 35.926727 -0.960192 46.936668
v 36.271103 -0.960192 46.936668
v 36.271103 -0.391139 46.936668
v 35.762840 -0.992830 47.034096
v 36.435028 -0.992830 47.034096
v 35.598953 -0.992827 47.034096
v 36.598953 -0.992831 47.034096
v 35.598953 -1.017612 47.094856
v 35.598953 -1.315243 47.094856
v 35.762840 -1.017616 47.094856
v 36.598953 -1.315243 47.094856
v 36.435028 -1.017616 47.094856
v 36.598953 -1.017617 47.094856
vt 0.136183 0.884175
vt 0.136183 0.649152
vt 0.278413 0.649152
vt 0.278413 0.884175
vt 0.413815 0.996882
vt 0.002237 0.996882
vt 0.125522 0.631382
vt 0.288934 0.631382
vt 0.294736 0.655728
vt 0.119720 0.655728
vt 0.462577 0.726931
vt 0.462577 0.695713
vt 0.490761 0.695713
vt 0.490761 0.743299
vt 0.140982 0.617737
vt 0.158172 0.617737
vt 0.158172 0.638263
vt 0.140982 0.638263
vt 0.462577 0.695713
vt 0.462577 0.726931
vt 0.490761 0.743299
vt 0.490761 0.695713
vt 0.255805 0.617737
vt 0.272995 0.617737
vt 0.272995 0.638263
vt 0.255805 0.638263
vt 0.446183 0.574611
vt 0.422421 0.574611
vt 0.422421 0.598372
vt 0.446183 0.598372
vt 0.125027 0.894282
vt 0.289429 0.894282
vt 0.301450 0.918628
vt 0.113005 0.918628
vt 0.422421 0.574611
vt 0.446183 0.574611
vt 0.446183 0.598372
vt 0.422421 0.598372
vt 0.289429 0.872264
vt 0.125027 0.872264
vt 0.446183 0.574611
vt 0.422421 0.574611
vt 0.140738 0.917732
vt 0.186761 0.951769
vt 0.186748 0.973581
vt 0.116264 0.918186
vt 0.422421 0.598372
vt 0.446183 0.598372
vt 0.422421 0.574611
vt 0.446183 0.574611
vt 0.274145 0.917732
vt 0.298620 0.918185
vt 0.228136 0.973581
vt 0.228123 0.951769
vt 0.446183 0.598372
vt 0.422421 0.598372
vt 0.448256 0.894748
vt 0.421632 0.894748
vt 0.269248 0.638207
vt 0.287579 0.638207
vt 0.287579 0.873106
vt 0.269248 0.873106
vt 0.421632 0.922932
vt 0.456846 0.922932
vt 0.421632 0.894748
vt 0.448256 0.894748
vt 0.127018 0.638207
vt 0.145349 0.638207
vt 0.145349 0.872525
vt 0.127018 0.872525
vt 0.456846 0.922932
vt 0.421632 0.922932
vt 0.448256 0.869259
vt 0.421632 0.869259
vt 0.449353 0.690859
vt 0.449353 0.504617
vt 0.493096 0.504617
vt 0.493096 0.690859
vt 0.421632 0.869259
vt 0.448256 0.869259
vt 0.427095 0.932026
vt 0.427095 0.996153
vt 0.448865 0.996153
vt 0.448865 0.932026
vt 0.448865 0.931501
vt 0.448865 0.970903
vt 0.438664 0.970903
vt 0.438664 0.931501
vt 0.427095 0.932026
vt 0.448865 0.932026
vt 0.461108 0.996350
vt 0.461108 0.790021
vt 0.494413 0.790021
vt 0.494413 0.996350
vt 0.494413 0.983188
vt 0.494413 0.803183
vt 0.469232 0.803183
vt 0.469232 0.983188
vt 0.493096 0.684685
vt 0.493096 0.510791
vt 0.464398 0.510791
vt 0.464398 0.684685
vt 0.492370 0.668233
vt 0.492370 0.649940
vt 0.470528 0.649940
vt 0.470528 0.668233
vt 0.492370 0.546045
vt 0.492370 0.527753
vt 0.470528 0.527753
vt 0.470528 0.546045
vt 0.448865 0.996153
vt 0.427095 0.996153
vt 0.448865 0.931501
vt 0.438664 0.931501
vt 0.438664 0.970903
vt 0.448865 0.970903
vt 0.446972 0.598308
vt 0.421632 0.598308
vt 0.421632 0.870234
vt 0.446972 0.870234
vt 0.421632 0.598308
vt 0.446972 0.598308
vt 0.446972 0.870234
vt 0.421632 0.870234
vt 0.446972 0.598308
vt 0.421632 0.598308
vt 0.421632 0.869561
vt 0.446972 0.869561
vt 0.421632 0.598308
vt 0.446972 0.598308
vt 0.446972 0.869561
vt 0.421632 0.869561
vt 0.136183 0.884175
vt 0.136183 0.649152
vt 0.278413 0.649152
vt 0.278413 0.884175
vt 0.068846 0.995223
vt 0.345135 0.995543
vt 0.000873 0.628112
vt 0.000873 0.628112
vt 0.000809 0.502514
vt 0.068516 0.628107
vt 0.413815 0.502514
vt 0.346095 0.628107
vt 0.414081 0.969025
vt 0.345122 0.968640
vt 0.348623 0.969019
vt 0.413751 0.628110
vt 0.414078 0.995229
vt 0.413751 0.628110
vt 0.068842 0.969019
vt 0.069593 0.968700
vt 0.346095 0.628107
vt 0.348620 0.995224
vt 0.003399 0.969028
vt 0.068516 0.628107
vt 0.069601 0.995603
vt 0.003402 0.995232
vn 0.000000 0.000000 1.000000
vn 0.000000 0.000000 1.000000
vn 0.000000 0.000000 1.000000
vn 0.000000 0.000000 1.000000
vn 0.000006 0.000000 1.000000
vn -0.000008 0.000000 1.000000
vn -0.000008 0.000000 1.000000
vn 0.000006 0.000000 1.000000
vn -0.000002 0.000000 1.000000
vn -0.000001 0.000000 1.000000
vn -0.000001 0.000000 1.000000
vn 0.000003 0.000000 1.000000
vn 0.000003 0.000000 1.000000
vn 0.000006 0.000000 1.000000
vn 0.000011 0.000000 1.000000
vn 0.000006 0.000000 1.000000
vn 0.000000 -0.502184 0.864761
vn 0.000000 -0.502184 0.864761
vn 0.000000 -0.502184 0.864761
vn 0.000000 -0.502184 0.864761
vn 0.000000 1.000000 0.000000
vn 0.000000 1.000000 0.000000
vn 0.000000 1.000000 0.000000
vn 0.000000 1.000000 0.000000
vn 0.000000 -1.000000 0.000000
vn 0.000000 -1.000000 0.000000
vn 0.000000 -1.000000 0.000000
vn 0.000000 -1.000000 0.000000
vn 0.972738 -0.231906 0.000000
vn 0.972738 -0.231906 0.000000
vn 0.972738 -0.231906 0.000000
vn 0.972738 -0.231906 0.000000
vn -0.972733 -0.231928 0.000000
vn -0.972733 -0.231928 0.000000
vn -0.972733 -0.231928 0.000000
vn -0.972733 -0.231928 0.000000
vn 0.000000 0.000000 1.000000
vn 0.000000 0.000000 1.000000
vn 0.000000 0.000000 1.000000
vn 0.000000 0.000000 1.000000
vn 0.000000 -1.000000 0.000000
vn 0.000000 -1.000000 0.000000
vn 0.000000 -1.000000 0.000000
vn 0.000000 -1.000000 0.000000
vn 1.000000 0.000000 0.000000
vn 1.000000 0.000000 0.000000
vn 1.000000 0.000000 0.000000
vn 1.000000 0.000000 0.000000
vn -1.000000 0.000000 0.000000
vn -1.000000 0.000000 0.000000
vn -1.000000 0.000000 0.000000
vn -1.000000 0.000000 0.000000
vn 0.000000 0.000000 1.000000
vn 0.000000 0.000000 1.000000
vn 0.000000 0.000000 1.000000
vn 0.000000 0.000000 1.000000
vn 0.000000 -1.000000 0.000000
vn 0.000000 -1.000000 0.000000
vn 0.000000 -1.000000 0.000000
vn 0.000000 -1.000000 0.000000
vn 1.000000 0.000000 0.000000
vn 1.000000 0.000000 0.000000
vn 1.000000 0.000000 0.000000
vn 1.000000 0.000000 0.000000
vn -1.000000 0.000000 0.000000
vn -1.000000 0.000000 0.000000
vn -1.000000 0.000000 0.000000
vn -1.000000 0.000000 0.000000
vn 0.000000 -0.147384 0.989079
vn 0.000000 -0.147384 0.989079
vn 0.000000 -0.291549 0.956556
vn 0.000000 -0.291549 0.956556
vn 0.000000 1.000000 0.000000
vn 0.000000 1.000000 0.000000
vn 0.000000 1.000000 0.000000
vn 0.000000 1.000000 0.000000
vn 0.000000 -1.000000 0.000000
vn 0.000000 -1.000000 0.000000
vn 0.000000 -1.000000 0.000000
vn 0.000000 -1.000000 0.000000
vn 0.973819 -0.227324 0.000000
vn 0.973819 -0.227324 0.000000
vn 0.896648 -0.442744 0.000000
vn 0.896648 -0.442744 0.000000
vn -0.973819 -0.227324 0.000000
vn -0.973819 -0.227324 0.000000
vn -0.896648 -0.442744 0.000000
vn -0.896648 -0.442744 0.000000
vn 1.000000 0.000000 0.000000
vn 1.000000 0.000000 0.000000
vn 0.000000 0.000000 1.000000
vn 0.000000 0.000000 1.000000
vn -1.000000 0.000000 0.000000
vn -1.000000 0.000000 0.000000
vn 0.318388 -0.414846 0.852368
vn 0.318388 -0.414846 0.852368
vn 0.318388 -0.414846 0.852368
vn 0.318388 -0.414846 0.852368
vn -0.617906 0.786252 0.000000
vn -0.617906 0.786252 0.000000
vn -0.617906 0.786252 0.000000
vn -0.617906 0.786252 0.000000
vn 0.594605 -0.804018 0.000000
vn 0.594605 -0.804018 0.000000
vn 0.594605 -0.804018 0.000000
vn 0.594605 -0.804018 0.000000
vn 1.000000 0.000709 0.000000
vn 1.000000 0.000709 0.000000
vn 1.000000 0.000709 0.000000
vn 1.000000 0.000709 0.000000
vn -0.318432 -0.414879 0.852336
vn -0.318432 -0.414879 0.852336
vn -0.318432 -0.414879 0.852336
vn -0.318432 -0.414879 0.852336
vn 0.617906 0.786252 0.000000
vn 0.617906 0.786252 0.000000
vn 0.617906 0.786252 0.000000
vn 0.617906 0.786252 0.000000
vn -0.594595 -0.804025 0.000000
vn -0.594595 -0.804025 0.000000
vn -0.594595 -0.804025 0.000000
vn -0.594595 -0.804025 0.000000
vn -1.000000 0.000574 0.000000
vn -1.000000 0.000574 0.000000
vn -1.000000 0.000574 0.000000
vn -1.000000 0.000574 0.000000
vn 0.000000 0.000000 1.000000
vn 0.000000 0.000000 1.000000
vn 0.000000 0.000000 1.000000
vn 0.000000 0.000000 1.000000
vn 1.000000 0.000000 0.000000
vn 1.000000 0.000000 0.000000
vn 1.000000 0.000000 0.000000
vn 1.000000 0.000000 0.000000
vn -1.000000 0.000000 0.000000
vn -1.000000 0.000000 0.000000
vn -1.000000 0.000000 0.000000
vn -1.000000 0.000000 0.000000
vn 0.000000 0.000000 1.000000
vn 0.000000 0.000000 1.000000
vn 0.000000 0.000000 1.000000
vn 0.000000 0.000000 1.000000
vn 1.000000 0.000000 0.000000
vn 1.000000 0.000000 0.000000
vn 1.000000 0.000000 0.000000
vn 1.000000 0.000000 0.000000
vn -1.000000 0.000000 0.000000
vn -1.000000 0.000000 0.000000
vn -1.000000 0.000000 0.000000
vn -1.000000 0.000000 0.000000
vn 1.000000 0.000000 0.000000
vn 1.000000 0.000000 0.000000
vn 1.000000 0.000000 0.000000
vn 1.000000 0.000000 0.000000
vn 0.000000 1.000000 0.000000
vn 0.000000 1.000000 0.000000
vn 0.000000 1.000000 0.000000
vn 0.000000 1.000000 0.000000
vn -1.000000 0.000000 0.000000
vn -1.000000 0.000000 0.000000
vn -1.000000 0.000000 0.000000
vn -1.000000 0.000000 0.000000
vn 0.000000 -1.000000 0.000000
vn 0.000000 -1.000000 0.000000
vn 0.000000 -1.000000 0.000000
vn 0.000000 -1.000000 0.000000
vn -0.000008 0.000000 1.000000
vn -0.000008 0.000000 1.000000
vn -0.000016 0.000000 1.000000
vn 0.000005 0.000000 1.000000
vn 0.000004 0.925926 0.377704
vn 0.000011 0.925926 0.377705
vn 0.000011 0.925926 0.377705
vn 0.000004 0.925926 0.377704
vn 0.000004 0.925926 0.377704
vn 0.000004 0.925926 0.377704
vn 0.000011 0.925926 0.377705
vn 0.000011 0.925926 0.377705
s off
g polySurface182
usemtl lambert30SG
f 75/133/1 76/134/2 77/135/3 78/136/4
s 2
f 2/5/5 1/6/6 3/1/7 4/4/8
s 3
f 83/140/9 84/141/10 85/142/11
f 84/141/10 86/143/12 87/144/13 85/142/11
s 2
f 80/153/14 82/150/15 2/5/5 4/4/8 6/3/16
s off
f 7/7/17 8/8/18 10/9/19 9/10/20
f 9/75/21 10/76/22 12/77/23 11/78/24
f 13/99/25 14/100/26 8/101/27 7/102/28
f 8/11/29 14/12/30 12/13/31 10/14/32
f 13/19/33 7/20/34 9/21/35 11/22/36
f 15/15/37 16/16/38 18/17/39 17/18/40
f 21/103/41 22/104/42 16/105/43 15/106/44
f 16/27/45 22/28/46 20/29/47 18/30/48
f 21/35/49 15/36/50 17/37/51 19/38/52
f 23/23/53 24/24/54 26/25/55 25/26/56
f 29/107/57 30/108/58 24/109/59 23/110/60
f 24/41/61 30/42/62 28/47/63 26/48/64
f 29/49/65 23/50/66 25/55/67 27/56/68
s 17
f 31/31/69 32/32/70 34/33/71 33/34/72
s off
f 33/91/73 34/92/74 36/93/75 35/94/76
f 39/95/77 40/96/78 41/97/79 42/98/80
s 20
f 32/57/81 38/58/82 36/63/83 34/64/84
s 21
f 37/65/85 31/66/86 33/71/87 35/72/88
s 20
f 38/58/82 32/57/81 41/73/89 40/74/90
s 17
f 32/32/70 31/31/69 42/40/91 41/39/92
s 21
f 31/66/86 37/65/85 39/79/93 42/80/94
s off
f 43/43/95 44/44/96 46/45/97 45/46/98
f 45/81/99 46/82/100 48/83/101 47/84/102
f 49/85/103 50/86/104 44/87/105 43/88/106
f 44/87/107 50/86/108 48/83/109 46/82/110
f 51/51/111 53/52/112 54/53/113 52/54/114
f 53/89/115 55/90/116 56/111/117 54/112/118
f 57/113/119 51/114/120 52/115/121 58/116/122
f 52/115/123 54/112/124 56/111/125 58/116/126
f 59/59/127 60/60/128 62/61/129 61/62/130
f 60/117/131 66/118/132 64/119/133 62/120/134
f 65/121/135 59/122/136 61/123/137 63/124/138
f 67/67/139 68/68/140 70/69/141 69/70/142
f 68/125/143 74/126/144 72/127/145 70/128/146
f 73/129/147 67/130/148 69/131/149 71/132/150
f 3/1/151 5/2/152 76/134/153 75/133/154
f 5/2/155 6/3/156 77/135/157 76/134/158
f 6/3/159 4/4/160 78/136/161 77/135/162
f 4/4/163 3/1/164 75/133/165 78/136/166
s 2
f 6/3/16 5/2/167 79/156/168 80/153/14
f 1/6/6 81/139/169 79/156/168 5/2/167 3/1/7
s 3
f 87/144/13 86/143/12 88/148/170
s 40
f 79/137/171 81/158/172 83/155/173 85/151/174
f 80/138/175 79/157/171 85/152/174 87/146/176
f 82/149/177 80/154/175 87/147/176 88/145/178
