# This file uses centimeters as units for non-parametric coordinates.

mtllib loch.mtl
g default
v 33.740501 -0.118244 47.034096
v 33.740501 -1.315243 47.034096
v 34.707085 -0.118244 47.034096
v 34.707085 -1.315243 47.034096
v 33.984138 -0.205706 47.034096
v 34.512226 -0.416035 47.034096
v 34.164829 -1.127934 47.034096
v 34.403831 -0.968046 47.034096
v 33.939301 -0.810070 47.034096
v 34.569233 -0.961090 47.034096
v 34.028549 -0.281508 46.891617
v 33.991077 -0.786521 46.891617
v 34.179531 -1.052132 46.891613
v 34.379242 -0.918528 46.891613
v 34.469822 -0.457261 46.891613
v 34.517452 -0.912715 46.891613
vt 0.497746 0.497813
vt -0.000282 0.498322
vt 0.129904 0.456207
vt 0.386744 0.389462
vt -0.000596 0.000199
vt 0.220932 0.077181
vt 0.107315 0.207820
vt 0.341336 0.142893
vt 0.498917 0.001889
vt 0.424661 0.145752
vt 0.133401 0.217498
vt 0.152277 0.425054
vt 0.328949 0.163245
vt 0.228338 0.108335
vt 0.365382 0.372519
vt 0.398575 0.165634
vn -0.000007 0.000000 1.000000
vn 0.000005 0.000000 1.000000
vn 0.000005 0.000000 1.000000
vn -0.000007 0.000000 1.000000
vn 0.000003 0.000000 1.000000
vn 0.000000 0.000000 1.000000
vn 0.000005 0.000000 1.000000
vn 0.000000 0.000000 1.000000
vn -0.000004 0.000000 1.000000
vn -0.000007 0.000000 1.000000
vn 0.941213 -0.069839 0.330516
vn 0.896834 0.247294 0.366790
vn 0.896834 0.247294 0.366790
vn 0.941213 -0.069839 0.330516
vn -0.518935 0.775708 0.359143
vn -0.518935 0.775708 0.359143
vn -0.518935 0.775708 0.359143
vn -0.518935 0.775708 0.359143
vn -0.945567 -0.098889 0.310039
vn -0.945567 -0.098889 0.310039
vn -0.945567 -0.098889 0.310039
vn -0.945567 -0.098889 0.310039
vn -0.346009 -0.868746 0.354342
vn -0.346009 -0.868746 0.354342
vn -0.346009 -0.868746 0.354342
vn -0.346009 -0.868746 0.354342
vn 0.759311 0.538742 0.364970
vn 0.759311 0.538742 0.364970
vn -0.039600 0.941702 0.334110
vn -0.039600 0.941702 0.334110
vn -0.039600 0.941702 0.334110
vn -0.039600 0.941702 0.334110
s 1
g polySurface181
usemtl lambert30SG
f 3/1/1 1/2/2 5/3/3 6/4/4
f 2/5/5 7/6/6 9/7/7
f 8/8/8 7/6/6 2/5/5 4/9/9
f 4/9/9 3/1/1 6/4/4 10/10/10
f 1/2/2 2/5/5 9/7/7 5/3/3
f 4/9/9 10/10/10 8/8/8
s 2
f 5/3/11 9/7/12 12/11/13 11/12/14
s off
f 7/6/15 8/8/16 14/13/17 13/14/18
f 10/10/19 6/4/20 15/15/21 16/16/22
f 6/4/23 5/3/24 11/12/25 15/15/26
s 2
f 9/7/12 7/6/27 13/14/28 12/11/13
s off
f 8/8/29 10/10/30 16/16/31 14/13/32
