# This file uses centimeters as units for non-parametric coordinates.

mtllib loch_gr.mtl
g default
v 27.575811 -0.316187 48.036720
v 25.731421 -0.316187 48.036720
v 25.731421 -3.923684 48.036720
v 27.575811 -3.923684 48.036720
v 27.397596 -1.078533 48.036720
v 26.276770 -0.695447 48.036720
v 27.184530 -3.819180 48.036720
v 26.085348 -3.164920 48.036720
v 27.575819 -2.196502 48.036720
v 27.214582 -2.205241 48.036720
v 25.804609 -1.858429 48.036720
v 25.731421 -2.196502 48.036720
v 26.407614 -0.942925 47.870480
v 27.397604 -1.162711 47.870480
v 27.076139 -3.630003 47.870480
v 27.106184 -2.109553 47.870480
v 26.085348 -3.018787 47.870480
v 25.935446 -2.021728 47.870480
v 25.699141 -2.325082 47.847702
v 27.584906 -2.325082 47.847702
v 25.699141 -2.181661 47.847702
v 27.584906 -2.181661 47.847702
v 25.699141 -2.181661 46.070126
v 27.584906 -2.181661 46.070126
v 25.699141 -2.325082 46.070126
v 27.584906 -2.325082 46.070126
v 27.584906 -0.314851 46.070126
v 27.584906 -2.325082 46.070126
v 26.530210 -2.371061 47.348984
v 26.530210 -2.237351 47.453362
v 26.773893 -1.930614 45.938133
v 26.886633 -2.325082 47.712132
v 26.886633 -2.181661 47.423622
v 26.424612 -2.194061 47.363022
v 26.635801 -2.194061 47.363022
v 26.424612 -2.104398 46.511024
v 26.635801 -2.104398 46.511024
v 26.424612 -2.174250 46.503674
v 26.635801 -2.174250 46.503674
v 26.424612 -2.263914 47.355667
v 26.635801 -2.263914 47.355667
v 27.156973 -2.117754 47.150082
v 27.189062 -2.117754 46.847183
v 25.934973 -1.988431 47.020630
v 25.967062 -1.988431 46.717728
v 25.924429 -2.089180 47.019512
v 27.146429 -2.218503 47.148968
v 26.395697 -1.800677 47.062321
v 26.160612 -1.767910 46.965500
v 26.190916 -2.206934 47.422035
v 25.955832 -2.174167 47.325214
v 26.206717 -2.266797 47.363419
v 25.971632 -2.234030 47.266598
v 26.411489 -1.860540 47.003704
v 26.176405 -1.827773 46.906883
v 25.699141 -3.922103 46.070129
v 27.584906 -3.922103 46.070126
v 25.699141 -2.181661 46.070126
v 25.699141 -0.314851 46.070126
v 27.584906 -2.181661 46.070126
v 25.699141 -2.325082 46.070126
v 25.699141 -3.922103 46.070129
v 27.584906 -2.325082 46.070126
v 27.584906 -3.922103 46.070126
v 27.584906 -0.314851 47.840546
v 25.699141 -0.314851 47.840546
v 25.699141 -3.922103 47.840546
v 27.584906 -3.922103 47.840546
v 26.618711 -3.923950 47.385571
v 26.736494 -3.922943 47.385571
v 26.981218 -3.340245 48.130329
v 27.099001 -3.416451 48.130329
v 27.036772 -3.254382 48.038692
v 27.154554 -3.330589 48.038692
v 26.674265 -3.925093 47.293934
v 26.792048 -3.924085 47.293934
v 26.527533 -3.924339 47.558643
v 26.594976 -3.924304 47.681625
v 26.124517 -2.988735 47.799812
v 26.191957 -2.991543 47.922791
v 26.231451 -2.924302 47.742638
v 26.298895 -2.927109 47.865620
v 26.634470 -3.925192 47.501472
v 26.701910 -3.925157 47.624451
v 27.103403 -0.826756 48.067547
v 27.145830 -0.754370 48.089611
v 27.145830 -0.754370 47.999168
v 27.103403 -0.826756 47.999168
v 27.103403 -0.892219 47.999168
v 27.103403 -0.892219 48.067547
v 27.049456 -0.757035 48.059326
v 26.887014 -0.671971 48.059326
v 27.135843 -0.755687 48.089039
v 26.887060 -0.607121 48.089039
v 27.135843 -0.755687 48.033127
v 26.887060 -0.607121 48.033127
v 27.049456 -0.757035 48.033127
v 26.887014 -0.671971 48.033127
v 26.813353 -0.892219 47.999168
v 26.813353 -0.892219 48.067547
v 26.662436 -0.826756 48.039711
v 26.662451 -0.739675 48.051659
v 26.662451 -0.739675 47.961220
vt 0.160076 0.074324
vt 0.029977 0.029669
vt 0.029977 0.251063
vt 0.047437 0.211258
vt 0.114410 0.365088
vt 0.029977 0.454427
vt 0.469976 0.454427
vt 0.376631 0.442123
vt 0.469977 0.251063
vt 0.383801 0.252092
vt 0.469976 0.029669
vt 0.427461 0.119430
vt 0.275164 -0.700414
vt 0.214095 -0.620749
vt 0.211701 -0.644351
vt 0.271211 -0.706352
vt 0.131411 -0.883729
vt 0.209335 -0.771295
vt 0.206183 -0.759454
vt 0.132651 -0.865293
vt 0.126166 -0.680608
vt 0.084606 -0.785951
vt 0.091469 -0.775643
vt 0.127726 -0.698272
vt -0.951455 -0.911585
vt -0.787145 -0.812984
vt -0.787145 -0.833620
vt -0.951455 -0.911585
vt -0.738966 -0.534045
vt -0.951455 -0.560141
vt -0.951455 -0.560141
vt -0.578621 -0.560141
vt -0.716676 -0.884782
vt -0.716676 -0.827741
vt -0.578621 -0.560141
vt -0.578621 -0.911585
vt -0.578621 -0.911585
vt -0.578621 -0.560141
vt -0.808022 -0.815760
vt -0.766268 -0.815760
vt -0.766268 -0.647311
vt -0.808022 -0.647311
vt -0.808022 -0.814306
vt -0.766268 -0.814306
vt -0.766268 -0.645858
vt -0.808022 -0.645858
vt 0.112094 0.097085
vt 0.389948 0.384073
vt 0.257535 0.120269
vt -0.663228 -0.773659
vt -0.656883 -0.713773
vt -0.898484 -0.688178
vt -0.904829 -0.748065
vt -0.665312 -0.773439
vt -0.906914 -0.747844
vt -0.813739 -0.756308
vt -0.860218 -0.737165
vt 0.389948 0.079280
vt -0.900705 -0.808285
vt -0.854226 -0.827427
vt -0.897581 -0.796695
vt -0.851102 -0.815837
vt -0.857095 -0.725576
vt -0.810617 -0.744719
vt -0.578621 -0.910171
vt -0.951455 -0.910171
vt -0.951455 -0.560141
vt -0.578621 -0.560141
vt -0.769647 -0.820217
vt -0.746361 -0.820217
vt -0.674689 -0.967464
vt -0.697976 -0.967464
vt -0.663706 -0.949346
vt -0.686992 -0.949346
vt -0.735377 -0.802099
vt -0.758664 -0.802099
vt -0.787674 -0.854436
vt -0.774340 -0.878750
vt -0.854021 -0.926430
vt -0.867354 -0.902117
vt -0.832878 -0.915127
vt -0.846212 -0.890813
vt -0.753198 -0.867446
vt -0.766531 -0.843133
vt -0.578621 -0.910171
vt -0.578621 -0.560141
vt 0.446471 0.097085
vt 0.446471 0.380263
vt 0.446471 0.380263
vt 0.112094 0.380263
vt 0.082060 0.384073
vt 1.200284 -0.202596
vt 2.200284 0.797404
vt 1.200284 0.797404
vt 1.200284 0.297404
vt 2.200284 -0.202596
vt 2.200284 0.797404
vt 0.082060 0.079280
vt 0.203824 0.456095
vt 1.200284 -0.202596
vt 2.200284 -0.202596
vt 2.200284 0.797404
vt 1.200284 0.797404
vt 1.200284 -0.202596
vt 2.200284 -0.202596
vt 2.200284 0.797404
vt 1.200284 0.797404
vt -0.951455 -0.560142
vt -0.951455 -0.910171
vt 0.436505 0.077101
vt 0.436505 0.422551
vt 0.108893 0.422551
vt 0.107568 0.077101
vt 0.436505 0.422551
vt 0.436505 0.077101
vt 0.107568 0.077101
vt 0.108893 0.422551
vt 0.170134 0.490350
vt 0.170134 0.469498
vt 0.424982 0.094619
vt 0.424983 0.390144
vt 0.096045 0.390144
vt 0.097370 0.094619
vt 0.424983 0.390144
vt 0.424983 0.094619
vt 0.097370 0.094619
vt 0.096045 0.390144
vt 0.105564 0.469498
vt 0.105563 0.490350
vt 0.170134 0.469608
vt 0.105564 0.469608
vt 0.161893 0.437825
vt 0.105561 0.437825
vt 0.105561 0.452919
vt 0.161893 0.452919
vt 0.105379 0.438106
vt 0.161711 0.438106
vt 0.161711 0.422340
vt 0.105379 0.422340
vt 0.458228 -0.435468
vt 0.458228 -0.281944
vt 0.590596 -0.281944
vt 0.520259 -0.435468
vt 0.610821 -0.274289
vt 0.672852 -0.274289
vt 0.672852 -0.598220
vt 0.610821 -0.598220
vt 0.689217 -0.198471
vt 0.821584 -0.198471
vt 0.821584 -0.694586
vt 0.689217 -0.694586
vt 0.867398 -0.668370
vt 0.976019 -0.776865
vt 1.051118 -0.150352
vt 0.927045 -0.269910
vt 0.188730 0.440329
vt 0.188730 0.456095
vt 0.172040 0.456095
vt 0.172040 0.435243
vt 0.203824 0.440329
vn 0.000004 0.000000 1.000000
vn 0.000004 0.000000 1.000000
vn 0.000002 0.000000 1.000000
vn 0.000002 0.000000 1.000000
vn -0.000002 0.000000 1.000000
vn -0.000002 0.000000 1.000000
vn 0.000006 0.000000 1.000000
vn 0.000006 0.000000 1.000000
vn 0.000000 0.000000 1.000000
vn 0.000000 0.000000 1.000000
vn -0.209139 -0.732253 0.648126
vn -0.209139 -0.732253 0.648126
vn -0.209139 -0.732253 0.648126
vn -0.209139 -0.732253 0.648126
vn -0.831257 0.015938 0.555660
vn -0.891235 0.115585 0.438566
vn -0.891235 0.115585 0.438566
vn -0.831257 0.015938 0.555660
vn 0.919676 0.171934 0.353036
vn 0.919676 0.171934 0.353036
vn 0.919676 0.171934 0.353036
vn 0.919676 0.171934 0.353036
vn 0.425549 0.702810 0.570058
vn 0.425549 0.702810 0.570058
vn 0.425549 0.702810 0.570058
vn 0.425549 0.702810 0.570058
vn -0.926938 0.212083 0.309526
vn -0.926938 0.212083 0.309526
vn 0.588541 -0.247919 0.769517
vn 0.588541 -0.247919 0.769517
vn 0.588541 -0.247919 0.769517
vn 0.588541 -0.247919 0.769517
vn 0.433650 -0.317604 0.843253
vn 0.433650 -0.317604 0.843253
vn 0.433650 -0.317604 0.843253
vn 0.433650 -0.317604 0.843253
vn -0.077846 0.993183 0.086758
vn -0.107933 0.985467 0.131172
vn -0.026037 0.993370 0.111973
vn -0.077846 0.993183 0.086758
vn -0.021006 -0.999531 -0.022285
vn 0.022890 -0.999724 0.005277
vn 0.034353 -0.999378 0.007920
vn -0.021006 -0.999531 -0.022285
vn 0.044841 -0.998812 0.019069
vn -0.424253 0.501134 0.754237
vn -0.424253 0.501134 0.754237
vn -0.350796 0.596411 0.721967
vn -0.350796 0.596411 0.721967
vn 0.000187 0.992210 0.124579
vn 0.000000 -1.000000 0.000000
vn 0.000000 -1.000000 0.000000
vn -0.271896 0.682435 0.678495
vn -0.271896 0.682435 0.678495
vn 0.138071 0.987857 0.071231
vn 0.138071 0.987857 0.071231
vn -0.056325 -0.024713 0.998107
vn -0.056325 -0.024713 0.998107
vn -0.160643 0.000000 0.987013
vn 0.000000 0.994508 0.104662
vn 0.000000 0.994508 0.104662
vn 0.000000 0.994508 0.104662
vn 0.000000 0.994508 0.104662
vn 0.000000 -0.104711 0.994503
vn 0.000000 -0.104711 0.994503
vn 0.000000 -0.104711 0.994503
vn 0.000000 -0.104711 0.994503
vn 1.000000 0.000032 0.000000
vn 1.000000 0.000032 0.000000
vn 1.000000 0.000032 0.000000
vn 1.000000 0.000032 0.000000
vn -1.000000 0.000000 0.000000
vn -1.000000 0.000000 0.000000
vn -1.000000 0.000000 0.000000
vn -1.000000 0.000000 0.000000
vn 0.104080 0.994508 0.011026
vn 0.104080 0.994508 0.011026
vn 0.104080 0.994508 0.011026
vn 0.104080 0.994508 0.011026
vn -0.105344 0.000010 0.994436
vn -0.105344 0.000010 0.994436
vn -0.105344 0.000010 0.994436
vn -0.105344 0.000010 0.994436
vn -0.185302 0.702138 0.687507
vn -0.185302 0.702138 0.687507
vn -0.185302 0.702138 0.687507
vn -0.185302 0.702138 0.687507
vn -0.353083 -0.700484 0.620206
vn -0.353083 -0.700484 0.620206
vn -0.353083 -0.700484 0.620206
vn -0.353083 -0.700484 0.620206
vn -0.917067 0.127830 -0.377688
vn -0.917067 0.127830 -0.377688
vn -0.917067 0.127830 -0.377688
vn -0.917067 0.127830 -0.377688
vn 0.917067 -0.127830 0.377688
vn 0.917067 -0.127830 0.377688
vn 0.917067 -0.127830 0.377688
vn 0.917067 -0.127830 0.377688
vn 0.000000 0.000001 1.000000
vn 0.000000 0.000001 1.000000
vn 0.000000 0.000001 1.000000
vn 0.000000 0.000001 1.000000
vn 0.000000 0.000001 1.000000
vn 0.000000 0.000000 0.000000
vn 0.000000 0.000000 0.000000
vn 0.000000 0.000000 0.000000
vn 0.000000 0.000000 0.000000
vn 0.000000 0.000000 0.000000
vn 0.000000 0.000000 0.000000
vn 0.048646 -0.049138 0.997607
vn 0.048646 -0.049138 0.997607
vn 0.000000 0.000000 0.000000
vn 0.000000 0.000000 0.000000
vn 0.000000 0.000000 0.000000
vn 0.000000 0.000000 0.000000
vn 0.000000 0.000000 0.000000
vn 0.000000 0.000000 0.000000
vn 0.000000 0.000000 0.000000
vn 0.000000 0.000000 0.000000
vn 1.000000 -0.000001 0.000000
vn 1.000000 -0.000001 0.000000
vn 1.000000 -0.000001 0.000000
vn 1.000000 -0.000001 0.000000
vn -1.000000 0.000000 0.000000
vn -1.000000 0.000000 0.000000
vn -1.000000 0.000000 0.000000
vn -1.000000 0.000000 0.000000
vn 0.000000 -1.000000 0.000000
vn 0.000000 -1.000000 0.000000
vn 0.000000 -1.000000 0.000000
vn 0.000000 -1.000000 0.000000
vn 1.000000 0.000001 0.000000
vn 1.000000 0.000001 0.000000
vn 1.000000 0.000001 0.000000
vn 1.000000 0.000001 0.000000
vn -1.000000 0.000000 0.000000
vn -1.000000 0.000000 0.000000
vn -1.000000 0.000000 0.000000
vn -1.000000 0.000000 0.000000
vn -0.000006 0.000000 1.000000
vn -0.000006 0.000000 1.000000
vn -0.232248 -0.727546 0.645552
vn -0.232248 -0.727546 0.645552
vn -0.232248 -0.727546 0.645552
vn -0.232248 -0.727546 0.645552
vn 0.362512 0.560291 0.744755
vn 0.362512 0.560291 0.744755
vn 0.362512 0.560291 0.744755
vn 0.362512 0.560291 0.744755
vn 0.219767 0.688398 -0.691238
vn 0.219767 0.688398 -0.691238
vn 0.219767 0.688398 -0.691238
vn 0.219767 0.688398 -0.691238
vn 0.732654 -0.666899 0.135882
vn 0.732654 -0.666899 0.135882
vn 0.732654 -0.666899 0.135882
vn 0.732654 -0.666899 0.135882
vn -0.755931 0.633392 -0.165479
vn -0.755931 0.633392 -0.165479
vn -0.755931 0.633392 -0.165479
vn -0.755931 0.633392 -0.165479
vn -0.785631 -0.448867 0.425797
vn -0.785631 -0.448867 0.425797
vn -0.785631 -0.448867 0.425797
vn -0.785631 -0.448867 0.425797
vn -0.403007 0.882849 0.241169
vn -0.403007 0.882849 0.241169
vn -0.403007 0.882849 0.241169
vn -0.403007 0.882849 0.241169
vn 0.795697 0.424988 -0.431568
vn 0.795697 0.424988 -0.431568
vn 0.795697 0.424988 -0.431568
vn 0.795697 0.424988 -0.431568
vn 0.476176 -0.020814 0.879104
vn 0.476176 -0.020814 0.879104
vn 0.476176 -0.020814 0.879104
vn 0.476176 -0.020814 0.879104
vn -0.476194 0.020759 -0.879095
vn -0.476194 0.020759 -0.879095
vn -0.476194 0.020759 -0.879095
vn -0.476194 0.020759 -0.879095
vn 0.000000 1.000000 0.000000
vn 0.000000 1.000000 0.000000
vn 0.000000 1.000000 0.000000
vn 0.000000 1.000000 0.000000
vn 0.862719 -0.505683 0.000000
vn 0.862719 -0.505683 0.000000
vn 0.862719 -0.505683 0.000000
vn 0.862719 -0.505683 0.000000
vn 1.000000 0.000000 0.000000
vn 1.000000 0.000000 0.000000
vn 1.000000 0.000000 0.000000
vn 1.000000 0.000000 0.000000
vn -0.251881 -0.443344 0.860234
vn -0.251881 -0.443344 0.860234
vn -0.251881 -0.443344 0.860234
vn -0.251881 -0.443344 0.860234
vn 0.512704 0.858566 0.000000
vn 0.512704 0.858566 0.000000
vn 0.512704 0.858566 0.000000
vn 0.512704 0.858566 0.000000
vn -0.463846 -0.885916 0.000000
vn -0.463846 -0.885916 0.000000
vn -0.463846 -0.885916 0.000000
vn -0.463846 -0.885916 0.000000
vn -1.000000 0.000716 0.000000
vn -1.000000 0.000716 0.000000
vn -1.000000 0.000716 0.000000
vn -1.000000 0.000716 0.000000
vn 0.000000 -1.000000 0.000000
vn 0.000000 -1.000000 0.000000
vn 0.000000 -1.000000 0.000000
vn 0.000000 -1.000000 0.000000
vn -0.056016 -0.011815 0.998360
vn -0.056016 -0.011815 0.998360
vn -0.037526 0.166246 0.985370
vn -0.037526 0.166246 0.985370
vn -0.072701 -0.189495 0.979187
vn -0.072701 -0.189495 0.979187
vn 0.030385 0.999538 0.000000
vn 0.030385 0.999538 0.000000
vn 0.030385 0.999538 0.000000
vn 0.030385 0.999538 0.000000
s 1
g polySurface191
usemtl lambert30SG
f 6/1/1 2/2/2 12/3/3 11/4/4
f 8/5/5 3/6/6 4/7/7 7/8/8
f 7/8/8 4/7/7 9/9/9 10/10/10
s off
f 5/13/11 6/14/12 13/15/13 14/16/14
s 3
f 7/17/15 10/18/16 16/19/17 15/20/18
s off
f 11/21/19 8/22/20 17/23/21 18/24/22
f 8/22/23 7/17/24 15/20/25 17/23/26
s 3
f 10/18/16 5/13/27 14/16/28 16/19/17
s off
f 6/14/29 11/21/30 18/24/31 13/15/32
f 19/25/33 29/26/34 30/27/35 21/28/36
s 8
f 21/28/37 30/27/38 31/29/39 23/30/40
s 9
f 25/31/41 28/32/42 29/26/43 19/25/44
f 28/32/42 32/33/45 29/26/43
s 10
f 30/27/46 29/26/47 32/33/48 33/34/49
s 8
f 31/29/39 30/27/38 33/34/50
s 9
f 28/32/42 26/35/51 20/36/52 32/33/45
s 10
f 33/34/49 32/33/48 20/36/53 22/37/54
s 8
f 31/29/39 33/34/50 22/37/55 24/38/56
s 11
f 27/48/57 31/49/58 24/58/59
s off
f 34/39/60 35/40/61 37/41/62 36/42/63
f 40/43/64 41/44/65 35/40/66 34/39/67
f 35/40/68 41/44/69 39/45/70 37/41/71
f 40/43/72 34/39/73 36/42/74 38/46/75
f 42/50/76 43/51/77 45/52/78 44/53/79
f 47/54/80 42/50/81 44/53/82 46/55/83
f 48/56/84 49/57/85 51/59/86 50/60/87
f 50/60/88 51/59/89 53/61/90 52/62/91
f 49/57/92 55/63/93 53/61/94 51/59/95
f 54/64/96 48/56/97 50/60/98 52/62/99
f 56/47/100 57/87/101 26/88/102 28/89/103 25/90/104
f 23/92/105 59/93/106 58/94/107
f 27/95/108 24/96/109 60/97/110
s 11
f 27/48/57 59/91/111 23/98/112 31/49/58
s off
f 56/100/113 25/101/114 61/102/115 62/103/116
f 26/104/117 57/105/118 64/106/119 63/107/120
f 58/110/121 59/111/122 66/112/123 21/113/124
f 27/114/125 60/115/126 22/116/127 65/117/128
f 65/65/129 66/66/130 59/67/131 27/68/132
f 62/120/133 61/121/134 19/122/135 67/123/136
f 63/124/137 64/125/138 68/126/139 20/127/140
s 1
f 9/9/9 1/11/141 5/12/142 10/10/10
f 1/11/141 2/2/2 6/1/1 5/12/142
f 12/3/3 3/6/6 8/5/5 11/4/4
s off
f 69/69/143 70/70/144 72/71/145 71/72/146
f 71/72/147 72/71/148 74/73/149 73/74/150
f 73/74/151 74/73/152 76/75/153 75/76/154
f 70/70/155 76/75/156 74/73/157 72/71/158
f 75/76/159 69/69/160 71/72/161 73/74/162
f 77/77/163 78/78/164 80/79/165 79/80/166
f 79/80/167 80/79/168 82/81/169 81/82/170
f 81/82/171 82/81/172 84/83/173 83/84/174
f 78/78/175 84/83/176 82/81/177 80/79/178
f 83/84/179 77/77/180 79/80/181 81/82/182
f 68/85/183 64/86/184 62/108/185 67/109/186
f 85/156/187 88/157/188 87/158/189 86/159/190
f 88/157/191 85/156/192 90/160/193 89/99/194
f 91/155/195 93/154/196 94/153/197 92/152/198
f 93/151/199 95/150/200 96/149/201 94/148/202
f 97/147/203 91/146/204 92/145/205 98/144/206
f 92/143/207 94/142/208 96/141/209 98/140/210
f 99/139/211 89/138/212 90/137/213 100/136/214
s 50
f 85/135/215 101/134/216 100/133/217 90/132/218
f 102/131/219 101/134/216 85/135/215 86/130/220
s off
f 103/129/221 102/128/222 86/119/223 87/118/224
