# This file uses centimeters as units for non-parametric coordinates.

mtllib tuer.mtl
g default
v 35.594231 -0.125287 47.034096
v 34.707085 -0.125287 47.034096
v 34.707085 -1.315243 47.034096
v 35.594231 -1.315243 47.034096
v 34.928871 -1.315243 47.034096
v 35.372444 -1.315243 47.034096
v 34.928871 -0.471421 47.034096
v 35.372444 -0.471421 47.034096
v 34.928871 -1.289153 46.934235
v 35.372444 -1.289153 46.934235
v 34.928871 -0.471421 46.934235
v 35.372444 -0.471421 46.934235
v 34.900826 -0.432136 47.068409
v 35.425064 -0.432136 47.068409
v 34.862492 -0.389982 47.081257
v 35.463394 -0.389982 47.081257
v 34.862492 -0.389982 47.028587
v 35.463394 -0.389982 47.028587
v 34.900826 -0.432136 47.028587
v 35.425064 -0.432136 47.028587
v 34.900826 -0.470257 47.028587
v 35.425064 -0.470257 47.028587
v 35.425064 -0.470257 47.068409
v 34.900826 -0.470257 47.068409
v 34.950924 -0.391535 47.063622
v 35.097679 -0.332603 47.063622
v 34.872883 -0.390749 47.080925
v 35.097637 -0.294838 47.080925
v 34.872883 -0.390749 47.048363
v 35.097637 -0.294838 47.048363
v 34.950924 -0.391535 47.048363
v 35.097679 -0.332603 47.048363
v 35.376328 -0.391535 47.063622
v 35.229576 -0.332603 47.063622
v 35.454372 -0.390749 47.080925
v 35.229614 -0.294838 47.080925
v 35.454372 -0.390749 47.048363
v 35.229614 -0.294838 47.048363
v 35.376328 -0.391535 47.048363
v 35.229576 -0.332603 47.048363
vt 0.850956 0.494990
vt 0.506618 0.495355
vt 0.505148 0.070509
vt 0.852442 0.070610
vt 0.584099 0.062812
vt 0.773690 0.063585
vt 0.588277 0.370879
vt 0.769368 0.370712
vt 0.609395 0.088890
vt 0.747927 0.087213
vt 0.613383 0.350912
vt 0.744080 0.352210
vt 0.908932 0.070260
vt 0.774168 0.038394
vt 0.793728 0.021283
vt 0.971498 0.044277
vt 0.770831 0.006199
vt 0.977777 0.017005
vt 0.901194 0.080045
vt 0.763638 0.045053
vt 0.908030 0.069953
vt 0.969758 0.044238
vt 0.794472 0.021596
vt 0.775119 0.038459
vt 0.975959 0.017317
vt 0.771848 0.006707
vt 0.900385 0.079605
vt 0.764721 0.045027
vt 0.517584 0.044084
vt 0.517584 0.011447
vt 0.583379 0.011447
vt 0.583379 0.054615
vt 0.548829 0.044084
vt 0.548829 0.011447
vt 0.519603 0.012063
vt 0.519603 0.044701
vt 0.912008 0.466033
vt 0.882516 0.111240
vt 0.908888 0.082926
vt 0.942693 0.489604
vt 0.886208 0.468177
vt 0.856716 0.113385
vt 0.942341 0.489633
vt 0.908536 0.082956
vt 0.944180 0.079993
vt 0.977985 0.486670
vt 0.887112 0.468045
vt 0.857620 0.113252
vt 0.884569 0.111012
vt 0.914061 0.465805
vt 0.550849 0.044701
vt 0.550849 0.012063
vt 0.585399 0.012064
vt 0.585399 0.055231
vn -0.000008 0.000000 1.000000
vn -0.000008 0.000000 1.000000
vn -0.000017 0.000000 1.000000
vn -0.000017 0.000000 1.000000
vn 0.000000 0.000000 1.000000
vn 0.000000 0.000000 1.000000
vn 0.000000 0.000000 1.000000
vn 0.000000 0.000000 1.000000
vn 0.000000 0.967524 0.252778
vn 0.000000 0.967524 0.252778
vn 0.000000 0.967524 0.252778
vn 0.000000 0.967524 0.252778
vn -1.000000 0.000000 0.000000
vn -1.000000 0.000000 0.000000
vn -1.000000 0.000000 0.000000
vn -1.000000 0.000000 0.000000
vn 1.000000 0.000000 0.000000
vn 1.000000 0.000000 0.000000
vn 1.000000 0.000000 0.000000
vn 1.000000 0.000000 0.000000
vn 0.000000 -1.000000 0.000000
vn 0.000000 -1.000000 0.000000
vn 0.000000 -1.000000 0.000000
vn 0.000000 -1.000000 0.000000
vn 0.000008 0.000000 1.000000
vn 0.000008 0.000000 1.000000
vn 0.000017 0.000000 1.000000
vn 0.000017 0.000000 1.000000
vn 0.000000 -0.147384 0.989079
vn 0.000000 -0.147384 0.989079
vn 0.000000 -0.291548 0.956556
vn 0.000000 -0.291548 0.956556
vn 0.000000 1.000000 0.000000
vn 0.000000 1.000000 0.000000
vn 0.000000 1.000000 0.000000
vn 0.000000 1.000000 0.000000
vn 0.000000 -1.000000 0.000000
vn 0.000000 -1.000000 0.000000
vn 0.000000 -1.000000 0.000000
vn 0.000000 -1.000000 0.000000
vn 0.739864 -0.672757 0.000000
vn 0.739864 -0.672757 0.000000
vn 0.739864 -0.672757 0.000000
vn 0.739864 -0.672757 0.000000
vn -0.739813 -0.672812 0.000000
vn -0.739813 -0.672812 0.000000
vn -0.739813 -0.672812 0.000000
vn -0.739813 -0.672812 0.000000
vn 1.000000 0.000000 0.000000
vn 1.000000 0.000000 0.000000
vn 1.000000 0.000000 0.000000
vn 1.000000 0.000000 0.000000
vn 0.000000 0.000000 1.000000
vn 0.000000 0.000000 1.000000
vn -1.000000 0.000000 0.000000
vn -1.000000 0.000000 0.000000
vn -1.000000 0.000000 0.000000
vn -1.000000 0.000000 0.000000
vn 0.179479 -0.430564 0.884535
vn 0.179479 -0.430564 0.884535
vn 0.179479 -0.430564 0.884535
vn 0.179479 -0.430564 0.884535
vn -0.392516 0.919745 0.000000
vn -0.392516 0.919745 0.000000
vn -0.392516 0.919745 0.000000
vn -0.392516 0.919745 0.000000
vn 0.372676 -0.927961 0.000000
vn 0.372676 -0.927961 0.000000
vn 0.372676 -0.927961 0.000000
vn 0.372676 -0.927961 0.000000
vn 0.999999 0.001056 0.000000
vn 0.999999 0.001056 0.000000
vn 0.999999 0.001056 0.000000
vn 0.999999 0.001056 0.000000
vn -0.179460 -0.430574 0.884534
vn -0.179460 -0.430574 0.884534
vn -0.179460 -0.430574 0.884534
vn -0.179460 -0.430574 0.884534
vn 0.392510 0.919748 0.000000
vn 0.392510 0.919748 0.000000
vn 0.392510 0.919748 0.000000
vn 0.392510 0.919748 0.000000
vn -0.372676 -0.927961 0.000000
vn -0.372676 -0.927961 0.000000
vn -0.372676 -0.927961 0.000000
vn -0.372676 -0.927961 0.000000
vn -0.999999 0.001122 0.000000
vn -0.999999 0.001122 0.000000
vn -0.999999 0.001122 0.000000
vn -0.999999 0.001122 0.000000
s 1
g polySurface178
usemtl lambert30SG
f 7/7/1 2/2/2 3/3/3 5/5/4
s off
f 10/10/5 12/12/6 11/11/7 9/9/8
f 9/9/9 5/5/10 6/6/11 10/10/12
f 10/10/13 6/6/14 8/8/15 12/12/16
f 9/9/17 11/11/18 7/7/19 5/5/20
f 11/11/21 12/12/22 8/8/23 7/7/24
s 1
f 8/8/25 1/1/26 2/2/2 7/7/1
f 4/4/27 1/1/26 8/8/25 6/6/28
s 7
f 13/37/29 14/38/30 16/39/31 15/40/32
s off
f 15/43/33 16/44/34 18/45/35 17/46/36
f 21/47/37 22/48/38 23/49/39 24/50/40
f 14/51/41 20/52/42 18/53/43 16/54/44
f 19/34/45 13/33/46 15/32/47 17/31/48
f 20/52/49 14/51/50 23/36/51 22/35/52
s 7
f 14/38/30 13/37/29 24/41/53 23/42/54
s off
f 13/33/55 19/34/56 21/30/57 24/29/58
f 25/13/59 26/14/60 28/15/61 27/16/62
f 27/16/63 28/15/64 30/17/65 29/18/66
f 31/19/67 32/20/68 26/14/69 25/13/70
f 26/14/71 32/20/72 30/17/73 28/15/74
f 33/21/75 35/22/76 36/23/77 34/24/78
f 35/22/79 37/25/80 38/26/81 36/23/82
f 39/27/83 33/21/84 34/24/85 40/28/86
f 34/24/87 36/23/88 38/26/89 40/28/90
