# This file uses centimeters as units for non-parametric coordinates.

mtllib treeHole_1_v3.mtl
g default
v -0.400000 0.000000 0.400000
v 0.400000 0.000000 0.400000
v -0.400000 0.071528 0.400000
v 0.400000 0.071528 0.400000
v -0.400000 0.071528 -0.400000
v 0.400000 0.071528 -0.400000
v -0.400000 0.000000 -0.400000
v 0.400000 0.000000 -0.400000
v 0.000000 0.049910 0.000000
vt -0.000000 0.001724
vt 1.000000 0.001724
vt 1.000000 0.122296
vt -0.000000 0.122296
vt -0.000000 -0.122554
vt 1.000000 -0.122554
vt 1.000000 0.004795
vt -0.000000 0.004795
vt 1.000000 0.001724
vt -0.000000 0.001724
vt -0.000000 0.122296
vt 1.000000 0.122296
vt 0.500000 0.500000
vt -0.000000 -0.000000
vt 1.000000 -0.000000
vt 1.000000 1.000000
vt -0.000000 1.000000
vt -0.000000 0.004795
vt 1.000000 0.004795
vt 1.000000 -0.122554
vt -0.000000 -0.122554
vn 0.000000 0.000000 1.000000
vn 0.000000 0.000000 1.000000
vn 0.000000 0.000000 1.000000
vn 0.000000 0.000000 1.000000
vn 0.000000 1.000000 0.000000
vn 0.027004 0.999271 -0.027004
vn -0.027004 0.999271 -0.027004
vn -0.027004 0.999271 0.027004
vn 0.027004 0.999271 0.027004
vn 0.000000 0.000000 -1.000000
vn 0.000000 0.000000 -1.000000
vn 0.000000 0.000000 -1.000000
vn 0.000000 0.000000 -1.000000
vn 1.000000 0.000000 0.000000
vn 1.000000 0.000000 0.000000
vn 1.000000 0.000000 0.000000
vn 1.000000 0.000000 0.000000
vn -1.000000 0.000000 0.000000
vn -1.000000 0.000000 0.000000
vn -1.000000 0.000000 0.000000
vn -1.000000 0.000000 0.000000
g treeHole_1_v3
usemtl exteriorAssets_v8:lambert141SG
f 1/5/1 2/6/2 4/7/3 3/8/4
f 9/13/5 3/14/6 4/15/7
f 9/13/5 4/15/7 6/16/8
f 9/13/5 6/16/8 5/17/9
f 9/13/5 5/17/9 3/14/6
f 5/18/10 6/19/11 8/20/12 7/21/13
f 2/1/14 8/2/15 6/3/16 4/4/17
f 7/9/18 1/10/19 3/11/20 5/12/21
