# This file uses meters as units for non-parametric coordinates.

v 46.193974 -50.000000 -19.134142
v 35.355347 -50.000000 -35.355312
v 19.134188 -50.000000 -46.193954
v 0.000022 -50.000000 -49.999985
v -19.134148 -50.000000 -46.193974
v -35.355316 -50.000000 -35.355343
v -46.193962 -50.000000 -19.134184
v -49.999992 -50.000000 -0.000015
v -46.193974 -50.000000 19.134157
v -35.355343 -50.000000 35.355328
v -19.134178 -50.000000 46.193970
v -0.000008 -50.000000 49.999996
v 19.134165 -50.000000 46.193977
v 35.355335 -50.000000 35.355343
v 46.193974 -50.000000 19.134172
v 50.000000 -50.000000 0.000000
v 46.193974 50.000000 -19.134142
v 35.355347 50.000000 -35.355312
v 19.134188 50.000000 -46.193954
v 0.000022 50.000000 -49.999985
v -19.134148 50.000000 -46.193974
v -35.355316 50.000000 -35.355343
v -46.193962 50.000000 -19.134184
v -49.999992 50.000000 -0.000015
v -46.193974 50.000000 19.134157
v -35.355343 50.000000 35.355328
v -19.134178 50.000000 46.193970
v -0.000008 50.000000 49.999996
v 19.134165 50.000000 46.193977
v 35.355335 50.000000 35.355343
v 46.193974 50.000000 19.134172
v 50.000000 50.000000 0.000000
vt 0.000000 0.159155
vt 0.062500 0.159155
vt 0.125000 0.159155
vt 0.187500 0.159155
vt 0.250000 0.159155
vt 0.312500 0.159155
vt 0.375000 0.159155
vt 0.437500 0.159155
vt 0.500000 0.159155
vt 0.562500 0.159155
vt 0.625000 0.159155
vt 0.687500 0.159155
vt 0.750000 0.159155
vt 0.812500 0.159155
vt 0.875000 0.159155
vt 0.937500 0.159155
vt 1.000000 0.159155
vt 0.000000 0.477465
vt 0.062500 0.477465
vt 0.125000 0.477465
vt 0.187500 0.477465
vt 0.250000 0.477465
vt 0.312500 0.477465
vt 0.375000 0.477465
vt 0.437500 0.477465
vt 0.500000 0.477465
vt 0.562500 0.477465
vt 0.625000 0.477465
vt 0.687500 0.477465
vt 0.750000 0.477465
vt 0.812500 0.477465
vt 0.875000 0.477465
vt 0.937500 0.477465
vt 1.000000 0.477465
vn 0.923880 -0.000000 -0.382683
vn 0.707107 0.000000 -0.707106
vn 0.707107 0.000000 -0.707106
vn 0.923880 -0.000000 -0.382683
vn 0.382684 0.000000 -0.923879
vn 0.382684 0.000000 -0.923879
vn 0.000001 -0.000000 -1.000000
vn 0.000001 -0.000000 -1.000000
vn -0.382683 0.000000 -0.923880
vn -0.382683 0.000000 -0.923880
vn -0.707106 0.000000 -0.707107
vn -0.707106 0.000000 -0.707107
vn -0.923879 -0.000000 -0.382684
vn -0.923879 -0.000000 -0.382684
vn -1.000000 -0.000000 -0.000000
vn -1.000000 -0.000000 -0.000000
vn -0.923880 -0.000000 0.382683
vn -0.923880 -0.000000 0.382683
vn -0.707107 -0.000000 0.707107
vn -0.707107 -0.000000 0.707107
vn -0.382684 -0.000000 0.923879
vn -0.382684 -0.000000 0.923879
vn -0.000000 -0.000000 1.000000
vn -0.000000 -0.000000 1.000000
vn 0.382683 0.000000 0.923880
vn 0.382683 0.000000 0.923880
vn 0.707107 -0.000000 0.707107
vn 0.707107 -0.000000 0.707107
vn 0.923880 -0.000000 0.382683
vn 0.923880 -0.000000 0.382683
vn 1.000000 -0.000000 -0.000000
vn 1.000000 -0.000000 -0.000000
vn 0.000000 -1.000000 0.000000
vn 0.000000 -1.000000 0.000000
vn 0.000000 -1.000000 0.000000
vn 0.000000 -1.000000 0.000000
vn 0.000000 -1.000000 0.000000
vn 0.000000 -1.000000 0.000000
vn 0.000000 -1.000000 0.000000
vn 0.000000 -1.000000 0.000000
vn 0.000000 -1.000000 0.000000
vn 0.000000 -1.000000 0.000000
vn 0.000000 -1.000000 0.000000
vn 0.000000 -1.000000 0.000000
vn 0.000000 -1.000000 0.000000
vn 0.000000 -1.000000 0.000000
vn 0.000000 -1.000000 0.000000
vn 0.000000 -1.000000 0.000000
vn 0.000000 1.000000 -0.000000
vn 0.000000 1.000000 -0.000000
vn 0.000000 1.000000 -0.000000
vn 0.000000 1.000000 -0.000000
vn 0.000000 1.000000 -0.000000
vn 0.000000 1.000000 -0.000000
vn 0.000000 1.000000 -0.000000
vn 0.000000 1.000000 -0.000000
vn 0.000000 1.000000 -0.000000
vn 0.000000 1.000000 -0.000000
vn 0.000000 1.000000 -0.000000
vn 0.000000 1.000000 -0.000000
vn 0.000000 1.000000 -0.000000
vn 0.000000 1.000000 -0.000000
vn 0.000000 1.000000 -0.000000
vn 0.000000 1.000000 -0.000000
g pCylinder1
f 1/1/1 2/2/2 18/19/3 17/18/4
f 2/2/2 3/3/5 19/20/6 18/19/3
f 3/3/5 4/4/7 20/21/8 19/20/6
f 4/4/7 5/5/9 21/22/10 20/21/8
f 5/5/9 6/6/11 22/23/12 21/22/10
f 6/6/11 7/7/13 23/24/14 22/23/12
f 7/7/13 8/8/15 24/25/16 23/24/14
f 8/8/15 9/9/17 25/26/18 24/25/16
f 9/9/17 10/10/19 26/27/20 25/26/18
f 10/10/19 11/11/21 27/28/22 26/27/20
f 11/11/21 12/12/23 28/29/24 27/28/22
f 12/12/23 13/13/25 29/30/26 28/29/24
f 13/13/25 14/14/27 30/31/28 29/30/26
f 14/14/27 15/15/29 31/32/30 30/31/28
f 15/15/29 16/16/31 32/33/32 31/32/30
f 16/16/31 1/17/1 17/34/4 32/33/32
f 1/1/33 16/2/34 15/3/35 14/4/36 13/5/37 12/6/38 11/7/39 10/8/40 9/9/41 8/10/42 7/11/43 6/12/44 5/13/45 4/14/46 3/15/47 2/16/48
f 17/18/49 18/19/50 19/20/51 20/21/52 21/22/53 22/23/54 23/24/55 24/25/56 25/26/57 26/27/58 27/28/59 28/29/60 29/30/61 30/31/62 31/32/63 32/33/64
