# This file uses meters as units for non-parametric coordinates.

v 2.897777 -10.000000 -0.776457
v 2.598076 -10.000000 -1.499999
v 2.332006 10.000000 -1.346384
v 2.601015 10.000000 -0.696940
v 2.121320 -10.000000 -2.121320
v 1.904075 10.000000 -1.904074
v 1.500000 -10.000000 -2.598075
v 1.346384 10.000000 -2.332006
v 0.776457 -10.000000 -2.897777
v 0.696940 10.000000 -2.601015
v 0.000000 -10.000000 -2.999999
v 0.000000 10.000000 -2.692769
v -0.776457 -10.000000 -2.897777
v -0.696940 10.000000 -2.601015
v -1.500000 -10.000000 -2.598076
v -1.346384 10.000000 -2.332006
v -2.121320 -10.000000 -2.121320
v -1.904075 10.000000 -1.904075
v -2.598076 -10.000000 -1.500000
v -2.332006 10.000000 -1.346384
v -2.897777 -10.000000 -0.776457
v -2.601015 10.000000 -0.696940
v -3.000000 -10.000000 0.000000
v -2.692770 10.000000 0.000000
v -2.897777 -10.000000 0.776457
v -2.601016 10.000000 0.696940
v -2.598076 -10.000000 1.500000
v -2.332006 10.000000 1.346384
v -2.121320 -10.000000 2.121320
v -1.904075 10.000000 1.904075
v -1.500000 -10.000000 2.598076
v -1.346384 10.000000 2.332007
v -0.776457 -10.000000 2.897777
v -0.696940 10.000000 2.601016
v 0.000000 -10.000000 3.000000
v 0.000000 10.000000 2.692770
v 0.776457 -10.000000 2.897778
v 0.696940 10.000000 2.601016
v 1.500000 -10.000000 2.598076
v 1.346384 10.000000 2.332007
v 2.121320 -10.000000 2.121320
v 1.904075 10.000000 1.904075
v 2.598076 -10.000000 1.500000
v 2.332007 10.000000 1.346385
v 2.897778 -10.000000 0.776457
v 2.601016 10.000000 0.696940
v 3.000000 -10.000000 0.000000
v 2.692770 10.000000 0.000000
vt 0.000000 0.115385
vt 0.030208 0.115385
vt 0.030208 0.884615
vt 0.000000 0.884615
vt 0.060415 0.115385
vt 0.060415 0.884615
vt 0.090623 0.115385
vt 0.090623 0.884615
vt 0.120830 0.115385
vt 0.120830 0.884615
vt 0.151038 0.115385
vt 0.151038 0.884615
vt 0.181246 0.115385
vt 0.181246 0.884615
vt 0.211453 0.115385
vt 0.211453 0.884615
vt 0.241661 0.115385
vt 0.241661 0.884615
vt 0.271869 0.115385
vt 0.271869 0.884615
vt 0.302076 0.115385
vt 0.302076 0.884615
vt 0.332284 0.115385
vt 0.332284 0.884615
vt 0.362491 0.115385
vt 0.362491 0.884615
vt 0.392699 0.115385
vt 0.392699 0.884615
vt 0.422907 0.115385
vt 0.422907 0.884615
vt 0.453114 0.115385
vt 0.453114 0.884615
vt 0.483322 0.115385
vt 0.483322 0.884615
vt 0.513530 0.115385
vt 0.513530 0.884615
vt 0.543737 0.115385
vt 0.543737 0.884615
vt 0.573945 0.115385
vt 0.573945 0.884615
vt 0.604153 0.115385
vt 0.604153 0.884615
vt 0.634360 0.115385
vt 0.634360 0.884615
vt 0.664568 0.115385
vt 0.664568 0.884615
vt 0.694775 0.115385
vt 0.694775 0.884615
vt 0.724983 0.115385
vt 0.724983 0.884615
vt 0.030208 0.115385
vt 0.060415 0.115385
vt 0.090623 0.115385
vt 0.120830 0.115385
vt 0.151038 0.115385
vt 0.181246 0.115385
vt 0.211453 0.115385
vt 0.241661 0.115385
vt 0.271869 0.115385
vt 0.302076 0.115385
vt 0.332284 0.115385
vt 0.392699 0.115385
vt 0.422907 0.115385
vt 0.453114 0.115385
vt 0.483322 0.115385
vt 0.513530 0.115385
vt 0.543737 0.115385
vt 0.573945 0.115385
vt 0.604153 0.115385
vt 0.634360 0.115385
vt 0.664568 0.115385
vt 0.694775 0.115385
vn 0.965902 0.006993 -0.258813
vn 0.866004 0.006993 -0.499988
vn 0.866004 0.006993 -0.499988
vn 0.965902 0.006993 -0.258813
vn 0.866004 0.006993 -0.499988
vn 0.707090 0.006993 -0.707089
vn 0.707090 0.006993 -0.707089
vn 0.866004 0.006993 -0.499988
vn 0.707090 0.006993 -0.707089
vn 0.499988 0.006993 -0.866004
vn 0.499988 0.006993 -0.866004
vn 0.707090 0.006993 -0.707089
vn 0.499988 0.006993 -0.866004
vn 0.258813 0.006993 -0.965902
vn 0.258813 0.006993 -0.965902
vn 0.499988 0.006993 -0.866004
vn 0.258813 0.006993 -0.965902
vn 0.000000 0.006993 -0.999976
vn 0.000000 0.006993 -0.999976
vn 0.258813 0.006993 -0.965902
vn 0.000000 0.006993 -0.999976
vn -0.258813 0.006993 -0.965902
vn -0.258813 0.006993 -0.965902
vn 0.000000 0.006993 -0.999976
vn -0.258813 0.006993 -0.965902
vn -0.499987 0.006993 -0.866005
vn -0.499987 0.006993 -0.866005
vn -0.258813 0.006993 -0.965902
vn -0.499987 0.006993 -0.866005
vn -0.707089 0.006993 -0.707090
vn -0.707089 0.006993 -0.707090
vn -0.499987 0.006993 -0.866005
vn -0.707089 0.006993 -0.707090
vn -0.866004 0.006993 -0.499988
vn -0.866004 0.006993 -0.499988
vn -0.707089 0.006993 -0.707090
vn -0.866004 0.006993 -0.499988
vn -0.965902 0.006993 -0.258813
vn -0.965902 0.006993 -0.258813
vn -0.866004 0.006993 -0.499988
vn -0.965902 0.006993 -0.258813
vn -0.999976 0.006993 -0.000000
vn -0.999976 0.006993 -0.000000
vn -0.965902 0.006993 -0.258813
vn -0.999976 0.006993 -0.000000
vn -0.965902 0.006993 0.258813
vn -0.965902 0.006993 0.258813
vn -0.999976 0.006993 -0.000000
vn -0.965902 0.006993 0.258813
vn -0.866004 0.006993 0.499988
vn -0.866004 0.006993 0.499988
vn -0.965902 0.006993 0.258813
vn -0.866004 0.006993 0.499988
vn -0.707090 0.006993 0.707089
vn -0.707090 0.006993 0.707089
vn -0.866004 0.006993 0.499988
vn -0.707090 0.006993 0.707089
vn -0.499988 0.006993 0.866004
vn -0.499988 0.006993 0.866004
vn -0.707090 0.006993 0.707089
vn -0.499988 0.006993 0.866004
vn -0.258813 0.006993 0.965902
vn -0.258813 0.006993 0.965902
vn -0.499988 0.006993 0.866004
vn -0.258813 0.006993 0.965902
vn 0.000000 0.006993 0.999976
vn 0.000000 0.006993 0.999976
vn -0.258813 0.006993 0.965902
vn 0.000000 0.006993 0.999976
vn 0.258813 0.006993 0.965902
vn 0.258813 0.006993 0.965902
vn 0.000000 0.006993 0.999976
vn 0.258813 0.006993 0.965902
vn 0.499988 0.006993 0.866004
vn 0.499988 0.006993 0.866004
vn 0.258813 0.006993 0.965902
vn 0.499988 0.006993 0.866004
vn 0.707089 0.006993 0.707090
vn 0.707089 0.006993 0.707090
vn 0.499988 0.006993 0.866004
vn 0.707089 0.006993 0.707090
vn 0.866004 0.006993 0.499988
vn 0.866004 0.006993 0.499988
vn 0.707089 0.006993 0.707090
vn 0.866004 0.006993 0.499988
vn 0.965902 0.006993 0.258813
vn 0.965902 0.006993 0.258813
vn 0.866004 0.006993 0.499988
vn 0.965902 0.006993 0.258813
vn 0.999976 0.006993 -0.000001
vn 0.999976 0.006993 -0.000001
vn 0.965902 0.006993 0.258813
vn 0.999976 0.006993 -0.000001
vn 0.965902 0.006993 -0.258813
vn 0.965902 0.006993 -0.258813
vn 0.999976 0.006993 -0.000001
vn 0.000000 -1.000000 0.000000
vn 0.000000 -1.000000 0.000000
vn 0.000000 -1.000000 0.000000
vn 0.000000 -1.000000 0.000000
vn 0.000000 -1.000000 0.000000
vn 0.000000 -1.000000 0.000000
vn 0.000000 -1.000000 0.000000
vn 0.000000 -1.000000 0.000000
vn 0.000000 -1.000000 0.000000
vn 0.000000 -1.000000 0.000000
vn 0.000000 -1.000000 0.000000
vn 0.000000 -1.000000 0.000000
vn 0.000000 -1.000000 0.000000
vn 0.000000 -1.000000 0.000000
vn 0.000000 -1.000000 0.000000
vn 0.000000 -1.000000 0.000000
vn 0.000000 -1.000000 0.000000
vn 0.000000 -1.000000 0.000000
vn 0.000000 -1.000000 0.000000
vn 0.000000 -1.000000 0.000000
vn 0.000000 -1.000000 0.000000
vn 0.000000 -1.000000 0.000000
vn 0.000000 -1.000000 0.000000
vn 0.000000 -1.000000 0.000000
vn 0.000000 1.000000 0.000000
vn 0.000000 1.000000 0.000000
vn 0.000000 1.000000 0.000000
vn 0.000000 1.000000 0.000000
vn 0.000000 1.000000 0.000000
vn 0.000000 1.000000 0.000000
vn 0.000000 1.000000 0.000000
vn 0.000000 1.000000 0.000000
vn 0.000000 1.000000 0.000000
vn 0.000000 1.000000 0.000000
vn 0.000000 1.000000 0.000000
vn 0.000000 1.000000 0.000000
vn 0.000000 1.000000 0.000000
vn 0.000000 1.000000 0.000000
vn 0.000000 1.000000 0.000000
vn 0.000000 1.000000 0.000000
vn 0.000000 1.000000 0.000000
vn 0.000000 1.000000 0.000000
vn 0.000000 1.000000 0.000000
vn 0.000000 1.000000 0.000000
vn 0.000000 1.000000 0.000000
vn 0.000000 1.000000 0.000000
vn 0.000000 1.000000 0.000000
vn 0.000000 1.000000 0.000000
g shaft
f 1/1/1 2/2/2 3/3/3 4/4/4
f 2/2/5 5/5/6 6/6/7 3/3/8
f 5/5/9 7/7/10 8/8/11 6/6/12
f 7/7/13 9/9/14 10/10/15 8/8/16
f 9/9/17 11/11/18 12/12/19 10/10/20
f 11/11/21 13/13/22 14/14/23 12/12/24
f 13/13/25 15/15/26 16/16/27 14/14/28
f 15/15/29 17/17/30 18/18/31 16/16/32
f 17/17/33 19/19/34 20/20/35 18/18/36
f 19/19/37 21/21/38 22/22/39 20/20/40
f 21/21/41 23/23/42 24/24/43 22/22/44
f 23/23/45 25/25/46 26/26/47 24/24/48
f 25/25/49 27/27/50 28/28/51 26/26/52
f 27/27/53 29/29/54 30/30/55 28/28/56
f 29/29/57 31/31/58 32/32/59 30/30/60
f 31/31/61 33/33/62 34/34/63 32/32/64
f 33/33/65 35/35/66 36/36/67 34/34/68
f 35/35/69 37/37/70 38/38/71 36/36/72
f 37/37/73 39/39/74 40/40/75 38/38/76
f 39/39/77 41/41/78 42/42/79 40/40/80
f 41/41/81 43/43/82 44/44/83 42/42/84
f 43/43/85 45/45/86 46/46/87 44/44/88
f 45/45/89 47/47/90 48/48/91 46/46/92
f 47/47/93 1/49/94 4/50/95 48/48/96
f 1/1/97 47/51/98 45/52/99 43/53/100 41/54/101 39/55/102 37/56/103 35/57/104 33/58/105 31/59/106 29/60/107 27/61/108 25/25/109 23/62/110 21/63/111 19/64/112 17/65/113 15/66/114 13/67/115 11/68/116 9/69/117 7/70/118 5/71/119 2/72/120
f 4/4/121 3/3/122 6/6/123 8/8/124 10/10/125 12/12/126 14/14/127 16/16/128 18/18/129 20/20/130 22/22/131 24/24/132 26/26/133 28/28/134 30/30/135 32/32/136 34/34/137 36/36/138 38/38/139 40/40/140 42/42/141 44/44/142 46/46/143 48/48/144
