# This file uses meters as units for non-parametric coordinates.

v 7.500000 -49.400002 -9.400000
v 7.500000 49.400002 -9.400000
v 7.500000 49.400002 9.400000
v 7.500000 -49.400002 9.400000
v 6.900000 49.400002 10.000000
v -6.900000 49.400002 10.000000
v -6.900000 -49.400002 10.000000
v 6.900000 -49.400002 10.000000
v -6.900000 -50.000000 9.400000
v -6.900000 -50.000000 -9.400000
v 6.900000 -50.000000 -9.400000
v 6.900000 -50.000000 9.400000
v 6.900000 50.000000 -9.400000
v -6.900000 50.000000 -9.400000
v -6.900000 50.000000 9.400000
v 6.900000 50.000000 9.400000
v -7.500000 49.400002 9.400000
v -7.500000 49.400002 -9.400000
v -7.500000 -49.400002 -9.400000
v -7.500000 -49.400002 9.400000
v -6.900000 49.400002 -10.000000
v 6.900000 49.400002 -10.000000
v 6.900000 -49.400002 -10.000000
v -6.900000 -49.400002 -10.000000
vt 1.965525 0.976618
vt -0.026333 0.974501
vt -0.025519 0.853184
vt 1.966341 0.855300
vt -0.026362 0.978557
vt -0.025538 0.855744
vt 1.966322 0.857860
vt 1.965496 0.980673
vt 0.025472 0.869521
vt 0.430939 0.869924
vt 0.430341 0.958977
vt 0.024875 0.958573
vt 0.773492 0.959134
vt 0.774091 0.870082
vt 1.179558 0.870484
vt 1.178958 0.959536
vt -0.039275 0.974738
vt -0.038461 0.853421
vt 1.953399 0.855537
vt 1.952584 0.976855
vt -0.039303 0.978799
vt -0.038462 0.853994
vt 1.953394 0.856111
vt 1.952552 0.980916
vt 1.979282 0.855313
vt 1.978467 0.976631
vt 1.966365 0.851428
vt -0.025495 0.849312
vt 1.978437 0.980686
vt 1.979263 0.857874
vt -0.038460 0.853171
vt -0.039274 0.974488
vt -0.039301 0.978544
vt -0.038476 0.855730
vt 0.025497 0.865649
vt 0.430965 0.866053
vt 1.966359 0.852520
vt -0.025500 0.850404
vt 1.179585 0.866612
vt 0.774113 0.866210
vt 0.443884 0.869937
vt 0.443280 0.958990
vt 1.953425 0.851666
vt -0.038434 0.849549
vt 0.761146 0.870069
vt 0.760547 0.959121
vt 1.965496 0.980489
vt -0.026360 0.978374
vn 1.000000 -0.000000 0.000000
vn 1.000000 -0.000000 0.000000
vn 1.000000 -0.000000 0.000000
vn 1.000000 -0.000000 0.000000
vn 0.000000 0.000000 1.000000
vn 0.000000 0.000000 1.000000
vn 0.000000 0.000000 1.000000
vn 0.000000 0.000000 1.000000
vn -0.000000 -1.000000 0.000000
vn -0.000000 -1.000000 0.000000
vn -0.000000 -1.000000 0.000000
vn -0.000000 -1.000000 0.000000
vn 0.000000 1.000000 0.000000
vn 0.000000 1.000000 0.000000
vn 0.000000 1.000000 0.000000
vn 0.000000 1.000000 0.000000
vn -1.000000 0.000000 0.000000
vn -1.000000 0.000000 0.000000
vn -1.000000 0.000000 0.000000
vn -1.000000 0.000000 0.000000
vn 0.000000 0.000000 -1.000000
vn 0.000000 0.000000 -1.000000
vn 0.000000 0.000000 -1.000000
vn 0.000000 0.000000 -1.000000
vn 0.707105 -0.707108 0.000000
vn 0.707105 -0.707108 0.000000
vn 0.707105 -0.707108 0.000000
vn 0.707105 -0.707108 0.000000
vn 0.707107 -0.000000 0.707106
vn 0.707107 -0.000000 0.707106
vn 0.707107 -0.000000 0.707106
vn 0.707107 -0.000000 0.707106
vn -0.000000 -0.707108 0.707106
vn -0.000000 -0.707108 0.707106
vn -0.000000 -0.707108 0.707106
vn -0.000000 -0.707108 0.707106
vn 0.707107 0.707107 0.000000
vn 0.707107 0.707107 0.000000
vn 0.707107 0.707107 0.000000
vn 0.707107 0.707107 0.000000
vn 0.000000 0.707108 0.707106
vn 0.000000 0.707108 0.707106
vn 0.000000 0.707108 0.707106
vn 0.000000 0.707108 0.707106
vn -0.707107 -0.707107 -0.000000
vn -0.707107 -0.707107 -0.000000
vn -0.707107 -0.707107 -0.000000
vn -0.707107 -0.707107 -0.000000
vn -0.707107 0.000000 0.707106
vn -0.707107 0.000000 0.707106
vn -0.707107 0.000000 0.707106
vn -0.707107 0.000000 0.707106
vn -0.707105 0.707108 0.000000
vn -0.707105 0.707108 0.000000
vn -0.707105 0.707108 0.000000
vn -0.707105 0.707108 0.000000
vn -0.000000 -0.707108 -0.707106
vn -0.000000 -0.707108 -0.707106
vn -0.000000 -0.707108 -0.707106
vn -0.000000 -0.707108 -0.707106
vn -0.707107 0.000000 -0.707106
vn -0.707107 0.000000 -0.707106
vn -0.707107 0.000000 -0.707106
vn -0.707107 0.000000 -0.707106
vn 0.000000 0.707108 -0.707106
vn 0.000000 0.707108 -0.707106
vn 0.000000 0.707108 -0.707106
vn 0.000000 0.707108 -0.707106
vn 0.707107 -0.000000 -0.707106
vn 0.707107 -0.000000 -0.707106
vn 0.707107 -0.000000 -0.707106
vn 0.707107 -0.000000 -0.707106
vn 0.577350 -0.577351 0.577350
vn 0.577350 -0.577351 0.577350
vn 0.577350 -0.577351 0.577350
vn 0.577350 0.577351 0.577350
vn 0.577350 0.577351 0.577350
vn 0.577350 0.577351 0.577350
vn -0.577350 -0.577351 0.577350
vn -0.577350 -0.577351 0.577350
vn -0.577350 -0.577351 0.577350
vn -0.577350 0.577351 0.577350
vn -0.577350 0.577351 0.577350
vn -0.577350 0.577351 0.577350
vn -0.577348 -0.577352 -0.577350
vn -0.577348 -0.577352 -0.577350
vn -0.577348 -0.577352 -0.577350
vn -0.577348 0.577352 -0.577350
vn -0.577348 0.577352 -0.577350
vn -0.577348 0.577352 -0.577350
vn 0.577350 -0.577351 -0.577350
vn 0.577350 -0.577351 -0.577350
vn 0.577350 -0.577351 -0.577350
vn 0.577350 0.577351 -0.577350
vn 0.577350 0.577351 -0.577350
vn 0.577350 0.577351 -0.577350
g stone
f 1/1/1 2/2/2 3/3/3 4/4/4
f 5/5/5 6/6/6 7/7/7 8/8/8
f 9/9/9 10/10/10 11/11/11 12/12/12
f 13/13/13 14/14/14 15/15/15 16/16/16
f 17/17/17 18/18/18 19/19/19 20/20/20
f 21/21/21 22/22/22 23/23/23 24/24/24
f 4/4/25 12/25/26 11/26/27 1/1/28
f 8/27/29 4/4/30 3/3/31 5/28/32
f 12/29/33 8/8/34 7/7/35 9/30/36
f 16/31/37 3/3/38 2/2/39 13/32/40
f 5/5/41 16/33/42 15/34/43 6/6/44
f 9/9/45 20/35/46 19/36/47 10/10/48
f 20/37/49 7/7/50 6/6/51 17/38/52
f 17/39/53 15/15/54 14/14/55 18/40/56
f 10/10/57 24/41/58 23/42/59 11/11/60
f 24/43/61 19/19/62 18/18/63 21/44/64
f 21/45/65 14/14/66 13/13/67 22/46/68
f 1/1/69 23/47/70 22/48/71 2/2/72
f 12/25/73 4/4/74 8/27/75
f 3/3/76 16/31/77 5/28/78
f 20/37/79 9/30/80 7/7/81
f 15/34/82 17/38/83 6/6/84
f 24/41/85 10/10/86 19/36/87
f 14/14/88 21/45/89 18/40/90
f 1/1/91 11/26/92 23/47/93
f 13/32/94 2/2/95 22/48/96
