# This file uses centimeters as units for non-parametric coordinates.

mtllib bench_2_v1.mtl
g default
v 0.847803 -0.000000 0.335079
v 0.847803 -0.000000 -0.335079
v 0.847803 0.876346 0.335079
v 0.847803 0.876346 -0.335079
v -0.847803 -0.000000 0.335079
v -0.847803 -0.000000 -0.335079
v -0.847803 0.876346 0.335079
v -0.847803 0.876346 -0.335079
v 0.847803 0.317145 0.330323
v -0.847803 0.317145 0.330323
v 0.847803 0.360928 0.323529
v -0.847803 0.360928 0.323529
v 0.847803 0.393388 0.265403
v -0.847803 0.393388 0.265403
v 0.847803 0.323407 0.098040
v -0.847803 0.323407 0.098040
v 0.847803 0.320388 -0.034819
v -0.847803 0.323939 -0.022961
v 0.847803 0.355644 -0.090145
v -0.847803 0.355644 -0.090145
v 0.847803 0.407730 -0.143741
v -0.847803 0.407730 -0.143741
v 0.847803 0.510394 -0.198848
v -0.847803 0.510394 -0.198848
v 0.847803 0.662879 -0.243385
v -0.847803 0.662879 -0.243385
v 0.847803 0.844805 -0.269051
v -0.847803 0.844805 -0.269051
v 0.847803 0.859903 -0.289433
v -0.847803 0.859903 -0.289433
v 0.847803 0.865187 -0.329442
v -0.847803 0.865187 -0.329442
vt 0.396761 0.586212
vt 0.027772 0.586212
vt 0.027772 0.999135
vt 0.396761 0.999135
vt 0.396761 0.586212
vt 0.027772 0.586212
vt 0.027772 0.999135
vt 0.396761 0.999135
vt 0.004103 0.578622
vt 0.004103 0.526677
vt 0.997376 0.526677
vt 0.997375 0.578622
vt 0.004103 0.474733
vt 0.997376 0.474733
vt 0.004103 0.422789
vt 0.997376 0.422789
vt 0.004103 0.370844
vt 0.997375 0.370844
vt 0.004103 0.318900
vt 0.997376 0.318900
vt 0.004103 0.266955
vt 0.997376 0.266955
vt 0.004103 0.215011
vt 0.997376 0.215011
vt 0.004103 0.163067
vt 0.997376 0.163067
vt 0.004103 0.111122
vt 0.997376 0.111122
vt 0.004103 0.059178
vt 0.997376 0.059178
vt 0.004103 0.007234
vt 0.997376 0.007234
vn 1.000000 0.000000 0.000000
vn 1.000000 0.000000 0.000000
vn 1.000000 0.000000 0.000000
vn 1.000000 0.000000 0.000000
vn 1.000000 0.000000 0.000000
vn 1.000000 0.000000 0.000000
vn 1.000000 0.000000 0.000000
vn 1.000000 0.000000 0.000000
vn 0.000000 0.153337 0.988174
vn 0.000000 0.570997 0.820952
vn 0.000000 0.570997 0.820952
vn 0.000000 0.153337 0.988174
vn 0.000000 0.998397 0.056599
vn 0.000000 0.998397 0.056599
vn 0.000516 0.979482 -0.201531
vn 0.000516 0.979482 -0.201531
vn 0.001865 0.970086 0.242755
vn 0.001865 0.970086 0.242755
vn 0.001310 0.804678 0.593710
vn 0.001310 0.804678 0.593710
vn 0.000000 0.602120 0.798406
vn 0.000000 0.602120 0.798406
vn 0.000000 0.378708 0.925516
vn 0.000000 0.378708 0.925516
vn 0.000000 0.210576 0.977578
vn 0.000000 0.210576 0.977578
vn 0.000000 0.511304 0.859400
vn 0.000000 0.511304 0.859400
vn 0.000000 0.927012 0.375033
vn 0.000000 0.927012 0.375033
vn 0.000000 0.991390 0.130939
vn 0.000000 0.991390 0.130939
g bench_2_v1
usemtl lambert441SG
f 1/1/1 2/2/2 4/3/3 3/4/4
f 5/5/5 6/6/6 8/7/7 7/8/8
f 9/9/9 11/10/10 12/11/11 10/12/12
f 11/10/10 13/13/13 14/14/14 12/11/11
f 13/13/13 15/15/15 16/16/16 14/14/14
f 15/15/15 17/17/17 18/18/18 16/16/16
f 17/17/17 19/19/19 20/20/20 18/18/18
f 19/19/19 21/21/21 22/22/22 20/20/20
f 21/21/21 23/23/23 24/24/24 22/22/22
f 23/23/23 25/25/25 26/26/26 24/24/24
f 25/25/25 27/27/27 28/28/28 26/26/26
f 27/27/27 29/29/29 30/30/30 28/28/28
f 29/29/29 31/31/31 32/32/32 30/30/30
