# This file uses centimeters as units for non-parametric coordinates.

mtllib bench_4_v1.mtl
g default
v 0.831724 -0.000000 0.332836
v 0.831724 -0.000000 -0.417732
v 0.831724 1.006096 0.332836
v 0.831724 1.006096 -0.417732
v -0.831724 -0.000000 0.332836
v -0.831724 -0.000000 -0.417732
v -0.831724 1.006096 0.332836
v -0.831724 1.006096 -0.417732
v 0.831724 0.337245 0.268291
v -0.831724 0.337245 0.268291
v 0.831724 0.370768 0.234328
v -0.831724 0.370768 0.234328
v 0.831724 0.370768 -0.195926
v -0.831724 0.370768 -0.195926
v 0.831724 0.642857 -0.221553
v -0.831724 0.642857 -0.221553
v 0.831724 0.883440 -0.289395
v -0.831724 0.883440 -0.289395
v 0.831724 0.993538 -0.367986
v -0.831724 0.993538 -0.367986
vt 0.007901 0.530079
vt 0.354092 0.530079
vt 0.354092 0.999674
vt 0.007901 0.999674
vt 0.007901 0.530079
vt 0.354092 0.530079
vt 0.354092 0.999674
vt 0.007901 0.999674
vt 1.000000 0.000734
vt 0.000000 0.000734
vt 0.000000 0.019173
vt 1.000000 0.019173
vt 0.000000 0.252758
vt 1.000000 0.252758
vt 1.000000 -0.003461
vt 0.000000 -0.003461
vt 0.000000 0.204593
vt 1.000000 0.204593
vt 0.000000 0.388557
vt 1.000000 0.388557
vt 0.000000 0.472744
vt 1.000000 0.472744
vn 1.000000 0.000000 0.000000
vn 1.000000 0.000000 0.000000
vn 1.000000 0.000000 0.000000
vn 1.000000 0.000000 0.000000
vn 1.000000 0.000000 0.000000
vn 1.000000 0.000000 0.000000
vn 1.000000 0.000000 0.000000
vn 1.000000 0.000000 0.000000
vn 0.000000 -0.711701 -0.702483
vn 0.000000 -0.711701 -0.702483
vn 0.000000 -0.928386 -0.371616
vn 0.000000 -0.928386 -0.371616
vn 0.000000 -0.764014 -0.645200
vn 0.000000 -0.764014 -0.645200
vn 0.000000 -0.183559 -0.983009
vn 0.000000 -0.183559 -0.983009
vn 0.000000 -0.434249 -0.900793
vn 0.000000 -0.434249 -0.900793
vn 0.000000 -0.580990 -0.813910
vn 0.000000 -0.580990 -0.813910
g bench_4_v1
usemtl lambert448SG
f 1/1/1 2/2/2 4/3/3 3/4/4
f 5/5/5 6/6/6 8/7/7 7/8/8
f 9/9/9 10/10/10 12/11/11 11/12/12
f 11/12/12 12/11/11 14/13/13 13/14/14
f 13/15/14 14/16/13 16/17/15 15/18/16
f 15/18/16 16/17/15 18/19/17 17/20/18
f 17/20/18 18/19/17 20/21/19 19/22/20
