# This file uses centimeters as units for non-parametric coordinates.

mtllib horseHolder.mtl
v 0.074950 0.678662 -0.037100
v 0.074950 0.721233 -0.022929
v 0.074950 0.721233 0.022929
v 0.074950 0.678662 0.037100
v 0.074950 0.652352 0.000000
v 1.925050 0.678662 -0.037100
v 1.925050 0.721233 -0.022929
v 1.925050 0.721233 0.022929
v 1.925050 0.678662 0.037100
v 1.925050 0.652352 0.000000
v 0.193079 0.799591 -0.081159
v 0.193079 0.788288 -0.092462
v 0.181775 0.788288 -0.081159
v 0.181775 0.000000 -0.081159
v 0.193079 0.000000 -0.092462
v 0.193079 0.788288 0.080741
v 0.193079 0.799591 0.069438
v 0.181775 0.788288 0.069438
v 0.193079 0.000000 0.080741
v 0.181775 0.000000 0.069438
v 0.324212 0.788288 0.069438
v 0.312909 0.799591 0.069438
v 0.312909 0.788288 0.080741
v 0.324212 0.000000 0.069438
v 0.312909 0.000000 0.080741
v 0.312909 0.788288 -0.092462
v 0.312909 0.799591 -0.081159
v 0.324212 0.788288 -0.081159
v 0.312909 0.000000 -0.092462
v 0.324212 0.000000 -0.081159
v 1.714083 0.799591 -0.081159
v 1.714083 0.788288 -0.092462
v 1.702780 0.788288 -0.081159
v 1.702780 0.000000 -0.081159
v 1.714083 0.000000 -0.092462
v 1.714083 0.788288 0.080741
v 1.714083 0.799591 0.069438
v 1.702780 0.788288 0.069438
v 1.714083 0.000000 0.080741
v 1.702780 0.000000 0.069438
v 1.845217 0.788288 0.069438
v 1.833914 0.799591 0.069438
v 1.833914 0.788288 0.080741
v 1.845217 0.000000 0.069438
v 1.833914 0.000000 0.080741
v 1.833914 0.788288 -0.092462
v 1.833914 0.799591 -0.081159
v 1.845217 0.788288 -0.081159
v 1.833914 0.000000 -0.092462
v 1.845217 0.000000 -0.081159
vt 0.000000 0.849056
vt 0.000000 0.963513
vt 1.000000 0.963513
vt 1.000000 0.849056
vt 0.000000 -0.049389
vt 0.000000 -0.101818
vt 1.000000 -0.101818
vt 1.000000 -0.049389
vt 0.000000 0.963513
vt 0.000000 0.849056
vt 1.000000 0.849056
vt 1.000000 0.963513
vt 0.000000 -0.118020
vt 0.000000 -0.075604
vt 1.000000 -0.075604
vt 1.000000 -0.118020
vt 0.000000 -0.033187
vt 1.000000 -0.033187
vt 0.228309 0.982654
vt 0.060394 0.924436
vt 0.500000 0.888456
vt 0.939605 0.924436
vt 0.771691 0.982654
vt 0.228309 0.982654
vt 0.771691 0.982654
vt 0.939606 0.924436
vt 0.500000 0.888456
vt 0.060395 0.924436
vt 0.009894 0.023475
vt 0.009894 0.774558
vt 0.114784 0.774558
vt 0.114784 0.023475
vt 0.334965 0.062116
vt 0.334965 0.822159
vt 0.665035 0.822159
vt 0.665035 0.062116
vt 0.009894 0.099415
vt 0.114784 0.099415
vt 0.114784 0.678472
vt 0.009894 0.678471
vt 0.114784 0.023475
vt 0.114784 0.774559
vt 0.009894 0.774558
vt 0.009894 0.023475
vt 0.665035 0.062116
vt 0.665035 0.822159
vt 0.334965 0.822159
vt 0.334965 0.062116
vt 0.885216 0.023475
vt 0.885216 0.774558
vt 0.990106 0.774558
vt 0.990106 0.023475
vt 0.334965 0.062116
vt 0.334965 0.822159
vt 0.665035 0.822159
vt 0.665035 0.062116
vt 0.885216 0.099415
vt 0.990106 0.099415
vt 0.990106 0.678472
vt 0.885216 0.678472
vt 0.990106 0.023475
vt 0.990106 0.774558
vt 0.885216 0.774558
vt 0.885216 0.023475
vt 0.665035 0.062116
vt 0.665035 0.822159
vt 0.334965 0.822159
vt 0.334965 0.062116
vt 0.009894 0.783145
vt 0.114784 0.783145
vt 0.676206 0.822159
vt 0.676206 0.062116
vt 0.665035 0.830849
vt 0.334965 0.830849
vt 0.009894 0.783145
vt 0.114784 0.783145
vt 0.323794 0.822159
vt 0.323794 0.062116
vt 0.334965 0.830849
vt 0.665035 0.830849
vt 0.124678 0.774558
vt 0.124678 0.023475
vt 0.676206 0.822159
vt 0.676206 0.062116
vt 0.885216 0.783145
vt 0.990106 0.783145
vt 0.676206 0.822159
vt 0.676206 0.062116
vt 0.665035 0.830849
vt 0.334965 0.830849
vt 0.885216 0.783145
vt 0.990106 0.783145
vt 0.323794 0.822159
vt 0.323794 0.062116
vt 0.334965 0.830849
vt 0.665035 0.830849
vt 1.000000 0.774559
vt 1.000000 0.023475
vt 0.676206 0.822159
vt 0.676206 0.062116
vn 0.000000 -0.309017 -0.951056
vn 0.000000 0.809017 -0.587785
vn 0.525731 0.688191 -0.500000
vn 0.525731 -0.262865 -0.809017
vn 0.000000 0.809017 -0.587785
vn 0.000000 0.809017 0.587785
vn 0.525731 0.688191 0.500000
vn 0.525731 0.688191 -0.500000
vn 0.000000 0.809017 0.587785
vn 0.000000 -0.309017 0.951056
vn 0.525731 -0.262865 0.809017
vn 0.525731 0.688191 0.500000
vn 0.000000 -0.309017 0.951056
vn 0.000000 -1.000000 0.000000
vn 0.525731 -0.850651 0.000000
vn 0.525731 -0.262865 0.809017
vn 0.000000 -1.000000 0.000000
vn 0.000000 -0.309017 -0.951056
vn 0.525731 -0.262865 -0.809017
vn 0.525731 -0.850651 0.000000
vn 0.525731 0.688191 0.500000
vn 0.525731 -0.262865 0.809017
vn 0.525731 -0.850651 0.000000
vn 0.525731 -0.262865 -0.809017
vn 0.525731 0.688191 -0.500000
vn -1.000000 0.000000 0.000000
vn -1.000000 0.000000 0.000000
vn -1.000000 0.000000 0.000000
vn -1.000000 0.000000 0.000000
vn -1.000000 0.000000 0.000000
vn 0.000000 0.000000 -1.000000
vn 0.000000 0.000000 -1.000000
vn 0.000000 0.000000 -1.000000
vn 0.000000 0.000000 -1.000000
vn -1.000000 0.000000 0.000000
vn -1.000000 0.000000 0.000000
vn -1.000000 0.000000 0.000000
vn -1.000000 0.000000 0.000000
vn 0.000000 1.000000 0.000000
vn 0.000000 1.000000 0.000000
vn 0.000000 1.000000 0.000000
vn 0.000000 1.000000 0.000000
vn 0.000000 0.000000 1.000000
vn 0.000000 0.000000 1.000000
vn 0.000000 0.000000 1.000000
vn 0.000000 0.000000 1.000000
vn 1.000000 0.000000 0.000000
vn 1.000000 0.000000 0.000000
vn 1.000000 0.000000 0.000000
vn 1.000000 0.000000 0.000000
vn 0.000000 0.000000 -1.000000
vn 0.000000 0.000000 -1.000000
vn 0.000000 0.000000 -1.000000
vn 0.000000 0.000000 -1.000000
vn -1.000000 0.000000 0.000000
vn -1.000000 0.000000 0.000000
vn -1.000000 0.000000 0.000000
vn -1.000000 0.000000 0.000000
vn 0.000000 1.000000 0.000000
vn 0.000000 1.000000 0.000000
vn 0.000000 1.000000 0.000000
vn 0.000000 1.000000 0.000000
vn 0.000000 0.000000 1.000000
vn 0.000000 0.000000 1.000000
vn 0.000000 0.000000 1.000000
vn 0.000000 0.000000 1.000000
vn 1.000000 0.000000 0.000000
vn 1.000000 0.000000 0.000000
vn 1.000000 0.000000 0.000000
vn 1.000000 0.000000 0.000000
vn 0.000000 0.707107 -0.707107
vn 0.000000 0.707107 -0.707107
vn 0.000000 0.707107 -0.707107
vn 0.000000 0.707107 -0.707107
vn -0.707107 0.000000 -0.707106
vn -0.707107 0.000000 -0.707106
vn -0.707107 0.000000 -0.707106
vn -0.707107 0.000000 -0.707106
vn -0.707106 0.707108 0.000000
vn -0.707106 0.707108 0.000000
vn -0.707106 0.707108 0.000000
vn -0.707106 0.707108 0.000000
vn 0.000000 0.707107 0.707107
vn 0.000000 0.707107 0.707107
vn 0.000000 0.707107 0.707107
vn 0.000000 0.707107 0.707107
vn -0.707107 0.000000 0.707106
vn -0.707107 0.000000 0.707106
vn -0.707107 0.000000 0.707106
vn -0.707107 0.000000 0.707106
vn 0.707106 0.707108 0.000000
vn 0.707106 0.707108 0.000000
vn 0.707106 0.707108 0.000000
vn 0.707106 0.707108 0.000000
vn 0.707106 0.000000 0.707107
vn 0.707106 0.000000 0.707107
vn 0.707106 0.000000 0.707107
vn 0.707106 0.000000 0.707107
vn 0.707106 0.000000 -0.707107
vn 0.707106 0.000000 -0.707107
vn 0.707106 0.000000 -0.707107
vn 0.707106 0.000000 -0.707107
vn 0.000000 0.707107 -0.707107
vn 0.000000 0.707107 -0.707107
vn 0.000000 0.707107 -0.707107
vn 0.000000 0.707107 -0.707107
vn -0.707105 0.000000 -0.707108
vn -0.707105 0.000000 -0.707108
vn -0.707105 0.000000 -0.707108
vn -0.707105 0.000000 -0.707108
vn -0.707106 0.707108 0.000000
vn -0.707106 0.707108 0.000000
vn -0.707106 0.707108 0.000000
vn -0.707106 0.707108 0.000000
vn 0.000000 0.707107 0.707107
vn 0.000000 0.707107 0.707107
vn 0.000000 0.707107 0.707107
vn 0.000000 0.707107 0.707107
vn -0.707105 0.000000 0.707108
vn -0.707105 0.000000 0.707108
vn -0.707105 0.000000 0.707108
vn -0.707105 0.000000 0.707108
vn 0.707103 0.707111 0.000000
vn 0.707103 0.707111 0.000000
vn 0.707103 0.707111 0.000000
vn 0.707103 0.707111 0.000000
vn 0.707105 0.000000 0.707108
vn 0.707105 0.000000 0.707108
vn 0.707105 0.000000 0.707108
vn 0.707105 0.000000 0.707108
vn 0.707105 0.000000 -0.707108
vn 0.707105 0.000000 -0.707108
vn 0.707105 0.000000 -0.707108
vn 0.707105 0.000000 -0.707108
vn -0.577352 0.577347 -0.577352
vn -0.577352 0.577347 -0.577352
vn -0.577352 0.577347 -0.577352
vn -0.577352 0.577347 0.577352
vn -0.577352 0.577347 0.577352
vn -0.577352 0.577347 0.577352
vn 0.577350 0.577350 0.577350
vn 0.577350 0.577350 0.577350
vn 0.577350 0.577350 0.577350
vn 0.577350 0.577350 -0.577350
vn 0.577350 0.577350 -0.577350
vn 0.577350 0.577350 -0.577350
vn -0.577353 0.577353 -0.577345
vn -0.577353 0.577353 -0.577345
vn -0.577353 0.577353 -0.577345
vn -0.577353 0.577353 0.577345
vn -0.577353 0.577353 0.577345
vn -0.577353 0.577353 0.577345
vn 0.577353 0.577353 0.577345
vn 0.577353 0.577353 0.577345
vn 0.577353 0.577353 0.577345
vn 0.577353 0.577353 -0.577345
vn 0.577353 0.577353 -0.577345
vn 0.577353 0.577353 -0.577345
s off
g horsePole
usemtl initialShadingGroup1
f 1/1/1 2/2/2 7/3/3 6/4/4
f 2/5/5 3/6/6 8/7/7 7/8/8
f 3/9/9 4/10/10 9/11/11 8/12/12
f 4/13/13 5/14/14 10/15/15 9/16/16
f 5/14/17 1/17/18 6/18/19 10/15/20
f 8/19/21 9/20/22 10/21/23 6/22/24 7/23/25
f 3/24/26 2/25/27 1/26/28 5/27/29 4/28/30
f 15/29/31 12/30/32 26/31/33 29/32/34
f 20/33/35 18/34/36 13/35/37 14/36/38
f 17/37/39 22/38/40 27/39/41 11/40/42
f 25/41/43 23/42/44 16/43/45 19/44/46
f 30/45/47 28/46/48 21/47/49 24/48/50
f 35/49/51 32/50/52 46/51/53 49/52/54
f 40/53/55 38/54/56 33/55/57 34/56/58
f 37/57/59 42/58/60 47/59/61 31/60/62
f 45/61/63 43/62/64 36/63/65 39/64/66
f 50/65/67 48/66/68 41/67/69 44/68/70
f 12/30/71 11/69/72 27/70/73 26/31/74
f 13/35/75 12/71/76 15/72/77 14/36/78
f 11/73/79 13/35/80 18/34/81 17/74/82
f 17/75/83 16/43/84 23/42/85 22/76/86
f 16/77/87 18/34/88 20/33/89 19/78/90
f 22/79/91 21/47/92 28/46/93 27/80/94
f 21/81/95 23/42/96 25/41/97 24/82/98
f 26/83/99 28/46/100 30/45/101 29/84/102
f 32/50/103 31/85/104 47/86/105 46/51/106
f 33/55/107 32/87/108 35/88/109 34/56/110
f 31/89/111 33/55/112 38/54/113 37/90/114
f 37/91/115 36/63/116 43/62/117 42/92/118
f 36/93/119 38/54/120 40/53/121 39/94/122
f 42/95/123 41/67/124 48/66/125 47/96/126
f 41/97/127 43/62/128 45/61/129 44/98/130
f 46/99/131 48/66/132 50/65/133 49/100/134
f 11/73/135 12/71/136 13/35/137
f 16/77/138 17/74/139 18/34/140
f 21/81/141 22/76/142 23/42/143
f 26/83/144 27/80/145 28/46/146
f 31/89/147 32/87/148 33/55/149
f 36/93/150 37/90/151 38/54/152
f 41/97/153 42/92/154 43/62/155
f 46/99/156 47/96/157 48/66/158
