# This file uses centimeters as units for non-parametric coordinates.

mtllib woodHackBlock.mtl
v 0.282843 -0.300000 -0.303798
v 0.000000 -0.300000 -0.420955
v -0.282843 -0.300000 -0.303798
v -0.400000 -0.300000 -0.020955
v -0.282843 -0.300000 0.261888
v 0.000000 -0.300000 0.400000
v 0.282843 -0.300000 0.282843
v 0.400000 -0.300000 -0.020955
v 0.312389 -0.100000 -0.282843
v 0.029546 -0.100000 -0.400000
v -0.253297 -0.100000 -0.282843
v -0.370454 -0.100000 0.000000
v -0.253297 -0.100000 0.282843
v 0.029546 -0.100000 0.400000
v 0.312389 -0.100000 0.282843
v 0.429546 -0.100000 0.000000
v 0.269516 0.100000 -0.269516
v 0.000000 0.100000 -0.381153
v -0.269516 0.100000 -0.269516
v -0.381153 0.100000 0.000000
v -0.269516 0.100000 0.269516
v 0.000000 0.100000 0.381153
v 0.269516 0.100000 0.269516
v 0.381153 0.100000 0.000000
v 0.282843 0.300000 -0.282843
v 0.000000 0.300000 -0.400000
v -0.282843 0.300000 -0.282843
v -0.400000 0.300000 0.000000
v -0.282843 0.300000 0.282843
v 0.000000 0.300000 0.400000
v 0.282843 0.300000 0.282843
v 0.400000 0.300000 0.000000
vt 0.505684 1.000000
vt 0.135927 0.190089
vt 0.542215 0.190089
vt 0.583107 0.719851
vt 0.516705 0.775049
vt 0.531805 1.000000
vt 0.128199 1.000000
vt 0.038311 -0.000000
vt 0.046594 0.775049
vt 0.008916 1.000000
vt 0.542215 0.396696
vt 0.135927 0.396696
vt 0.054396 0.719851
vt 0.500000 0.026661
vt 0.128199 0.666667
vt 0.531805 0.666667
vt 0.560410 -0.000000
vt 0.165299 0.026661
vt 0.165299 0.342220
vt 0.542215 0.603304
vt 0.135927 0.603304
vt 0.054396 0.543614
vt 0.500000 0.342220
vt 0.128199 0.333333
vt 0.531805 0.333333
vt 0.560410 0.333333
vt 0.026661 0.026661
vt 0.026661 0.342220
vt 0.542215 0.809911
vt 0.135927 0.809911
vt 0.583107 0.543614
vt 0.005558 0.666667
vt 0.128199 0.000000
vt 0.531805 0.000000
vt 0.038311 0.333333
vt 0.505685 0.666667
vt 0.869808 0.909809
vt 0.786282 0.956420
vt 0.702756 0.909809
vt 0.668158 0.797282
vt 0.702756 0.684754
vt 0.786282 0.638144
vt 0.869808 0.684754
vt 0.904406 0.797282
vt 0.046594 0.591683
vt 0.005558 0.333333
vt 0.165299 0.657780
vt 0.500000 0.657780
vt 0.026661 0.657780
vt 0.505685 0.333333
vt 0.516705 0.591683
vt 0.005558 -0.000000
vt 0.165299 0.973339
vt 0.500000 0.973339
vt 0.026661 0.973339
vt 0.505685 -0.000000
vt 0.054396 0.367377
vt 0.583107 0.367377
vt 0.054396 0.191140
vt 0.583107 0.191140
vt 0.046594 0.408317
vt 0.516705 0.408317
vt 0.046594 0.224951
vt 0.516705 0.224951
vt 0.560410 0.666667
vt 0.038311 0.666667
vt 0.560410 1.000000
vt 0.038311 1.000000
vn 0.706225 -0.030218 -0.707342
vn 0.002227 0.103879 -0.994587
vn 0.000109 0.098704 -0.995117
vn 0.703361 0.082960 -0.705976
vn -0.695563 0.175746 -0.696639
vn -0.704325 0.083271 -0.704977
vn -0.989294 0.145918 0.002198
vn -0.998917 0.046511 0.001105
vn -0.716191 0.058632 0.695437
vn -0.712032 0.024338 0.701725
vn -0.015922 -0.023674 0.999593
vn -0.008959 0.035170 0.999341
vn 0.705341 -0.114620 0.699540
vn 0.706947 0.040861 0.706085
vn 0.990788 -0.135198 -0.007799
vn 0.998694 0.050929 -0.003967
vn -0.001008 -0.000222 -1.000000
vn 0.705155 0.051023 -0.707215
vn -0.706092 -0.052090 -0.706202
vn -0.997285 -0.073638 0.000000
vn -0.706092 -0.052090 0.706202
vn -0.001008 -0.000222 1.000000
vn 0.705155 0.051023 0.707215
vn 0.997409 0.071946 -0.000000
vn 0.000000 -0.093819 -0.995589
vn 0.703988 -0.093819 -0.703988
vn -0.703988 -0.093819 -0.703988
vn -0.995589 -0.093819 0.000000
vn -0.703988 -0.093819 0.703988
vn -0.000000 -0.093819 0.995589
vn 0.703988 -0.093819 0.703988
vn 0.995589 -0.093819 -0.000000
vn 0.000000 1.000000 0.000000
vn 0.000000 1.000000 0.000000
vn 0.000000 1.000000 0.000000
vn 0.000000 1.000000 0.000000
vn 0.000000 1.000000 0.000000
vn 0.000000 1.000000 0.000000
vn 0.000000 1.000000 0.000000
vn 0.000000 1.000000 0.000000
s 1
g pCylinder1
usemtl lambert2SG
f 1/5/1 2/9/2 10/45/3 9/51/4
f 2/2/2 3/3/5 11/11/6 10/12/3
f 3/4/5 4/13/7 12/22/8 11/31/6
f 4/14/7 5/18/9 13/19/10 12/23/8
f 5/18/9 6/27/11 14/28/12 13/19/10
f 6/6/11 7/7/13 15/15/14 14/16/12
f 7/8/13 8/17/15 16/26/16 15/35/14
f 8/1/15 1/10/1 9/32/4 16/36/16
f 9/51/4 10/45/3 18/61/17 17/62/18
f 10/12/3 11/11/6 19/20/19 18/21/17
f 11/31/6 12/22/8 20/57/20 19/58/19
f 12/23/8 13/19/10 21/47/21 20/48/20
f 13/19/10 14/28/12 22/49/22 21/47/21
f 14/16/12 15/15/14 23/24/23 22/25/22
f 15/35/14 16/26/16 24/65/24 23/66/23
f 16/36/16 9/32/4 17/46/18 24/50/24
f 17/62/18 18/61/17 26/63/25 25/64/26
f 18/21/17 19/20/19 27/29/27 26/30/25
f 19/58/19 20/57/20 28/59/28 27/60/27
f 20/48/20 21/47/21 29/53/29 28/54/28
f 21/47/21 22/49/22 30/55/30 29/53/29
f 22/25/22 23/24/23 31/33/31 30/34/30
f 23/66/23 24/65/24 32/67/32 31/68/31
f 24/50/24 17/46/18 25/52/26 32/56/32
s off
f 25/37/33 26/38/34 27/39/35 28/40/36 29/41/37 30/42/38 31/43/39 32/44/40
