# This file uses centimeters as units for non-parametric coordinates.

g default
v -0.071481 -0.226244 -0.000000
v -0.069045 -0.226244 0.012941
v -0.061904 -0.226244 0.025000
v -0.050545 -0.226244 0.035355
v -0.035740 -0.226244 0.043301
v -0.018501 -0.226244 0.048296
v -0.000000 -0.226244 0.050000
v 0.018501 -0.226244 0.048296
v 0.035740 -0.226244 0.043301
v 0.050545 -0.226244 0.035355
v 0.061904 -0.226244 0.025000
v 0.069045 -0.226244 0.012941
v 0.071481 -0.226244 0.000000
v -0.054929 0.226244 -0.000000
v -0.053058 0.226244 0.010317
v -0.047570 0.226244 0.019931
v -0.038841 0.226244 0.028186
v -0.027465 0.226244 0.034521
v -0.014217 0.226244 0.038503
v -0.000000 0.226244 0.039861
v 0.014217 0.226244 0.038503
v 0.027465 0.226244 0.034521
v 0.038841 0.226244 0.028186
v 0.047570 0.226244 0.019931
v 0.053058 0.226244 0.010317
v 0.054929 0.226244 0.000000
v -0.076481 -0.225905 0.000900
v -0.073756 -0.225917 0.014643
v -0.059418 0.226570 0.012434
v -0.061680 0.226583 0.001120
v -0.065869 -0.225949 0.028092
v -0.052923 0.226538 0.023777
v -0.053543 -0.225985 0.039413
v -0.042889 0.226502 0.033234
v -0.037723 -0.226016 0.047953
v -0.030141 0.226472 0.040307
v -0.019482 -0.226035 0.053263
v -0.015542 0.226452 0.044681
v -0.000000 -0.226042 0.055064
v -0.000000 0.226446 0.046161
v 0.019482 -0.226035 0.053263
v 0.015542 0.226452 0.044681
v 0.037723 -0.226016 0.047953
v 0.030141 0.226472 0.040307
v 0.053543 -0.225985 0.039413
v 0.042889 0.226502 0.033234
v 0.065869 -0.225949 0.028092
v 0.052923 0.226538 0.023777
v 0.073756 -0.225917 0.014643
v 0.059418 0.226570 0.012434
v 0.076481 -0.225905 0.000900
v 0.061680 0.226583 0.001120
vt 0.489583 0.312500
vt 0.500000 0.312500
vt 0.510417 0.312500
vt 0.520833 0.312500
vt 0.531250 0.312500
vt 0.541667 0.312500
vt 0.552083 0.312500
vt 0.562500 0.312500
vt 0.572917 0.312500
vt 0.583333 0.312500
vt 0.593750 0.312500
vt 0.604167 0.312500
vt 0.614583 0.312500
vt 0.489583 0.688440
vt 0.500000 0.688440
vt 0.510417 0.688440
vt 0.520833 0.688440
vt 0.531250 0.688440
vt 0.541667 0.688440
vt 0.552083 0.688440
vt 0.562500 0.688440
vt 0.572917 0.688440
vt 0.583333 0.688440
vt 0.593750 0.688440
vt 0.604167 0.688440
vt 0.614583 0.688440
vt 0.489583 0.312500
vt 0.500000 0.312500
vt 0.500000 0.688440
vt 0.489583 0.688440
vt 0.510417 0.312500
vt 0.510417 0.688440
vt 0.520833 0.312500
vt 0.520833 0.688440
vt 0.531250 0.312500
vt 0.531250 0.688440
vt 0.541667 0.312500
vt 0.541667 0.688440
vt 0.552083 0.312500
vt 0.552083 0.688440
vt 0.562500 0.312500
vt 0.562500 0.688440
vt 0.572917 0.312500
vt 0.572917 0.688440
vt 0.583333 0.312500
vt 0.583333 0.688440
vt 0.593750 0.312500
vt 0.593750 0.688440
vt 0.604167 0.312500
vt 0.604167 0.688440
vt 0.614583 0.312500
vt 0.614583 0.688440
vn -0.651081 0.021753 -0.758696
vn -0.933596 0.031231 0.356964
vn -0.933596 0.031231 0.356964
vn -0.651081 0.021753 -0.758696
vn -0.777520 0.028203 0.628225
vn -0.777520 0.028203 0.628225
vn -0.580808 0.024784 0.813663
vn -0.580808 0.024784 0.813663
vn -0.380720 0.022025 0.924428
vn -0.380720 0.022025 0.924428
vn -0.187638 0.020305 0.982028
vn -0.187638 0.020305 0.982028
vn 0.000000 0.019726 0.999805
vn 0.000000 0.019726 0.999805
vn 0.187638 0.020305 0.982028
vn 0.187638 0.020305 0.982028
vn 0.380720 0.022025 0.924428
vn 0.380720 0.022025 0.924428
vn 0.580808 0.024784 0.813663
vn 0.580808 0.024784 0.813663
vn 0.777520 0.028203 0.628225
vn 0.777520 0.028203 0.628225
vn 0.933596 0.031231 0.356965
vn 0.933596 0.031231 0.356965
vn 0.651081 0.021754 -0.758696
vn 0.651081 0.021754 -0.758696
vn -0.065117 -0.997804 0.012111
vn -0.065117 -0.997804 0.012111
vn -0.065117 -0.997804 0.012111
vn -0.065117 -0.997804 0.012111
vn 0.048546 0.998783 -0.008683
vn 0.048546 0.998783 -0.008683
vn 0.048546 0.998783 -0.008683
vn 0.048546 0.998783 -0.008683
vn -0.169036 0.006095 -0.985591
vn -0.169036 0.006095 -0.985591
vn -0.054395 -0.998044 0.030810
vn -0.054395 -0.998044 0.030810
vn -0.054395 -0.998044 0.030810
vn -0.054395 -0.998044 0.030810
vn 0.041605 0.998886 -0.022285
vn 0.041605 0.998886 -0.022285
vn 0.041605 0.998886 -0.022285
vn 0.041605 0.998886 -0.022285
vn -0.038174 -0.998469 0.040037
vn -0.038174 -0.998469 0.040037
vn -0.038174 -0.998469 0.040037
vn -0.038174 -0.998469 0.040037
vn 0.030320 0.999088 -0.030068
vn 0.030320 0.999088 -0.030068
vn 0.030320 0.999088 -0.030068
vn 0.030320 0.999088 -0.030068
vn -0.023708 -0.998828 0.042198
vn -0.023708 -0.998828 0.042198
vn -0.023708 -0.998828 0.042198
vn -0.023708 -0.998828 0.042198
vn 0.019469 0.999274 -0.032760
vn 0.019469 0.999274 -0.032760
vn 0.019469 0.999274 -0.032760
vn 0.019469 0.999274 -0.032760
vn -0.012582 -0.999062 0.041438
vn -0.012582 -0.999062 0.041438
vn -0.012582 -0.999062 0.041438
vn -0.012582 -0.999062 0.041438
vn 0.010572 0.999402 -0.032913
vn 0.010572 0.999402 -0.032913
vn 0.010572 0.999402 -0.032913
vn 0.010572 0.999402 -0.032913
vn -0.003910 -0.999173 0.040484
vn -0.003910 -0.999173 0.040484
vn -0.003910 -0.999173 0.040484
vn -0.003910 -0.999173 0.040484
vn 0.003322 0.999466 -0.032512
vn 0.003322 0.999466 -0.032512
vn 0.003322 0.999466 -0.032512
vn 0.003322 0.999466 -0.032512
vn 0.003910 -0.999172 0.040487
vn 0.003910 -0.999172 0.040487
vn 0.003910 -0.999172 0.040487
vn 0.003910 -0.999172 0.040487
vn -0.003322 0.999466 -0.032513
vn -0.003322 0.999466 -0.032513
vn -0.003322 0.999466 -0.032513
vn -0.003322 0.999466 -0.032513
vn 0.012582 -0.999062 0.041441
vn 0.012582 -0.999062 0.041441
vn 0.012582 -0.999062 0.041441
vn 0.012582 -0.999062 0.041441
vn -0.010572 0.999402 -0.032910
vn -0.010572 0.999402 -0.032910
vn -0.010572 0.999402 -0.032910
vn -0.010572 0.999402 -0.032910
vn 0.023708 -0.998828 0.042199
vn 0.023708 -0.998828 0.042199
vn 0.023708 -0.998828 0.042199
vn 0.023708 -0.998828 0.042199
vn -0.019469 0.999274 -0.032756
vn -0.019469 0.999274 -0.032756
vn -0.019469 0.999274 -0.032756
vn -0.019469 0.999274 -0.032756
vn 0.038174 -0.998469 0.040037
vn 0.038174 -0.998469 0.040037
vn 0.038174 -0.998469 0.040037
vn 0.038174 -0.998469 0.040037
vn -0.030320 0.999088 -0.030068
vn -0.030320 0.999088 -0.030068
vn -0.030320 0.999088 -0.030068
vn -0.030320 0.999088 -0.030068
vn 0.054395 -0.998044 0.030811
vn 0.054395 -0.998044 0.030811
vn 0.054395 -0.998044 0.030811
vn 0.054395 -0.998044 0.030811
vn -0.041605 0.998886 -0.022286
vn -0.041605 0.998886 -0.022286
vn -0.041605 0.998886 -0.022286
vn -0.041605 0.998886 -0.022286
vn 0.065117 -0.997804 0.012111
vn 0.065117 -0.997804 0.012111
vn 0.065117 -0.997804 0.012111
vn 0.065117 -0.997804 0.012111
vn 0.169036 0.006095 -0.985591
vn 0.169036 0.006095 -0.985591
vn -0.048546 0.998783 -0.008683
vn -0.048546 0.998783 -0.008683
vn -0.048546 0.998783 -0.008683
vn -0.048546 0.998783 -0.008683
g pCylinder1
f 27/27/1 28/28/2 29/29/3 30/30/4
f 28/28/2 31/31/5 32/32/6 29/29/3
f 31/31/5 33/33/7 34/34/8 32/32/6
f 33/33/7 35/35/9 36/36/10 34/34/8
f 35/35/9 37/37/11 38/38/12 36/36/10
f 37/37/11 39/39/13 40/40/14 38/38/12
f 39/39/13 41/41/15 42/42/16 40/40/14
f 41/41/15 43/43/17 44/44/18 42/42/16
f 43/43/17 45/45/19 46/46/20 44/44/18
f 45/45/19 47/47/21 48/48/22 46/46/20
f 47/47/21 49/49/23 50/50/24 48/48/22
f 49/49/23 51/51/25 52/52/26 50/50/24
f 1/1/27 2/2/28 28/28/29 27/27/30
f 15/15/31 14/14/32 30/30/33 29/29/34
f 14/14/35 1/1/36 27/27/1 30/30/4
f 2/2/37 3/3/38 31/31/39 28/28/40
f 16/16/41 15/15/42 29/29/43 32/32/44
f 3/3/45 4/4/46 33/33/47 31/31/48
f 17/17/49 16/16/50 32/32/51 34/34/52
f 4/4/53 5/5/54 35/35/55 33/33/56
f 18/18/57 17/17/58 34/34/59 36/36/60
f 5/5/61 6/6/62 37/37/63 35/35/64
f 19/19/65 18/18/66 36/36/67 38/38/68
f 6/6/69 7/7/70 39/39/71 37/37/72
f 20/20/73 19/19/74 38/38/75 40/40/76
f 7/7/77 8/8/78 41/41/79 39/39/80
f 21/21/81 20/20/82 40/40/83 42/42/84
f 8/8/85 9/9/86 43/43/87 41/41/88
f 22/22/89 21/21/90 42/42/91 44/44/92
f 9/9/93 10/10/94 45/45/95 43/43/96
f 23/23/97 22/22/98 44/44/99 46/46/100
f 10/10/101 11/11/102 47/47/103 45/45/104
f 24/24/105 23/23/106 46/46/107 48/48/108
f 11/11/109 12/12/110 49/49/111 47/47/112
f 25/25/113 24/24/114 48/48/115 50/50/116
f 12/12/117 13/13/118 51/51/119 49/49/120
f 13/13/121 26/26/122 52/52/26 51/51/25
f 26/26/123 25/25/124 50/50/125 52/52/126
