# This file uses centimeters as units for non-parametric coordinates.

mtllib alleyTree_8_v1.mtl
g default
v -2.083017 -0.052834 -0.057545
v 1.539995 0.036364 -0.046257
v -2.259089 7.171426 0.131043
v 1.355194 7.266692 0.128941
v 0.084012 -0.091729 2.017090
v -0.066397 0.072497 -1.594173
v -0.082343 7.142626 2.353131
v -0.237901 7.291571 -1.258846
vt 0.000000 0.000000
vt 1.000000 0.000000
vt 1.000000 1.000000
vt 0.000000 1.000000
vt 0.000000 0.000000
vt 1.000000 0.000000
vt 1.000000 1.000000
vt 0.000000 1.000000
vn -0.000627 -0.025175 0.999683
vn -0.000627 -0.025175 0.999683
vn -0.000627 -0.025175 0.999683
vn -0.000627 -0.025175 0.999683
vn 0.998831 0.025263 -0.041214
vn 0.998831 0.025263 -0.041214
vn 0.998831 0.025263 -0.041214
vn 0.998831 0.025263 -0.041214
g alleyTree_8_v1
usemtl lambert193SG
f 1/1/1 2/2/2 4/3/3 3/4/4
f 5/5/5 6/6/6 8/7/7 7/8/8
