# This file uses centimeters as units for non-parametric coordinates.

mtllib alleyTree_7_v1.mtl
g default
v -2.009412 -0.029133 -0.063280
v 1.802226 0.069332 -0.061235
v -2.206383 7.591989 0.117945
v 1.605255 7.690454 0.119990
v 0.081976 -0.089506 1.968211
v -0.076530 0.083561 -1.837469
v -0.096129 7.526023 2.321955
v -0.254635 7.699090 -1.483728
vt 0.000000 0.000000
vt 1.000000 0.000000
vt 1.000000 1.000000
vt 0.000000 1.000000
vt 0.000000 0.000000
vt 1.000000 0.000000
vt 1.000000 1.000000
vt 0.000000 1.000000
vn 0.000078 -0.023771 0.999718
vn 0.000078 -0.023771 0.999718
vn 0.000078 -0.023771 0.999718
vn 0.000078 -0.023771 0.999718
vn 0.998863 0.025240 -0.040455
vn 0.998863 0.025240 -0.040455
vn 0.998863 0.025240 -0.040455
vn 0.998863 0.025240 -0.040455
g alleyTree_7_v1
usemtl lambert188SG
f 1/1/1 2/2/2 4/3/3 3/4/4
f 5/5/5 6/6/6 8/7/7 7/8/8
