# This file uses centimeters as units for non-parametric coordinates.

mtllib tree.mtl
v 0.637974 1.513333 -0.637974
v 0.000000 1.513333 -0.902231
v 0.000000 3.989563 -1.219908
v 0.862605 3.989563 -0.862605
v -0.637974 1.513333 -0.637974
v -0.862605 3.989563 -0.862605
v -0.902231 1.513333 0.000000
v -1.219908 3.989563 0.000000
v -0.637974 1.513333 0.637974
v -0.862605 3.989563 0.862605
v 0.000000 1.513333 0.902231
v 0.000000 3.989563 1.219908
v 0.637974 1.513333 0.637974
v 0.862605 3.989563 0.862605
v 0.902231 1.513333 0.000000
v 1.219908 3.989563 0.000000
v 0.000000 7.050352 -0.951056
v 0.672498 7.050352 -0.672498
v -0.672498 7.050352 -0.672498
v -0.951056 7.050352 0.000000
v -0.672498 7.050352 0.672498
v 0.000000 7.050352 0.951056
v 0.672499 7.050352 0.672499
v 0.951057 7.050352 0.000000
v 0.000000 9.526582 -0.587785
v 0.415627 9.526582 -0.415627
v -0.415627 9.526582 -0.415627
v -0.587785 9.526582 0.000000
v -0.415627 9.526582 0.415627
v 0.000000 9.526582 0.587785
v 0.415627 9.526582 0.415627
v 0.587785 9.526582 0.000000
v 0.000000 1.051811 0.000000
v 0.000000 9.971004 0.000000
vt 0.890868 -0.000051
vt 0.890868 0.124958
vt 0.615580 0.124958
vt 0.615580 -0.000051
vt 0.890868 0.249974
vt 0.615580 0.249974
vt 0.890868 0.374984
vt 0.615580 0.374984
vt 0.890868 0.500000
vt 0.615580 0.500000
vt 0.890868 0.625016
vt 0.615580 0.625016
vt 0.890868 0.750026
vt 0.615580 0.750026
vt 0.890868 0.875042
vt 0.615580 0.875042
vt 0.890868 1.000051
vt 0.615580 1.000051
vt 0.340293 0.124958
vt 0.340293 -0.000051
vt 0.340293 0.249974
vt 0.340293 0.374984
vt 0.340293 0.500000
vt 0.340293 0.625016
vt 0.340293 0.750026
vt 0.340293 0.875042
vt 0.340293 1.000051
vt 0.065005 0.124958
vt 0.065005 -0.000051
vt 0.065005 0.249974
vt 0.065005 0.374984
vt 0.065005 0.500000
vt 0.065005 0.625016
vt 0.065005 0.750026
vt 0.065005 0.875042
vt 0.065005 1.000051
vt 0.996492 0.062453
vt 0.996492 0.187469
vt 0.996492 0.312479
vt 0.996492 0.437495
vt 0.996492 0.562505
vt 0.996492 0.687521
vt 0.996492 0.812531
vt 0.996492 0.937547
vt 0.001797 0.062453
vt 0.001797 0.187469
vt 0.001797 0.312479
vt 0.001797 0.437495
vt 0.001797 0.562505
vt 0.001797 0.687521
vt 0.001797 0.812531
vt 0.001797 0.937547
vn 0.670128 -0.319151 -0.670128
vn 0.000000 -0.319151 -0.947704
vn 0.000000 -0.016273 -0.999868
vn 0.707013 -0.016273 -0.707013
vn -0.670128 -0.319151 -0.670128
vn -0.707013 -0.016273 -0.707013
vn -0.947704 -0.319151 0.000000
vn -0.999868 -0.016273 0.000000
vn -0.670128 -0.319151 0.670128
vn -0.707013 -0.016273 0.707013
vn 0.000000 -0.319151 0.947704
vn 0.000000 -0.016273 0.999868
vn 0.670128 -0.319151 0.670128
vn 0.707013 -0.016273 0.707013
vn 0.947704 -0.319151 0.000000
vn 0.999868 -0.016273 0.000000
vn 0.000000 0.114871 -0.993380
vn 0.702426 0.114871 -0.702426
vn -0.702426 0.114871 -0.702426
vn -0.993380 0.114871 0.000000
vn -0.702426 0.114871 0.702426
vn 0.000000 0.114871 0.993380
vn 0.702426 0.114871 0.702426
vn 0.993380 0.114871 0.000000
vn 0.000000 0.321651 -0.946858
vn 0.669530 0.321651 -0.669530
vn -0.669530 0.321651 -0.669530
vn -0.946858 0.321651 0.000000
vn -0.669530 0.321651 0.669530
vn 0.000000 0.321651 0.946858
vn 0.669530 0.321651 0.669530
vn 0.946858 0.321651 0.000000
vn 0.000000 -1.000000 0.000000
vn 0.000000 1.000000 0.000000
g tree_leaves
usemtl lambert3SG
f 1/1/1 2/2/2 3/3/3 4/4/4
f 2/2/2 5/5/5 6/6/6 3/3/3
f 5/5/5 7/7/7 8/8/8 6/6/6
f 7/7/7 9/9/9 10/10/10 8/8/8
f 9/9/9 11/11/11 12/12/12 10/10/10
f 11/11/11 13/13/13 14/14/14 12/12/12
f 13/13/13 15/15/15 16/16/16 14/14/14
f 15/15/15 1/17/1 4/18/4 16/16/16
f 4/4/4 3/3/3 17/19/17 18/20/18
f 3/3/3 6/6/6 19/21/19 17/19/17
f 6/6/6 8/8/8 20/22/20 19/21/19
f 8/8/8 10/10/10 21/23/21 20/22/20
f 10/10/10 12/12/12 22/24/22 21/23/21
f 12/12/12 14/14/14 23/25/23 22/24/22
f 14/14/14 16/16/16 24/26/24 23/25/23
f 16/16/16 4/18/4 18/27/18 24/26/24
f 18/20/18 17/19/17 25/28/25 26/29/26
f 17/19/17 19/21/19 27/30/27 25/28/25
f 19/21/19 20/22/20 28/31/28 27/30/27
f 20/22/20 21/23/21 29/32/29 28/31/28
f 21/23/21 22/24/22 30/33/30 29/32/29
f 22/24/22 23/25/23 31/34/31 30/33/30
f 23/25/23 24/26/24 32/35/32 31/34/31
f 24/26/24 18/27/18 26/36/26 32/35/32
f 2/2/2 1/1/1 33/37/33
f 5/5/5 2/2/2 33/38/33
f 7/7/7 5/5/5 33/39/33
f 9/9/9 7/7/7 33/40/33
f 11/11/11 9/9/9 33/41/33
f 13/13/13 11/11/11 33/42/33
f 15/15/15 13/13/13 33/43/33
f 1/17/1 15/15/15 33/44/33
f 26/29/26 25/28/25 34/45/34
f 25/28/25 27/30/27 34/46/34
f 27/30/27 28/31/28 34/47/34
f 28/31/28 29/32/29 34/48/34
f 29/32/29 30/33/30 34/49/34
f 30/33/30 31/34/31 34/50/34
f 31/34/31 32/35/32 34/51/34
f 32/35/32 26/36/26 34/52/34
v 0.187321 0.001034 -0.157443
v 0.040716 0.001034 -0.218169
v 0.040716 1.377516 -0.218169
v 0.187321 1.377516 -0.157443
v -0.105890 0.001034 -0.157443
v -0.105890 1.377516 -0.157443
v -0.166616 0.001034 -0.010838
v -0.166616 1.377516 -0.010838
v -0.105890 0.001034 0.135768
v -0.105890 1.377516 0.135768
v 0.040716 0.001034 0.196494
v 0.040716 1.377516 0.196494
v 0.187322 0.001034 0.135768
v 0.187322 1.377516 0.135768
v 0.248048 0.001034 -0.010838
v 0.248048 1.377516 -0.010838
v 0.040716 0.001034 -0.010838
v 0.040716 1.377516 -0.010838
vt 0.375000 0.312500
vt 0.406250 0.312500
vt 0.406250 0.688440
vt 0.375000 0.688440
vt 0.437500 0.312500
vt 0.437500 0.688440
vt 0.468750 0.312500
vt 0.468750 0.688440
vt 0.500000 0.312500
vt 0.500000 0.688440
vt 0.531250 0.312500
vt 0.531250 0.688440
vt 0.562500 0.312500
vt 0.562500 0.688440
vt 0.593750 0.312500
vt 0.593750 0.688440
vt 0.625000 0.312500
vt 0.625000 0.688440
vt 0.500000 0.000000
vt 0.610485 0.045765
vt 0.500000 0.150000
vt 0.389515 0.045765
vt 0.343750 0.156250
vt 0.389515 0.266735
vt 0.500000 0.312500
vt 0.610485 0.266735
vt 0.656250 0.156250
vt 0.610485 0.954235
vt 0.500000 1.000000
vt 0.500000 0.837500
vt 0.389515 0.954235
vt 0.343750 0.843750
vt 0.389515 0.733265
vt 0.500000 0.687500
vt 0.610485 0.733265
vt 0.656250 0.843750
vn 0.382685 0.000000 -0.923879
vn 0.382685 0.000000 -0.923879
vn 0.382685 0.000000 -0.923879
vn 0.382685 0.000000 -0.923879
vn 0.000000 -0.310006 -0.950735
vn -0.672271 -0.310006 -0.672271
vn -0.672271 0.310006 -0.672271
vn 0.000000 0.310006 -0.950735
vn -0.672271 -0.310006 -0.672271
vn -0.950735 -0.310006 0.000000
vn -0.950735 0.310006 0.000000
vn -0.672271 0.310006 -0.672271
vn -0.950735 -0.310006 0.000000
vn -0.672271 -0.310006 0.672271
vn -0.672271 0.310006 0.672271
vn -0.950735 0.310006 0.000000
vn -0.672271 -0.310006 0.672271
vn 0.000000 -0.310006 0.950735
vn 0.000000 0.310006 0.950735
vn -0.672271 0.310006 0.672271
vn 0.000000 -0.310006 0.950735
vn 0.672271 -0.310006 0.672271
vn 0.672271 0.310006 0.672271
vn 0.000000 0.310006 0.950735
vn 0.672271 -0.310006 0.672271
vn 0.950735 -0.310006 0.000000
vn 0.950735 0.310006 0.000000
vn 0.672271 0.310006 0.672271
vn 0.950735 -0.310006 0.000000
vn 0.672271 -0.310006 -0.672271
vn 0.672271 0.310006 -0.672271
vn 0.950735 0.310006 0.000000
vn 0.000000 -0.310006 -0.950735
vn 0.672271 -0.310006 -0.672271
vn 0.000000 -1.000000 0.000000
vn -0.672271 -0.310006 -0.672271
vn 0.000000 -0.310006 -0.950735
vn 0.000000 -1.000000 0.000000
vn -0.950735 -0.310006 0.000000
vn -0.672271 -0.310006 -0.672271
vn 0.000000 -1.000000 0.000000
vn -0.672271 -0.310006 0.672271
vn -0.950735 -0.310006 0.000000
vn 0.000000 -1.000000 0.000000
vn 0.000000 -0.310006 0.950735
vn -0.672271 -0.310006 0.672271
vn 0.000000 -1.000000 0.000000
vn 0.672271 -0.310006 0.672271
vn 0.000000 -0.310006 0.950735
vn 0.000000 -1.000000 0.000000
vn 0.950735 -0.310006 0.000000
vn 0.672271 -0.310006 0.672271
vn 0.000000 -1.000000 0.000000
vn 0.672271 -0.310006 -0.672271
vn 0.950735 -0.310006 0.000000
vn 0.000000 -1.000000 0.000000
vn 0.672271 0.310006 -0.672271
vn 0.000000 0.310006 -0.950735
vn 0.000000 1.000000 0.000000
vn 0.000000 0.310006 -0.950735
vn -0.672271 0.310006 -0.672271
vn 0.000000 1.000000 0.000000
vn -0.672271 0.310006 -0.672271
vn -0.950735 0.310006 0.000000
vn 0.000000 1.000000 0.000000
vn -0.950735 0.310006 0.000000
vn -0.672271 0.310006 0.672271
vn 0.000000 1.000000 0.000000
vn -0.672271 0.310006 0.672271
vn 0.000000 0.310006 0.950735
vn 0.000000 1.000000 0.000000
vn 0.000000 0.310006 0.950735
vn 0.672271 0.310006 0.672271
vn 0.000000 1.000000 0.000000
vn 0.672271 0.310006 0.672271
vn 0.950735 0.310006 0.000000
vn 0.000000 1.000000 0.000000
vn 0.950735 0.310006 0.000000
vn 0.672271 0.310006 -0.672271
vn 0.000000 1.000000 0.000000
g tree_trunk
usemtl lambert2SG
f 35/53/35 36/54/36 37/55/37 38/56/38
f 36/54/39 39/57/40 40/58/41 37/55/42
f 39/57/43 41/59/44 42/60/45 40/58/46
f 41/59/47 43/61/48 44/62/49 42/60/50
f 43/61/51 45/63/52 46/64/53 44/62/54
f 45/63/55 47/65/56 48/66/57 46/64/58
f 47/65/59 49/67/60 50/68/61 48/66/62
f 49/67/63 35/69/64 38/70/65 50/68/66
f 36/71/67 35/72/68 51/73/69
f 39/74/70 36/71/71 51/73/72
f 41/75/73 39/74/74 51/73/75
f 43/76/76 41/75/77 51/73/78
f 45/77/79 43/76/80 51/73/81
f 47/78/82 45/77/83 51/73/84
f 49/79/85 47/78/86 51/73/87
f 35/72/88 49/79/89 51/73/90
f 38/80/91 37/81/92 52/82/93
f 37/81/94 40/83/95 52/82/96
f 40/83/97 42/84/98 52/82/99
f 42/84/100 44/85/101 52/82/102
f 44/85/103 46/86/104 52/82/105
f 46/86/106 48/87/107 52/82/108
f 48/87/109 50/88/110 52/82/111
f 50/88/112 38/80/113 52/82/114
