# This file uses centimeters as units for non-parametric coordinates.

v -0.283570 0.493731 0.022609
v -0.290664 0.493322 -0.024661
v -0.283542 -0.499462 0.022609
v -0.290647 -0.498962 -0.024661
v -0.276582 0.493699 0.023376
v -0.276596 -0.499342 0.023377
v 0.234093 -0.498520 0.002219
v 0.233994 0.493621 0.002196
v 0.285055 0.493740 0.022609
v 0.285094 -0.499357 0.022608
v 0.290582 0.493332 -0.024660
v 0.290707 -0.498854 -0.024664
v 0.278024 0.493718 0.023384
v 0.278073 -0.499280 0.023384
v 0.268922 -0.498925 0.011953
v 0.268891 0.493680 0.011953
v -0.266502 0.493665 0.011953
v -0.266480 -0.498977 0.011953
v -0.232602 0.493622 0.002519
v -0.232582 -0.498644 0.002529
vt 0.448799 0.857143
vt 0.392699 0.857143
vt 0.448799 0.142857
vt 0.392699 0.142857
vt 0.479776 0.857143
vt 0.471300 0.142857
vt 0.659683 0.142857
vt 0.659683 0.857143
vt 0.785398 0.857143
vt 0.785398 0.142857
vt 0.841498 0.857143
vt 0.841498 0.142857
vt 0.504899 0.142857
vt 0.426298 0.142857
vt 0.766367 0.857143
vt 0.766367 0.142857
vt 0.721056 0.142857
vt 0.721056 0.857143
vt 0.131231 0.142857
vt 0.176542 0.142857
vt 0.519197 0.857143
vt 0.519197 0.142857
vt 0.566561 0.857143
vt 0.566561 0.142857
vt 0.378401 0.142857
vt 0.331037 0.142857
vt 0.237915 0.142857
vt 0.112200 0.142857
vt 0.056100 0.142857
vn -0.998273 -0.001551 0.058725
vn -0.998273 -0.001551 0.058725
vn -0.998273 -0.001551 0.058725
vn -0.998273 -0.001551 0.058725
vn 0.268225 0.000651 0.963356
vn 0.268225 0.000651 0.963356
vn 0.268225 0.000651 0.963356
vn 0.268225 0.000651 0.963356
vn -0.076531 0.002685 0.997064
vn -0.076531 0.002685 0.997064
vn 0.256339 0.001939 0.966585
vn 0.256339 0.001939 0.966585
vn 0.998291 0.001437 0.058415
vn 0.998291 0.001437 0.058415
vn 0.998291 0.001437 0.058415
vn 0.998291 0.001437 0.058415
vn -0.053627 0.975391 -0.213860
vn -0.053627 0.975391 -0.213860
vn -0.015265 0.975420 -0.219826
vn -0.002308 0.975761 -0.218827
vn -0.002308 0.975761 -0.218827
vn 0.026724 0.976338 -0.214592
vn -0.000662 0.975755 -0.218867
vn -0.015265 0.975420 -0.219826
vn 0.026724 0.976338 -0.214592
vn -0.015265 0.975420 -0.219826
vn -0.819060 -0.000979 0.573707
vn -0.819060 -0.000979 0.573707
vn -0.819060 -0.000979 0.573707
vn -0.819060 -0.000979 0.573707
vn -0.015001 -0.999626 -0.022871
vn -0.015001 -0.999626 -0.022871
vn -0.023145 -0.999718 -0.005285
vn -0.023145 -0.999718 -0.005285
vn -0.008364 -0.999222 0.038532
vn -0.023145 -0.999718 -0.005285
vn 0.032994 -0.999073 0.027653
vn 0.032994 -0.999073 0.027653
vn 0.020018 -0.999568 -0.021508
vn 0.020018 -0.999568 -0.021508
vn 0.256339 0.001939 0.966585
vn 0.256339 0.001939 0.966585
vn 0.256339 0.001939 0.966585
vn 0.256339 0.001939 0.966585
vn -0.076531 0.002685 0.997064
vn -0.819060 -0.000979 0.573707
vn -0.819060 -0.000979 0.573707
vn -0.076531 0.002685 0.997064
vn 0.256339 0.001939 0.966585
vn 0.256339 0.001939 0.966585
vn 0.268225 0.000651 0.963356
vn 0.268225 0.000651 0.963356
vn 0.119993 -0.000106 0.992775
vn 0.119993 -0.000106 0.992775
vn 0.119993 -0.000106 0.992775
vn 0.119993 -0.000106 0.992775
vn -0.000001 0.000002 -1.000000
vn -0.000001 0.000002 -1.000000
vn -0.000001 0.000002 -1.000000
vn -0.000001 0.000002 -1.000000
g roof_brick
f 4/4/1 3/3/2 1/1/3 2/2/4
f 6/6/5 5/5/6 1/1/7 3/3/8
f 7/7/9 8/8/10 19/23/11 20/24/12
f 12/12/13 11/11/14 9/9/15 10/10/16
f 13/15/17 9/9/18 11/11/19 16/18/20
f 16/18/20 11/11/19 8/8/21
f 8/8/21 11/11/19 2/2/22 19/23/23
f 19/23/23 2/2/22 17/21/24
f 2/2/22 1/1/25 5/5/26 17/21/24
f 16/18/27 15/17/28 14/16/29 13/15/30
f 12/29/31 10/28/32 14/19/33 15/20/34
f 15/20/34 7/27/35 12/29/31
f 4/13/36 12/29/31 7/27/35 20/26/37
f 20/26/37 18/25/38 4/13/36
f 4/13/36 18/25/38 6/14/39 3/3/40
f 20/24/41 19/23/42 17/21/43 18/22/44
f 7/7/45 15/17/46 16/18/47 8/8/48
f 18/22/49 17/21/50 5/5/51 6/6/52
f 14/16/53 10/10/54 9/9/55 13/15/56
f 12/29/57 4/4/58 2/2/59 11/11/60
