# This file uses centimeters as units for non-parametric coordinates.

v 0.675894 0.181670 0.155051
v -0.675894 0.181670 0.155051
v 0.675894 0.181670 0.274294
v -0.675894 0.181670 0.274294
v 0.654018 0.100274 0.227731
v -0.654018 0.100274 0.227731
v 0.654018 0.100274 0.155064
v -0.654018 0.100274 0.155064
v 0.757110 0.177261 0.315074
v 0.757110 0.242452 0.315074
v -0.757110 0.242452 0.315074
v -0.757110 0.177261 0.315074
v 0.757110 0.177261 0.155038
v -0.757110 0.177261 0.155038
v 0.757110 0.242452 0.155038
v 0.652609 -0.055861 0.216428
v 0.652609 0.106259 0.216428
v -0.652609 0.106259 0.216428
v -0.652609 -0.055861 0.216428
v 0.652609 -0.055861 0.155068
v -0.652609 -0.055861 0.155068
v -0.652609 0.106259 0.155068
v 0.652609 0.106259 0.155068
v -0.790465 0.308508 0.368966
v -0.790465 0.236524 0.368966
v 0.790342 0.236524 0.368966
v 0.790342 0.308508 0.368966
v 0.790342 0.236524 0.155038
v -0.790465 0.236524 0.155038
v 0.790342 0.308508 0.155038
v -0.757110 0.242452 0.155038
v -0.790465 0.308508 0.155038
vt 0.000000 1.000000
vt 1.000000 1.000000
vt 0.000000 2.000000
vt 1.000000 2.000000
vt 0.000000 3.000000
vt 1.000000 3.000000
vt 0.000000 4.000000
vt 1.000000 4.000000
vt 2.000000 0.000000
vt 2.000000 1.000000
vt 1.000000 0.000000
vt -1.000000 1.000000
vt 0.000000 0.000000
vt -1.000000 0.000000
vt 0.000000 3.000000
vt 0.000000 2.000000
vt 1.000000 2.000000
vt 1.000000 3.000000
vt 0.000000 3.788061
vt 1.000000 3.788061
vt -1.000000 0.000000
vt -0.211939 0.000000
vt -1.000000 1.000000
vt -0.211939 1.000000
vt 0.000000 3.000000
vt 0.000000 2.000000
vt 1.000000 2.000000
vt 1.000000 3.000000
vt 0.000000 4.000000
vt 1.000000 4.000000
vt 1.000000 1.000000
vt 1.000000 0.000000
vt 2.000000 0.000000
vt 2.000000 1.000000
vt -1.000000 1.000000
vt -1.000000 0.000000
vt 0.000000 0.000000
vt 0.000000 1.000000
vt 1.000000 2.000000
vt 1.000000 3.000000
vt 0.000000 3.000000
vt 0.000000 2.000000
vt 0.000000 3.708012
vt 1.000000 3.708012
vt -1.000000 0.000000
vt -0.291988 0.000000
vt -1.000000 1.000000
vt -0.291988 1.000000
vt 2.000000 1.000000
vt 1.211939 1.000000
vt 1.211939 0.000000
vt 2.000000 0.000000
vt 0.000000 1.291988
vt 1.000000 1.291988
vt 2.000000 1.000000
vt 1.291988 1.000000
vt 1.291988 0.000000
vt 2.000000 0.000000
vn 0.000000 1.000000 0.000000
vn 0.000000 1.000000 0.000000
vn 0.000000 1.000000 0.000000
vn 0.000000 1.000000 0.000000
vn 0.000000 1.000000 0.000000
vn 0.000000 1.000000 0.000000
vn 0.000000 -0.496547 0.868010
vn 0.000000 -0.496547 0.868010
vn 0.000000 -0.496547 0.868010
vn 0.000000 -0.496547 0.868010
vn 0.000000 -1.000000 0.000000
vn 0.000000 -1.000000 0.000000
vn 0.000000 -1.000000 0.000000
vn 0.000000 -1.000000 0.000000
vn -0.965730 -0.259550 0.000000
vn -0.965730 -0.259550 0.000000
vn -0.965730 -0.259550 0.000000
vn -0.965730 -0.259550 0.000000
vn 0.965730 -0.259550 0.000000
vn 0.965730 -0.259550 0.000000
vn 0.965730 -0.259550 0.000000
vn 0.965730 -0.259549 0.000000
vn 0.965730 -0.259549 0.000000
vn 0.965730 -0.259549 0.000000
vn 0.000000 0.000000 1.000000
vn 0.000000 0.000000 1.000000
vn 0.000000 0.000000 1.000000
vn 0.000000 0.000000 1.000000
vn 0.000000 -1.000000 0.000000
vn 0.000000 -1.000000 0.000000
vn 0.000000 -1.000000 0.000000
vn 0.000000 -1.000000 0.000000
vn 1.000000 -0.000001 0.000000
vn 1.000000 -0.000001 0.000000
vn 1.000000 -0.000001 0.000000
vn 1.000000 0.000000 0.000000
vn 1.000000 0.000000 0.000000
vn 1.000000 0.000000 0.000000
vn 0.000000 0.000000 1.000000
vn 0.000000 0.000000 1.000000
vn 0.000000 0.000000 1.000000
vn 0.000000 0.000000 1.000000
vn 0.000000 -1.000000 0.000000
vn 0.000000 -1.000000 0.000000
vn 0.000000 -1.000000 0.000000
vn 0.000000 -1.000000 0.000000
vn -1.000000 0.000000 0.000000
vn -1.000000 0.000000 0.000000
vn -1.000000 0.000000 0.000000
vn -1.000000 0.000000 0.000000
vn 1.000000 -0.000000 0.000000
vn 1.000000 -0.000000 0.000000
vn 1.000000 -0.000000 0.000000
vn 1.000000 -0.000000 0.000000
vn 0.000000 0.000000 1.000000
vn 0.000000 0.000000 1.000000
vn 0.000000 0.000000 1.000000
vn 0.000000 0.000000 1.000000
vn 0.000000 -1.000000 0.000000
vn 0.000000 -1.000000 0.000000
vn 0.000000 -1.000000 0.000000
vn 0.000000 -1.000000 0.000000
vn 1.000000 -0.000000 0.000000
vn 1.000000 -0.000000 0.000000
vn 1.000000 -0.000000 0.000000
vn 1.000000 0.000000 0.000000
vn 1.000000 0.000000 0.000000
vn 1.000000 0.000000 0.000000
vn -1.000000 0.000000 0.000000
vn -1.000000 0.000000 0.000000
vn -1.000000 0.000000 0.000000
vn -1.000000 0.000000 0.000000
vn 0.000000 1.000000 0.000000
vn 0.000000 1.000000 0.000000
vn 0.000000 1.000000 0.000000
vn 0.000000 1.000000 0.000000
vn -1.000000 0.000000 0.000000
vn -1.000000 0.000000 0.000000
vn -1.000000 0.000000 0.000000
vn -1.000000 0.000000 0.000000
g stone
f 1/1/1 2/2/2 3/3/3
f 2/2/4 4/4/5 3/3/6
f 5/5/7 3/3/8 4/4/9 6/6/10
f 7/7/11 5/5/12 6/6/13 8/8/14
f 6/9/15 4/10/16 2/2/17 8/11/18
f 1/1/19 3/12/20 7/13/21
f 5/14/22 7/13/23 3/12/24
f 9/15/25 10/16/26 11/17/27 12/18/28
f 13/19/29 9/15/30 12/18/31 14/20/32
f 9/21/33 13/22/34 10/23/35
f 13/22/36 15/24/37 10/23/38
f 16/25/39 17/26/40 18/27/41 19/28/42
f 20/29/43 16/25/44 19/28/45 21/30/46
f 22/31/47 21/32/48 19/33/49 18/34/50
f 17/35/51 16/36/52 20/37/53 23/38/54
f 24/39/55 25/40/56 26/41/57 27/42/58
f 28/43/59 26/41/60 25/40/61 29/44/62
f 26/45/63 28/46/64 27/47/65
f 28/46/66 30/48/67 27/47/68
f 11/49/69 31/50/70 14/51/71 12/52/72
f 27/42/73 30/53/74 32/54/75 24/39/76
f 24/55/77 32/56/78 29/57/79 25/58/80
