# This file uses centimeters as units for non-parametric coordinates.

mtllib bridge1.mtl
v -50.000000 0.000000 10.000000
v -50.000000 50.000000 10.000000
v 50.000000 0.000000 10.000000
v 50.000000 50.000000 10.000000
v 50.000000 0.000000 -10.000000
v 50.000000 50.000000 -10.000000
v -50.000000 0.000000 -10.000000
v -50.000000 50.000000 -10.000000
v 47.000000 0.000000 10.000000
v 47.000000 0.000000 -10.000000
v -47.000000 0.000000 -10.000000
v -47.000000 0.000000 10.000000
v 44.165554 16.074947 10.000000
v 40.703194 23.500000 10.000000
v 46.285965 8.161465 10.000000
v 36.004089 30.211020 10.000000
v 16.074942 44.165554 10.000000
v 23.499998 40.703197 10.000000
v 8.161461 46.285965 10.000000
v -0.000002 47.000000 10.000000
v -16.074951 44.165554 10.000000
v -23.500002 40.703194 10.000000
v 30.211016 36.004093 10.000000
v -30.211020 36.004089 10.000000
v -36.004097 30.211010 10.000000
v -40.703194 23.500002 10.000000
v -44.165554 16.074940 10.000000
v -8.161470 46.285965 10.000000
v -46.285965 8.161459 10.000000
v 46.285965 8.161465 -10.000000
v 44.165554 16.074947 -10.000000
v 40.703194 23.500000 -10.000000
v 36.004089 30.211020 -10.000000
v 23.499998 40.703197 -10.000000
v 16.074942 44.165554 -10.000000
v 8.161461 46.285965 -10.000000
v -0.000002 47.000000 -10.000000
v -8.161470 46.285965 -10.000000
v -16.074951 44.165554 -10.000000
v 30.211016 36.004093 -10.000000
v -23.500002 40.703194 -10.000000
v -30.211020 36.004089 -10.000000
v -40.703194 23.500002 -10.000000
v -44.165554 16.074940 -10.000000
v -46.285965 8.161459 -10.000000
v 47.000000 0.000000 0.000000
v -36.004097 30.211010 -10.000000
v 16.074942 44.165554 10.000000
v 46.285965 8.161465 10.000000
v 44.165554 16.074947 10.000000
v 40.703194 23.500000 10.000000
v 36.004089 30.211020 10.000000
v 30.211016 36.004093 10.000000
v 23.499998 40.703197 10.000000
v -30.211020 36.004089 10.000000
v 8.161461 46.285965 10.000000
v -0.000002 47.000000 10.000000
v -8.161470 46.285965 10.000000
v -16.074951 44.165554 10.000000
v -23.500002 40.703194 10.000000
v 44.165554 16.074947 -10.000000
v -36.004097 30.211010 10.000000
v -40.703194 23.500002 10.000000
v -44.165554 16.074940 10.000000
v -46.285965 8.161459 10.000000
v 23.499998 40.703197 -10.000000
v 46.285965 8.161465 -10.000000
v 47.000000 0.000000 -10.000000
v 8.161461 46.285965 -10.000000
v 40.703194 23.500000 -10.000000
v 36.004089 30.211020 -10.000000
v 30.211016 36.004093 -10.000000
v -30.211020 36.004089 -10.000000
v 16.074942 44.165554 -10.000000
v -40.703194 23.500002 -10.000000
v -0.000002 47.000000 -10.000000
v -8.161470 46.285965 -10.000000
v -16.074951 44.165554 -10.000000
v -23.500002 40.703194 -10.000000
v 47.000000 0.000000 0.000000
v -36.004097 30.211010 -10.000000
v -46.285965 8.161459 -10.000000
v -44.165554 16.074940 -10.000000
v -47.000000 0.000000 10.000000
v 47.000000 0.000000 10.000000
v -47.000000 0.000000 -10.000000
vt 1.000000 0.400000
vt 0.600000 0.250000
vt 0.000000 0.750000
vt 1.000000 0.600000
vt 0.600000 0.750000
vt 0.000000 0.250000
vt 0.000000 0.600000
vt 0.400000 0.750000
vt 0.030000 0.250000
vt 0.000000 0.400000
vt 0.400000 0.250000
vt 0.037140 0.331615
vt 0.400000 0.250000
vt 0.962860 0.331615
vt 0.400000 0.750000
vt 0.970000 0.250000
vt 0.600000 0.750000
vt 1.000000 0.250000
vt 0.600000 0.250000
vt 1.000000 0.750000
vt 0.400000 0.250000
vt 0.058344 0.410749
vt 0.600000 0.250000
vt 0.941656 0.410749
vt 0.400000 0.331615
vt 0.907032 0.485000
vt 0.600000 0.331615
vt 0.092968 0.485000
vt 0.139959 0.552110
vt 0.860041 0.552110
vt 0.802110 0.610041
vt 0.197890 0.610041
vt 0.265000 0.657032
vt 0.735000 0.657032
vt 0.339251 0.691656
vt 0.660749 0.691656
vt 0.418385 0.712860
vt 0.581615 0.712860
vt 0.500000 0.720000
vt 0.962860 0.331615
vt 1.000000 0.750000
vt 1.000000 0.250000
vt 0.970000 0.250000
vt 0.037140 0.331615
vt 0.030000 0.250000
vt 0.000000 0.250000
vt 0.000000 0.750000
vt 0.058344 0.410749
vt 0.941656 0.410749
vt 0.907032 0.485000
vt 0.092968 0.485000
vt 0.139959 0.552110
vt 0.860041 0.552110
vt 0.802110 0.610041
vt 0.197890 0.610041
vt 0.265000 0.657032
vt 0.735000 0.657032
vt 0.339251 0.691656
vt 0.660749 0.691656
vt 0.418385 0.712860
vt 0.581615 0.712860
vt 0.970000 0.500000
vt 0.500000 0.720000
vt 1.000000 0.400000
vt 0.970000 0.400000
vt 0.970000 0.600000
vt 1.000000 0.600000
vt 0.500000 0.250000
vt 0.400000 0.250000
vt 0.600000 0.250000
vt 0.400000 0.410749
vt 0.600000 0.410749
vt 0.400000 0.485000
vt 0.600000 0.485000
vt 0.400000 0.552110
vt 0.802110 0.400000
vt 0.802110 0.600000
vt 0.860041 0.600000
vt 0.860041 0.400000
vt 0.735000 0.400000
vt 0.735000 0.600000
vt 0.660749 0.400000
vt 0.660749 0.600000
vt 0.600000 0.552110
vt 0.581615 0.400000
vt 0.581615 0.600000
vt 0.500000 0.400000
vt 0.500000 0.600000
vt 0.418385 0.400000
vt 0.418385 0.600000
vt 0.339251 0.400000
vt 0.339251 0.600000
vt 0.265000 0.400000
vt 0.265000 0.600000
vt 0.197890 0.400000
vt 0.197890 0.600000
vt 0.139959 0.400000
vt 0.139959 0.600000
vt 0.400000 0.485000
vt 0.600000 0.485000
vt 0.600000 0.552110
vt 0.400000 0.552110
vt 0.400000 0.410749
vt 0.600000 0.410749
vt 0.400000 0.331615
vt 0.600000 0.331615
vt 0.600000 0.250000
vt 0.400000 0.250000
vn 0.000000 0.000000 1.000000
vn 0.000000 0.000000 1.000000
vn 0.000000 0.000000 1.000000
vn 0.000000 0.000000 1.000000
vn 0.000000 0.000000 1.000000
vn 0.000000 0.000000 1.000000
vn 0.000000 0.000000 1.000000
vn 0.000000 0.000000 1.000000
vn -0.000001 0.000000 1.000000
vn -0.000001 0.000000 1.000000
vn -0.000001 0.000000 1.000000
vn 0.000000 0.000000 1.000000
vn 0.000000 0.000000 1.000000
vn 0.000000 0.000000 1.000000
vn 0.000000 0.000000 1.000000
vn 0.000000 0.000000 1.000000
vn 0.000000 0.000000 1.000000
vn 0.000000 0.000000 1.000000
vn 0.000000 0.000000 1.000000
vn 0.000000 0.000000 1.000000
vn 0.000000 0.000000 1.000000
vn 0.000000 0.000000 1.000000
vn 0.000000 0.000000 1.000000
vn 0.000000 0.000000 1.000000
vn 0.000000 0.000000 1.000000
vn 0.000000 0.000000 1.000000
vn 0.000000 0.000000 1.000000
vn 0.000000 0.000000 1.000000
vn 0.000000 0.000000 1.000000
vn 0.000000 0.000000 1.000000
vn 0.000000 0.000000 1.000000
vn 0.000000 0.000000 1.000000
vn 0.000000 0.000000 1.000000
vn 0.000000 0.000000 1.000000
vn 0.000000 0.000000 1.000000
vn -0.000000 0.000000 1.000000
vn -0.000000 0.000000 1.000000
vn -0.000000 0.000000 1.000000
vn 0.000000 0.000000 1.000000
vn 0.000000 0.000000 1.000000
vn 0.000000 0.000000 1.000000
vn 0.000000 0.000000 1.000000
vn 0.000000 0.000000 1.000000
vn 0.000000 0.000000 1.000000
vn 0.000000 0.000000 1.000000
vn 0.000000 0.000000 1.000000
vn 0.000000 0.000000 1.000000
vn 0.000000 0.000000 1.000000
vn 0.000000 0.000000 1.000000
vn 0.000000 0.000000 1.000000
vn 0.000000 0.000000 1.000000
vn 0.000000 0.000000 1.000000
vn 0.000000 0.000000 1.000000
vn 0.000000 0.000000 1.000000
vn 0.000000 0.000000 1.000000
vn 0.000000 0.000000 1.000000
vn 0.000000 0.000000 1.000000
vn 0.000000 0.000000 1.000000
vn 0.000000 0.000000 1.000000
vn 1.000000 0.000000 0.000000
vn 1.000000 0.000000 0.000000
vn 1.000000 0.000000 0.000000
vn 1.000000 0.000000 0.000000
vn -0.000000 0.000000 -1.000000
vn -0.000000 0.000000 -1.000000
vn -0.000000 0.000000 -1.000000
vn -0.000000 0.000000 -1.000000
vn 0.000000 0.000000 -1.000000
vn 0.000000 0.000000 -1.000000
vn 0.000000 0.000000 -1.000000
vn 0.000000 0.000000 -1.000000
vn -0.000001 0.000000 -1.000000
vn -0.000001 0.000000 -1.000000
vn -0.000001 0.000000 -1.000000
vn 0.000000 0.000000 -1.000000
vn 0.000000 0.000000 -1.000000
vn 0.000000 0.000000 -1.000000
vn 0.000000 0.000000 -1.000000
vn 0.000000 0.000000 -1.000000
vn 0.000000 0.000000 -1.000000
vn 0.000000 0.000000 -1.000000
vn 0.000000 0.000000 -1.000000
vn 0.000000 0.000000 -1.000000
vn 0.000000 0.000000 -1.000000
vn 0.000000 0.000000 -1.000000
vn 0.000000 0.000000 -1.000000
vn 0.000000 0.000000 -1.000000
vn 0.000000 0.000000 -1.000000
vn 0.000000 0.000000 -1.000000
vn 0.000000 0.000000 -1.000000
vn 0.000000 0.000000 -1.000000
vn 0.000000 0.000000 -1.000000
vn 0.000000 0.000000 -1.000000
vn 0.000000 0.000000 -1.000000
vn 0.000000 0.000000 -1.000000
vn 0.000000 0.000000 -1.000000
vn 0.000000 0.000000 -1.000000
vn 0.000000 0.000000 -1.000000
vn -0.000000 0.000000 -1.000000
vn -0.000000 0.000000 -1.000000
vn -0.000000 0.000000 -1.000000
vn 0.000000 0.000000 -1.000000
vn 0.000000 0.000000 -1.000000
vn 0.000000 0.000000 -1.000000
vn 0.000000 0.000000 -1.000000
vn 0.000000 0.000000 -1.000000
vn 0.000000 0.000000 -1.000000
vn 0.000000 0.000000 -1.000000
vn 0.000000 0.000000 -1.000000
vn 0.000000 0.000000 -1.000000
vn 0.000000 0.000000 -1.000000
vn 0.000000 0.000000 -1.000000
vn 0.000000 0.000000 -1.000000
vn 0.000000 0.000000 -1.000000
vn 0.000000 0.000000 -1.000000
vn 0.000000 0.000000 -1.000000
vn 0.000000 0.000000 -1.000000
vn 0.000000 0.000000 -1.000000
vn 0.000000 0.000000 -1.000000
vn 0.000000 0.000000 -1.000000
vn 0.000000 0.000000 -1.000000
vn 0.000000 0.000000 -1.000000
vn -1.000000 0.000000 0.000000
vn -1.000000 0.000000 0.000000
vn -1.000000 0.000000 0.000000
vn -1.000000 0.000000 0.000000
vn 0.000000 1.000000 0.000000
vn 0.000000 1.000000 0.000000
vn 0.000000 1.000000 0.000000
vn 0.000000 1.000000 0.000000
vn 0.000000 -1.000000 0.000000
vn 0.000000 -1.000000 0.000000
vn 0.000000 -1.000000 0.000000
vn 0.000000 -1.000000 0.000000
vn 0.000000 -1.000000 0.000000
vn 0.000000 -1.000000 0.000000
vn 0.000000 -1.000000 0.000000
vn 0.000000 -1.000000 0.000000
vn 0.000000 -1.000000 0.000000
vn 0.000000 -1.000000 0.000000
vn 0.000000 -1.000000 0.000000
vn -0.984808 -0.173648 0.000000
vn -0.984808 -0.173648 0.000000
vn -0.996195 -0.087156 0.000000
vn -0.996195 -0.087156 0.000000
vn -0.996195 -0.087156 0.000000
vn -0.996195 -0.087156 0.000000
vn -0.996195 -0.087156 0.000000
vn -0.939693 -0.342020 0.000000
vn -0.939693 -0.342020 0.000000
vn -0.866025 -0.500000 0.000000
vn -0.866025 -0.500000 0.000000
vn -0.766045 -0.642788 0.000000
vn -0.766045 -0.642788 0.000000
vn -0.642788 -0.766045 0.000000
vn -0.642788 -0.766045 0.000000
vn -0.500000 -0.866026 0.000000
vn -0.500000 -0.866026 0.000000
vn -0.342020 -0.939693 0.000000
vn -0.342020 -0.939693 0.000000
vn -0.173648 -0.984808 0.000000
vn -0.173648 -0.984808 0.000000
vn -0.000000 -1.000000 0.000000
vn -0.000000 -1.000000 0.000000
vn 0.173648 -0.984808 0.000000
vn 0.173648 -0.984808 0.000000
vn 0.342020 -0.939693 0.000000
vn 0.342020 -0.939693 0.000000
vn 0.500000 -0.866025 0.000000
vn 0.500000 -0.866025 0.000000
vn 0.642788 -0.766044 0.000000
vn 0.642788 -0.766044 0.000000
vn 0.766045 -0.642787 0.000000
vn 0.766045 -0.642787 0.000000
vn 0.866026 -0.500000 0.000000
vn 0.866026 -0.500000 0.000000
vn 0.939693 -0.342020 0.000000
vn 0.939693 -0.342020 0.000000
vn 0.984808 -0.173648 0.000000
vn 0.984808 -0.173648 0.000000
vn 0.996195 -0.087156 0.000000
vn 0.996195 -0.087156 0.000000
s off
g Boole Cube polySurface1
usemtl initialShadingGroup
f 2/3/1 1/6/2 12/9/3 29/12/4
f 15/14/5 9/16/6 3/18/7 4/20/8
f 2/3/9 29/12/10 27/22/11
f 13/24/12 15/14/13 4/20/14
f 14/26/15 13/24/16 4/20/17
f 2/3/18 27/22/19 26/28/20
f 2/3/21 26/28/22 25/29/23
f 16/30/24 14/26/25 4/20/26
f 23/31/27 16/30/28 4/20/29
f 2/3/30 25/29/31 24/32/32
f 2/3/33 24/32/34 22/33/35
f 18/34/36 23/31/37 4/20/38
f 2/3/39 22/33/40 21/35/41
f 17/36/42 18/34/43 4/20/44
f 2/3/45 21/35/46 28/37/47
f 19/38/48 17/36/49 4/20/50
f 20/39/51 19/38/52 4/20/53
f 2/3/54 28/37/55 20/39/56
f 20/39/57 4/20/58 2/3/59
f 5/2/60 6/5/61 4/8/62 3/11/63
f 30/40/64 6/41/65 5/42/66 10/43/67
f 45/44/68 11/45/69 7/46/70 8/47/71
f 44/48/72 45/44/73 8/47/74
f 6/41/75 30/40/76 31/49/77
f 6/41/78 31/49/79 32/50/80
f 43/51/81 44/48/82 8/47/83
f 47/52/84 43/51/85 8/47/86
f 6/41/87 32/50/88 33/53/89
f 6/41/90 33/53/91 40/54/92
f 42/55/93 47/52/94 8/47/95
f 41/56/96 42/55/97 8/47/98
f 6/41/99 40/54/100 34/57/101
f 39/58/102 41/56/103 8/47/104
f 6/41/105 34/57/106 35/59/107
f 38/60/108 39/58/109 8/47/110
f 6/41/111 35/59/112 36/61/113
f 6/41/114 36/61/115 37/63/116
f 37/63/117 38/60/118 8/47/119
f 8/47/120 6/41/121 37/63/122
f 1/13/123 2/15/124 8/17/125 7/19/126
f 4/1/127 6/4/128 8/7/129 2/10/130
f 12/21/131 1/13/132 7/19/133 11/23/134
f 46/62/135 3/64/136 9/65/137
f 3/64/138 46/62/139 10/66/140 5/67/141
s 1
g Boole Cylinder polySurface1
f 49/25/142 67/27/143 80/68/144 85/69/145
s off
f 67/27/146 68/70/147 80/68/148
s 1
f 50/71/149 61/72/150 67/27/143 49/25/142
f 51/73/151 70/74/152 61/72/150 50/71/149
f 52/75/153 71/84/154 70/74/152 51/73/151
f 53/76/155 72/77/156 71/78/154 52/79/153
f 72/77/156 53/76/155 54/80/157 66/81/158
f 48/82/159 74/83/160 66/81/158 54/80/157
f 56/85/161 69/86/162 74/83/160 48/82/159
f 57/87/163 76/88/164 69/86/162 56/85/161
f 58/89/165 77/90/166 76/88/164 57/87/163
f 59/91/167 78/92/168 77/90/166 58/89/165
f 60/93/169 79/94/170 78/92/168 59/91/167
f 79/94/170 60/93/169 55/95/171 73/96/172
f 62/97/173 81/98/174 73/96/172 55/95/171
f 63/99/175 75/100/176 81/101/174 62/102/173
f 64/103/177 83/104/178 75/100/176 63/99/175
f 65/105/179 82/106/180 83/104/178 64/103/177
f 86/107/181 82/106/180 65/105/179 84/108/182
