# This file uses centimeters as units for non-parametric coordinates.

g default
v -0.741380 0.000000 0.000000
v 0.741380 0.000000 0.000000
v -0.741380 0.000000 0.247324
v 0.741380 0.000000 0.247324
v -0.741380 0.983400 0.076892
v 0.741380 0.983400 0.076892
v -0.741380 1.000000 0.000000
v 0.741380 1.000000 0.000000
vt -0.000000 0.000000
vt 1.000000 0.000000
vt 1.000000 1.000000
vt -0.000000 1.000000
vt -0.000000 0.000000
vt 1.000000 0.000000
vt 1.000000 0.000000
vt 1.000000 1.000000
vt 0.689103 0.983400
vt -0.000000 0.000000
vt 1.000000 1.000000
vt 1.000000 0.000000
vt 0.000000 0.000000
vt 0.689103 0.983400
vt 1.000000 1.000000
vt -0.000000 1.000000
vn 0.000000 0.170763 0.985312
vn 0.000000 0.170763 0.985312
vn 0.000000 0.170763 0.985312
vn 0.000000 0.170763 0.985312
vn 0.000000 0.977482 0.211021
vn 0.000000 0.977482 0.211021
vn 0.000000 0.977482 0.211021
vn 0.000000 0.977482 0.211021
vn 1.000000 0.000000 0.000000
vn 1.000000 0.000000 0.000000
vn 1.000000 0.000000 0.000000
vn 1.000000 0.000000 0.000000
vn -1.000000 -0.000000 0.000000
vn -1.000000 -0.000000 0.000000
vn -1.000000 -0.000000 0.000000
vn -1.000000 -0.000000 0.000000
g stoneBase_1
f 3/5/1 4/6/2 6/15/3 5/16/4
f 5/1/5 6/2/6 8/3/7 7/4/8
f 2/7/9 8/8/10 6/9/11 4/10/12
f 7/11/13 1/12/14 3/13/15 5/14/16
